<svg xmlns="http://www.w3.org/2000/svg" width="940" height="340" viewBox="0 0 940 340"><rect width="100%" height="100%" fill="white"/><defs><marker id="arrow-gray" viewBox="0 0 10 10" refX="9" refY="5" markerWidth="7" markerHeight="7" orient="auto-start-reverse"><path d="M 0 0 L 10 5 L 0 10 z" fill="#87949a"/></marker><marker id="arrow-blue" viewBox="0 0 10 10" refX="9" refY="5" markerWidth="7" markerHeight="7" orient="auto-start-reverse"><path d="M 0 0 L 10 5 L 0 10 z" fill="#4f7ea8"/></marker><marker id="arrow-amber" viewBox="0 0 10 10" refX="9" refY="5" markerWidth="7" markerHeight="7" orient="auto-start-reverse"><path d="M 0 0 L 10 5 L 0 10 z" fill="#d99a24"/></marker><marker id="arrow-teal" viewBox="0 0 10 10" refX="9" refY="5" markerWidth="7" markerHeight="7" orient="auto-start-reverse"><path d="M 0 0 L 10 5 L 0 10 z" fill="#158574"/></marker><marker id="arrow-red" viewBox="0 0 10 10" refX="9" refY="5" markerWidth="7" markerHeight="7" orient="auto-start-reverse"><path d="M 0 0 L 10 5 L 0 10 z" fill="#c85b4a"/></marker><marker id="arrow-text" viewBox="0 0 10 10" refX="9" refY="5" markerWidth="7" markerHeight="7" orient="auto-start-reverse"><path d="M 0 0 L 10 5 L 0 10 z" fill="#263238"/></marker></defs><style>text{font-family:Arial,Helvetica,'DejaVu Sans',sans-serif;dominant-baseline:middle}.caption{fill:#6f7f86;font-size:15px;font-weight:500}</style><rect x="20.0" y="26.0" width="300.0" height="270.0" rx="7.0" fill="#ffffff" stroke="#d8e0e4" stroke-width="1.2"/><text text-anchor="start" font-size="16" font-weight="700" fill="#263238"><tspan x="36.0" y="48.0">A. Non-uniform pB</tspan></text><rect x="350.0" y="26.0" width="250.0" height="270.0" rx="7.0" fill="#ffffff" stroke="#d8e0e4" stroke-width="1.2"/><text text-anchor="start" font-size="16" font-weight="700" fill="#263238"><tspan x="366.0" y="48.0">B. Four trajectories</tspan></text><rect x="632.0" y="26.0" width="286.0" height="270.0" rx="7.0" fill="#ffffff" stroke="#d8e0e4" stroke-width="1.2"/><text text-anchor="start" font-size="16" font-weight="700" fill="#263238"><tspan x="648.0" y="48.0">C. Forward response</tspan></text><line x1="149.4" y1="121.7" x2="75.6" y2="153.3" stroke="#87949a" stroke-width="2.5" stroke-linecap="round" opacity="1.00" marker-end="url(#arrow-gray)"/><line x1="149.4" y1="198.3" x2="75.6" y2="166.7" stroke="#87949a" stroke-width="2.5" stroke-linecap="round" opacity="1.00" marker-end="url(#arrow-gray)"/><line x1="268.3" y1="95.2" x2="181.7" y2="111.8" stroke="#87949a" stroke-width="2.5" stroke-linecap="round" opacity="1.00" marker-end="url(#arrow-gray)"/><line x1="269.1" y1="154.0" x2="180.9" y2="121.0" stroke="#87949a" stroke-width="2.5" stroke-linecap="round" opacity="1.00" marker-end="url(#arrow-gray)"/><line x1="269.1" y1="166.0" x2="180.9" y2="199.0" stroke="#87949a" stroke-width="2.5" stroke-linecap="round" opacity="1.00" marker-end="url(#arrow-gray)"/><line x1="268.3" y1="224.8" x2="181.7" y2="208.2" stroke="#87949a" stroke-width="2.5" stroke-linecap="round" opacity="1.00" marker-end="url(#arrow-gray)"/><circle cx="60.0" cy="160.0" r="17.0" fill="#e6eef6" stroke="#4f7ea8" stroke-width="2.8"/><text text-anchor="middle" font-size="11" font-weight="700" fill="#4f7ea8"><tspan x="60.0" y="161.0">s0</tspan></text><circle cx="165.0" cy="115.0" r="17.0" fill="#ffffff" stroke="#263238" stroke-width="2.8"/><text text-anchor="middle" font-size="12" font-weight="700" fill="#263238"><tspan x="165.0" y="116.0">s1</tspan></text><circle cx="165.0" cy="205.0" r="17.0" fill="#ffffff" stroke="#263238" stroke-width="2.8"/><text text-anchor="middle" font-size="12" font-weight="700" fill="#263238"><tspan x="165.0" y="206.0">s2</tspan></text><circle cx="285.0" cy="92.0" r="17.0" fill="#fae8e4" stroke="#c85b4a" stroke-width="2.8"/><text text-anchor="middle" font-size="12" font-weight="700" fill="#c85b4a"><tspan x="285.0" y="93.0">x1</tspan></text><circle cx="285.0" cy="160.0" r="17.0" fill="#fae8e4" stroke="#c85b4a" stroke-width="2.8"/><text text-anchor="middle" font-size="12" font-weight="700" fill="#c85b4a"><tspan x="285.0" y="161.0">x2</tspan></text><circle cx="285.0" cy="228.0" r="17.0" fill="#fae8e4" stroke="#c85b4a" stroke-width="2.8"/><text text-anchor="middle" font-size="12" font-weight="700" fill="#c85b4a"><tspan x="285.0" y="229.0">x3</tspan></text><text text-anchor="middle" font-size="13" font-weight="700" fill="#263238"><tspan x="262.0" y="128.0">1</tspan></text><text text-anchor="middle" font-size="13" font-weight="700" fill="#c85b4a"><tspan x="262.0" y="164.0">0.5</tspan></text><text text-anchor="middle" font-size="13" font-weight="700" fill="#c85b4a"><tspan x="262.0" y="192.0">0.5</tspan></text><text text-anchor="middle" font-size="13" font-weight="700" fill="#263238"><tspan x="262.0" y="236.0">1</tspan></text><text text-anchor="start" font-size="14" font-weight="700" fill="#263238"><tspan x="385.0" y="90.0">tau1</tspan></text><rect x="449.0" y="78.0" width="132.0" height="24.0" rx="5.0" fill="#eef3f5" stroke="none" stroke-width="0.0"/><rect x="449.0" y="78.0" width="132.0" height="24.0" rx="5.0" fill="#fff4df" stroke="#d99a24" stroke-width="1.4"/><text text-anchor="start" font-size="15" font-weight="700" fill="#d99a24"><tspan x="595.0" y="90.0">4</tspan></text><text text-anchor="start" font-size="14" font-weight="700" fill="#263238"><tspan x="385.0" y="132.0">tau2a</tspan></text><rect x="449.0" y="120.0" width="132.0" height="24.0" rx="5.0" fill="#eef3f5" stroke="none" stroke-width="0.0"/><rect x="449.0" y="120.0" width="33.0" height="24.0" rx="5.0" fill="#fff4df" stroke="#d99a24" stroke-width="1.4"/><text text-anchor="start" font-size="15" font-weight="700" fill="#d99a24"><tspan x="595.0" y="132.0">1</tspan></text><text text-anchor="start" font-size="14" font-weight="700" fill="#263238"><tspan x="385.0" y="174.0">tau2b</tspan></text><rect x="449.0" y="162.0" width="132.0" height="24.0" rx="5.0" fill="#eef3f5" stroke="none" stroke-width="0.0"/><rect x="449.0" y="162.0" width="33.0" height="24.0" rx="5.0" fill="#fff4df" stroke="#d99a24" stroke-width="1.4"/><text text-anchor="start" font-size="15" font-weight="700" fill="#d99a24"><tspan x="595.0" y="174.0">1</tspan></text><text text-anchor="start" font-size="14" font-weight="700" fill="#263238"><tspan x="385.0" y="216.0">tau3</tspan></text><rect x="449.0" y="204.0" width="132.0" height="24.0" rx="5.0" fill="#eef3f5" stroke="none" stroke-width="0.0"/><rect x="449.0" y="204.0" width="33.0" height="24.0" rx="5.0" fill="#fff4df" stroke="#d99a24" stroke-width="1.4"/><text text-anchor="start" font-size="15" font-weight="700" fill="#d99a24"><tspan x="595.0" y="216.0">1</tspan></text><line x1="685.6" y1="153.3" x2="759.4" y2="121.7" stroke="#263238" stroke-width="2.5" stroke-linecap="round" opacity="1.00" marker-end="url(#arrow-text)"/><line x1="685.6" y1="166.7" x2="759.4" y2="198.3" stroke="#263238" stroke-width="2.5" stroke-linecap="round" opacity="1.00" marker-end="url(#arrow-text)"/><line x1="791.7" y1="111.8" x2="878.3" y2="95.2" stroke="#263238" stroke-width="2.5" stroke-linecap="round" opacity="1.00" marker-end="url(#arrow-text)"/><line x1="790.9" y1="121.0" x2="879.1" y2="154.0" stroke="#263238" stroke-width="2.5" stroke-linecap="round" opacity="1.00" marker-end="url(#arrow-text)"/><line x1="790.9" y1="199.0" x2="879.1" y2="166.0" stroke="#263238" stroke-width="2.5" stroke-linecap="round" opacity="1.00" marker-end="url(#arrow-text)"/><line x1="791.7" y1="208.2" x2="878.3" y2="224.8" stroke="#263238" stroke-width="2.5" stroke-linecap="round" opacity="1.00" marker-end="url(#arrow-text)"/><circle cx="670.0" cy="160.0" r="17.0" fill="#e6eef6" stroke="#4f7ea8" stroke-width="2.8"/><text text-anchor="middle" font-size="11" font-weight="700" fill="#4f7ea8"><tspan x="670.0" y="161.0">s0</tspan></text><circle cx="775.0" cy="115.0" r="17.0" fill="#ffffff" stroke="#263238" stroke-width="2.8"/><text text-anchor="middle" font-size="12" font-weight="700" fill="#263238"><tspan x="775.0" y="116.0">s1</tspan></text><circle cx="775.0" cy="205.0" r="17.0" fill="#ffffff" stroke="#263238" stroke-width="2.8"/><text text-anchor="middle" font-size="12" font-weight="700" fill="#263238"><tspan x="775.0" y="206.0">s2</tspan></text><circle cx="895.0" cy="92.0" r="17.0" fill="#fae8e4" stroke="#c85b4a" stroke-width="2.8"/><text text-anchor="middle" font-size="12" font-weight="700" fill="#c85b4a"><tspan x="895.0" y="93.0">x1</tspan></text><circle cx="895.0" cy="160.0" r="17.0" fill="#fae8e4" stroke="#c85b4a" stroke-width="2.8"/><text text-anchor="middle" font-size="12" font-weight="700" fill="#c85b4a"><tspan x="895.0" y="161.0">x2</tspan></text><circle cx="895.0" cy="228.0" r="17.0" fill="#fae8e4" stroke="#c85b4a" stroke-width="2.8"/><text text-anchor="middle" font-size="12" font-weight="700" fill="#c85b4a"><tspan x="895.0" y="229.0">x3</tspan></text><text text-anchor="middle" font-size="13" font-weight="700" fill="#263238"><tspan x="722.5" y="121.5">5/7</tspan></text><text text-anchor="middle" font-size="13" font-weight="700" fill="#263238"><tspan x="722.5" y="198.5">2/7</tspan></text><text text-anchor="middle" font-size="13" font-weight="700" fill="#263238"><tspan x="835.0" y="88.5">4/5</tspan></text><text text-anchor="middle" font-size="13" font-weight="700" fill="#263238"><tspan x="835.0" y="149.5">1/5</tspan></text><text text-anchor="middle" font-size="13" font-weight="700" fill="#263238"><tspan x="835.0" y="170.5">1/2</tspan></text><text text-anchor="middle" font-size="13" font-weight="700" fill="#263238"><tspan x="835.0" y="231.5">1/2</tspan></text><text text-anchor="middle" font-size="15" font-weight="500" fill="#6f7f86"><tspan x="470.0" y="316.0">splitting x2 changes the route probabilities</tspan></text></svg>
