<svg xmlns="http://www.w3.org/2000/svg" width="1060" height="340" viewBox="0 0 1060 340"><rect width="100%" height="100%" fill="white"/><defs><marker id="arrow-gray" viewBox="0 0 10 10" refX="9" refY="5" markerWidth="7" markerHeight="7" orient="auto-start-reverse"><path d="M 0 0 L 10 5 L 0 10 z" fill="#87949a"/></marker><marker id="arrow-blue" viewBox="0 0 10 10" refX="9" refY="5" markerWidth="7" markerHeight="7" orient="auto-start-reverse"><path d="M 0 0 L 10 5 L 0 10 z" fill="#4f7ea8"/></marker><marker id="arrow-amber" viewBox="0 0 10 10" refX="9" refY="5" markerWidth="7" markerHeight="7" orient="auto-start-reverse"><path d="M 0 0 L 10 5 L 0 10 z" fill="#d99a24"/></marker><marker id="arrow-teal" viewBox="0 0 10 10" refX="9" refY="5" markerWidth="7" markerHeight="7" orient="auto-start-reverse"><path d="M 0 0 L 10 5 L 0 10 z" fill="#158574"/></marker><marker id="arrow-red" viewBox="0 0 10 10" refX="9" refY="5" markerWidth="7" markerHeight="7" orient="auto-start-reverse"><path d="M 0 0 L 10 5 L 0 10 z" fill="#c85b4a"/></marker><marker id="arrow-text" viewBox="0 0 10 10" refX="9" refY="5" markerWidth="7" markerHeight="7" orient="auto-start-reverse"><path d="M 0 0 L 10 5 L 0 10 z" fill="#263238"/></marker></defs><style>text{font-family:Arial,Helvetica,'DejaVu Sans',sans-serif;dominant-baseline:middle}.caption{fill:#6f7f86;font-size:15px;font-weight:500}</style><rect x="20.0" y="26.0" width="220.0" height="270.0" rx="7.0" fill="#ffffff" stroke="#d8e0e4" stroke-width="1.2"/><text text-anchor="start" font-size="16" font-weight="700" fill="#263238"><tspan x="36.0" y="48.0">A. Rewards</tspan></text><rect x="270.0" y="26.0" width="230.0" height="270.0" rx="7.0" fill="#ffffff" stroke="#d8e0e4" stroke-width="1.2"/><text text-anchor="start" font-size="16" font-weight="700" fill="#263238"><tspan x="286.0" y="48.0">B. Backward flow</tspan></text><rect x="530.0" y="26.0" width="220.0" height="270.0" rx="7.0" fill="#ffffff" stroke="#d8e0e4" stroke-width="1.2"/><text text-anchor="start" font-size="16" font-weight="700" fill="#263238"><tspan x="546.0" y="48.0">C. Forward flow</tspan></text><rect x="780.0" y="26.0" width="260.0" height="270.0" rx="7.0" fill="#ffffff" stroke="#d8e0e4" stroke-width="1.2"/><text text-anchor="start" font-size="16" font-weight="700" fill="#263238"><tspan x="796.0" y="48.0">D. Policy</tspan></text><text text-anchor="start" font-size="14" font-weight="700" fill="#263238"><tspan x="55.0" y="112.0">x1</tspan></text><rect x="119.0" y="100.0" width="132.0" height="24.0" rx="5.0" fill="#eef3f5" stroke="none" stroke-width="0.0"/><rect x="119.0" y="100.0" width="132.0" height="24.0" rx="5.0" fill="#fff4df" stroke="#d99a24" stroke-width="1.4"/><text text-anchor="start" font-size="15" font-weight="700" fill="#d99a24"><tspan x="265.0" y="112.0">4</tspan></text><text text-anchor="start" font-size="14" font-weight="700" fill="#263238"><tspan x="55.0" y="154.0">x2</tspan></text><rect x="119.0" y="142.0" width="132.0" height="24.0" rx="5.0" fill="#eef3f5" stroke="none" stroke-width="0.0"/><rect x="119.0" y="142.0" width="66.0" height="24.0" rx="5.0" fill="#fff4df" stroke="#d99a24" stroke-width="1.4"/><text text-anchor="start" font-size="15" font-weight="700" fill="#d99a24"><tspan x="265.0" y="154.0">2</tspan></text><text text-anchor="start" font-size="14" font-weight="700" fill="#263238"><tspan x="55.0" y="196.0">x3</tspan></text><rect x="119.0" y="184.0" width="132.0" height="24.0" rx="5.0" fill="#eef3f5" stroke="none" stroke-width="0.0"/><rect x="119.0" y="184.0" width="33.0" height="24.0" rx="5.0" fill="#fff4df" stroke="#d99a24" stroke-width="1.4"/><text text-anchor="start" font-size="15" font-weight="700" fill="#d99a24"><tspan x="265.0" y="196.0">1</tspan></text><text text-anchor="start" font-size="14" font-weight="700" fill="#263238"><tspan x="305.0" y="112.0">tau1</tspan></text><rect x="369.0" y="100.0" width="132.0" height="24.0" rx="5.0" fill="#eef3f5" stroke="none" stroke-width="0.0"/><rect x="369.0" y="100.0" width="132.0" height="24.0" rx="5.0" fill="#fff4df" stroke="#158574" stroke-width="1.4"/><text text-anchor="start" font-size="15" font-weight="700" fill="#158574"><tspan x="515.0" y="112.0">4</tspan></text><text text-anchor="start" font-size="14" font-weight="700" fill="#263238"><tspan x="305.0" y="154.0">tau2</tspan></text><rect x="369.0" y="142.0" width="132.0" height="24.0" rx="5.0" fill="#eef3f5" stroke="none" stroke-width="0.0"/><rect x="369.0" y="142.0" width="66.0" height="24.0" rx="5.0" fill="#fff4df" stroke="#158574" stroke-width="1.4"/><text text-anchor="start" font-size="15" font-weight="700" fill="#158574"><tspan x="515.0" y="154.0">2</tspan></text><text text-anchor="start" font-size="14" font-weight="700" fill="#263238"><tspan x="305.0" y="196.0">tau3</tspan></text><rect x="369.0" y="184.0" width="132.0" height="24.0" rx="5.0" fill="#eef3f5" stroke="none" stroke-width="0.0"/><rect x="369.0" y="184.0" width="33.0" height="24.0" rx="5.0" fill="#fff4df" stroke="#158574" stroke-width="1.4"/><text text-anchor="start" font-size="15" font-weight="700" fill="#158574"><tspan x="515.0" y="196.0">1</tspan></text><text text-anchor="middle" font-size="23" font-weight="700" fill="#263238"><tspan x="642.0" y="112.0">Z = 7</tspan></text><text text-anchor="start" font-size="14" font-weight="700" fill="#263238"><tspan x="565.0" y="162.0">tau1</tspan></text><rect x="629.0" y="150.0" width="132.0" height="24.0" rx="5.0" fill="#eef3f5" stroke="none" stroke-width="0.0"/><rect x="629.0" y="150.0" width="132.0" height="24.0" rx="5.0" fill="#fff4df" stroke="#4f7ea8" stroke-width="1.4"/><text text-anchor="start" font-size="15" font-weight="700" fill="#4f7ea8"><tspan x="775.0" y="162.0">4</tspan></text><text text-anchor="start" font-size="14" font-weight="700" fill="#263238"><tspan x="565.0" y="204.0">tau2</tspan></text><rect x="629.0" y="192.0" width="132.0" height="24.0" rx="5.0" fill="#eef3f5" stroke="none" stroke-width="0.0"/><rect x="629.0" y="192.0" width="66.0" height="24.0" rx="5.0" fill="#fff4df" stroke="#4f7ea8" stroke-width="1.4"/><text text-anchor="start" font-size="15" font-weight="700" fill="#4f7ea8"><tspan x="775.0" y="204.0">2</tspan></text><text text-anchor="start" font-size="14" font-weight="700" fill="#263238"><tspan x="565.0" y="246.0">tau3</tspan></text><rect x="629.0" y="234.0" width="132.0" height="24.0" rx="5.0" fill="#eef3f5" stroke="none" stroke-width="0.0"/><rect x="629.0" y="234.0" width="33.0" height="24.0" rx="5.0" fill="#fff4df" stroke="#4f7ea8" stroke-width="1.4"/><text text-anchor="start" font-size="15" font-weight="700" fill="#4f7ea8"><tspan x="775.0" y="246.0">1</tspan></text><line x1="815.6" y1="153.3" x2="889.4" y2="121.7" stroke="#263238" stroke-width="2.5" stroke-linecap="round" opacity="1.00" marker-end="url(#arrow-text)"/><line x1="815.6" y1="166.7" x2="889.4" y2="198.3" stroke="#263238" stroke-width="2.5" stroke-linecap="round" opacity="1.00" marker-end="url(#arrow-text)"/><line x1="921.7" y1="111.8" x2="1008.3" y2="95.2" stroke="#263238" stroke-width="2.5" stroke-linecap="round" opacity="1.00" marker-end="url(#arrow-text)"/><line x1="920.9" y1="199.0" x2="1009.1" y2="166.0" stroke="#263238" stroke-width="2.5" stroke-linecap="round" opacity="1.00" marker-end="url(#arrow-text)"/><line x1="921.7" y1="208.2" x2="1008.3" y2="224.8" stroke="#263238" stroke-width="2.5" stroke-linecap="round" opacity="1.00" marker-end="url(#arrow-text)"/><circle cx="800.0" cy="160.0" r="17.0" fill="#e6eef6" stroke="#4f7ea8" stroke-width="2.8"/><text text-anchor="middle" font-size="11" font-weight="700" fill="#4f7ea8"><tspan x="800.0" y="161.0">s0</tspan></text><circle cx="905.0" cy="115.0" r="17.0" fill="#ffffff" stroke="#263238" stroke-width="2.8"/><text text-anchor="middle" font-size="12" font-weight="700" fill="#263238"><tspan x="905.0" y="116.0">s1</tspan></text><circle cx="905.0" cy="205.0" r="17.0" fill="#ffffff" stroke="#263238" stroke-width="2.8"/><text text-anchor="middle" font-size="12" font-weight="700" fill="#263238"><tspan x="905.0" y="206.0">s2</tspan></text><circle cx="1025.0" cy="92.0" r="17.0" fill="#fae8e4" stroke="#c85b4a" stroke-width="2.8"/><text text-anchor="middle" font-size="12" font-weight="700" fill="#c85b4a"><tspan x="1025.0" y="93.0">x1</tspan></text><circle cx="1025.0" cy="160.0" r="17.0" fill="#fae8e4" stroke="#c85b4a" stroke-width="2.8"/><text text-anchor="middle" font-size="12" font-weight="700" fill="#c85b4a"><tspan x="1025.0" y="161.0">x2</tspan></text><circle cx="1025.0" cy="228.0" r="17.0" fill="#fae8e4" stroke="#c85b4a" stroke-width="2.8"/><text text-anchor="middle" font-size="12" font-weight="700" fill="#c85b4a"><tspan x="1025.0" y="229.0">x3</tspan></text><text text-anchor="middle" font-size="13" font-weight="700" fill="#263238"><tspan x="852.5" y="122.5">4/7</tspan></text><text text-anchor="middle" font-size="13" font-weight="700" fill="#263238"><tspan x="852.5" y="198.5">3/7</tspan></text><text text-anchor="middle" font-size="13" font-weight="700" fill="#263238"><tspan x="965.0" y="167.5">2/3</tspan></text><text text-anchor="middle" font-size="13" font-weight="700" fill="#263238"><tspan x="965.0" y="232.5">1/3</tspan></text><text text-anchor="middle" font-size="15" font-weight="500" fill="#6f7f86"><tspan x="510.0" y="316.0">trajectory balance matches backward and forward flows</tspan></text></svg>
