<svg xmlns="http://www.w3.org/2000/svg" width="720" height="340" viewBox="0 0 720 340"><rect width="100%" height="100%" fill="white"/><defs><marker id="arrow-gray" viewBox="0 0 10 10" refX="9" refY="5" markerWidth="7" markerHeight="7" orient="auto-start-reverse"><path d="M 0 0 L 10 5 L 0 10 z" fill="#87949a"/></marker><marker id="arrow-blue" viewBox="0 0 10 10" refX="9" refY="5" markerWidth="7" markerHeight="7" orient="auto-start-reverse"><path d="M 0 0 L 10 5 L 0 10 z" fill="#4f7ea8"/></marker><marker id="arrow-amber" viewBox="0 0 10 10" refX="9" refY="5" markerWidth="7" markerHeight="7" orient="auto-start-reverse"><path d="M 0 0 L 10 5 L 0 10 z" fill="#d99a24"/></marker><marker id="arrow-teal" viewBox="0 0 10 10" refX="9" refY="5" markerWidth="7" markerHeight="7" orient="auto-start-reverse"><path d="M 0 0 L 10 5 L 0 10 z" fill="#158574"/></marker><marker id="arrow-red" viewBox="0 0 10 10" refX="9" refY="5" markerWidth="7" markerHeight="7" orient="auto-start-reverse"><path d="M 0 0 L 10 5 L 0 10 z" fill="#c85b4a"/></marker><marker id="arrow-text" viewBox="0 0 10 10" refX="9" refY="5" markerWidth="7" markerHeight="7" orient="auto-start-reverse"><path d="M 0 0 L 10 5 L 0 10 z" fill="#263238"/></marker></defs><style>text{font-family:Arial,Helvetica,'DejaVu Sans',sans-serif;dominant-baseline:middle}.caption{fill:#6f7f86;font-size:15px;font-weight:500}</style><line x1="166.7" y1="91.9" x2="88.3" y2="151.1" stroke="#87949a" stroke-width="3.0" stroke-linecap="round" opacity="0.55" marker-end="url(#arrow-gray)"/><line x1="162.0" y1="165.0" x2="93.0" y2="165.0" stroke="#d99a24" stroke-width="5.0" stroke-linecap="round" opacity="1.00" marker-end="url(#arrow-amber)"/><line x1="166.7" y1="238.1" x2="88.3" y2="178.9" stroke="#87949a" stroke-width="3.0" stroke-linecap="round" opacity="0.55" marker-end="url(#arrow-gray)"/><line x1="295.9" y1="152.2" x2="204.1" y2="90.8" stroke="#87949a" stroke-width="3.0" stroke-linecap="round" opacity="0.55" marker-end="url(#arrow-gray)"/><line x1="292.0" y1="165.0" x2="208.0" y2="165.0" stroke="#d99a24" stroke-width="5.0" stroke-linecap="round" opacity="1.00" marker-end="url(#arrow-amber)"/><line x1="422.0" y1="236.5" x2="208.0" y2="250.5" stroke="#87949a" stroke-width="3.0" stroke-linecap="round" opacity="0.55" marker-end="url(#arrow-gray)"/><line x1="424.7" y1="105.9" x2="335.3" y2="154.1" stroke="#d99a24" stroke-width="5.0" stroke-linecap="round" opacity="1.00" marker-end="url(#arrow-amber)"/><line x1="424.7" y1="224.1" x2="335.3" y2="175.9" stroke="#87949a" stroke-width="3.0" stroke-linecap="round" opacity="0.55" marker-end="url(#arrow-gray)"/><line x1="567.0" y1="165.0" x2="338.0" y2="165.0" stroke="#87949a" stroke-width="3.0" stroke-linecap="round" opacity="0.55" marker-end="url(#arrow-gray)"/><line x1="567.3" y1="73.9" x2="467.7" y2="91.1" stroke="#d99a24" stroke-width="5.0" stroke-linecap="round" opacity="1.00" marker-end="url(#arrow-amber)"/><line x1="569.3" y1="175.0" x2="465.7" y2="225.0" stroke="#87949a" stroke-width="3.0" stroke-linecap="round" opacity="0.55" marker-end="url(#arrow-gray)"/><line x1="567.3" y1="256.1" x2="467.7" y2="238.9" stroke="#87949a" stroke-width="3.0" stroke-linecap="round" opacity="0.55" marker-end="url(#arrow-gray)"/><circle cx="70.0" cy="165.0" r="23.0" fill="#e6eef6" stroke="#4f7ea8" stroke-width="2.8"/><circle cx="185.0" cy="78.0" r="23.0" fill="#ffffff" stroke="#263238" stroke-width="2.8"/><circle cx="185.0" cy="165.0" r="23.0" fill="#ffffff" stroke="#263238" stroke-width="2.8"/><circle cx="185.0" cy="252.0" r="23.0" fill="#ffffff" stroke="#263238" stroke-width="2.8"/><circle cx="315.0" cy="165.0" r="23.0" fill="#ffffff" stroke="#263238" stroke-width="2.8"/><circle cx="445.0" cy="95.0" r="23.0" fill="#ffffff" stroke="#263238" stroke-width="2.8"/><circle cx="445.0" cy="235.0" r="23.0" fill="#ffffff" stroke="#263238" stroke-width="2.8"/><circle cx="590.0" cy="70.0" r="23.0" fill="#fae8e4" stroke="#c85b4a" stroke-width="2.8"/><circle cx="590.0" cy="165.0" r="23.0" fill="#fae8e4" stroke="#c85b4a" stroke-width="2.8"/><circle cx="590.0" cy="260.0" r="23.0" fill="#fae8e4" stroke="#c85b4a" stroke-width="2.8"/><text text-anchor="middle" font-size="21" font-weight="700" fill="#263238"><tspan x="360.0" y="28.0">Backward policy decomposes a terminal object</tspan></text><text text-anchor="middle" font-size="16" font-weight="500" fill="#6f7f86"><tspan x="360.0" y="314.0">highlighted arrows trace one reverse construction order</tspan></text></svg>
