<svg xmlns="http://www.w3.org/2000/svg" width="760" height="360" viewBox="0 0 760 360"><rect width="100%" height="100%" fill="white"/><defs><marker id="arrow-gray" viewBox="0 0 10 10" refX="9" refY="5" markerWidth="7" markerHeight="7" orient="auto-start-reverse"><path d="M 0 0 L 10 5 L 0 10 z" fill="#87949a"/></marker><marker id="arrow-blue" viewBox="0 0 10 10" refX="9" refY="5" markerWidth="7" markerHeight="7" orient="auto-start-reverse"><path d="M 0 0 L 10 5 L 0 10 z" fill="#4f7ea8"/></marker><marker id="arrow-amber" viewBox="0 0 10 10" refX="9" refY="5" markerWidth="7" markerHeight="7" orient="auto-start-reverse"><path d="M 0 0 L 10 5 L 0 10 z" fill="#d99a24"/></marker><marker id="arrow-teal" viewBox="0 0 10 10" refX="9" refY="5" markerWidth="7" markerHeight="7" orient="auto-start-reverse"><path d="M 0 0 L 10 5 L 0 10 z" fill="#158574"/></marker><marker id="arrow-red" viewBox="0 0 10 10" refX="9" refY="5" markerWidth="7" markerHeight="7" orient="auto-start-reverse"><path d="M 0 0 L 10 5 L 0 10 z" fill="#c85b4a"/></marker><marker id="arrow-text" viewBox="0 0 10 10" refX="9" refY="5" markerWidth="7" markerHeight="7" orient="auto-start-reverse"><path d="M 0 0 L 10 5 L 0 10 z" fill="#263238"/></marker></defs><style>text{font-family:Arial,Helvetica,'DejaVu Sans',sans-serif;dominant-baseline:middle}.caption{fill:#6f7f86;font-size:15px;font-weight:500}</style><text text-anchor="middle" font-size="22" font-weight="700" fill="#263238"><tspan x="380.0" y="28.0">Toy molecule construction DAG</tspan></text><line x1="93.2" y1="170.6" x2="170.0" y2="113.0" stroke="#87949a" stroke-width="3.0" stroke-linecap="round" opacity="0.72" marker-end="url(#arrow-gray)"/><line x1="98.0" y1="185.0" x2="165.0" y2="185.0" stroke="#87949a" stroke-width="3.0" stroke-linecap="round" opacity="0.72" marker-end="url(#arrow-gray)"/><line x1="93.2" y1="199.4" x2="170.0" y2="257.0" stroke="#87949a" stroke-width="3.0" stroke-linecap="round" opacity="0.72" marker-end="url(#arrow-gray)"/><line x1="214.0" y1="98.0" x2="315.0" y2="98.0" stroke="#87949a" stroke-width="3.0" stroke-linecap="round" opacity="0.72" marker-end="url(#arrow-gray)"/><line x1="210.8" y1="173.0" x2="318.4" y2="110.5" stroke="#87949a" stroke-width="3.0" stroke-linecap="round" opacity="0.72" marker-end="url(#arrow-gray)"/><line x1="210.8" y1="110.0" x2="318.4" y2="172.5" stroke="#87949a" stroke-width="3.0" stroke-linecap="round" opacity="0.72" marker-end="url(#arrow-gray)"/><line x1="210.8" y1="260.0" x2="318.4" y2="197.5" stroke="#87949a" stroke-width="3.0" stroke-linecap="round" opacity="0.72" marker-end="url(#arrow-gray)"/><line x1="210.8" y1="197.0" x2="318.4" y2="259.5" stroke="#87949a" stroke-width="3.0" stroke-linecap="round" opacity="0.72" marker-end="url(#arrow-gray)"/><line x1="214.0" y1="272.0" x2="315.0" y2="272.0" stroke="#87949a" stroke-width="3.0" stroke-linecap="round" opacity="0.72" marker-end="url(#arrow-gray)"/><line x1="363.9" y1="96.2" x2="533.1" y2="83.2" stroke="#87949a" stroke-width="3.0" stroke-linecap="round" opacity="0.72" marker-end="url(#arrow-gray)"/><line x1="364.0" y1="185.0" x2="533.0" y2="185.0" stroke="#87949a" stroke-width="3.0" stroke-linecap="round" opacity="0.72" marker-end="url(#arrow-gray)"/><line x1="362.5" y1="263.7" x2="535.6" y2="199.6" stroke="#87949a" stroke-width="3.0" stroke-linecap="round" opacity="0.72" marker-end="url(#arrow-gray)"/><line x1="363.9" y1="273.8" x2="533.1" y2="286.8" stroke="#87949a" stroke-width="3.0" stroke-linecap="round" opacity="0.72" marker-end="url(#arrow-gray)"/><circle cx="74.0" cy="185.0" r="22.0" fill="#e6eef6" stroke="#4f7ea8" stroke-width="2.8"/><text text-anchor="middle" font-size="14" font-weight="600" fill="#4f7ea8"><tspan x="74.0" y="227.0">empty</tspan></text><circle cx="190.0" cy="98.0" r="25.0" fill="#ffffff" stroke="#263238" stroke-width="2.8"/><text text-anchor="middle" font-size="15" font-weight="700" fill="#263238"><tspan x="190.0" y="99.0">C</tspan></text><circle cx="190.0" cy="185.0" r="25.0" fill="#ffffff" stroke="#263238" stroke-width="2.8"/><text text-anchor="middle" font-size="15" font-weight="700" fill="#263238"><tspan x="190.0" y="186.0">O</tspan></text><circle cx="190.0" cy="272.0" r="25.0" fill="#ffffff" stroke="#263238" stroke-width="2.8"/><text text-anchor="middle" font-size="15" font-weight="700" fill="#263238"><tspan x="190.0" y="273.0">N</tspan></text><circle cx="340.0" cy="98.0" r="25.0" fill="#ffffff" stroke="#263238" stroke-width="2.8"/><text text-anchor="middle" font-size="15" font-weight="700" fill="#263238"><tspan x="340.0" y="99.0">C-O</tspan></text><circle cx="340.0" cy="185.0" r="25.0" fill="#ffffff" stroke="#263238" stroke-width="2.8"/><text text-anchor="middle" font-size="15" font-weight="700" fill="#263238"><tspan x="340.0" y="186.0">C-N</tspan></text><circle cx="340.0" cy="272.0" r="25.0" fill="#ffffff" stroke="#263238" stroke-width="2.8"/><text text-anchor="middle" font-size="15" font-weight="700" fill="#263238"><tspan x="340.0" y="273.0">O-N</tspan></text><circle cx="575.0" cy="80.0" r="44.0" fill="#fae8e4" stroke="#c85b4a" stroke-width="2.8"/><text text-anchor="middle" font-size="15" font-weight="700" fill="#c85b4a"><tspan x="575.0" y="71.8">x1</tspan><tspan x="575.0" y="90.1">high reward</tspan></text><circle cx="575.0" cy="185.0" r="44.0" fill="#fae8e4" stroke="#c85b4a" stroke-width="2.8"/><text text-anchor="middle" font-size="15" font-weight="700" fill="#c85b4a"><tspan x="575.0" y="186.0">x2</tspan></text><circle cx="575.0" cy="290.0" r="44.0" fill="#fae8e4" stroke="#c85b4a" stroke-width="2.8"/><text text-anchor="middle" font-size="15" font-weight="700" fill="#c85b4a"><tspan x="575.0" y="291.0">x3</tspan></text></svg>
