<svg xmlns="http://www.w3.org/2000/svg" viewBox="-55 -55 1510 455" width="1510" height="455" role="img" aria-label="SPML logo with black lettering and aligned molecule mark">
  <defs>
    <linearGradient id="bondTop" x1="872" y1="72" x2="1010" y2="42" gradientUnits="userSpaceOnUse"><stop offset="0" stop-color="#19C7D9"/><stop offset="1" stop-color="#4FE27B"/></linearGradient>
    <linearGradient id="bondLeft" x1="872" y1="72" x2="956" y2="132" gradientUnits="userSpaceOnUse"><stop offset="0" stop-color="#19C7D9"/><stop offset="1" stop-color="#22C5D5"/></linearGradient>
    <linearGradient id="bondRight" x1="1010" y1="42" x2="956" y2="132" gradientUnits="userSpaceOnUse"><stop offset="0" stop-color="#4FE27B"/><stop offset="1" stop-color="#24C6D4"/></linearGradient>
  </defs>
  <g id="wordmark" fill="none" stroke="#000000" stroke-width="58" stroke-linecap="round" stroke-linejoin="round" shape-rendering="geometricPrecision">
    <path d="M345 105 H108 C66 105 37 131 37 164 C37 197 66 223 108 223 H246 C289 223 321 251 321 287 C321 323 289 352 246 352 H35"/>
    <path d="M415 352 V189 C415 137 456 105 512 105 H650 C699 105 735 137 735 180 C735 223 699 254 650 254 H444"/>
    <path d="M795 352 V157 C795 135 822 128 838 146 L930 247 C946 265 970 265 987 247 L1112 111 C1133 88 1170 102 1170 134 V272 C1170 323 1205 352 1256 352 H1395"/>
  </g>
  <g id="molecule" stroke-width="11" stroke-linecap="round" stroke-linejoin="round" shape-rendering="geometricPrecision">
    <line x1="872" y1="72" x2="1010" y2="42" stroke="url(#bondTop)"/>
    <line x1="872" y1="72" x2="956" y2="132" stroke="url(#bondLeft)"/>
    <line x1="1010" y1="42" x2="956" y2="132" stroke="url(#bondRight)"/>
    <circle cx="872" cy="72" r="31" fill="#20C6D8"/>
    <circle cx="1010" cy="42" r="35" fill="#4FE27B"/>
    <circle cx="956" cy="132" r="29" fill="#24C5D4"/>
  </g>
</svg>