<svg xmlns="http://www.w3.org/2000/svg" width="1160" height="560" viewBox="0 0 1160 560"><rect width="100%" height="100%" fill="white"/><defs><marker id="arrow" viewBox="0 0 10 10" refX="9" refY="5" markerWidth="8" markerHeight="8" orient="auto-start-reverse"><path d="M 0 0 L 10 5 L 0 10 z" fill="#665a75"/></marker><marker id="arrow-blue" viewBox="0 0 10 10" refX="9" refY="5" markerWidth="8" markerHeight="8" orient="auto-start-reverse"><path d="M 0 0 L 10 5 L 0 10 z" fill="#7a53ec"/></marker></defs><style>text{font-family:Arial,Helvetica,'DejaVu Sans',sans-serif;dominant-baseline:middle}.caption{fill:#665a75;font-size:15px;font-weight:500}</style><text text-anchor="middle" font-size="26" font-weight="700" fill="#231533" style=""><tspan x="580.0" y="34.0">Particle and density views of adsorption</tspan></text><text text-anchor="middle" font-size="16" font-weight="500" fill="#665a75" style="font-style:italic;"><tspan x="580.0" y="66.0">same equilibrium problem, different representation</tspan></text><rect x="38.0" y="120.0" width="210.0" height="260.0" rx="12.0" fill="#f6f2fa" stroke="#e4ddec" stroke-width="1.6" opacity="1.00"/><text text-anchor="middle" font-size="18" font-weight="700" fill="#7a53ec" style=""><tspan x="143.0" y="145.0">Open pore</tspan></text><rect x="72.0" y="178.0" width="142.0" height="112.0" rx="4.0" fill="white" stroke="#c8bbd8" stroke-width="1.3" opacity="1.00"/><circle cx="94.7" cy="200.4" r="4.4" fill="#665a75" stroke="white" stroke-width="0.8" opacity="1.00"/><circle cx="188.4" cy="206.0" r="4.4" fill="#665a75" stroke="white" stroke-width="0.8" opacity="1.00"/><circle cx="103.2" cy="258.6" r="4.4" fill="#665a75" stroke="white" stroke-width="0.8" opacity="1.00"/><circle cx="182.8" cy="254.2" r="4.4" fill="#665a75" stroke="white" stroke-width="0.8" opacity="1.00"/><circle cx="143.0" cy="231.8" r="4.4" fill="#665a75" stroke="white" stroke-width="0.8" opacity="1.00"/><line x1="94.7" y1="200.4" x2="143.0" y2="231.8" stroke="#c8bbd8" stroke-width="1.3" stroke-linecap="round" opacity="1.00"/><line x1="188.4" y1="206.0" x2="143.0" y2="231.8" stroke="#c8bbd8" stroke-width="1.3" stroke-linecap="round" opacity="1.00"/><line x1="103.2" y1="258.6" x2="143.0" y2="231.8" stroke="#c8bbd8" stroke-width="1.3" stroke-linecap="round" opacity="1.00"/><line x1="182.8" y1="254.2" x2="143.0" y2="231.8" stroke="#c8bbd8" stroke-width="1.3" stroke-linecap="round" opacity="1.00"/><circle cx="117.4" cy="249.7" r="4.2" fill="#b7791f" stroke="white" stroke-width="0.7" opacity="1.00"/><circle cx="131.6" cy="243.0" r="4.2" fill="#b7791f" stroke="white" stroke-width="0.7" opacity="1.00"/><circle cx="160.0" cy="222.8" r="4.2" fill="#b7791f" stroke="white" stroke-width="0.7" opacity="1.00"/><circle cx="171.4" cy="215.0" r="4.2" fill="#b7791f" stroke="white" stroke-width="0.7" opacity="1.00"/><circle cx="145.8" cy="236.2" r="4.2" fill="#b7791f" stroke="white" stroke-width="0.7" opacity="1.00"/><circle cx="179.9" cy="248.6" r="4.2" fill="#b7791f" stroke="white" stroke-width="0.7" opacity="1.00"/><text text-anchor="middle" font-size="15" font-weight="500" fill="#665a75" style=""><tspan x="143.0" y="320.0">reservoir fixes</tspan></text><text text-anchor="middle" font-size="24" font-weight="700" fill="#231533" style=""><tspan x="143.0" y="346.0">μ, V, T</tspan></text><line x1="248.0" y1="222.0" x2="342.0" y2="185.0" stroke="#665a75" stroke-width="2.4" stroke-linecap="round" marker-end="url(#arrow)" opacity="1.00"/><line x1="248.0" y1="278.0" x2="342.0" y2="375.0" stroke="#665a75" stroke-width="2.4" stroke-linecap="round" marker-end="url(#arrow)" opacity="1.00"/><rect x="342.0" y="120.0" width="300.0" height="160.0" rx="12.0" fill="#f2edff" stroke="#7a53ec" stroke-width="2.0" opacity="1.00"/><text text-anchor="middle" font-size="18" font-weight="700" fill="#7a53ec" style=""><tspan x="492.0" y="144.0">GCMC particle view</tspan></text><rect x="372.0" y="172.0" width="74.0" height="58.0" rx="4.0" fill="white" stroke="#c8bbd8" stroke-width="1.3" opacity="1.00"/><circle cx="383.8" cy="183.6" r="4.4" fill="#665a75" stroke="white" stroke-width="0.8" opacity="1.00"/><circle cx="432.7" cy="186.5" r="4.4" fill="#665a75" stroke="white" stroke-width="0.8" opacity="1.00"/><circle cx="388.3" cy="213.8" r="4.4" fill="#665a75" stroke="white" stroke-width="0.8" opacity="1.00"/><circle cx="429.7" cy="211.4" r="4.4" fill="#665a75" stroke="white" stroke-width="0.8" opacity="1.00"/><circle cx="409.0" cy="199.8" r="4.4" fill="#665a75" stroke="white" stroke-width="0.8" opacity="1.00"/><line x1="383.8" y1="183.6" x2="409.0" y2="199.8" stroke="#c8bbd8" stroke-width="1.3" stroke-linecap="round" opacity="1.00"/><line x1="432.7" y1="186.5" x2="409.0" y2="199.8" stroke="#c8bbd8" stroke-width="1.3" stroke-linecap="round" opacity="1.00"/><line x1="388.3" y1="213.8" x2="409.0" y2="199.8" stroke="#c8bbd8" stroke-width="1.3" stroke-linecap="round" opacity="1.00"/><line x1="429.7" y1="211.4" x2="409.0" y2="199.8" stroke="#c8bbd8" stroke-width="1.3" stroke-linecap="round" opacity="1.00"/><circle cx="395.7" cy="209.1" r="4.2" fill="#b7791f" stroke="white" stroke-width="0.7" opacity="1.00"/><circle cx="403.1" cy="205.6" r="4.2" fill="#b7791f" stroke="white" stroke-width="0.7" opacity="1.00"/><circle cx="417.9" cy="195.2" r="4.2" fill="#b7791f" stroke="white" stroke-width="0.7" opacity="1.00"/><circle cx="423.8" cy="191.1" r="4.2" fill="#b7791f" stroke="white" stroke-width="0.7" opacity="1.00"/><circle cx="410.5" cy="202.2" r="4.2" fill="#b7791f" stroke="white" stroke-width="0.7" opacity="1.00"/><rect x="462.0" y="172.0" width="74.0" height="58.0" rx="4.0" fill="white" stroke="#c8bbd8" stroke-width="1.3" opacity="1.00"/><circle cx="473.8" cy="183.6" r="4.4" fill="#665a75" stroke="white" stroke-width="0.8" opacity="1.00"/><circle cx="522.7" cy="186.5" r="4.4" fill="#665a75" stroke="white" stroke-width="0.8" opacity="1.00"/><circle cx="478.3" cy="213.8" r="4.4" fill="#665a75" stroke="white" stroke-width="0.8" opacity="1.00"/><circle cx="519.7" cy="211.4" r="4.4" fill="#665a75" stroke="white" stroke-width="0.8" opacity="1.00"/><circle cx="499.0" cy="199.8" r="4.4" fill="#665a75" stroke="white" stroke-width="0.8" opacity="1.00"/><line x1="473.8" y1="183.6" x2="499.0" y2="199.8" stroke="#c8bbd8" stroke-width="1.3" stroke-linecap="round" opacity="1.00"/><line x1="522.7" y1="186.5" x2="499.0" y2="199.8" stroke="#c8bbd8" stroke-width="1.3" stroke-linecap="round" opacity="1.00"/><line x1="478.3" y1="213.8" x2="499.0" y2="199.8" stroke="#c8bbd8" stroke-width="1.3" stroke-linecap="round" opacity="1.00"/><line x1="519.7" y1="211.4" x2="499.0" y2="199.8" stroke="#c8bbd8" stroke-width="1.3" stroke-linecap="round" opacity="1.00"/><circle cx="485.7" cy="209.1" r="4.2" fill="#b7791f" stroke="white" stroke-width="0.7" opacity="1.00"/><circle cx="493.1" cy="205.6" r="4.2" fill="#b7791f" stroke="white" stroke-width="0.7" opacity="1.00"/><circle cx="507.9" cy="195.2" r="4.2" fill="#b7791f" stroke="white" stroke-width="0.7" opacity="1.00"/><circle cx="513.8" cy="191.1" r="4.2" fill="#b7791f" stroke="white" stroke-width="0.7" opacity="1.00"/><circle cx="500.5" cy="202.2" r="4.2" fill="#b7791f" stroke="white" stroke-width="0.7" opacity="1.00"/><circle cx="518.2" cy="208.5" r="4.2" fill="#b7791f" stroke="white" stroke-width="0.7" opacity="1.00"/><circle cx="482.7" cy="189.4" r="4.2" fill="#b7791f" stroke="white" stroke-width="0.7" opacity="1.00"/><circle cx="504.2" cy="214.3" r="4.2" fill="#b7791f" stroke="white" stroke-width="0.7" opacity="1.00"/><rect x="552.0" y="172.0" width="60.0" height="58.0" rx="4.0" fill="white" stroke="#c8bbd8" stroke-width="1.3" opacity="1.00"/><circle cx="561.6" cy="183.6" r="4.4" fill="#665a75" stroke="white" stroke-width="0.8" opacity="1.00"/><circle cx="601.2" cy="186.5" r="4.4" fill="#665a75" stroke="white" stroke-width="0.8" opacity="1.00"/><circle cx="565.2" cy="213.8" r="4.4" fill="#665a75" stroke="white" stroke-width="0.8" opacity="1.00"/><circle cx="598.8" cy="211.4" r="4.4" fill="#665a75" stroke="white" stroke-width="0.8" opacity="1.00"/><circle cx="582.0" cy="199.8" r="4.4" fill="#665a75" stroke="white" stroke-width="0.8" opacity="1.00"/><line x1="561.6" y1="183.6" x2="582.0" y2="199.8" stroke="#c8bbd8" stroke-width="1.3" stroke-linecap="round" opacity="1.00"/><line x1="601.2" y1="186.5" x2="582.0" y2="199.8" stroke="#c8bbd8" stroke-width="1.3" stroke-linecap="round" opacity="1.00"/><line x1="565.2" y1="213.8" x2="582.0" y2="199.8" stroke="#c8bbd8" stroke-width="1.3" stroke-linecap="round" opacity="1.00"/><line x1="598.8" y1="211.4" x2="582.0" y2="199.8" stroke="#c8bbd8" stroke-width="1.3" stroke-linecap="round" opacity="1.00"/><circle cx="571.2" cy="209.1" r="4.2" fill="#b7791f" stroke="white" stroke-width="0.7" opacity="1.00"/><circle cx="577.2" cy="205.6" r="4.2" fill="#b7791f" stroke="white" stroke-width="0.7" opacity="1.00"/><circle cx="589.2" cy="195.2" r="4.2" fill="#b7791f" stroke="white" stroke-width="0.7" opacity="1.00"/><circle cx="594.0" cy="191.1" r="4.2" fill="#b7791f" stroke="white" stroke-width="0.7" opacity="1.00"/><text text-anchor="middle" font-size="15" font-weight="500" fill="#665a75" style=""><tspan x="492.0" y="250.0">average many samples</tspan></text><rect x="746.0" y="120.0" width="310.0" height="160.0" rx="12.0" fill="#f6f2fa" stroke="#e4ddec" stroke-width="1.6" opacity="1.00"/><text text-anchor="middle" font-size="18" font-weight="700" fill="#231533" style=""><tspan x="901.0" y="144.0">Outputs</tspan></text><text text-anchor="middle" font-size="15" font-weight="500" fill="#665a75" style=""><tspan x="820.0" y="198.0">uptake</tspan></text><text text-anchor="middle" font-size="25" font-weight="700" fill="#7a53ec" style=""><tspan x="820.0" y="224.0">⟨N⟩</tspan></text><rect x="904.0" y="174.0" width="94.0" height="74.0" rx="4.0" fill="white" stroke="#c8bbd8" stroke-width="1.3" opacity="1.00"/><circle cx="919.0" cy="188.8" r="4.4" fill="#665a75" stroke="white" stroke-width="0.8" opacity="1.00"/><circle cx="981.1" cy="192.5" r="4.4" fill="#665a75" stroke="white" stroke-width="0.8" opacity="1.00"/><circle cx="924.7" cy="227.3" r="4.4" fill="#665a75" stroke="white" stroke-width="0.8" opacity="1.00"/><circle cx="977.3" cy="224.3" r="4.4" fill="#665a75" stroke="white" stroke-width="0.8" opacity="1.00"/><circle cx="951.0" cy="209.5" r="4.4" fill="#665a75" stroke="white" stroke-width="0.8" opacity="1.00"/><line x1="919.0" y1="188.8" x2="951.0" y2="209.5" stroke="#c8bbd8" stroke-width="1.3" stroke-linecap="round" opacity="1.00"/><line x1="981.1" y1="192.5" x2="951.0" y2="209.5" stroke="#c8bbd8" stroke-width="1.3" stroke-linecap="round" opacity="1.00"/><line x1="924.7" y1="227.3" x2="951.0" y2="209.5" stroke="#c8bbd8" stroke-width="1.3" stroke-linecap="round" opacity="1.00"/><line x1="977.3" y1="224.3" x2="951.0" y2="209.5" stroke="#c8bbd8" stroke-width="1.3" stroke-linecap="round" opacity="1.00"/><circle cx="937.8" cy="222.8" r="18.0" fill="#7a53ec" stroke="none" stroke-width="0.0" opacity="0.28"/><circle cx="958.5" cy="205.1" r="24.0" fill="#7a53ec" stroke="none" stroke-width="0.0" opacity="0.34"/><circle cx="970.7" cy="197.7" r="13.0" fill="#7a53ec" stroke="none" stroke-width="0.0" opacity="0.24"/><text text-anchor="middle" font-size="15" font-weight="500" fill="#665a75" style=""><tspan x="951.0" y="262.0">density ρ(r)</tspan></text><line x1="642.0" y1="200.0" x2="742.0" y2="200.0" stroke="#665a75" stroke-width="2.3" stroke-linecap="round" marker-end="url(#arrow)" opacity="1.00"/><rect x="342.0" y="330.0" width="300.0" height="160.0" rx="12.0" fill="#e5f3ea" stroke="#3c8f63" stroke-width="2.0" opacity="1.00"/><text text-anchor="middle" font-size="18" font-weight="700" fill="#3c8f63" style=""><tspan x="492.0" y="354.0">cDFT density view</tspan></text><rect x="374.0" y="386.0" width="88.0" height="68.0" rx="4.0" fill="white" stroke="#c8bbd8" stroke-width="1.3" opacity="1.00"/><circle cx="388.1" cy="399.6" r="4.4" fill="#665a75" stroke="white" stroke-width="0.8" opacity="1.00"/><circle cx="446.2" cy="403.0" r="4.4" fill="#665a75" stroke="white" stroke-width="0.8" opacity="1.00"/><circle cx="393.4" cy="435.0" r="4.4" fill="#665a75" stroke="white" stroke-width="0.8" opacity="1.00"/><circle cx="442.6" cy="432.2" r="4.4" fill="#665a75" stroke="white" stroke-width="0.8" opacity="1.00"/><circle cx="418.0" cy="418.6" r="4.4" fill="#665a75" stroke="white" stroke-width="0.8" opacity="1.00"/><line x1="388.1" y1="399.6" x2="418.0" y2="418.6" stroke="#c8bbd8" stroke-width="1.3" stroke-linecap="round" opacity="1.00"/><line x1="446.2" y1="403.0" x2="418.0" y2="418.6" stroke="#c8bbd8" stroke-width="1.3" stroke-linecap="round" opacity="1.00"/><line x1="393.4" y1="435.0" x2="418.0" y2="418.6" stroke="#c8bbd8" stroke-width="1.3" stroke-linecap="round" opacity="1.00"/><line x1="442.6" y1="432.2" x2="418.0" y2="418.6" stroke="#c8bbd8" stroke-width="1.3" stroke-linecap="round" opacity="1.00"/><circle cx="405.7" cy="430.9" r="18.0" fill="#7a53ec" stroke="none" stroke-width="0.0" opacity="0.28"/><circle cx="425.0" cy="414.6" r="24.0" fill="#7a53ec" stroke="none" stroke-width="0.0" opacity="0.34"/><circle cx="436.5" cy="407.8" r="13.0" fill="#7a53ec" stroke="none" stroke-width="0.0" opacity="0.24"/><text text-anchor="middle" font-size="20" font-weight="700" fill="#231533" style=""><tspan x="548.0" y="407.0">optimize ρ(r)</tspan></text><text text-anchor="middle" font-size="15" font-weight="500" fill="#665a75" style=""><tspan x="548.0" y="437.0">fixed-point solve</tspan></text><rect x="746.0" y="330.0" width="310.0" height="160.0" rx="12.0" fill="#fff4dc" stroke="#b7791f" stroke-width="2.0" opacity="1.00"/><text text-anchor="middle" font-size="18" font-weight="700" fill="#b7791f" style=""><tspan x="901.0" y="354.0">ML target</tspan></text><rect x="786.0" y="386.0" width="88.0" height="68.0" rx="4.0" fill="white" stroke="#c8bbd8" stroke-width="1.3" opacity="1.00"/><circle cx="800.1" cy="399.6" r="4.4" fill="#665a75" stroke="white" stroke-width="0.8" opacity="1.00"/><circle cx="858.2" cy="403.0" r="4.4" fill="#665a75" stroke="white" stroke-width="0.8" opacity="1.00"/><circle cx="805.4" cy="435.0" r="4.4" fill="#665a75" stroke="white" stroke-width="0.8" opacity="1.00"/><circle cx="854.6" cy="432.2" r="4.4" fill="#665a75" stroke="white" stroke-width="0.8" opacity="1.00"/><circle cx="830.0" cy="418.6" r="4.4" fill="#665a75" stroke="white" stroke-width="0.8" opacity="1.00"/><line x1="800.1" y1="399.6" x2="830.0" y2="418.6" stroke="#c8bbd8" stroke-width="1.3" stroke-linecap="round" opacity="1.00"/><line x1="858.2" y1="403.0" x2="830.0" y2="418.6" stroke="#c8bbd8" stroke-width="1.3" stroke-linecap="round" opacity="1.00"/><line x1="805.4" y1="435.0" x2="830.0" y2="418.6" stroke="#c8bbd8" stroke-width="1.3" stroke-linecap="round" opacity="1.00"/><line x1="854.6" y1="432.2" x2="830.0" y2="418.6" stroke="#c8bbd8" stroke-width="1.3" stroke-linecap="round" opacity="1.00"/><circle cx="817.7" cy="430.9" r="18.0" fill="#7a53ec" stroke="none" stroke-width="0.0" opacity="0.28"/><circle cx="837.0" cy="414.6" r="24.0" fill="#7a53ec" stroke="none" stroke-width="0.0" opacity="0.34"/><circle cx="848.5" cy="407.8" r="13.0" fill="#7a53ec" stroke="none" stroke-width="0.0" opacity="0.24"/><text text-anchor="middle" font-size="19" font-weight="700" fill="#231533" style=""><tspan x="958.0" y="402.0">density field</tspan></text><text text-anchor="middle" font-size="19" font-weight="700" fill="#231533" style=""><tspan x="958.0" y="430.0">+ uptake</tspan></text><text text-anchor="middle" font-size="14" font-weight="500" fill="#665a75" style=""><tspan x="958.0" y="458.0">learn ρ(r), integrate N</tspan></text><line x1="642.0" y1="410.0" x2="742.0" y2="410.0" stroke="#665a75" stroke-width="2.3" stroke-linecap="round" marker-end="url(#arrow)" opacity="1.00"/><text text-anchor="middle" font-size="16" font-weight="500" fill="#7a53ec" style=""><tspan x="492.0" y="296.0">high fidelity, sampling cost</tspan></text><text text-anchor="middle" font-size="16" font-weight="500" fill="#3c8f63" style=""><tspan x="492.0" y="506.0">fast density estimate, approximate functional</tspan></text></svg>
