<?xml version="1.0" encoding="utf-8" standalone="no"?>
<!DOCTYPE svg PUBLIC "-//W3C//DTD SVG 1.1//EN"
  "http://www.w3.org/Graphics/SVG/1.1/DTD/svg11.dtd">
<svg xmlns:xlink="http://www.w3.org/1999/xlink" width="646.936875pt" height="228.708pt" viewBox="0 0 646.936875 228.708" xmlns="http://www.w3.org/2000/svg" version="1.1">
 <metadata>
  <rdf:RDF xmlns:dc="http://purl.org/dc/elements/1.1/" xmlns:cc="http://creativecommons.org/ns#" xmlns:rdf="http://www.w3.org/1999/02/22-rdf-syntax-ns#">
   <cc:Work>
    <dc:type rdf:resource="http://purl.org/dc/dcmitype/StillImage"/>
    <dc:date>2026-06-21T18:21:11.951622</dc:date>
    <dc:format>image/svg+xml</dc:format>
    <dc:creator>
     <cc:Agent>
      <dc:title>Matplotlib v3.10.8, https://matplotlib.org/</dc:title>
     </cc:Agent>
    </dc:creator>
   </cc:Work>
  </rdf:RDF>
 </metadata>
 <defs>
  <style type="text/css">*{stroke-linejoin: round; stroke-linecap: butt}</style>
 </defs>
 <g id="figure_1">
  <g id="patch_1">
   <path d="M -0 228.708 
L 646.936875 228.708 
L 646.936875 -0 
L -0 -0 
z
" style="fill: #ffffff"/>
  </g>
  <g id="axes_1">
   <g id="patch_2">
    <path d="M 7.2 221.508 
L 151.846875 221.508 
L 151.846875 51.498 
L 7.2 51.498 
L 7.2 221.508 
z
" style="fill: none"/>
   </g>
   <g id="patch_3">
    <path d="M 21.664688 190.9062 
L 137.382188 190.9062 
L 137.382188 85.5 
L 21.664688 85.5 
z
" clip-path="url(#p661abef768)" style="fill: #ffffff; stroke: #7a53ec; stroke-width: 1.7; stroke-linejoin: miter"/>
   </g>
   <g id="matplotlib.axis_1"/>
   <g id="matplotlib.axis_2"/>
   <g id="patch_4">
    <path d="M 36.129375 184.95585 
C 37.472003 184.95585 38.759821 184.328884 39.709203 183.213033 
C 40.658584 182.097182 41.192016 180.583551 41.192016 179.0055 
C 41.192016 177.427449 40.658584 175.913818 39.709203 174.797967 
C 38.759821 173.682116 37.472003 173.05515 36.129375 173.05515 
C 34.786747 173.05515 33.498929 173.682116 32.549547 174.797967 
C 31.600166 175.913818 31.066734 177.427449 31.066734 179.0055 
C 31.066734 180.583551 31.600166 182.097182 32.549547 183.213033 
C 33.498929 184.328884 34.786747 184.95585 36.129375 184.95585 
z
" clip-path="url(#p661abef768)" style="fill: #665a75; stroke: #665a75; stroke-linejoin: miter"/>
   </g>
   <g id="patch_5">
    <path d="M 125.810438 174.75525 
C 127.153065 174.75525 128.440884 174.128284 129.390265 173.012433 
C 130.339646 171.896582 130.873078 170.382951 130.873078 168.8049 
C 130.873078 167.226849 130.339646 165.713218 129.390265 164.597367 
C 128.440884 163.481516 127.153065 162.85455 125.810438 162.85455 
C 124.46781 162.85455 123.179991 163.481516 122.23061 164.597367 
C 121.281229 165.713218 120.747797 167.226849 120.747797 168.8049 
C 120.747797 170.382951 121.281229 171.896582 122.23061 173.012433 
C 123.179991 174.128284 124.46781 174.75525 125.810438 174.75525 
z
" clip-path="url(#p661abef768)" style="fill: #665a75; stroke: #665a75; stroke-linejoin: miter"/>
   </g>
   <g id="patch_6">
    <path d="M 36.129375 108.45135 
C 37.472003 108.45135 38.759821 107.824384 39.709203 106.708533 
C 40.658584 105.592682 41.192016 104.079051 41.192016 102.501 
C 41.192016 100.922949 40.658584 99.409318 39.709203 98.293467 
C 38.759821 97.177616 37.472003 96.55065 36.129375 96.55065 
C 34.786747 96.55065 33.498929 97.177616 32.549547 98.293467 
C 31.600166 99.409318 31.066734 100.922949 31.066734 102.501 
C 31.066734 104.079051 31.600166 105.592682 32.549547 106.708533 
C 33.498929 107.824384 34.786747 108.45135 36.129375 108.45135 
z
" clip-path="url(#p661abef768)" style="fill: #665a75; stroke: #665a75; stroke-linejoin: miter"/>
   </g>
   <g id="patch_7">
    <path d="M 125.810438 111.85155 
C 127.153065 111.85155 128.440884 111.224584 129.390265 110.108733 
C 130.339646 108.992882 130.873078 107.479251 130.873078 105.9012 
C 130.873078 104.323149 130.339646 102.809518 129.390265 101.693667 
C 128.440884 100.577816 127.153065 99.95085 125.810438 99.95085 
C 124.46781 99.95085 123.179991 100.577816 122.23061 101.693667 
C 121.281229 102.809518 120.747797 104.323149 120.747797 105.9012 
C 120.747797 107.479251 121.281229 108.992882 122.23061 110.108733 
C 123.179991 111.224584 124.46781 111.85155 125.810438 111.85155 
z
" clip-path="url(#p661abef768)" style="fill: #665a75; stroke: #665a75; stroke-linejoin: miter"/>
   </g>
   <g id="patch_8">
    <path d="M 79.523438 144.15345 
C 80.866065 144.15345 82.153884 143.526484 83.103265 142.410633 
C 84.052646 141.294782 84.586078 139.781151 84.586078 138.2031 
C 84.586078 136.625049 84.052646 135.111418 83.103265 133.995567 
C 82.153884 132.879716 80.866065 132.25275 79.523438 132.25275 
C 78.18081 132.25275 76.892991 132.879716 75.94361 133.995567 
C 74.994229 135.111418 74.460797 136.625049 74.460797 138.2031 
C 74.460797 139.781151 74.994229 141.294782 75.94361 142.410633 
C 76.892991 143.526484 78.18081 144.15345 79.523438 144.15345 
z
" clip-path="url(#p661abef768)" style="fill: #665a75; stroke: #665a75; stroke-linejoin: miter"/>
   </g>
   <g id="patch_9">
    <path d="M 62.165813 162.85455 
C 63.50844 162.85455 64.796259 162.227584 65.74564 161.111733 
C 66.695021 159.995882 67.228453 158.482251 67.228453 156.9042 
C 67.228453 155.326149 66.695021 153.812518 65.74564 152.696667 
C 64.796259 151.580816 63.50844 150.95385 62.165813 150.95385 
C 60.823185 150.95385 59.535366 151.580816 58.585985 152.696667 
C 57.636604 153.812518 57.103172 155.326149 57.103172 156.9042 
C 57.103172 158.482251 57.636604 159.995882 58.585985 161.111733 
C 59.535366 162.227584 60.823185 162.85455 62.165813 162.85455 
z
" clip-path="url(#p661abef768)" style="fill: #b7791f; stroke: #b7791f; stroke-linejoin: miter"/>
   </g>
   <g id="patch_10">
    <path d="M 101.220469 128.85255 
C 102.563097 128.85255 103.850915 128.225584 104.800296 127.109733 
C 105.749678 125.993882 106.283109 124.480251 106.283109 122.9022 
C 106.283109 121.324149 105.749678 119.810518 104.800296 118.694667 
C 103.850915 117.578816 102.563097 116.95185 101.220469 116.95185 
C 99.877841 116.95185 98.590023 117.578816 97.640641 118.694667 
C 96.69126 119.810518 96.157828 121.324149 96.157828 122.9022 
C 96.157828 124.480251 96.69126 125.993882 97.640641 127.109733 
C 98.590023 128.225584 99.877841 128.85255 101.220469 128.85255 
z
" clip-path="url(#p661abef768)" style="fill: #b7791f; stroke: #b7791f; stroke-linejoin: miter"/>
   </g>
   <g id="patch_11">
    <path d="M 88.20225 173.05515 
C 89.544878 173.05515 90.832696 172.428184 91.782078 171.312333 
C 92.731459 170.196482 93.264891 168.682851 93.264891 167.1048 
C 93.264891 165.526749 92.731459 164.013118 91.782078 162.897267 
C 90.832696 161.781416 89.544878 161.15445 88.20225 161.15445 
C 86.859622 161.15445 85.571804 161.781416 84.622422 162.897267 
C 83.673041 164.013118 83.139609 165.526749 83.139609 167.1048 
C 83.139609 168.682851 83.673041 170.196482 84.622422 171.312333 
C 85.571804 172.428184 86.859622 173.05515 88.20225 173.05515 
z
" clip-path="url(#p661abef768)" style="fill: #b7791f; stroke: #b7791f; stroke-linejoin: miter"/>
   </g>
   <g id="text_1">
    <text style="font-weight: 700; font-size: 13px; font-family: 'Arial'; text-anchor: middle; fill: #231533" x="79.523438" y="65.903456" transform="rotate(-0 79.523438 65.903456)">translation</text>
   </g>
   <g id="text_2">
    <text style="font-size: 10.5px; font-family: 'Arial'; text-anchor: middle; fill: #231533" x="79.523438" y="212.497678" transform="rotate(-0 79.523438 212.497678)">move an existing molecule</text>
   </g>
   <g id="patch_12">
    <path d="M 63.346012 155.285868 
Q 70.845252 145.00264 77.224575 136.255084 
" clip-path="url(#p661abef768)" style="fill: none; stroke: #3c8f63; stroke-width: 1.7; stroke-linecap: round"/>
    <path d="M 71.662597 139.129872 
L 77.224575 136.255084 
L 76.187219 142.429539 
z
" clip-path="url(#p661abef768)" style="fill: #3c8f63; stroke: #3c8f63; stroke-width: 1.7; stroke-linecap: round"/>
   </g>
   <g id="patch_13">
    <path d="M 79.523438 139.05315 
C 80.866065 139.05315 82.153884 138.426184 83.103265 137.310333 
C 84.052646 136.194482 84.586078 134.680851 84.586078 133.1028 
C 84.586078 131.524749 84.052646 130.011118 83.103265 128.895267 
C 82.153884 127.779416 80.866065 127.15245 79.523438 127.15245 
C 78.18081 127.15245 76.892991 127.779416 75.94361 128.895267 
C 74.994229 130.011118 74.460797 131.524749 74.460797 133.1028 
C 74.460797 134.680851 74.994229 136.194482 75.94361 137.310333 
C 76.892991 138.426184 78.18081 139.05315 79.523438 139.05315 
L 79.523438 139.05315 
z
" clip-path="url(#p661abef768)" style="fill: none; stroke: #3c8f63; stroke-width: 2; stroke-linejoin: miter"/>
   </g>
  </g>
  <g id="axes_2">
   <g id="patch_14">
    <path d="M 169.83 221.508 
L 314.476875 221.508 
L 314.476875 51.498 
L 169.83 51.498 
L 169.83 221.508 
z
" style="fill: none"/>
   </g>
   <g id="patch_15">
    <path d="M 184.294688 190.9062 
L 300.012188 190.9062 
L 300.012188 85.5 
L 184.294688 85.5 
z
" clip-path="url(#p98b5b5655e)" style="fill: #ffffff; stroke: #7a53ec; stroke-width: 1.7; stroke-linejoin: miter"/>
   </g>
   <g id="matplotlib.axis_3"/>
   <g id="matplotlib.axis_4"/>
   <g id="patch_16">
    <path d="M 198.759375 184.95585 
C 200.102003 184.95585 201.389821 184.328884 202.339203 183.213033 
C 203.288584 182.097182 203.822016 180.583551 203.822016 179.0055 
C 203.822016 177.427449 203.288584 175.913818 202.339203 174.797967 
C 201.389821 173.682116 200.102003 173.05515 198.759375 173.05515 
C 197.416747 173.05515 196.128929 173.682116 195.179547 174.797967 
C 194.230166 175.913818 193.696734 177.427449 193.696734 179.0055 
C 193.696734 180.583551 194.230166 182.097182 195.179547 183.213033 
C 196.128929 184.328884 197.416747 184.95585 198.759375 184.95585 
z
" clip-path="url(#p98b5b5655e)" style="fill: #665a75; stroke: #665a75; stroke-linejoin: miter"/>
   </g>
   <g id="patch_17">
    <path d="M 288.440438 174.75525 
C 289.783065 174.75525 291.070884 174.128284 292.020265 173.012433 
C 292.969646 171.896582 293.503078 170.382951 293.503078 168.8049 
C 293.503078 167.226849 292.969646 165.713218 292.020265 164.597367 
C 291.070884 163.481516 289.783065 162.85455 288.440438 162.85455 
C 287.09781 162.85455 285.809991 163.481516 284.86061 164.597367 
C 283.911229 165.713218 283.377797 167.226849 283.377797 168.8049 
C 283.377797 170.382951 283.911229 171.896582 284.86061 173.012433 
C 285.809991 174.128284 287.09781 174.75525 288.440438 174.75525 
z
" clip-path="url(#p98b5b5655e)" style="fill: #665a75; stroke: #665a75; stroke-linejoin: miter"/>
   </g>
   <g id="patch_18">
    <path d="M 198.759375 108.45135 
C 200.102003 108.45135 201.389821 107.824384 202.339203 106.708533 
C 203.288584 105.592682 203.822016 104.079051 203.822016 102.501 
C 203.822016 100.922949 203.288584 99.409318 202.339203 98.293467 
C 201.389821 97.177616 200.102003 96.55065 198.759375 96.55065 
C 197.416747 96.55065 196.128929 97.177616 195.179547 98.293467 
C 194.230166 99.409318 193.696734 100.922949 193.696734 102.501 
C 193.696734 104.079051 194.230166 105.592682 195.179547 106.708533 
C 196.128929 107.824384 197.416747 108.45135 198.759375 108.45135 
z
" clip-path="url(#p98b5b5655e)" style="fill: #665a75; stroke: #665a75; stroke-linejoin: miter"/>
   </g>
   <g id="patch_19">
    <path d="M 288.440438 111.85155 
C 289.783065 111.85155 291.070884 111.224584 292.020265 110.108733 
C 292.969646 108.992882 293.503078 107.479251 293.503078 105.9012 
C 293.503078 104.323149 292.969646 102.809518 292.020265 101.693667 
C 291.070884 100.577816 289.783065 99.95085 288.440438 99.95085 
C 287.09781 99.95085 285.809991 100.577816 284.86061 101.693667 
C 283.911229 102.809518 283.377797 104.323149 283.377797 105.9012 
C 283.377797 107.479251 283.911229 108.992882 284.86061 110.108733 
C 285.809991 111.224584 287.09781 111.85155 288.440438 111.85155 
z
" clip-path="url(#p98b5b5655e)" style="fill: #665a75; stroke: #665a75; stroke-linejoin: miter"/>
   </g>
   <g id="patch_20">
    <path d="M 242.153438 144.15345 
C 243.496065 144.15345 244.783884 143.526484 245.733265 142.410633 
C 246.682646 141.294782 247.216078 139.781151 247.216078 138.2031 
C 247.216078 136.625049 246.682646 135.111418 245.733265 133.995567 
C 244.783884 132.879716 243.496065 132.25275 242.153438 132.25275 
C 240.81081 132.25275 239.522991 132.879716 238.57361 133.995567 
C 237.624229 135.111418 237.090797 136.625049 237.090797 138.2031 
C 237.090797 139.781151 237.624229 141.294782 238.57361 142.410633 
C 239.522991 143.526484 240.81081 144.15345 242.153438 144.15345 
z
" clip-path="url(#p98b5b5655e)" style="fill: #665a75; stroke: #665a75; stroke-linejoin: miter"/>
   </g>
   <g id="patch_21">
    <path d="M 224.795813 162.85455 
C 226.13844 162.85455 227.426259 162.227584 228.37564 161.111733 
C 229.325021 159.995882 229.858453 158.482251 229.858453 156.9042 
C 229.858453 155.326149 229.325021 153.812518 228.37564 152.696667 
C 227.426259 151.580816 226.13844 150.95385 224.795813 150.95385 
C 223.453185 150.95385 222.165366 151.580816 221.215985 152.696667 
C 220.266604 153.812518 219.733172 155.326149 219.733172 156.9042 
C 219.733172 158.482251 220.266604 159.995882 221.215985 161.111733 
C 222.165366 162.227584 223.453185 162.85455 224.795813 162.85455 
z
" clip-path="url(#p98b5b5655e)" style="fill: #b7791f; stroke: #b7791f; stroke-linejoin: miter"/>
   </g>
   <g id="patch_22">
    <path d="M 263.850469 128.85255 
C 265.193097 128.85255 266.480915 128.225584 267.430296 127.109733 
C 268.379678 125.993882 268.913109 124.480251 268.913109 122.9022 
C 268.913109 121.324149 268.379678 119.810518 267.430296 118.694667 
C 266.480915 117.578816 265.193097 116.95185 263.850469 116.95185 
C 262.507841 116.95185 261.220023 117.578816 260.270641 118.694667 
C 259.32126 119.810518 258.787828 121.324149 258.787828 122.9022 
C 258.787828 124.480251 259.32126 125.993882 260.270641 127.109733 
C 261.220023 128.225584 262.507841 128.85255 263.850469 128.85255 
z
" clip-path="url(#p98b5b5655e)" style="fill: #b7791f; stroke: #b7791f; stroke-linejoin: miter"/>
   </g>
   <g id="patch_23">
    <path d="M 250.83225 173.05515 
C 252.174878 173.05515 253.462696 172.428184 254.412078 171.312333 
C 255.361459 170.196482 255.894891 168.682851 255.894891 167.1048 
C 255.894891 165.526749 255.361459 164.013118 254.412078 162.897267 
C 253.462696 161.781416 252.174878 161.15445 250.83225 161.15445 
C 249.489622 161.15445 248.201804 161.781416 247.252422 162.897267 
C 246.303041 164.013118 245.769609 165.526749 245.769609 167.1048 
C 245.769609 168.682851 246.303041 170.196482 247.252422 171.312333 
C 248.201804 172.428184 249.489622 173.05515 250.83225 173.05515 
z
" clip-path="url(#p98b5b5655e)" style="fill: #b7791f; stroke: #b7791f; stroke-linejoin: miter"/>
   </g>
   <g id="line2d_1">
    <path d="M 256.618125 122.9022 
L 273.97575 122.9022 
" clip-path="url(#p98b5b5655e)" style="fill: none; stroke: #b7791f; stroke-width: 4; stroke-linecap: round"/>
   </g>
   <g id="text_3">
    <!-- $\Omega$ -->
    <g style="fill: #3c8f63" transform="translate(273.97575 104.2011)">
     <text>
      <tspan x="0" y="-0.40625" style="font-size: 13px; font-family: 'DejaVu Sans'; fill: #3c8f63">Ω</tspan>
     </text>
    </g>
   </g>
   <g id="text_4">
    <text style="font-weight: 700; font-size: 13px; font-family: 'Arial'; text-anchor: middle; fill: #231533" x="242.153438" y="65.903456" transform="rotate(-0 242.153438 65.903456)">rotation</text>
   </g>
   <g id="text_5">
    <text style="font-size: 10.5px; font-family: 'Arial'; text-anchor: middle; fill: #231533" x="242.153438" y="212.497678" transform="rotate(-0 242.153438 212.497678)">change orientation</text>
   </g>
   <g id="line2d_2">
    <path d="M 256.618125 139.9032 
L 271.082813 105.9012 
" clip-path="url(#p98b5b5655e)" style="fill: none; stroke: #3c8f63; stroke-width: 2; stroke-linecap: square"/>
   </g>
  </g>
  <g id="axes_3">
   <g id="patch_24">
    <path d="M 332.46 221.508 
L 477.106875 221.508 
L 477.106875 51.498 
L 332.46 51.498 
L 332.46 221.508 
z
" style="fill: none"/>
   </g>
   <g id="patch_25">
    <path d="M 346.924688 190.9062 
L 462.642188 190.9062 
L 462.642188 85.5 
L 346.924688 85.5 
z
" clip-path="url(#p819cb602ed)" style="fill: #ffffff; stroke: #7a53ec; stroke-width: 1.7; stroke-linejoin: miter"/>
   </g>
   <g id="matplotlib.axis_5"/>
   <g id="matplotlib.axis_6"/>
   <g id="patch_26">
    <path d="M 361.389375 184.95585 
C 362.732003 184.95585 364.019821 184.328884 364.969203 183.213033 
C 365.918584 182.097182 366.452016 180.583551 366.452016 179.0055 
C 366.452016 177.427449 365.918584 175.913818 364.969203 174.797967 
C 364.019821 173.682116 362.732003 173.05515 361.389375 173.05515 
C 360.046747 173.05515 358.758929 173.682116 357.809547 174.797967 
C 356.860166 175.913818 356.326734 177.427449 356.326734 179.0055 
C 356.326734 180.583551 356.860166 182.097182 357.809547 183.213033 
C 358.758929 184.328884 360.046747 184.95585 361.389375 184.95585 
z
" clip-path="url(#p819cb602ed)" style="fill: #665a75; stroke: #665a75; stroke-linejoin: miter"/>
   </g>
   <g id="patch_27">
    <path d="M 451.070438 174.75525 
C 452.413065 174.75525 453.700884 174.128284 454.650265 173.012433 
C 455.599646 171.896582 456.133078 170.382951 456.133078 168.8049 
C 456.133078 167.226849 455.599646 165.713218 454.650265 164.597367 
C 453.700884 163.481516 452.413065 162.85455 451.070438 162.85455 
C 449.72781 162.85455 448.439991 163.481516 447.49061 164.597367 
C 446.541229 165.713218 446.007797 167.226849 446.007797 168.8049 
C 446.007797 170.382951 446.541229 171.896582 447.49061 173.012433 
C 448.439991 174.128284 449.72781 174.75525 451.070438 174.75525 
z
" clip-path="url(#p819cb602ed)" style="fill: #665a75; stroke: #665a75; stroke-linejoin: miter"/>
   </g>
   <g id="patch_28">
    <path d="M 361.389375 108.45135 
C 362.732003 108.45135 364.019821 107.824384 364.969203 106.708533 
C 365.918584 105.592682 366.452016 104.079051 366.452016 102.501 
C 366.452016 100.922949 365.918584 99.409318 364.969203 98.293467 
C 364.019821 97.177616 362.732003 96.55065 361.389375 96.55065 
C 360.046747 96.55065 358.758929 97.177616 357.809547 98.293467 
C 356.860166 99.409318 356.326734 100.922949 356.326734 102.501 
C 356.326734 104.079051 356.860166 105.592682 357.809547 106.708533 
C 358.758929 107.824384 360.046747 108.45135 361.389375 108.45135 
z
" clip-path="url(#p819cb602ed)" style="fill: #665a75; stroke: #665a75; stroke-linejoin: miter"/>
   </g>
   <g id="patch_29">
    <path d="M 451.070438 111.85155 
C 452.413065 111.85155 453.700884 111.224584 454.650265 110.108733 
C 455.599646 108.992882 456.133078 107.479251 456.133078 105.9012 
C 456.133078 104.323149 455.599646 102.809518 454.650265 101.693667 
C 453.700884 100.577816 452.413065 99.95085 451.070438 99.95085 
C 449.72781 99.95085 448.439991 100.577816 447.49061 101.693667 
C 446.541229 102.809518 446.007797 104.323149 446.007797 105.9012 
C 446.007797 107.479251 446.541229 108.992882 447.49061 110.108733 
C 448.439991 111.224584 449.72781 111.85155 451.070438 111.85155 
z
" clip-path="url(#p819cb602ed)" style="fill: #665a75; stroke: #665a75; stroke-linejoin: miter"/>
   </g>
   <g id="patch_30">
    <path d="M 404.783438 144.15345 
C 406.126065 144.15345 407.413884 143.526484 408.363265 142.410633 
C 409.312646 141.294782 409.846078 139.781151 409.846078 138.2031 
C 409.846078 136.625049 409.312646 135.111418 408.363265 133.995567 
C 407.413884 132.879716 406.126065 132.25275 404.783438 132.25275 
C 403.44081 132.25275 402.152991 132.879716 401.20361 133.995567 
C 400.254229 135.111418 399.720797 136.625049 399.720797 138.2031 
C 399.720797 139.781151 400.254229 141.294782 401.20361 142.410633 
C 402.152991 143.526484 403.44081 144.15345 404.783438 144.15345 
z
" clip-path="url(#p819cb602ed)" style="fill: #665a75; stroke: #665a75; stroke-linejoin: miter"/>
   </g>
   <g id="patch_31">
    <path d="M 387.425813 162.85455 
C 388.76844 162.85455 390.056259 162.227584 391.00564 161.111733 
C 391.955021 159.995882 392.488453 158.482251 392.488453 156.9042 
C 392.488453 155.326149 391.955021 153.812518 391.00564 152.696667 
C 390.056259 151.580816 388.76844 150.95385 387.425813 150.95385 
C 386.083185 150.95385 384.795366 151.580816 383.845985 152.696667 
C 382.896604 153.812518 382.363172 155.326149 382.363172 156.9042 
C 382.363172 158.482251 382.896604 159.995882 383.845985 161.111733 
C 384.795366 162.227584 386.083185 162.85455 387.425813 162.85455 
z
" clip-path="url(#p819cb602ed)" style="fill: #b7791f; stroke: #b7791f; stroke-linejoin: miter"/>
   </g>
   <g id="patch_32">
    <path d="M 426.480469 128.85255 
C 427.823097 128.85255 429.110915 128.225584 430.060296 127.109733 
C 431.009678 125.993882 431.543109 124.480251 431.543109 122.9022 
C 431.543109 121.324149 431.009678 119.810518 430.060296 118.694667 
C 429.110915 117.578816 427.823097 116.95185 426.480469 116.95185 
C 425.137841 116.95185 423.850023 117.578816 422.900641 118.694667 
C 421.95126 119.810518 421.417828 121.324149 421.417828 122.9022 
C 421.417828 124.480251 421.95126 125.993882 422.900641 127.109733 
C 423.850023 128.225584 425.137841 128.85255 426.480469 128.85255 
z
" clip-path="url(#p819cb602ed)" style="fill: #b7791f; stroke: #b7791f; stroke-linejoin: miter"/>
   </g>
   <g id="patch_33">
    <path d="M 413.46225 173.05515 
C 414.804878 173.05515 416.092696 172.428184 417.042078 171.312333 
C 417.991459 170.196482 418.524891 168.682851 418.524891 167.1048 
C 418.524891 165.526749 417.991459 164.013118 417.042078 162.897267 
C 416.092696 161.781416 414.804878 161.15445 413.46225 161.15445 
C 412.119622 161.15445 410.831804 161.781416 409.882422 162.897267 
C 408.933041 164.013118 408.399609 165.526749 408.399609 167.1048 
C 408.399609 168.682851 408.933041 170.196482 409.882422 171.312333 
C 410.831804 172.428184 412.119622 173.05515 413.46225 173.05515 
z
" clip-path="url(#p819cb602ed)" style="fill: #b7791f; stroke: #b7791f; stroke-linejoin: miter"/>
   </g>
   <g id="text_6">
    <text style="font-weight: 700; font-size: 13px; font-family: 'Arial'; text-anchor: middle; fill: #231533" x="404.783438" y="65.903456" transform="rotate(-0 404.783438 65.903456)">insertion</text>
   </g>
   <g id="text_7">
    <text style="font-size: 10.5px; font-family: 'Arial'; text-anchor: middle; fill: #231533" x="404.783438" y="212.497678" transform="rotate(-0 404.783438 212.497678)">try a new molecule</text>
   </g>
   <g id="patch_34">
    <path d="M 372.961125 73.899287 
Q 372.961125 93.149305 372.961125 110.498665 
" clip-path="url(#p819cb602ed)" style="fill: none; stroke: #3c8f63; stroke-width: 1.7; stroke-linecap: round"/>
    <path d="M 375.761125 104.898665 
L 372.961125 110.498665 
L 370.161125 104.898665 
z
" clip-path="url(#p819cb602ed)" style="fill: #3c8f63; stroke: #3c8f63; stroke-width: 1.7; stroke-linecap: round"/>
   </g>
   <g id="patch_35">
    <path d="M 372.961125 128.85255 
C 374.303753 128.85255 375.591571 128.225584 376.540953 127.109733 
C 377.490334 125.993882 378.023766 124.480251 378.023766 122.9022 
C 378.023766 121.324149 377.490334 119.810518 376.540953 118.694667 
C 375.591571 117.578816 374.303753 116.95185 372.961125 116.95185 
C 371.618497 116.95185 370.330679 117.578816 369.381297 118.694667 
C 368.431916 119.810518 367.898484 121.324149 367.898484 122.9022 
C 367.898484 124.480251 368.431916 125.993882 369.381297 127.109733 
C 370.330679 128.225584 371.618497 128.85255 372.961125 128.85255 
L 372.961125 128.85255 
z
" clip-path="url(#p819cb602ed)" style="fill: none; stroke: #3c8f63; stroke-width: 2; stroke-linejoin: miter"/>
   </g>
  </g>
  <g id="axes_4">
   <g id="patch_36">
    <path d="M 495.09 221.508 
L 639.736875 221.508 
L 639.736875 51.498 
L 495.09 51.498 
L 495.09 221.508 
z
" style="fill: none"/>
   </g>
   <g id="patch_37">
    <path d="M 509.554688 190.9062 
L 625.272188 190.9062 
L 625.272188 85.5 
L 509.554688 85.5 
z
" clip-path="url(#p6a6a7772d1)" style="fill: #ffffff; stroke: #7a53ec; stroke-width: 1.7; stroke-linejoin: miter"/>
   </g>
   <g id="matplotlib.axis_7"/>
   <g id="matplotlib.axis_8"/>
   <g id="patch_38">
    <path d="M 524.019375 184.95585 
C 525.362003 184.95585 526.649821 184.328884 527.599203 183.213033 
C 528.548584 182.097182 529.082016 180.583551 529.082016 179.0055 
C 529.082016 177.427449 528.548584 175.913818 527.599203 174.797967 
C 526.649821 173.682116 525.362003 173.05515 524.019375 173.05515 
C 522.676747 173.05515 521.388929 173.682116 520.439547 174.797967 
C 519.490166 175.913818 518.956734 177.427449 518.956734 179.0055 
C 518.956734 180.583551 519.490166 182.097182 520.439547 183.213033 
C 521.388929 184.328884 522.676747 184.95585 524.019375 184.95585 
z
" clip-path="url(#p6a6a7772d1)" style="fill: #665a75; stroke: #665a75; stroke-linejoin: miter"/>
   </g>
   <g id="patch_39">
    <path d="M 613.700438 174.75525 
C 615.043065 174.75525 616.330884 174.128284 617.280265 173.012433 
C 618.229646 171.896582 618.763078 170.382951 618.763078 168.8049 
C 618.763078 167.226849 618.229646 165.713218 617.280265 164.597367 
C 616.330884 163.481516 615.043065 162.85455 613.700438 162.85455 
C 612.35781 162.85455 611.069991 163.481516 610.12061 164.597367 
C 609.171229 165.713218 608.637797 167.226849 608.637797 168.8049 
C 608.637797 170.382951 609.171229 171.896582 610.12061 173.012433 
C 611.069991 174.128284 612.35781 174.75525 613.700438 174.75525 
z
" clip-path="url(#p6a6a7772d1)" style="fill: #665a75; stroke: #665a75; stroke-linejoin: miter"/>
   </g>
   <g id="patch_40">
    <path d="M 524.019375 108.45135 
C 525.362003 108.45135 526.649821 107.824384 527.599203 106.708533 
C 528.548584 105.592682 529.082016 104.079051 529.082016 102.501 
C 529.082016 100.922949 528.548584 99.409318 527.599203 98.293467 
C 526.649821 97.177616 525.362003 96.55065 524.019375 96.55065 
C 522.676747 96.55065 521.388929 97.177616 520.439547 98.293467 
C 519.490166 99.409318 518.956734 100.922949 518.956734 102.501 
C 518.956734 104.079051 519.490166 105.592682 520.439547 106.708533 
C 521.388929 107.824384 522.676747 108.45135 524.019375 108.45135 
z
" clip-path="url(#p6a6a7772d1)" style="fill: #665a75; stroke: #665a75; stroke-linejoin: miter"/>
   </g>
   <g id="patch_41">
    <path d="M 613.700438 111.85155 
C 615.043065 111.85155 616.330884 111.224584 617.280265 110.108733 
C 618.229646 108.992882 618.763078 107.479251 618.763078 105.9012 
C 618.763078 104.323149 618.229646 102.809518 617.280265 101.693667 
C 616.330884 100.577816 615.043065 99.95085 613.700438 99.95085 
C 612.35781 99.95085 611.069991 100.577816 610.12061 101.693667 
C 609.171229 102.809518 608.637797 104.323149 608.637797 105.9012 
C 608.637797 107.479251 609.171229 108.992882 610.12061 110.108733 
C 611.069991 111.224584 612.35781 111.85155 613.700438 111.85155 
z
" clip-path="url(#p6a6a7772d1)" style="fill: #665a75; stroke: #665a75; stroke-linejoin: miter"/>
   </g>
   <g id="patch_42">
    <path d="M 567.413438 144.15345 
C 568.756065 144.15345 570.043884 143.526484 570.993265 142.410633 
C 571.942646 141.294782 572.476078 139.781151 572.476078 138.2031 
C 572.476078 136.625049 571.942646 135.111418 570.993265 133.995567 
C 570.043884 132.879716 568.756065 132.25275 567.413438 132.25275 
C 566.07081 132.25275 564.782991 132.879716 563.83361 133.995567 
C 562.884229 135.111418 562.350797 136.625049 562.350797 138.2031 
C 562.350797 139.781151 562.884229 141.294782 563.83361 142.410633 
C 564.782991 143.526484 566.07081 144.15345 567.413438 144.15345 
z
" clip-path="url(#p6a6a7772d1)" style="fill: #665a75; stroke: #665a75; stroke-linejoin: miter"/>
   </g>
   <g id="patch_43">
    <path d="M 550.055813 162.85455 
C 551.39844 162.85455 552.686259 162.227584 553.63564 161.111733 
C 554.585021 159.995882 555.118453 158.482251 555.118453 156.9042 
C 555.118453 155.326149 554.585021 153.812518 553.63564 152.696667 
C 552.686259 151.580816 551.39844 150.95385 550.055813 150.95385 
C 548.713185 150.95385 547.425366 151.580816 546.475985 152.696667 
C 545.526604 153.812518 544.993172 155.326149 544.993172 156.9042 
C 544.993172 158.482251 545.526604 159.995882 546.475985 161.111733 
C 547.425366 162.227584 548.713185 162.85455 550.055813 162.85455 
z
" clip-path="url(#p6a6a7772d1)" style="fill: #b7791f; stroke: #b7791f; stroke-linejoin: miter"/>
   </g>
   <g id="patch_44">
    <path d="M 589.110469 128.85255 
C 590.453097 128.85255 591.740915 128.225584 592.690296 127.109733 
C 593.639678 125.993882 594.173109 124.480251 594.173109 122.9022 
C 594.173109 121.324149 593.639678 119.810518 592.690296 118.694667 
C 591.740915 117.578816 590.453097 116.95185 589.110469 116.95185 
C 587.767841 116.95185 586.480023 117.578816 585.530641 118.694667 
C 584.58126 119.810518 584.047828 121.324149 584.047828 122.9022 
C 584.047828 124.480251 584.58126 125.993882 585.530641 127.109733 
C 586.480023 128.225584 587.767841 128.85255 589.110469 128.85255 
z
" clip-path="url(#p6a6a7772d1)" style="fill: #b7791f; stroke: #b7791f; stroke-linejoin: miter"/>
   </g>
   <g id="patch_45">
    <path d="M 576.09225 173.05515 
C 577.434878 173.05515 578.722696 172.428184 579.672078 171.312333 
C 580.621459 170.196482 581.154891 168.682851 581.154891 167.1048 
C 581.154891 165.526749 580.621459 164.013118 579.672078 162.897267 
C 578.722696 161.781416 577.434878 161.15445 576.09225 161.15445 
C 574.749622 161.15445 573.461804 161.781416 572.512422 162.897267 
C 571.563041 164.013118 571.029609 165.526749 571.029609 167.1048 
C 571.029609 168.682851 571.563041 170.196482 572.512422 171.312333 
C 573.461804 172.428184 574.749622 173.05515 576.09225 173.05515 
z
" clip-path="url(#p6a6a7772d1)" style="fill: #b7791f; stroke: #b7791f; stroke-linejoin: miter"/>
   </g>
   <g id="text_8">
    <text style="font-weight: 700; font-size: 13px; font-family: 'Arial'; text-anchor: middle; fill: #231533" x="567.413438" y="65.903456" transform="rotate(-0 567.413438 65.903456)">deletion</text>
   </g>
   <g id="text_9">
    <text style="font-size: 10.5px; font-family: 'Arial'; text-anchor: middle; fill: #231533" x="567.413438" y="212.620725" transform="rotate(-0 567.413438 212.620725)">remove a molecule</text>
   </g>
   <g id="patch_46">
    <path d="M 589.110469 120.900556 
Q 589.110469 97.400303 589.110469 75.800707 
" clip-path="url(#p6a6a7772d1)" style="fill: none; stroke: #c7506b; stroke-width: 1.7; stroke-linecap: round"/>
    <path d="M 586.310469 81.400707 
L 589.110469 75.800707 
L 591.910469 81.400707 
z
" clip-path="url(#p6a6a7772d1)" style="fill: #c7506b; stroke: #c7506b; stroke-width: 1.7; stroke-linecap: round"/>
   </g>
   <g id="patch_47">
    <path d="M 589.110469 132.25275 
C 591.220313 132.25275 593.244027 131.267517 594.735912 129.514037 
C 596.227797 127.760558 597.066047 125.381995 597.066047 122.9022 
C 597.066047 120.422405 596.227797 118.043842 594.735912 116.290363 
C 593.244027 114.536883 591.220313 113.55165 589.110469 113.55165 
C 587.000625 113.55165 584.97691 114.536883 583.485026 116.290363 
C 581.993141 118.043842 581.154891 120.422405 581.154891 122.9022 
C 581.154891 125.381995 581.993141 127.760558 583.485026 129.514037 
C 584.97691 131.267517 587.000625 132.25275 589.110469 132.25275 
L 589.110469 132.25275 
z
" clip-path="url(#p6a6a7772d1)" style="fill: none; stroke: #c7506b; stroke-width: 2; stroke-linejoin: miter"/>
   </g>
  </g>
  <g id="text_10">
   <text style="font-weight: 700; font-size: 15px; font-family: 'Arial'; text-anchor: middle; fill: #231533" x="320.416875" y="18.119531" transform="rotate(-0 320.416875 18.119531)">GCMC move set in a variable-N state space</text>
  </g>
 </g>
 <defs>
  <clipPath id="p661abef768">
   <rect x="7.2" y="51.498" width="144.646875" height="170.01"/>
  </clipPath>
  <clipPath id="p98b5b5655e">
   <rect x="169.83" y="51.498" width="144.646875" height="170.01"/>
  </clipPath>
  <clipPath id="p819cb602ed">
   <rect x="332.46" y="51.498" width="144.646875" height="170.01"/>
  </clipPath>
  <clipPath id="p6a6a7772d1">
   <rect x="495.09" y="51.498" width="144.646875" height="170.01"/>
  </clipPath>
 </defs>
</svg>
