<svg xmlns="http://www.w3.org/2000/svg" width="920" height="360" viewBox="0 0 920 360">
<defs>
<marker id="arrow" viewBox="0 0 10 10" refX="8.5" refY="5" markerWidth="7" markerHeight="7" orient="auto-start-reverse"><path d="M 0 0 L 10 5 L 0 10 z" fill="#455a64"/></marker>
<style>text { font-family: Arial, Helvetica, DejaVu Sans, sans-serif; }</style>
</defs>
<rect width="100%" height="100%" fill="white"/>
<rect x="194" y="66" width="536" height="218" rx="22" fill="none" stroke="#b0bec5" stroke-width="1.6" stroke-dasharray="6 8"/>
<text x="462" y="51" text-anchor="middle" font-size="18" font-weight="700" fill="#607d8b"><tspan x="462" dy="0.0">Repeated equivariant block</tspan></text>
<text x="462" y="309" text-anchor="middle" font-size="17" font-weight="600" fill="#607d8b"><tspan x="462" dy="0.0">applied T times</tspan></text>
<rect x="40" y="136" width="130" height="92" rx="14" fill="#e0f2e9" stroke="#4caf50" stroke-width="2.4"/>
<text x="105.0" y="182" text-anchor="middle" font-size="20" font-weight="700" fill="#2e7d32"><tspan x="105.0" dy="0.0">Input</tspan></text>
<text x="105.0" y="198" text-anchor="middle" font-size="15" font-weight="500" fill="#607d8b"><tspan x="105.0" dy="0.0">atom types</tspan><tspan x="105.0" dy="17.4">positions</tspan></text>
<rect x="230" y="116" width="190" height="132" rx="14" fill="#dceefc" stroke="#4f9fd8" stroke-width="2.4"/>
<text x="325.0" y="162" text-anchor="middle" font-size="21" font-weight="700" fill="#1565c0"><tspan x="325.0" dy="0.0">Message</tspan><tspan x="325.0" dy="24.4">passing</tspan></text>
<text x="325.0" y="218" text-anchor="middle" font-size="15" font-weight="500" fill="#607d8b"><tspan x="325.0" dy="0.0">aggregate</tspan><tspan x="325.0" dy="17.4">neighbors</tspan></text>
<rect x="500" y="116" width="200" height="132" rx="14" fill="#e8e1f5" stroke="#8a6fc8" stroke-width="2.4"/>
<text x="600.0" y="162" text-anchor="middle" font-size="21" font-weight="700" fill="#5e35b1"><tspan x="600.0" dy="0.0">Spherical</tspan><tspan x="600.0" dy="24.4">equivariant</tspan></text>
<text x="600.0" y="218" text-anchor="middle" font-size="15" font-weight="500" fill="#607d8b"><tspan x="600.0" dy="0.0">CG products</tspan><tspan x="600.0" dy="17.4">nonlinearities</tspan></text>
<rect x="770" y="136" width="120" height="92" rx="14" fill="#fae8e4" stroke="#d56b4f" stroke-width="2.4"/>
<text x="830.0" y="182" text-anchor="middle" font-size="20" font-weight="700" fill="#b84a2c"><tspan x="830.0" dy="0.0">Output</tspan></text>
<text x="830.0" y="198" text-anchor="middle" font-size="15" font-weight="500" fill="#607d8b"><tspan x="830.0" dy="0.0">energy</tspan><tspan x="830.0" dy="17.4">forces</tspan></text>
<line x1="174" y1="182" x2="222" y2="182" stroke="#455a64" stroke-width="3" stroke-linecap="round" marker-end="url(#arrow)"/>
<line x1="426" y1="182" x2="492" y2="182" stroke="#455a64" stroke-width="3" stroke-linecap="round" marker-end="url(#arrow)"/>
<line x1="706" y1="182" x2="762" y2="182" stroke="#455a64" stroke-width="3" stroke-linecap="round" marker-end="url(#arrow)"/>
<text x="325" y="270" text-anchor="middle" font-size="15" font-weight="600" fill="#1565c0"><tspan x="325" dy="0.0">structural update</tspan></text>
<text x="600" y="270" text-anchor="middle" font-size="15" font-weight="600" fill="#5e35b1"><tspan x="600" dy="0.0">geometric update</tspan></text>
</svg>
