<?xml version="1.0" encoding="utf-8" standalone="no"?>
<!DOCTYPE svg PUBLIC "-//W3C//DTD SVG 1.1//EN"
  "http://www.w3.org/Graphics/SVG/1.1/DTD/svg11.dtd">
<svg xmlns:xlink="http://www.w3.org/1999/xlink" width="494.514pt" height="494.514pt" viewBox="0 0 494.514 494.514" xmlns="http://www.w3.org/2000/svg" version="1.1">
 <metadata>
  <rdf:RDF xmlns:dc="http://purl.org/dc/elements/1.1/" xmlns:cc="http://creativecommons.org/ns#" xmlns:rdf="http://www.w3.org/1999/02/22-rdf-syntax-ns#">
   <cc:Work>
    <dc:type rdf:resource="http://purl.org/dc/dcmitype/StillImage"/>
    <dc:date>2026-06-20T21:39:15.118147</dc:date>
    <dc:format>image/svg+xml</dc:format>
    <dc:creator>
     <cc:Agent>
      <dc:title>Matplotlib v3.10.8, https://matplotlib.org/</dc:title>
     </cc:Agent>
    </dc:creator>
   </cc:Work>
  </rdf:RDF>
 </metadata>
 <defs>
  <style type="text/css">*{stroke-linejoin: round; stroke-linecap: butt}</style>
 </defs>
 <g id="figure_1">
  <g id="patch_1">
   <path d="M 0 494.514 
L 494.514 494.514 
L 494.514 0 
L 0 0 
z
" style="fill: #ffffff"/>
  </g>
  <g id="axes_1">
   <g id="patch_2">
    <path d="M 67.21425 448.304737 
C 72.784838 448.304737 78.128019 446.09152 82.067019 442.152519 
C 86.00602 438.213519 88.219238 432.870338 88.219238 427.29975 
C 88.219238 421.729162 86.00602 416.385981 82.067019 412.446981 
C 78.128019 408.50798 72.784838 406.294762 67.21425 406.294762 
C 61.643662 406.294762 56.300481 408.50798 52.361481 412.446981 
C 48.42248 416.385981 46.209263 421.729162 46.209263 427.29975 
C 46.209263 432.870338 48.42248 438.213519 52.361481 442.152519 
C 56.300481 446.09152 61.643662 448.304737 67.21425 448.304737 
z
" clip-path="url(#p89fa26ffed)" style="fill: #b0bec5; stroke: #78909c; stroke-width: 1.5; stroke-linejoin: miter"/>
   </g>
   <g id="patch_3">
    <path d="M 127.2285 448.304737 
C 132.799088 448.304737 138.142269 446.09152 142.081269 442.152519 
C 146.02027 438.213519 148.233488 432.870338 148.233488 427.29975 
C 148.233488 421.729162 146.02027 416.385981 142.081269 412.446981 
C 138.142269 408.50798 132.799088 406.294762 127.2285 406.294762 
C 121.657912 406.294762 116.314731 408.50798 112.375731 412.446981 
C 108.43673 416.385981 106.223513 421.729162 106.223513 427.29975 
C 106.223513 432.870338 108.43673 438.213519 112.375731 442.152519 
C 116.314731 446.09152 121.657912 448.304737 127.2285 448.304737 
z
" clip-path="url(#p89fa26ffed)" style="fill: #b0bec5; stroke: #78909c; stroke-width: 1.5; stroke-linejoin: miter"/>
   </g>
   <g id="patch_4">
    <path d="M 187.24275 448.304737 
C 192.813338 448.304737 198.156519 446.09152 202.095519 442.152519 
C 206.03452 438.213519 208.247737 432.870338 208.247737 427.29975 
C 208.247737 421.729162 206.03452 416.385981 202.095519 412.446981 
C 198.156519 408.50798 192.813338 406.294762 187.24275 406.294762 
C 181.672162 406.294762 176.328981 408.50798 172.389981 412.446981 
C 168.45098 416.385981 166.237763 421.729162 166.237763 427.29975 
C 166.237763 432.870338 168.45098 438.213519 172.389981 442.152519 
C 176.328981 446.09152 181.672162 448.304737 187.24275 448.304737 
z
" clip-path="url(#p89fa26ffed)" style="fill: #b0bec5; stroke: #78909c; stroke-width: 1.5; stroke-linejoin: miter"/>
   </g>
   <g id="patch_5">
    <path d="M 247.257 448.304737 
C 252.827588 448.304737 258.170769 446.09152 262.109769 442.152519 
C 266.04877 438.213519 268.261988 432.870338 268.261988 427.29975 
C 268.261988 421.729162 266.04877 416.385981 262.109769 412.446981 
C 258.170769 408.50798 252.827588 406.294762 247.257 406.294762 
C 241.686412 406.294762 236.343231 408.50798 232.404231 412.446981 
C 228.46523 416.385981 226.252013 421.729162 226.252013 427.29975 
C 226.252013 432.870338 228.46523 438.213519 232.404231 442.152519 
C 236.343231 446.09152 241.686412 448.304737 247.257 448.304737 
z
" clip-path="url(#p89fa26ffed)" style="fill: #b0bec5; stroke: #78909c; stroke-width: 1.5; stroke-linejoin: miter"/>
   </g>
   <g id="patch_6">
    <path d="M 307.27125 448.304737 
C 312.841838 448.304737 318.185019 446.09152 322.124019 442.152519 
C 326.06302 438.213519 328.276237 432.870338 328.276237 427.29975 
C 328.276237 421.729162 326.06302 416.385981 322.124019 412.446981 
C 318.185019 408.50798 312.841838 406.294762 307.27125 406.294762 
C 301.700662 406.294762 296.357481 408.50798 292.418481 412.446981 
C 288.47948 416.385981 286.266263 421.729162 286.266263 427.29975 
C 286.266263 432.870338 288.47948 438.213519 292.418481 442.152519 
C 296.357481 446.09152 301.700662 448.304737 307.27125 448.304737 
z
" clip-path="url(#p89fa26ffed)" style="fill: #b0bec5; stroke: #78909c; stroke-width: 1.5; stroke-linejoin: miter"/>
   </g>
   <g id="patch_7">
    <path d="M 367.2855 448.304737 
C 372.856088 448.304737 378.199269 446.09152 382.138269 442.152519 
C 386.07727 438.213519 388.290488 432.870338 388.290488 427.29975 
C 388.290488 421.729162 386.07727 416.385981 382.138269 412.446981 
C 378.199269 408.50798 372.856088 406.294762 367.2855 406.294762 
C 361.714912 406.294762 356.371731 408.50798 352.432731 412.446981 
C 348.49373 416.385981 346.280512 421.729162 346.280512 427.29975 
C 346.280512 432.870338 348.49373 438.213519 352.432731 442.152519 
C 356.371731 446.09152 361.714912 448.304737 367.2855 448.304737 
z
" clip-path="url(#p89fa26ffed)" style="fill: #b0bec5; stroke: #78909c; stroke-width: 1.5; stroke-linejoin: miter"/>
   </g>
   <g id="patch_8">
    <path d="M 427.29975 448.304737 
C 432.870338 448.304737 438.213519 446.09152 442.152519 442.152519 
C 446.09152 438.213519 448.304737 432.870338 448.304737 427.29975 
C 448.304737 421.729162 446.09152 416.385981 442.152519 412.446981 
C 438.213519 408.50798 432.870338 406.294762 427.29975 406.294762 
C 421.729162 406.294762 416.385981 408.50798 412.446981 412.446981 
C 408.50798 416.385981 406.294763 421.729162 406.294763 427.29975 
C 406.294763 432.870338 408.50798 438.213519 412.446981 442.152519 
C 416.385981 446.09152 421.729162 448.304737 427.29975 448.304737 
z
" clip-path="url(#p89fa26ffed)" style="fill: #b0bec5; stroke: #78909c; stroke-width: 1.5; stroke-linejoin: miter"/>
   </g>
   <g id="patch_9">
    <path d="M 97.221375 396.330872 
C 102.791963 396.330872 108.135144 394.117654 112.074144 390.178654 
C 116.013145 386.239654 118.226363 380.896473 118.226363 375.325885 
C 118.226363 369.755297 116.013145 364.412116 112.074144 360.473116 
C 108.135144 356.534115 102.791963 354.320897 97.221375 354.320897 
C 91.650787 354.320897 86.307606 356.534115 82.368606 360.473116 
C 78.429605 364.412116 76.216388 369.755297 76.216388 375.325885 
C 76.216388 380.896473 78.429605 386.239654 82.368606 390.178654 
C 86.307606 394.117654 91.650787 396.330872 97.221375 396.330872 
z
" clip-path="url(#p89fa26ffed)" style="fill: #b0bec5; stroke: #78909c; stroke-width: 1.5; stroke-linejoin: miter"/>
   </g>
   <g id="patch_10">
    <path d="M 157.235625 396.330872 
C 162.806213 396.330872 168.149394 394.117654 172.088394 390.178654 
C 176.027395 386.239654 178.240613 380.896473 178.240613 375.325885 
C 178.240613 369.755297 176.027395 364.412116 172.088394 360.473116 
C 168.149394 356.534115 162.806213 354.320897 157.235625 354.320897 
C 151.665037 354.320897 146.321856 356.534115 142.382856 360.473116 
C 138.443855 364.412116 136.230638 369.755297 136.230638 375.325885 
C 136.230638 380.896473 138.443855 386.239654 142.382856 390.178654 
C 146.321856 394.117654 151.665037 396.330872 157.235625 396.330872 
z
" clip-path="url(#p89fa26ffed)" style="fill: #b0bec5; stroke: #78909c; stroke-width: 1.5; stroke-linejoin: miter"/>
   </g>
   <g id="patch_11">
    <path d="M 217.249875 396.330872 
C 222.820463 396.330872 228.163644 394.117654 232.102644 390.178654 
C 236.041645 386.239654 238.254863 380.896473 238.254863 375.325885 
C 238.254863 369.755297 236.041645 364.412116 232.102644 360.473116 
C 228.163644 356.534115 222.820463 354.320897 217.249875 354.320897 
C 211.679287 354.320897 206.336106 356.534115 202.397106 360.473116 
C 198.458105 364.412116 196.244888 369.755297 196.244888 375.325885 
C 196.244888 380.896473 198.458105 386.239654 202.397106 390.178654 
C 206.336106 394.117654 211.679287 396.330872 217.249875 396.330872 
z
" clip-path="url(#p89fa26ffed)" style="fill: #b0bec5; stroke: #78909c; stroke-width: 1.5; stroke-linejoin: miter"/>
   </g>
   <g id="patch_12">
    <path d="M 277.264125 396.330872 
C 282.834713 396.330872 288.177894 394.117654 292.116894 390.178654 
C 296.055895 386.239654 298.269113 380.896473 298.269113 375.325885 
C 298.269113 369.755297 296.055895 364.412116 292.116894 360.473116 
C 288.177894 356.534115 282.834713 354.320897 277.264125 354.320897 
C 271.693537 354.320897 266.350356 356.534115 262.411356 360.473116 
C 258.472355 364.412116 256.259138 369.755297 256.259138 375.325885 
C 256.259138 380.896473 258.472355 386.239654 262.411356 390.178654 
C 266.350356 394.117654 271.693537 396.330872 277.264125 396.330872 
z
" clip-path="url(#p89fa26ffed)" style="fill: #b0bec5; stroke: #78909c; stroke-width: 1.5; stroke-linejoin: miter"/>
   </g>
   <g id="patch_13">
    <path d="M 337.278375 396.330872 
C 342.848963 396.330872 348.192144 394.117654 352.131144 390.178654 
C 356.070145 386.239654 358.283362 380.896473 358.283362 375.325885 
C 358.283362 369.755297 356.070145 364.412116 352.131144 360.473116 
C 348.192144 356.534115 342.848963 354.320897 337.278375 354.320897 
C 331.707787 354.320897 326.364606 356.534115 322.425606 360.473116 
C 318.486605 364.412116 316.273388 369.755297 316.273388 375.325885 
C 316.273388 380.896473 318.486605 386.239654 322.425606 390.178654 
C 326.364606 394.117654 331.707787 396.330872 337.278375 396.330872 
z
" clip-path="url(#p89fa26ffed)" style="fill: #b0bec5; stroke: #78909c; stroke-width: 1.5; stroke-linejoin: miter"/>
   </g>
   <g id="patch_14">
    <path d="M 397.292625 396.330872 
C 402.863213 396.330872 408.206394 394.117654 412.145394 390.178654 
C 416.084395 386.239654 418.297613 380.896473 418.297613 375.325885 
C 418.297613 369.755297 416.084395 364.412116 412.145394 360.473116 
C 408.206394 356.534115 402.863213 354.320897 397.292625 354.320897 
C 391.722037 354.320897 386.378856 356.534115 382.439856 360.473116 
C 378.500855 364.412116 376.287638 369.755297 376.287638 375.325885 
C 376.287638 380.896473 378.500855 386.239654 382.439856 390.178654 
C 386.378856 394.117654 391.722037 396.330872 397.292625 396.330872 
z
" clip-path="url(#p89fa26ffed)" style="fill: #b0bec5; stroke: #78909c; stroke-width: 1.5; stroke-linejoin: miter"/>
   </g>
   <g id="patch_15">
    <path d="M 457.306875 396.330872 
C 462.877463 396.330872 468.220644 394.117654 472.159644 390.178654 
C 476.098645 386.239654 478.311862 380.896473 478.311862 375.325885 
C 478.311862 369.755297 476.098645 364.412116 472.159644 360.473116 
C 468.220644 356.534115 462.877463 354.320897 457.306875 354.320897 
C 451.736287 354.320897 446.393106 356.534115 442.454106 360.473116 
C 438.515105 364.412116 436.301888 369.755297 436.301888 375.325885 
C 436.301888 380.896473 438.515105 386.239654 442.454106 390.178654 
C 446.393106 394.117654 451.736287 396.330872 457.306875 396.330872 
z
" clip-path="url(#p89fa26ffed)" style="fill: #b0bec5; stroke: #78909c; stroke-width: 1.5; stroke-linejoin: miter"/>
   </g>
   <g id="patch_16">
    <path d="M 67.21425 344.357007 
C 72.784838 344.357007 78.128019 342.143789 82.067019 338.204789 
C 86.00602 334.265789 88.219238 328.922608 88.219238 323.35202 
C 88.219238 317.781432 86.00602 312.438251 82.067019 308.499251 
C 78.128019 304.56025 72.784838 302.347032 67.21425 302.347032 
C 61.643662 302.347032 56.300481 304.56025 52.361481 308.499251 
C 48.42248 312.438251 46.209263 317.781432 46.209263 323.35202 
C 46.209263 328.922608 48.42248 334.265789 52.361481 338.204789 
C 56.300481 342.143789 61.643662 344.357007 67.21425 344.357007 
z
" clip-path="url(#p89fa26ffed)" style="fill: #b0bec5; stroke: #78909c; stroke-width: 1.5; stroke-linejoin: miter"/>
   </g>
   <g id="patch_17">
    <path d="M 127.2285 344.357007 
C 132.799088 344.357007 138.142269 342.143789 142.081269 338.204789 
C 146.02027 334.265789 148.233488 328.922608 148.233488 323.35202 
C 148.233488 317.781432 146.02027 312.438251 142.081269 308.499251 
C 138.142269 304.56025 132.799088 302.347032 127.2285 302.347032 
C 121.657912 302.347032 116.314731 304.56025 112.375731 308.499251 
C 108.43673 312.438251 106.223513 317.781432 106.223513 323.35202 
C 106.223513 328.922608 108.43673 334.265789 112.375731 338.204789 
C 116.314731 342.143789 121.657912 344.357007 127.2285 344.357007 
z
" clip-path="url(#p89fa26ffed)" style="fill: #b0bec5; stroke: #78909c; stroke-width: 1.5; stroke-linejoin: miter"/>
   </g>
   <g id="patch_18">
    <path d="M 187.24275 344.357007 
C 192.813338 344.357007 198.156519 342.143789 202.095519 338.204789 
C 206.03452 334.265789 208.247737 328.922608 208.247737 323.35202 
C 208.247737 317.781432 206.03452 312.438251 202.095519 308.499251 
C 198.156519 304.56025 192.813338 302.347032 187.24275 302.347032 
C 181.672162 302.347032 176.328981 304.56025 172.389981 308.499251 
C 168.45098 312.438251 166.237763 317.781432 166.237763 323.35202 
C 166.237763 328.922608 168.45098 334.265789 172.389981 338.204789 
C 176.328981 342.143789 181.672162 344.357007 187.24275 344.357007 
z
" clip-path="url(#p89fa26ffed)" style="fill: #b0bec5; stroke: #78909c; stroke-width: 1.5; stroke-linejoin: miter"/>
   </g>
   <g id="patch_19">
    <path d="M 247.257 344.357007 
C 252.827588 344.357007 258.170769 342.143789 262.109769 338.204789 
C 266.04877 334.265789 268.261988 328.922608 268.261988 323.35202 
C 268.261988 317.781432 266.04877 312.438251 262.109769 308.499251 
C 258.170769 304.56025 252.827588 302.347032 247.257 302.347032 
C 241.686412 302.347032 236.343231 304.56025 232.404231 308.499251 
C 228.46523 312.438251 226.252013 317.781432 226.252013 323.35202 
C 226.252013 328.922608 228.46523 334.265789 232.404231 338.204789 
C 236.343231 342.143789 241.686412 344.357007 247.257 344.357007 
z
" clip-path="url(#p89fa26ffed)" style="fill: #b0bec5; stroke: #78909c; stroke-width: 1.5; stroke-linejoin: miter"/>
   </g>
   <g id="patch_20">
    <path d="M 307.27125 344.357007 
C 312.841838 344.357007 318.185019 342.143789 322.124019 338.204789 
C 326.06302 334.265789 328.276237 328.922608 328.276237 323.35202 
C 328.276237 317.781432 326.06302 312.438251 322.124019 308.499251 
C 318.185019 304.56025 312.841838 302.347032 307.27125 302.347032 
C 301.700662 302.347032 296.357481 304.56025 292.418481 308.499251 
C 288.47948 312.438251 286.266263 317.781432 286.266263 323.35202 
C 286.266263 328.922608 288.47948 334.265789 292.418481 338.204789 
C 296.357481 342.143789 301.700662 344.357007 307.27125 344.357007 
z
" clip-path="url(#p89fa26ffed)" style="fill: #b0bec5; stroke: #78909c; stroke-width: 1.5; stroke-linejoin: miter"/>
   </g>
   <g id="patch_21">
    <path d="M 367.2855 344.357007 
C 372.856088 344.357007 378.199269 342.143789 382.138269 338.204789 
C 386.07727 334.265789 388.290488 328.922608 388.290488 323.35202 
C 388.290488 317.781432 386.07727 312.438251 382.138269 308.499251 
C 378.199269 304.56025 372.856088 302.347032 367.2855 302.347032 
C 361.714912 302.347032 356.371731 304.56025 352.432731 308.499251 
C 348.49373 312.438251 346.280512 317.781432 346.280512 323.35202 
C 346.280512 328.922608 348.49373 334.265789 352.432731 338.204789 
C 356.371731 342.143789 361.714912 344.357007 367.2855 344.357007 
z
" clip-path="url(#p89fa26ffed)" style="fill: #b0bec5; stroke: #78909c; stroke-width: 1.5; stroke-linejoin: miter"/>
   </g>
   <g id="patch_22">
    <path d="M 427.29975 344.357007 
C 432.870338 344.357007 438.213519 342.143789 442.152519 338.204789 
C 446.09152 334.265789 448.304737 328.922608 448.304737 323.35202 
C 448.304737 317.781432 446.09152 312.438251 442.152519 308.499251 
C 438.213519 304.56025 432.870338 302.347032 427.29975 302.347032 
C 421.729162 302.347032 416.385981 304.56025 412.446981 308.499251 
C 408.50798 312.438251 406.294763 317.781432 406.294763 323.35202 
C 406.294763 328.922608 408.50798 334.265789 412.446981 338.204789 
C 416.385981 342.143789 421.729162 344.357007 427.29975 344.357007 
z
" clip-path="url(#p89fa26ffed)" style="fill: #b0bec5; stroke: #78909c; stroke-width: 1.5; stroke-linejoin: miter"/>
   </g>
   <g id="patch_23">
    <path d="M 97.221375 292.383142 
C 102.791963 292.383142 108.135144 290.169924 112.074144 286.230924 
C 116.013145 282.291923 118.226363 276.948743 118.226363 271.378155 
C 118.226363 265.807567 116.013145 260.464386 112.074144 256.525386 
C 108.135144 252.586385 102.791963 250.373167 97.221375 250.373167 
C 91.650787 250.373167 86.307606 252.586385 82.368606 256.525386 
C 78.429605 260.464386 76.216388 265.807567 76.216388 271.378155 
C 76.216388 276.948743 78.429605 282.291923 82.368606 286.230924 
C 86.307606 290.169924 91.650787 292.383142 97.221375 292.383142 
z
" clip-path="url(#p89fa26ffed)" style="fill: #b0bec5; stroke: #78909c; stroke-width: 1.5; stroke-linejoin: miter"/>
   </g>
   <g id="patch_24">
    <path d="M 157.235625 292.383142 
C 162.806213 292.383142 168.149394 290.169924 172.088394 286.230924 
C 176.027395 282.291923 178.240613 276.948743 178.240613 271.378155 
C 178.240613 265.807567 176.027395 260.464386 172.088394 256.525386 
C 168.149394 252.586385 162.806213 250.373167 157.235625 250.373167 
C 151.665037 250.373167 146.321856 252.586385 142.382856 256.525386 
C 138.443855 260.464386 136.230638 265.807567 136.230638 271.378155 
C 136.230638 276.948743 138.443855 282.291923 142.382856 286.230924 
C 146.321856 290.169924 151.665037 292.383142 157.235625 292.383142 
z
" clip-path="url(#p89fa26ffed)" style="fill: #b0bec5; stroke: #78909c; stroke-width: 1.5; stroke-linejoin: miter"/>
   </g>
   <g id="patch_25">
    <path d="M 217.249875 292.383142 
C 222.820463 292.383142 228.163644 290.169924 232.102644 286.230924 
C 236.041645 282.291923 238.254863 276.948743 238.254863 271.378155 
C 238.254863 265.807567 236.041645 260.464386 232.102644 256.525386 
C 228.163644 252.586385 222.820463 250.373167 217.249875 250.373167 
C 211.679287 250.373167 206.336106 252.586385 202.397106 256.525386 
C 198.458105 260.464386 196.244888 265.807567 196.244888 271.378155 
C 196.244888 276.948743 198.458105 282.291923 202.397106 286.230924 
C 206.336106 290.169924 211.679287 292.383142 217.249875 292.383142 
z
" clip-path="url(#p89fa26ffed)" style="fill: #b0bec5; stroke: #78909c; stroke-width: 1.5; stroke-linejoin: miter"/>
   </g>
   <g id="patch_26">
    <path d="M 277.264125 292.383142 
C 282.834713 292.383142 288.177894 290.169924 292.116894 286.230924 
C 296.055895 282.291923 298.269113 276.948743 298.269113 271.378155 
C 298.269113 265.807567 296.055895 260.464386 292.116894 256.525386 
C 288.177894 252.586385 282.834713 250.373167 277.264125 250.373167 
C 271.693537 250.373167 266.350356 252.586385 262.411356 256.525386 
C 258.472355 260.464386 256.259138 265.807567 256.259138 271.378155 
C 256.259138 276.948743 258.472355 282.291923 262.411356 286.230924 
C 266.350356 290.169924 271.693537 292.383142 277.264125 292.383142 
z
" clip-path="url(#p89fa26ffed)" style="fill: #b0bec5; stroke: #78909c; stroke-width: 1.5; stroke-linejoin: miter"/>
   </g>
   <g id="patch_27">
    <path d="M 337.278375 292.383142 
C 342.848963 292.383142 348.192144 290.169924 352.131144 286.230924 
C 356.070145 282.291923 358.283362 276.948743 358.283362 271.378155 
C 358.283362 265.807567 356.070145 260.464386 352.131144 256.525386 
C 348.192144 252.586385 342.848963 250.373167 337.278375 250.373167 
C 331.707787 250.373167 326.364606 252.586385 322.425606 256.525386 
C 318.486605 260.464386 316.273388 265.807567 316.273388 271.378155 
C 316.273388 276.948743 318.486605 282.291923 322.425606 286.230924 
C 326.364606 290.169924 331.707787 292.383142 337.278375 292.383142 
z
" clip-path="url(#p89fa26ffed)" style="fill: #b0bec5; stroke: #78909c; stroke-width: 1.5; stroke-linejoin: miter"/>
   </g>
   <g id="patch_28">
    <path d="M 397.292625 292.383142 
C 402.863213 292.383142 408.206394 290.169924 412.145394 286.230924 
C 416.084395 282.291923 418.297613 276.948743 418.297613 271.378155 
C 418.297613 265.807567 416.084395 260.464386 412.145394 256.525386 
C 408.206394 252.586385 402.863213 250.373167 397.292625 250.373167 
C 391.722037 250.373167 386.378856 252.586385 382.439856 256.525386 
C 378.500855 260.464386 376.287638 265.807567 376.287638 271.378155 
C 376.287638 276.948743 378.500855 282.291923 382.439856 286.230924 
C 386.378856 290.169924 391.722037 292.383142 397.292625 292.383142 
z
" clip-path="url(#p89fa26ffed)" style="fill: #b0bec5; stroke: #78909c; stroke-width: 1.5; stroke-linejoin: miter"/>
   </g>
   <g id="patch_29">
    <path d="M 457.306875 292.383142 
C 462.877463 292.383142 468.220644 290.169924 472.159644 286.230924 
C 476.098645 282.291923 478.311862 276.948743 478.311862 271.378155 
C 478.311862 265.807567 476.098645 260.464386 472.159644 256.525386 
C 468.220644 252.586385 462.877463 250.373167 457.306875 250.373167 
C 451.736287 250.373167 446.393106 252.586385 442.454106 256.525386 
C 438.515105 260.464386 436.301888 265.807567 436.301888 271.378155 
C 436.301888 276.948743 438.515105 282.291923 442.454106 286.230924 
C 446.393106 290.169924 451.736287 292.383142 457.306875 292.383142 
z
" clip-path="url(#p89fa26ffed)" style="fill: #b0bec5; stroke: #78909c; stroke-width: 1.5; stroke-linejoin: miter"/>
   </g>
   <g id="patch_30">
    <path d="M 67.21425 240.409277 
C 72.784838 240.409277 78.128019 238.196059 82.067019 234.257059 
C 86.00602 230.318058 88.219238 224.974877 88.219238 219.40429 
C 88.219238 213.833702 86.00602 208.490521 82.067019 204.551521 
C 78.128019 200.61252 72.784838 198.399302 67.21425 198.399302 
C 61.643662 198.399302 56.300481 200.61252 52.361481 204.551521 
C 48.42248 208.490521 46.209263 213.833702 46.209263 219.40429 
C 46.209263 224.974877 48.42248 230.318058 52.361481 234.257059 
C 56.300481 238.196059 61.643662 240.409277 67.21425 240.409277 
z
" clip-path="url(#p89fa26ffed)" style="fill: #b0bec5; stroke: #78909c; stroke-width: 1.5; stroke-linejoin: miter"/>
   </g>
   <g id="patch_31">
    <path d="M 127.2285 240.409277 
C 132.799088 240.409277 138.142269 238.196059 142.081269 234.257059 
C 146.02027 230.318058 148.233488 224.974877 148.233488 219.40429 
C 148.233488 213.833702 146.02027 208.490521 142.081269 204.551521 
C 138.142269 200.61252 132.799088 198.399302 127.2285 198.399302 
C 121.657912 198.399302 116.314731 200.61252 112.375731 204.551521 
C 108.43673 208.490521 106.223513 213.833702 106.223513 219.40429 
C 106.223513 224.974877 108.43673 230.318058 112.375731 234.257059 
C 116.314731 238.196059 121.657912 240.409277 127.2285 240.409277 
z
" clip-path="url(#p89fa26ffed)" style="fill: #b0bec5; stroke: #78909c; stroke-width: 1.5; stroke-linejoin: miter"/>
   </g>
   <g id="patch_32">
    <path d="M 187.24275 240.409277 
C 192.813338 240.409277 198.156519 238.196059 202.095519 234.257059 
C 206.03452 230.318058 208.247737 224.974877 208.247737 219.40429 
C 208.247737 213.833702 206.03452 208.490521 202.095519 204.551521 
C 198.156519 200.61252 192.813338 198.399302 187.24275 198.399302 
C 181.672162 198.399302 176.328981 200.61252 172.389981 204.551521 
C 168.45098 208.490521 166.237763 213.833702 166.237763 219.40429 
C 166.237763 224.974877 168.45098 230.318058 172.389981 234.257059 
C 176.328981 238.196059 181.672162 240.409277 187.24275 240.409277 
z
" clip-path="url(#p89fa26ffed)" style="fill: #b0bec5; stroke: #78909c; stroke-width: 1.5; stroke-linejoin: miter"/>
   </g>
   <g id="patch_33">
    <path d="M 247.257 240.409277 
C 252.827588 240.409277 258.170769 238.196059 262.109769 234.257059 
C 266.04877 230.318058 268.261988 224.974877 268.261988 219.40429 
C 268.261988 213.833702 266.04877 208.490521 262.109769 204.551521 
C 258.170769 200.61252 252.827588 198.399302 247.257 198.399302 
C 241.686412 198.399302 236.343231 200.61252 232.404231 204.551521 
C 228.46523 208.490521 226.252013 213.833702 226.252013 219.40429 
C 226.252013 224.974877 228.46523 230.318058 232.404231 234.257059 
C 236.343231 238.196059 241.686412 240.409277 247.257 240.409277 
z
" clip-path="url(#p89fa26ffed)" style="fill: #b0bec5; stroke: #78909c; stroke-width: 1.5; stroke-linejoin: miter"/>
   </g>
   <g id="patch_34">
    <path d="M 307.27125 240.409277 
C 312.841838 240.409277 318.185019 238.196059 322.124019 234.257059 
C 326.06302 230.318058 328.276237 224.974877 328.276237 219.40429 
C 328.276237 213.833702 326.06302 208.490521 322.124019 204.551521 
C 318.185019 200.61252 312.841838 198.399302 307.27125 198.399302 
C 301.700662 198.399302 296.357481 200.61252 292.418481 204.551521 
C 288.47948 208.490521 286.266263 213.833702 286.266263 219.40429 
C 286.266263 224.974877 288.47948 230.318058 292.418481 234.257059 
C 296.357481 238.196059 301.700662 240.409277 307.27125 240.409277 
z
" clip-path="url(#p89fa26ffed)" style="fill: #b0bec5; stroke: #78909c; stroke-width: 1.5; stroke-linejoin: miter"/>
   </g>
   <g id="patch_35">
    <path d="M 367.2855 240.409277 
C 372.856088 240.409277 378.199269 238.196059 382.138269 234.257059 
C 386.07727 230.318058 388.290488 224.974877 388.290488 219.40429 
C 388.290488 213.833702 386.07727 208.490521 382.138269 204.551521 
C 378.199269 200.61252 372.856088 198.399302 367.2855 198.399302 
C 361.714912 198.399302 356.371731 200.61252 352.432731 204.551521 
C 348.49373 208.490521 346.280512 213.833702 346.280512 219.40429 
C 346.280512 224.974877 348.49373 230.318058 352.432731 234.257059 
C 356.371731 238.196059 361.714912 240.409277 367.2855 240.409277 
z
" clip-path="url(#p89fa26ffed)" style="fill: #b0bec5; stroke: #78909c; stroke-width: 1.5; stroke-linejoin: miter"/>
   </g>
   <g id="patch_36">
    <path d="M 427.29975 240.409277 
C 432.870338 240.409277 438.213519 238.196059 442.152519 234.257059 
C 446.09152 230.318058 448.304737 224.974877 448.304737 219.40429 
C 448.304737 213.833702 446.09152 208.490521 442.152519 204.551521 
C 438.213519 200.61252 432.870338 198.399302 427.29975 198.399302 
C 421.729162 198.399302 416.385981 200.61252 412.446981 204.551521 
C 408.50798 208.490521 406.294763 213.833702 406.294763 219.40429 
C 406.294763 224.974877 408.50798 230.318058 412.446981 234.257059 
C 416.385981 238.196059 421.729162 240.409277 427.29975 240.409277 
z
" clip-path="url(#p89fa26ffed)" style="fill: #b0bec5; stroke: #78909c; stroke-width: 1.5; stroke-linejoin: miter"/>
   </g>
   <g id="patch_37">
    <path d="M 97.221375 188.435412 
C 102.791963 188.435412 108.135144 186.222194 112.074144 182.283194 
C 116.013145 178.344193 118.226363 173.001012 118.226363 167.430425 
C 118.226363 161.859837 116.013145 156.516656 112.074144 152.577655 
C 108.135144 148.638655 102.791963 146.425437 97.221375 146.425437 
C 91.650787 146.425437 86.307606 148.638655 82.368606 152.577655 
C 78.429605 156.516656 76.216388 161.859837 76.216388 167.430425 
C 76.216388 173.001012 78.429605 178.344193 82.368606 182.283194 
C 86.307606 186.222194 91.650787 188.435412 97.221375 188.435412 
z
" clip-path="url(#p89fa26ffed)" style="fill: #b0bec5; stroke: #78909c; stroke-width: 1.5; stroke-linejoin: miter"/>
   </g>
   <g id="patch_38">
    <path d="M 157.235625 188.435412 
C 162.806213 188.435412 168.149394 186.222194 172.088394 182.283194 
C 176.027395 178.344193 178.240613 173.001012 178.240613 167.430425 
C 178.240613 161.859837 176.027395 156.516656 172.088394 152.577655 
C 168.149394 148.638655 162.806213 146.425437 157.235625 146.425437 
C 151.665037 146.425437 146.321856 148.638655 142.382856 152.577655 
C 138.443855 156.516656 136.230638 161.859837 136.230638 167.430425 
C 136.230638 173.001012 138.443855 178.344193 142.382856 182.283194 
C 146.321856 186.222194 151.665037 188.435412 157.235625 188.435412 
z
" clip-path="url(#p89fa26ffed)" style="fill: #b0bec5; stroke: #78909c; stroke-width: 1.5; stroke-linejoin: miter"/>
   </g>
   <g id="patch_39">
    <path d="M 217.249875 188.435412 
C 222.820463 188.435412 228.163644 186.222194 232.102644 182.283194 
C 236.041645 178.344193 238.254863 173.001012 238.254863 167.430425 
C 238.254863 161.859837 236.041645 156.516656 232.102644 152.577655 
C 228.163644 148.638655 222.820463 146.425437 217.249875 146.425437 
C 211.679287 146.425437 206.336106 148.638655 202.397106 152.577655 
C 198.458105 156.516656 196.244888 161.859837 196.244888 167.430425 
C 196.244888 173.001012 198.458105 178.344193 202.397106 182.283194 
C 206.336106 186.222194 211.679287 188.435412 217.249875 188.435412 
z
" clip-path="url(#p89fa26ffed)" style="fill: #b0bec5; stroke: #78909c; stroke-width: 1.5; stroke-linejoin: miter"/>
   </g>
   <g id="patch_40">
    <path d="M 277.264125 188.435412 
C 282.834713 188.435412 288.177894 186.222194 292.116894 182.283194 
C 296.055895 178.344193 298.269113 173.001012 298.269113 167.430425 
C 298.269113 161.859837 296.055895 156.516656 292.116894 152.577655 
C 288.177894 148.638655 282.834713 146.425437 277.264125 146.425437 
C 271.693537 146.425437 266.350356 148.638655 262.411356 152.577655 
C 258.472355 156.516656 256.259138 161.859837 256.259138 167.430425 
C 256.259138 173.001012 258.472355 178.344193 262.411356 182.283194 
C 266.350356 186.222194 271.693537 188.435412 277.264125 188.435412 
z
" clip-path="url(#p89fa26ffed)" style="fill: #b0bec5; stroke: #78909c; stroke-width: 1.5; stroke-linejoin: miter"/>
   </g>
   <g id="patch_41">
    <path d="M 337.278375 188.435412 
C 342.848963 188.435412 348.192144 186.222194 352.131144 182.283194 
C 356.070145 178.344193 358.283362 173.001012 358.283362 167.430425 
C 358.283362 161.859837 356.070145 156.516656 352.131144 152.577655 
C 348.192144 148.638655 342.848963 146.425437 337.278375 146.425437 
C 331.707787 146.425437 326.364606 148.638655 322.425606 152.577655 
C 318.486605 156.516656 316.273388 161.859837 316.273388 167.430425 
C 316.273388 173.001012 318.486605 178.344193 322.425606 182.283194 
C 326.364606 186.222194 331.707787 188.435412 337.278375 188.435412 
z
" clip-path="url(#p89fa26ffed)" style="fill: #b0bec5; stroke: #78909c; stroke-width: 1.5; stroke-linejoin: miter"/>
   </g>
   <g id="patch_42">
    <path d="M 397.292625 188.435412 
C 402.863213 188.435412 408.206394 186.222194 412.145394 182.283194 
C 416.084395 178.344193 418.297613 173.001012 418.297613 167.430425 
C 418.297613 161.859837 416.084395 156.516656 412.145394 152.577655 
C 408.206394 148.638655 402.863213 146.425437 397.292625 146.425437 
C 391.722037 146.425437 386.378856 148.638655 382.439856 152.577655 
C 378.500855 156.516656 376.287638 161.859837 376.287638 167.430425 
C 376.287638 173.001012 378.500855 178.344193 382.439856 182.283194 
C 386.378856 186.222194 391.722037 188.435412 397.292625 188.435412 
z
" clip-path="url(#p89fa26ffed)" style="fill: #b0bec5; stroke: #78909c; stroke-width: 1.5; stroke-linejoin: miter"/>
   </g>
   <g id="patch_43">
    <path d="M 457.306875 188.435412 
C 462.877463 188.435412 468.220644 186.222194 472.159644 182.283194 
C 476.098645 178.344193 478.311862 173.001012 478.311862 167.430425 
C 478.311862 161.859837 476.098645 156.516656 472.159644 152.577655 
C 468.220644 148.638655 462.877463 146.425437 457.306875 146.425437 
C 451.736287 146.425437 446.393106 148.638655 442.454106 152.577655 
C 438.515105 156.516656 436.301888 161.859837 436.301888 167.430425 
C 436.301888 173.001012 438.515105 178.344193 442.454106 182.283194 
C 446.393106 186.222194 451.736287 188.435412 457.306875 188.435412 
z
" clip-path="url(#p89fa26ffed)" style="fill: #b0bec5; stroke: #78909c; stroke-width: 1.5; stroke-linejoin: miter"/>
   </g>
   <g id="patch_44">
    <path d="M 67.21425 136.461547 
C 72.784838 136.461547 78.128019 134.248329 82.067019 130.309329 
C 86.00602 126.370328 88.219238 121.027147 88.219238 115.456559 
C 88.219238 109.885972 86.00602 104.542791 82.067019 100.60379 
C 78.128019 96.66479 72.784838 94.451572 67.21425 94.451572 
C 61.643662 94.451572 56.300481 96.66479 52.361481 100.60379 
C 48.42248 104.542791 46.209263 109.885972 46.209263 115.456559 
C 46.209263 121.027147 48.42248 126.370328 52.361481 130.309329 
C 56.300481 134.248329 61.643662 136.461547 67.21425 136.461547 
z
" clip-path="url(#p89fa26ffed)" style="fill: #b0bec5; stroke: #78909c; stroke-width: 1.5; stroke-linejoin: miter"/>
   </g>
   <g id="patch_45">
    <path d="M 127.2285 136.461547 
C 132.799088 136.461547 138.142269 134.248329 142.081269 130.309329 
C 146.02027 126.370328 148.233488 121.027147 148.233488 115.456559 
C 148.233488 109.885972 146.02027 104.542791 142.081269 100.60379 
C 138.142269 96.66479 132.799088 94.451572 127.2285 94.451572 
C 121.657912 94.451572 116.314731 96.66479 112.375731 100.60379 
C 108.43673 104.542791 106.223513 109.885972 106.223513 115.456559 
C 106.223513 121.027147 108.43673 126.370328 112.375731 130.309329 
C 116.314731 134.248329 121.657912 136.461547 127.2285 136.461547 
z
" clip-path="url(#p89fa26ffed)" style="fill: #b0bec5; stroke: #78909c; stroke-width: 1.5; stroke-linejoin: miter"/>
   </g>
   <g id="patch_46">
    <path d="M 187.24275 136.461547 
C 192.813338 136.461547 198.156519 134.248329 202.095519 130.309329 
C 206.03452 126.370328 208.247737 121.027147 208.247737 115.456559 
C 208.247737 109.885972 206.03452 104.542791 202.095519 100.60379 
C 198.156519 96.66479 192.813338 94.451572 187.24275 94.451572 
C 181.672162 94.451572 176.328981 96.66479 172.389981 100.60379 
C 168.45098 104.542791 166.237763 109.885972 166.237763 115.456559 
C 166.237763 121.027147 168.45098 126.370328 172.389981 130.309329 
C 176.328981 134.248329 181.672162 136.461547 187.24275 136.461547 
z
" clip-path="url(#p89fa26ffed)" style="fill: #b0bec5; stroke: #78909c; stroke-width: 1.5; stroke-linejoin: miter"/>
   </g>
   <g id="patch_47">
    <path d="M 247.257 136.461547 
C 252.827588 136.461547 258.170769 134.248329 262.109769 130.309329 
C 266.04877 126.370328 268.261988 121.027147 268.261988 115.456559 
C 268.261988 109.885972 266.04877 104.542791 262.109769 100.60379 
C 258.170769 96.66479 252.827588 94.451572 247.257 94.451572 
C 241.686412 94.451572 236.343231 96.66479 232.404231 100.60379 
C 228.46523 104.542791 226.252013 109.885972 226.252013 115.456559 
C 226.252013 121.027147 228.46523 126.370328 232.404231 130.309329 
C 236.343231 134.248329 241.686412 136.461547 247.257 136.461547 
z
" clip-path="url(#p89fa26ffed)" style="fill: #b0bec5; stroke: #78909c; stroke-width: 1.5; stroke-linejoin: miter"/>
   </g>
   <g id="patch_48">
    <path d="M 307.27125 136.461547 
C 312.841838 136.461547 318.185019 134.248329 322.124019 130.309329 
C 326.06302 126.370328 328.276237 121.027147 328.276237 115.456559 
C 328.276237 109.885972 326.06302 104.542791 322.124019 100.60379 
C 318.185019 96.66479 312.841838 94.451572 307.27125 94.451572 
C 301.700662 94.451572 296.357481 96.66479 292.418481 100.60379 
C 288.47948 104.542791 286.266263 109.885972 286.266263 115.456559 
C 286.266263 121.027147 288.47948 126.370328 292.418481 130.309329 
C 296.357481 134.248329 301.700662 136.461547 307.27125 136.461547 
z
" clip-path="url(#p89fa26ffed)" style="fill: #b0bec5; stroke: #78909c; stroke-width: 1.5; stroke-linejoin: miter"/>
   </g>
   <g id="patch_49">
    <path d="M 367.2855 136.461547 
C 372.856088 136.461547 378.199269 134.248329 382.138269 130.309329 
C 386.07727 126.370328 388.290488 121.027147 388.290488 115.456559 
C 388.290488 109.885972 386.07727 104.542791 382.138269 100.60379 
C 378.199269 96.66479 372.856088 94.451572 367.2855 94.451572 
C 361.714912 94.451572 356.371731 96.66479 352.432731 100.60379 
C 348.49373 104.542791 346.280512 109.885972 346.280512 115.456559 
C 346.280512 121.027147 348.49373 126.370328 352.432731 130.309329 
C 356.371731 134.248329 361.714912 136.461547 367.2855 136.461547 
z
" clip-path="url(#p89fa26ffed)" style="fill: #b0bec5; stroke: #78909c; stroke-width: 1.5; stroke-linejoin: miter"/>
   </g>
   <g id="patch_50">
    <path d="M 427.29975 136.461547 
C 432.870338 136.461547 438.213519 134.248329 442.152519 130.309329 
C 446.09152 126.370328 448.304737 121.027147 448.304737 115.456559 
C 448.304737 109.885972 446.09152 104.542791 442.152519 100.60379 
C 438.213519 96.66479 432.870338 94.451572 427.29975 94.451572 
C 421.729162 94.451572 416.385981 96.66479 412.446981 100.60379 
C 408.50798 104.542791 406.294763 109.885972 406.294763 115.456559 
C 406.294763 121.027147 408.50798 126.370328 412.446981 130.309329 
C 416.385981 134.248329 421.729162 136.461547 427.29975 136.461547 
z
" clip-path="url(#p89fa26ffed)" style="fill: #b0bec5; stroke: #78909c; stroke-width: 1.5; stroke-linejoin: miter"/>
   </g>
   <g id="patch_51">
    <path d="M 317.269959 240.594175 
Q 283.046553 267.846329 250.135067 294.053798 
" style="fill: none; stroke: #d32f2f; stroke-width: 1.5; stroke-linecap: round"/>
    <path d="M 254.947535 293.033921 
L 250.135067 294.053798 
L 252.206646 289.591897 
" style="fill: none; stroke: #d32f2f; stroke-width: 1.5; stroke-linecap: round"/>
   </g>
   <g id="text_1">
    <g id="patch_52">
     <path d="M 315.889391 238.945801 
L 358.667359 238.945801 
Q 361.967359 238.945801 361.967359 235.645801 
L 361.967359 213.821457 
Q 361.967359 210.521457 358.667359 210.521457 
L 315.889391 210.521457 
Q 312.589391 210.521457 312.589391 213.821457 
L 312.589391 235.645801 
Q 312.589391 238.945801 315.889391 238.945801 
z
" style="fill: #ffffff; opacity: 0.9; stroke: #ef9a9a; stroke-width: 0.8; stroke-linejoin: miter"/>
    </g>
    <text style="font-weight: 700; font-size: 11px; font-family: 'Arial'; fill: #d32f2f" transform="translate(324.756422 221.550676)">Atop</text>
    <text style="font-weight: 700; font-size: 11px; font-family: 'Arial'; fill: #d32f2f" transform="translate(315.889391 233.330645)">(1 atom)</text>
   </g>
   <g id="patch_53">
    <path d="M 386.700003 229.649145 
Q 347.871589 250.048197 310.527809 269.667276 
" style="fill: none; stroke: #e8a030; stroke-width: 1.5; stroke-linecap: round"/>
    <path d="M 315.446167 269.568478 
L 310.527809 269.667276 
L 313.399786 265.673311 
" style="fill: none; stroke: #e8a030; stroke-width: 1.5; stroke-linecap: round"/>
   </g>
   <g id="text_2">
    <g id="patch_54">
     <path d="M 390.8494 228.981911 
L 439.7444 228.981911 
Q 443.0444 228.981911 443.0444 225.681911 
L 443.0444 203.568817 
Q 443.0444 200.268817 439.7444 200.268817 
L 390.8494 200.268817 
Q 387.5494 200.268817 387.5494 203.568817 
L 387.5494 225.681911 
Q 387.5494 228.981911 390.8494 228.981911 
z
" style="fill: #ffffff; opacity: 0.9; stroke: #e8a030; stroke-width: 0.8; stroke-linejoin: miter"/>
    </g>
    <text style="font-weight: 700; font-size: 11px; font-family: 'Arial'; fill: #e8a030" transform="translate(397.879087 211.442411)">Bridge</text>
    <text style="font-weight: 700; font-size: 11px; font-family: 'Arial'; fill: #e8a030" transform="translate(390.8494 223.366755)">(2 atoms)</text>
   </g>
   <g id="patch_55">
    <path d="M 197.073785 396.583343 
Q 241.249444 377.686154 283.883204 359.448549 
" style="fill: none; stroke: #388e3c; stroke-width: 1.5; stroke-linecap: round"/>
    <path d="M 278.972539 359.156364 
L 283.883204 359.448549 
L 280.703058 363.20177 
" style="fill: none; stroke: #388e3c; stroke-width: 1.5; stroke-linecap: round"/>
   </g>
   <g id="text_3">
    <g id="patch_56">
     <path d="M 142.7905 423.630669 
L 191.6855 423.630669 
Q 194.9855 423.630669 194.9855 420.330669 
L 194.9855 398.506326 
Q 194.9855 395.206326 191.6855 395.206326 
L 142.7905 395.206326 
Q 139.4905 395.206326 139.4905 398.506326 
L 139.4905 420.330669 
Q 139.4905 423.630669 142.7905 423.630669 
z
" style="fill: #e0f2e9; opacity: 0.9; stroke: #4caf50; stroke-width: 0.8; stroke-linejoin: miter"/>
    </g>
    <text style="font-weight: 700; font-size: 11px; font-family: 'Arial'; fill: #388e3c" transform="translate(149.213469 406.235544)">Hollow</text>
    <text style="font-weight: 700; font-size: 11px; font-family: 'Arial'; fill: #388e3c" transform="translate(142.7905 418.015513)">(3 atoms)</text>
   </g>
   <g id="text_4">
    <text style="font-weight: 700; font-size: 13px; font-family: 'Arial'; text-anchor: middle; fill: #263238" x="247.257" y="40.570875" transform="rotate(-0 247.257 40.570875)">Binding Sites on FCC(111) Surface</text>
   </g>
   <g id="text_5">
    <text style="font-style: italic; font-size: 9.5px; font-family: 'Arial'; fill: #607d8b" transform="translate(150.013367 470.224003)">Top-down view of close-packed metal surface.</text>
    <text style="font-style: italic; font-size: 9.5px; font-family: 'Arial'; fill: #607d8b" transform="translate(117.630242 481.102542)">Adsorbate can bond at atop (1), bridge (2), or hollow (3) sites.</text>
   </g>
   <g id="line2d_1">
    <defs>
     <path id="mc8def17c07" d="M -6 6 
L 6 6 
L 6 -6 
L -6 -6 
z
" style="stroke: #ffffff; stroke-width: 1.5; stroke-linejoin: miter"/>
    </defs>
    <g clip-path="url(#p89fa26ffed)">
     <use xlink:href="#mc8def17c07" x="247.257" y="322.151735" style="fill: #d32f2f; stroke: #ffffff; stroke-width: 1.5; stroke-linejoin: miter"/>
    </g>
   </g>
   <g id="line2d_2">
    <defs>
     <path id="m9a16687f37" d="M -0 7.071068 
L 7.071068 0 
L 0 -7.071068 
L -7.071068 -0 
z
" style="stroke: #ffffff; stroke-width: 1.5; stroke-linejoin: miter"/>
    </defs>
    <g clip-path="url(#p89fa26ffed)">
     <use xlink:href="#m9a16687f37" x="307.27125" y="271.378155" style="fill: #e8a030; stroke: #ffffff; stroke-width: 1.5; stroke-linejoin: miter"/>
    </g>
   </g>
   <g id="line2d_3">
    <defs>
     <path id="m8627d5d968" d="M 0 -6 
L -6 6 
L 6 6 
z
" style="stroke: #ffffff; stroke-width: 1.5; stroke-linejoin: miter"/>
    </defs>
    <g clip-path="url(#p89fa26ffed)">
     <use xlink:href="#m8627d5d968" x="287.2665" y="358.001263" style="fill: #388e3c; stroke: #ffffff; stroke-width: 1.5; stroke-linejoin: miter"/>
    </g>
   </g>
  </g>
 </g>
 <defs>
  <clipPath id="p89fa26ffed">
   <rect x="7.2" y="7.2" width="480.114" height="480.114"/>
  </clipPath>
 </defs>
</svg>
