<svg xmlns="http://www.w3.org/2000/svg" width="900" height="330" viewBox="0 0 900 330">
<defs>
  <marker id="arrow" viewBox="0 0 10 10" refX="8.5" refY="5" markerWidth="7" markerHeight="7" orient="auto-start-reverse">
    <path d="M 0 0 L 10 5 L 0 10 z" fill="#455a64"/>
  </marker>
  <marker id="greenArrow" viewBox="0 0 10 10" refX="8.5" refY="5" markerWidth="7" markerHeight="7" orient="auto-start-reverse">
    <path d="M 0 0 L 10 5 L 0 10 z" fill="#388e3c"/>
  </marker>
  <style>
    text { font-family: Arial, Helvetica, DejaVu Sans, sans-serif; }
  </style>
</defs>
<rect width="100%" height="100%" fill="white"/>

<text x="450.0" y="48.0" text-anchor="middle" font-size="23" font-weight="700" fill="#263238"><tspan x="450.0" dy="0.0">Hydrogen energy storage cycle</tspan></text>
<rect x="54" y="128" width="138" height="72" rx="10" fill="#e0f2e9" stroke="#4caf50" stroke-width="2.2"/>
<text x="123.0" y="154.5" text-anchor="middle" font-size="17" font-weight="700" fill="#263238"><tspan x="123.0" dy="0.0">Renewable</tspan><tspan x="123.0" dy="20.1">electricity</tspan></text>
<rect x="258" y="128" width="138" height="72" rx="10" fill="#fff3e0" stroke="#e8a030" stroke-width="2.2"/>
<text x="327.0" y="164.0" text-anchor="middle" font-size="17" font-weight="700" fill="#263238"><tspan x="327.0" dy="0.0">Electrolyzer</tspan></text>
<rect x="462" y="128" width="138" height="72" rx="10" fill="#dce8f4" stroke="#5b7fa5" stroke-width="2.2"/>
<text x="531.0" y="154.5" text-anchor="middle" font-size="17" font-weight="700" fill="#263238"><tspan x="531.0" dy="0.0">H2 / CH4</tspan><tspan x="531.0" dy="20.1">storage</tspan></text>
<rect x="666" y="128" width="138" height="72" rx="10" fill="#fff3e0" stroke="#e8a030" stroke-width="2.2"/>
<text x="735.0" y="164.0" text-anchor="middle" font-size="17" font-weight="700" fill="#263238"><tspan x="735.0" dy="0.0">Fuel cell</tspan></text>
<line x1="210" y1="164" x2="240" y2="164" stroke="#455a64" stroke-width="2.4" stroke-linecap="round" marker-end="url(#arrow)"/>
<line x1="414" y1="164" x2="444" y2="164" stroke="#455a64" stroke-width="2.4" stroke-linecap="round" marker-end="url(#arrow)"/>
<line x1="618" y1="164" x2="648" y2="164" stroke="#455a64" stroke-width="2.4" stroke-linecap="round" marker-end="url(#arrow)"/>
<rect x="159" y="86" width="132" height="28" rx="7" fill="white" opacity="0.92"/>
<text x="225.0" y="104.0" text-anchor="middle" font-size="14" font-weight="700" fill="#e8a030"><tspan x="225.0" dy="0.0">H2O + power</tspan></text>
<rect x="363" y="86" width="132" height="28" rx="7" fill="white" opacity="0.92"/>
<text x="429.0" y="104.0" text-anchor="middle" font-size="14" font-weight="700" fill="#5b7fa5"><tspan x="429.0" dy="0.0">chemical energy</tspan></text>
<rect x="567" y="86" width="132" height="28" rx="7" fill="white" opacity="0.92"/>
<text x="633.0" y="104.0" text-anchor="middle" font-size="14" font-weight="700" fill="#e8a030"><tspan x="633.0" dy="0.0">electricity + heat</tspan></text>
<line x1="822" y1="164" x2="836" y2="164" stroke="#388e3c" stroke-width="2.6" stroke-linecap="round" marker-end="url(#greenArrow)"/>
<text x="848.0" y="169.0" text-anchor="start" font-size="17" font-weight="700" fill="#388e3c"><tspan x="848.0" dy="0.0">Grid</tspan></text>
<path d="M 735 224 L 735 252 L 124 252 L 124 215" fill="none" stroke="#388e3c" stroke-width="2.4" stroke-linecap="round" stroke-linejoin="round" marker-end="url(#greenArrow)"/>
<text x="430.0" y="283.0" text-anchor="middle" font-size="15" font-weight="600" fill="#388e3c"><tspan x="430.0" dy="0.0">water byproduct returns to electrolysis</tspan></text>
</svg>
