<svg xmlns="http://www.w3.org/2000/svg" width="900" height="550" viewBox="0 0 900 550">
<defs>
  <marker id="arrow" viewBox="0 0 10 10" refX="8.5" refY="5" markerWidth="7" markerHeight="7" orient="auto-start-reverse">
    <path d="M 0 0 L 10 5 L 0 10 z" fill="#665a75"/>
  </marker>
  <marker id="greenArrow" viewBox="0 0 10 10" refX="8.5" refY="5" markerWidth="7" markerHeight="7" orient="auto-start-reverse">
    <path d="M 0 0 L 10 5 L 0 10 z" fill="#3c8f63"/>
  </marker>
  <style>
    text { font-family: Arial, Helvetica, DejaVu Sans, sans-serif; }
  </style>
</defs>
<rect width="100%" height="100%" fill="white"/>

<rect x="82" y="124" width="220" height="310" fill="#fce8ee" stroke="#c7506b" stroke-width="2.6"/>
<rect x="340" y="112" width="220" height="334" fill="#fff4dc" stroke="#b7791f" stroke-width="2.6"/>
<rect x="598" y="124" width="220" height="310" fill="#eef0ff" stroke="#5f6ed8" stroke-width="2.6"/>
<text x="192.0" y="96.0" text-anchor="middle" font-size="17" font-weight="700" fill="#c7506b"><tspan x="192.0" dy="0.0">Anode</tspan></text>
<text x="450.0" y="86.0" text-anchor="middle" font-size="17" font-weight="700" fill="#b7791f"><tspan x="450.0" dy="0.0">Membrane</tspan><tspan x="450.0" dy="20.1">(PEM)</tspan></text>
<text x="708.0" y="96.0" text-anchor="middle" font-size="17" font-weight="700" fill="#5f6ed8"><tspan x="708.0" dy="0.0">Cathode</tspan></text>
<path d="M 192 72 C 290 28, 610 28, 708 72" fill="none" stroke="#665a75" stroke-width="3" stroke-linecap="round" marker-end="url(#arrow)"/>
<rect x="314" y="20" width="272" height="30" rx="8" fill="white" opacity="0.92"/>
<text x="450.0" y="41.0" text-anchor="middle" font-size="15" font-weight="700" fill="#665a75"><tspan x="450.0" dy="0.0">electrons through external circuit</tspan></text>
<text x="192.0" y="222.0" text-anchor="middle" font-size="25" font-weight="700" fill="#c7506b"><tspan x="192.0" dy="0.0">H2</tspan></text>
<text x="192.0" y="276.0" text-anchor="middle" font-size="15" font-weight="600" fill="#c7506b"><tspan x="192.0" dy="0.0">splits into</tspan></text>
<rect x="136" y="300" width="112" height="34" rx="7" fill="white" opacity="0.88"/>
<text x="192.0" y="323.0" text-anchor="middle" font-size="17" font-weight="700" fill="#c7506b"><tspan x="192.0" dy="0.0">2H+ + 2e-</tspan></text>
<text x="708.0" y="222.0" text-anchor="middle" font-size="24" font-weight="700" fill="#5f6ed8"><tspan x="708.0" dy="0.0">1/2 O2</tspan></text>
<text x="708.0" y="276.0" text-anchor="middle" font-size="16" font-weight="600" fill="#5f6ed8"><tspan x="708.0" dy="0.0">+ 2H+ + 2e-</tspan></text>
<rect x="656" y="300" width="104" height="34" rx="7" fill="white" opacity="0.88"/>
<text x="708.0" y="323.0" text-anchor="middle" font-size="18" font-weight="700" fill="#5f6ed8"><tspan x="708.0" dy="0.0">-&gt; H2O</tspan></text>
<line x1="302" y1="224" x2="598" y2="224" stroke="#b7791f" stroke-width="2.4" stroke-linecap="round" marker-end="url(#arrow)"/>
<line x1="302" y1="284" x2="598" y2="284" stroke="#b7791f" stroke-width="2.4" stroke-linecap="round" marker-end="url(#arrow)"/>
<line x1="302" y1="344" x2="598" y2="344" stroke="#b7791f" stroke-width="2.4" stroke-linecap="round" marker-end="url(#arrow)"/>
<rect x="424" y="190" width="52" height="30" rx="7" fill="white" opacity="0.9"/>
<text x="450.0" y="211.0" text-anchor="middle" font-size="17" font-weight="700" fill="#b7791f"><tspan x="450.0" dy="0.0">H+</tspan></text>
<rect x="318" y="114" width="18" height="330" fill="#e5f3ea" stroke="#3c8f63" stroke-width="1.5" opacity="0.84"/>
<text x="318.0" y="476.0" text-anchor="middle" font-size="14" font-weight="600" fill="#3c8f63"><tspan x="318.0" dy="0.0">catalyst</tspan></text>
<rect x="582" y="114" width="18" height="330" fill="#e5f3ea" stroke="#3c8f63" stroke-width="1.5" opacity="0.84"/>
<text x="582.0" y="476.0" text-anchor="middle" font-size="14" font-weight="600" fill="#3c8f63"><tspan x="582.0" dy="0.0">catalyst</tspan></text>
<text x="54.0" y="304.0" text-anchor="end" font-size="16" font-weight="700" fill="#c7506b"><tspan x="54.0" dy="0.0">H2 in</tspan></text>
<line x1="60" y1="300" x2="104" y2="300" stroke="#c7506b" stroke-width="2.5" marker-end="url(#arrow)"/>
<text x="874.0" y="232.0" text-anchor="end" font-size="16" font-weight="700" fill="#5f6ed8"><tspan x="874.0" dy="0.0">O2 in</tspan></text>
<line x1="874" y1="252" x2="804" y2="252" stroke="#5f6ed8" stroke-width="2.5" marker-end="url(#arrow)"/>
<text x="874.0" y="374.0" text-anchor="end" font-size="16" font-weight="700" fill="#16877f"><tspan x="874.0" dy="0.0">H2O out</tspan></text>
<line x1="804" y1="350" x2="874" y2="350" stroke="#16877f" stroke-width="2.5" marker-end="url(#arrow)"/>
</svg>
