<svg xmlns="http://www.w3.org/2000/svg" width="900" height="420" viewBox="0 0 900 420">
<defs>
  <marker id="arrow" viewBox="0 0 10 10" refX="8.5" refY="5" markerWidth="7" markerHeight="7" orient="auto-start-reverse">
    <path d="M 0 0 L 10 5 L 0 10 z" fill="#665a75"/>
  </marker>
  <marker id="greenArrow" viewBox="0 0 10 10" refX="8.5" refY="5" markerWidth="7" markerHeight="7" orient="auto-start-reverse">
    <path d="M 0 0 L 10 5 L 0 10 z" fill="#3c8f63"/>
  </marker>
  <style>
    text { font-family: Arial, Helvetica, DejaVu Sans, sans-serif; }
  </style>
</defs>
<rect width="100%" height="100%" fill="white"/>

<text x="450.0" y="48.0" text-anchor="middle" font-size="23" font-weight="700" fill="#231533"><tspan x="450.0" dy="0.0">Typical OER catalyst discovery workflow</tspan></text>
<rect x="48" y="94" width="160" height="70" rx="10" fill="#f2edff" stroke="#7a53ec" stroke-width="2.2"/>
<text x="128.0" y="120.0" text-anchor="middle" font-size="16" font-weight="700" fill="#231533"><tspan x="128.0" dy="0.0">(a) select</tspan><tspan x="128.0" dy="18.9">bulk oxide</tspan></text>
<rect x="264" y="94" width="160" height="70" rx="10" fill="#fff4dc" stroke="#b7791f" stroke-width="2.2"/>
<text x="344.0" y="120.0" text-anchor="middle" font-size="16" font-weight="700" fill="#231533"><tspan x="344.0" dy="0.0">(b) enumerate</tspan><tspan x="344.0" dy="18.9">surface terminations</tspan></text>
<rect x="480" y="94" width="160" height="70" rx="10" fill="#f6f2fa" stroke="#5b3a8c" stroke-width="2.2"/>
<text x="560.0" y="120.0" text-anchor="middle" font-size="16" font-weight="700" fill="#231533"><tspan x="560.0" dy="0.0">(c) place</tspan><tspan x="560.0" dy="18.9">adsorbate</tspan></text>
<rect x="696" y="94" width="160" height="70" rx="10" fill="#e5f3ea" stroke="#3c8f63" stroke-width="2.2"/>
<text x="776.0" y="120.0" text-anchor="middle" font-size="16" font-weight="700" fill="#231533"><tspan x="776.0" dy="0.0">(d) relax</tspan><tspan x="776.0" dy="18.9">structure</tspan></text>
<line x1="226" y1="129" x2="246" y2="129" stroke="#665a75" stroke-width="2.6" stroke-linecap="round" marker-end="url(#arrow)"/>
<line x1="442" y1="129" x2="462" y2="129" stroke="#665a75" stroke-width="2.6" stroke-linecap="round" marker-end="url(#arrow)"/>
<line x1="658" y1="129" x2="678" y2="129" stroke="#665a75" stroke-width="2.6" stroke-linecap="round" marker-end="url(#arrow)"/>
<circle cx="102.0" cy="210" r="9" fill="#c7506b" stroke="white" stroke-width="1.5"/>
<circle cx="128.0" cy="210" r="9" fill="#b9aec7" stroke="white" stroke-width="1.5"/>
<circle cx="154.0" cy="210" r="9" fill="#c7506b" stroke="white" stroke-width="1.5"/>
<circle cx="115.0" cy="236" r="9" fill="#b9aec7" stroke="white" stroke-width="1.5"/>
<circle cx="141.0" cy="236" r="9" fill="#c7506b" stroke="white" stroke-width="1.5"/>
<circle cx="167.0" cy="236" r="9" fill="#b9aec7" stroke="white" stroke-width="1.5"/>
<circle cx="318.0" cy="210" r="9" fill="#c7506b" stroke="white" stroke-width="1.5"/>
<circle cx="344.0" cy="210" r="9" fill="#b9aec7" stroke="white" stroke-width="1.5"/>
<circle cx="370.0" cy="210" r="9" fill="#c7506b" stroke="white" stroke-width="1.5"/>
<circle cx="331.0" cy="236" r="9" fill="#b9aec7" stroke="white" stroke-width="1.5"/>
<circle cx="357.0" cy="236" r="9" fill="#c7506b" stroke="white" stroke-width="1.5"/>
<circle cx="383.0" cy="236" r="9" fill="#b9aec7" stroke="white" stroke-width="1.5"/>
<circle cx="534.0" cy="210" r="9" fill="#c7506b" stroke="white" stroke-width="1.5"/>
<circle cx="560.0" cy="210" r="9" fill="#b9aec7" stroke="white" stroke-width="1.5"/>
<circle cx="586.0" cy="210" r="9" fill="#c7506b" stroke="white" stroke-width="1.5"/>
<circle cx="547.0" cy="236" r="9" fill="#b9aec7" stroke="white" stroke-width="1.5"/>
<circle cx="573.0" cy="236" r="9" fill="#c7506b" stroke="white" stroke-width="1.5"/>
<circle cx="599.0" cy="236" r="9" fill="#b9aec7" stroke="white" stroke-width="1.5"/>
<circle cx="750.0" cy="210" r="9" fill="#c7506b" stroke="white" stroke-width="1.5"/>
<circle cx="776.0" cy="210" r="9" fill="#b9aec7" stroke="white" stroke-width="1.5"/>
<circle cx="802.0" cy="210" r="9" fill="#c7506b" stroke="white" stroke-width="1.5"/>
<circle cx="763.0" cy="236" r="9" fill="#b9aec7" stroke="white" stroke-width="1.5"/>
<circle cx="789.0" cy="236" r="9" fill="#c7506b" stroke="white" stroke-width="1.5"/>
<circle cx="815.0" cy="236" r="9" fill="#b9aec7" stroke="white" stroke-width="1.5"/>
<line x1="294.0" y1="260" x2="394.0" y2="260" stroke="#7a53ec" stroke-width="3" stroke-linecap="round"/>
<line x1="294.0" y1="278" x2="394.0" y2="278" stroke="#b7791f" stroke-width="3" stroke-linecap="round"/>
<line x1="294.0" y1="296" x2="394.0" y2="296" stroke="#3c8f63" stroke-width="3" stroke-linecap="round"/>
<text x="344.0" y="335.0" text-anchor="middle" font-size="14" font-weight="600" fill="#b7791f"><tspan x="344.0" dy="0.0">surface Pourbaix</tspan><tspan x="344.0" dy="16.5">selects stable termination</tspan></text>
<circle cx="560.0" cy="194" r="12" fill="#c7506b" stroke="white" stroke-width="2"/>
<text x="560.0" y="335.0" text-anchor="middle" font-size="14" font-weight="600" fill="#5b3a8c"><tspan x="560.0" dy="0.0">O*, OH*, OOH*</tspan><tspan x="560.0" dy="16.5">intermediates</tspan></text>
<text x="776.0" y="335.0" text-anchor="middle" font-size="14" font-weight="600" fill="#3c8f63"><tspan x="776.0" dy="0.0">adsorption energy</tspan><tspan x="776.0" dy="16.5">feeds catalyst ranking</tspan></text>
<text x="450.0" y="392.0" text-anchor="middle" font-size="15" font-weight="500" fill="#665a75"><tspan x="450.0" dy="0.0">Oxides require both surface selection and adsorbate placement before relaxation.</tspan></text>
</svg>
