<?xml version="1.0" encoding="utf-8" standalone="no"?>
<!DOCTYPE svg PUBLIC "-//W3C//DTD SVG 1.1//EN"
  "http://www.w3.org/Graphics/SVG/1.1/DTD/svg11.dtd">
<svg xmlns:xlink="http://www.w3.org/1999/xlink" width="479.407656pt" height="346.370781pt" viewBox="0 0 479.407656 346.370781" xmlns="http://www.w3.org/2000/svg" version="1.1">
 <metadata>
  <rdf:RDF xmlns:dc="http://purl.org/dc/elements/1.1/" xmlns:cc="http://creativecommons.org/ns#" xmlns:rdf="http://www.w3.org/1999/02/22-rdf-syntax-ns#">
   <cc:Work>
    <dc:type rdf:resource="http://purl.org/dc/dcmitype/StillImage"/>
    <dc:date>2026-06-21T18:21:52.764551</dc:date>
    <dc:format>image/svg+xml</dc:format>
    <dc:creator>
     <cc:Agent>
      <dc:title>Matplotlib v3.10.8, https://matplotlib.org/</dc:title>
     </cc:Agent>
    </dc:creator>
   </cc:Work>
  </rdf:RDF>
 </metadata>
 <defs>
  <style type="text/css">*{stroke-linejoin: round; stroke-linecap: butt}</style>
 </defs>
 <g id="figure_1">
  <g id="patch_1">
   <path d="M 0 346.370781 
L 479.407656 346.370781 
L 479.407656 0 
L 0 0 
z
" style="fill: #ffffff"/>
  </g>
  <g id="axes_1">
   <g id="patch_2">
    <path d="M 40.411406 307.99 
L 472.207656 307.99 
L 472.207656 7.2 
L 40.411406 7.2 
L 40.411406 307.99 
z
" style="fill: none"/>
   </g>
   <g id="FillBetweenPolyCollection_1">
    <defs>
     <path id="m8ef2428713" d="M 40.411406 -173.736281 
L 40.411406 -38.380781 
L 42.706974 -38.380781 
L 45.002541 -38.380781 
L 47.298109 -38.380781 
L 49.593676 -38.380781 
L 51.889244 -38.380781 
L 54.184811 -38.380781 
L 56.480379 -38.380781 
L 58.775946 -38.380781 
L 61.071514 -38.380781 
L 63.367081 -38.380781 
L 65.662649 -38.380781 
L 67.958216 -38.380781 
L 70.253784 -38.380781 
L 72.549351 -38.380781 
L 74.844919 -38.380781 
L 77.140487 -38.380781 
L 79.436054 -38.380781 
L 81.731622 -38.380781 
L 84.027189 -38.380781 
L 86.322757 -38.380781 
L 88.618324 -38.380781 
L 90.913892 -38.380781 
L 93.209459 -38.380781 
L 95.505027 -38.380781 
L 97.800594 -38.380781 
L 100.096162 -38.380781 
L 102.391729 -38.380781 
L 104.687297 -38.380781 
L 106.982864 -38.380781 
L 109.278432 -38.380781 
L 111.573999 -38.380781 
L 113.869567 -38.380781 
L 116.165134 -38.380781 
L 118.460702 -38.380781 
L 120.756269 -38.380781 
L 123.051837 -38.380781 
L 125.347404 -38.380781 
L 127.642972 -38.380781 
L 129.938539 -38.380781 
L 132.234107 -38.380781 
L 134.529674 -38.380781 
L 136.825242 -38.380781 
L 139.120809 -38.380781 
L 141.416377 -38.380781 
L 143.711945 -38.380781 
L 146.007512 -38.380781 
L 148.30308 -38.380781 
L 150.598647 -38.380781 
L 152.894215 -38.380781 
L 155.189782 -38.380781 
L 157.48535 -38.380781 
L 159.780917 -38.380781 
L 162.076485 -38.380781 
L 164.372052 -38.380781 
L 166.66762 -38.380781 
L 168.963187 -38.380781 
L 171.258755 -38.380781 
L 173.554322 -38.380781 
L 175.84989 -38.380781 
L 178.145457 -38.380781 
L 180.441025 -38.380781 
L 182.736592 -38.380781 
L 185.03216 -38.380781 
L 187.327727 -38.380781 
L 189.623295 -38.380781 
L 191.918862 -38.380781 
L 194.21443 -38.380781 
L 196.509997 -38.380781 
L 198.805565 -38.380781 
L 201.101132 -38.380781 
L 203.3967 -38.380781 
L 205.692267 -38.380781 
L 207.987835 -38.380781 
L 210.283403 -38.380781 
L 212.57897 -38.380781 
L 214.874538 -38.380781 
L 217.170105 -38.380781 
L 219.465673 -38.380781 
L 221.76124 -38.380781 
L 224.056808 -38.380781 
L 226.352375 -38.380781 
L 228.647943 -38.380781 
L 230.94351 -38.380781 
L 233.239078 -38.380781 
L 235.534645 -38.380781 
L 237.830213 -38.380781 
L 240.12578 -38.380781 
L 242.421348 -38.380781 
L 244.716915 -38.380781 
L 247.012483 -38.380781 
L 249.30805 -38.380781 
L 251.603618 -38.380781 
L 253.899185 -38.380781 
L 256.194753 -38.380781 
L 258.49032 -38.380781 
L 260.785888 -38.380781 
L 263.081455 -38.380781 
L 265.377023 -38.380781 
L 267.67259 -38.380781 
L 267.67259 -263.973281 
L 267.67259 -263.973281 
L 265.377023 -263.061796 
L 263.081455 -262.150312 
L 260.785888 -261.238827 
L 258.49032 -260.327342 
L 256.194753 -259.415857 
L 253.899185 -258.504372 
L 251.603618 -257.592887 
L 249.30805 -256.681402 
L 247.012483 -255.769918 
L 244.716915 -254.858433 
L 242.421348 -253.946948 
L 240.12578 -253.035463 
L 237.830213 -252.123978 
L 235.534645 -251.212493 
L 233.239078 -250.301009 
L 230.94351 -249.389524 
L 228.647943 -248.478039 
L 226.352375 -247.566554 
L 224.056808 -246.655069 
L 221.76124 -245.743584 
L 219.465673 -244.832099 
L 217.170105 -243.920615 
L 214.874538 -243.00913 
L 212.57897 -242.097645 
L 210.283403 -241.18616 
L 207.987835 -240.274675 
L 205.692267 -239.36319 
L 203.3967 -238.451705 
L 201.101132 -237.540221 
L 198.805565 -236.628736 
L 196.509997 -235.717251 
L 194.21443 -234.805766 
L 191.918862 -233.894281 
L 189.623295 -232.982796 
L 187.327727 -232.071312 
L 185.03216 -231.159827 
L 182.736592 -230.248342 
L 180.441025 -229.336857 
L 178.145457 -228.425372 
L 175.84989 -227.513887 
L 173.554322 -226.602402 
L 171.258755 -225.690918 
L 168.963187 -224.779433 
L 166.66762 -223.867948 
L 164.372052 -222.956463 
L 162.076485 -222.044978 
L 159.780917 -221.133493 
L 157.48535 -220.222009 
L 155.189782 -219.310524 
L 152.894215 -218.399039 
L 150.598647 -217.487554 
L 148.30308 -216.576069 
L 146.007512 -215.664584 
L 143.711945 -214.753099 
L 141.416377 -213.841615 
L 139.120809 -212.93013 
L 136.825242 -212.018645 
L 134.529674 -211.10716 
L 132.234107 -210.195675 
L 129.938539 -209.28419 
L 127.642972 -208.372705 
L 125.347404 -207.461221 
L 123.051837 -206.549736 
L 120.756269 -205.638251 
L 118.460702 -204.726766 
L 116.165134 -203.815281 
L 113.869567 -202.903796 
L 111.573999 -201.992312 
L 109.278432 -201.080827 
L 106.982864 -200.169342 
L 104.687297 -199.257857 
L 102.391729 -198.346372 
L 100.096162 -197.434887 
L 97.800594 -196.523402 
L 95.505027 -195.611918 
L 93.209459 -194.700433 
L 90.913892 -193.788948 
L 88.618324 -192.877463 
L 86.322757 -191.965978 
L 84.027189 -191.054493 
L 81.731622 -190.143009 
L 79.436054 -189.231524 
L 77.140487 -188.320039 
L 74.844919 -187.408554 
L 72.549351 -186.497069 
L 70.253784 -185.585584 
L 67.958216 -184.674099 
L 65.662649 -183.762615 
L 63.367081 -182.85113 
L 61.071514 -181.939645 
L 58.775946 -181.02816 
L 56.480379 -180.116675 
L 54.184811 -179.20519 
L 51.889244 -178.293705 
L 49.593676 -177.382221 
L 47.298109 -176.470736 
L 45.002541 -175.559251 
L 42.706974 -174.647766 
L 40.411406 -173.736281 
z
" style="stroke: #fce8ee; stroke-opacity: 0.15"/>
    </defs>
    <g clip-path="url(#p53fc5dc349)">
     <use xlink:href="#m8ef2428713" x="0" y="346.370781" style="fill: #fce8ee; fill-opacity: 0.15; stroke: #fce8ee; stroke-opacity: 0.15"/>
    </g>
   </g>
   <g id="FillBetweenPolyCollection_2">
    <defs>
     <path id="m8c4905a804" d="M 267.67259 -263.973281 
L 267.67259 -38.380781 
L 269.738601 -38.380781 
L 271.804612 -38.380781 
L 273.870623 -38.380781 
L 275.936634 -38.380781 
L 278.002644 -38.380781 
L 280.068655 -38.380781 
L 282.134666 -38.380781 
L 284.200677 -38.380781 
L 286.266687 -38.380781 
L 288.332698 -38.380781 
L 290.398709 -38.380781 
L 292.46472 -38.380781 
L 294.53073 -38.380781 
L 296.596741 -38.380781 
L 298.662752 -38.380781 
L 300.728763 -38.380781 
L 302.794773 -38.380781 
L 304.860784 -38.380781 
L 306.926795 -38.380781 
L 308.992806 -38.380781 
L 311.058817 -38.380781 
L 313.124827 -38.380781 
L 315.190838 -38.380781 
L 317.256849 -38.380781 
L 319.32286 -38.380781 
L 321.38887 -38.380781 
L 323.454881 -38.380781 
L 325.520892 -38.380781 
L 327.586903 -38.380781 
L 329.652913 -38.380781 
L 331.718924 -38.380781 
L 333.784935 -38.380781 
L 335.850946 -38.380781 
L 337.916956 -38.380781 
L 339.982967 -38.380781 
L 342.048978 -38.380781 
L 344.114989 -38.380781 
L 346.181 -38.380781 
L 348.24701 -38.380781 
L 350.313021 -38.380781 
L 352.379032 -38.380781 
L 354.445043 -38.380781 
L 356.511053 -38.380781 
L 358.577064 -38.380781 
L 360.643075 -38.380781 
L 362.709086 -38.380781 
L 364.775096 -38.380781 
L 366.841107 -38.380781 
L 368.907118 -38.380781 
L 370.973129 -38.380781 
L 373.03914 -38.380781 
L 375.10515 -38.380781 
L 377.171161 -38.380781 
L 379.237172 -38.380781 
L 381.303183 -38.380781 
L 383.369193 -38.380781 
L 385.435204 -38.380781 
L 387.501215 -38.380781 
L 389.567226 -38.380781 
L 391.633236 -38.380781 
L 393.699247 -38.380781 
L 395.765258 -38.380781 
L 397.831269 -38.380781 
L 399.897279 -38.380781 
L 401.96329 -38.380781 
L 404.029301 -38.380781 
L 406.095312 -38.380781 
L 408.161323 -38.380781 
L 410.227333 -38.380781 
L 412.293344 -38.380781 
L 414.359355 -38.380781 
L 416.425366 -38.380781 
L 418.491376 -38.380781 
L 420.557387 -38.380781 
L 422.623398 -38.380781 
L 424.689409 -38.380781 
L 426.755419 -38.380781 
L 428.82143 -38.380781 
L 430.887441 -38.380781 
L 432.953452 -38.380781 
L 435.019462 -38.380781 
L 437.085473 -38.380781 
L 439.151484 -38.380781 
L 441.217495 -38.380781 
L 443.283506 -38.380781 
L 445.349516 -38.380781 
L 447.415527 -38.380781 
L 449.481538 -38.380781 
L 451.547549 -38.380781 
L 453.613559 -38.380781 
L 455.67957 -38.380781 
L 457.745581 -38.380781 
L 459.811592 -38.380781 
L 461.877602 -38.380781 
L 463.943613 -38.380781 
L 466.009624 -38.380781 
L 468.075635 -38.380781 
L 470.141645 -38.380781 
L 472.207656 -38.380781 
L 472.207656 -128.617781 
L 472.207656 -128.617781 
L 470.141645 -129.985009 
L 468.075635 -131.352236 
L 466.009624 -132.719463 
L 463.943613 -134.08669 
L 461.877602 -135.453918 
L 459.811592 -136.821145 
L 457.745581 -138.188372 
L 455.67957 -139.555599 
L 453.613559 -140.922827 
L 451.547549 -142.290054 
L 449.481538 -143.657281 
L 447.415527 -145.024509 
L 445.349516 -146.391736 
L 443.283506 -147.758963 
L 441.217495 -149.12619 
L 439.151484 -150.493418 
L 437.085473 -151.860645 
L 435.019462 -153.227872 
L 432.953452 -154.595099 
L 430.887441 -155.962327 
L 428.82143 -157.329554 
L 426.755419 -158.696781 
L 424.689409 -160.064009 
L 422.623398 -161.431236 
L 420.557387 -162.798463 
L 418.491376 -164.16569 
L 416.425366 -165.532918 
L 414.359355 -166.900145 
L 412.293344 -168.267372 
L 410.227333 -169.634599 
L 408.161323 -171.001827 
L 406.095312 -172.369054 
L 404.029301 -173.736281 
L 401.96329 -175.103509 
L 399.897279 -176.470736 
L 397.831269 -177.837963 
L 395.765258 -179.20519 
L 393.699247 -180.572418 
L 391.633236 -181.939645 
L 389.567226 -183.306872 
L 387.501215 -184.674099 
L 385.435204 -186.041327 
L 383.369193 -187.408554 
L 381.303183 -188.775781 
L 379.237172 -190.143009 
L 377.171161 -191.510236 
L 375.10515 -192.877463 
L 373.03914 -194.24469 
L 370.973129 -195.611918 
L 368.907118 -196.979145 
L 366.841107 -198.346372 
L 364.775096 -199.713599 
L 362.709086 -201.080827 
L 360.643075 -202.448054 
L 358.577064 -203.815281 
L 356.511053 -205.182509 
L 354.445043 -206.549736 
L 352.379032 -207.916963 
L 350.313021 -209.28419 
L 348.24701 -210.651418 
L 346.181 -212.018645 
L 344.114989 -213.385872 
L 342.048978 -214.753099 
L 339.982967 -216.120327 
L 337.916956 -217.487554 
L 335.850946 -218.854781 
L 333.784935 -220.222009 
L 331.718924 -221.589236 
L 329.652913 -222.956463 
L 327.586903 -224.32369 
L 325.520892 -225.690918 
L 323.454881 -227.058145 
L 321.38887 -228.425372 
L 319.32286 -229.792599 
L 317.256849 -231.159827 
L 315.190838 -232.527054 
L 313.124827 -233.894281 
L 311.058817 -235.261509 
L 308.992806 -236.628736 
L 306.926795 -237.995963 
L 304.860784 -239.36319 
L 302.794773 -240.730418 
L 300.728763 -242.097645 
L 298.662752 -243.464872 
L 296.596741 -244.832099 
L 294.53073 -246.199327 
L 292.46472 -247.566554 
L 290.398709 -248.933781 
L 288.332698 -250.301009 
L 286.266687 -251.668236 
L 284.200677 -253.035463 
L 282.134666 -254.40269 
L 280.068655 -255.769918 
L 278.002644 -257.137145 
L 275.936634 -258.504372 
L 273.870623 -259.871599 
L 271.804612 -261.238827 
L 269.738601 -262.606054 
L 267.67259 -263.973281 
z
" style="stroke: #e4f4f2; stroke-opacity: 0.15"/>
    </defs>
    <g clip-path="url(#p53fc5dc349)">
     <use xlink:href="#m8c4905a804" x="0" y="346.370781" style="fill: #e4f4f2; fill-opacity: 0.15; stroke: #e4f4f2; stroke-opacity: 0.15"/>
    </g>
   </g>
   <g id="matplotlib.axis_1">
    <g id="xtick_1">
     <g id="line2d_1">
      <defs>
       <path id="m66c1f80a8c" d="M 0 0 
L 0 3 
" style="stroke: #665a75; stroke-width: 0.8"/>
      </defs>
      <g>
       <use xlink:href="#m66c1f80a8c" x="40.411406" y="307.99" style="fill: #665a75; stroke: #665a75; stroke-width: 0.8"/>
      </g>
     </g>
     <g id="text_1">
      <text style="font-size: 9px; font-family: 'Arial'; text-anchor: middle; fill: #665a75" x="40.411406" y="320.932031" transform="rotate(-0 40.411406 320.932031)">−2.0</text>
     </g>
    </g>
    <g id="xtick_2">
     <g id="line2d_2">
      <g>
       <use xlink:href="#m66c1f80a8c" x="97.226702" y="307.99" style="fill: #665a75; stroke: #665a75; stroke-width: 0.8"/>
      </g>
     </g>
     <g id="text_2">
      <text style="font-size: 9px; font-family: 'Arial'; text-anchor: middle; fill: #665a75" x="97.226702" y="320.932031" transform="rotate(-0 97.226702 320.932031)">−1.5</text>
     </g>
    </g>
    <g id="xtick_3">
     <g id="line2d_3">
      <g>
       <use xlink:href="#m66c1f80a8c" x="154.041998" y="307.99" style="fill: #665a75; stroke: #665a75; stroke-width: 0.8"/>
      </g>
     </g>
     <g id="text_3">
      <text style="font-size: 9px; font-family: 'Arial'; text-anchor: middle; fill: #665a75" x="154.041998" y="320.932031" transform="rotate(-0 154.041998 320.932031)">−1.0</text>
     </g>
    </g>
    <g id="xtick_4">
     <g id="line2d_4">
      <g>
       <use xlink:href="#m66c1f80a8c" x="210.857294" y="307.99" style="fill: #665a75; stroke: #665a75; stroke-width: 0.8"/>
      </g>
     </g>
     <g id="text_4">
      <text style="font-size: 9px; font-family: 'Arial'; text-anchor: middle; fill: #665a75" x="210.857294" y="320.932031" transform="rotate(-0 210.857294 320.932031)">−0.5</text>
     </g>
    </g>
    <g id="xtick_5">
     <g id="line2d_5">
      <g>
       <use xlink:href="#m66c1f80a8c" x="267.67259" y="307.99" style="fill: #665a75; stroke: #665a75; stroke-width: 0.8"/>
      </g>
     </g>
     <g id="text_5">
      <text style="font-size: 9px; font-family: 'Arial'; text-anchor: middle; fill: #665a75" x="267.67259" y="320.932031" transform="rotate(-0 267.67259 320.932031)">0.0</text>
     </g>
    </g>
    <g id="xtick_6">
     <g id="line2d_6">
      <g>
       <use xlink:href="#m66c1f80a8c" x="324.487887" y="307.99" style="fill: #665a75; stroke: #665a75; stroke-width: 0.8"/>
      </g>
     </g>
     <g id="text_6">
      <text style="font-size: 9px; font-family: 'Arial'; text-anchor: middle; fill: #665a75" x="324.487887" y="320.932031" transform="rotate(-0 324.487887 320.932031)">0.5</text>
     </g>
    </g>
    <g id="xtick_7">
     <g id="line2d_7">
      <g>
       <use xlink:href="#m66c1f80a8c" x="381.303183" y="307.99" style="fill: #665a75; stroke: #665a75; stroke-width: 0.8"/>
      </g>
     </g>
     <g id="text_7">
      <text style="font-size: 9px; font-family: 'Arial'; text-anchor: middle; fill: #665a75" x="381.303183" y="320.932031" transform="rotate(-0 381.303183 320.932031)">1.0</text>
     </g>
    </g>
    <g id="xtick_8">
     <g id="line2d_8">
      <g>
       <use xlink:href="#m66c1f80a8c" x="438.118479" y="307.99" style="fill: #665a75; stroke: #665a75; stroke-width: 0.8"/>
      </g>
     </g>
     <g id="text_8">
      <text style="font-size: 9px; font-family: 'Arial'; text-anchor: middle; fill: #665a75" x="438.118479" y="320.932031" transform="rotate(-0 438.118479 320.932031)">1.5</text>
     </g>
    </g>
    <g id="text_9">
     <!-- $\Delta E_{\mathrm{O}}$ relative to Pt (eV) -->
     <g style="fill: #231533" transform="translate(201.859531 336.750781)">
      <text>
       <tspan x="0" y="-0.984375" style="font-size: 11px; font-family: 'DejaVu Sans'; fill: #231533">Δ</tspan>
       <tspan x="7.524902" y="-0.984375" style="font-style: oblique; font-size: 11px; font-family: 'DejaVu Sans'; fill: #231533">E</tspan>
       <tspan x="14.475098" y="0.820312" style="font-size: 7.7px; font-family: 'DejaVu Sans'; fill: #231533">O</tspan>
       <tspan x="20.836621" y="-0.984375" style="font-size: 11px; font-family: 'Arial'; fill: #231533"> </tspan>
       <tspan x="23.892773" y="-0.984375" style="font-size: 11px; font-family: 'Arial'; fill: #231533">r</tspan>
       <tspan x="27.555859" y="-0.984375" style="font-size: 11px; font-family: 'Arial'; fill: #231533">e</tspan>
       <tspan x="33.673535" y="-0.984375" style="font-size: 11px; font-family: 'Arial'; fill: #231533">l</tspan>
       <tspan x="36.117383" y="-0.984375" style="font-size: 11px; font-family: 'Arial'; fill: #231533">a</tspan>
       <tspan x="42.235059" y="-0.984375" style="font-size: 11px; font-family: 'Arial'; fill: #231533">t</tspan>
       <tspan x="45.291211" y="-0.984375" style="font-size: 11px; font-family: 'Arial'; fill: #231533">i</tspan>
       <tspan x="47.735059" y="-0.984375" style="font-size: 11px; font-family: 'Arial'; fill: #231533">v</tspan>
       <tspan x="53.235059" y="-0.984375" style="font-size: 11px; font-family: 'Arial'; fill: #231533">e</tspan>
       <tspan x="59.352734" y="-0.984375" style="font-size: 11px; font-family: 'Arial'; fill: #231533"> </tspan>
       <tspan x="62.408887" y="-0.984375" style="font-size: 11px; font-family: 'Arial'; fill: #231533">t</tspan>
       <tspan x="65.465039" y="-0.984375" style="font-size: 11px; font-family: 'Arial'; fill: #231533">o</tspan>
       <tspan x="71.582715" y="-0.984375" style="font-size: 11px; font-family: 'Arial'; fill: #231533"> </tspan>
       <tspan x="74.638867" y="-0.984375" style="font-size: 11px; font-family: 'Arial'; fill: #231533">P</tspan>
       <tspan x="81.975781" y="-0.984375" style="font-size: 11px; font-family: 'Arial'; fill: #231533">t</tspan>
       <tspan x="85.031934" y="-0.984375" style="font-size: 11px; font-family: 'Arial'; fill: #231533"> </tspan>
       <tspan x="88.088086" y="-0.984375" style="font-size: 11px; font-family: 'Arial'; fill: #231533">(</tspan>
       <tspan x="91.751172" y="-0.984375" style="font-size: 11px; font-family: 'Arial'; fill: #231533">e</tspan>
       <tspan x="97.868848" y="-0.984375" style="font-size: 11px; font-family: 'Arial'; fill: #231533">V</tspan>
       <tspan x="105.205762" y="-0.984375" style="font-size: 11px; font-family: 'Arial'; fill: #231533">)</tspan>
      </text>
     </g>
    </g>
   </g>
   <g id="matplotlib.axis_2">
    <g id="ytick_1">
     <g id="line2d_9">
      <defs>
       <path id="m2635a47585" d="M 0 0 
L -3 0 
" style="stroke: #665a75; stroke-width: 0.8"/>
      </defs>
      <g>
       <use xlink:href="#m2635a47585" x="40.411406" y="282.924167" style="fill: #665a75; stroke: #665a75; stroke-width: 0.8"/>
      </g>
     </g>
     <g id="text_10">
      <text style="font-size: 9px; font-family: 'Arial'; text-anchor: end; fill: #665a75" x="33.911406" y="286.145182" transform="rotate(-0 33.911406 286.145182)">−4</text>
     </g>
    </g>
    <g id="ytick_2">
     <g id="line2d_10">
      <g>
       <use xlink:href="#m2635a47585" x="40.411406" y="232.7925" style="fill: #665a75; stroke: #665a75; stroke-width: 0.8"/>
      </g>
     </g>
     <g id="text_11">
      <text style="font-size: 9px; font-family: 'Arial'; text-anchor: end; fill: #665a75" x="33.911406" y="236.013516" transform="rotate(-0 33.911406 236.013516)">−3</text>
     </g>
    </g>
    <g id="ytick_3">
     <g id="line2d_11">
      <g>
       <use xlink:href="#m2635a47585" x="40.411406" y="182.660833" style="fill: #665a75; stroke: #665a75; stroke-width: 0.8"/>
      </g>
     </g>
     <g id="text_12">
      <text style="font-size: 9px; font-family: 'Arial'; text-anchor: end; fill: #665a75" x="33.911406" y="185.881849" transform="rotate(-0 33.911406 185.881849)">−2</text>
     </g>
    </g>
    <g id="ytick_4">
     <g id="line2d_12">
      <g>
       <use xlink:href="#m2635a47585" x="40.411406" y="132.529167" style="fill: #665a75; stroke: #665a75; stroke-width: 0.8"/>
      </g>
     </g>
     <g id="text_13">
      <text style="font-size: 9px; font-family: 'Arial'; text-anchor: end; fill: #665a75" x="33.911406" y="135.750182" transform="rotate(-0 33.911406 135.750182)">−1</text>
     </g>
    </g>
    <g id="ytick_5">
     <g id="line2d_13">
      <g>
       <use xlink:href="#m2635a47585" x="40.411406" y="82.3975" style="fill: #665a75; stroke: #665a75; stroke-width: 0.8"/>
      </g>
     </g>
     <g id="text_14">
      <text style="font-size: 9px; font-family: 'Arial'; text-anchor: end; fill: #665a75" x="33.911406" y="85.618516" transform="rotate(-0 33.911406 85.618516)">0</text>
     </g>
    </g>
    <g id="ytick_6">
     <g id="line2d_14">
      <g>
       <use xlink:href="#m2635a47585" x="40.411406" y="32.265833" style="fill: #665a75; stroke: #665a75; stroke-width: 0.8"/>
      </g>
     </g>
     <g id="text_15">
      <text style="font-size: 9px; font-family: 'Arial'; text-anchor: end; fill: #665a75" x="33.911406" y="35.486849" transform="rotate(-0 33.911406 35.486849)">1</text>
     </g>
    </g>
    <g id="text_16">
     <!-- log$_{10}$(activity) -->
     <g style="fill: #231533" transform="translate(15.23 190.54) rotate(-90)">
      <text>
       <tspan x="0" y="-0.984375" style="font-size: 11px; font-family: 'Arial'; fill: #231533">l</tspan>
       <tspan x="2.443848" y="-0.984375" style="font-size: 11px; font-family: 'Arial'; fill: #231533">o</tspan>
       <tspan x="8.561523" y="-0.984375" style="font-size: 11px; font-family: 'Arial'; fill: #231533">g</tspan>
       <tspan x="24.883203" y="-0.984375" style="font-size: 11px; font-family: 'Arial'; fill: #231533">(</tspan>
       <tspan x="28.546289" y="-0.984375" style="font-size: 11px; font-family: 'Arial'; fill: #231533">a</tspan>
       <tspan x="34.663965" y="-0.984375" style="font-size: 11px; font-family: 'Arial'; fill: #231533">c</tspan>
       <tspan x="40.163965" y="-0.984375" style="font-size: 11px; font-family: 'Arial'; fill: #231533">t</tspan>
       <tspan x="43.220117" y="-0.984375" style="font-size: 11px; font-family: 'Arial'; fill: #231533">i</tspan>
       <tspan x="45.663965" y="-0.984375" style="font-size: 11px; font-family: 'Arial'; fill: #231533">v</tspan>
       <tspan x="51.163965" y="-0.984375" style="font-size: 11px; font-family: 'Arial'; fill: #231533">i</tspan>
       <tspan x="53.607813" y="-0.984375" style="font-size: 11px; font-family: 'Arial'; fill: #231533">t</tspan>
       <tspan x="56.663965" y="-0.984375" style="font-size: 11px; font-family: 'Arial'; fill: #231533">y</tspan>
       <tspan x="62.163965" y="-0.984375" style="font-size: 11px; font-family: 'Arial'; fill: #231533">)</tspan>
       <tspan x="14.784473" y="0.820312" style="font-size: 7.7px; font-family: 'DejaVu Sans'; fill: #231533">1</tspan>
       <tspan x="19.683447" y="0.820312" style="font-size: 7.7px; font-family: 'DejaVu Sans'; fill: #231533">0</tspan>
      </text>
     </g>
    </g>
   </g>
   <g id="line2d_15">
    <path d="M 40.411406 172.6345 
L 42.706974 171.723015 
L 45.002541 170.81153 
L 47.298109 169.900045 
L 49.593676 168.988561 
L 51.889244 168.077076 
L 54.184811 167.165591 
L 56.480379 166.254106 
L 58.775946 165.342621 
L 61.071514 164.431136 
L 63.367081 163.519652 
L 65.662649 162.608167 
L 67.958216 161.696682 
L 70.253784 160.785197 
L 72.549351 159.873712 
L 74.844919 158.962227 
L 77.140487 158.050742 
L 79.436054 157.139258 
L 81.731622 156.227773 
L 84.027189 155.316288 
L 86.322757 154.404803 
L 88.618324 153.493318 
L 90.913892 152.581833 
L 93.209459 151.670348 
L 95.505027 150.758864 
L 97.800594 149.847379 
L 100.096162 148.935894 
L 102.391729 148.024409 
L 104.687297 147.112924 
L 106.982864 146.201439 
L 109.278432 145.289955 
L 111.573999 144.37847 
L 113.869567 143.466985 
L 116.165134 142.5555 
L 118.460702 141.644015 
L 120.756269 140.73253 
L 123.051837 139.821045 
L 125.347404 138.909561 
L 127.642972 137.998076 
L 129.938539 137.086591 
L 132.234107 136.175106 
L 134.529674 135.263621 
L 136.825242 134.352136 
L 139.120809 133.440652 
L 141.416377 132.529167 
L 143.711945 131.617682 
L 146.007512 130.706197 
L 148.30308 129.794712 
L 150.598647 128.883227 
L 152.894215 127.971742 
L 155.189782 127.060258 
L 157.48535 126.148773 
L 159.780917 125.237288 
L 162.076485 124.325803 
L 164.372052 123.414318 
L 166.66762 122.502833 
L 168.963187 121.591348 
L 171.258755 120.679864 
L 173.554322 119.768379 
L 175.84989 118.856894 
L 178.145457 117.945409 
L 180.441025 117.033924 
L 182.736592 116.122439 
L 185.03216 115.210955 
L 187.327727 114.29947 
L 189.623295 113.387985 
L 191.918862 112.4765 
L 194.21443 111.565015 
L 196.509997 110.65353 
L 198.805565 109.742045 
L 201.101132 108.830561 
L 203.3967 107.919076 
L 205.692267 107.007591 
L 207.987835 106.096106 
L 210.283403 105.184621 
L 212.57897 104.273136 
L 214.874538 103.361652 
L 217.170105 102.450167 
L 219.465673 101.538682 
L 221.76124 100.627197 
L 224.056808 99.715712 
L 226.352375 98.804227 
L 228.647943 97.892742 
L 230.94351 96.981258 
L 233.239078 96.069773 
L 235.534645 95.158288 
L 237.830213 94.246803 
L 240.12578 93.335318 
L 242.421348 92.423833 
L 244.716915 91.512348 
L 247.012483 90.600864 
L 249.30805 89.689379 
L 251.603618 88.777894 
L 253.899185 87.866409 
L 256.194753 86.954924 
L 258.49032 86.043439 
L 260.785888 85.131955 
L 263.081455 84.22047 
L 265.377023 83.308985 
L 267.67259 82.3975 
" clip-path="url(#p53fc5dc349)" style="fill: none; stroke-dasharray: 7.4,3.2; stroke-dashoffset: 0; stroke: #c7506b; stroke-opacity: 0.6; stroke-width: 2"/>
   </g>
   <g id="line2d_16">
    <path d="M 267.67259 82.3975 
L 269.738601 83.764727 
L 271.804612 85.131955 
L 273.870623 86.499182 
L 275.936634 87.866409 
L 278.002644 89.233636 
L 280.068655 90.600864 
L 282.134666 91.968091 
L 284.200677 93.335318 
L 286.266687 94.702545 
L 288.332698 96.069773 
L 290.398709 97.437 
L 292.46472 98.804227 
L 294.53073 100.171455 
L 296.596741 101.538682 
L 298.662752 102.905909 
L 300.728763 104.273136 
L 302.794773 105.640364 
L 304.860784 107.007591 
L 306.926795 108.374818 
L 308.992806 109.742045 
L 311.058817 111.109273 
L 313.124827 112.4765 
L 315.190838 113.843727 
L 317.256849 115.210955 
L 319.32286 116.578182 
L 321.38887 117.945409 
L 323.454881 119.312636 
L 325.520892 120.679864 
L 327.586903 122.047091 
L 329.652913 123.414318 
L 331.718924 124.781545 
L 333.784935 126.148773 
L 335.850946 127.516 
L 337.916956 128.883227 
L 339.982967 130.250455 
L 342.048978 131.617682 
L 344.114989 132.984909 
L 346.181 134.352136 
L 348.24701 135.719364 
L 350.313021 137.086591 
L 352.379032 138.453818 
L 354.445043 139.821045 
L 356.511053 141.188273 
L 358.577064 142.5555 
L 360.643075 143.922727 
L 362.709086 145.289955 
L 364.775096 146.657182 
L 366.841107 148.024409 
L 368.907118 149.391636 
L 370.973129 150.758864 
L 373.03914 152.126091 
L 375.10515 153.493318 
L 377.171161 154.860545 
L 379.237172 156.227773 
L 381.303183 157.595 
L 383.369193 158.962227 
L 385.435204 160.329455 
L 387.501215 161.696682 
L 389.567226 163.063909 
L 391.633236 164.431136 
L 393.699247 165.798364 
L 395.765258 167.165591 
L 397.831269 168.532818 
L 399.897279 169.900045 
L 401.96329 171.267273 
L 404.029301 172.6345 
L 406.095312 174.001727 
L 408.161323 175.368955 
L 410.227333 176.736182 
L 412.293344 178.103409 
L 414.359355 179.470636 
L 416.425366 180.837864 
L 418.491376 182.205091 
L 420.557387 183.572318 
L 422.623398 184.939545 
L 424.689409 186.306773 
L 426.755419 187.674 
L 428.82143 189.041227 
L 430.887441 190.408455 
L 432.953452 191.775682 
L 435.019462 193.142909 
L 437.085473 194.510136 
L 439.151484 195.877364 
L 441.217495 197.244591 
L 443.283506 198.611818 
L 445.349516 199.979045 
L 447.415527 201.346273 
L 449.481538 202.7135 
L 451.547549 204.080727 
L 453.613559 205.447955 
L 455.67957 206.815182 
L 457.745581 208.182409 
L 459.811592 209.549636 
L 461.877602 210.916864 
L 463.943613 212.284091 
L 466.009624 213.651318 
L 468.075635 215.018545 
L 470.141645 216.385773 
L 472.207656 217.753 
" clip-path="url(#p53fc5dc349)" style="fill: none; stroke-dasharray: 7.4,3.2; stroke-dashoffset: 0; stroke: #16877f; stroke-opacity: 0.6; stroke-width: 2"/>
   </g>
   <g id="patch_3">
    <path d="M 40.411406 307.99 
L 40.411406 7.2 
" style="fill: none; stroke: #c8bbd8; stroke-width: 0.8; stroke-linejoin: miter; stroke-linecap: square"/>
   </g>
   <g id="patch_4">
    <path d="M 40.411406 307.99 
L 472.207656 307.99 
" style="fill: none; stroke: #c8bbd8; stroke-width: 0.8; stroke-linejoin: miter; stroke-linecap: square"/>
   </g>
   <g id="text_17">
    <g id="patch_5">
     <path d="M 76.625966 287.848339 
L 129.190498 287.848339 
L 129.190498 263.10487 
L 76.625966 263.10487 
z
" style="fill: #ffffff; opacity: 0.75"/>
    </g>
    <text style="font-weight: 700; font-size: 11px; font-family: 'Arial'; fill: #c7506b; opacity: 0.7" transform="translate(78.165966 272.374089)">binds too</text>
    <text style="font-weight: 700; font-size: 11px; font-family: 'Arial'; fill: #c7506b; opacity: 0.7" transform="translate(81.21331 283.993182)">strongly</text>
   </g>
   <g id="text_18">
    <g id="patch_6">
     <path d="M 381.155953 287.848339 
L 433.720484 287.848339 
L 433.720484 263.10487 
L 381.155953 263.10487 
z
" style="fill: #ffffff; opacity: 0.75"/>
    </g>
    <text style="font-weight: 700; font-size: 11px; font-family: 'Arial'; fill: #16877f; opacity: 0.7" transform="translate(382.695953 272.374089)">binds too</text>
    <text style="font-weight: 700; font-size: 11px; font-family: 'Arial'; fill: #16877f; opacity: 0.7" transform="translate(389.398219 283.993182)">weakly</text>
   </g>
   <g id="patch_7">
    <path d="M 352.004362 39.044586 
Q 310.727656 60.263937 270.942457 80.716541 
" style="fill: none; stroke: #3c8f63; stroke-width: 1.5; stroke-linecap: round"/>
    <path d="M 275.414313 80.666467 
L 270.942457 80.716541 
L 273.585512 77.109012 
" style="fill: none; stroke: #3c8f63; stroke-width: 1.5; stroke-linecap: round"/>
   </g>
   <g id="text_19">
    <g id="patch_8">
     <path d="M 357.009153 39.877104 
L 394.234153 39.877104 
Q 397.234153 39.877104 397.234153 36.877104 
L 397.234153 17.061167 
Q 397.234153 14.061167 394.234153 14.061167 
L 357.009153 14.061167 
Q 354.009153 14.061167 354.009153 17.061167 
L 354.009153 36.877104 
Q 354.009153 39.877104 357.009153 39.877104 
z
" style="fill: #e5f3ea; opacity: 0.9; stroke: #3c8f63; stroke-width: 0.8; stroke-linejoin: miter"/>
    </g>
    <text style="font-weight: 700; font-size: 10px; font-family: 'Arial'; fill: #3c8f63" transform="translate(357.009153 24.209604)">Optimal</text>
    <text style="font-weight: 700; font-size: 10px; font-family: 'Arial'; fill: #3c8f63" transform="translate(357.573997 34.772417)">binding</text>
   </g>
   <g id="line2d_17">
    <defs>
     <path id="m952fe780aa" d="M 0 4.5 
C 1.193414 4.5 2.338109 4.025852 3.181981 3.181981 
C 4.025852 2.338109 4.5 1.193414 4.5 0 
C 4.5 -1.193414 4.025852 -2.338109 3.181981 -3.181981 
C 2.338109 -4.025852 1.193414 -4.5 0 -4.5 
C -1.193414 -4.5 -2.338109 -4.025852 -3.181981 -3.181981 
C -4.025852 -2.338109 -4.5 -1.193414 -4.5 0 
C -4.5 1.193414 -4.025852 2.338109 -3.181981 3.181981 
C -2.338109 4.025852 -1.193414 4.5 0 4.5 
z
" style="stroke: #ffffff; stroke-width: 1.2"/>
    </defs>
    <g clip-path="url(#p53fc5dc349)">
     <use xlink:href="#m952fe780aa" x="267.67259" y="92.423833" style="fill: #3c8f63; stroke: #ffffff; stroke-width: 1.2"/>
    </g>
   </g>
   <g id="line2d_18">
    <g clip-path="url(#p53fc5dc349)">
     <use xlink:href="#m952fe780aa" x="301.761768" y="112.4765" style="fill: #3c8f63; stroke: #ffffff; stroke-width: 1.2"/>
    </g>
   </g>
   <g id="line2d_19">
    <g clip-path="url(#p53fc5dc349)">
     <use xlink:href="#m952fe780aa" x="244.946472" y="107.463333" style="fill: #3c8f63; stroke: #ffffff; stroke-width: 1.2"/>
    </g>
   </g>
   <g id="line2d_20">
    <defs>
     <path id="m5e319d0818" d="M 0 4.5 
C 1.193414 4.5 2.338109 4.025852 3.181981 3.181981 
C 4.025852 2.338109 4.5 1.193414 4.5 0 
C 4.5 -1.193414 4.025852 -2.338109 3.181981 -3.181981 
C 2.338109 -4.025852 1.193414 -4.5 0 -4.5 
C -1.193414 -4.5 -2.338109 -4.025852 -3.181981 -3.181981 
C -4.025852 -2.338109 -4.5 -1.193414 -4.5 0 
C -4.5 1.193414 -4.025852 2.338109 -3.181981 3.181981 
C -2.338109 4.025852 -1.193414 4.5 0 4.5 
z
" style="stroke: #ffffff; stroke-width: 1.2"/>
    </defs>
    <g clip-path="url(#p53fc5dc349)">
     <use xlink:href="#m5e319d0818" x="222.220354" y="122.502833" style="fill: #c7506b; stroke: #ffffff; stroke-width: 1.2"/>
    </g>
   </g>
   <g id="line2d_21">
    <g clip-path="url(#p53fc5dc349)">
     <use xlink:href="#m5e319d0818" x="176.768117" y="172.6345" style="fill: #c7506b; stroke: #ffffff; stroke-width: 1.2"/>
    </g>
   </g>
   <g id="line2d_22">
    <g clip-path="url(#p53fc5dc349)">
     <use xlink:href="#m5e319d0818" x="188.131176" y="157.595" style="fill: #c7506b; stroke: #ffffff; stroke-width: 1.2"/>
    </g>
   </g>
   <g id="line2d_23">
    <g clip-path="url(#p53fc5dc349)">
     <use xlink:href="#m5e319d0818" x="199.494235" y="147.568667" style="fill: #c7506b; stroke: #ffffff; stroke-width: 1.2"/>
    </g>
   </g>
   <g id="line2d_24">
    <g clip-path="url(#p53fc5dc349)">
     <use xlink:href="#m5e319d0818" x="131.31588" y="222.766167" style="fill: #c7506b; stroke: #ffffff; stroke-width: 1.2"/>
    </g>
   </g>
   <g id="line2d_25">
    <defs>
     <path id="m0686180506" d="M 0 4.5 
C 1.193414 4.5 2.338109 4.025852 3.181981 3.181981 
C 4.025852 2.338109 4.5 1.193414 4.5 0 
C 4.5 -1.193414 4.025852 -2.338109 3.181981 -3.181981 
C 2.338109 -4.025852 1.193414 -4.5 0 -4.5 
C -1.193414 -4.5 -2.338109 -4.025852 -3.181981 -3.181981 
C -4.025852 -2.338109 -4.5 -1.193414 -4.5 0 
C -4.5 1.193414 -4.025852 2.338109 -3.181981 3.181981 
C -2.338109 4.025852 -1.193414 4.5 0 4.5 
z
" style="stroke: #ffffff; stroke-width: 1.2"/>
    </defs>
    <g clip-path="url(#p53fc5dc349)">
     <use xlink:href="#m0686180506" x="324.487887" y="142.5555" style="fill: #16877f; stroke: #ffffff; stroke-width: 1.2"/>
    </g>
   </g>
   <g id="line2d_26">
    <g clip-path="url(#p53fc5dc349)">
     <use xlink:href="#m0686180506" x="404.029301" y="222.766167" style="fill: #16877f; stroke: #ffffff; stroke-width: 1.2"/>
    </g>
   </g>
   <g id="line2d_27">
    <g clip-path="url(#p53fc5dc349)">
     <use xlink:href="#m0686180506" x="381.303183" y="192.687167" style="fill: #16877f; stroke: #ffffff; stroke-width: 1.2"/>
    </g>
   </g>
   <g id="line2d_28">
    <g clip-path="url(#p53fc5dc349)">
     <use xlink:href="#m5e319d0818" x="97.226702" y="257.858333" style="fill: #c7506b; stroke: #ffffff; stroke-width: 1.2"/>
    </g>
   </g>
   <g id="legend_1">
    <g id="patch_9">
     <path d="M 46.361406 303.74 
L 165.208672 303.74 
Q 166.908672 303.74 166.908672 302.04 
L 166.908672 278.64375 
Q 166.908672 276.94375 165.208672 276.94375 
L 46.361406 276.94375 
Q 44.661406 276.94375 44.661406 278.64375 
L 44.661406 302.04 
Q 44.661406 303.74 46.361406 303.74 
z
" style="fill: #ffffff; opacity: 0.9; stroke: #c8bbd8; stroke-linejoin: miter"/>
    </g>
    <g id="line2d_29">
     <path d="M 48.061406 283.452891 
L 56.561406 283.452891 
L 65.061406 283.452891 
" style="fill: none; stroke-dasharray: 7.4,3.2; stroke-dashoffset: 0; stroke: #c7506b; stroke-opacity: 0.6; stroke-width: 2"/>
    </g>
    <g id="text_20">
     <text style="font-size: 8.5px; font-family: 'Arial'; text-anchor: start; fill: #231533" x="71.861406" y="286.427891" transform="rotate(-0 71.861406 286.427891)">Rate-limiting: desorption</text>
    </g>
    <g id="line2d_30">
     <path d="M 48.061406 295.576016 
L 56.561406 295.576016 
L 65.061406 295.576016 
" style="fill: none; stroke-dasharray: 7.4,3.2; stroke-dashoffset: 0; stroke: #16877f; stroke-opacity: 0.6; stroke-width: 2"/>
    </g>
    <g id="text_21">
     <text style="font-size: 8.5px; font-family: 'Arial'; text-anchor: start; fill: #231533" x="71.861406" y="298.551016" transform="rotate(-0 71.861406 298.551016)">Rate-limiting: adsorption</text>
    </g>
   </g>
   <g id="text_22">
    <text style="font-weight: 700; font-size: 10px; font-family: 'Arial'; text-anchor: start; fill: #231533" x="281.308262" y="84.904083" transform="rotate(-0 281.308262 84.904083)">Pt</text>
   </g>
   <g id="text_23">
    <text style="font-weight: 700; font-size: 10px; font-family: 'Arial'; text-anchor: start; fill: #231533" x="315.397439" y="107.463333" transform="rotate(-0 315.397439 107.463333)">Pd</text>
   </g>
   <g id="text_24">
    <text style="font-weight: 700; font-size: 10px; font-family: 'Arial'; text-anchor: start; fill: #231533" x="227.901883" y="99.943583" transform="rotate(-0 227.901883 99.943583)">Ir</text>
   </g>
   <g id="text_25">
    <text style="font-weight: 700; font-size: 10px; font-family: 'Arial'; text-anchor: start; fill: #231533" x="239.264942" y="117.489667" transform="rotate(-0 239.264942 117.489667)">Rh</text>
   </g>
   <g id="text_26">
    <text style="font-weight: 700; font-size: 10px; font-family: 'Arial'; text-anchor: start; fill: #231533" x="193.812706" y="167.621333" transform="rotate(-0 193.812706 167.621333)">Ru</text>
   </g>
   <g id="text_27">
    <text style="font-weight: 700; font-size: 10px; font-family: 'Arial'; text-anchor: start; fill: #231533" x="171.086587" y="150.07525" transform="rotate(-0 171.086587 150.07525)">Ni</text>
   </g>
   <g id="text_28">
    <text style="font-weight: 700; font-size: 10px; font-family: 'Arial'; text-anchor: start; fill: #231533" x="216.538824" y="142.5555" transform="rotate(-0 216.538824 142.5555)">Co</text>
   </g>
   <g id="text_29">
    <text style="font-weight: 700; font-size: 10px; font-family: 'Arial'; text-anchor: start; fill: #231533" x="148.360469" y="217.753" transform="rotate(-0 148.360469 217.753)">Fe</text>
   </g>
   <g id="text_30">
    <text style="font-weight: 700; font-size: 10px; font-family: 'Arial'; text-anchor: start; fill: #231533" x="341.532475" y="137.542333" transform="rotate(-0 341.532475 137.542333)">Cu</text>
   </g>
   <g id="text_31">
    <text style="font-weight: 700; font-size: 10px; font-family: 'Arial'; text-anchor: start; fill: #231533" x="417.664972" y="215.246417" transform="rotate(-0 417.664972 215.246417)">Ag</text>
   </g>
   <g id="text_32">
    <text style="font-weight: 700; font-size: 10px; font-family: 'Arial'; text-anchor: start; fill: #231533" x="364.258594" y="185.167417" transform="rotate(-0 364.258594 185.167417)">Au</text>
   </g>
   <g id="text_33">
    <text style="font-weight: 700; font-size: 10px; font-family: 'Arial'; text-anchor: start; fill: #231533" x="114.271291" y="252.845167" transform="rotate(-0 114.271291 252.845167)">W</text>
   </g>
  </g>
 </g>
 <defs>
  <clipPath id="p53fc5dc349">
   <rect x="40.411406" y="7.2" width="431.79625" height="300.79"/>
  </clipPath>
 </defs>
</svg>
