<?xml version="1.0" encoding="utf-8" standalone="no"?>
<!DOCTYPE svg PUBLIC "-//W3C//DTD SVG 1.1//EN"
  "http://www.w3.org/Graphics/SVG/1.1/DTD/svg11.dtd">
<svg xmlns:xlink="http://www.w3.org/1999/xlink" width="719.68pt" height="311.302625pt" viewBox="0 0 719.68 311.302625" xmlns="http://www.w3.org/2000/svg" version="1.1">
 <metadata>
  <rdf:RDF xmlns:dc="http://purl.org/dc/elements/1.1/" xmlns:cc="http://creativecommons.org/ns#" xmlns:rdf="http://www.w3.org/1999/02/22-rdf-syntax-ns#">
   <cc:Work>
    <dc:type rdf:resource="http://purl.org/dc/dcmitype/StillImage"/>
    <dc:date>2026-06-21T18:21:12.013909</dc:date>
    <dc:format>image/svg+xml</dc:format>
    <dc:creator>
     <cc:Agent>
      <dc:title>Matplotlib v3.10.8, https://matplotlib.org/</dc:title>
     </cc:Agent>
    </dc:creator>
   </cc:Work>
  </rdf:RDF>
 </metadata>
 <defs>
  <style type="text/css">*{stroke-linejoin: round; stroke-linecap: butt}</style>
 </defs>
 <g id="figure_1">
  <g id="patch_1">
   <path d="M 0 311.302625 
L 719.68 311.302625 
L 719.68 0 
L 0 0 
z
" style="fill: #ffffff"/>
  </g>
  <g id="axes_1">
   <g id="patch_2">
    <path d="M 42.88 273.312 
L 334.010435 273.312 
L 334.010435 7.2 
L 42.88 7.2 
L 42.88 273.312 
z
" style="fill: none"/>
   </g>
   <g id="FillBetweenPolyCollection_1">
    <defs>
     <path id="m5740b5a88b" d="M 42.88 -68.550971 
L 42.88 -63.743399 
L 43.366027 -63.743399 
L 43.852055 -63.743399 
L 44.338082 -63.743399 
L 44.82411 -63.743399 
L 45.310137 -63.743399 
L 45.796165 -63.743399 
L 46.282192 -63.743399 
L 46.768219 -63.743399 
L 47.254247 -63.743399 
L 47.740274 -63.743399 
L 48.226302 -63.743399 
L 48.712329 -63.743399 
L 49.198357 -63.743399 
L 49.684384 -63.743399 
L 50.170412 -63.743399 
L 50.656439 -63.743399 
L 51.142466 -63.743399 
L 51.628494 -63.743399 
L 52.114521 -63.743399 
L 52.600549 -63.743399 
L 53.086576 -63.743399 
L 53.572604 -63.743399 
L 54.058631 -63.743399 
L 54.544658 -63.743399 
L 55.030686 -63.743399 
L 55.516713 -63.743399 
L 56.002741 -63.743399 
L 56.488768 -63.743399 
L 56.974796 -63.743399 
L 57.460823 -63.743399 
L 57.946851 -63.743399 
L 58.432878 -63.743399 
L 58.918905 -63.743399 
L 59.404933 -63.743399 
L 59.89096 -63.743399 
L 60.376988 -63.743399 
L 60.863015 -63.743399 
L 61.349043 -63.743399 
L 61.83507 -63.743399 
L 62.321097 -63.743399 
L 62.807125 -63.743399 
L 63.293152 -63.743399 
L 63.77918 -63.743399 
L 64.265207 -63.743399 
L 64.751235 -63.743399 
L 65.237262 -63.743399 
L 65.72329 -63.743399 
L 66.209317 -63.743399 
L 66.695344 -63.743399 
L 67.181372 -63.743399 
L 67.667399 -63.743399 
L 68.153427 -63.743399 
L 68.639454 -63.743399 
L 69.125482 -63.743399 
L 69.611509 -63.743399 
L 70.097536 -63.743399 
L 70.583564 -63.743399 
L 71.069591 -63.743399 
L 71.555619 -63.743399 
L 72.041646 -63.743399 
L 72.527674 -63.743399 
L 73.013701 -63.743399 
L 73.499729 -63.743399 
L 73.985756 -63.743399 
L 74.471783 -63.743399 
L 74.957811 -63.743399 
L 75.443838 -63.743399 
L 75.929866 -63.743399 
L 76.415893 -63.743399 
L 76.901921 -63.743399 
L 77.387948 -63.743399 
L 77.873975 -63.743399 
L 78.360003 -63.743399 
L 78.84603 -63.743399 
L 79.332058 -63.743399 
L 79.818085 -63.743399 
L 80.304113 -63.743399 
L 80.79014 -63.743399 
L 81.276168 -63.743399 
L 81.762195 -63.743399 
L 82.248222 -63.743399 
L 82.73425 -63.743399 
L 83.220277 -63.743399 
L 83.706305 -63.743399 
L 84.192332 -63.743399 
L 84.67836 -63.743399 
L 85.164387 -63.743399 
L 85.650414 -63.743399 
L 86.136442 -63.743399 
L 86.622469 -63.743399 
L 87.108497 -63.743399 
L 87.594524 -63.743399 
L 88.080552 -63.743399 
L 88.566579 -63.743399 
L 89.052607 -63.743399 
L 89.538634 -63.743399 
L 90.024661 -63.743399 
L 90.510689 -63.743399 
L 90.996716 -63.743399 
L 91.482744 -63.743399 
L 91.968771 -63.743399 
L 92.454799 -63.743399 
L 92.940826 -63.743399 
L 93.426853 -63.743399 
L 93.912881 -63.743399 
L 94.398908 -63.743399 
L 94.884936 -63.743399 
L 95.370963 -63.743399 
L 95.856991 -63.743399 
L 96.343018 -63.743399 
L 96.829046 -63.743399 
L 97.315073 -63.743399 
L 97.8011 -63.743399 
L 98.287128 -63.743399 
L 98.773155 -63.743399 
L 99.259183 -63.743399 
L 99.74521 -63.743399 
L 100.231238 -63.743399 
L 100.717265 -63.743399 
L 101.203292 -63.743399 
L 101.68932 -63.743399 
L 102.175347 -63.743399 
L 102.661375 -63.743399 
L 103.147402 -63.743399 
L 103.63343 -63.743399 
L 104.119457 -63.743399 
L 104.605485 -63.743399 
L 105.091512 -63.743399 
L 105.577539 -63.743399 
L 106.063567 -63.743399 
L 106.549594 -63.743399 
L 107.035622 -63.743399 
L 107.521649 -63.743399 
L 108.007677 -63.743399 
L 108.493704 -63.743399 
L 108.979731 -63.743399 
L 109.465759 -63.743399 
L 109.951786 -63.743399 
L 110.437814 -63.743399 
L 110.923841 -63.743399 
L 111.409869 -63.743399 
L 111.895896 -63.743399 
L 112.381923 -63.743399 
L 112.867951 -63.743399 
L 113.353978 -63.743399 
L 113.840006 -63.743399 
L 114.326033 -63.743399 
L 114.812061 -63.743399 
L 115.298088 -63.743399 
L 115.784116 -63.743399 
L 116.270143 -63.743399 
L 116.75617 -63.743399 
L 117.242198 -63.743399 
L 117.728225 -63.743399 
L 118.214253 -63.743399 
L 118.70028 -63.743399 
L 119.186308 -63.743399 
L 119.672335 -63.743399 
L 120.158362 -63.743399 
L 120.64439 -63.743399 
L 121.130417 -63.743399 
L 121.616445 -63.743399 
L 122.102472 -63.743399 
L 122.5885 -63.743399 
L 123.074527 -63.743399 
L 123.560555 -63.743399 
L 124.046582 -63.743399 
L 124.532609 -63.743399 
L 125.018637 -63.743399 
L 125.504664 -63.743399 
L 125.990692 -63.743399 
L 126.476719 -63.743399 
L 126.962747 -63.743399 
L 127.448774 -63.743399 
L 127.934801 -63.743399 
L 128.420829 -63.743399 
L 128.906856 -63.743399 
L 129.392884 -63.743399 
L 129.878911 -63.743399 
L 130.364939 -63.743399 
L 130.850966 -63.743399 
L 131.336994 -63.743399 
L 131.823021 -63.743399 
L 132.309048 -63.743399 
L 132.795076 -63.743399 
L 133.281103 -63.743399 
L 133.767131 -63.743399 
L 134.253158 -63.743399 
L 134.739186 -63.743399 
L 135.225213 -63.743399 
L 135.71124 -63.743399 
L 136.197268 -63.743399 
L 136.683295 -63.743399 
L 137.169323 -63.743399 
L 137.65535 -63.743399 
L 138.141378 -63.743399 
L 138.627405 -63.743399 
L 139.113433 -63.743399 
L 139.59946 -63.743399 
L 140.085487 -63.743399 
L 140.571515 -63.743399 
L 141.057542 -63.743399 
L 141.54357 -63.743399 
L 142.029597 -63.743399 
L 142.515625 -63.743399 
L 143.001652 -63.743399 
L 143.487679 -63.743399 
L 143.973707 -63.743399 
L 144.459734 -63.743399 
L 144.945762 -63.743399 
L 145.431789 -63.743399 
L 145.917817 -63.743399 
L 146.403844 -63.743399 
L 146.889872 -63.743399 
L 147.375899 -63.743399 
L 147.861926 -63.743399 
L 148.347954 -63.743399 
L 148.833981 -63.743399 
L 149.320009 -63.743399 
L 149.806036 -63.743399 
L 150.292064 -63.743399 
L 150.778091 -63.743399 
L 151.264118 -63.743399 
L 151.750146 -63.743399 
L 152.236173 -63.743399 
L 152.722201 -63.743399 
L 153.208228 -63.743399 
L 153.694256 -63.743399 
L 154.180283 -63.743399 
L 154.666311 -63.743399 
L 155.152338 -63.743399 
L 155.638365 -63.743399 
L 156.124393 -63.743399 
L 156.61042 -63.743399 
L 157.096448 -63.743399 
L 157.582475 -63.743399 
L 158.068503 -63.743399 
L 158.55453 -63.743399 
L 159.040557 -63.743399 
L 159.526585 -63.743399 
L 160.012612 -63.743399 
L 160.49864 -63.743399 
L 160.984667 -63.743399 
L 161.470695 -63.743399 
L 161.956722 -63.743399 
L 162.44275 -63.743399 
L 162.928777 -63.743399 
L 163.414804 -63.743399 
L 163.900832 -63.743399 
L 164.386859 -63.743399 
L 164.872887 -63.743399 
L 165.358914 -63.743399 
L 165.844942 -63.743399 
L 166.330969 -63.743399 
L 166.816996 -63.743399 
L 167.303024 -63.743399 
L 167.789051 -63.743399 
L 168.275079 -63.743399 
L 168.761106 -63.743399 
L 169.247134 -63.743399 
L 169.733161 -63.743399 
L 170.219189 -63.743399 
L 170.705216 -63.743399 
L 171.191243 -63.743399 
L 171.677271 -63.743399 
L 172.163298 -63.743399 
L 172.649326 -63.743399 
L 173.135353 -63.743399 
L 173.621381 -63.743399 
L 174.107408 -63.743399 
L 174.593435 -63.743399 
L 175.079463 -63.743399 
L 175.56549 -63.743399 
L 176.051518 -63.743399 
L 176.537545 -63.743399 
L 177.023573 -63.743399 
L 177.5096 -63.743399 
L 177.995627 -63.743399 
L 178.481655 -63.743399 
L 178.967682 -63.743399 
L 179.45371 -63.743399 
L 179.939737 -63.743399 
L 180.425765 -63.743399 
L 180.911792 -63.743399 
L 181.39782 -63.743399 
L 181.883847 -63.743399 
L 182.369874 -63.743399 
L 182.855902 -63.743399 
L 183.341929 -63.743399 
L 183.827957 -63.743399 
L 184.313984 -63.743399 
L 184.800012 -63.743399 
L 185.286039 -63.743399 
L 185.772066 -63.743399 
L 186.258094 -63.743399 
L 186.744121 -63.743399 
L 187.230149 -63.743399 
L 187.716176 -63.743399 
L 188.202204 -63.743399 
L 188.688231 -63.743399 
L 189.174259 -63.743399 
L 189.660286 -63.743399 
L 190.146313 -63.743399 
L 190.632341 -63.743399 
L 191.118368 -63.743399 
L 191.604396 -63.743399 
L 192.090423 -63.743399 
L 192.576451 -63.743399 
L 193.062478 -63.743399 
L 193.548505 -63.743399 
L 194.034533 -63.743399 
L 194.52056 -63.743399 
L 195.006588 -63.743399 
L 195.492615 -63.743399 
L 195.978643 -63.743399 
L 196.46467 -63.743399 
L 196.950698 -63.743399 
L 197.436725 -63.743399 
L 197.922752 -63.743399 
L 198.40878 -63.743399 
L 198.894807 -63.743399 
L 199.380835 -63.743399 
L 199.866862 -63.743399 
L 200.35289 -63.743399 
L 200.838917 -63.743399 
L 201.324944 -63.743399 
L 201.810972 -63.743399 
L 202.296999 -63.743399 
L 202.783027 -63.743399 
L 203.269054 -63.743399 
L 203.755082 -63.743399 
L 204.241109 -63.743399 
L 204.727137 -63.743399 
L 205.213164 -63.743399 
L 205.699191 -63.743399 
L 206.185219 -63.743399 
L 206.671246 -63.743399 
L 207.157274 -63.743399 
L 207.643301 -63.743399 
L 208.129329 -63.743399 
L 208.615356 -63.743399 
L 209.101383 -63.743399 
L 209.587411 -63.743399 
L 210.073438 -63.743399 
L 210.559466 -63.743399 
L 211.045493 -63.743399 
L 211.531521 -63.743399 
L 212.017548 -63.743399 
L 212.503576 -63.743399 
L 212.989603 -63.743399 
L 213.47563 -63.743399 
L 213.961658 -63.743399 
L 214.447685 -63.743399 
L 214.933713 -63.743399 
L 215.41974 -63.743399 
L 215.905768 -63.743399 
L 216.391795 -63.743399 
L 216.877822 -63.743399 
L 217.36385 -63.743399 
L 217.849877 -63.743399 
L 218.335905 -63.743399 
L 218.821932 -63.743399 
L 219.30796 -63.743399 
L 219.793987 -63.743399 
L 220.280015 -63.743399 
L 220.766042 -63.743399 
L 221.252069 -63.743399 
L 221.738097 -63.743399 
L 222.224124 -63.743399 
L 222.710152 -63.743399 
L 223.196179 -63.743399 
L 223.682207 -63.743399 
L 224.168234 -63.743399 
L 224.654261 -63.743399 
L 225.140289 -63.743399 
L 225.626316 -63.743399 
L 226.112344 -63.743399 
L 226.598371 -63.743399 
L 227.084399 -63.743399 
L 227.570426 -63.743399 
L 228.056454 -63.743399 
L 228.542481 -63.743399 
L 229.028508 -63.743399 
L 229.514536 -63.743399 
L 230.000563 -63.743399 
L 230.486591 -63.743399 
L 230.972618 -63.743399 
L 231.458646 -63.743399 
L 231.944673 -63.743399 
L 232.4307 -63.743399 
L 232.916728 -63.743399 
L 233.402755 -63.743399 
L 233.888783 -63.743399 
L 234.37481 -63.743399 
L 234.860838 -63.743399 
L 235.346865 -63.743399 
L 235.832893 -63.743399 
L 236.31892 -63.743399 
L 236.804947 -63.743399 
L 237.290975 -63.743399 
L 237.777002 -63.743399 
L 238.26303 -63.743399 
L 238.749057 -63.743399 
L 239.235085 -63.743399 
L 239.721112 -63.743399 
L 240.207139 -63.743399 
L 240.693167 -63.743399 
L 241.179194 -63.743399 
L 241.665222 -63.743399 
L 242.151249 -63.743399 
L 242.637277 -63.743399 
L 243.123304 -63.743399 
L 243.609331 -63.743399 
L 244.095359 -63.743399 
L 244.581386 -63.743399 
L 245.067414 -63.743399 
L 245.553441 -63.743399 
L 246.039469 -63.743399 
L 246.525496 -63.743399 
L 247.011524 -63.743399 
L 247.497551 -63.743399 
L 247.983578 -63.743399 
L 248.469606 -63.743399 
L 248.955633 -63.743399 
L 249.441661 -63.743399 
L 249.927688 -63.743399 
L 250.413716 -63.743399 
L 250.899743 -63.743399 
L 251.38577 -63.743399 
L 251.871798 -63.743399 
L 252.357825 -63.743399 
L 252.843853 -63.743399 
L 253.32988 -63.743399 
L 253.815908 -63.743399 
L 254.301935 -63.743399 
L 254.787963 -63.743399 
L 255.27399 -63.743399 
L 255.760017 -63.743399 
L 256.246045 -63.743399 
L 256.732072 -63.743399 
L 257.2181 -63.743399 
L 257.704127 -63.743399 
L 258.190155 -63.743399 
L 258.676182 -63.743399 
L 259.162209 -63.743399 
L 259.648237 -63.743399 
L 260.134264 -63.743399 
L 260.620292 -63.743399 
L 261.106319 -63.743399 
L 261.592347 -63.743399 
L 262.078374 -63.743399 
L 262.564402 -63.743399 
L 263.050429 -63.743399 
L 263.536456 -63.743399 
L 264.022484 -63.743399 
L 264.508511 -63.743399 
L 264.994539 -63.743399 
L 265.480566 -63.743399 
L 265.966594 -63.743399 
L 266.452621 -63.743399 
L 266.938648 -63.743399 
L 267.424676 -63.743399 
L 267.910703 -63.743399 
L 268.396731 -63.743399 
L 268.882758 -63.743399 
L 269.368786 -63.743399 
L 269.854813 -63.743399 
L 270.340841 -63.743399 
L 270.826868 -63.743399 
L 271.312895 -63.743399 
L 271.798923 -63.743399 
L 272.28495 -63.743399 
L 272.770978 -63.743399 
L 273.257005 -63.743399 
L 273.743033 -63.743399 
L 274.22906 -63.743399 
L 274.715087 -63.743399 
L 275.201115 -63.743399 
L 275.687142 -63.743399 
L 276.17317 -63.743399 
L 276.659197 -63.743399 
L 277.145225 -63.743399 
L 277.631252 -63.743399 
L 278.11728 -63.743399 
L 278.603307 -63.743399 
L 279.089334 -63.743399 
L 279.575362 -63.743399 
L 280.061389 -63.743399 
L 280.547417 -63.743399 
L 281.033444 -63.743399 
L 281.519472 -63.743399 
L 282.005499 -63.743399 
L 282.491526 -63.743399 
L 282.977554 -63.743399 
L 283.463581 -63.743399 
L 283.949609 -63.743399 
L 284.435636 -63.743399 
L 284.921664 -63.743399 
L 285.407691 -63.743399 
L 285.893719 -63.743399 
L 286.379746 -63.743399 
L 286.865773 -63.743399 
L 287.351801 -63.743399 
L 287.837828 -63.743399 
L 288.323856 -63.743399 
L 288.809883 -63.743399 
L 289.295911 -63.743399 
L 289.781938 -63.743399 
L 290.267965 -63.743399 
L 290.753993 -63.743399 
L 291.24002 -63.743399 
L 291.726048 -63.743399 
L 292.212075 -63.743399 
L 292.698103 -63.743399 
L 293.18413 -63.743399 
L 293.670158 -63.743399 
L 294.156185 -63.743399 
L 294.642212 -63.743399 
L 295.12824 -63.743399 
L 295.614267 -63.743399 
L 296.100295 -63.743399 
L 296.586322 -63.743399 
L 297.07235 -63.743399 
L 297.558377 -63.743399 
L 298.044404 -63.743399 
L 298.530432 -63.743399 
L 299.016459 -63.743399 
L 299.502487 -63.743399 
L 299.988514 -63.743399 
L 300.474542 -63.743399 
L 300.960569 -63.743399 
L 301.446597 -63.743399 
L 301.932624 -63.743399 
L 302.418651 -63.743399 
L 302.904679 -63.743399 
L 303.390706 -63.743399 
L 303.876734 -63.743399 
L 304.362761 -63.743399 
L 304.848789 -63.743399 
L 305.334816 -63.743399 
L 305.820843 -63.743399 
L 306.306871 -63.743399 
L 306.792898 -63.743399 
L 307.278926 -63.743399 
L 307.764953 -63.743399 
L 308.250981 -63.743399 
L 308.737008 -63.743399 
L 309.223035 -63.743399 
L 309.709063 -63.743399 
L 310.19509 -63.743399 
L 310.681118 -63.743399 
L 311.167145 -63.743399 
L 311.653173 -63.743399 
L 312.1392 -63.743399 
L 312.625228 -63.743399 
L 313.111255 -63.743399 
L 313.597282 -63.743399 
L 314.08331 -63.743399 
L 314.569337 -63.743399 
L 315.055365 -63.743399 
L 315.541392 -63.743399 
L 316.02742 -63.743399 
L 316.513447 -63.743399 
L 316.999474 -63.743399 
L 317.485502 -63.743399 
L 317.971529 -63.743399 
L 318.457557 -63.743399 
L 318.943584 -63.743399 
L 319.429612 -63.743399 
L 319.915639 -63.743399 
L 320.401667 -63.743399 
L 320.887694 -63.743399 
L 321.373721 -63.743399 
L 321.859749 -63.743399 
L 322.345776 -63.743399 
L 322.831804 -63.743399 
L 323.317831 -63.743399 
L 323.803859 -63.743399 
L 324.289886 -63.743399 
L 324.775913 -63.743399 
L 325.261941 -63.743399 
L 325.747968 -63.743399 
L 326.233996 -63.743399 
L 326.720023 -63.743399 
L 327.206051 -63.743399 
L 327.692078 -63.743399 
L 328.178106 -63.743399 
L 328.664133 -63.743399 
L 329.15016 -63.743399 
L 329.636188 -63.743399 
L 330.122215 -63.743399 
L 330.608243 -63.743399 
L 331.09427 -63.743399 
L 331.580298 -63.743399 
L 332.066325 -63.743399 
L 332.552352 -63.743399 
L 333.03838 -63.743399 
L 333.524407 -63.743399 
L 334.010435 -63.743399 
L 334.010435 -65.328622 
L 334.010435 -65.328622 
L 333.524407 -65.376227 
L 333.03838 -65.425107 
L 332.552352 -65.475288 
L 332.066325 -65.526802 
L 331.580298 -65.579678 
L 331.09427 -65.633946 
L 330.608243 -65.689637 
L 330.122215 -65.746783 
L 329.636188 -65.805416 
L 329.15016 -65.865568 
L 328.664133 -65.927271 
L 328.178106 -65.990561 
L 327.692078 -66.05547 
L 327.206051 -66.122033 
L 326.720023 -66.190286 
L 326.233996 -66.260264 
L 325.747968 -66.332002 
L 325.261941 -66.405539 
L 324.775913 -66.480911 
L 324.289886 -66.558155 
L 323.803859 -66.637311 
L 323.317831 -66.718417 
L 322.831804 -66.801512 
L 322.345776 -66.886636 
L 321.859749 -66.97383 
L 321.373721 -67.063135 
L 320.887694 -67.154592 
L 320.401667 -67.248244 
L 319.915639 -67.344133 
L 319.429612 -67.442302 
L 318.943584 -67.542796 
L 318.457557 -67.645657 
L 317.971529 -67.750932 
L 317.485502 -67.858664 
L 316.999474 -67.968901 
L 316.513447 -68.081689 
L 316.02742 -68.197073 
L 315.541392 -68.315103 
L 315.055365 -68.435825 
L 314.569337 -68.559288 
L 314.08331 -68.685541 
L 313.597282 -68.814634 
L 313.111255 -68.946616 
L 312.625228 -69.081538 
L 312.1392 -69.21945 
L 311.653173 -69.360404 
L 311.167145 -69.504452 
L 310.681118 -69.651646 
L 310.19509 -69.802038 
L 309.709063 -69.955683 
L 309.223035 -70.112632 
L 308.737008 -70.272942 
L 308.250981 -70.436665 
L 307.764953 -70.603857 
L 307.278926 -70.774574 
L 306.792898 -70.94887 
L 306.306871 -71.126801 
L 305.820843 -71.308425 
L 305.334816 -71.493797 
L 304.848789 -71.682975 
L 304.362761 -71.876017 
L 303.876734 -72.072979 
L 303.390706 -72.27392 
L 302.904679 -72.478898 
L 302.418651 -72.687972 
L 301.932624 -72.9012 
L 301.446597 -73.118641 
L 300.960569 -73.340355 
L 300.474542 -73.566401 
L 299.988514 -73.796839 
L 299.502487 -74.031728 
L 299.016459 -74.271128 
L 298.530432 -74.5151 
L 298.044404 -74.763703 
L 297.558377 -75.016998 
L 297.07235 -75.275045 
L 296.586322 -75.537905 
L 296.100295 -75.805637 
L 295.614267 -76.078302 
L 295.12824 -76.355961 
L 294.642212 -76.638674 
L 294.156185 -76.926501 
L 293.670158 -77.219502 
L 293.18413 -77.517737 
L 292.698103 -77.821267 
L 292.212075 -78.13015 
L 291.726048 -78.444447 
L 291.24002 -78.764216 
L 290.753993 -79.089517 
L 290.267965 -79.420409 
L 289.781938 -79.75695 
L 289.295911 -80.099199 
L 288.809883 -80.447212 
L 288.323856 -80.801048 
L 287.837828 -81.160764 
L 287.351801 -81.526415 
L 286.865773 -81.898059 
L 286.379746 -82.27575 
L 285.893719 -82.659544 
L 285.407691 -83.049495 
L 284.921664 -83.445657 
L 284.435636 -83.848083 
L 283.949609 -84.256826 
L 283.463581 -84.671937 
L 282.977554 -85.093469 
L 282.491526 -85.52147 
L 282.005499 -85.95599 
L 281.519472 -86.397078 
L 281.033444 -86.844783 
L 280.547417 -87.29915 
L 280.061389 -87.760226 
L 279.575362 -88.228055 
L 279.089334 -88.702682 
L 278.603307 -89.184149 
L 278.11728 -89.672498 
L 277.631252 -90.167771 
L 277.145225 -90.670005 
L 276.659197 -91.17924 
L 276.17317 -91.695512 
L 275.687142 -92.218858 
L 275.201115 -92.749312 
L 274.715087 -93.286906 
L 274.22906 -93.831673 
L 273.743033 -94.383642 
L 273.257005 -94.942843 
L 272.770978 -95.509303 
L 272.28495 -96.083048 
L 271.798923 -96.664101 
L 271.312895 -97.252485 
L 270.826868 -97.848222 
L 270.340841 -98.45133 
L 269.854813 -99.061827 
L 269.368786 -99.679729 
L 268.882758 -100.305049 
L 268.396731 -100.9378 
L 267.910703 -101.577991 
L 267.424676 -102.225632 
L 266.938648 -102.880728 
L 266.452621 -103.543283 
L 265.966594 -104.213301 
L 265.480566 -104.890781 
L 264.994539 -105.575722 
L 264.508511 -106.268119 
L 264.022484 -106.967966 
L 263.536456 -107.675256 
L 263.050429 -108.389977 
L 262.564402 -109.112118 
L 262.078374 -109.841662 
L 261.592347 -110.578593 
L 261.106319 -111.32289 
L 260.620292 -112.074532 
L 260.134264 -112.833494 
L 259.648237 -113.599749 
L 259.162209 -114.373268 
L 258.676182 -115.154019 
L 258.190155 -115.941967 
L 257.704127 -116.737076 
L 257.2181 -117.539305 
L 256.732072 -118.348613 
L 256.246045 -119.164955 
L 255.760017 -119.988283 
L 255.27399 -120.818548 
L 254.787963 -121.655696 
L 254.301935 -122.499673 
L 253.815908 -123.350419 
L 253.32988 -124.207874 
L 252.843853 -125.071974 
L 252.357825 -125.942654 
L 251.871798 -126.819842 
L 251.38577 -127.703468 
L 250.899743 -128.593457 
L 250.413716 -129.48973 
L 249.927688 -130.392207 
L 249.441661 -131.300805 
L 248.955633 -132.215438 
L 248.469606 -133.136016 
L 247.983578 -134.062448 
L 247.497551 -134.994638 
L 247.011524 -135.932488 
L 246.525496 -136.875899 
L 246.039469 -137.824766 
L 245.553441 -138.778984 
L 245.067414 -139.738443 
L 244.581386 -140.70303 
L 244.095359 -141.672632 
L 243.609331 -142.647129 
L 243.123304 -143.626402 
L 242.637277 -144.610326 
L 242.151249 -145.598776 
L 241.665222 -146.591622 
L 241.179194 -147.588733 
L 240.693167 -148.589973 
L 240.207139 -149.595205 
L 239.721112 -150.604288 
L 239.235085 -151.617081 
L 238.749057 -152.633436 
L 238.26303 -153.653205 
L 237.777002 -154.676238 
L 237.290975 -155.70238 
L 236.804947 -156.731476 
L 236.31892 -157.763366 
L 235.832893 -158.797888 
L 235.346865 -159.83488 
L 234.860838 -160.874174 
L 234.37481 -161.915601 
L 233.888783 -162.95899 
L 233.402755 -164.004167 
L 232.916728 -165.050956 
L 232.4307 -166.09918 
L 231.944673 -167.148656 
L 231.458646 -168.199202 
L 230.972618 -169.250634 
L 230.486591 -170.302764 
L 230.000563 -171.355403 
L 229.514536 -172.408359 
L 229.028508 -173.46144 
L 228.542481 -174.514451 
L 228.056454 -175.567193 
L 227.570426 -176.61947 
L 227.084399 -177.671079 
L 226.598371 -178.72182 
L 226.112344 -179.771487 
L 225.626316 -180.819876 
L 225.140289 -181.86678 
L 224.654261 -182.91199 
L 224.168234 -183.955297 
L 223.682207 -184.996489 
L 223.196179 -186.035355 
L 222.710152 -187.07168 
L 222.224124 -188.10525 
L 221.738097 -189.13585 
L 221.252069 -190.163262 
L 220.766042 -191.18727 
L 220.280015 -192.207655 
L 219.793987 -193.224198 
L 219.30796 -194.236679 
L 218.821932 -195.244878 
L 218.335905 -196.248574 
L 217.849877 -197.247546 
L 217.36385 -198.241572 
L 216.877822 -199.23043 
L 216.391795 -200.213899 
L 215.905768 -201.191755 
L 215.41974 -202.163776 
L 214.933713 -203.129741 
L 214.447685 -204.089428 
L 213.961658 -205.042613 
L 213.47563 -205.989076 
L 212.989603 -206.928596 
L 212.503576 -207.860952 
L 212.017548 -208.785923 
L 211.531521 -209.703291 
L 211.045493 -210.612835 
L 210.559466 -211.514339 
L 210.073438 -212.407585 
L 209.587411 -213.292358 
L 209.101383 -214.168441 
L 208.615356 -215.035621 
L 208.129329 -215.893685 
L 207.643301 -216.742422 
L 207.157274 -217.581623 
L 206.671246 -218.411078 
L 206.185219 -219.230581 
L 205.699191 -220.039927 
L 205.213164 -220.838912 
L 204.727137 -221.627335 
L 204.241109 -222.404995 
L 203.755082 -223.171696 
L 203.269054 -223.927242 
L 202.783027 -224.67144 
L 202.296999 -225.404097 
L 201.810972 -226.125027 
L 201.324944 -226.834042 
L 200.838917 -227.530958 
L 200.35289 -228.215594 
L 199.866862 -228.887772 
L 199.380835 -229.547315 
L 198.894807 -230.194051 
L 198.40878 -230.82781 
L 197.922752 -231.448423 
L 197.436725 -232.055728 
L 196.950698 -232.649563 
L 196.46467 -233.22977 
L 195.978643 -233.796194 
L 195.492615 -234.348684 
L 195.006588 -234.887093 
L 194.52056 -235.411275 
L 194.034533 -235.92109 
L 193.548505 -236.416401 
L 193.062478 -236.897073 
L 192.576451 -237.362976 
L 192.090423 -237.813985 
L 191.604396 -238.249977 
L 191.118368 -238.670832 
L 190.632341 -239.076438 
L 190.146313 -239.466682 
L 189.660286 -239.841458 
L 189.174259 -240.200664 
L 188.688231 -240.544201 
L 188.202204 -240.871975 
L 187.716176 -241.183896 
L 187.230149 -241.479877 
L 186.744121 -241.759838 
L 186.258094 -242.0237 
L 185.772066 -242.271393 
L 185.286039 -242.502845 
L 184.800012 -242.717995 
L 184.313984 -242.916782 
L 183.827957 -243.099151 
L 183.341929 -243.265052 
L 182.855902 -243.414438 
L 182.369874 -243.547268 
L 181.883847 -243.663506 
L 181.39782 -243.763119 
L 180.911792 -243.846078 
L 180.425765 -243.912362 
L 179.939737 -243.961952 
L 179.45371 -243.994833 
L 178.967682 -244.010998 
L 178.481655 -244.01044 
L 177.995627 -243.993161 
L 177.5096 -243.959166 
L 177.023573 -243.908462 
L 176.537545 -243.841066 
L 176.051518 -243.756996 
L 175.56549 -243.656274 
L 175.079463 -243.538929 
L 174.593435 -243.404994 
L 174.107408 -243.254505 
L 173.621381 -243.087505 
L 173.135353 -242.90404 
L 172.649326 -242.70416 
L 172.163298 -242.487922 
L 171.677271 -242.255384 
L 171.191243 -242.006612 
L 170.705216 -241.741674 
L 170.219189 -241.460642 
L 169.733161 -241.163596 
L 169.247134 -240.850616 
L 168.761106 -240.521788 
L 168.275079 -240.177204 
L 167.789051 -239.816957 
L 167.303024 -239.441146 
L 166.816996 -239.049874 
L 166.330969 -238.643249 
L 165.844942 -238.22138 
L 165.358914 -237.784384 
L 164.872887 -237.332378 
L 164.386859 -236.865486 
L 163.900832 -236.383834 
L 163.414804 -235.887552 
L 162.928777 -235.376775 
L 162.44275 -234.85164 
L 161.956722 -234.312288 
L 161.470695 -233.758864 
L 160.984667 -233.191516 
L 160.49864 -232.610396 
L 160.012612 -232.015658 
L 159.526585 -231.407461 
L 159.040557 -230.785966 
L 158.55453 -230.151337 
L 158.068503 -229.503742 
L 157.582475 -228.843351 
L 157.096448 -228.170337 
L 156.61042 -227.484877 
L 156.124393 -226.787148 
L 155.638365 -226.077334 
L 155.152338 -225.355616 
L 154.666311 -224.622183 
L 154.180283 -223.877223 
L 153.694256 -223.120928 
L 153.208228 -222.35349 
L 152.722201 -221.575106 
L 152.236173 -220.785973 
L 151.750146 -219.986291 
L 151.264118 -219.176261 
L 150.778091 -218.356089 
L 150.292064 -217.525977 
L 149.806036 -216.686134 
L 149.320009 -215.836769 
L 148.833981 -214.97809 
L 148.347954 -214.11031 
L 147.861926 -213.233641 
L 147.375899 -212.348297 
L 146.889872 -211.454494 
L 146.403844 -210.552447 
L 145.917817 -209.642374 
L 145.431789 -208.724493 
L 144.945762 -207.799022 
L 144.459734 -206.866182 
L 143.973707 -205.926192 
L 143.487679 -204.979274 
L 143.001652 -204.025648 
L 142.515625 -203.065537 
L 142.029597 -202.099161 
L 141.54357 -201.126743 
L 141.057542 -200.148506 
L 140.571515 -199.164672 
L 140.085487 -198.175462 
L 139.59946 -197.1811 
L 139.113433 -196.181806 
L 138.627405 -195.177803 
L 138.141378 -194.169311 
L 137.65535 -193.156553 
L 137.169323 -192.139747 
L 136.683295 -191.119113 
L 136.197268 -190.094872 
L 135.71124 -189.06724 
L 135.225213 -188.036435 
L 134.739186 -187.002675 
L 134.253158 -185.966174 
L 133.767131 -184.927146 
L 133.281103 -183.885807 
L 132.795076 -182.842367 
L 132.309048 -181.797037 
L 131.823021 -180.750028 
L 131.336994 -179.701547 
L 130.850966 -178.651802 
L 130.364939 -177.600997 
L 129.878911 -176.549337 
L 129.392884 -175.497023 
L 128.906856 -174.444256 
L 128.420829 -173.391235 
L 127.934801 -172.338156 
L 127.448774 -171.285215 
L 126.962747 -170.232604 
L 126.476719 -169.180515 
L 125.990692 -168.129136 
L 125.504664 -167.078655 
L 125.018637 -166.029257 
L 124.532609 -164.981124 
L 124.046582 -163.934436 
L 123.560555 -162.889373 
L 123.074527 -161.846109 
L 122.5885 -160.804819 
L 122.102472 -159.765674 
L 121.616445 -158.728842 
L 121.130417 -157.694489 
L 120.64439 -156.662781 
L 120.158362 -155.633877 
L 119.672335 -154.607937 
L 119.186308 -153.585117 
L 118.70028 -152.565571 
L 118.214253 -151.549449 
L 117.728225 -150.536899 
L 117.242198 -149.528068 
L 116.75617 -148.523098 
L 116.270143 -147.522129 
L 115.784116 -146.525299 
L 115.298088 -145.532741 
L 114.812061 -144.544589 
L 114.326033 -143.560971 
L 113.840006 -142.582013 
L 113.353978 -141.607838 
L 112.867951 -140.638567 
L 112.381923 -139.674318 
L 111.895896 -138.715205 
L 111.409869 -137.761341 
L 110.923841 -136.812834 
L 110.437814 -135.869791 
L 109.951786 -134.932314 
L 109.465759 -134.000505 
L 108.979731 -133.074461 
L 108.493704 -132.154277 
L 108.007677 -131.240044 
L 107.521649 -130.331851 
L 107.035622 -129.429784 
L 106.549594 -128.533928 
L 106.063567 -127.644361 
L 105.577539 -126.761162 
L 105.091512 -125.884405 
L 104.605485 -125.014162 
L 104.119457 -124.150503 
L 103.63343 -123.293493 
L 103.147402 -122.443196 
L 102.661375 -121.599673 
L 102.175347 -120.762982 
L 101.68932 -119.933178 
L 101.203292 -119.110314 
L 100.717265 -118.29444 
L 100.231238 -117.485603 
L 99.74521 -116.683847 
L 99.259183 -115.889214 
L 98.773155 -115.101745 
L 98.287128 -114.321475 
L 97.8011 -113.548439 
L 97.315073 -112.782669 
L 96.829046 -112.024195 
L 96.343018 -111.273041 
L 95.856991 -110.529235 
L 95.370963 -109.792796 
L 94.884936 -109.063745 
L 94.398908 -108.342098 
L 93.912881 -107.627872 
L 93.426853 -106.921078 
L 92.940826 -106.221727 
L 92.454799 -105.529827 
L 91.968771 -104.845384 
L 91.482744 -104.168401 
L 90.996716 -103.498881 
L 90.510689 -102.836823 
L 90.024661 -102.182224 
L 89.538634 -101.53508 
L 89.052607 -100.895385 
L 88.566579 -100.26313 
L 88.080552 -99.638305 
L 87.594524 -99.020897 
L 87.108497 -98.410893 
L 86.622469 -97.808277 
L 86.136442 -97.213031 
L 85.650414 -96.625136 
L 85.164387 -96.044571 
L 84.67836 -95.471313 
L 84.192332 -94.905338 
L 83.706305 -94.346619 
L 83.220277 -93.795131 
L 82.73425 -93.250843 
L 82.248222 -92.713726 
L 81.762195 -92.183748 
L 81.276168 -91.660874 
L 80.79014 -91.145072 
L 80.304113 -90.636305 
L 79.818085 -90.134536 
L 79.332058 -89.639727 
L 78.84603 -89.151838 
L 78.360003 -88.670828 
L 77.873975 -88.196655 
L 77.387948 -87.729278 
L 76.901921 -87.268651 
L 76.415893 -86.814729 
L 75.929866 -86.367467 
L 75.443838 -85.926818 
L 74.957811 -85.492734 
L 74.471783 -85.065166 
L 73.985756 -84.644064 
L 73.499729 -84.229379 
L 73.013701 -83.821059 
L 72.527674 -83.419052 
L 72.041646 -83.023305 
L 71.555619 -82.633767 
L 71.069591 -82.250381 
L 70.583564 -81.873095 
L 70.097536 -81.501852 
L 69.611509 -81.136598 
L 69.125482 -80.777277 
L 68.639454 -80.423831 
L 68.153427 -80.076204 
L 67.667399 -79.734337 
L 67.181372 -79.398175 
L 66.695344 -79.067657 
L 66.209317 -78.742727 
L 65.72329 -78.423324 
L 65.237262 -78.10939 
L 64.751235 -77.800865 
L 64.265207 -77.497691 
L 63.77918 -77.199806 
L 63.293152 -76.907152 
L 62.807125 -76.619668 
L 62.321097 -76.337294 
L 61.83507 -76.05997 
L 61.349043 -75.787635 
L 60.863015 -75.52023 
L 60.376988 -75.257693 
L 59.89096 -74.999965 
L 59.404933 -74.746984 
L 58.918905 -74.498692 
L 58.432878 -74.255027 
L 57.946851 -74.015929 
L 57.460823 -73.781339 
L 56.974796 -73.551196 
L 56.488768 -73.32544 
L 56.002741 -73.104013 
L 55.516713 -72.886854 
L 55.030686 -72.673905 
L 54.544658 -72.465106 
L 54.058631 -72.260399 
L 53.572604 -72.059725 
L 53.086576 -71.863026 
L 52.600549 -71.670244 
L 52.114521 -71.481321 
L 51.628494 -71.296201 
L 51.142466 -71.114825 
L 50.656439 -70.937137 
L 50.170412 -70.763082 
L 49.684384 -70.592602 
L 49.198357 -70.425643 
L 48.712329 -70.262149 
L 48.226302 -70.102065 
L 47.740274 -69.945337 
L 47.254247 -69.791911 
L 46.768219 -69.641734 
L 46.282192 -69.494751 
L 45.796165 -69.350911 
L 45.310137 -69.210162 
L 44.82411 -69.07245 
L 44.338082 -68.937726 
L 43.852055 -68.805939 
L 43.366027 -68.677037 
L 42.88 -68.550971 
z
" style="stroke: #f2edff; stroke-opacity: 0.4"/>
    </defs>
    <g clip-path="url(#p0f15d17670)">
     <use xlink:href="#m5740b5a88b" x="0" y="311.302625" style="fill: #f2edff; fill-opacity: 0.4; stroke: #f2edff; stroke-opacity: 0.4"/>
    </g>
   </g>
   <g id="line2d_1">
    <path d="M 132.16 273.312 
L 132.16 7.2 
" clip-path="url(#p0f15d17670)" style="fill: none; stroke-dasharray: 0.8,1.32; stroke-dashoffset: 0; stroke: #16877f; stroke-opacity: 0.5; stroke-width: 0.8"/>
   </g>
   <g id="line2d_2">
    <path d="M 93.342609 273.312 
L 93.342609 7.2 
" clip-path="url(#p0f15d17670)" style="fill: none; stroke-dasharray: 0.8,1.32; stroke-dashoffset: 0; stroke: #16877f; stroke-opacity: 0.5; stroke-width: 0.8"/>
   </g>
   <g id="line2d_3">
    <path d="M 170.977391 273.312 
L 170.977391 7.2 
" clip-path="url(#p0f15d17670)" style="fill: none; stroke-dasharray: 0.8,1.32; stroke-dashoffset: 0; stroke: #16877f; stroke-opacity: 0.5; stroke-width: 0.8"/>
   </g>
   <g id="matplotlib.axis_1">
    <g id="xtick_1">
     <g id="line2d_4">
      <defs>
       <path id="m2968549a7b" d="M 0 0 
L 0 3 
" style="stroke: #665a75; stroke-width: 0.8"/>
      </defs>
      <g>
       <use xlink:href="#m2968549a7b" x="42.88" y="273.312" style="fill: #665a75; stroke: #665a75; stroke-width: 0.8"/>
      </g>
     </g>
     <g id="text_1">
      <text style="font-size: 9px; font-family: 'Arial'; text-anchor: middle; fill: #665a75" x="42.88" y="286.254031" transform="rotate(-0 42.88 286.254031)">0</text>
     </g>
    </g>
    <g id="xtick_2">
     <g id="line2d_5">
      <g>
       <use xlink:href="#m2968549a7b" x="81.697391" y="273.312" style="fill: #665a75; stroke: #665a75; stroke-width: 0.8"/>
      </g>
     </g>
     <g id="text_2">
      <text style="font-size: 9px; font-family: 'Arial'; text-anchor: middle; fill: #665a75" x="81.697391" y="286.254031" transform="rotate(-0 81.697391 286.254031)">1</text>
     </g>
    </g>
    <g id="xtick_3">
     <g id="line2d_6">
      <g>
       <use xlink:href="#m2968549a7b" x="120.514783" y="273.312" style="fill: #665a75; stroke: #665a75; stroke-width: 0.8"/>
      </g>
     </g>
     <g id="text_3">
      <text style="font-size: 9px; font-family: 'Arial'; text-anchor: middle; fill: #665a75" x="120.514783" y="286.254031" transform="rotate(-0 120.514783 286.254031)">2</text>
     </g>
    </g>
    <g id="xtick_4">
     <g id="line2d_7">
      <g>
       <use xlink:href="#m2968549a7b" x="159.332174" y="273.312" style="fill: #665a75; stroke: #665a75; stroke-width: 0.8"/>
      </g>
     </g>
     <g id="text_4">
      <text style="font-size: 9px; font-family: 'Arial'; text-anchor: middle; fill: #665a75" x="159.332174" y="286.254031" transform="rotate(-0 159.332174 286.254031)">3</text>
     </g>
    </g>
    <g id="xtick_5">
     <g id="line2d_8">
      <g>
       <use xlink:href="#m2968549a7b" x="198.149565" y="273.312" style="fill: #665a75; stroke: #665a75; stroke-width: 0.8"/>
      </g>
     </g>
     <g id="text_5">
      <text style="font-size: 9px; font-family: 'Arial'; text-anchor: middle; fill: #665a75" x="198.149565" y="286.254031" transform="rotate(-0 198.149565 286.254031)">4</text>
     </g>
    </g>
    <g id="xtick_6">
     <g id="line2d_9">
      <g>
       <use xlink:href="#m2968549a7b" x="236.966957" y="273.312" style="fill: #665a75; stroke: #665a75; stroke-width: 0.8"/>
      </g>
     </g>
     <g id="text_6">
      <text style="font-size: 9px; font-family: 'Arial'; text-anchor: middle; fill: #665a75" x="236.966957" y="286.254031" transform="rotate(-0 236.966957 286.254031)">5</text>
     </g>
    </g>
    <g id="xtick_7">
     <g id="line2d_10">
      <g>
       <use xlink:href="#m2968549a7b" x="275.784348" y="273.312" style="fill: #665a75; stroke: #665a75; stroke-width: 0.8"/>
      </g>
     </g>
     <g id="text_7">
      <text style="font-size: 9px; font-family: 'Arial'; text-anchor: middle; fill: #665a75" x="275.784348" y="286.254031" transform="rotate(-0 275.784348 286.254031)">6</text>
     </g>
    </g>
    <g id="xtick_8">
     <g id="line2d_11">
      <g>
       <use xlink:href="#m2968549a7b" x="314.601739" y="273.312" style="fill: #665a75; stroke: #665a75; stroke-width: 0.8"/>
      </g>
     </g>
     <g id="text_8">
      <text style="font-size: 9px; font-family: 'Arial'; text-anchor: middle; fill: #665a75" x="314.601739" y="286.254031" transform="rotate(-0 314.601739 286.254031)">7</text>
     </g>
    </g>
    <g id="text_9">
     <!-- $x$ -->
     <g style="fill: #231533" transform="translate(185.145217 301.916375)">
      <text>
       <tspan x="0" y="-0.984375" style="font-style: oblique; font-size: 11px; font-family: 'DejaVu Sans'; fill: #231533">x</tspan>
      </text>
     </g>
    </g>
   </g>
   <g id="matplotlib.axis_2">
    <g id="ytick_1">
     <g id="line2d_12">
      <defs>
       <path id="ma931822e61" d="M 0 0 
L -3 0 
" style="stroke: #665a75; stroke-width: 0.8"/>
      </defs>
      <g>
       <use xlink:href="#ma931822e61" x="42.88" y="247.559226" style="fill: #665a75; stroke: #665a75; stroke-width: 0.8"/>
      </g>
     </g>
     <g id="text_10">
      <text style="font-size: 9px; font-family: 'Arial'; text-anchor: end; fill: #665a75" x="36.38" y="250.780241" transform="rotate(-0 36.38 250.780241)">0.0</text>
     </g>
    </g>
    <g id="ytick_2">
     <g id="line2d_13">
      <g>
       <use xlink:href="#ma931822e61" x="42.88" y="204.637935" style="fill: #665a75; stroke: #665a75; stroke-width: 0.8"/>
      </g>
     </g>
     <g id="text_11">
      <text style="font-size: 9px; font-family: 'Arial'; text-anchor: end; fill: #665a75" x="36.38" y="207.858951" transform="rotate(-0 36.38 207.858951)">0.1</text>
     </g>
    </g>
    <g id="ytick_3">
     <g id="line2d_14">
      <g>
       <use xlink:href="#ma931822e61" x="42.88" y="161.716645" style="fill: #665a75; stroke: #665a75; stroke-width: 0.8"/>
      </g>
     </g>
     <g id="text_12">
      <text style="font-size: 9px; font-family: 'Arial'; text-anchor: end; fill: #665a75" x="36.38" y="164.937661" transform="rotate(-0 36.38 164.937661)">0.2</text>
     </g>
    </g>
    <g id="ytick_4">
     <g id="line2d_15">
      <g>
       <use xlink:href="#ma931822e61" x="42.88" y="118.795355" style="fill: #665a75; stroke: #665a75; stroke-width: 0.8"/>
      </g>
     </g>
     <g id="text_13">
      <text style="font-size: 9px; font-family: 'Arial'; text-anchor: end; fill: #665a75" x="36.38" y="122.01637" transform="rotate(-0 36.38 122.01637)">0.3</text>
     </g>
    </g>
    <g id="ytick_5">
     <g id="line2d_16">
      <g>
       <use xlink:href="#ma931822e61" x="42.88" y="75.874065" style="fill: #665a75; stroke: #665a75; stroke-width: 0.8"/>
      </g>
     </g>
     <g id="text_14">
      <text style="font-size: 9px; font-family: 'Arial'; text-anchor: end; fill: #665a75" x="36.38" y="79.09508" transform="rotate(-0 36.38 79.09508)">0.4</text>
     </g>
    </g>
    <g id="ytick_6">
     <g id="line2d_17">
      <g>
       <use xlink:href="#ma931822e61" x="42.88" y="32.952774" style="fill: #665a75; stroke: #665a75; stroke-width: 0.8"/>
      </g>
     </g>
     <g id="text_15">
      <text style="font-size: 9px; font-family: 'Arial'; text-anchor: end; fill: #665a75" x="36.38" y="36.17379" transform="rotate(-0 36.38 36.17379)">0.5</text>
     </g>
    </g>
    <g id="text_16">
     <!-- $p_t(x)$ -->
     <g style="fill: #231533" transform="translate(15.56 152.961) rotate(-90)">
      <text>
       <tspan x="0" y="-0.65625" style="font-style: oblique; font-size: 11px; font-family: 'DejaVu Sans'; fill: #231533">p</tspan>
       <tspan x="14.593799" y="-0.65625" style="font-style: oblique; font-size: 11px; font-family: 'DejaVu Sans'; fill: #231533">x</tspan>
       <tspan x="6.982422" y="1.148438" style="font-style: oblique; font-size: 7.7px; font-family: 'DejaVu Sans'; fill: #231533">t</tspan>
       <tspan x="10.302295" y="-0.65625" style="font-size: 11px; font-family: 'DejaVu Sans'; fill: #231533">(</tspan>
       <tspan x="21.103564" y="-0.65625" style="font-size: 11px; font-family: 'DejaVu Sans'; fill: #231533">)</tspan>
      </text>
     </g>
    </g>
   </g>
   <g id="line2d_18">
    <path d="M 42.88 242.751654 
L 47.254247 241.510714 
L 51.142466 240.1878 
L 55.030686 238.62872 
L 58.918905 236.803933 
L 62.321097 234.965331 
L 65.72329 232.879301 
L 69.125482 230.525348 
L 72.527674 227.883573 
L 75.929866 224.935158 
L 79.332058 221.662898 
L 82.73425 218.051782 
L 86.136442 214.089594 
L 89.538634 209.767545 
L 92.940826 205.080898 
L 96.343018 200.029584 
L 100.231238 193.817022 
L 104.119457 187.152122 
L 108.007677 180.062581 
L 112.381923 171.628307 
L 117.242198 161.774557 
L 123.560555 148.413252 
L 140.085487 113.127163 
L 144.459734 104.436443 
L 148.347954 97.192315 
L 151.750146 91.316334 
L 154.666311 86.680442 
L 157.582475 82.459274 
L 160.012612 79.286967 
L 162.44275 76.450985 
L 164.872887 73.970247 
L 167.303024 71.861479 
L 169.247134 70.452009 
L 171.191243 69.296013 
L 173.135353 68.398585 
L 175.079463 67.763696 
L 177.023573 67.394163 
L 178.967682 67.291627 
L 180.911792 67.456547 
L 182.855902 67.888187 
L 184.800012 68.58463 
L 186.744121 69.542787 
L 188.688231 70.758424 
L 190.632341 72.226187 
L 192.576451 73.939649 
L 195.006588 76.415532 
L 197.436725 79.246897 
L 199.866862 82.414853 
L 202.783027 86.631185 
L 205.699191 91.262698 
L 209.101383 97.134184 
L 212.503576 103.441673 
L 216.877822 112.072195 
L 222.224124 123.197375 
L 230.972618 142.051991 
L 239.235085 159.685544 
L 244.581386 170.599595 
L 249.441661 180.00182 
L 253.815908 187.952206 
L 257.704127 194.565549 
L 261.592347 200.724032 
L 264.994539 205.726903 
L 268.396731 210.364825 
L 271.798923 214.638524 
L 275.201115 218.553313 
L 278.603307 222.118476 
L 282.005499 225.346635 
L 285.407691 228.25313 
L 288.809883 230.855413 
L 292.212075 233.172475 
L 295.614267 235.224323 
L 299.016459 237.031497 
L 302.904679 238.823727 
L 306.792898 240.353755 
L 310.681118 241.650979 
L 315.055365 242.8668 
L 319.429612 243.860323 
L 324.289886 244.74447 
L 329.636188 245.497209 
L 334.010435 245.974003 
L 334.010435 245.974003 
" clip-path="url(#p0f15d17670)" style="fill: none; stroke: #7a53ec; stroke-width: 2.2; stroke-linecap: square"/>
   </g>
   <g id="patch_3">
    <path d="M 42.88 273.312 
L 42.88 7.2 
" style="fill: none; stroke: #c8bbd8; stroke-width: 0.8; stroke-linejoin: miter; stroke-linecap: square"/>
   </g>
   <g id="patch_4">
    <path d="M 42.88 273.312 
L 334.010435 273.312 
" style="fill: none; stroke: #c8bbd8; stroke-width: 0.8; stroke-linejoin: miter; stroke-linecap: square"/>
   </g>
   <g id="text_17">
    <!-- $x$ -->
    <g style="fill: #16877f" transform="translate(129.31 267.235535)">
     <text>
      <tspan x="0" y="-0.53125" style="font-style: oblique; font-size: 9.5px; font-family: 'DejaVu Sans'; fill: #16877f">x</tspan>
     </text>
    </g>
   </g>
   <g id="text_18">
    <!-- $x - \epsilon$ -->
    <g style="fill: #16877f" transform="translate(82.132609 267.235535)">
     <text>
      <tspan x="0" y="-0.390625" style="font-style: oblique; font-size: 9.5px; font-family: 'DejaVu Sans'; fill: #16877f">x</tspan>
      <tspan x="17.283691" y="-0.390625" style="font-style: oblique; font-size: 9.5px; font-family: 'DejaVu Sans'; fill: #16877f">ε</tspan>
      <tspan x="7.4729" y="-0.390625" style="font-size: 9.5px; font-family: 'DejaVu Sans'; fill: #16877f">−</tspan>
     </text>
    </g>
   </g>
   <g id="text_19">
    <!-- $x + \epsilon$ -->
    <g style="fill: #16877f" transform="translate(159.767391 267.235535)">
     <text>
      <tspan x="0" y="-0.734375" style="font-style: oblique; font-size: 9.5px; font-family: 'DejaVu Sans'; fill: #16877f">x</tspan>
      <tspan x="17.283691" y="-0.734375" style="font-style: oblique; font-size: 9.5px; font-family: 'DejaVu Sans'; fill: #16877f">ε</tspan>
      <tspan x="7.4729" y="-0.734375" style="font-size: 9.5px; font-family: 'DejaVu Sans'; fill: #16877f">+</tspan>
     </text>
    </g>
   </g>
   <g id="patch_5">
    <path d="M 130.155635 112.657986 
Q 112.748987 112.657986 97.578408 112.657986 
" clip-path="url(#p0f15d17670)" style="fill: none; stroke: #16877f; stroke-width: 2; stroke-linecap: round"/>
    <path d="M 102.778408 115.257986 
L 97.578408 112.657986 
L 102.778408 110.057986 
z
" clip-path="url(#p0f15d17670)" style="fill: #16877f; stroke: #16877f; stroke-width: 2; stroke-linecap: round"/>
   </g>
   <g id="patch_6">
    <path d="M 134.164365 112.657986 
Q 151.571013 112.657986 166.741592 112.657986 
" clip-path="url(#p0f15d17670)" style="fill: none; stroke: #16877f; stroke-width: 2; stroke-linecap: round"/>
    <path d="M 161.541592 110.057986 
L 166.741592 112.657986 
L 161.541592 115.257986 
z
" clip-path="url(#p0f15d17670)" style="fill: #16877f; stroke: #16877f; stroke-width: 2; stroke-linecap: round"/>
   </g>
   <g id="text_20">
    <!-- $-\epsilon$ -->
    <g style="fill: #16877f" transform="translate(105.851304 102.086228)">
     <text>
      <tspan x="0" y="-0.390625" style="font-size: 10px; font-family: 'DejaVu Sans'; fill: #16877f">−</tspan>
      <tspan x="8.378906" y="-0.390625" style="font-style: oblique; font-size: 10px; font-family: 'DejaVu Sans'; fill: #16877f">ε</tspan>
     </text>
    </g>
   </g>
   <g id="text_21">
    <!-- $+\epsilon$ -->
    <g style="fill: #16877f" transform="translate(144.668696 102.086228)">
     <text>
      <tspan x="0" y="-0.734375" style="font-size: 10px; font-family: 'DejaVu Sans'; fill: #16877f">+</tspan>
      <tspan x="8.378906" y="-0.734375" style="font-style: oblique; font-size: 10px; font-family: 'DejaVu Sans'; fill: #16877f">ε</tspan>
     </text>
    </g>
   </g>
   <g id="text_22">
    <g id="patch_7">
     <path d="M 150.781478 55.218845 
L 229.990696 55.218845 
Q 232.840696 55.218845 232.840696 52.368845 
L 232.840696 32.952774 
Q 232.840696 30.102774 229.990696 30.102774 
L 150.781478 30.102774 
Q 147.931478 30.102774 147.931478 32.952774 
L 147.931478 52.368845 
Q 147.931478 55.218845 150.781478 55.218845 
z
" style="fill: #ffffff; opacity: 0.85; stroke: #16877f; stroke-width: 0.6; stroke-linejoin: miter"/>
    </g>
    <text style="font-style: italic; font-size: 9.5px; font-family: 'Arial'; fill: #16877f" transform="translate(150.781478 39.752696)">slope contributions</text>
    <text style="font-style: italic; font-size: 9.5px; font-family: 'Arial'; fill: #16877f" transform="translate(168.734251 50.48072)">cancel out</text>
   </g>
   <g id="text_23">
    <text style="font-weight: 700; font-size: 13px; font-family: 'Arial'; text-anchor: start; fill: #231533" x="50.643478" y="20.076387" transform="rotate(-0 50.643478 20.076387)">(a)</text>
   </g>
   <g id="line2d_19">
    <path d="M 93.342609 129.826502 
L 93.342609 204.503301 
" clip-path="url(#p0f15d17670)" style="fill: none; stroke: #3c8f63; stroke-opacity: 0.6; stroke-width: 2.5; stroke-linecap: square"/>
   </g>
   <g id="line2d_20">
    <path d="M 90.237217 129.826502 
L 96.448 129.826502 
" clip-path="url(#p0f15d17670)" style="fill: none; stroke: #3c8f63; stroke-opacity: 0.6; stroke-width: 1.5; stroke-linecap: square"/>
   </g>
   <g id="line2d_21">
    <path d="M 170.977391 129.826502 
L 170.977391 69.410599 
" clip-path="url(#p0f15d17670)" style="fill: none; stroke: #c7506b; stroke-opacity: 0.6; stroke-width: 2.5; stroke-linecap: square"/>
   </g>
   <g id="line2d_22">
    <path d="M 167.872 129.826502 
L 174.082783 129.826502 
" clip-path="url(#p0f15d17670)" style="fill: none; stroke: #c7506b; stroke-opacity: 0.6; stroke-width: 1.5; stroke-linecap: square"/>
   </g>
   <g id="line2d_23">
    <defs>
     <path id="m6d33f46b4f" d="M 0 3.5 
C 0.928211 3.5 1.81853 3.131218 2.474874 2.474874 
C 3.131218 1.81853 3.5 0.928211 3.5 0 
C 3.5 -0.928211 3.131218 -1.81853 2.474874 -2.474874 
C 1.81853 -3.131218 0.928211 -3.5 0 -3.5 
C -0.928211 -3.5 -1.81853 -3.131218 -2.474874 -2.474874 
C -3.131218 -1.81853 -3.5 -0.928211 -3.5 0 
C -3.5 0.928211 -3.131218 1.81853 -2.474874 2.474874 
C -1.81853 3.131218 -0.928211 3.5 0 3.5 
z
" style="stroke: #16877f"/>
    </defs>
    <g clip-path="url(#p0f15d17670)">
     <use xlink:href="#m6d33f46b4f" x="132.16" y="129.826502" style="fill: #16877f; stroke: #16877f"/>
    </g>
   </g>
   <g id="line2d_24">
    <g clip-path="url(#p0f15d17670)">
     <use xlink:href="#m6d33f46b4f" x="93.342609" y="204.503301" style="fill: #16877f; stroke: #16877f"/>
    </g>
   </g>
   <g id="line2d_25">
    <g clip-path="url(#p0f15d17670)">
     <use xlink:href="#m6d33f46b4f" x="170.977391" y="69.410599" style="fill: #16877f; stroke: #16877f"/>
    </g>
   </g>
  </g>
  <g id="axes_2">
   <g id="patch_8">
    <path d="M 421.349565 273.312 
L 712.48 273.312 
L 712.48 7.2 
L 421.349565 7.2 
L 421.349565 273.312 
z
" style="fill: none"/>
   </g>
   <g id="FillBetweenPolyCollection_2">
    <defs>
     <path id="ma85ed06afc" d="M 421.349565 -68.550971 
L 421.349565 -63.743399 
L 421.835593 -63.743399 
L 422.32162 -63.743399 
L 422.807648 -63.743399 
L 423.293675 -63.743399 
L 423.779702 -63.743399 
L 424.26573 -63.743399 
L 424.751757 -63.743399 
L 425.237785 -63.743399 
L 425.723812 -63.743399 
L 426.20984 -63.743399 
L 426.695867 -63.743399 
L 427.181894 -63.743399 
L 427.667922 -63.743399 
L 428.153949 -63.743399 
L 428.639977 -63.743399 
L 429.126004 -63.743399 
L 429.612032 -63.743399 
L 430.098059 -63.743399 
L 430.584087 -63.743399 
L 431.070114 -63.743399 
L 431.556141 -63.743399 
L 432.042169 -63.743399 
L 432.528196 -63.743399 
L 433.014224 -63.743399 
L 433.500251 -63.743399 
L 433.986279 -63.743399 
L 434.472306 -63.743399 
L 434.958333 -63.743399 
L 435.444361 -63.743399 
L 435.930388 -63.743399 
L 436.416416 -63.743399 
L 436.902443 -63.743399 
L 437.388471 -63.743399 
L 437.874498 -63.743399 
L 438.360526 -63.743399 
L 438.846553 -63.743399 
L 439.33258 -63.743399 
L 439.818608 -63.743399 
L 440.304635 -63.743399 
L 440.790663 -63.743399 
L 441.27669 -63.743399 
L 441.762718 -63.743399 
L 442.248745 -63.743399 
L 442.734772 -63.743399 
L 443.2208 -63.743399 
L 443.706827 -63.743399 
L 444.192855 -63.743399 
L 444.678882 -63.743399 
L 445.16491 -63.743399 
L 445.650937 -63.743399 
L 446.136965 -63.743399 
L 446.622992 -63.743399 
L 447.109019 -63.743399 
L 447.595047 -63.743399 
L 448.081074 -63.743399 
L 448.567102 -63.743399 
L 449.053129 -63.743399 
L 449.539157 -63.743399 
L 450.025184 -63.743399 
L 450.511211 -63.743399 
L 450.997239 -63.743399 
L 451.483266 -63.743399 
L 451.969294 -63.743399 
L 452.455321 -63.743399 
L 452.941349 -63.743399 
L 453.427376 -63.743399 
L 453.913403 -63.743399 
L 454.399431 -63.743399 
L 454.885458 -63.743399 
L 455.371486 -63.743399 
L 455.857513 -63.743399 
L 456.343541 -63.743399 
L 456.829568 -63.743399 
L 457.315596 -63.743399 
L 457.801623 -63.743399 
L 458.28765 -63.743399 
L 458.773678 -63.743399 
L 459.259705 -63.743399 
L 459.745733 -63.743399 
L 460.23176 -63.743399 
L 460.717788 -63.743399 
L 461.203815 -63.743399 
L 461.689842 -63.743399 
L 462.17587 -63.743399 
L 462.661897 -63.743399 
L 463.147925 -63.743399 
L 463.633952 -63.743399 
L 464.11998 -63.743399 
L 464.606007 -63.743399 
L 465.092035 -63.743399 
L 465.578062 -63.743399 
L 466.064089 -63.743399 
L 466.550117 -63.743399 
L 467.036144 -63.743399 
L 467.522172 -63.743399 
L 468.008199 -63.743399 
L 468.494227 -63.743399 
L 468.980254 -63.743399 
L 469.466281 -63.743399 
L 469.952309 -63.743399 
L 470.438336 -63.743399 
L 470.924364 -63.743399 
L 471.410391 -63.743399 
L 471.896419 -63.743399 
L 472.382446 -63.743399 
L 472.868474 -63.743399 
L 473.354501 -63.743399 
L 473.840528 -63.743399 
L 474.326556 -63.743399 
L 474.812583 -63.743399 
L 475.298611 -63.743399 
L 475.784638 -63.743399 
L 476.270666 -63.743399 
L 476.756693 -63.743399 
L 477.24272 -63.743399 
L 477.728748 -63.743399 
L 478.214775 -63.743399 
L 478.700803 -63.743399 
L 479.18683 -63.743399 
L 479.672858 -63.743399 
L 480.158885 -63.743399 
L 480.644913 -63.743399 
L 481.13094 -63.743399 
L 481.616967 -63.743399 
L 482.102995 -63.743399 
L 482.589022 -63.743399 
L 483.07505 -63.743399 
L 483.561077 -63.743399 
L 484.047105 -63.743399 
L 484.533132 -63.743399 
L 485.019159 -63.743399 
L 485.505187 -63.743399 
L 485.991214 -63.743399 
L 486.477242 -63.743399 
L 486.963269 -63.743399 
L 487.449297 -63.743399 
L 487.935324 -63.743399 
L 488.421352 -63.743399 
L 488.907379 -63.743399 
L 489.393406 -63.743399 
L 489.879434 -63.743399 
L 490.365461 -63.743399 
L 490.851489 -63.743399 
L 491.337516 -63.743399 
L 491.823544 -63.743399 
L 492.309571 -63.743399 
L 492.795598 -63.743399 
L 493.281626 -63.743399 
L 493.767653 -63.743399 
L 494.253681 -63.743399 
L 494.739708 -63.743399 
L 495.225736 -63.743399 
L 495.711763 -63.743399 
L 496.197791 -63.743399 
L 496.683818 -63.743399 
L 497.169845 -63.743399 
L 497.655873 -63.743399 
L 498.1419 -63.743399 
L 498.627928 -63.743399 
L 499.113955 -63.743399 
L 499.599983 -63.743399 
L 500.08601 -63.743399 
L 500.572037 -63.743399 
L 501.058065 -63.743399 
L 501.544092 -63.743399 
L 502.03012 -63.743399 
L 502.516147 -63.743399 
L 503.002175 -63.743399 
L 503.488202 -63.743399 
L 503.97423 -63.743399 
L 504.460257 -63.743399 
L 504.946284 -63.743399 
L 505.432312 -63.743399 
L 505.918339 -63.743399 
L 506.404367 -63.743399 
L 506.890394 -63.743399 
L 507.376422 -63.743399 
L 507.862449 -63.743399 
L 508.348476 -63.743399 
L 508.834504 -63.743399 
L 509.320531 -63.743399 
L 509.806559 -63.743399 
L 510.292586 -63.743399 
L 510.778614 -63.743399 
L 511.264641 -63.743399 
L 511.750669 -63.743399 
L 512.236696 -63.743399 
L 512.722723 -63.743399 
L 513.208751 -63.743399 
L 513.694778 -63.743399 
L 514.180806 -63.743399 
L 514.666833 -63.743399 
L 515.152861 -63.743399 
L 515.638888 -63.743399 
L 516.124915 -63.743399 
L 516.610943 -63.743399 
L 517.09697 -63.743399 
L 517.582998 -63.743399 
L 518.069025 -63.743399 
L 518.555053 -63.743399 
L 519.04108 -63.743399 
L 519.527107 -63.743399 
L 520.013135 -63.743399 
L 520.499162 -63.743399 
L 520.98519 -63.743399 
L 521.471217 -63.743399 
L 521.957245 -63.743399 
L 522.443272 -63.743399 
L 522.9293 -63.743399 
L 523.415327 -63.743399 
L 523.901354 -63.743399 
L 524.387382 -63.743399 
L 524.873409 -63.743399 
L 525.359437 -63.743399 
L 525.845464 -63.743399 
L 526.331492 -63.743399 
L 526.817519 -63.743399 
L 527.303546 -63.743399 
L 527.789574 -63.743399 
L 528.275601 -63.743399 
L 528.761629 -63.743399 
L 529.247656 -63.743399 
L 529.733684 -63.743399 
L 530.219711 -63.743399 
L 530.705739 -63.743399 
L 531.191766 -63.743399 
L 531.677793 -63.743399 
L 532.163821 -63.743399 
L 532.649848 -63.743399 
L 533.135876 -63.743399 
L 533.621903 -63.743399 
L 534.107931 -63.743399 
L 534.593958 -63.743399 
L 535.079985 -63.743399 
L 535.566013 -63.743399 
L 536.05204 -63.743399 
L 536.538068 -63.743399 
L 537.024095 -63.743399 
L 537.510123 -63.743399 
L 537.99615 -63.743399 
L 538.482178 -63.743399 
L 538.968205 -63.743399 
L 539.454232 -63.743399 
L 539.94026 -63.743399 
L 540.426287 -63.743399 
L 540.912315 -63.743399 
L 541.398342 -63.743399 
L 541.88437 -63.743399 
L 542.370397 -63.743399 
L 542.856424 -63.743399 
L 543.342452 -63.743399 
L 543.828479 -63.743399 
L 544.314507 -63.743399 
L 544.800534 -63.743399 
L 545.286562 -63.743399 
L 545.772589 -63.743399 
L 546.258617 -63.743399 
L 546.744644 -63.743399 
L 547.230671 -63.743399 
L 547.716699 -63.743399 
L 548.202726 -63.743399 
L 548.688754 -63.743399 
L 549.174781 -63.743399 
L 549.660809 -63.743399 
L 550.146836 -63.743399 
L 550.632863 -63.743399 
L 551.118891 -63.743399 
L 551.604918 -63.743399 
L 552.090946 -63.743399 
L 552.576973 -63.743399 
L 553.063001 -63.743399 
L 553.549028 -63.743399 
L 554.035056 -63.743399 
L 554.521083 -63.743399 
L 555.00711 -63.743399 
L 555.493138 -63.743399 
L 555.979165 -63.743399 
L 556.465193 -63.743399 
L 556.95122 -63.743399 
L 557.437248 -63.743399 
L 557.923275 -63.743399 
L 558.409302 -63.743399 
L 558.89533 -63.743399 
L 559.381357 -63.743399 
L 559.867385 -63.743399 
L 560.353412 -63.743399 
L 560.83944 -63.743399 
L 561.325467 -63.743399 
L 561.811495 -63.743399 
L 562.297522 -63.743399 
L 562.783549 -63.743399 
L 563.269577 -63.743399 
L 563.755604 -63.743399 
L 564.241632 -63.743399 
L 564.727659 -63.743399 
L 565.213687 -63.743399 
L 565.699714 -63.743399 
L 566.185741 -63.743399 
L 566.671769 -63.743399 
L 567.157796 -63.743399 
L 567.643824 -63.743399 
L 568.129851 -63.743399 
L 568.615879 -63.743399 
L 569.101906 -63.743399 
L 569.587934 -63.743399 
L 570.073961 -63.743399 
L 570.559988 -63.743399 
L 571.046016 -63.743399 
L 571.532043 -63.743399 
L 572.018071 -63.743399 
L 572.504098 -63.743399 
L 572.990126 -63.743399 
L 573.476153 -63.743399 
L 573.96218 -63.743399 
L 574.448208 -63.743399 
L 574.934235 -63.743399 
L 575.420263 -63.743399 
L 575.90629 -63.743399 
L 576.392318 -63.743399 
L 576.878345 -63.743399 
L 577.364373 -63.743399 
L 577.8504 -63.743399 
L 578.336427 -63.743399 
L 578.822455 -63.743399 
L 579.308482 -63.743399 
L 579.79451 -63.743399 
L 580.280537 -63.743399 
L 580.766565 -63.743399 
L 581.252592 -63.743399 
L 581.738619 -63.743399 
L 582.224647 -63.743399 
L 582.710674 -63.743399 
L 583.196702 -63.743399 
L 583.682729 -63.743399 
L 584.168757 -63.743399 
L 584.654784 -63.743399 
L 585.140811 -63.743399 
L 585.626839 -63.743399 
L 586.112866 -63.743399 
L 586.598894 -63.743399 
L 587.084921 -63.743399 
L 587.570949 -63.743399 
L 588.056976 -63.743399 
L 588.543004 -63.743399 
L 589.029031 -63.743399 
L 589.515058 -63.743399 
L 590.001086 -63.743399 
L 590.487113 -63.743399 
L 590.973141 -63.743399 
L 591.459168 -63.743399 
L 591.945196 -63.743399 
L 592.431223 -63.743399 
L 592.91725 -63.743399 
L 593.403278 -63.743399 
L 593.889305 -63.743399 
L 594.375333 -63.743399 
L 594.86136 -63.743399 
L 595.347388 -63.743399 
L 595.833415 -63.743399 
L 596.319443 -63.743399 
L 596.80547 -63.743399 
L 597.291497 -63.743399 
L 597.777525 -63.743399 
L 598.263552 -63.743399 
L 598.74958 -63.743399 
L 599.235607 -63.743399 
L 599.721635 -63.743399 
L 600.207662 -63.743399 
L 600.693689 -63.743399 
L 601.179717 -63.743399 
L 601.665744 -63.743399 
L 602.151772 -63.743399 
L 602.637799 -63.743399 
L 603.123827 -63.743399 
L 603.609854 -63.743399 
L 604.095882 -63.743399 
L 604.581909 -63.743399 
L 605.067936 -63.743399 
L 605.553964 -63.743399 
L 606.039991 -63.743399 
L 606.526019 -63.743399 
L 607.012046 -63.743399 
L 607.498074 -63.743399 
L 607.984101 -63.743399 
L 608.470128 -63.743399 
L 608.956156 -63.743399 
L 609.442183 -63.743399 
L 609.928211 -63.743399 
L 610.414238 -63.743399 
L 610.900266 -63.743399 
L 611.386293 -63.743399 
L 611.872321 -63.743399 
L 612.358348 -63.743399 
L 612.844375 -63.743399 
L 613.330403 -63.743399 
L 613.81643 -63.743399 
L 614.302458 -63.743399 
L 614.788485 -63.743399 
L 615.274513 -63.743399 
L 615.76054 -63.743399 
L 616.246567 -63.743399 
L 616.732595 -63.743399 
L 617.218622 -63.743399 
L 617.70465 -63.743399 
L 618.190677 -63.743399 
L 618.676705 -63.743399 
L 619.162732 -63.743399 
L 619.64876 -63.743399 
L 620.134787 -63.743399 
L 620.620814 -63.743399 
L 621.106842 -63.743399 
L 621.592869 -63.743399 
L 622.078897 -63.743399 
L 622.564924 -63.743399 
L 623.050952 -63.743399 
L 623.536979 -63.743399 
L 624.023006 -63.743399 
L 624.509034 -63.743399 
L 624.995061 -63.743399 
L 625.481089 -63.743399 
L 625.967116 -63.743399 
L 626.453144 -63.743399 
L 626.939171 -63.743399 
L 627.425199 -63.743399 
L 627.911226 -63.743399 
L 628.397253 -63.743399 
L 628.883281 -63.743399 
L 629.369308 -63.743399 
L 629.855336 -63.743399 
L 630.341363 -63.743399 
L 630.827391 -63.743399 
L 631.313418 -63.743399 
L 631.799445 -63.743399 
L 632.285473 -63.743399 
L 632.7715 -63.743399 
L 633.257528 -63.743399 
L 633.743555 -63.743399 
L 634.229583 -63.743399 
L 634.71561 -63.743399 
L 635.201638 -63.743399 
L 635.687665 -63.743399 
L 636.173692 -63.743399 
L 636.65972 -63.743399 
L 637.145747 -63.743399 
L 637.631775 -63.743399 
L 638.117802 -63.743399 
L 638.60383 -63.743399 
L 639.089857 -63.743399 
L 639.575884 -63.743399 
L 640.061912 -63.743399 
L 640.547939 -63.743399 
L 641.033967 -63.743399 
L 641.519994 -63.743399 
L 642.006022 -63.743399 
L 642.492049 -63.743399 
L 642.978077 -63.743399 
L 643.464104 -63.743399 
L 643.950131 -63.743399 
L 644.436159 -63.743399 
L 644.922186 -63.743399 
L 645.408214 -63.743399 
L 645.894241 -63.743399 
L 646.380269 -63.743399 
L 646.866296 -63.743399 
L 647.352323 -63.743399 
L 647.838351 -63.743399 
L 648.324378 -63.743399 
L 648.810406 -63.743399 
L 649.296433 -63.743399 
L 649.782461 -63.743399 
L 650.268488 -63.743399 
L 650.754515 -63.743399 
L 651.240543 -63.743399 
L 651.72657 -63.743399 
L 652.212598 -63.743399 
L 652.698625 -63.743399 
L 653.184653 -63.743399 
L 653.67068 -63.743399 
L 654.156708 -63.743399 
L 654.642735 -63.743399 
L 655.128762 -63.743399 
L 655.61479 -63.743399 
L 656.100817 -63.743399 
L 656.586845 -63.743399 
L 657.072872 -63.743399 
L 657.5589 -63.743399 
L 658.044927 -63.743399 
L 658.530954 -63.743399 
L 659.016982 -63.743399 
L 659.503009 -63.743399 
L 659.989037 -63.743399 
L 660.475064 -63.743399 
L 660.961092 -63.743399 
L 661.447119 -63.743399 
L 661.933147 -63.743399 
L 662.419174 -63.743399 
L 662.905201 -63.743399 
L 663.391229 -63.743399 
L 663.877256 -63.743399 
L 664.363284 -63.743399 
L 664.849311 -63.743399 
L 665.335339 -63.743399 
L 665.821366 -63.743399 
L 666.307393 -63.743399 
L 666.793421 -63.743399 
L 667.279448 -63.743399 
L 667.765476 -63.743399 
L 668.251503 -63.743399 
L 668.737531 -63.743399 
L 669.223558 -63.743399 
L 669.709586 -63.743399 
L 670.195613 -63.743399 
L 670.68164 -63.743399 
L 671.167668 -63.743399 
L 671.653695 -63.743399 
L 672.139723 -63.743399 
L 672.62575 -63.743399 
L 673.111778 -63.743399 
L 673.597805 -63.743399 
L 674.083832 -63.743399 
L 674.56986 -63.743399 
L 675.055887 -63.743399 
L 675.541915 -63.743399 
L 676.027942 -63.743399 
L 676.51397 -63.743399 
L 676.999997 -63.743399 
L 677.486025 -63.743399 
L 677.972052 -63.743399 
L 678.458079 -63.743399 
L 678.944107 -63.743399 
L 679.430134 -63.743399 
L 679.916162 -63.743399 
L 680.402189 -63.743399 
L 680.888217 -63.743399 
L 681.374244 -63.743399 
L 681.860271 -63.743399 
L 682.346299 -63.743399 
L 682.832326 -63.743399 
L 683.318354 -63.743399 
L 683.804381 -63.743399 
L 684.290409 -63.743399 
L 684.776436 -63.743399 
L 685.262464 -63.743399 
L 685.748491 -63.743399 
L 686.234518 -63.743399 
L 686.720546 -63.743399 
L 687.206573 -63.743399 
L 687.692601 -63.743399 
L 688.178628 -63.743399 
L 688.664656 -63.743399 
L 689.150683 -63.743399 
L 689.63671 -63.743399 
L 690.122738 -63.743399 
L 690.608765 -63.743399 
L 691.094793 -63.743399 
L 691.58082 -63.743399 
L 692.066848 -63.743399 
L 692.552875 -63.743399 
L 693.038903 -63.743399 
L 693.52493 -63.743399 
L 694.010957 -63.743399 
L 694.496985 -63.743399 
L 694.983012 -63.743399 
L 695.46904 -63.743399 
L 695.955067 -63.743399 
L 696.441095 -63.743399 
L 696.927122 -63.743399 
L 697.413149 -63.743399 
L 697.899177 -63.743399 
L 698.385204 -63.743399 
L 698.871232 -63.743399 
L 699.357259 -63.743399 
L 699.843287 -63.743399 
L 700.329314 -63.743399 
L 700.815342 -63.743399 
L 701.301369 -63.743399 
L 701.787396 -63.743399 
L 702.273424 -63.743399 
L 702.759451 -63.743399 
L 703.245479 -63.743399 
L 703.731506 -63.743399 
L 704.217534 -63.743399 
L 704.703561 -63.743399 
L 705.189588 -63.743399 
L 705.675616 -63.743399 
L 706.161643 -63.743399 
L 706.647671 -63.743399 
L 707.133698 -63.743399 
L 707.619726 -63.743399 
L 708.105753 -63.743399 
L 708.591781 -63.743399 
L 709.077808 -63.743399 
L 709.563835 -63.743399 
L 710.049863 -63.743399 
L 710.53589 -63.743399 
L 711.021918 -63.743399 
L 711.507945 -63.743399 
L 711.993973 -63.743399 
L 712.48 -63.743399 
L 712.48 -65.328622 
L 712.48 -65.328622 
L 711.993973 -65.376227 
L 711.507945 -65.425107 
L 711.021918 -65.475288 
L 710.53589 -65.526802 
L 710.049863 -65.579678 
L 709.563835 -65.633946 
L 709.077808 -65.689637 
L 708.591781 -65.746783 
L 708.105753 -65.805416 
L 707.619726 -65.865568 
L 707.133698 -65.927271 
L 706.647671 -65.990561 
L 706.161643 -66.05547 
L 705.675616 -66.122033 
L 705.189588 -66.190286 
L 704.703561 -66.260264 
L 704.217534 -66.332002 
L 703.731506 -66.405539 
L 703.245479 -66.480911 
L 702.759451 -66.558155 
L 702.273424 -66.637311 
L 701.787396 -66.718417 
L 701.301369 -66.801512 
L 700.815342 -66.886636 
L 700.329314 -66.97383 
L 699.843287 -67.063135 
L 699.357259 -67.154592 
L 698.871232 -67.248244 
L 698.385204 -67.344133 
L 697.899177 -67.442302 
L 697.413149 -67.542796 
L 696.927122 -67.645657 
L 696.441095 -67.750932 
L 695.955067 -67.858664 
L 695.46904 -67.968901 
L 694.983012 -68.081689 
L 694.496985 -68.197073 
L 694.010957 -68.315103 
L 693.52493 -68.435825 
L 693.038903 -68.559288 
L 692.552875 -68.685541 
L 692.066848 -68.814634 
L 691.58082 -68.946616 
L 691.094793 -69.081538 
L 690.608765 -69.21945 
L 690.122738 -69.360404 
L 689.63671 -69.504452 
L 689.150683 -69.651646 
L 688.664656 -69.802038 
L 688.178628 -69.955683 
L 687.692601 -70.112632 
L 687.206573 -70.272942 
L 686.720546 -70.436665 
L 686.234518 -70.603857 
L 685.748491 -70.774574 
L 685.262464 -70.94887 
L 684.776436 -71.126801 
L 684.290409 -71.308425 
L 683.804381 -71.493797 
L 683.318354 -71.682975 
L 682.832326 -71.876017 
L 682.346299 -72.072979 
L 681.860271 -72.27392 
L 681.374244 -72.478898 
L 680.888217 -72.687972 
L 680.402189 -72.9012 
L 679.916162 -73.118641 
L 679.430134 -73.340355 
L 678.944107 -73.566401 
L 678.458079 -73.796839 
L 677.972052 -74.031728 
L 677.486025 -74.271128 
L 676.999997 -74.5151 
L 676.51397 -74.763703 
L 676.027942 -75.016998 
L 675.541915 -75.275045 
L 675.055887 -75.537905 
L 674.56986 -75.805637 
L 674.083832 -76.078302 
L 673.597805 -76.355961 
L 673.111778 -76.638674 
L 672.62575 -76.926501 
L 672.139723 -77.219502 
L 671.653695 -77.517737 
L 671.167668 -77.821267 
L 670.68164 -78.13015 
L 670.195613 -78.444447 
L 669.709586 -78.764216 
L 669.223558 -79.089517 
L 668.737531 -79.420409 
L 668.251503 -79.75695 
L 667.765476 -80.099199 
L 667.279448 -80.447212 
L 666.793421 -80.801048 
L 666.307393 -81.160764 
L 665.821366 -81.526415 
L 665.335339 -81.898059 
L 664.849311 -82.27575 
L 664.363284 -82.659544 
L 663.877256 -83.049495 
L 663.391229 -83.445657 
L 662.905201 -83.848083 
L 662.419174 -84.256826 
L 661.933147 -84.671937 
L 661.447119 -85.093469 
L 660.961092 -85.52147 
L 660.475064 -85.95599 
L 659.989037 -86.397078 
L 659.503009 -86.844783 
L 659.016982 -87.29915 
L 658.530954 -87.760226 
L 658.044927 -88.228055 
L 657.5589 -88.702682 
L 657.072872 -89.184149 
L 656.586845 -89.672498 
L 656.100817 -90.167771 
L 655.61479 -90.670005 
L 655.128762 -91.17924 
L 654.642735 -91.695512 
L 654.156708 -92.218858 
L 653.67068 -92.749312 
L 653.184653 -93.286906 
L 652.698625 -93.831673 
L 652.212598 -94.383642 
L 651.72657 -94.942843 
L 651.240543 -95.509303 
L 650.754515 -96.083048 
L 650.268488 -96.664101 
L 649.782461 -97.252485 
L 649.296433 -97.848222 
L 648.810406 -98.45133 
L 648.324378 -99.061827 
L 647.838351 -99.679729 
L 647.352323 -100.305049 
L 646.866296 -100.9378 
L 646.380269 -101.577991 
L 645.894241 -102.225632 
L 645.408214 -102.880728 
L 644.922186 -103.543283 
L 644.436159 -104.213301 
L 643.950131 -104.890781 
L 643.464104 -105.575722 
L 642.978077 -106.268119 
L 642.492049 -106.967966 
L 642.006022 -107.675256 
L 641.519994 -108.389977 
L 641.033967 -109.112118 
L 640.547939 -109.841662 
L 640.061912 -110.578593 
L 639.575884 -111.32289 
L 639.089857 -112.074532 
L 638.60383 -112.833494 
L 638.117802 -113.599749 
L 637.631775 -114.373268 
L 637.145747 -115.154019 
L 636.65972 -115.941967 
L 636.173692 -116.737076 
L 635.687665 -117.539305 
L 635.201638 -118.348613 
L 634.71561 -119.164955 
L 634.229583 -119.988283 
L 633.743555 -120.818548 
L 633.257528 -121.655696 
L 632.7715 -122.499673 
L 632.285473 -123.350419 
L 631.799445 -124.207874 
L 631.313418 -125.071974 
L 630.827391 -125.942654 
L 630.341363 -126.819842 
L 629.855336 -127.703468 
L 629.369308 -128.593457 
L 628.883281 -129.48973 
L 628.397253 -130.392207 
L 627.911226 -131.300805 
L 627.425199 -132.215438 
L 626.939171 -133.136016 
L 626.453144 -134.062448 
L 625.967116 -134.994638 
L 625.481089 -135.932488 
L 624.995061 -136.875899 
L 624.509034 -137.824766 
L 624.023006 -138.778984 
L 623.536979 -139.738443 
L 623.050952 -140.70303 
L 622.564924 -141.672632 
L 622.078897 -142.647129 
L 621.592869 -143.626402 
L 621.106842 -144.610326 
L 620.620814 -145.598776 
L 620.134787 -146.591622 
L 619.64876 -147.588733 
L 619.162732 -148.589973 
L 618.676705 -149.595205 
L 618.190677 -150.604288 
L 617.70465 -151.617081 
L 617.218622 -152.633436 
L 616.732595 -153.653205 
L 616.246567 -154.676238 
L 615.76054 -155.70238 
L 615.274513 -156.731476 
L 614.788485 -157.763366 
L 614.302458 -158.797888 
L 613.81643 -159.83488 
L 613.330403 -160.874174 
L 612.844375 -161.915601 
L 612.358348 -162.95899 
L 611.872321 -164.004167 
L 611.386293 -165.050956 
L 610.900266 -166.09918 
L 610.414238 -167.148656 
L 609.928211 -168.199202 
L 609.442183 -169.250634 
L 608.956156 -170.302764 
L 608.470128 -171.355403 
L 607.984101 -172.408359 
L 607.498074 -173.46144 
L 607.012046 -174.514451 
L 606.526019 -175.567193 
L 606.039991 -176.61947 
L 605.553964 -177.671079 
L 605.067936 -178.72182 
L 604.581909 -179.771487 
L 604.095882 -180.819876 
L 603.609854 -181.86678 
L 603.123827 -182.91199 
L 602.637799 -183.955297 
L 602.151772 -184.996489 
L 601.665744 -186.035355 
L 601.179717 -187.07168 
L 600.693689 -188.10525 
L 600.207662 -189.13585 
L 599.721635 -190.163262 
L 599.235607 -191.18727 
L 598.74958 -192.207655 
L 598.263552 -193.224198 
L 597.777525 -194.236679 
L 597.291497 -195.244878 
L 596.80547 -196.248574 
L 596.319443 -197.247546 
L 595.833415 -198.241572 
L 595.347388 -199.23043 
L 594.86136 -200.213899 
L 594.375333 -201.191755 
L 593.889305 -202.163776 
L 593.403278 -203.129741 
L 592.91725 -204.089428 
L 592.431223 -205.042613 
L 591.945196 -205.989076 
L 591.459168 -206.928596 
L 590.973141 -207.860952 
L 590.487113 -208.785923 
L 590.001086 -209.703291 
L 589.515058 -210.612835 
L 589.029031 -211.514339 
L 588.543004 -212.407585 
L 588.056976 -213.292358 
L 587.570949 -214.168441 
L 587.084921 -215.035621 
L 586.598894 -215.893685 
L 586.112866 -216.742422 
L 585.626839 -217.581623 
L 585.140811 -218.411078 
L 584.654784 -219.230581 
L 584.168757 -220.039927 
L 583.682729 -220.838912 
L 583.196702 -221.627335 
L 582.710674 -222.404995 
L 582.224647 -223.171696 
L 581.738619 -223.927242 
L 581.252592 -224.67144 
L 580.766565 -225.404097 
L 580.280537 -226.125027 
L 579.79451 -226.834042 
L 579.308482 -227.530958 
L 578.822455 -228.215594 
L 578.336427 -228.887772 
L 577.8504 -229.547315 
L 577.364373 -230.194051 
L 576.878345 -230.82781 
L 576.392318 -231.448423 
L 575.90629 -232.055728 
L 575.420263 -232.649563 
L 574.934235 -233.22977 
L 574.448208 -233.796194 
L 573.96218 -234.348684 
L 573.476153 -234.887093 
L 572.990126 -235.411275 
L 572.504098 -235.92109 
L 572.018071 -236.416401 
L 571.532043 -236.897073 
L 571.046016 -237.362976 
L 570.559988 -237.813985 
L 570.073961 -238.249977 
L 569.587934 -238.670832 
L 569.101906 -239.076438 
L 568.615879 -239.466682 
L 568.129851 -239.841458 
L 567.643824 -240.200664 
L 567.157796 -240.544201 
L 566.671769 -240.871975 
L 566.185741 -241.183896 
L 565.699714 -241.479877 
L 565.213687 -241.759838 
L 564.727659 -242.0237 
L 564.241632 -242.271393 
L 563.755604 -242.502845 
L 563.269577 -242.717995 
L 562.783549 -242.916782 
L 562.297522 -243.099151 
L 561.811495 -243.265052 
L 561.325467 -243.414438 
L 560.83944 -243.547268 
L 560.353412 -243.663506 
L 559.867385 -243.763119 
L 559.381357 -243.846078 
L 558.89533 -243.912362 
L 558.409302 -243.961952 
L 557.923275 -243.994833 
L 557.437248 -244.010998 
L 556.95122 -244.01044 
L 556.465193 -243.993161 
L 555.979165 -243.959166 
L 555.493138 -243.908462 
L 555.00711 -243.841066 
L 554.521083 -243.756996 
L 554.035056 -243.656274 
L 553.549028 -243.538929 
L 553.063001 -243.404994 
L 552.576973 -243.254505 
L 552.090946 -243.087505 
L 551.604918 -242.90404 
L 551.118891 -242.70416 
L 550.632863 -242.487922 
L 550.146836 -242.255384 
L 549.660809 -242.006612 
L 549.174781 -241.741674 
L 548.688754 -241.460642 
L 548.202726 -241.163596 
L 547.716699 -240.850616 
L 547.230671 -240.521788 
L 546.744644 -240.177204 
L 546.258617 -239.816957 
L 545.772589 -239.441146 
L 545.286562 -239.049874 
L 544.800534 -238.643249 
L 544.314507 -238.22138 
L 543.828479 -237.784384 
L 543.342452 -237.332378 
L 542.856424 -236.865486 
L 542.370397 -236.383834 
L 541.88437 -235.887552 
L 541.398342 -235.376775 
L 540.912315 -234.85164 
L 540.426287 -234.312288 
L 539.94026 -233.758864 
L 539.454232 -233.191516 
L 538.968205 -232.610396 
L 538.482178 -232.015658 
L 537.99615 -231.407461 
L 537.510123 -230.785966 
L 537.024095 -230.151337 
L 536.538068 -229.503742 
L 536.05204 -228.843351 
L 535.566013 -228.170337 
L 535.079985 -227.484877 
L 534.593958 -226.787148 
L 534.107931 -226.077334 
L 533.621903 -225.355616 
L 533.135876 -224.622183 
L 532.649848 -223.877223 
L 532.163821 -223.120928 
L 531.677793 -222.35349 
L 531.191766 -221.575106 
L 530.705739 -220.785973 
L 530.219711 -219.986291 
L 529.733684 -219.176261 
L 529.247656 -218.356089 
L 528.761629 -217.525977 
L 528.275601 -216.686134 
L 527.789574 -215.836769 
L 527.303546 -214.97809 
L 526.817519 -214.11031 
L 526.331492 -213.233641 
L 525.845464 -212.348297 
L 525.359437 -211.454494 
L 524.873409 -210.552447 
L 524.387382 -209.642374 
L 523.901354 -208.724493 
L 523.415327 -207.799022 
L 522.9293 -206.866182 
L 522.443272 -205.926192 
L 521.957245 -204.979274 
L 521.471217 -204.025648 
L 520.98519 -203.065537 
L 520.499162 -202.099161 
L 520.013135 -201.126743 
L 519.527107 -200.148506 
L 519.04108 -199.164672 
L 518.555053 -198.175462 
L 518.069025 -197.1811 
L 517.582998 -196.181806 
L 517.09697 -195.177803 
L 516.610943 -194.169311 
L 516.124915 -193.156553 
L 515.638888 -192.139747 
L 515.152861 -191.119113 
L 514.666833 -190.094872 
L 514.180806 -189.06724 
L 513.694778 -188.036435 
L 513.208751 -187.002675 
L 512.722723 -185.966174 
L 512.236696 -184.927146 
L 511.750669 -183.885807 
L 511.264641 -182.842367 
L 510.778614 -181.797037 
L 510.292586 -180.750028 
L 509.806559 -179.701547 
L 509.320531 -178.651802 
L 508.834504 -177.600997 
L 508.348476 -176.549337 
L 507.862449 -175.497023 
L 507.376422 -174.444256 
L 506.890394 -173.391235 
L 506.404367 -172.338156 
L 505.918339 -171.285215 
L 505.432312 -170.232604 
L 504.946284 -169.180515 
L 504.460257 -168.129136 
L 503.97423 -167.078655 
L 503.488202 -166.029257 
L 503.002175 -164.981124 
L 502.516147 -163.934436 
L 502.03012 -162.889373 
L 501.544092 -161.846109 
L 501.058065 -160.804819 
L 500.572037 -159.765674 
L 500.08601 -158.728842 
L 499.599983 -157.694489 
L 499.113955 -156.662781 
L 498.627928 -155.633877 
L 498.1419 -154.607937 
L 497.655873 -153.585117 
L 497.169845 -152.565571 
L 496.683818 -151.549449 
L 496.197791 -150.536899 
L 495.711763 -149.528068 
L 495.225736 -148.523098 
L 494.739708 -147.522129 
L 494.253681 -146.525299 
L 493.767653 -145.532741 
L 493.281626 -144.544589 
L 492.795598 -143.560971 
L 492.309571 -142.582013 
L 491.823544 -141.607838 
L 491.337516 -140.638567 
L 490.851489 -139.674318 
L 490.365461 -138.715205 
L 489.879434 -137.761341 
L 489.393406 -136.812834 
L 488.907379 -135.869791 
L 488.421352 -134.932314 
L 487.935324 -134.000505 
L 487.449297 -133.074461 
L 486.963269 -132.154277 
L 486.477242 -131.240044 
L 485.991214 -130.331851 
L 485.505187 -129.429784 
L 485.019159 -128.533928 
L 484.533132 -127.644361 
L 484.047105 -126.761162 
L 483.561077 -125.884405 
L 483.07505 -125.014162 
L 482.589022 -124.150503 
L 482.102995 -123.293493 
L 481.616967 -122.443196 
L 481.13094 -121.599673 
L 480.644913 -120.762982 
L 480.158885 -119.933178 
L 479.672858 -119.110314 
L 479.18683 -118.29444 
L 478.700803 -117.485603 
L 478.214775 -116.683847 
L 477.728748 -115.889214 
L 477.24272 -115.101745 
L 476.756693 -114.321475 
L 476.270666 -113.548439 
L 475.784638 -112.782669 
L 475.298611 -112.024195 
L 474.812583 -111.273041 
L 474.326556 -110.529235 
L 473.840528 -109.792796 
L 473.354501 -109.063745 
L 472.868474 -108.342098 
L 472.382446 -107.627872 
L 471.896419 -106.921078 
L 471.410391 -106.221727 
L 470.924364 -105.529827 
L 470.438336 -104.845384 
L 469.952309 -104.168401 
L 469.466281 -103.498881 
L 468.980254 -102.836823 
L 468.494227 -102.182224 
L 468.008199 -101.53508 
L 467.522172 -100.895385 
L 467.036144 -100.26313 
L 466.550117 -99.638305 
L 466.064089 -99.020897 
L 465.578062 -98.410893 
L 465.092035 -97.808277 
L 464.606007 -97.213031 
L 464.11998 -96.625136 
L 463.633952 -96.044571 
L 463.147925 -95.471313 
L 462.661897 -94.905338 
L 462.17587 -94.346619 
L 461.689842 -93.795131 
L 461.203815 -93.250843 
L 460.717788 -92.713726 
L 460.23176 -92.183748 
L 459.745733 -91.660874 
L 459.259705 -91.145072 
L 458.773678 -90.636305 
L 458.28765 -90.134536 
L 457.801623 -89.639727 
L 457.315596 -89.151838 
L 456.829568 -88.670828 
L 456.343541 -88.196655 
L 455.857513 -87.729278 
L 455.371486 -87.268651 
L 454.885458 -86.814729 
L 454.399431 -86.367467 
L 453.913403 -85.926818 
L 453.427376 -85.492734 
L 452.941349 -85.065166 
L 452.455321 -84.644064 
L 451.969294 -84.229379 
L 451.483266 -83.821059 
L 450.997239 -83.419052 
L 450.511211 -83.023305 
L 450.025184 -82.633767 
L 449.539157 -82.250381 
L 449.053129 -81.873095 
L 448.567102 -81.501852 
L 448.081074 -81.136598 
L 447.595047 -80.777277 
L 447.109019 -80.423831 
L 446.622992 -80.076204 
L 446.136965 -79.734337 
L 445.650937 -79.398175 
L 445.16491 -79.067657 
L 444.678882 -78.742727 
L 444.192855 -78.423324 
L 443.706827 -78.10939 
L 443.2208 -77.800865 
L 442.734772 -77.497691 
L 442.248745 -77.199806 
L 441.762718 -76.907152 
L 441.27669 -76.619668 
L 440.790663 -76.337294 
L 440.304635 -76.05997 
L 439.818608 -75.787635 
L 439.33258 -75.52023 
L 438.846553 -75.257693 
L 438.360526 -74.999965 
L 437.874498 -74.746984 
L 437.388471 -74.498692 
L 436.902443 -74.255027 
L 436.416416 -74.015929 
L 435.930388 -73.781339 
L 435.444361 -73.551196 
L 434.958333 -73.32544 
L 434.472306 -73.104013 
L 433.986279 -72.886854 
L 433.500251 -72.673905 
L 433.014224 -72.465106 
L 432.528196 -72.260399 
L 432.042169 -72.059725 
L 431.556141 -71.863026 
L 431.070114 -71.670244 
L 430.584087 -71.481321 
L 430.098059 -71.296201 
L 429.612032 -71.114825 
L 429.126004 -70.937137 
L 428.639977 -70.763082 
L 428.153949 -70.592602 
L 427.667922 -70.425643 
L 427.181894 -70.262149 
L 426.695867 -70.102065 
L 426.20984 -69.945337 
L 425.723812 -69.791911 
L 425.237785 -69.641734 
L 424.751757 -69.494751 
L 424.26573 -69.350911 
L 423.779702 -69.210162 
L 423.293675 -69.07245 
L 422.807648 -68.937726 
L 422.32162 -68.805939 
L 421.835593 -68.677037 
L 421.349565 -68.550971 
z
" style="stroke: #f2edff; stroke-opacity: 0.4"/>
    </defs>
    <g clip-path="url(#p7aa86c5e9f)">
     <use xlink:href="#ma85ed06afc" x="0" y="311.302625" style="fill: #f2edff; fill-opacity: 0.4; stroke: #f2edff; stroke-opacity: 0.4"/>
    </g>
   </g>
   <g id="line2d_26">
    <path d="M 557.210435 273.312 
L 557.210435 7.2 
" clip-path="url(#p7aa86c5e9f)" style="fill: none; stroke-dasharray: 0.8,1.32; stroke-dashoffset: 0; stroke: #16877f; stroke-opacity: 0.5; stroke-width: 0.8"/>
   </g>
   <g id="line2d_27">
    <path d="M 518.393043 273.312 
L 518.393043 7.2 
" clip-path="url(#p7aa86c5e9f)" style="fill: none; stroke-dasharray: 0.8,1.32; stroke-dashoffset: 0; stroke: #16877f; stroke-opacity: 0.5; stroke-width: 0.8"/>
   </g>
   <g id="line2d_28">
    <path d="M 596.027826 273.312 
L 596.027826 7.2 
" clip-path="url(#p7aa86c5e9f)" style="fill: none; stroke-dasharray: 0.8,1.32; stroke-dashoffset: 0; stroke: #16877f; stroke-opacity: 0.5; stroke-width: 0.8"/>
   </g>
   <g id="matplotlib.axis_3">
    <g id="xtick_9">
     <g id="line2d_29">
      <g>
       <use xlink:href="#m2968549a7b" x="421.349565" y="273.312" style="fill: #665a75; stroke: #665a75; stroke-width: 0.8"/>
      </g>
     </g>
     <g id="text_24">
      <text style="font-size: 9px; font-family: 'Arial'; text-anchor: middle; fill: #665a75" x="421.349565" y="286.254031" transform="rotate(-0 421.349565 286.254031)">0</text>
     </g>
    </g>
    <g id="xtick_10">
     <g id="line2d_30">
      <g>
       <use xlink:href="#m2968549a7b" x="460.166957" y="273.312" style="fill: #665a75; stroke: #665a75; stroke-width: 0.8"/>
      </g>
     </g>
     <g id="text_25">
      <text style="font-size: 9px; font-family: 'Arial'; text-anchor: middle; fill: #665a75" x="460.166957" y="286.254031" transform="rotate(-0 460.166957 286.254031)">1</text>
     </g>
    </g>
    <g id="xtick_11">
     <g id="line2d_31">
      <g>
       <use xlink:href="#m2968549a7b" x="498.984348" y="273.312" style="fill: #665a75; stroke: #665a75; stroke-width: 0.8"/>
      </g>
     </g>
     <g id="text_26">
      <text style="font-size: 9px; font-family: 'Arial'; text-anchor: middle; fill: #665a75" x="498.984348" y="286.254031" transform="rotate(-0 498.984348 286.254031)">2</text>
     </g>
    </g>
    <g id="xtick_12">
     <g id="line2d_32">
      <g>
       <use xlink:href="#m2968549a7b" x="537.801739" y="273.312" style="fill: #665a75; stroke: #665a75; stroke-width: 0.8"/>
      </g>
     </g>
     <g id="text_27">
      <text style="font-size: 9px; font-family: 'Arial'; text-anchor: middle; fill: #665a75" x="537.801739" y="286.254031" transform="rotate(-0 537.801739 286.254031)">3</text>
     </g>
    </g>
    <g id="xtick_13">
     <g id="line2d_33">
      <g>
       <use xlink:href="#m2968549a7b" x="576.61913" y="273.312" style="fill: #665a75; stroke: #665a75; stroke-width: 0.8"/>
      </g>
     </g>
     <g id="text_28">
      <text style="font-size: 9px; font-family: 'Arial'; text-anchor: middle; fill: #665a75" x="576.61913" y="286.254031" transform="rotate(-0 576.61913 286.254031)">4</text>
     </g>
    </g>
    <g id="xtick_14">
     <g id="line2d_34">
      <g>
       <use xlink:href="#m2968549a7b" x="615.436522" y="273.312" style="fill: #665a75; stroke: #665a75; stroke-width: 0.8"/>
      </g>
     </g>
     <g id="text_29">
      <text style="font-size: 9px; font-family: 'Arial'; text-anchor: middle; fill: #665a75" x="615.436522" y="286.254031" transform="rotate(-0 615.436522 286.254031)">5</text>
     </g>
    </g>
    <g id="xtick_15">
     <g id="line2d_35">
      <g>
       <use xlink:href="#m2968549a7b" x="654.253913" y="273.312" style="fill: #665a75; stroke: #665a75; stroke-width: 0.8"/>
      </g>
     </g>
     <g id="text_30">
      <text style="font-size: 9px; font-family: 'Arial'; text-anchor: middle; fill: #665a75" x="654.253913" y="286.254031" transform="rotate(-0 654.253913 286.254031)">6</text>
     </g>
    </g>
    <g id="xtick_16">
     <g id="line2d_36">
      <g>
       <use xlink:href="#m2968549a7b" x="693.071304" y="273.312" style="fill: #665a75; stroke: #665a75; stroke-width: 0.8"/>
      </g>
     </g>
     <g id="text_31">
      <text style="font-size: 9px; font-family: 'Arial'; text-anchor: middle; fill: #665a75" x="693.071304" y="286.254031" transform="rotate(-0 693.071304 286.254031)">7</text>
     </g>
    </g>
    <g id="text_32">
     <!-- $x$ -->
     <g style="fill: #231533" transform="translate(563.614783 301.916375)">
      <text>
       <tspan x="0" y="-0.984375" style="font-style: oblique; font-size: 11px; font-family: 'DejaVu Sans'; fill: #231533">x</tspan>
      </text>
     </g>
    </g>
   </g>
   <g id="matplotlib.axis_4">
    <g id="ytick_7">
     <g id="line2d_37">
      <g>
       <use xlink:href="#ma931822e61" x="421.349565" y="247.559226" style="fill: #665a75; stroke: #665a75; stroke-width: 0.8"/>
      </g>
     </g>
     <g id="text_33">
      <text style="font-size: 9px; font-family: 'Arial'; text-anchor: end; fill: #665a75" x="414.849565" y="250.780241" transform="rotate(-0 414.849565 250.780241)">0.0</text>
     </g>
    </g>
    <g id="ytick_8">
     <g id="line2d_38">
      <g>
       <use xlink:href="#ma931822e61" x="421.349565" y="204.637935" style="fill: #665a75; stroke: #665a75; stroke-width: 0.8"/>
      </g>
     </g>
     <g id="text_34">
      <text style="font-size: 9px; font-family: 'Arial'; text-anchor: end; fill: #665a75" x="414.849565" y="207.858951" transform="rotate(-0 414.849565 207.858951)">0.1</text>
     </g>
    </g>
    <g id="ytick_9">
     <g id="line2d_39">
      <g>
       <use xlink:href="#ma931822e61" x="421.349565" y="161.716645" style="fill: #665a75; stroke: #665a75; stroke-width: 0.8"/>
      </g>
     </g>
     <g id="text_35">
      <text style="font-size: 9px; font-family: 'Arial'; text-anchor: end; fill: #665a75" x="414.849565" y="164.937661" transform="rotate(-0 414.849565 164.937661)">0.2</text>
     </g>
    </g>
    <g id="ytick_10">
     <g id="line2d_40">
      <g>
       <use xlink:href="#ma931822e61" x="421.349565" y="118.795355" style="fill: #665a75; stroke: #665a75; stroke-width: 0.8"/>
      </g>
     </g>
     <g id="text_36">
      <text style="font-size: 9px; font-family: 'Arial'; text-anchor: end; fill: #665a75" x="414.849565" y="122.01637" transform="rotate(-0 414.849565 122.01637)">0.3</text>
     </g>
    </g>
    <g id="ytick_11">
     <g id="line2d_41">
      <g>
       <use xlink:href="#ma931822e61" x="421.349565" y="75.874065" style="fill: #665a75; stroke: #665a75; stroke-width: 0.8"/>
      </g>
     </g>
     <g id="text_37">
      <text style="font-size: 9px; font-family: 'Arial'; text-anchor: end; fill: #665a75" x="414.849565" y="79.09508" transform="rotate(-0 414.849565 79.09508)">0.4</text>
     </g>
    </g>
    <g id="ytick_12">
     <g id="line2d_42">
      <g>
       <use xlink:href="#ma931822e61" x="421.349565" y="32.952774" style="fill: #665a75; stroke: #665a75; stroke-width: 0.8"/>
      </g>
     </g>
     <g id="text_38">
      <text style="font-size: 9px; font-family: 'Arial'; text-anchor: end; fill: #665a75" x="414.849565" y="36.17379" transform="rotate(-0 414.849565 36.17379)">0.5</text>
     </g>
    </g>
    <g id="text_39">
     <!-- $p_t(x)$ -->
     <g style="fill: #231533" transform="translate(394.029565 152.961) rotate(-90)">
      <text>
       <tspan x="0" y="-0.65625" style="font-style: oblique; font-size: 11px; font-family: 'DejaVu Sans'; fill: #231533">p</tspan>
       <tspan x="14.593799" y="-0.65625" style="font-style: oblique; font-size: 11px; font-family: 'DejaVu Sans'; fill: #231533">x</tspan>
       <tspan x="6.982422" y="1.148438" style="font-style: oblique; font-size: 7.7px; font-family: 'DejaVu Sans'; fill: #231533">t</tspan>
       <tspan x="10.302295" y="-0.65625" style="font-size: 11px; font-family: 'DejaVu Sans'; fill: #231533">(</tspan>
       <tspan x="21.103564" y="-0.65625" style="font-size: 11px; font-family: 'DejaVu Sans'; fill: #231533">)</tspan>
      </text>
     </g>
    </g>
   </g>
   <g id="line2d_43">
    <path d="M 421.349565 242.751654 
L 425.723812 241.510714 
L 429.612032 240.1878 
L 433.500251 238.62872 
L 437.388471 236.803933 
L 440.790663 234.965331 
L 444.192855 232.879301 
L 447.595047 230.525348 
L 450.997239 227.883573 
L 454.399431 224.935158 
L 457.801623 221.662898 
L 461.203815 218.051782 
L 464.606007 214.089594 
L 468.008199 209.767545 
L 471.410391 205.080898 
L 474.812583 200.029584 
L 478.700803 193.817022 
L 482.589022 187.152122 
L 486.477242 180.062581 
L 490.851489 171.628307 
L 495.711763 161.774557 
L 502.03012 148.413252 
L 518.555053 113.127163 
L 522.9293 104.436443 
L 526.817519 97.192315 
L 530.219711 91.316334 
L 533.135876 86.680442 
L 536.05204 82.459274 
L 538.482178 79.286967 
L 540.912315 76.450985 
L 543.342452 73.970247 
L 545.772589 71.861479 
L 547.716699 70.452009 
L 549.660809 69.296013 
L 551.604918 68.398585 
L 553.549028 67.763696 
L 555.493138 67.394163 
L 557.437248 67.291627 
L 559.381357 67.456547 
L 561.325467 67.888187 
L 563.269577 68.58463 
L 565.213687 69.542787 
L 567.157796 70.758424 
L 569.101906 72.226187 
L 571.046016 73.939649 
L 573.476153 76.415532 
L 575.90629 79.246897 
L 578.336427 82.414853 
L 581.252592 86.631185 
L 584.168757 91.262698 
L 587.570949 97.134184 
L 590.973141 103.441673 
L 595.347388 112.072195 
L 600.693689 123.197375 
L 609.442183 142.051991 
L 617.70465 159.685544 
L 623.050952 170.599595 
L 627.911226 180.00182 
L 632.285473 187.952206 
L 636.173692 194.565549 
L 640.061912 200.724032 
L 643.464104 205.726903 
L 646.866296 210.364825 
L 650.268488 214.638524 
L 653.67068 218.553313 
L 657.072872 222.118476 
L 660.475064 225.346635 
L 663.877256 228.25313 
L 667.279448 230.855413 
L 670.68164 233.172475 
L 674.083832 235.224323 
L 677.486025 237.031497 
L 681.374244 238.823727 
L 685.262464 240.353755 
L 689.150683 241.650979 
L 693.52493 242.8668 
L 697.899177 243.860323 
L 702.759451 244.74447 
L 708.105753 245.497209 
L 712.48 245.974003 
L 712.48 245.974003 
" clip-path="url(#p7aa86c5e9f)" style="fill: none; stroke: #7a53ec; stroke-width: 2.2; stroke-linecap: square"/>
   </g>
   <g id="patch_9">
    <path d="M 421.349565 273.312 
L 421.349565 7.2 
" style="fill: none; stroke: #c8bbd8; stroke-width: 0.8; stroke-linejoin: miter; stroke-linecap: square"/>
   </g>
   <g id="patch_10">
    <path d="M 421.349565 273.312 
L 712.48 273.312 
" style="fill: none; stroke: #c8bbd8; stroke-width: 0.8; stroke-linejoin: miter; stroke-linecap: square"/>
   </g>
   <g id="text_40">
    <!-- $x$ -->
    <g style="fill: #16877f" transform="translate(554.360435 267.235535)">
     <text>
      <tspan x="0" y="-0.53125" style="font-style: oblique; font-size: 9.5px; font-family: 'DejaVu Sans'; fill: #16877f">x</tspan>
     </text>
    </g>
   </g>
   <g id="text_41">
    <!-- $x - \epsilon$ -->
    <g style="fill: #16877f" transform="translate(507.183043 267.235535)">
     <text>
      <tspan x="0" y="-0.390625" style="font-style: oblique; font-size: 9.5px; font-family: 'DejaVu Sans'; fill: #16877f">x</tspan>
      <tspan x="17.283691" y="-0.390625" style="font-style: oblique; font-size: 9.5px; font-family: 'DejaVu Sans'; fill: #16877f">ε</tspan>
      <tspan x="7.4729" y="-0.390625" style="font-size: 9.5px; font-family: 'DejaVu Sans'; fill: #16877f">−</tspan>
     </text>
    </g>
   </g>
   <g id="text_42">
    <!-- $x + \epsilon$ -->
    <g style="fill: #16877f" transform="translate(584.817826 267.235535)">
     <text>
      <tspan x="0" y="-0.734375" style="font-style: oblique; font-size: 9.5px; font-family: 'DejaVu Sans'; fill: #16877f">x</tspan>
      <tspan x="17.283691" y="-0.734375" style="font-style: oblique; font-size: 9.5px; font-family: 'DejaVu Sans'; fill: #16877f">ε</tspan>
      <tspan x="7.4729" y="-0.734375" style="font-size: 9.5px; font-family: 'DejaVu Sans'; fill: #16877f">+</tspan>
     </text>
    </g>
   </g>
   <g id="patch_11">
    <path d="M 555.20607 50.12129 
Q 537.799422 50.12129 522.628843 50.12129 
" clip-path="url(#p7aa86c5e9f)" style="fill: none; stroke: #16877f; stroke-width: 2; stroke-linecap: round"/>
    <path d="M 527.828843 52.72129 
L 522.628843 50.12129 
L 527.828843 47.52129 
z
" clip-path="url(#p7aa86c5e9f)" style="fill: #16877f; stroke: #16877f; stroke-width: 2; stroke-linecap: round"/>
   </g>
   <g id="patch_12">
    <path d="M 559.2148 50.12129 
Q 576.621447 50.12129 591.792027 50.12129 
" clip-path="url(#p7aa86c5e9f)" style="fill: none; stroke: #16877f; stroke-width: 2; stroke-linecap: round"/>
    <path d="M 586.592027 47.52129 
L 591.792027 50.12129 
L 586.592027 52.72129 
z
" clip-path="url(#p7aa86c5e9f)" style="fill: #16877f; stroke: #16877f; stroke-width: 2; stroke-linecap: round"/>
   </g>
   <g id="text_43">
    <!-- $-\epsilon$ -->
    <g style="fill: #16877f" transform="translate(530.901739 39.549532)">
     <text>
      <tspan x="0" y="-0.390625" style="font-size: 10px; font-family: 'DejaVu Sans'; fill: #16877f">−</tspan>
      <tspan x="8.378906" y="-0.390625" style="font-style: oblique; font-size: 10px; font-family: 'DejaVu Sans'; fill: #16877f">ε</tspan>
     </text>
    </g>
   </g>
   <g id="text_44">
    <!-- $+\epsilon$ -->
    <g style="fill: #16877f" transform="translate(569.71913 39.549532)">
     <text>
      <tspan x="0" y="-0.734375" style="font-size: 10px; font-family: 'DejaVu Sans'; fill: #16877f">+</tspan>
      <tspan x="8.378906" y="-0.734375" style="font-style: oblique; font-size: 10px; font-family: 'DejaVu Sans'; fill: #16877f">ε</tspan>
     </text>
    </g>
   </g>
   <g id="text_45">
    <text style="font-style: italic; font-size: 9px; font-family: 'Arial'; text-anchor: start; fill: #c7506b" x="611.554783" y="115.800165" transform="rotate(-0 611.554783 115.800165)">avg of neighbors</text>
   </g>
   <g id="patch_13">
    <path d="M 563.033043 70.964739 
Q 563.033043 90.374024 563.033043 109.783309 
" style="fill: none; stroke: #c7506b; stroke-width: 1.5; stroke-linecap: round"/>
    <path d="M 560.833043 75.364739 
L 563.033043 70.964739 
L 565.233043 75.364739 
" style="fill: none; stroke: #c7506b; stroke-width: 1.5; stroke-linecap: round"/>
    <path d="M 565.233043 105.383309 
L 563.033043 109.783309 
L 560.833043 105.383309 
" style="fill: none; stroke: #c7506b; stroke-width: 1.5; stroke-linecap: round"/>
   </g>
   <g id="text_46">
    <g id="patch_14">
     <path d="M 568.855652 99.773931 
L 608.755652 99.773931 
Q 610.755652 99.773931 610.755652 97.773931 
L 610.755652 82.973931 
Q 610.755652 80.973931 608.755652 80.973931 
L 568.855652 80.973931 
Q 566.855652 80.973931 566.855652 82.973931 
L 566.855652 97.773931 
Q 566.855652 99.773931 568.855652 99.773931 
z
" style="fill: #ffffff; opacity: 0.85; stroke: #fce8ee; stroke-width: 0.5; stroke-linejoin: miter"/>
    </g>
    <!-- $\frac{\epsilon^2}{2}\,p_t'' &lt; 0$ -->
    <g style="fill: #c7506b" transform="translate(568.855652 93.773931)">
     <text>
      <tspan x="0" y="-4.683594" style="font-style: oblique; font-size: 7px; font-family: 'DejaVu Sans'; fill: #c7506b">ε</tspan>
      <tspan x="16.640262" y="2.532031" style="font-style: oblique; font-size: 7px; font-family: 'DejaVu Sans'; fill: #c7506b">t</tspan>
      <tspan x="4.110103" y="-7.363281" style="font-size: 4.9px; font-family: 'DejaVu Sans'; fill: #c7506b">2</tspan>
      <tspan x="1" y="3.735156" style="font-size: 7px; font-family: 'DejaVu Sans'; fill: #c7506b">2</tspan>
      <tspan x="10.292606" y="-0.202344" style="font-style: oblique; font-size: 10px; font-family: 'DejaVu Sans'; fill: #c7506b">p</tspan>
      <tspan x="17.104377" y="-4.030469" style="font-size: 7px; font-family: 'cmsy10'; fill: #c7506b">0</tspan>
      <tspan x="19.028693" y="-4.030469" style="font-size: 7px; font-family: 'cmsy10'; fill: #c7506b">0</tspan>
      <tspan x="23.174689" y="-0.202344" style="font-size: 10px; font-family: 'DejaVu Sans'; fill: #c7506b">&lt;</tspan>
      <tspan x="33.501838" y="-0.202344" style="font-size: 10px; font-family: 'DejaVu Sans'; fill: #c7506b">0</tspan>
     </text>
     <rect x="0" y="-3.085156" width="7.419038" height="0.625"/>
    </g>
   </g>
   <g id="text_47">
    <g id="patch_15">
     <path d="M 601.032935 55.555946 
L 691.947935 55.555946 
Q 694.797935 55.555946 694.797935 52.705946 
L 694.797935 33.071524 
Q 694.797935 30.221524 691.947935 30.221524 
L 601.032935 30.221524 
Q 598.182935 30.221524 598.182935 33.071524 
L 598.182935 52.705946 
Q 598.182935 55.555946 601.032935 55.555946 
z
" style="fill: #ffffff; opacity: 0.85; stroke: #16877f; stroke-width: 0.6; stroke-linejoin: miter"/>
    </g>
    <text style="font-style: italic; font-size: 9.5px; font-family: 'Arial'; fill: #16877f" transform="translate(602.396333 39.752696)">both neighbors lower</text>
    <!-- $\rightarrow$ density decreases -->
    <g style="fill: #16877f" transform="translate(601.032935 50.615946)">
     <text>
      <tspan x="1.85083" y="-0.84375" style="font-size: 9.5px; font-family: 'DejaVu Sans'; fill: #16877f">→</tspan>
      <tspan x="11.661621" y="-0.84375" style="font-style: italic; font-size: 9.5px; font-family: 'Arial'; fill: #16877f"> </tspan>
      <tspan x="14.301025" y="-0.84375" style="font-style: italic; font-size: 9.5px; font-family: 'Arial'; fill: #16877f">d</tspan>
      <tspan x="19.584473" y="-0.84375" style="font-style: italic; font-size: 9.5px; font-family: 'Arial'; fill: #16877f">e</tspan>
      <tspan x="24.86792" y="-0.84375" style="font-style: italic; font-size: 9.5px; font-family: 'Arial'; fill: #16877f">n</tspan>
      <tspan x="30.151367" y="-0.84375" style="font-style: italic; font-size: 9.5px; font-family: 'Arial'; fill: #16877f">s</tspan>
      <tspan x="34.901367" y="-0.84375" style="font-style: italic; font-size: 9.5px; font-family: 'Arial'; fill: #16877f">i</tspan>
      <tspan x="37.011963" y="-0.84375" style="font-style: italic; font-size: 9.5px; font-family: 'Arial'; fill: #16877f">t</tspan>
      <tspan x="39.651367" y="-0.84375" style="font-style: italic; font-size: 9.5px; font-family: 'Arial'; fill: #16877f">y</tspan>
      <tspan x="44.401367" y="-0.84375" style="font-style: italic; font-size: 9.5px; font-family: 'Arial'; fill: #16877f"> </tspan>
      <tspan x="47.040771" y="-0.84375" style="font-style: italic; font-size: 9.5px; font-family: 'Arial'; fill: #16877f">d</tspan>
      <tspan x="52.324219" y="-0.84375" style="font-style: italic; font-size: 9.5px; font-family: 'Arial'; fill: #16877f">e</tspan>
      <tspan x="57.607666" y="-0.84375" style="font-style: italic; font-size: 9.5px; font-family: 'Arial'; fill: #16877f">c</tspan>
      <tspan x="62.357666" y="-0.84375" style="font-style: italic; font-size: 9.5px; font-family: 'Arial'; fill: #16877f">r</tspan>
      <tspan x="65.52124" y="-0.84375" style="font-style: italic; font-size: 9.5px; font-family: 'Arial'; fill: #16877f">e</tspan>
      <tspan x="70.804688" y="-0.84375" style="font-style: italic; font-size: 9.5px; font-family: 'Arial'; fill: #16877f">a</tspan>
      <tspan x="76.088135" y="-0.84375" style="font-style: italic; font-size: 9.5px; font-family: 'Arial'; fill: #16877f">s</tspan>
      <tspan x="80.838135" y="-0.84375" style="font-style: italic; font-size: 9.5px; font-family: 'Arial'; fill: #16877f">e</tspan>
      <tspan x="86.121582" y="-0.84375" style="font-style: italic; font-size: 9.5px; font-family: 'Arial'; fill: #16877f">s</tspan>
     </text>
    </g>
   </g>
   <g id="text_48">
    <text style="font-weight: 700; font-size: 13px; font-family: 'Arial'; text-anchor: start; fill: #231533" x="429.113043" y="20.076387" transform="rotate(-0 429.113043 20.076387)">(b)</text>
   </g>
   <g id="line2d_44">
    <path d="M 506.747826 113.458055 
L 607.673043 113.458055 
" clip-path="url(#p7aa86c5e9f)" style="fill: none; stroke-dasharray: 5.55,2.4; stroke-dashoffset: 0; stroke: #c7506b; stroke-opacity: 0.7; stroke-width: 1.5"/>
   </g>
   <g id="line2d_45">
    <g clip-path="url(#p7aa86c5e9f)">
     <use xlink:href="#m6d33f46b4f" x="557.210435" y="67.289806" style="fill: #16877f; stroke: #16877f"/>
    </g>
   </g>
   <g id="line2d_46">
    <g clip-path="url(#p7aa86c5e9f)">
     <use xlink:href="#m6d33f46b4f" x="518.393043" y="113.458055" style="fill: #16877f; stroke: #16877f"/>
    </g>
   </g>
   <g id="line2d_47">
    <g clip-path="url(#p7aa86c5e9f)">
     <use xlink:href="#m6d33f46b4f" x="596.027826" y="113.458055" style="fill: #16877f; stroke: #16877f"/>
    </g>
   </g>
  </g>
 </g>
 <defs>
  <clipPath id="p0f15d17670">
   <rect x="42.88" y="7.2" width="291.130435" height="266.112"/>
  </clipPath>
  <clipPath id="p7aa86c5e9f">
   <rect x="421.349565" y="7.2" width="291.130435" height="266.112"/>
  </clipPath>
 </defs>
</svg>
