<?xml version="1.0" encoding="utf-8" standalone="no"?>
<!DOCTYPE svg PUBLIC "-//W3C//DTD SVG 1.1//EN"
  "http://www.w3.org/Graphics/SVG/1.1/DTD/svg11.dtd">
<svg xmlns:xlink="http://www.w3.org/1999/xlink" width="378.402969pt" height="221.105625pt" viewBox="0 0 378.402969 221.105625" xmlns="http://www.w3.org/2000/svg" version="1.1">
 <metadata>
  <rdf:RDF xmlns:dc="http://purl.org/dc/elements/1.1/" xmlns:cc="http://creativecommons.org/ns#" xmlns:rdf="http://www.w3.org/1999/02/22-rdf-syntax-ns#">
   <cc:Work>
    <dc:type rdf:resource="http://purl.org/dc/dcmitype/StillImage"/>
    <dc:date>2026-06-20T21:27:49.830153</dc:date>
    <dc:format>image/svg+xml</dc:format>
    <dc:creator>
     <cc:Agent>
      <dc:title>Matplotlib v3.10.8, https://matplotlib.org/</dc:title>
     </cc:Agent>
    </dc:creator>
   </cc:Work>
  </rdf:RDF>
 </metadata>
 <defs>
  <style type="text/css">*{stroke-linejoin: round; stroke-linecap: butt}</style>
 </defs>
 <g id="figure_1">
  <g id="patch_1">
   <path d="M 0 221.105625 
L 378.402969 221.105625 
L 378.402969 0 
L 0 0 
L 0 221.105625 
z
" style="fill: none"/>
  </g>
  <g id="axes_1">
   <g id="patch_2">
    <path d="M 47.884844 183.115 
L 371.202969 183.115 
L 371.202969 7.2 
L 47.884844 7.2 
L 47.884844 183.115 
z
" style="fill: none"/>
   </g>
   <g id="matplotlib.axis_1">
    <g id="xtick_1">
     <g id="line2d_1">
      <defs>
       <path id="m775557139b" d="M 0 0 
L 0 3 
" style="stroke: #78909c; stroke-width: 0.8"/>
      </defs>
      <g>
       <use xlink:href="#m775557139b" x="64.901587" y="183.115" style="fill: #78909c; stroke: #78909c; stroke-width: 0.8"/>
      </g>
     </g>
     <g id="text_1">
      <text style="font-size: 9px; font-family: 'Arial'; text-anchor: middle; fill: #78909c" x="64.901587" y="196.057031" transform="rotate(-0 64.901587 196.057031)">0</text>
     </g>
    </g>
    <g id="xtick_2">
     <g id="line2d_2">
      <g>
       <use xlink:href="#m775557139b" x="132.968561" y="183.115" style="fill: #78909c; stroke: #78909c; stroke-width: 0.8"/>
      </g>
     </g>
     <g id="text_2">
      <text style="font-size: 9px; font-family: 'Arial'; text-anchor: middle; fill: #78909c" x="132.968561" y="196.057031" transform="rotate(-0 132.968561 196.057031)">2</text>
     </g>
    </g>
    <g id="xtick_3">
     <g id="line2d_3">
      <g>
       <use xlink:href="#m775557139b" x="201.035535" y="183.115" style="fill: #78909c; stroke: #78909c; stroke-width: 0.8"/>
      </g>
     </g>
     <g id="text_3">
      <text style="font-size: 9px; font-family: 'Arial'; text-anchor: middle; fill: #78909c" x="201.035535" y="196.057031" transform="rotate(-0 201.035535 196.057031)">4</text>
     </g>
    </g>
    <g id="xtick_4">
     <g id="line2d_4">
      <g>
       <use xlink:href="#m775557139b" x="269.102508" y="183.115" style="fill: #78909c; stroke: #78909c; stroke-width: 0.8"/>
      </g>
     </g>
     <g id="text_4">
      <text style="font-size: 9px; font-family: 'Arial'; text-anchor: middle; fill: #78909c" x="269.102508" y="196.057031" transform="rotate(-0 269.102508 196.057031)">6</text>
     </g>
    </g>
    <g id="xtick_5">
     <g id="line2d_5">
      <g>
       <use xlink:href="#m775557139b" x="337.169482" y="183.115" style="fill: #78909c; stroke: #78909c; stroke-width: 0.8"/>
      </g>
     </g>
     <g id="text_5">
      <text style="font-size: 9px; font-family: 'Arial'; text-anchor: middle; fill: #78909c" x="337.169482" y="196.057031" transform="rotate(-0 337.169482 196.057031)">8</text>
     </g>
    </g>
    <g id="text_6">
     <!-- $x$ -->
     <g style="fill: #263238" transform="translate(206.243906 211.719375)">
      <text>
       <tspan x="0" y="-0.984375" style="font-style: oblique; font-size: 11px; font-family: 'DejaVu Sans'; fill: #263238">x</tspan>
      </text>
     </g>
    </g>
   </g>
   <g id="matplotlib.axis_2">
    <g id="ytick_1">
     <g id="line2d_6">
      <defs>
       <path id="mc94247737a" d="M 0 0 
L -3 0 
" style="stroke: #78909c; stroke-width: 0.8"/>
      </defs>
      <g>
       <use xlink:href="#mc94247737a" x="47.884844" y="165.5235" style="fill: #78909c; stroke: #78909c; stroke-width: 0.8"/>
      </g>
     </g>
     <g id="text_7">
      <text style="font-size: 9px; font-family: 'Arial'; text-anchor: end; fill: #78909c" x="41.384844" y="168.744516" transform="rotate(-0 41.384844 168.744516)">0.00</text>
     </g>
    </g>
    <g id="ytick_2">
     <g id="line2d_7">
      <g>
       <use xlink:href="#mc94247737a" x="47.884844" y="110.550063" style="fill: #78909c; stroke: #78909c; stroke-width: 0.8"/>
      </g>
     </g>
     <g id="text_8">
      <text style="font-size: 9px; font-family: 'Arial'; text-anchor: end; fill: #78909c" x="41.384844" y="113.771078" transform="rotate(-0 41.384844 113.771078)">0.25</text>
     </g>
    </g>
    <g id="ytick_3">
     <g id="line2d_8">
      <g>
       <use xlink:href="#mc94247737a" x="47.884844" y="55.576625" style="fill: #78909c; stroke: #78909c; stroke-width: 0.8"/>
      </g>
     </g>
     <g id="text_9">
      <text style="font-size: 9px; font-family: 'Arial'; text-anchor: end; fill: #78909c" x="41.384844" y="58.797641" transform="rotate(-0 41.384844 58.797641)">0.50</text>
     </g>
    </g>
    <g id="text_10">
     <!-- $p_t(x)$ -->
     <g style="fill: #263238" transform="translate(15.56 107.8625) rotate(-90)">
      <text>
       <tspan x="0" y="-0.65625" style="font-style: oblique; font-size: 11px; font-family: 'DejaVu Sans'; fill: #263238">p</tspan>
       <tspan x="14.593799" y="-0.65625" style="font-style: oblique; font-size: 11px; font-family: 'DejaVu Sans'; fill: #263238">x</tspan>
       <tspan x="6.982422" y="1.148438" style="font-style: oblique; font-size: 7.7px; font-family: 'DejaVu Sans'; fill: #263238">t</tspan>
       <tspan x="10.302295" y="-0.65625" style="font-size: 11px; font-family: 'DejaVu Sans'; fill: #263238">(</tspan>
       <tspan x="21.103564" y="-0.65625" style="font-size: 11px; font-family: 'DejaVu Sans'; fill: #263238">)</tspan>
      </text>
     </g>
    </g>
   </g>
   <g id="FillBetweenPolyCollection_1">
    <path d="M 47.884844 165.520911 
L 47.884844 165.523232 
L 48.289497 165.523216 
L 48.694151 165.523199 
L 49.098804 165.52318 
L 49.503458 165.52316 
L 49.908111 165.523138 
L 50.312765 165.523115 
L 50.717418 165.52309 
L 51.122072 165.523064 
L 51.526725 165.523035 
L 51.931378 165.523004 
L 52.336032 165.522971 
L 52.740685 165.522936 
L 53.145339 165.522897 
L 53.549992 165.522856 
L 53.954646 165.522811 
L 54.359299 165.522763 
L 54.763953 165.522711 
L 55.168606 165.522654 
L 55.57326 165.522593 
L 55.977913 165.522527 
L 56.382567 165.522456 
L 56.78722 165.522379 
L 57.191874 165.522295 
L 57.596527 165.522204 
L 58.001181 165.522105 
L 58.405834 165.521998 
L 58.810488 165.521882 
L 59.215141 165.521755 
L 59.619794 165.521618 
L 60.024448 165.521469 
L 60.429101 165.521307 
L 60.833755 165.521131 
L 61.238408 165.520939 
L 61.643062 165.52073 
L 62.047715 165.520504 
L 62.452369 165.520257 
L 62.857022 165.519989 
L 63.261676 165.519696 
L 63.666329 165.519379 
L 64.070983 165.519033 
L 64.475636 165.518656 
L 64.88029 165.518246 
L 65.284943 165.517801 
L 65.689597 165.517316 
L 66.09425 165.516788 
L 66.498904 165.516214 
L 66.903557 165.515589 
L 67.30821 165.514909 
L 67.712864 165.514171 
L 68.117517 165.513367 
L 68.522171 165.512494 
L 68.926824 165.511545 
L 69.331478 165.510513 
L 69.736131 165.509392 
L 70.140785 165.508175 
L 70.545438 165.506853 
L 70.950092 165.505418 
L 71.354745 165.503861 
L 71.759399 165.502171 
L 72.164052 165.500339 
L 72.568706 165.498352 
L 72.973359 165.496198 
L 73.378013 165.493863 
L 73.782666 165.491335 
L 74.18732 165.488597 
L 74.591973 165.485633 
L 74.996626 165.482425 
L 75.40128 165.478956 
L 75.805933 165.475204 
L 76.210587 165.471149 
L 76.61524 165.466768 
L 77.019894 165.462035 
L 77.424547 165.456926 
L 77.829201 165.451412 
L 78.233854 165.445464 
L 78.638508 165.43905 
L 79.043161 165.432137 
L 79.447815 165.424689 
L 79.852468 165.416667 
L 80.257122 165.408032 
L 80.661775 165.398741 
L 81.066429 165.388747 
L 81.471082 165.378004 
L 81.875735 165.366458 
L 82.280389 165.354057 
L 82.685042 165.340743 
L 83.089696 165.326455 
L 83.494349 165.311129 
L 83.899003 165.294697 
L 84.303656 165.277087 
L 84.70831 165.258223 
L 85.112963 165.238027 
L 85.517617 165.216413 
L 85.92227 165.193293 
L 86.326924 165.168574 
L 86.731577 165.142157 
L 87.136231 165.113941 
L 87.540884 165.083815 
L 87.945538 165.051668 
L 88.350191 165.017379 
L 88.754845 164.980824 
L 89.159498 164.941872 
L 89.564151 164.900385 
L 89.968805 164.856222 
L 90.373458 164.80923 
L 90.778112 164.759256 
L 91.182765 164.706134 
L 91.587419 164.649696 
L 91.992072 164.589764 
L 92.396726 164.526152 
L 92.801379 164.458669 
L 93.206033 164.387116 
L 93.610686 164.311285 
L 94.01534 164.23096 
L 94.419993 164.145918 
L 94.824647 164.055928 
L 95.2293 163.96075 
L 95.633954 163.860137 
L 96.038607 163.753831 
L 96.443261 163.641569 
L 96.847914 163.523078 
L 97.252567 163.398076 
L 97.657221 163.266273 
L 98.061874 163.127371 
L 98.466528 162.981064 
L 98.871181 162.827037 
L 99.275835 162.664966 
L 99.680488 162.494521 
L 100.085142 162.315363 
L 100.489795 162.127145 
L 100.894449 161.929513 
L 101.299102 161.722105 
L 101.703756 161.504553 
L 102.108409 161.276482 
L 102.513063 161.037509 
L 102.917716 160.787247 
L 103.32237 160.525303 
L 103.727023 160.251279 
L 104.131677 159.96477 
L 104.53633 159.665369 
L 104.940983 159.352666 
L 105.345637 159.026246 
L 105.75029 158.685692 
L 106.154944 158.330586 
L 106.559597 157.960509 
L 106.964251 157.57504 
L 107.368904 157.17376 
L 107.773558 156.75625 
L 108.178211 156.322096 
L 108.582865 155.870883 
L 108.987518 155.402203 
L 109.392172 154.915651 
L 109.796825 154.41083 
L 110.201479 153.887348 
L 110.606132 153.344822 
L 111.010786 152.782879 
L 111.415439 152.201154 
L 111.820092 151.599295 
L 112.224746 150.976963 
L 112.629399 150.333832 
L 113.034053 149.669592 
L 113.438706 148.983949 
L 113.84336 148.276627 
L 114.248013 147.547367 
L 114.652667 146.795933 
L 115.05732 146.022109 
L 115.461974 145.225702 
L 115.866627 144.406544 
L 116.271281 143.56449 
L 116.675934 142.699426 
L 117.080588 141.811261 
L 117.485241 140.899938 
L 117.889895 139.965427 
L 118.294548 139.007732 
L 118.699202 138.026889 
L 119.103855 137.022968 
L 119.508508 135.996074 
L 119.913162 134.946349 
L 120.317815 133.873972 
L 120.722469 132.779162 
L 121.127122 131.662173 
L 121.531776 130.523304 
L 121.936429 129.362891 
L 122.341083 128.181314 
L 122.745736 126.978994 
L 123.15039 125.756396 
L 123.555043 124.514027 
L 123.959697 123.252439 
L 124.36435 121.972227 
L 124.769004 120.674029 
L 125.173657 119.358532 
L 125.578311 118.026461 
L 125.982964 116.67859 
L 126.387618 115.315735 
L 126.792271 113.938757 
L 127.196924 112.548559 
L 127.601578 111.146086 
L 128.006231 109.732328 
L 128.410885 108.308314 
L 128.815538 106.875114 
L 129.220192 105.433838 
L 129.624845 103.985632 
L 130.029499 102.531683 
L 130.029499 102.327197 
L 130.029499 102.327197 
L 129.624845 103.46436 
L 129.220192 104.602793 
L 128.815538 105.741676 
L 128.410885 106.880201 
L 128.006231 108.017578 
L 127.601578 109.153031 
L 127.196924 110.2858 
L 126.792271 111.415143 
L 126.387618 112.540337 
L 125.982964 113.660676 
L 125.578311 114.775476 
L 125.173657 115.884071 
L 124.769004 116.985816 
L 124.36435 118.080087 
L 123.959697 119.166282 
L 123.555043 120.24382 
L 123.15039 121.312143 
L 122.745736 122.370716 
L 122.341083 123.419024 
L 121.936429 124.456579 
L 121.531776 125.482913 
L 121.127122 126.497582 
L 120.722469 127.500167 
L 120.317815 128.490269 
L 119.913162 129.467515 
L 119.508508 130.431555 
L 119.103855 131.382062 
L 118.699202 132.318729 
L 118.294548 133.241276 
L 117.889895 134.149444 
L 117.485241 135.042996 
L 117.080588 135.921718 
L 116.675934 136.785415 
L 116.271281 137.633918 
L 115.866627 138.467074 
L 115.461974 139.284755 
L 115.05732 140.086851 
L 114.652667 140.873271 
L 114.248013 141.643945 
L 113.84336 142.398822 
L 113.438706 143.137868 
L 113.034053 143.861066 
L 112.629399 144.568419 
L 112.224746 145.259945 
L 111.820092 145.935678 
L 111.415439 146.595668 
L 111.010786 147.239979 
L 110.606132 147.868692 
L 110.201479 148.481898 
L 109.796825 149.079704 
L 109.392172 149.662228 
L 108.987518 150.229602 
L 108.582865 150.781967 
L 108.178211 151.319475 
L 107.773558 151.842291 
L 107.368904 152.350586 
L 106.964251 152.844541 
L 106.559597 153.324347 
L 106.154944 153.790202 
L 105.75029 154.242309 
L 105.345637 154.68088 
L 104.940983 155.106134 
L 104.53633 155.518292 
L 104.131677 155.917585 
L 103.727023 156.304243 
L 103.32237 156.678504 
L 102.917716 157.040608 
L 102.513063 157.390798 
L 102.108409 157.729321 
L 101.703756 158.056423 
L 101.299102 158.372355 
L 100.894449 158.677368 
L 100.489795 158.971714 
L 100.085142 159.255644 
L 99.680488 159.52941 
L 99.275835 159.793266 
L 98.871181 160.047462 
L 98.466528 160.292249 
L 98.061874 160.527876 
L 97.657221 160.754591 
L 97.252567 160.972639 
L 96.847914 161.182264 
L 96.443261 161.383709 
L 96.038607 161.577211 
L 95.633954 161.763006 
L 95.2293 161.941329 
L 94.824647 162.112409 
L 94.419993 162.276472 
L 94.01534 162.433741 
L 93.610686 162.584437 
L 93.206033 162.728775 
L 92.801379 162.866966 
L 92.396726 162.999218 
L 91.992072 163.125736 
L 91.587419 163.246718 
L 91.182765 163.362361 
L 90.778112 163.472854 
L 90.373458 163.578385 
L 89.968805 163.679136 
L 89.564151 163.775284 
L 89.159498 163.867004 
L 88.754845 163.954464 
L 88.350191 164.037828 
L 87.945538 164.117257 
L 87.540884 164.192906 
L 87.136231 164.264927 
L 86.731577 164.333466 
L 86.326924 164.398666 
L 85.92227 164.460664 
L 85.517617 164.519596 
L 85.112963 164.57559 
L 84.70831 164.628772 
L 84.303656 164.679264 
L 83.899003 164.727182 
L 83.494349 164.77264 
L 83.089696 164.815748 
L 82.685042 164.856611 
L 82.280389 164.895331 
L 81.875735 164.932006 
L 81.471082 164.966731 
L 81.066429 164.999597 
L 80.661775 165.03069 
L 80.257122 165.060097 
L 79.852468 165.087896 
L 79.447815 165.114166 
L 79.043161 165.138983 
L 78.638508 165.162416 
L 78.233854 165.184535 
L 77.829201 165.205406 
L 77.424547 165.225091 
L 77.019894 165.243652 
L 76.61524 165.261144 
L 76.210587 165.277625 
L 75.805933 165.293146 
L 75.40128 165.307758 
L 74.996626 165.321509 
L 74.591973 165.334445 
L 74.18732 165.34661 
L 73.782666 165.358045 
L 73.378013 165.36879 
L 72.973359 165.378884 
L 72.568706 165.388361 
L 72.164052 165.397257 
L 71.759399 165.405605 
L 71.354745 165.413434 
L 70.950092 165.420775 
L 70.545438 165.427656 
L 70.140785 165.434102 
L 69.736131 165.44014 
L 69.331478 165.445794 
L 68.926824 165.451085 
L 68.522171 165.456035 
L 68.117517 165.460665 
L 67.712864 165.464994 
L 67.30821 165.469039 
L 66.903557 165.472819 
L 66.498904 165.476349 
L 66.09425 165.479644 
L 65.689597 165.48272 
L 65.284943 165.48559 
L 64.88029 165.488266 
L 64.475636 165.490761 
L 64.070983 165.493086 
L 63.666329 165.495252 
L 63.261676 165.49727 
L 62.857022 165.499148 
L 62.452369 165.500895 
L 62.047715 165.502521 
L 61.643062 165.504033 
L 61.238408 165.505438 
L 60.833755 165.506744 
L 60.429101 165.507956 
L 60.024448 165.509082 
L 59.619794 165.510126 
L 59.215141 165.511095 
L 58.810488 165.511992 
L 58.405834 165.512824 
L 58.001181 165.513594 
L 57.596527 165.514306 
L 57.191874 165.514965 
L 56.78722 165.515573 
L 56.382567 165.516135 
L 55.977913 165.516652 
L 55.57326 165.517129 
L 55.168606 165.517567 
L 54.763953 165.517969 
L 54.359299 165.518338 
L 53.954646 165.518675 
L 53.549992 165.518982 
L 53.145339 165.519262 
L 52.740685 165.519515 
L 52.336032 165.519744 
L 51.931378 165.519949 
L 51.526725 165.520131 
L 51.122072 165.520293 
L 50.717418 165.520434 
L 50.312765 165.520556 
L 49.908111 165.520659 
L 49.503458 165.520744 
L 49.098804 165.520811 
L 48.694151 165.520862 
L 48.289497 165.520895 
L 47.884844 165.520911 
z
" clip-path="url(#pe91a6dc902)" style="fill: #a5d6a7; fill-opacity: 0.52; stroke: #a5d6a7; stroke-opacity: 0.52"/>
    <path d="M 169.280886 92.790272 
L 169.280886 93.009727 
L 169.685539 94.289252 
L 170.090193 95.563176 
L 170.494846 96.830228 
L 170.8995 98.089172 
L 171.304153 99.338809 
L 171.708807 100.577978 
L 172.11346 101.805558 
L 172.518113 103.020467 
L 172.922767 104.221666 
L 173.32742 105.408158 
L 173.732074 106.578987 
L 174.136727 107.733244 
L 174.541381 108.870062 
L 174.946034 109.988618 
L 175.350688 111.088136 
L 175.755341 112.167884 
L 176.159995 113.227174 
L 176.564648 114.265364 
L 176.969302 115.281859 
L 177.373955 116.276104 
L 177.778609 117.247593 
L 178.183262 118.195861 
L 178.587916 119.120489 
L 178.992569 120.021097 
L 179.397223 120.897352 
L 179.801876 121.748958 
L 180.206529 122.575664 
L 180.611183 123.377254 
L 181.015836 124.153555 
L 181.42049 124.90443 
L 181.825143 125.62978 
L 182.229797 126.329539 
L 182.63445 127.003679 
L 183.039104 127.652203 
L 183.443757 128.275149 
L 183.848411 128.872583 
L 184.253064 129.444602 
L 184.657718 129.991333 
L 185.062371 130.512929 
L 185.467025 131.009569 
L 185.871678 131.481456 
L 186.276332 131.928819 
L 186.680985 132.351905 
L 187.085638 132.750987 
L 187.490292 133.126353 
L 187.894945 133.478311 
L 188.299599 133.807187 
L 188.704252 134.113321 
L 189.108906 134.397069 
L 189.513559 134.6588 
L 189.918213 134.898894 
L 190.322866 135.117744 
L 190.72752 135.315751 
L 191.132173 135.493326 
L 191.536827 135.650887 
L 191.94148 135.78886 
L 192.346134 135.907675 
L 192.750787 136.007769 
L 193.155441 136.08958 
L 193.560094 136.153551 
L 193.964748 136.200126 
L 194.369401 136.229753 
L 194.774054 136.242876 
L 195.178708 136.239943 
L 195.583361 136.221399 
L 195.988015 136.187688 
L 196.392668 136.139251 
L 196.797322 136.076529 
L 197.201975 135.999957 
L 197.606629 135.909966 
L 198.011282 135.806986 
L 198.415936 135.691439 
L 198.820589 135.563744 
L 199.225243 135.424315 
L 199.629896 135.273557 
L 200.03455 135.111874 
L 200.439203 134.939659 
L 200.843857 134.757302 
L 201.24851 134.565185 
L 201.653164 134.363682 
L 202.057817 134.153163 
L 202.46247 133.933988 
L 202.867124 133.706511 
L 203.271777 133.471079 
L 203.676431 133.228031 
L 204.081084 132.977699 
L 204.485738 132.720408 
L 204.890391 132.456476 
L 205.295045 132.186212 
L 205.699698 131.909918 
L 206.104352 131.627891 
L 206.509005 131.340419 
L 206.913659 131.047783 
L 207.318312 130.750258 
L 207.722966 130.44811 
L 208.127619 130.141601 
L 208.532273 129.830984 
L 208.936926 129.516508 
L 209.34158 129.198414 
L 209.746233 128.876935 
L 210.150886 128.552302 
L 210.55554 128.224738 
L 210.960193 127.894459 
L 211.364847 127.561677 
L 211.7695 127.226599 
L 212.174154 126.889425 
L 212.578807 126.55035 
L 212.983461 126.209566 
L 213.388114 125.867259 
L 213.792768 125.52361 
L 214.197421 125.178795 
L 214.602075 124.832988 
L 215.006728 124.486355 
L 215.411382 124.139063 
L 215.816035 123.79127 
L 216.220689 123.443133 
L 216.625342 123.094806 
L 217.029996 122.746438 
L 217.434649 122.398175 
L 217.839302 122.05016 
L 217.839302 122.013886 
L 217.839302 122.013886 
L 217.434649 122.313204 
L 217.029996 122.611709 
L 216.625342 122.909227 
L 216.220689 123.205584 
L 215.816035 123.5006 
L 215.411382 123.794093 
L 215.006728 124.085878 
L 214.602075 124.375763 
L 214.197421 124.663556 
L 213.792768 124.94906 
L 213.388114 125.232073 
L 212.983461 125.512392 
L 212.578807 125.789807 
L 212.174154 126.064106 
L 211.7695 126.335073 
L 211.364847 126.602489 
L 210.960193 126.866128 
L 210.55554 127.125764 
L 210.150886 127.381165 
L 209.746233 127.632095 
L 209.34158 127.878316 
L 208.936926 128.119584 
L 208.532273 128.355653 
L 208.127619 128.586273 
L 207.722966 128.81119 
L 207.318312 129.030145 
L 206.913659 129.242879 
L 206.509005 129.449128 
L 206.104352 129.648623 
L 205.699698 129.841095 
L 205.295045 130.02627 
L 204.890391 130.203871 
L 204.485738 130.373619 
L 204.081084 130.535233 
L 203.676431 130.688429 
L 203.271777 130.832921 
L 202.867124 130.96842 
L 202.46247 131.094636 
L 202.057817 131.211279 
L 201.653164 131.318055 
L 201.24851 131.414672 
L 200.843857 131.500834 
L 200.439203 131.576248 
L 200.03455 131.640618 
L 199.629896 131.69365 
L 199.225243 131.735051 
L 198.820589 131.764526 
L 198.415936 131.781785 
L 198.011282 131.786537 
L 197.606629 131.778496 
L 197.201975 131.757374 
L 196.797322 131.722891 
L 196.392668 131.674767 
L 195.988015 131.612727 
L 195.583361 131.536501 
L 195.178708 131.445823 
L 194.774054 131.340432 
L 194.369401 131.220074 
L 193.964748 131.084501 
L 193.560094 130.933472 
L 193.155441 130.766752 
L 192.750787 130.584117 
L 192.346134 130.385349 
L 191.94148 130.170241 
L 191.536827 129.938594 
L 191.132173 129.690221 
L 190.72752 129.424946 
L 190.322866 129.142603 
L 189.918213 128.843039 
L 189.513559 128.526114 
L 189.108906 128.191701 
L 188.704252 127.839688 
L 188.299599 127.469976 
L 187.894945 127.082482 
L 187.490292 126.67714 
L 187.085638 126.253897 
L 186.680985 125.81272 
L 186.276332 125.353592 
L 185.871678 124.876515 
L 185.467025 124.381508 
L 185.062371 123.868611 
L 184.657718 123.337882 
L 184.253064 122.7894 
L 183.848411 122.223264 
L 183.443757 121.639595 
L 183.039104 121.038534 
L 182.63445 120.420245 
L 182.229797 119.784913 
L 181.825143 119.132747 
L 181.42049 118.463978 
L 181.015836 117.778859 
L 180.611183 117.077669 
L 180.206529 116.360709 
L 179.801876 115.628305 
L 179.397223 114.880803 
L 178.992569 114.118579 
L 178.587916 113.342029 
L 178.183262 112.551575 
L 177.778609 111.747661 
L 177.373955 110.930758 
L 176.969302 110.101358 
L 176.564648 109.259979 
L 176.159995 108.407162 
L 175.755341 107.543471 
L 175.350688 106.669493 
L 174.946034 105.78584 
L 174.541381 104.893142 
L 174.136727 103.992054 
L 173.732074 103.083253 
L 173.32742 102.167434 
L 172.922767 101.245316 
L 172.518113 100.317635 
L 172.11346 99.385147 
L 171.708807 98.448626 
L 171.304153 97.508864 
L 170.8995 96.566669 
L 170.494846 95.622866 
L 170.090193 94.678295 
L 169.685539 93.733808 
L 169.280886 92.790272 
z
" clip-path="url(#pe91a6dc902)" style="fill: #a5d6a7; fill-opacity: 0.52; stroke: #a5d6a7; stroke-opacity: 0.52"/>
    <path d="M 293.914155 129.062648 
L 293.914155 129.082696 
L 294.318809 129.452396 
L 294.723462 129.821852 
L 295.128116 130.190991 
L 295.532769 130.559747 
L 295.937423 130.928051 
L 296.342076 131.295835 
L 296.74673 131.663034 
L 297.151383 132.029582 
L 297.556037 132.395414 
L 297.96069 132.760467 
L 298.365344 133.124678 
L 298.769997 133.487986 
L 299.174651 133.850329 
L 299.579304 134.211648 
L 299.983957 134.571884 
L 300.388611 134.930979 
L 300.793264 135.288877 
L 301.197918 135.64552 
L 301.602571 136.000855 
L 302.007225 136.354828 
L 302.411878 136.707386 
L 302.816532 137.058478 
L 303.221185 137.408051 
L 303.625839 137.756058 
L 304.030492 138.10245 
L 304.435146 138.447179 
L 304.839799 138.790198 
L 305.244453 139.131463 
L 305.649106 139.470929 
L 306.05376 139.808554 
L 306.458413 140.144295 
L 306.863067 140.478111 
L 307.26772 140.809963 
L 307.672373 141.139812 
L 308.077027 141.46762 
L 308.48168 141.793351 
L 308.886334 142.116969 
L 309.290987 142.43844 
L 309.695641 142.757732 
L 310.100294 143.074811 
L 310.504948 143.389647 
L 310.909601 143.702209 
L 311.314255 144.01247 
L 311.718908 144.320401 
L 312.123562 144.625976 
L 312.528215 144.929169 
L 312.932869 145.229955 
L 313.337522 145.528312 
L 313.742176 145.824215 
L 314.146829 146.117645 
L 314.551483 146.408581 
L 314.956136 146.697004 
L 315.360789 146.982895 
L 315.765443 147.266237 
L 316.170096 147.547013 
L 316.57475 147.82521 
L 316.979403 148.100811 
L 317.384057 148.373805 
L 317.78871 148.644178 
L 318.193364 148.911919 
L 318.598017 149.177019 
L 319.002671 149.439466 
L 319.407324 149.699254 
L 319.811978 149.956374 
L 320.216631 150.21082 
L 320.621285 150.462585 
L 321.025938 150.711665 
L 321.430592 150.958056 
L 321.835245 151.201754 
L 322.239899 151.442757 
L 322.644552 151.681064 
L 323.049205 151.916673 
L 323.453859 152.149585 
L 323.858512 152.379801 
L 324.263166 152.607322 
L 324.667819 152.83215 
L 325.072473 153.05429 
L 325.477126 153.273743 
L 325.88178 153.490516 
L 326.286433 153.704613 
L 326.691087 153.91604 
L 327.09574 154.124805 
L 327.500394 154.330913 
L 327.905047 154.534373 
L 328.309701 154.735194 
L 328.714354 154.933385 
L 329.119008 155.128956 
L 329.523661 155.321916 
L 329.928314 155.512277 
L 330.332968 155.700051 
L 330.737621 155.885249 
L 331.142275 156.067883 
L 331.546928 156.247968 
L 331.951582 156.425516 
L 332.356235 156.600542 
L 332.760889 156.773059 
L 333.165542 156.943084 
L 333.570196 157.11063 
L 333.974849 157.275715 
L 334.379503 157.438355 
L 334.784156 157.598565 
L 335.18881 157.756363 
L 335.593463 157.911766 
L 335.998117 158.064793 
L 336.40277 158.21546 
L 336.807424 158.363787 
L 337.212077 158.509792 
L 337.61673 158.653494 
L 338.021384 158.794912 
L 338.426037 158.934067 
L 338.830691 159.070976 
L 339.235344 159.205662 
L 339.639998 159.338143 
L 340.044651 159.468441 
L 340.449305 159.596576 
L 340.853958 159.722569 
L 341.258612 159.846441 
L 341.663265 159.968213 
L 342.067919 160.087907 
L 342.472572 160.205544 
L 342.877226 160.321146 
L 343.281879 160.434735 
L 343.686533 160.546332 
L 344.091186 160.655959 
L 344.49584 160.76364 
L 344.900493 160.869395 
L 345.305146 160.973247 
L 345.7098 161.075219 
L 346.114453 161.175332 
L 346.519107 161.273609 
L 346.92376 161.370073 
L 347.328414 161.464746 
L 347.733067 161.55765 
L 348.137721 161.648808 
L 348.542374 161.738242 
L 348.947028 161.825975 
L 349.351681 161.912029 
L 349.756335 161.996427 
L 350.160988 162.079191 
L 350.565642 162.160342 
L 350.970295 162.239904 
L 351.374949 162.317899 
L 351.779602 162.394348 
L 352.184256 162.469274 
L 352.588909 162.542698 
L 352.993562 162.614643 
L 353.398216 162.68513 
L 353.802869 162.754181 
L 354.207523 162.821817 
L 354.612176 162.88806 
L 355.01683 162.952931 
L 355.421483 163.016452 
L 355.826137 163.078643 
L 356.23079 163.139525 
L 356.635444 163.199119 
L 357.040097 163.257447 
L 357.444751 163.314527 
L 357.849404 163.370381 
L 358.254058 163.425029 
L 358.658711 163.47849 
L 359.063365 163.530785 
L 359.468018 163.581934 
L 359.872672 163.631955 
L 360.277325 163.680868 
L 360.681978 163.728693 
L 361.086632 163.775448 
L 361.491285 163.821153 
L 361.895939 163.865825 
L 362.300592 163.909483 
L 362.705246 163.952146 
L 363.109899 163.993831 
L 363.514553 164.034556 
L 363.919206 164.07434 
L 364.32386 164.113199 
L 364.728513 164.151151 
L 365.133167 164.188212 
L 365.53782 164.224401 
L 365.942474 164.259732 
L 366.347127 164.294223 
L 366.751781 164.327891 
L 367.156434 164.36075 
L 367.561087 164.392818 
L 367.965741 164.424109 
L 368.370394 164.454638 
L 368.775048 164.484423 
L 369.179701 164.513476 
L 369.584355 164.541813 
L 369.989008 164.569449 
L 370.393662 164.596398 
L 370.798315 164.622674 
L 371.202969 164.648292 
L 371.202969 163.897419 
L 371.202969 163.897419 
L 370.798315 163.895652 
L 370.393662 163.89212 
L 369.989008 163.886822 
L 369.584355 163.879762 
L 369.179701 163.870942 
L 368.775048 163.860365 
L 368.370394 163.848034 
L 367.965741 163.833955 
L 367.561087 163.818132 
L 367.156434 163.80057 
L 366.751781 163.781275 
L 366.347127 163.760254 
L 365.942474 163.737512 
L 365.53782 163.713057 
L 365.133167 163.686896 
L 364.728513 163.659035 
L 364.32386 163.629483 
L 363.919206 163.598246 
L 363.514553 163.565332 
L 363.109899 163.530749 
L 362.705246 163.494503 
L 362.300592 163.456602 
L 361.895939 163.417052 
L 361.491285 163.375861 
L 361.086632 163.333034 
L 360.681978 163.288577 
L 360.277325 163.242496 
L 359.872672 163.194796 
L 359.468018 163.145481 
L 359.063365 163.094556 
L 358.658711 163.042022 
L 358.254058 162.987884 
L 357.849404 162.932144 
L 357.444751 162.874802 
L 357.040097 162.815859 
L 356.635444 162.755315 
L 356.23079 162.69317 
L 355.826137 162.629422 
L 355.421483 162.564068 
L 355.01683 162.497107 
L 354.612176 162.428533 
L 354.207523 162.358342 
L 353.802869 162.28653 
L 353.398216 162.21309 
L 352.993562 162.138015 
L 352.588909 162.061299 
L 352.184256 161.982932 
L 351.779602 161.902907 
L 351.374949 161.821213 
L 350.970295 161.737841 
L 350.565642 161.652779 
L 350.160988 161.566018 
L 349.756335 161.477544 
L 349.351681 161.387346 
L 348.947028 161.295411 
L 348.542374 161.201726 
L 348.137721 161.106276 
L 347.733067 161.009048 
L 347.328414 160.910027 
L 346.92376 160.809198 
L 346.519107 160.706547 
L 346.114453 160.602057 
L 345.7098 160.495713 
L 345.305146 160.387499 
L 344.900493 160.277399 
L 344.49584 160.165397 
L 344.091186 160.051475 
L 343.686533 159.935618 
L 343.281879 159.817809 
L 342.877226 159.698032 
L 342.472572 159.576268 
L 342.067919 159.452502 
L 341.663265 159.326717 
L 341.258612 159.198896 
L 340.853958 159.069023 
L 340.449305 158.93708 
L 340.044651 158.803052 
L 339.639998 158.666922 
L 339.235344 158.528673 
L 338.830691 158.388291 
L 338.426037 158.245758 
L 338.021384 158.101059 
L 337.61673 157.95418 
L 337.212077 157.805103 
L 336.807424 157.653815 
L 336.40277 157.500301 
L 335.998117 157.344547 
L 335.593463 157.186538 
L 335.18881 157.02626 
L 334.784156 156.863701 
L 334.379503 156.698847 
L 333.974849 156.531685 
L 333.570196 156.362203 
L 333.165542 156.190389 
L 332.760889 156.016232 
L 332.356235 155.83972 
L 331.951582 155.660843 
L 331.546928 155.479591 
L 331.142275 155.295953 
L 330.737621 155.109921 
L 330.332968 154.921486 
L 329.928314 154.730639 
L 329.523661 154.537374 
L 329.119008 154.341682 
L 328.714354 154.143557 
L 328.309701 153.942993 
L 327.905047 153.739984 
L 327.500394 153.534525 
L 327.09574 153.326613 
L 326.691087 153.116242 
L 326.286433 152.903411 
L 325.88178 152.688116 
L 325.477126 152.470356 
L 325.072473 152.250129 
L 324.667819 152.027436 
L 324.263166 151.802275 
L 323.858512 151.574649 
L 323.453859 151.344558 
L 323.049205 151.112004 
L 322.644552 150.876992 
L 322.239899 150.639524 
L 321.835245 150.399605 
L 321.430592 150.15724 
L 321.025938 149.912436 
L 320.621285 149.665198 
L 320.216631 149.415535 
L 319.811978 149.163455 
L 319.407324 148.908967 
L 319.002671 148.652081 
L 318.598017 148.392808 
L 318.193364 148.131159 
L 317.78871 147.867148 
L 317.384057 147.600787 
L 316.979403 147.332091 
L 316.57475 147.061074 
L 316.170096 146.787753 
L 315.765443 146.512144 
L 315.360789 146.234265 
L 314.956136 145.954136 
L 314.551483 145.671774 
L 314.146829 145.387201 
L 313.742176 145.100438 
L 313.337522 144.811507 
L 312.932869 144.520432 
L 312.528215 144.227236 
L 312.123562 143.931945 
L 311.718908 143.634584 
L 311.314255 143.33518 
L 310.909601 143.033762 
L 310.504948 142.730357 
L 310.100294 142.424996 
L 309.695641 142.11771 
L 309.290987 141.808529 
L 308.886334 141.497487 
L 308.48168 141.184616 
L 308.077027 140.869953 
L 307.672373 140.553531 
L 307.26772 140.235387 
L 306.863067 139.915558 
L 306.458413 139.594083 
L 306.05376 139.271002 
L 305.649106 138.946353 
L 305.244453 138.620178 
L 304.839799 138.292519 
L 304.435146 137.963419 
L 304.030492 137.632922 
L 303.625839 137.301072 
L 303.221185 136.967915 
L 302.816532 136.633499 
L 302.411878 136.297869 
L 302.007225 135.961075 
L 301.602571 135.623166 
L 301.197918 135.284192 
L 300.793264 134.944203 
L 300.388611 134.603253 
L 299.983957 134.261393 
L 299.579304 133.918676 
L 299.174651 133.575159 
L 298.769997 133.230895 
L 298.365344 132.88594 
L 297.96069 132.540352 
L 297.556037 132.194187 
L 297.151383 131.847505 
L 296.74673 131.500364 
L 296.342076 131.152824 
L 295.937423 130.804946 
L 295.532769 130.456791 
L 295.128116 130.10842 
L 294.723462 129.759897 
L 294.318809 129.411285 
L 293.914155 129.062648 
z
" clip-path="url(#pe91a6dc902)" style="fill: #a5d6a7; fill-opacity: 0.52; stroke: #a5d6a7; stroke-opacity: 0.52"/>
   </g>
   <g id="FillBetweenPolyCollection_2">
    <path d="M 130.434152 101.073209 
L 130.434152 101.192137 
L 130.838806 100.060028 
L 131.243459 98.931724 
L 131.648113 97.808094 
L 132.052766 96.690012 
L 132.45742 95.578362 
L 132.862073 94.474034 
L 133.266727 93.377923 
L 133.67138 92.290928 
L 134.076034 91.213952 
L 134.480687 90.147897 
L 134.88534 89.093668 
L 135.289994 88.052168 
L 135.694647 87.024296 
L 136.099301 86.01095 
L 136.503954 85.01302 
L 136.908608 84.031391 
L 137.313261 83.06694 
L 137.717915 82.120534 
L 138.122568 81.19303 
L 138.527222 80.285272 
L 138.931875 79.398092 
L 139.336529 78.532305 
L 139.741182 77.68871 
L 140.145836 76.868092 
L 140.550489 76.071212 
L 140.955143 75.298814 
L 141.359796 74.55162 
L 141.76445 73.830329 
L 142.169103 73.135616 
L 142.573756 72.46813 
L 142.97841 71.828496 
L 143.383063 71.21731 
L 143.787717 70.635139 
L 144.19237 70.082522 
L 144.597024 69.559968 
L 145.001677 69.067952 
L 145.406331 68.60692 
L 145.810984 68.177282 
L 146.215638 67.779416 
L 146.620291 67.413666 
L 147.024945 67.080339 
L 147.429598 66.779707 
L 147.834252 66.512008 
L 148.238905 66.277439 
L 148.643559 66.076163 
L 149.048212 65.908306 
L 149.452865 65.773953 
L 149.857519 65.673156 
L 150.262172 65.605924 
L 150.666826 65.572232 
L 151.071479 65.572014 
L 151.476133 65.605169 
L 151.880786 65.671556 
L 152.28544 65.770997 
L 152.690093 65.903277 
L 153.094747 66.068144 
L 153.4994 66.26531 
L 153.904054 66.494451 
L 154.308707 66.755206 
L 154.713361 67.047182 
L 155.118014 67.369949 
L 155.522668 67.723046 
L 155.927321 68.105977 
L 156.331975 68.518217 
L 156.736628 68.959209 
L 157.141281 69.428364 
L 157.545935 69.925068 
L 157.950588 70.448676 
L 158.355242 70.998518 
L 158.759895 71.573897 
L 159.164549 72.174093 
L 159.569202 72.798362 
L 159.973856 73.445938 
L 160.378509 74.116035 
L 160.783163 74.807846 
L 161.187816 75.520547 
L 161.59247 76.253298 
L 161.997123 77.005241 
L 162.401777 77.775507 
L 162.80643 78.563213 
L 163.211084 79.367464 
L 163.615737 80.187356 
L 164.020391 81.021976 
L 164.425044 81.870405 
L 164.829697 82.731718 
L 165.234351 83.604985 
L 165.639004 84.489273 
L 166.043658 85.383648 
L 166.448311 86.287177 
L 166.852965 87.198926 
L 167.257618 88.117965 
L 167.662272 89.043366 
L 168.066925 89.97421 
L 168.471579 90.909579 
L 168.876232 91.848566 
L 168.876232 91.725906 
L 168.876232 91.725906 
L 168.471579 90.439125 
L 168.066925 89.150753 
L 167.662272 87.862183 
L 167.257618 86.574839 
L 166.852965 85.290165 
L 166.448311 84.009631 
L 166.043658 82.734723 
L 165.639004 81.466947 
L 165.234351 80.207823 
L 164.829697 78.958882 
L 164.425044 77.721665 
L 164.020391 76.497722 
L 163.615737 75.288603 
L 163.211084 74.095864 
L 162.80643 72.921055 
L 162.401777 71.765724 
L 161.997123 70.631411 
L 161.59247 69.519645 
L 161.187816 68.431942 
L 160.783163 67.3698 
L 160.378509 66.3347 
L 159.973856 65.328098 
L 159.569202 64.351427 
L 159.164549 63.406088 
L 158.759895 62.493453 
L 158.355242 61.614861 
L 157.950588 60.77161 
L 157.545935 59.964961 
L 157.141281 59.196132 
L 156.736628 58.466295 
L 156.331975 57.776574 
L 155.927321 57.128043 
L 155.522668 56.521723 
L 155.118014 55.958582 
L 154.713361 55.439527 
L 154.308707 54.965411 
L 153.904054 54.537022 
L 153.4994 54.155087 
L 153.094747 53.820267 
L 152.690093 53.53316 
L 152.28544 53.294294 
L 151.880786 53.104131 
L 151.476133 52.96306 
L 151.071479 52.871405 
L 150.666826 52.829414 
L 150.262172 52.837267 
L 149.857519 52.89507 
L 149.452865 53.002858 
L 149.048212 53.160594 
L 148.643559 53.368167 
L 148.238905 53.625397 
L 147.834252 53.932032 
L 147.429598 54.287748 
L 147.024945 54.692153 
L 146.620291 55.144786 
L 146.215638 55.645116 
L 145.810984 56.192548 
L 145.406331 56.786421 
L 145.001677 57.426012 
L 144.597024 58.110533 
L 144.19237 58.83914 
L 143.787717 59.610927 
L 143.383063 60.424935 
L 142.97841 61.280151 
L 142.573756 62.17551 
L 142.169103 63.109897 
L 141.76445 64.082153 
L 141.359796 65.091073 
L 140.955143 66.135412 
L 140.550489 67.213886 
L 140.145836 68.325176 
L 139.741182 69.46793 
L 139.336529 70.640766 
L 138.931875 71.842274 
L 138.527222 73.071022 
L 138.122568 74.325557 
L 137.717915 75.604406 
L 137.313261 76.906082 
L 136.908608 78.229087 
L 136.503954 79.571913 
L 136.099301 80.933047 
L 135.694647 82.310971 
L 135.289994 83.704168 
L 134.88534 85.111124 
L 134.480687 86.530329 
L 134.076034 87.960283 
L 133.67138 89.399496 
L 133.266727 90.84649 
L 132.862073 92.299805 
L 132.45742 93.757998 
L 132.052766 95.219647 
L 131.648113 96.683353 
L 131.243459 98.147742 
L 130.838806 99.611467 
L 130.434152 101.073209 
z
" clip-path="url(#pe91a6dc902)" style="fill: #ef9a9a; fill-opacity: 0.52; stroke: #ef9a9a; stroke-opacity: 0.52"/>
    <path d="M 218.243956 121.702533 
L 218.243956 121.713921 
L 218.648609 121.413475 
L 219.053263 121.112711 
L 219.457916 120.811787 
L 219.86257 120.510858 
L 220.267223 120.210076 
L 220.671877 119.909591 
L 221.07653 119.609548 
L 221.481184 119.310092 
L 221.885837 119.011362 
L 222.290491 118.713496 
L 222.695144 118.416628 
L 223.099798 118.12089 
L 223.504451 117.826412 
L 223.909105 117.53332 
L 224.313758 117.241738 
L 224.718411 116.951789 
L 225.123065 116.663589 
L 225.527718 116.377258 
L 225.932372 116.092908 
L 226.337025 115.810652 
L 226.741679 115.530599 
L 227.146332 115.252857 
L 227.550986 114.977531 
L 227.955639 114.704724 
L 228.360293 114.434538 
L 228.764946 114.16707 
L 229.1696 113.902419 
L 229.574253 113.640678 
L 229.978907 113.381941 
L 230.38356 113.126299 
L 230.788214 112.873841 
L 231.192867 112.624653 
L 231.597521 112.378822 
L 232.002174 112.136431 
L 232.406827 111.897562 
L 232.811481 111.662294 
L 233.216134 111.430707 
L 233.620788 111.202875 
L 234.025441 110.978874 
L 234.430095 110.758777 
L 234.834748 110.542656 
L 235.239402 110.330579 
L 235.644055 110.122615 
L 236.048709 109.918831 
L 236.453362 109.71929 
L 236.858016 109.524056 
L 237.262669 109.333191 
L 237.667323 109.146753 
L 238.071976 108.964802 
L 238.47663 108.787394 
L 238.881283 108.614584 
L 239.285937 108.446425 
L 239.69059 108.28297 
L 240.095243 108.124267 
L 240.499897 107.970367 
L 240.90455 107.821315 
L 241.309204 107.677158 
L 241.713857 107.537939 
L 242.118511 107.403701 
L 242.523164 107.274483 
L 242.927818 107.150326 
L 243.332471 107.031267 
L 243.737125 106.917342 
L 244.141778 106.808584 
L 244.546432 106.705028 
L 244.951085 106.606703 
L 245.355739 106.51364 
L 245.760392 106.425867 
L 246.165046 106.343409 
L 246.569699 106.266292 
L 246.974353 106.194539 
L 247.379006 106.128172 
L 247.783659 106.06721 
L 248.188313 106.011672 
L 248.592966 105.961574 
L 248.99762 105.916932 
L 249.402273 105.87776 
L 249.806927 105.844069 
L 250.21158 105.81587 
L 250.616234 105.793172 
L 251.020887 105.775982 
L 251.425541 105.764304 
L 251.830194 105.758145 
L 252.234848 105.757505 
L 252.639501 105.762386 
L 253.044155 105.772787 
L 253.448808 105.788706 
L 253.853462 105.810139 
L 254.258115 105.83708 
L 254.662768 105.869522 
L 255.067422 105.907457 
L 255.472075 105.950874 
L 255.876729 105.999763 
L 256.281382 106.054109 
L 256.686036 106.113898 
L 257.090689 106.179114 
L 257.495343 106.249738 
L 257.899996 106.325753 
L 258.30465 106.407136 
L 258.709303 106.493866 
L 259.113957 106.585919 
L 259.51861 106.68327 
L 259.923264 106.785892 
L 260.327917 106.893758 
L 260.732571 107.006837 
L 261.137224 107.125099 
L 261.541878 107.248512 
L 261.946531 107.377042 
L 262.351184 107.510654 
L 262.755838 107.649311 
L 263.160491 107.792978 
L 263.565145 107.941613 
L 263.969798 108.095178 
L 264.374452 108.25363 
L 264.779105 108.416928 
L 265.183759 108.585026 
L 265.588412 108.75788 
L 265.993066 108.935444 
L 266.397719 109.11767 
L 266.802373 109.30451 
L 267.207026 109.495913 
L 267.61168 109.691829 
L 268.016333 109.892206 
L 268.420987 110.096991 
L 268.82564 110.306129 
L 269.230294 110.519567 
L 269.634947 110.737247 
L 270.0396 110.959114 
L 270.444254 111.185108 
L 270.848907 111.415172 
L 271.253561 111.649245 
L 271.658214 111.887267 
L 272.062868 112.129176 
L 272.467521 112.374911 
L 272.872175 112.624409 
L 273.276828 112.877605 
L 273.681482 113.134435 
L 274.086135 113.394835 
L 274.490789 113.658738 
L 274.895442 113.926078 
L 275.300096 114.196788 
L 275.704749 114.470801 
L 276.109403 114.748047 
L 276.514056 115.028459 
L 276.91871 115.311968 
L 277.323363 115.598502 
L 277.728016 115.887994 
L 278.13267 116.180371 
L 278.537323 116.475563 
L 278.941977 116.773498 
L 279.34663 117.074106 
L 279.751284 117.377314 
L 280.155937 117.68305 
L 280.560591 117.991242 
L 280.965244 118.301816 
L 281.369898 118.6147 
L 281.774551 118.929822 
L 282.179205 119.247107 
L 282.583858 119.566483 
L 282.988512 119.887877 
L 283.393165 120.211214 
L 283.797819 120.536422 
L 284.202472 120.863428 
L 284.607126 121.192157 
L 285.011779 121.522537 
L 285.416432 121.854495 
L 285.821086 122.187957 
L 286.225739 122.52285 
L 286.630393 122.859102 
L 287.035046 123.196641 
L 287.4397 123.535393 
L 287.844353 123.875286 
L 288.249007 124.21625 
L 288.65366 124.558211 
L 289.058314 124.901099 
L 289.462967 125.244844 
L 289.867621 125.589374 
L 290.272274 125.934619 
L 290.676928 126.280509 
L 291.081581 126.626976 
L 291.486235 126.97395 
L 291.890888 127.321362 
L 292.295541 127.669146 
L 292.700195 128.017233 
L 293.104848 128.365556 
L 293.509502 128.71405 
L 293.509502 128.71282 
L 293.509502 128.71282 
L 293.104848 128.34284 
L 292.700195 127.972828 
L 292.295541 127.602857 
L 291.890888 127.233 
L 291.486235 126.863331 
L 291.081581 126.493926 
L 290.676928 126.124858 
L 290.272274 125.756205 
L 289.867621 125.388043 
L 289.462967 125.020448 
L 289.058314 124.6535 
L 288.65366 124.287275 
L 288.249007 123.921854 
L 287.844353 123.557314 
L 287.4397 123.193735 
L 287.035046 122.831199 
L 286.630393 122.469784 
L 286.225739 122.109571 
L 285.821086 121.750643 
L 285.416432 121.39308 
L 285.011779 121.036963 
L 284.607126 120.682376 
L 284.202472 120.329398 
L 283.797819 119.978114 
L 283.393165 119.628606 
L 282.988512 119.280955 
L 282.583858 118.935245 
L 282.179205 118.591557 
L 281.774551 118.249976 
L 281.369898 117.910583 
L 280.965244 117.573461 
L 280.560591 117.238693 
L 280.155937 116.90636 
L 279.751284 116.576546 
L 279.34663 116.249331 
L 278.941977 115.924799 
L 278.537323 115.603031 
L 278.13267 115.284107 
L 277.728016 114.968109 
L 277.323363 114.655118 
L 276.91871 114.345214 
L 276.514056 114.038476 
L 276.109403 113.734984 
L 275.704749 113.434818 
L 275.300096 113.138054 
L 274.895442 112.844772 
L 274.490789 112.555048 
L 274.086135 112.268959 
L 273.681482 111.986581 
L 273.276828 111.707989 
L 272.872175 111.433258 
L 272.467521 111.162461 
L 272.062868 110.895672 
L 271.658214 110.632963 
L 271.253561 110.374404 
L 270.848907 110.120068 
L 270.444254 109.870022 
L 270.0396 109.624335 
L 269.634947 109.383076 
L 269.230294 109.14631 
L 268.82564 108.914104 
L 268.420987 108.686521 
L 268.016333 108.463626 
L 267.61168 108.245479 
L 267.207026 108.032144 
L 266.802373 107.823678 
L 266.397719 107.620141 
L 265.993066 107.421591 
L 265.588412 107.228083 
L 265.183759 107.039672 
L 264.779105 106.856412 
L 264.374452 106.678355 
L 263.969798 106.505552 
L 263.565145 106.338053 
L 263.160491 106.175904 
L 262.755838 106.019153 
L 262.351184 105.867845 
L 261.946531 105.722024 
L 261.541878 105.581731 
L 261.137224 105.447006 
L 260.732571 105.31789 
L 260.327917 105.19442 
L 259.923264 105.07663 
L 259.51861 104.964556 
L 259.113957 104.85823 
L 258.709303 104.757684 
L 258.30465 104.662945 
L 257.899996 104.574043 
L 257.495343 104.491003 
L 257.090689 104.413849 
L 256.686036 104.342604 
L 256.281382 104.277289 
L 255.876729 104.217923 
L 255.472075 104.164523 
L 255.067422 104.117105 
L 254.662768 104.075684 
L 254.258115 104.04027 
L 253.853462 104.010874 
L 253.448808 103.987506 
L 253.044155 103.970172 
L 252.639501 103.958877 
L 252.234848 103.953624 
L 251.830194 103.954415 
L 251.425541 103.961249 
L 251.020887 103.974124 
L 250.616234 103.993038 
L 250.21158 104.017983 
L 249.806927 104.048952 
L 249.402273 104.085937 
L 248.99762 104.128926 
L 248.592966 104.177906 
L 248.188313 104.232864 
L 247.783659 104.293782 
L 247.379006 104.360643 
L 246.974353 104.433426 
L 246.569699 104.512111 
L 246.165046 104.596674 
L 245.760392 104.68709 
L 245.355739 104.783333 
L 244.951085 104.885373 
L 244.546432 104.993181 
L 244.141778 105.106726 
L 243.737125 105.225973 
L 243.332471 105.350888 
L 242.927818 105.481433 
L 242.523164 105.617571 
L 242.118511 105.759262 
L 241.713857 105.906464 
L 241.309204 106.059134 
L 240.90455 106.217226 
L 240.499897 106.380696 
L 240.095243 106.549495 
L 239.69059 106.723573 
L 239.285937 106.902881 
L 238.881283 107.087365 
L 238.47663 107.276972 
L 238.071976 107.471647 
L 237.667323 107.671333 
L 237.262669 107.875971 
L 236.858016 108.085503 
L 236.453362 108.299867 
L 236.048709 108.519002 
L 235.644055 108.742842 
L 235.239402 108.971324 
L 234.834748 109.204382 
L 234.430095 109.441946 
L 234.025441 109.683949 
L 233.620788 109.930321 
L 233.216134 110.180988 
L 232.811481 110.43588 
L 232.406827 110.69492 
L 232.002174 110.958035 
L 231.597521 111.225148 
L 231.192867 111.496179 
L 230.788214 111.771051 
L 230.38356 112.049683 
L 229.978907 112.331992 
L 229.574253 112.617897 
L 229.1696 112.907312 
L 228.764946 113.200152 
L 228.360293 113.496331 
L 227.955639 113.79576 
L 227.550986 114.09835 
L 227.146332 114.404009 
L 226.741679 114.712647 
L 226.337025 115.024168 
L 225.932372 115.338479 
L 225.527718 115.655483 
L 225.123065 115.975082 
L 224.718411 116.297177 
L 224.313758 116.621667 
L 223.909105 116.94845 
L 223.504451 117.277421 
L 223.099798 117.608475 
L 222.695144 117.941505 
L 222.290491 118.2764 
L 221.885837 118.613051 
L 221.481184 118.951343 
L 221.07653 119.291162 
L 220.671877 119.632391 
L 220.267223 119.974911 
L 219.86257 120.3186 
L 219.457916 120.663334 
L 219.053263 121.008987 
L 218.648609 121.355431 
L 218.243956 121.702533 
z
" clip-path="url(#pe91a6dc902)" style="fill: #ef9a9a; fill-opacity: 0.52; stroke: #ef9a9a; stroke-opacity: 0.52"/>
   </g>
   <g id="patch_3">
    <path d="M 47.884844 183.115 
L 47.884844 7.2 
" style="fill: none; stroke: #b0bec5; stroke-width: 0.8; stroke-linejoin: miter; stroke-linecap: square"/>
   </g>
   <g id="patch_4">
    <path d="M 47.884844 183.115 
L 371.202969 183.115 
" style="fill: none; stroke: #b0bec5; stroke-width: 0.8; stroke-linejoin: miter; stroke-linecap: square"/>
   </g>
   <g id="line2d_9">
    <path d="M 47.884844 165.523232 
L 79.852468 165.416667 
L 86.326924 165.168574 
L 90.373458 164.80923 
L 93.610686 164.311285 
L 96.443261 163.641569 
L 98.871181 162.827037 
L 100.894449 161.929513 
L 102.917716 160.787247 
L 104.940983 159.352666 
L 106.559597 157.960509 
L 108.178211 156.322096 
L 109.796825 154.41083 
L 111.415439 152.201154 
L 113.034053 149.669592 
L 114.652667 146.795933 
L 116.675934 142.699426 
L 118.699202 138.026889 
L 120.722469 132.779162 
L 123.15039 125.756396 
L 125.578311 118.026461 
L 128.815538 106.875114 
L 137.313261 76.906082 
L 139.741182 69.46793 
L 141.76445 64.082153 
L 143.383063 60.424935 
L 144.597024 58.110533 
L 145.810984 56.192548 
L 147.024945 54.692153 
L 148.238905 53.625397 
L 149.048212 53.160594 
L 149.857519 52.89507 
L 150.666826 52.829414 
L 151.476133 52.96306 
L 152.28544 53.294294 
L 153.094747 53.820267 
L 154.308707 54.965411 
L 155.522668 56.521723 
L 156.736628 58.466295 
L 157.950588 60.77161 
L 159.569202 64.351427 
L 161.59247 69.519645 
L 164.020391 76.497722 
L 167.662272 87.862183 
L 172.518113 103.020467 
L 175.350688 111.088136 
L 177.373955 116.276104 
L 179.397223 120.897352 
L 181.42049 124.90443 
L 183.039104 127.652203 
L 184.657718 129.991333 
L 186.276332 131.928819 
L 187.894945 133.478311 
L 189.513559 134.6588 
L 191.132173 135.493326 
L 192.750787 136.007769 
L 194.369401 136.229753 
L 195.988015 136.187688 
L 197.606629 135.909966 
L 199.225243 135.424315 
L 201.24851 134.565185 
L 203.271777 133.471079 
L 205.699698 131.909918 
L 208.532273 129.830984 
L 212.578807 126.55035 
L 227.146332 114.404009 
L 230.788214 111.771051 
L 234.025441 109.683949 
L 237.262669 107.875971 
L 240.095243 106.549495 
L 242.927818 105.481433 
L 245.355739 104.783333 
L 247.783659 104.293782 
L 250.21158 104.017983 
L 252.639501 103.958877 
L 255.067422 104.117105 
L 257.495343 104.491003 
L 259.923264 105.07663 
L 262.351184 105.867845 
L 265.183759 107.039672 
L 268.016333 108.463626 
L 270.848907 110.120068 
L 274.086135 112.268959 
L 277.728016 114.968109 
L 281.774551 118.249976 
L 287.035046 122.831199 
L 307.26772 140.809963 
L 312.123562 144.625976 
L 316.57475 147.82521 
L 320.621285 150.462585 
L 324.667819 152.83215 
L 328.714354 154.933385 
L 332.760889 156.773059 
L 336.807424 158.363787 
L 340.853958 159.722569 
L 345.305146 160.973247 
L 349.756335 161.996427 
L 354.612176 162.88806 
L 359.872672 163.631955 
L 365.942474 164.259732 
L 371.202969 164.648292 
L 371.202969 164.648292 
" clip-path="url(#pe91a6dc902)" style="fill: none; stroke: #5b7fa5; stroke-width: 2.6; stroke-linecap: square"/>
   </g>
   <g id="line2d_10">
    <path d="M 47.884844 165.520911 
L 71.354745 165.413434 
L 78.638508 165.162416 
L 83.494349 164.77264 
L 87.136231 164.264927 
L 90.373458 163.578385 
L 93.206033 162.728775 
L 95.633954 161.763006 
L 98.061874 160.527876 
L 100.085142 159.255644 
L 102.108409 157.729321 
L 104.131677 155.917585 
L 106.154944 153.790202 
L 108.178211 151.319475 
L 110.201479 148.481898 
L 112.224746 145.259945 
L 114.248013 141.643945 
L 116.675934 136.785415 
L 119.103855 131.382062 
L 121.936429 124.456579 
L 125.173657 115.884071 
L 131.243459 98.931724 
L 134.88534 89.093668 
L 137.313261 83.06694 
L 139.336529 78.532305 
L 141.359796 74.55162 
L 142.97841 71.828496 
L 144.597024 69.559968 
L 145.810984 68.177282 
L 147.024945 67.080339 
L 148.238905 66.277439 
L 149.452865 65.773953 
L 150.666826 65.572232 
L 151.880786 65.671556 
L 153.094747 66.068144 
L 154.308707 66.755206 
L 155.522668 67.723046 
L 156.736628 68.959209 
L 158.355242 70.998518 
L 159.973856 73.445938 
L 161.997123 77.005241 
L 164.020391 81.021976 
L 166.852965 87.198926 
L 177.778609 111.747661 
L 180.206529 116.360709 
L 182.229797 119.784913 
L 184.253064 122.7894 
L 186.276332 125.353592 
L 187.894945 127.082482 
L 189.513559 128.526114 
L 191.132173 129.690221 
L 192.750787 130.584117 
L 194.369401 131.220074 
L 195.988015 131.612727 
L 197.606629 131.778496 
L 199.225243 131.735051 
L 200.843857 131.500834 
L 202.867124 130.96842 
L 204.890391 130.203871 
L 207.318312 129.030145 
L 210.150886 127.381165 
L 213.388114 125.232073 
L 218.243956 121.713921 
L 226.741679 115.530599 
L 230.788214 112.873841 
L 234.430095 110.758777 
L 237.667323 109.146753 
L 240.499897 107.970367 
L 243.332471 107.031267 
L 246.165046 106.343409 
L 248.592966 105.961574 
L 251.020887 105.775982 
L 253.448808 105.788706 
L 255.876729 105.999763 
L 258.30465 106.407136 
L 261.137224 107.125099 
L 263.969798 108.095178 
L 266.802373 109.30451 
L 269.634947 110.737247 
L 272.872175 112.624409 
L 276.514056 115.028459 
L 280.560591 117.991242 
L 285.416432 121.854495 
L 291.890888 127.321362 
L 304.435146 137.963419 
L 309.695641 142.11771 
L 314.551483 145.671774 
L 319.002671 148.652081 
L 323.049205 151.112004 
L 327.09574 153.326613 
L 331.142275 155.295953 
L 335.18881 157.02626 
L 339.235344 158.528673 
L 343.686533 159.935618 
L 348.137721 161.106276 
L 352.993562 162.138015 
L 357.849404 162.932144 
L 362.705246 163.494503 
L 367.561087 163.818132 
L 371.202969 163.897419 
L 371.202969 163.897419 
" clip-path="url(#pe91a6dc902)" style="fill: none; stroke-dasharray: 8.88,3.84; stroke-dashoffset: 0; stroke: #e07a5f; stroke-width: 2.4"/>
   </g>
   <g id="text_11">
    <g id="patch_5">
     <path d="M 130.99352 50.579097 
L 185.993832 50.579097 
Q 188.543832 50.579097 188.543832 48.029097 
L 188.543832 27.941153 
Q 188.543832 25.391153 185.993832 25.391153 
L 130.99352 25.391153 
Q 128.44352 25.391153 128.44352 27.941153 
L 128.44352 48.029097 
Q 128.44352 50.579097 130.99352 50.579097 
z
" style="fill: #ffffff; opacity: 0.92; stroke: #ef9a9a; stroke-width: 0.8; stroke-linejoin: miter"/>
    </g>
    <text style="font-weight: 600; font-size: 10.2px; font-family: 'Arial'; fill: #b7432f" transform="translate(131.566473 35.242122)">sharp peak</text>
    <text style="font-weight: 600; font-size: 10.2px; font-family: 'Arial'; fill: #b7432f" transform="translate(130.99352 46.016191)">loses mass</text>
   </g>
   <g id="text_12">
    <g id="patch_6">
     <path d="M 170.419146 160.659847 
L 235.055271 160.659847 
Q 237.605271 160.659847 237.605271 158.109847 
L 237.605271 137.754153 
Q 237.605271 135.204153 235.055271 135.204153 
L 170.419146 135.204153 
Q 167.869146 135.204153 167.869146 137.754153 
L 167.869146 158.109847 
Q 167.869146 160.659847 170.419146 160.659847 
z
" style="fill: #ffffff; opacity: 0.92; stroke: #a5d6a7; stroke-width: 0.8; stroke-linejoin: miter"/>
    </g>
    <text style="font-weight: 600; font-size: 10.2px; font-family: 'Arial'; fill: #2e7d32" transform="translate(170.419146 145.055122)">nearby valley</text>
    <text style="font-weight: 600; font-size: 10.2px; font-family: 'Arial'; fill: #2e7d32" transform="translate(174.958146 155.963066)">gains mass</text>
   </g>
   <g id="text_13">
    <g id="patch_7">
     <path d="M 263.66649 112.548187 
L 290.39449 112.548187 
L 290.39449 99.756187 
L 263.66649 99.756187 
z
" style="fill: #ffffff; opacity: 0.9"/>
    </g>
    <!-- $p_t(x)$ -->
    <g style="fill: #5b7fa5" transform="translate(265.01849 109.012187)">
     <text>
      <tspan x="0" y="-0.40625" style="font-style: oblique; font-size: 10.4px; font-family: 'DejaVu Sans'; fill: #5b7fa5">p</tspan>
      <tspan x="13.754352" y="-0.40625" style="font-style: oblique; font-size: 10.4px; font-family: 'DejaVu Sans'; fill: #5b7fa5">x</tspan>
      <tspan x="6.585693" y="1.234375" style="font-style: oblique; font-size: 7.28px; font-family: 'DejaVu Sans'; fill: #5b7fa5">t</tspan>
      <tspan x="9.706683" y="-0.40625" style="font-size: 10.4px; font-family: 'DejaVu Sans'; fill: #5b7fa5">(</tspan>
      <tspan x="19.894244" y="-0.40625" style="font-size: 10.4px; font-family: 'DejaVu Sans'; fill: #5b7fa5">)</tspan>
     </text>
    </g>
   </g>
   <g id="text_14">
    <g id="patch_8">
     <path d="M 273.119866 125.43075 
L 324.706366 125.43075 
L 324.706366 113.260875 
L 273.119866 113.260875 
z
" style="fill: #ffffff; opacity: 0.9"/>
    </g>
    <text style="font-weight: 600; font-size: 10.2px; font-family: 'Arial'; text-anchor: start; fill: #e07a5f" x="274.547866" y="121.989844" transform="rotate(-0 274.547866 121.989844)">smoothed</text>
   </g>
  </g>
 </g>
 <defs>
  <clipPath id="pe91a6dc902">
   <rect x="47.884844" y="7.2" width="323.318125" height="175.915"/>
  </clipPath>
 </defs>
</svg>
