<svg xmlns="http://www.w3.org/2000/svg" width="1000" height="560" viewBox="0 0 1000 560" role="img"><defs>
<marker id="arr" viewBox="0 0 10 10" refX="8" refY="5" markerWidth="7" markerHeight="7" orient="auto"><path d="M0 0L10 5L0 10z" fill="#665A75"/></marker>
<style>text{font-family:Arial,Helvetica,sans-serif;fill:#231533}.title{font-size:22px;font-weight:700}.head{font-size:18px;font-weight:700}.body{font-size:16px}.small{font-size:14px;fill:#665A75}.arrow{fill:none;stroke:#665A75;stroke-width:2.5;marker-end:url(#arr)}</style></defs><rect width="100%" height="100%" fill="white"/>
<text x="500" y="40" text-anchor="middle" class="title">Molecular state spaces are products of different geometries</text>
<rect x="35" y="82" width="280" height="365" rx="20" fill="#EEF0FF" stroke="#C8BBD8" stroke-width="2"/><rect x="360" y="82" width="280" height="365" rx="20" fill="#F2EDFF" stroke="#C8BBD8" stroke-width="2"/><rect x="685" y="82" width="280" height="365" rx="20" fill="#E4F4F2" stroke="#C8BBD8" stroke-width="2"/>
<text x="175" y="122" text-anchor="middle" class="head">position ℝ³</text><circle cx="175" cy="255" r="14" fill="#5F6ED8"/><path d="M175 255L245 215" stroke="#5F6ED8" stroke-width="6" marker-end="url(#arr)"/><path d="M175 255L125 205" stroke="#16877F" stroke-width="6" marker-end="url(#arr)"/><path d="M175 255L175 340" stroke="#7A53EC" stroke-width="6" marker-end="url(#arr)"/><text x="175" y="402" text-anchor="middle" class="small">translation of a local frame</text>
<text x="500" y="122" text-anchor="middle" class="head">orientation SO(3)</text><circle cx="500" cy="255" r="92" fill="none" stroke="#7A53EC" stroke-width="4"/><path d="M425 250C450 150 575 150 585 245" fill="none" stroke="#7A53EC" stroke-width="6" marker-end="url(#arr)"/><text x="500" y="272" text-anchor="middle" font-size="28" font-weight="700">R</text><text x="500" y="402" text-anchor="middle" class="small">rotation of a residue frame</text>
<text x="825" y="122" text-anchor="middle" class="head">torsion S¹</text><circle cx="825" cy="255" r="90" fill="none" stroke="#16877F" stroke-width="26"/><circle cx="825" cy="255" r="38" fill="white"/><circle cx="888" cy="193" r="12" fill="#B7791F"/><text x="825" y="264" text-anchor="middle" class="body">χ mod 2π</text><text x="825" y="402" text-anchor="middle" class="small">periodic side-chain angle</text>
<path d="M315 265L352 265" class="arrow"/><text x="334" y="240" text-anchor="middle" class="body">×</text><path d="M640 265L677 265" class="arrow"/><text x="658" y="240" text-anchor="middle" class="body">×</text>
<rect x="115" y="488" width="770" height="48" rx="14" fill="#FCE8EE"/><text x="500" y="509" text-anchor="middle" class="body">product metric: ‖u‖² = wₓ‖uₓ‖² + wᴿ‖uᴿ‖² + wχ‖uχ‖²</text><text x="500" y="528" text-anchor="middle" class="small">the weights set the relative geometry of translation, rotation, and torsion</text></svg>