<?xml version="1.0" encoding="utf-8" standalone="no"?>
<!DOCTYPE svg PUBLIC "-//W3C//DTD SVG 1.1//EN"
  "http://www.w3.org/Graphics/SVG/1.1/DTD/svg11.dtd">
<svg xmlns:xlink="http://www.w3.org/1999/xlink" width="878.4pt" height="259.2pt" viewBox="0 0 878.4 259.2" xmlns="http://www.w3.org/2000/svg" version="1.1">
 <metadata>
  <rdf:RDF xmlns:dc="http://purl.org/dc/elements/1.1/" xmlns:cc="http://creativecommons.org/ns#" xmlns:rdf="http://www.w3.org/1999/02/22-rdf-syntax-ns#">
   <cc:Work>
    <dc:type rdf:resource="http://purl.org/dc/dcmitype/StillImage"/>
    <dc:format>image/svg+xml</dc:format>
    <dc:creator>
     <cc:Agent>
      <dc:title>Matplotlib v3.11.0, https://matplotlib.org/</dc:title>
     </cc:Agent>
    </dc:creator>
   </cc:Work>
  </rdf:RDF>
 </metadata>
 <defs>
  <style type="text/css">*{stroke-linejoin: round; stroke-linecap: butt}</style>
 </defs>
 <g id="figure_1">
  <g id="patch_1">
   <path d="M 0 259.2
L 878.4 259.2
L 878.4 0
L 0 0
z
" style="fill: #ffffff"/>
  </g>
  <g id="axes_1">
   <g id="patch_2">
    <path d="M 47.544771 220.393197
L 287.066948 220.393197
L 287.066948 18.118365
L 47.544771 18.118365
z
" style="fill: #ffffff"/>
   </g>
   <g id="matplotlib.axis_1">
    <g id="xtick_1">
     <g id="line2d_1">
      <path d="M 99.259787 220.393197
L 99.259787 18.118365
" clip-path="url(#p9f1e4c56cb)" style="fill: none; stroke: #b0b0b0; stroke-opacity: 0.18; stroke-width: 0.6; stroke-linecap: square"/>
     </g>
     <g id="line2d_2">
      <defs>
       <path id="m0029be9c63" d="M 0 0
L 0 3.5
" style="stroke: #000000; stroke-width: 0.8"/>
      </defs>
      <g>
       <use xlink:href="#m0029be9c63" x="99.259787" y="220.393197" style="stroke: #000000; stroke-width: 0.8"/>
      </g>
     </g>
     <g id="text_1">
      <!-- 0.05 -->
      <g transform="translate(88.126974 234.990854) scale(0.1 -0.1)">
       <defs>
        <path id="DejaVuSans-13" d="M 2034 4250
Q 1547 4250 1301 3770
Q 1056 3291 1056 2328
Q 1056 1369 1301 889
Q 1547 409 2034 409
Q 2525 409 2770 889
Q 3016 1369 3016 2328
Q 3016 3291 2770 3770
Q 2525 4250 2034 4250
z
M 2034 4750
Q 2819 4750 3233 4129
Q 3647 3509 3647 2328
Q 3647 1150 3233 529
Q 2819 -91 2034 -91
Q 1250 -91 836 529
Q 422 1150 422 2328
Q 422 3509 836 4129
Q 1250 4750 2034 4750
z
" transform="scale(0.015625)"/>
        <path id="DejaVuSans-11" d="M 684 794
L 1344 794
L 1344 0
L 684 0
L 684 794
z
" transform="scale(0.015625)"/>
        <path id="DejaVuSans-18" d="M 691 4666
L 3169 4666
L 3169 4134
L 1269 4134
L 1269 2991
Q 1406 3038 1543 3061
Q 1681 3084 1819 3084
Q 2600 3084 3056 2656
Q 3513 2228 3513 1497
Q 3513 744 3044 326
Q 2575 -91 1722 -91
Q 1428 -91 1123 -41
Q 819 9 494 109
L 494 744
Q 775 591 1075 516
Q 1375 441 1709 441
Q 2250 441 2565 725
Q 2881 1009 2881 1497
Q 2881 1984 2565 2268
Q 2250 2553 1709 2553
Q 1456 2553 1204 2497
Q 953 2441 691 2322
L 691 4666
z
" transform="scale(0.015625)"/>
       </defs>
       <use xlink:href="#DejaVuSans-13"/>
       <use xlink:href="#DejaVuSans-11" transform="translate(63.625 0)"/>
       <use xlink:href="#DejaVuSans-13" transform="translate(95.40625 0)"/>
       <use xlink:href="#DejaVuSans-18" transform="translate(159.03125 0)"/>
      </g>
     </g>
    </g>
    <g id="xtick_2">
     <g id="line2d_3">
      <path d="M 167.305859 220.393197
L 167.305859 18.118365
" clip-path="url(#p9f1e4c56cb)" style="fill: none; stroke: #b0b0b0; stroke-opacity: 0.18; stroke-width: 0.6; stroke-linecap: square"/>
     </g>
     <g id="line2d_4">
      <g>
       <use xlink:href="#m0029be9c63" x="167.305859" y="220.393197" style="stroke: #000000; stroke-width: 0.8"/>
      </g>
     </g>
     <g id="text_2">
      <!-- 0.10 -->
      <g transform="translate(156.173047 234.990854) scale(0.1 -0.1)">
       <defs>
        <path id="DejaVuSans-14" d="M 794 531
L 1825 531
L 1825 4091
L 703 3866
L 703 4441
L 1819 4666
L 2450 4666
L 2450 531
L 3481 531
L 3481 0
L 794 0
L 794 531
z
" transform="scale(0.015625)"/>
       </defs>
       <use xlink:href="#DejaVuSans-13"/>
       <use xlink:href="#DejaVuSans-11" transform="translate(63.625 0)"/>
       <use xlink:href="#DejaVuSans-14" transform="translate(95.40625 0)"/>
       <use xlink:href="#DejaVuSans-13" transform="translate(159.03125 0)"/>
      </g>
     </g>
    </g>
    <g id="xtick_3">
     <g id="line2d_5">
      <path d="M 235.351932 220.393197
L 235.351932 18.118365
" clip-path="url(#p9f1e4c56cb)" style="fill: none; stroke: #b0b0b0; stroke-opacity: 0.18; stroke-width: 0.6; stroke-linecap: square"/>
     </g>
     <g id="line2d_6">
      <g>
       <use xlink:href="#m0029be9c63" x="235.351932" y="220.393197" style="stroke: #000000; stroke-width: 0.8"/>
      </g>
     </g>
     <g id="text_3">
      <!-- 0.15 -->
      <g transform="translate(224.21912 234.990854) scale(0.1 -0.1)">
       <use xlink:href="#DejaVuSans-13"/>
       <use xlink:href="#DejaVuSans-11" transform="translate(63.625 0)"/>
       <use xlink:href="#DejaVuSans-14" transform="translate(95.40625 0)"/>
       <use xlink:href="#DejaVuSans-18" transform="translate(159.03125 0)"/>
      </g>
     </g>
    </g>
    <g id="text_4">
     <!-- time step -->
     <g transform="translate(143.605078 248.991635) scale(0.1 -0.1)">
      <defs>
       <path id="DejaVuSans-57" d="M 1172 4494
L 1172 3500
L 2356 3500
L 2356 3053
L 1172 3053
L 1172 1153
Q 1172 725 1289 603
Q 1406 481 1766 481
L 2356 481
L 2356 0
L 1766 0
Q 1100 0 847 248
Q 594 497 594 1153
L 594 3053
L 172 3053
L 172 3500
L 594 3500
L 594 4494
L 1172 4494
z
" transform="scale(0.015625)"/>
       <path id="DejaVuSans-4c" d="M 603 3500
L 1178 3500
L 1178 0
L 603 0
L 603 3500
z
M 603 4863
L 1178 4863
L 1178 4134
L 603 4134
L 603 4863
z
" transform="scale(0.015625)"/>
       <path id="DejaVuSans-50" d="M 3328 2828
Q 3544 3216 3844 3400
Q 4144 3584 4550 3584
Q 5097 3584 5394 3201
Q 5691 2819 5691 2113
L 5691 0
L 5113 0
L 5113 2094
Q 5113 2597 4934 2840
Q 4756 3084 4391 3084
Q 3944 3084 3684 2787
Q 3425 2491 3425 1978
L 3425 0
L 2847 0
L 2847 2094
Q 2847 2600 2669 2842
Q 2491 3084 2119 3084
Q 1678 3084 1418 2786
Q 1159 2488 1159 1978
L 1159 0
L 581 0
L 581 3500
L 1159 3500
L 1159 2956
Q 1356 3278 1631 3431
Q 1906 3584 2284 3584
Q 2666 3584 2933 3390
Q 3200 3197 3328 2828
z
" transform="scale(0.015625)"/>
       <path id="DejaVuSans-48" d="M 3597 1894
L 3597 1613
L 953 1613
Q 991 1019 1311 708
Q 1631 397 2203 397
Q 2534 397 2845 478
Q 3156 559 3463 722
L 3463 178
Q 3153 47 2828 -22
Q 2503 -91 2169 -91
Q 1331 -91 842 396
Q 353 884 353 1716
Q 353 2575 817 3079
Q 1281 3584 2069 3584
Q 2775 3584 3186 3129
Q 3597 2675 3597 1894
z
M 3022 2063
Q 3016 2534 2758 2815
Q 2500 3097 2075 3097
Q 1594 3097 1305 2825
Q 1016 2553 972 2059
L 3022 2063
z
" transform="scale(0.015625)"/>
       <path id="DejaVuSans-3" transform="scale(0.015625)"/>
       <path id="DejaVuSans-56" d="M 2834 3397
L 2834 2853
Q 2591 2978 2328 3040
Q 2066 3103 1784 3103
Q 1356 3103 1142 2972
Q 928 2841 928 2578
Q 928 2378 1081 2264
Q 1234 2150 1697 2047
L 1894 2003
Q 2506 1872 2764 1633
Q 3022 1394 3022 966
Q 3022 478 2636 193
Q 2250 -91 1575 -91
Q 1294 -91 989 -36
Q 684 19 347 128
L 347 722
Q 666 556 975 473
Q 1284 391 1588 391
Q 1994 391 2212 530
Q 2431 669 2431 922
Q 2431 1156 2273 1281
Q 2116 1406 1581 1522
L 1381 1569
Q 847 1681 609 1914
Q 372 2147 372 2553
Q 372 3047 722 3315
Q 1072 3584 1716 3584
Q 2034 3584 2315 3537
Q 2597 3491 2834 3397
z
" transform="scale(0.015625)"/>
       <path id="DejaVuSans-53" d="M 1159 525
L 1159 -1331
L 581 -1331
L 581 3500
L 1159 3500
L 1159 2969
Q 1341 3281 1617 3432
Q 1894 3584 2278 3584
Q 2916 3584 3314 3078
Q 3713 2572 3713 1747
Q 3713 922 3314 415
Q 2916 -91 2278 -91
Q 1894 -91 1617 61
Q 1341 213 1159 525
z
M 3116 1747
Q 3116 2381 2855 2742
Q 2594 3103 2138 3103
Q 1681 3103 1420 2742
Q 1159 2381 1159 1747
Q 1159 1113 1420 752
Q 1681 391 2138 391
Q 2594 391 2855 752
Q 3116 1113 3116 1747
z
" transform="scale(0.015625)"/>
      </defs>
      <use xlink:href="#DejaVuSans-57"/>
      <use xlink:href="#DejaVuSans-4c" transform="translate(39.203125 0)"/>
      <use xlink:href="#DejaVuSans-50" transform="translate(66.984375 0)"/>
      <use xlink:href="#DejaVuSans-48" transform="translate(164.390625 0)"/>
      <use xlink:href="#DejaVuSans-3" transform="translate(225.921875 0)"/>
      <use xlink:href="#DejaVuSans-56" transform="translate(257.703125 0)"/>
      <use xlink:href="#DejaVuSans-57" transform="translate(309.796875 0)"/>
      <use xlink:href="#DejaVuSans-48" transform="translate(349 0)"/>
      <use xlink:href="#DejaVuSans-53" transform="translate(410.53125 0)"/>
     </g>
    </g>
   </g>
   <g id="matplotlib.axis_2">
    <g id="ytick_1">
     <g id="line2d_7">
      <path d="M 47.544771 211.198887
L 287.066948 211.198887
" clip-path="url(#p9f1e4c56cb)" style="fill: none; stroke: #b0b0b0; stroke-opacity: 0.18; stroke-width: 0.6; stroke-linecap: square"/>
     </g>
     <g id="line2d_8">
      <defs>
       <path id="m25d3bc271f" d="M 0 0
L -3.5 0
" style="stroke: #000000; stroke-width: 0.8"/>
      </defs>
      <g>
       <use xlink:href="#m25d3bc271f" x="47.544771" y="211.198887" style="stroke: #000000; stroke-width: 0.8"/>
      </g>
     </g>
     <g id="text_5">
      <!-- $\mathdefault{10^{-4}}$ -->
      <g transform="translate(17.044771 215.848887) scale(0.1 -0.1)">
       <defs>
        <path id="DejaVuSans-c9c" d="M 678 2272
L 4684 2272
L 4684 1741
L 678 1741
L 678 2272
z
" transform="scale(0.015625)"/>
        <path id="DejaVuSans-17" d="M 2419 4116
L 825 1625
L 2419 1625
L 2419 4116
z
M 2253 4666
L 3047 4666
L 3047 1625
L 3713 1625
L 3713 1100
L 3047 1100
L 3047 0
L 2419 0
L 2419 1100
L 313 1100
L 313 1709
L 2253 4666
z
" transform="scale(0.015625)"/>
       </defs>
       <use xlink:href="#DejaVuSans-14" transform="translate(0 0.665625)"/>
       <use xlink:href="#DejaVuSans-13" transform="translate(63.623047 0.665625)"/>
       <use xlink:href="#DejaVuSans-c9c" transform="translate(128.203125 41.965625) scale(0.7)"/>
       <use xlink:href="#DejaVuSans-17" transform="translate(186.855469 41.965625) scale(0.7)"/>
      </g>
     </g>
    </g>
    <g id="ytick_2">
     <g id="line2d_9">
      <path d="M 47.544771 114.846955
L 287.066948 114.846955
" clip-path="url(#p9f1e4c56cb)" style="fill: none; stroke: #b0b0b0; stroke-opacity: 0.18; stroke-width: 0.6; stroke-linecap: square"/>
     </g>
     <g id="line2d_10">
      <g>
       <use xlink:href="#m25d3bc271f" x="47.544771" y="114.846955" style="stroke: #000000; stroke-width: 0.8"/>
      </g>
     </g>
     <g id="text_6">
      <!-- $\mathdefault{10^{-3}}$ -->
      <g transform="translate(17.044771 119.546955) scale(0.1 -0.1)">
       <defs>
        <path id="DejaVuSans-16" d="M 2597 2516
Q 3050 2419 3304 2112
Q 3559 1806 3559 1356
Q 3559 666 3084 287
Q 2609 -91 1734 -91
Q 1441 -91 1130 -33
Q 819 25 488 141
L 488 750
Q 750 597 1062 519
Q 1375 441 1716 441
Q 2309 441 2620 675
Q 2931 909 2931 1356
Q 2931 1769 2642 2001
Q 2353 2234 1838 2234
L 1294 2234
L 1294 2753
L 1863 2753
Q 2328 2753 2575 2939
Q 2822 3125 2822 3475
Q 2822 3834 2567 4026
Q 2313 4219 1838 4219
Q 1578 4219 1281 4162
Q 984 4106 628 3988
L 628 4550
Q 988 4650 1302 4700
Q 1616 4750 1894 4750
Q 2613 4750 3031 4423
Q 3450 4097 3450 3541
Q 3450 3153 3228 2886
Q 3006 2619 2597 2516
z
" transform="scale(0.015625)"/>
       </defs>
       <use xlink:href="#DejaVuSans-14" transform="translate(0 0.746875)"/>
       <use xlink:href="#DejaVuSans-13" transform="translate(63.623047 0.746875)"/>
       <use xlink:href="#DejaVuSans-c9c" transform="translate(128.203125 42.046875) scale(0.7)"/>
       <use xlink:href="#DejaVuSans-16" transform="translate(186.855469 42.046875) scale(0.7)"/>
      </g>
     </g>
    </g>
    <g id="ytick_3">
     <g id="line2d_11">
      <path d="M 47.544771 18.495022
L 287.066948 18.495022
" clip-path="url(#p9f1e4c56cb)" style="fill: none; stroke: #b0b0b0; stroke-opacity: 0.18; stroke-width: 0.6; stroke-linecap: square"/>
     </g>
     <g id="line2d_12">
      <g>
       <use xlink:href="#m25d3bc271f" x="47.544771" y="18.495022" style="stroke: #000000; stroke-width: 0.8"/>
      </g>
     </g>
     <g id="text_7">
      <!-- $\mathdefault{10^{-2}}$ -->
      <g transform="translate(17.044771 23.195022) scale(0.1 -0.1)">
       <defs>
        <path id="DejaVuSans-15" d="M 1228 531
L 3431 531
L 3431 0
L 469 0
L 469 531
Q 828 903 1448 1529
Q 2069 2156 2228 2338
Q 2531 2678 2651 2914
Q 2772 3150 2772 3378
Q 2772 3750 2511 3984
Q 2250 4219 1831 4219
Q 1534 4219 1204 4116
Q 875 4013 500 3803
L 500 4441
Q 881 4594 1212 4672
Q 1544 4750 1819 4750
Q 2544 4750 2975 4387
Q 3406 4025 3406 3419
Q 3406 3131 3298 2873
Q 3191 2616 2906 2266
Q 2828 2175 2409 1742
Q 1991 1309 1228 531
z
" transform="scale(0.015625)"/>
       </defs>
       <use xlink:href="#DejaVuSans-14" transform="translate(0 0.746875)"/>
       <use xlink:href="#DejaVuSans-13" transform="translate(63.623047 0.746875)"/>
       <use xlink:href="#DejaVuSans-c9c" transform="translate(128.203125 42.046875) scale(0.7)"/>
       <use xlink:href="#DejaVuSans-15" transform="translate(186.855469 42.046875) scale(0.7)"/>
      </g>
     </g>
    </g>
    <g id="ytick_4">
     <g id="line2d_13">
      <defs>
       <path id="m07430f3dcb" d="M 0 0
L -2 0
" style="stroke: #000000; stroke-width: 0.6"/>
      </defs>
      <g>
       <use xlink:href="#m07430f3dcb" x="47.544771" y="215.60771" style="stroke: #000000; stroke-width: 0.6"/>
      </g>
     </g>
    </g>
    <g id="ytick_5">
     <g id="line2d_14">
      <g>
       <use xlink:href="#m07430f3dcb" x="47.544771" y="182.194065" style="stroke: #000000; stroke-width: 0.6"/>
      </g>
     </g>
    </g>
    <g id="ytick_6">
     <g id="line2d_15">
      <g>
       <use xlink:href="#m07430f3dcb" x="47.544771" y="165.227332" style="stroke: #000000; stroke-width: 0.6"/>
      </g>
     </g>
    </g>
    <g id="ytick_7">
     <g id="line2d_16">
      <g>
       <use xlink:href="#m07430f3dcb" x="47.544771" y="153.189243" style="stroke: #000000; stroke-width: 0.6"/>
      </g>
     </g>
    </g>
    <g id="ytick_8">
     <g id="line2d_17">
      <g>
       <use xlink:href="#m07430f3dcb" x="47.544771" y="143.851776" style="stroke: #000000; stroke-width: 0.6"/>
      </g>
     </g>
    </g>
    <g id="ytick_9">
     <g id="line2d_18">
      <g>
       <use xlink:href="#m07430f3dcb" x="47.544771" y="136.22251" style="stroke: #000000; stroke-width: 0.6"/>
      </g>
     </g>
    </g>
    <g id="ytick_10">
     <g id="line2d_19">
      <g>
       <use xlink:href="#m07430f3dcb" x="47.544771" y="129.772058" style="stroke: #000000; stroke-width: 0.6"/>
      </g>
     </g>
    </g>
    <g id="ytick_11">
     <g id="line2d_20">
      <g>
       <use xlink:href="#m07430f3dcb" x="47.544771" y="124.184422" style="stroke: #000000; stroke-width: 0.6"/>
      </g>
     </g>
    </g>
    <g id="ytick_12">
     <g id="line2d_21">
      <g>
       <use xlink:href="#m07430f3dcb" x="47.544771" y="119.255777" style="stroke: #000000; stroke-width: 0.6"/>
      </g>
     </g>
    </g>
    <g id="ytick_13">
     <g id="line2d_22">
      <g>
       <use xlink:href="#m07430f3dcb" x="47.544771" y="85.842133" style="stroke: #000000; stroke-width: 0.6"/>
      </g>
     </g>
    </g>
    <g id="ytick_14">
     <g id="line2d_23">
      <g>
       <use xlink:href="#m07430f3dcb" x="47.544771" y="68.8754" style="stroke: #000000; stroke-width: 0.6"/>
      </g>
     </g>
    </g>
    <g id="ytick_15">
     <g id="line2d_24">
      <g>
       <use xlink:href="#m07430f3dcb" x="47.544771" y="56.837311" style="stroke: #000000; stroke-width: 0.6"/>
      </g>
     </g>
    </g>
    <g id="ytick_16">
     <g id="line2d_25">
      <g>
       <use xlink:href="#m07430f3dcb" x="47.544771" y="47.499844" style="stroke: #000000; stroke-width: 0.6"/>
      </g>
     </g>
    </g>
    <g id="ytick_17">
     <g id="line2d_26">
      <g>
       <use xlink:href="#m07430f3dcb" x="47.544771" y="39.870578" style="stroke: #000000; stroke-width: 0.6"/>
      </g>
     </g>
    </g>
    <g id="ytick_18">
     <g id="line2d_27">
      <g>
       <use xlink:href="#m07430f3dcb" x="47.544771" y="33.420125" style="stroke: #000000; stroke-width: 0.6"/>
      </g>
     </g>
    </g>
    <g id="ytick_19">
     <g id="line2d_28">
      <g>
       <use xlink:href="#m07430f3dcb" x="47.544771" y="27.832489" style="stroke: #000000; stroke-width: 0.6"/>
      </g>
     </g>
    </g>
    <g id="ytick_20">
     <g id="line2d_29">
      <g>
       <use xlink:href="#m07430f3dcb" x="47.544771" y="22.903845" style="stroke: #000000; stroke-width: 0.6"/>
      </g>
     </g>
    </g>
    <g id="text_8">
     <!-- max |Delta E| / E0 -->
     <g transform="translate(10.642428 164.39875) rotate(-90) scale(0.1 -0.1)">
      <defs>
       <path id="DejaVuSans-44" d="M 2194 1759
Q 1497 1759 1228 1600
Q 959 1441 959 1056
Q 959 750 1161 570
Q 1363 391 1709 391
Q 2188 391 2477 730
Q 2766 1069 2766 1631
L 2766 1759
L 2194 1759
z
M 3341 1997
L 3341 0
L 2766 0
L 2766 531
Q 2569 213 2275 61
Q 1981 -91 1556 -91
Q 1019 -91 701 211
Q 384 513 384 1019
Q 384 1609 779 1909
Q 1175 2209 1959 2209
L 2766 2209
L 2766 2266
Q 2766 2663 2505 2880
Q 2244 3097 1772 3097
Q 1472 3097 1187 3025
Q 903 2953 641 2809
L 641 3341
Q 956 3463 1253 3523
Q 1550 3584 1831 3584
Q 2591 3584 2966 3190
Q 3341 2797 3341 1997
z
" transform="scale(0.015625)"/>
       <path id="DejaVuSans-5b" d="M 3513 3500
L 2247 1797
L 3578 0
L 2900 0
L 1881 1375
L 863 0
L 184 0
L 1544 1831
L 300 3500
L 978 3500
L 1906 2253
L 2834 3500
L 3513 3500
z
" transform="scale(0.015625)"/>
       <path id="DejaVuSans-5f" d="M 1344 4891
L 1344 -1509
L 813 -1509
L 813 4891
L 1344 4891
z
" transform="scale(0.015625)"/>
       <path id="DejaVuSans-27" d="M 1259 4147
L 1259 519
L 2022 519
Q 2988 519 3436 956
Q 3884 1394 3884 2338
Q 3884 3275 3436 3711
Q 2988 4147 2022 4147
L 1259 4147
z
M 628 4666
L 1925 4666
Q 3281 4666 3915 4102
Q 4550 3538 4550 2338
Q 4550 1131 3912 565
Q 3275 0 1925 0
L 628 0
L 628 4666
z
" transform="scale(0.015625)"/>
       <path id="DejaVuSans-4f" d="M 603 4863
L 1178 4863
L 1178 0
L 603 0
L 603 4863
z
" transform="scale(0.015625)"/>
       <path id="DejaVuSans-28" d="M 628 4666
L 3578 4666
L 3578 4134
L 1259 4134
L 1259 2753
L 3481 2753
L 3481 2222
L 1259 2222
L 1259 531
L 3634 531
L 3634 0
L 628 0
L 628 4666
z
" transform="scale(0.015625)"/>
       <path id="DejaVuSans-12" d="M 1625 4666
L 2156 4666
L 531 -594
L 0 -594
L 1625 4666
z
" transform="scale(0.015625)"/>
      </defs>
      <use xlink:href="#DejaVuSans-50"/>
      <use xlink:href="#DejaVuSans-44" transform="translate(97.40625 0)"/>
      <use xlink:href="#DejaVuSans-5b" transform="translate(158.6875 0)"/>
      <use xlink:href="#DejaVuSans-3" transform="translate(217.875 0)"/>
      <use xlink:href="#DejaVuSans-5f" transform="translate(249.65625 0)"/>
      <use xlink:href="#DejaVuSans-27" transform="translate(283.34375 0)"/>
      <use xlink:href="#DejaVuSans-48" transform="translate(360.34375 0)"/>
      <use xlink:href="#DejaVuSans-4f" transform="translate(421.875 0)"/>
      <use xlink:href="#DejaVuSans-57" transform="translate(449.65625 0)"/>
      <use xlink:href="#DejaVuSans-44" transform="translate(488.859375 0)"/>
      <use xlink:href="#DejaVuSans-3" transform="translate(550.140625 0)"/>
      <use xlink:href="#DejaVuSans-28" transform="translate(581.921875 0)"/>
      <use xlink:href="#DejaVuSans-5f" transform="translate(645.109375 0)"/>
      <use xlink:href="#DejaVuSans-3" transform="translate(678.796875 0)"/>
      <use xlink:href="#DejaVuSans-12" transform="translate(710.578125 0)"/>
      <use xlink:href="#DejaVuSans-3" transform="translate(744.265625 0)"/>
      <use xlink:href="#DejaVuSans-28" transform="translate(776.046875 0)"/>
      <use xlink:href="#DejaVuSans-13" transform="translate(839.234375 0)"/>
     </g>
    </g>
   </g>
   <g id="line2d_30">
    <path d="M 58.432143 211.198887
L 99.259787 134.51431
L 167.305859 76.504678
L 276.179576 27.312676
" clip-path="url(#p9f1e4c56cb)" style="fill: none; stroke: #2f6f9f; stroke-width: 1.5; stroke-linecap: square"/>
    <defs>
     <path id="m4828083cae" d="M 0 3
C 0.795609 3 1.55874 2.683901 2.12132 2.12132
C 2.683901 1.55874 3 0.795609 3 0
C 3 -0.795609 2.683901 -1.55874 2.12132 -2.12132
C 1.55874 -2.683901 0.795609 -3 0 -3
C -0.795609 -3 -1.55874 -2.683901 -2.12132 -2.12132
C -2.683901 -1.55874 -3 -0.795609 -3 0
C -3 0.795609 -2.683901 1.55874 -2.12132 2.12132
C -1.55874 2.683901 -0.795609 3 0 3
z
" style="stroke: #2f6f9f"/>
    </defs>
    <g clip-path="url(#p9f1e4c56cb)">
     <use xlink:href="#m4828083cae" x="58.432143" y="211.198887" style="fill: #2f6f9f; stroke: #2f6f9f"/>
     <use xlink:href="#m4828083cae" x="99.259787" y="134.51431" style="fill: #2f6f9f; stroke: #2f6f9f"/>
     <use xlink:href="#m4828083cae" x="167.305859" y="76.504678" style="fill: #2f6f9f; stroke: #2f6f9f"/>
     <use xlink:href="#m4828083cae" x="276.179576" y="27.312676" style="fill: #2f6f9f; stroke: #2f6f9f"/>
    </g>
   </g>
   <g id="patch_3">
    <path d="M 47.544771 220.393197
L 47.544771 18.118365
" style="fill: none; stroke: #000000; stroke-width: 0.8; stroke-linejoin: miter; stroke-linecap: square"/>
   </g>
   <g id="patch_4">
    <path d="M 47.544771 220.393197
L 287.066948 220.393197
" style="fill: none; stroke: #000000; stroke-width: 0.8; stroke-linejoin: miter; stroke-linecap: square"/>
   </g>
   <g id="text_9">
    <g id="patch_5">
     <path d="M 54.730437 51.016091
L 196.633952 51.016091
Q 199.013952 51.016091 199.013952 48.636091
L 199.013952 28.232107
Q 199.013952 25.852107 196.633952 25.852107
L 54.730437 25.852107
Q 52.350437 25.852107 52.350437 28.232107
L 52.350437 48.636091
Q 52.350437 51.016091 54.730437 51.016091
z
" style="fill: #ffffff; opacity: 0.9; stroke: #000000; stroke-linejoin: miter"/>
    </g>
    <!-- N = 48 runs -->
    <g transform="translate(54.730437 35.540945) scale(0.085 -0.085)">
     <defs>
      <path id="DejaVuSans-31" d="M 628 4666
L 1478 4666
L 3547 763
L 3547 4666
L 4159 4666
L 4159 0
L 3309 0
L 1241 3903
L 1241 0
L 628 0
L 628 4666
z
" transform="scale(0.015625)"/>
      <path id="DejaVuSans-20" d="M 678 2906
L 4684 2906
L 4684 2381
L 678 2381
L 678 2906
z
M 678 1631
L 4684 1631
L 4684 1100
L 678 1100
L 678 1631
z
" transform="scale(0.015625)"/>
      <path id="DejaVuSans-1b" d="M 2034 2216
Q 1584 2216 1326 1975
Q 1069 1734 1069 1313
Q 1069 891 1326 650
Q 1584 409 2034 409
Q 2484 409 2743 651
Q 3003 894 3003 1313
Q 3003 1734 2745 1975
Q 2488 2216 2034 2216
z
M 1403 2484
Q 997 2584 770 2862
Q 544 3141 544 3541
Q 544 4100 942 4425
Q 1341 4750 2034 4750
Q 2731 4750 3128 4425
Q 3525 4100 3525 3541
Q 3525 3141 3298 2862
Q 3072 2584 2669 2484
Q 3125 2378 3379 2068
Q 3634 1759 3634 1313
Q 3634 634 3220 271
Q 2806 -91 2034 -91
Q 1263 -91 848 271
Q 434 634 434 1313
Q 434 1759 690 2068
Q 947 2378 1403 2484
z
M 1172 3481
Q 1172 3119 1398 2916
Q 1625 2713 2034 2713
Q 2441 2713 2670 2916
Q 2900 3119 2900 3481
Q 2900 3844 2670 4047
Q 2441 4250 2034 4250
Q 1625 4250 1398 4047
Q 1172 3844 1172 3481
z
" transform="scale(0.015625)"/>
      <path id="DejaVuSans-55" d="M 2631 2963
Q 2534 3019 2420 3045
Q 2306 3072 2169 3072
Q 1681 3072 1420 2755
Q 1159 2438 1159 1844
L 1159 0
L 581 0
L 581 3500
L 1159 3500
L 1159 2956
Q 1341 3275 1631 3429
Q 1922 3584 2338 3584
Q 2397 3584 2469 3576
Q 2541 3569 2628 3553
L 2631 2963
z
" transform="scale(0.015625)"/>
      <path id="DejaVuSans-58" d="M 544 1381
L 544 3500
L 1119 3500
L 1119 1403
Q 1119 906 1312 657
Q 1506 409 1894 409
Q 2359 409 2629 706
Q 2900 1003 2900 1516
L 2900 3500
L 3475 3500
L 3475 0
L 2900 0
L 2900 538
Q 2691 219 2414 64
Q 2138 -91 1772 -91
Q 1169 -91 856 284
Q 544 659 544 1381
z
M 1991 3584
L 1991 3584
z
" transform="scale(0.015625)"/>
      <path id="DejaVuSans-51" d="M 3513 2113
L 3513 0
L 2938 0
L 2938 2094
Q 2938 2591 2744 2837
Q 2550 3084 2163 3084
Q 1697 3084 1428 2787
Q 1159 2491 1159 1978
L 1159 0
L 581 0
L 581 3500
L 1159 3500
L 1159 2956
Q 1366 3272 1645 3428
Q 1925 3584 2291 3584
Q 2894 3584 3203 3211
Q 3513 2838 3513 2113
z
" transform="scale(0.015625)"/>
     </defs>
     <use xlink:href="#DejaVuSans-31"/>
     <use xlink:href="#DejaVuSans-3" transform="translate(74.8125 0)"/>
     <use xlink:href="#DejaVuSans-20" transform="translate(106.59375 0)"/>
     <use xlink:href="#DejaVuSans-3" transform="translate(190.390625 0)"/>
     <use xlink:href="#DejaVuSans-17" transform="translate(222.171875 0)"/>
     <use xlink:href="#DejaVuSans-1b" transform="translate(285.796875 0)"/>
     <use xlink:href="#DejaVuSans-3" transform="translate(349.421875 0)"/>
     <use xlink:href="#DejaVuSans-55" transform="translate(381.203125 0)"/>
     <use xlink:href="#DejaVuSans-58" transform="translate(422.3125 0)"/>
     <use xlink:href="#DejaVuSans-51" transform="translate(485.6875 0)"/>
     <use xlink:href="#DejaVuSans-56" transform="translate(549.0625 0)"/>
    </g>
    <!-- full grid: dt, precision, force scale -->
    <g transform="translate(54.730437 45.743269) scale(0.085 -0.085)">
     <defs>
      <path id="DejaVuSans-49" d="M 2375 4863
L 2375 4384
L 1825 4384
Q 1516 4384 1395 4259
Q 1275 4134 1275 3809
L 1275 3500
L 2222 3500
L 2222 3053
L 1275 3053
L 1275 0
L 697 0
L 697 3053
L 147 3053
L 147 3500
L 697 3500
L 697 3744
Q 697 4328 969 4595
Q 1241 4863 1831 4863
L 2375 4863
z
" transform="scale(0.015625)"/>
      <path id="DejaVuSans-4a" d="M 2906 1791
Q 2906 2416 2648 2759
Q 2391 3103 1925 3103
Q 1463 3103 1205 2759
Q 947 2416 947 1791
Q 947 1169 1205 825
Q 1463 481 1925 481
Q 2391 481 2648 825
Q 2906 1169 2906 1791
z
M 3481 434
Q 3481 -459 3084 -895
Q 2688 -1331 1869 -1331
Q 1566 -1331 1297 -1286
Q 1028 -1241 775 -1147
L 775 -588
Q 1028 -725 1275 -790
Q 1522 -856 1778 -856
Q 2344 -856 2625 -561
Q 2906 -266 2906 331
L 2906 616
Q 2728 306 2450 153
Q 2172 0 1784 0
Q 1141 0 747 490
Q 353 981 353 1791
Q 353 2603 747 3093
Q 1141 3584 1784 3584
Q 2172 3584 2450 3431
Q 2728 3278 2906 2969
L 2906 3500
L 3481 3500
L 3481 434
z
" transform="scale(0.015625)"/>
      <path id="DejaVuSans-47" d="M 2906 2969
L 2906 4863
L 3481 4863
L 3481 0
L 2906 0
L 2906 525
Q 2725 213 2448 61
Q 2172 -91 1784 -91
Q 1150 -91 751 415
Q 353 922 353 1747
Q 353 2572 751 3078
Q 1150 3584 1784 3584
Q 2172 3584 2448 3432
Q 2725 3281 2906 2969
z
M 947 1747
Q 947 1113 1208 752
Q 1469 391 1925 391
Q 2381 391 2643 752
Q 2906 1113 2906 1747
Q 2906 2381 2643 2742
Q 2381 3103 1925 3103
Q 1469 3103 1208 2742
Q 947 2381 947 1747
z
" transform="scale(0.015625)"/>
      <path id="DejaVuSans-1d" d="M 750 794
L 1409 794
L 1409 0
L 750 0
L 750 794
z
M 750 3309
L 1409 3309
L 1409 2516
L 750 2516
L 750 3309
z
" transform="scale(0.015625)"/>
      <path id="DejaVuSans-f" d="M 750 794
L 1409 794
L 1409 256
L 897 -744
L 494 -744
L 750 256
L 750 794
z
" transform="scale(0.015625)"/>
      <path id="DejaVuSans-46" d="M 3122 3366
L 3122 2828
Q 2878 2963 2633 3030
Q 2388 3097 2138 3097
Q 1578 3097 1268 2742
Q 959 2388 959 1747
Q 959 1106 1268 751
Q 1578 397 2138 397
Q 2388 397 2633 464
Q 2878 531 3122 666
L 3122 134
Q 2881 22 2623 -34
Q 2366 -91 2075 -91
Q 1284 -91 818 406
Q 353 903 353 1747
Q 353 2603 823 3093
Q 1294 3584 2113 3584
Q 2378 3584 2631 3529
Q 2884 3475 3122 3366
z
" transform="scale(0.015625)"/>
      <path id="DejaVuSans-52" d="M 1959 3097
Q 1497 3097 1228 2736
Q 959 2375 959 1747
Q 959 1119 1226 758
Q 1494 397 1959 397
Q 2419 397 2687 759
Q 2956 1122 2956 1747
Q 2956 2369 2687 2733
Q 2419 3097 1959 3097
z
M 1959 3584
Q 2709 3584 3137 3096
Q 3566 2609 3566 1747
Q 3566 888 3137 398
Q 2709 -91 1959 -91
Q 1206 -91 779 398
Q 353 888 353 1747
Q 353 2609 779 3096
Q 1206 3584 1959 3584
z
" transform="scale(0.015625)"/>
     </defs>
     <use xlink:href="#DejaVuSans-49"/>
     <use xlink:href="#DejaVuSans-58" transform="translate(35.203125 0)"/>
     <use xlink:href="#DejaVuSans-4f" transform="translate(98.578125 0)"/>
     <use xlink:href="#DejaVuSans-4f" transform="translate(126.359375 0)"/>
     <use xlink:href="#DejaVuSans-3" transform="translate(154.140625 0)"/>
     <use xlink:href="#DejaVuSans-4a" transform="translate(185.921875 0)"/>
     <use xlink:href="#DejaVuSans-55" transform="translate(249.40625 0)"/>
     <use xlink:href="#DejaVuSans-4c" transform="translate(290.515625 0)"/>
     <use xlink:href="#DejaVuSans-47" transform="translate(318.296875 0)"/>
     <use xlink:href="#DejaVuSans-1d" transform="translate(381.78125 0)"/>
     <use xlink:href="#DejaVuSans-3" transform="translate(415.46875 0)"/>
     <use xlink:href="#DejaVuSans-47" transform="translate(447.25 0)"/>
     <use xlink:href="#DejaVuSans-57" transform="translate(510.734375 0)"/>
     <use xlink:href="#DejaVuSans-f" transform="translate(549.9375 0)"/>
     <use xlink:href="#DejaVuSans-3" transform="translate(581.71875 0)"/>
     <use xlink:href="#DejaVuSans-53" transform="translate(613.5 0)"/>
     <use xlink:href="#DejaVuSans-55" transform="translate(676.984375 0)"/>
     <use xlink:href="#DejaVuSans-48" transform="translate(715.890625 0)"/>
     <use xlink:href="#DejaVuSans-46" transform="translate(777.421875 0)"/>
     <use xlink:href="#DejaVuSans-4c" transform="translate(832.40625 0)"/>
     <use xlink:href="#DejaVuSans-56" transform="translate(860.1875 0)"/>
     <use xlink:href="#DejaVuSans-4c" transform="translate(912.28125 0)"/>
     <use xlink:href="#DejaVuSans-52" transform="translate(940.0625 0)"/>
     <use xlink:href="#DejaVuSans-51" transform="translate(1001.25 0)"/>
     <use xlink:href="#DejaVuSans-f" transform="translate(1064.625 0)"/>
     <use xlink:href="#DejaVuSans-3" transform="translate(1096.40625 0)"/>
     <use xlink:href="#DejaVuSans-49" transform="translate(1128.1875 0)"/>
     <use xlink:href="#DejaVuSans-52" transform="translate(1163.390625 0)"/>
     <use xlink:href="#DejaVuSans-55" transform="translate(1224.578125 0)"/>
     <use xlink:href="#DejaVuSans-46" transform="translate(1263.484375 0)"/>
     <use xlink:href="#DejaVuSans-48" transform="translate(1318.46875 0)"/>
     <use xlink:href="#DejaVuSans-3" transform="translate(1380 0)"/>
     <use xlink:href="#DejaVuSans-56" transform="translate(1411.78125 0)"/>
     <use xlink:href="#DejaVuSans-46" transform="translate(1463.875 0)"/>
     <use xlink:href="#DejaVuSans-44" transform="translate(1518.859375 0)"/>
     <use xlink:href="#DejaVuSans-4f" transform="translate(1580.140625 0)"/>
     <use xlink:href="#DejaVuSans-48" transform="translate(1607.921875 0)"/>
    </g>
   </g>
   <g id="text_10">
    <!-- Timestep controls bounded error -->
    <g transform="translate(69.079297 12.118365) scale(0.12 -0.12)">
     <defs>
      <path id="DejaVuSans-37" d="M -19 4666
L 3928 4666
L 3928 4134
L 2272 4134
L 2272 0
L 1638 0
L 1638 4134
L -19 4134
L -19 4666
z
" transform="scale(0.015625)"/>
      <path id="DejaVuSans-45" d="M 3116 1747
Q 3116 2381 2855 2742
Q 2594 3103 2138 3103
Q 1681 3103 1420 2742
Q 1159 2381 1159 1747
Q 1159 1113 1420 752
Q 1681 391 2138 391
Q 2594 391 2855 752
Q 3116 1113 3116 1747
z
M 1159 2969
Q 1341 3281 1617 3432
Q 1894 3584 2278 3584
Q 2916 3584 3314 3078
Q 3713 2572 3713 1747
Q 3713 922 3314 415
Q 2916 -91 2278 -91
Q 1894 -91 1617 61
Q 1341 213 1159 525
L 1159 0
L 581 0
L 581 4863
L 1159 4863
L 1159 2969
z
" transform="scale(0.015625)"/>
     </defs>
     <use xlink:href="#DejaVuSans-37"/>
     <use xlink:href="#DejaVuSans-4c" transform="translate(58 0)"/>
     <use xlink:href="#DejaVuSans-50" transform="translate(85.78125 0)"/>
     <use xlink:href="#DejaVuSans-48" transform="translate(183.1875 0)"/>
     <use xlink:href="#DejaVuSans-56" transform="translate(244.71875 0)"/>
     <use xlink:href="#DejaVuSans-57" transform="translate(296.8125 0)"/>
     <use xlink:href="#DejaVuSans-48" transform="translate(336.015625 0)"/>
     <use xlink:href="#DejaVuSans-53" transform="translate(397.546875 0)"/>
     <use xlink:href="#DejaVuSans-3" transform="translate(461.03125 0)"/>
     <use xlink:href="#DejaVuSans-46" transform="translate(492.8125 0)"/>
     <use xlink:href="#DejaVuSans-52" transform="translate(547.796875 0)"/>
     <use xlink:href="#DejaVuSans-51" transform="translate(608.984375 0)"/>
     <use xlink:href="#DejaVuSans-57" transform="translate(672.359375 0)"/>
     <use xlink:href="#DejaVuSans-55" transform="translate(711.5625 0)"/>
     <use xlink:href="#DejaVuSans-52" transform="translate(750.46875 0)"/>
     <use xlink:href="#DejaVuSans-4f" transform="translate(811.65625 0)"/>
     <use xlink:href="#DejaVuSans-56" transform="translate(839.4375 0)"/>
     <use xlink:href="#DejaVuSans-3" transform="translate(891.53125 0)"/>
     <use xlink:href="#DejaVuSans-45" transform="translate(923.3125 0)"/>
     <use xlink:href="#DejaVuSans-52" transform="translate(986.796875 0)"/>
     <use xlink:href="#DejaVuSans-58" transform="translate(1047.984375 0)"/>
     <use xlink:href="#DejaVuSans-51" transform="translate(1111.359375 0)"/>
     <use xlink:href="#DejaVuSans-47" transform="translate(1174.734375 0)"/>
     <use xlink:href="#DejaVuSans-48" transform="translate(1238.21875 0)"/>
     <use xlink:href="#DejaVuSans-47" transform="translate(1299.75 0)"/>
     <use xlink:href="#DejaVuSans-3" transform="translate(1363.234375 0)"/>
     <use xlink:href="#DejaVuSans-48" transform="translate(1395.015625 0)"/>
     <use xlink:href="#DejaVuSans-55" transform="translate(1456.546875 0)"/>
     <use xlink:href="#DejaVuSans-55" transform="translate(1495.90625 0)"/>
     <use xlink:href="#DejaVuSans-52" transform="translate(1534.8125 0)"/>
     <use xlink:href="#DejaVuSans-55" transform="translate(1596 0)"/>
    </g>
   </g>
  </g>
  <g id="axes_2">
   <g id="patch_6">
    <path d="M 354.611959 220.393197
L 594.134135 220.393197
L 594.134135 18.118365
L 354.611959 18.118365
z
" style="fill: #ffffff"/>
   </g>
   <g id="patch_7">
    <path d="M 365.49933 467058.132436
L 411.340895 467058.132436
L 411.340895 211.198887
L 365.49933 211.198887
z
" clip-path="url(#p6367cde68e)" style="fill: #6a8f4e; stroke: #2d4721; stroke-width: 0.6; stroke-linejoin: miter"/>
   </g>
   <g id="patch_8">
    <path d="M 422.801286 467058.132436
L 468.642851 467058.132436
L 468.642851 211.167794
L 422.801286 211.167794
z
" clip-path="url(#p6367cde68e)" style="fill: #6a8f4e; stroke: #2d4721; stroke-width: 0.6; stroke-linejoin: miter"/>
   </g>
   <g id="patch_9">
    <path d="M 480.103242 467058.132436
L 525.944807 467058.132436
L 525.944807 153.36147
L 480.103242 153.36147
z
" clip-path="url(#p6367cde68e)" style="fill: #6a8f4e; stroke: #2d4721; stroke-width: 0.6; stroke-linejoin: miter"/>
   </g>
   <g id="patch_10">
    <path d="M 537.405199 467058.132436
L 583.246763 467058.132436
L 583.246763 27.312676
L 537.405199 27.312676
z
" clip-path="url(#p6367cde68e)" style="fill: #6a8f4e; stroke: #2d4721; stroke-width: 0.6; stroke-linejoin: miter"/>
   </g>
   <g id="matplotlib.axis_3">
    <g id="xtick_4">
     <g id="line2d_31">
      <path d="M 388.420113 220.393197
L 388.420113 18.118365
" clip-path="url(#p6367cde68e)" style="fill: none; stroke: #b0b0b0; stroke-opacity: 0.18; stroke-width: 0.6; stroke-linecap: square"/>
     </g>
     <g id="line2d_32">
      <g>
       <use xlink:href="#m0029be9c63" x="388.420113" y="220.393197" style="stroke: #000000; stroke-width: 0.8"/>
      </g>
     </g>
     <g id="text_11">
      <!-- float64 -->
      <g transform="translate(374.343863 233.471947) scale(0.08 -0.08)">
       <defs>
        <path id="DejaVuSans-13b0" d="M 1831 4863
L 3431 4863
L 3431 0
L 2853 0
L 2853 4384
L 1825 4384
Q 1516 4384 1395 4259
Q 1275 4134 1275 3809
L 1275 3500
L 2222 3500
L 2222 3053
L 1275 3053
L 1275 0
L 697 0
L 697 3053
L 147 3053
L 147 3500
L 697 3500
L 697 3744
Q 697 4328 969 4595
Q 1241 4863 1831 4863
z
" transform="scale(0.015625)"/>
        <path id="DejaVuSans-19" d="M 2113 2584
Q 1688 2584 1439 2293
Q 1191 2003 1191 1497
Q 1191 994 1439 701
Q 1688 409 2113 409
Q 2538 409 2786 701
Q 3034 994 3034 1497
Q 3034 2003 2786 2293
Q 2538 2584 2113 2584
z
M 3366 4563
L 3366 3988
Q 3128 4100 2886 4159
Q 2644 4219 2406 4219
Q 1781 4219 1451 3797
Q 1122 3375 1075 2522
Q 1259 2794 1537 2939
Q 1816 3084 2150 3084
Q 2853 3084 3261 2657
Q 3669 2231 3669 1497
Q 3669 778 3244 343
Q 2819 -91 2113 -91
Q 1303 -91 875 529
Q 447 1150 447 2328
Q 447 3434 972 4092
Q 1497 4750 2381 4750
Q 2619 4750 2861 4703
Q 3103 4656 3366 4563
z
" transform="scale(0.015625)"/>
       </defs>
       <use xlink:href="#DejaVuSans-13b0"/>
       <use xlink:href="#DejaVuSans-52" transform="translate(62.984375 0)"/>
       <use xlink:href="#DejaVuSans-44" transform="translate(124.171875 0)"/>
       <use xlink:href="#DejaVuSans-57" transform="translate(185.453125 0)"/>
       <use xlink:href="#DejaVuSans-19" transform="translate(224.65625 0)"/>
       <use xlink:href="#DejaVuSans-17" transform="translate(288.28125 0)"/>
      </g>
     </g>
    </g>
    <g id="xtick_5">
     <g id="line2d_33">
      <path d="M 445.722069 220.393197
L 445.722069 18.118365
" clip-path="url(#p6367cde68e)" style="fill: none; stroke: #b0b0b0; stroke-opacity: 0.18; stroke-width: 0.6; stroke-linecap: square"/>
     </g>
     <g id="line2d_34">
      <g>
       <use xlink:href="#m0029be9c63" x="445.722069" y="220.393197" style="stroke: #000000; stroke-width: 0.8"/>
      </g>
     </g>
     <g id="text_12">
      <!-- float32 -->
      <g transform="translate(431.645819 233.471947) scale(0.08 -0.08)">
       <use xlink:href="#DejaVuSans-13b0"/>
       <use xlink:href="#DejaVuSans-52" transform="translate(62.984375 0)"/>
       <use xlink:href="#DejaVuSans-44" transform="translate(124.171875 0)"/>
       <use xlink:href="#DejaVuSans-57" transform="translate(185.453125 0)"/>
       <use xlink:href="#DejaVuSans-16" transform="translate(224.65625 0)"/>
       <use xlink:href="#DejaVuSans-15" transform="translate(288.28125 0)"/>
      </g>
     </g>
    </g>
    <g id="xtick_6">
     <g id="line2d_35">
      <path d="M 503.024025 220.393197
L 503.024025 18.118365
" clip-path="url(#p6367cde68e)" style="fill: none; stroke: #b0b0b0; stroke-opacity: 0.18; stroke-width: 0.6; stroke-linecap: square"/>
     </g>
     <g id="line2d_36">
      <g>
       <use xlink:href="#m0029be9c63" x="503.024025" y="220.393197" style="stroke: #000000; stroke-width: 0.8"/>
      </g>
     </g>
     <g id="text_13">
      <!-- rounded -->
      <g transform="translate(486.410275 234.272729) scale(0.08 -0.08)">
       <use xlink:href="#DejaVuSans-55"/>
       <use xlink:href="#DejaVuSans-52" transform="translate(38.90625 0)"/>
       <use xlink:href="#DejaVuSans-58" transform="translate(100.09375 0)"/>
       <use xlink:href="#DejaVuSans-51" transform="translate(163.46875 0)"/>
       <use xlink:href="#DejaVuSans-47" transform="translate(226.84375 0)"/>
       <use xlink:href="#DejaVuSans-48" transform="translate(290.328125 0)"/>
       <use xlink:href="#DejaVuSans-47" transform="translate(351.859375 0)"/>
      </g>
      <!-- 1e-4 -->
      <g transform="translate(494.02965 243.874291) scale(0.08 -0.08)">
       <defs>
        <path id="DejaVuSans-10" d="M 313 2009
L 1997 2009
L 1997 1497
L 313 1497
L 313 2009
z
" transform="scale(0.015625)"/>
       </defs>
       <use xlink:href="#DejaVuSans-14"/>
       <use xlink:href="#DejaVuSans-48" transform="translate(63.625 0)"/>
       <use xlink:href="#DejaVuSans-10" transform="translate(125.15625 0)"/>
       <use xlink:href="#DejaVuSans-17" transform="translate(161.234375 0)"/>
      </g>
     </g>
    </g>
    <g id="xtick_7">
     <g id="line2d_37">
      <path d="M 560.325981 220.393197
L 560.325981 18.118365
" clip-path="url(#p6367cde68e)" style="fill: none; stroke: #b0b0b0; stroke-opacity: 0.18; stroke-width: 0.6; stroke-linecap: square"/>
     </g>
     <g id="line2d_38">
      <g>
       <use xlink:href="#m0029be9c63" x="560.325981" y="220.393197" style="stroke: #000000; stroke-width: 0.8"/>
      </g>
     </g>
     <g id="text_14">
      <!-- rounded -->
      <g transform="translate(543.712231 234.272729) scale(0.08 -0.08)">
       <use xlink:href="#DejaVuSans-55"/>
       <use xlink:href="#DejaVuSans-52" transform="translate(38.90625 0)"/>
       <use xlink:href="#DejaVuSans-58" transform="translate(100.09375 0)"/>
       <use xlink:href="#DejaVuSans-51" transform="translate(163.46875 0)"/>
       <use xlink:href="#DejaVuSans-47" transform="translate(226.84375 0)"/>
       <use xlink:href="#DejaVuSans-48" transform="translate(290.328125 0)"/>
       <use xlink:href="#DejaVuSans-47" transform="translate(351.859375 0)"/>
      </g>
      <!-- 1e-3 -->
      <g transform="translate(551.331606 243.874291) scale(0.08 -0.08)">
       <use xlink:href="#DejaVuSans-14"/>
       <use xlink:href="#DejaVuSans-48" transform="translate(63.625 0)"/>
       <use xlink:href="#DejaVuSans-10" transform="translate(125.15625 0)"/>
       <use xlink:href="#DejaVuSans-16" transform="translate(161.234375 0)"/>
      </g>
     </g>
    </g>
   </g>
   <g id="matplotlib.axis_4">
    <g id="ytick_21">
     <g id="line2d_39">
      <path d="M 354.611959 168.385816
L 594.134135 168.385816
" clip-path="url(#p6367cde68e)" style="fill: none; stroke: #b0b0b0; stroke-opacity: 0.18; stroke-width: 0.6; stroke-linecap: square"/>
     </g>
     <g id="line2d_40">
      <g>
       <use xlink:href="#m25d3bc271f" x="354.611959" y="168.385816" style="stroke: #000000; stroke-width: 0.8"/>
      </g>
     </g>
     <g id="text_15">
      <!-- $\mathdefault{10^{-2}}$ -->
      <g transform="translate(324.111959 173.085816) scale(0.1 -0.1)">
       <use xlink:href="#DejaVuSans-14" transform="translate(0 0.746875)"/>
       <use xlink:href="#DejaVuSans-13" transform="translate(63.623047 0.746875)"/>
       <use xlink:href="#DejaVuSans-c9c" transform="translate(128.203125 42.046875) scale(0.7)"/>
       <use xlink:href="#DejaVuSans-15" transform="translate(186.855469 42.046875) scale(0.7)"/>
      </g>
     </g>
    </g>
    <g id="ytick_22">
     <g id="line2d_41">
      <g>
       <use xlink:href="#m07430f3dcb" x="354.611959" y="213.722781" style="stroke: #000000; stroke-width: 0.6"/>
      </g>
     </g>
    </g>
    <g id="ytick_23">
     <g id="line2d_42">
      <g>
       <use xlink:href="#m07430f3dcb" x="354.611959" y="189.792332" style="stroke: #000000; stroke-width: 0.6"/>
      </g>
     </g>
    </g>
    <g id="ytick_24">
     <g id="line2d_43">
      <g>
       <use xlink:href="#m07430f3dcb" x="354.611959" y="27.556338" style="stroke: #000000; stroke-width: 0.6"/>
      </g>
     </g>
     <g id="text_16">
      <!-- $\mathdefault{2\times10^{-2}}$ -->
      <g transform="translate(307.111959 32.256338) scale(0.1 -0.1)">
       <defs>
        <path id="DejaVuSans-99" d="M 4488 3438
L 3059 2003
L 4488 575
L 4116 197
L 2681 1631
L 1247 197
L 878 575
L 2303 2003
L 878 3438
L 1247 3816
L 2681 2381
L 4116 3816
L 4488 3438
z
" transform="scale(0.015625)"/>
       </defs>
       <use xlink:href="#DejaVuSans-15" transform="translate(0 0.746875)"/>
       <use xlink:href="#DejaVuSans-99" transform="translate(83.105469 0.746875)"/>
       <use xlink:href="#DejaVuSans-14" transform="translate(186.376953 0.746875)"/>
       <use xlink:href="#DejaVuSans-13" transform="translate(250 0.746875)"/>
       <use xlink:href="#DejaVuSans-c9c" transform="translate(314.580078 42.046875) scale(0.7)"/>
       <use xlink:href="#DejaVuSans-15" transform="translate(373.232422 42.046875) scale(0.7)"/>
      </g>
     </g>
    </g>
    <g id="text_17">
     <!-- max |Delta E| / E0 -->
     <g transform="translate(300.709615 164.39875) rotate(-90) scale(0.1 -0.1)">
      <use xlink:href="#DejaVuSans-50"/>
      <use xlink:href="#DejaVuSans-44" transform="translate(97.40625 0)"/>
      <use xlink:href="#DejaVuSans-5b" transform="translate(158.6875 0)"/>
      <use xlink:href="#DejaVuSans-3" transform="translate(217.875 0)"/>
      <use xlink:href="#DejaVuSans-5f" transform="translate(249.65625 0)"/>
      <use xlink:href="#DejaVuSans-27" transform="translate(283.34375 0)"/>
      <use xlink:href="#DejaVuSans-48" transform="translate(360.34375 0)"/>
      <use xlink:href="#DejaVuSans-4f" transform="translate(421.875 0)"/>
      <use xlink:href="#DejaVuSans-57" transform="translate(449.65625 0)"/>
      <use xlink:href="#DejaVuSans-44" transform="translate(488.859375 0)"/>
      <use xlink:href="#DejaVuSans-3" transform="translate(550.140625 0)"/>
      <use xlink:href="#DejaVuSans-28" transform="translate(581.921875 0)"/>
      <use xlink:href="#DejaVuSans-5f" transform="translate(645.109375 0)"/>
      <use xlink:href="#DejaVuSans-3" transform="translate(678.796875 0)"/>
      <use xlink:href="#DejaVuSans-12" transform="translate(710.578125 0)"/>
      <use xlink:href="#DejaVuSans-3" transform="translate(744.265625 0)"/>
      <use xlink:href="#DejaVuSans-28" transform="translate(776.046875 0)"/>
      <use xlink:href="#DejaVuSans-13" transform="translate(839.234375 0)"/>
     </g>
    </g>
   </g>
   <g id="patch_11">
    <path d="M 354.611959 220.393198
L 354.611959 18.118365
" style="fill: none; stroke: #000000; stroke-width: 0.8; stroke-linejoin: miter; stroke-linecap: square"/>
   </g>
   <g id="patch_12">
    <path d="M 354.611959 220.393197
L 594.134135 220.393197
" style="fill: none; stroke: #000000; stroke-width: 0.8; stroke-linejoin: miter; stroke-linecap: square"/>
   </g>
   <g id="text_18">
    <!-- Precision can set an error floor -->
    <g transform="translate(382.526172 12.118365) scale(0.12 -0.12)">
     <defs>
      <path id="DejaVuSans-33" d="M 1259 4147
L 1259 2394
L 2053 2394
Q 2494 2394 2734 2622
Q 2975 2850 2975 3272
Q 2975 3691 2734 3919
Q 2494 4147 2053 4147
L 1259 4147
z
M 628 4666
L 2053 4666
Q 2838 4666 3239 4311
Q 3641 3956 3641 3272
Q 3641 2581 3239 2228
Q 2838 1875 2053 1875
L 1259 1875
L 1259 0
L 628 0
L 628 4666
z
" transform="scale(0.015625)"/>
     </defs>
     <use xlink:href="#DejaVuSans-33"/>
     <use xlink:href="#DejaVuSans-55" transform="translate(58.546875 0)"/>
     <use xlink:href="#DejaVuSans-48" transform="translate(97.453125 0)"/>
     <use xlink:href="#DejaVuSans-46" transform="translate(158.984375 0)"/>
     <use xlink:href="#DejaVuSans-4c" transform="translate(213.96875 0)"/>
     <use xlink:href="#DejaVuSans-56" transform="translate(241.75 0)"/>
     <use xlink:href="#DejaVuSans-4c" transform="translate(293.84375 0)"/>
     <use xlink:href="#DejaVuSans-52" transform="translate(321.625 0)"/>
     <use xlink:href="#DejaVuSans-51" transform="translate(382.8125 0)"/>
     <use xlink:href="#DejaVuSans-3" transform="translate(446.1875 0)"/>
     <use xlink:href="#DejaVuSans-46" transform="translate(477.96875 0)"/>
     <use xlink:href="#DejaVuSans-44" transform="translate(532.953125 0)"/>
     <use xlink:href="#DejaVuSans-51" transform="translate(594.234375 0)"/>
     <use xlink:href="#DejaVuSans-3" transform="translate(657.609375 0)"/>
     <use xlink:href="#DejaVuSans-56" transform="translate(689.390625 0)"/>
     <use xlink:href="#DejaVuSans-48" transform="translate(741.484375 0)"/>
     <use xlink:href="#DejaVuSans-57" transform="translate(803.015625 0)"/>
     <use xlink:href="#DejaVuSans-3" transform="translate(842.21875 0)"/>
     <use xlink:href="#DejaVuSans-44" transform="translate(874 0)"/>
     <use xlink:href="#DejaVuSans-51" transform="translate(935.28125 0)"/>
     <use xlink:href="#DejaVuSans-3" transform="translate(998.65625 0)"/>
     <use xlink:href="#DejaVuSans-48" transform="translate(1030.4375 0)"/>
     <use xlink:href="#DejaVuSans-55" transform="translate(1091.96875 0)"/>
     <use xlink:href="#DejaVuSans-55" transform="translate(1131.328125 0)"/>
     <use xlink:href="#DejaVuSans-52" transform="translate(1170.234375 0)"/>
     <use xlink:href="#DejaVuSans-55" transform="translate(1231.421875 0)"/>
     <use xlink:href="#DejaVuSans-3" transform="translate(1272.53125 0)"/>
     <use xlink:href="#DejaVuSans-13b0" transform="translate(1304.3125 0)"/>
     <use xlink:href="#DejaVuSans-52" transform="translate(1367.296875 0)"/>
     <use xlink:href="#DejaVuSans-52" transform="translate(1428.484375 0)"/>
     <use xlink:href="#DejaVuSans-55" transform="translate(1489.671875 0)"/>
    </g>
   </g>
  </g>
  <g id="axes_3">
   <g id="patch_13">
    <path d="M 635.877584 220.393197
L 875.39976 220.393197
L 875.39976 18.118365
L 635.877584 18.118365
z
" style="fill: #ffffff"/>
   </g>
   <g id="patch_14">
    <path d="M 646.764955 46.026001
L 708.978508 46.026001
L 708.978508 211.198887
L 646.764955 211.198887
z
" clip-path="url(#p5f4cbd39c6)" style="fill: #d88c3d; stroke: #784714; stroke-width: 0.6; stroke-linejoin: miter"/>
   </g>
   <g id="patch_15">
    <path d="M 724.531896 46.026001
L 786.745448 46.026001
L 786.745448 53.499978
L 724.531896 53.499978
z
" clip-path="url(#p5f4cbd39c6)" style="fill: #d88c3d; stroke: #784714; stroke-width: 0.6; stroke-linejoin: miter"/>
   </g>
   <g id="patch_16">
    <path d="M 802.298836 46.026001
L 864.512388 46.026001
L 864.512388 27.312676
L 802.298836 27.312676
z
" clip-path="url(#p5f4cbd39c6)" style="fill: #d88c3d; stroke: #784714; stroke-width: 0.6; stroke-linejoin: miter"/>
   </g>
   <g id="matplotlib.axis_5">
    <g id="xtick_8">
     <g id="line2d_44">
      <path d="M 677.871732 220.393197
L 677.871732 18.118365
" clip-path="url(#p5f4cbd39c6)" style="fill: none; stroke: #b0b0b0; stroke-opacity: 0.18; stroke-width: 0.6; stroke-linecap: square"/>
     </g>
     <g id="line2d_45">
      <g>
       <use xlink:href="#m0029be9c63" x="677.871732" y="220.393197" style="stroke: #000000; stroke-width: 0.8"/>
      </g>
     </g>
     <g id="text_19">
      <!-- biased -->
      <g transform="translate(664.685482 234.272729) scale(0.08 -0.08)">
       <use xlink:href="#DejaVuSans-45"/>
       <use xlink:href="#DejaVuSans-4c" transform="translate(63.484375 0)"/>
       <use xlink:href="#DejaVuSans-44" transform="translate(91.265625 0)"/>
       <use xlink:href="#DejaVuSans-56" transform="translate(152.546875 0)"/>
       <use xlink:href="#DejaVuSans-48" transform="translate(204.640625 0)"/>
       <use xlink:href="#DejaVuSans-47" transform="translate(266.171875 0)"/>
      </g>
      <!-- low -->
      <g transform="translate(671.041732 243.874916) scale(0.08 -0.08)">
       <defs>
        <path id="DejaVuSans-5a" d="M 269 3500
L 844 3500
L 1563 769
L 2278 3500
L 2956 3500
L 3675 769
L 4391 3500
L 4966 3500
L 4050 0
L 3372 0
L 2619 2869
L 1863 0
L 1184 0
L 269 3500
z
" transform="scale(0.015625)"/>
       </defs>
       <use xlink:href="#DejaVuSans-4f"/>
       <use xlink:href="#DejaVuSans-52" transform="translate(27.78125 0)"/>
       <use xlink:href="#DejaVuSans-5a" transform="translate(88.96875 0)"/>
      </g>
      <!-- force -->
      <g transform="translate(667.799232 253.477104) scale(0.08 -0.08)">
       <use xlink:href="#DejaVuSans-49"/>
       <use xlink:href="#DejaVuSans-52" transform="translate(35.203125 0)"/>
       <use xlink:href="#DejaVuSans-55" transform="translate(96.390625 0)"/>
       <use xlink:href="#DejaVuSans-46" transform="translate(135.296875 0)"/>
       <use xlink:href="#DejaVuSans-48" transform="translate(190.28125 0)"/>
      </g>
     </g>
    </g>
    <g id="xtick_9">
     <g id="line2d_46">
      <path d="M 755.638672 220.393197
L 755.638672 18.118365
" clip-path="url(#p5f4cbd39c6)" style="fill: none; stroke: #b0b0b0; stroke-opacity: 0.18; stroke-width: 0.6; stroke-linecap: square"/>
     </g>
     <g id="line2d_47">
      <g>
       <use xlink:href="#m0029be9c63" x="755.638672" y="220.393197" style="stroke: #000000; stroke-width: 0.8"/>
      </g>
     </g>
     <g id="text_20">
      <!-- exact -->
      <g transform="translate(744.661172 234.272104) scale(0.08 -0.08)">
       <use xlink:href="#DejaVuSans-48"/>
       <use xlink:href="#DejaVuSans-5b" transform="translate(59.78125 0)"/>
       <use xlink:href="#DejaVuSans-44" transform="translate(118.96875 0)"/>
       <use xlink:href="#DejaVuSans-46" transform="translate(180.25 0)"/>
       <use xlink:href="#DejaVuSans-57" transform="translate(235.234375 0)"/>
      </g>
      <!-- force -->
      <g transform="translate(745.566172 243.874291) scale(0.08 -0.08)">
       <use xlink:href="#DejaVuSans-49"/>
       <use xlink:href="#DejaVuSans-52" transform="translate(35.203125 0)"/>
       <use xlink:href="#DejaVuSans-55" transform="translate(96.390625 0)"/>
       <use xlink:href="#DejaVuSans-46" transform="translate(135.296875 0)"/>
       <use xlink:href="#DejaVuSans-48" transform="translate(190.28125 0)"/>
      </g>
     </g>
    </g>
    <g id="xtick_10">
     <g id="line2d_48">
      <path d="M 833.405612 220.393197
L 833.405612 18.118365
" clip-path="url(#p5f4cbd39c6)" style="fill: none; stroke: #b0b0b0; stroke-opacity: 0.18; stroke-width: 0.6; stroke-linecap: square"/>
     </g>
     <g id="line2d_49">
      <g>
       <use xlink:href="#m0029be9c63" x="833.405612" y="220.393197" style="stroke: #000000; stroke-width: 0.8"/>
      </g>
     </g>
     <g id="text_21">
      <!-- biased -->
      <g transform="translate(820.219362 234.272729) scale(0.08 -0.08)">
       <use xlink:href="#DejaVuSans-45"/>
       <use xlink:href="#DejaVuSans-4c" transform="translate(63.484375 0)"/>
       <use xlink:href="#DejaVuSans-44" transform="translate(91.265625 0)"/>
       <use xlink:href="#DejaVuSans-56" transform="translate(152.546875 0)"/>
       <use xlink:href="#DejaVuSans-48" transform="translate(204.640625 0)"/>
       <use xlink:href="#DejaVuSans-47" transform="translate(266.171875 0)"/>
      </g>
      <!-- high -->
      <g transform="translate(824.684987 243.874916) scale(0.08 -0.08)">
       <defs>
        <path id="DejaVuSans-4b" d="M 3513 2113
L 3513 0
L 2938 0
L 2938 2094
Q 2938 2591 2744 2837
Q 2550 3084 2163 3084
Q 1697 3084 1428 2787
Q 1159 2491 1159 1978
L 1159 0
L 581 0
L 581 4863
L 1159 4863
L 1159 2956
Q 1366 3272 1645 3428
Q 1925 3584 2291 3584
Q 2894 3584 3203 3211
Q 3513 2838 3513 2113
z
" transform="scale(0.015625)"/>
       </defs>
       <use xlink:href="#DejaVuSans-4b"/>
       <use xlink:href="#DejaVuSans-4c" transform="translate(63.375 0)"/>
       <use xlink:href="#DejaVuSans-4a" transform="translate(91.15625 0)"/>
       <use xlink:href="#DejaVuSans-4b" transform="translate(154.640625 0)"/>
      </g>
      <!-- force -->
      <g transform="translate(823.333112 253.477104) scale(0.08 -0.08)">
       <use xlink:href="#DejaVuSans-49"/>
       <use xlink:href="#DejaVuSans-52" transform="translate(35.203125 0)"/>
       <use xlink:href="#DejaVuSans-55" transform="translate(96.390625 0)"/>
       <use xlink:href="#DejaVuSans-46" transform="translate(135.296875 0)"/>
       <use xlink:href="#DejaVuSans-48" transform="translate(190.28125 0)"/>
      </g>
     </g>
    </g>
   </g>
   <g id="matplotlib.axis_6">
    <g id="ytick_25">
     <g id="line2d_50">
      <path d="M 635.877584 192.548296
L 875.39976 192.548296
" clip-path="url(#p5f4cbd39c6)" style="fill: none; stroke: #b0b0b0; stroke-opacity: 0.18; stroke-width: 0.6; stroke-linecap: square"/>
     </g>
     <g id="line2d_51">
      <g>
       <use xlink:href="#m25d3bc271f" x="635.877584" y="192.548296" style="stroke: #000000; stroke-width: 0.8"/>
      </g>
     </g>
     <g id="text_22">
      <!-- −4 -->
      <g transform="translate(614.135396 196.347124) scale(0.1 -0.1)">
       <use xlink:href="#DejaVuSans-c9c"/>
       <use xlink:href="#DejaVuSans-17" transform="translate(83.796875 0)"/>
      </g>
     </g>
    </g>
    <g id="ytick_26">
     <g id="line2d_52">
      <path d="M 635.877584 155.917722
L 875.39976 155.917722
" clip-path="url(#p5f4cbd39c6)" style="fill: none; stroke: #b0b0b0; stroke-opacity: 0.18; stroke-width: 0.6; stroke-linecap: square"/>
     </g>
     <g id="line2d_53">
      <g>
       <use xlink:href="#m25d3bc271f" x="635.877584" y="155.917722" style="stroke: #000000; stroke-width: 0.8"/>
      </g>
     </g>
     <g id="text_23">
      <!-- −3 -->
      <g transform="translate(614.135396 159.71655) scale(0.1 -0.1)">
       <use xlink:href="#DejaVuSans-c9c"/>
       <use xlink:href="#DejaVuSans-16" transform="translate(83.796875 0)"/>
      </g>
     </g>
    </g>
    <g id="ytick_27">
     <g id="line2d_54">
      <path d="M 635.877584 119.287148
L 875.39976 119.287148
" clip-path="url(#p5f4cbd39c6)" style="fill: none; stroke: #b0b0b0; stroke-opacity: 0.18; stroke-width: 0.6; stroke-linecap: square"/>
     </g>
     <g id="line2d_55">
      <g>
       <use xlink:href="#m25d3bc271f" x="635.877584" y="119.287148" style="stroke: #000000; stroke-width: 0.8"/>
      </g>
     </g>
     <g id="text_24">
      <!-- −2 -->
      <g transform="translate(614.135396 123.085976) scale(0.1 -0.1)">
       <use xlink:href="#DejaVuSans-c9c"/>
       <use xlink:href="#DejaVuSans-15" transform="translate(83.796875 0)"/>
      </g>
     </g>
    </g>
    <g id="ytick_28">
     <g id="line2d_56">
      <path d="M 635.877584 82.656575
L 875.39976 82.656575
" clip-path="url(#p5f4cbd39c6)" style="fill: none; stroke: #b0b0b0; stroke-opacity: 0.18; stroke-width: 0.6; stroke-linecap: square"/>
     </g>
     <g id="line2d_57">
      <g>
       <use xlink:href="#m25d3bc271f" x="635.877584" y="82.656575" style="stroke: #000000; stroke-width: 0.8"/>
      </g>
     </g>
     <g id="text_25">
      <!-- −1 -->
      <g transform="translate(614.135396 86.455403) scale(0.1 -0.1)">
       <use xlink:href="#DejaVuSans-c9c"/>
       <use xlink:href="#DejaVuSans-14" transform="translate(83.796875 0)"/>
      </g>
     </g>
    </g>
    <g id="ytick_29">
     <g id="line2d_58">
      <path d="M 635.877584 46.026001
L 875.39976 46.026001
" clip-path="url(#p5f4cbd39c6)" style="fill: none; stroke: #b0b0b0; stroke-opacity: 0.18; stroke-width: 0.6; stroke-linecap: square"/>
     </g>
     <g id="line2d_59">
      <g>
       <use xlink:href="#m25d3bc271f" x="635.877584" y="46.026001" style="stroke: #000000; stroke-width: 0.8"/>
      </g>
     </g>
     <g id="text_26">
      <!-- 0 -->
      <g transform="translate(622.515084 49.824829) scale(0.1 -0.1)">
       <use xlink:href="#DejaVuSans-13"/>
      </g>
     </g>
    </g>
    <g id="text_27">
     <!-- Delta E / (E0 time) -->
     <g transform="translate(607.733053 165.333906) rotate(-90) scale(0.1 -0.1)">
      <defs>
       <path id="DejaVuSans-b" d="M 1984 4856
Q 1566 4138 1362 3434
Q 1159 2731 1159 2009
Q 1159 1288 1364 580
Q 1569 -128 1984 -844
L 1484 -844
Q 1016 -109 783 600
Q 550 1309 550 2009
Q 550 2706 781 3412
Q 1013 4119 1484 4856
L 1984 4856
z
" transform="scale(0.015625)"/>
       <path id="DejaVuSans-c" d="M 513 4856
L 1013 4856
Q 1481 4119 1714 3412
Q 1947 2706 1947 2009
Q 1947 1309 1714 600
Q 1481 -109 1013 -844
L 513 -844
Q 928 -128 1133 580
Q 1338 1288 1338 2009
Q 1338 2731 1133 3434
Q 928 4138 513 4856
z
" transform="scale(0.015625)"/>
      </defs>
      <use xlink:href="#DejaVuSans-27"/>
      <use xlink:href="#DejaVuSans-48" transform="translate(77 0)"/>
      <use xlink:href="#DejaVuSans-4f" transform="translate(138.53125 0)"/>
      <use xlink:href="#DejaVuSans-57" transform="translate(166.3125 0)"/>
      <use xlink:href="#DejaVuSans-44" transform="translate(205.515625 0)"/>
      <use xlink:href="#DejaVuSans-3" transform="translate(266.796875 0)"/>
      <use xlink:href="#DejaVuSans-28" transform="translate(298.578125 0)"/>
      <use xlink:href="#DejaVuSans-3" transform="translate(361.765625 0)"/>
      <use xlink:href="#DejaVuSans-12" transform="translate(393.546875 0)"/>
      <use xlink:href="#DejaVuSans-3" transform="translate(427.234375 0)"/>
      <use xlink:href="#DejaVuSans-b" transform="translate(459.015625 0)"/>
      <use xlink:href="#DejaVuSans-28" transform="translate(498.03125 0)"/>
      <use xlink:href="#DejaVuSans-13" transform="translate(561.21875 0)"/>
      <use xlink:href="#DejaVuSans-3" transform="translate(624.84375 0)"/>
      <use xlink:href="#DejaVuSans-57" transform="translate(656.625 0)"/>
      <use xlink:href="#DejaVuSans-4c" transform="translate(695.828125 0)"/>
      <use xlink:href="#DejaVuSans-50" transform="translate(723.609375 0)"/>
      <use xlink:href="#DejaVuSans-48" transform="translate(821.015625 0)"/>
      <use xlink:href="#DejaVuSans-c" transform="translate(882.546875 0)"/>
     </g>
    </g>
    <g id="text_28">
     <!-- 1e−5 -->
     <g transform="translate(635.877584 15.118365) scale(0.1 -0.1)">
      <use xlink:href="#DejaVuSans-14"/>
      <use xlink:href="#DejaVuSans-48" transform="translate(63.625 0)"/>
      <use xlink:href="#DejaVuSans-c9c" transform="translate(125.15625 0)"/>
      <use xlink:href="#DejaVuSans-18" transform="translate(208.953125 0)"/>
     </g>
    </g>
   </g>
   <g id="line2d_60">
    <path d="M 635.877584 46.026001
L 875.39976 46.026001
" clip-path="url(#p5f4cbd39c6)" style="fill: none; stroke: #333333; stroke-width: 0.8; stroke-linecap: square"/>
   </g>
   <g id="patch_17">
    <path d="M 635.877584 220.393197
L 635.877584 18.118365
" style="fill: none; stroke: #000000; stroke-width: 0.8; stroke-linejoin: miter; stroke-linecap: square"/>
   </g>
   <g id="patch_18">
    <path d="M 635.877584 220.393197
L 875.39976 220.393197
" style="fill: none; stroke: #000000; stroke-width: 0.8; stroke-linejoin: miter; stroke-linecap: square"/>
   </g>
   <g id="text_29">
    <!-- Force bias appears as drift -->
    <g transform="translate(676.138672 12.118365) scale(0.12 -0.12)">
     <defs>
      <path id="DejaVuSans-29" d="M 628 4666
L 3309 4666
L 3309 4134
L 1259 4134
L 1259 2759
L 3109 2759
L 3109 2228
L 1259 2228
L 1259 0
L 628 0
L 628 4666
z
" transform="scale(0.015625)"/>
     </defs>
     <use xlink:href="#DejaVuSans-29"/>
     <use xlink:href="#DejaVuSans-52" transform="translate(53.953125 0)"/>
     <use xlink:href="#DejaVuSans-55" transform="translate(115.140625 0)"/>
     <use xlink:href="#DejaVuSans-46" transform="translate(154.046875 0)"/>
     <use xlink:href="#DejaVuSans-48" transform="translate(209.03125 0)"/>
     <use xlink:href="#DejaVuSans-3" transform="translate(270.5625 0)"/>
     <use xlink:href="#DejaVuSans-45" transform="translate(302.34375 0)"/>
     <use xlink:href="#DejaVuSans-4c" transform="translate(365.828125 0)"/>
     <use xlink:href="#DejaVuSans-44" transform="translate(393.609375 0)"/>
     <use xlink:href="#DejaVuSans-56" transform="translate(454.890625 0)"/>
     <use xlink:href="#DejaVuSans-3" transform="translate(506.984375 0)"/>
     <use xlink:href="#DejaVuSans-44" transform="translate(538.765625 0)"/>
     <use xlink:href="#DejaVuSans-53" transform="translate(600.046875 0)"/>
     <use xlink:href="#DejaVuSans-53" transform="translate(663.53125 0)"/>
     <use xlink:href="#DejaVuSans-48" transform="translate(727.015625 0)"/>
     <use xlink:href="#DejaVuSans-44" transform="translate(788.546875 0)"/>
     <use xlink:href="#DejaVuSans-55" transform="translate(849.828125 0)"/>
     <use xlink:href="#DejaVuSans-56" transform="translate(890.9375 0)"/>
     <use xlink:href="#DejaVuSans-3" transform="translate(943.03125 0)"/>
     <use xlink:href="#DejaVuSans-44" transform="translate(974.8125 0)"/>
     <use xlink:href="#DejaVuSans-56" transform="translate(1036.09375 0)"/>
     <use xlink:href="#DejaVuSans-3" transform="translate(1088.1875 0)"/>
     <use xlink:href="#DejaVuSans-47" transform="translate(1119.96875 0)"/>
     <use xlink:href="#DejaVuSans-55" transform="translate(1183.453125 0)"/>
     <use xlink:href="#DejaVuSans-4c" transform="translate(1224.5625 0)"/>
     <use xlink:href="#DejaVuSans-49" transform="translate(1252.34375 0)"/>
     <use xlink:href="#DejaVuSans-57" transform="translate(1285.796875 0)"/>
    </g>
   </g>
  </g>
 </g>
 <defs>
  <clipPath id="p9f1e4c56cb">
   <rect x="47.544771" y="18.118365" width="239.522176" height="202.274832"/>
  </clipPath>
  <clipPath id="p6367cde68e">
   <rect x="354.611959" y="18.118365" width="239.522176" height="202.274832"/>
  </clipPath>
  <clipPath id="p5f4cbd39c6">
   <rect x="635.877584" y="18.118365" width="239.522176" height="202.274832"/>
  </clipPath>
 </defs>
</svg>
