<?xml version="1.0" encoding="utf-8" standalone="no"?>
<!DOCTYPE svg PUBLIC "-//W3C//DTD SVG 1.1//EN"
  "http://www.w3.org/Graphics/SVG/1.1/DTD/svg11.dtd">
<svg xmlns:xlink="http://www.w3.org/1999/xlink" width="878.4pt" height="259.2pt" viewBox="0 0 878.4 259.2" xmlns="http://www.w3.org/2000/svg" version="1.1">
 <metadata>
  <rdf:RDF xmlns:dc="http://purl.org/dc/elements/1.1/" xmlns:cc="http://creativecommons.org/ns#" xmlns:rdf="http://www.w3.org/1999/02/22-rdf-syntax-ns#">
   <cc:Work>
    <dc:type rdf:resource="http://purl.org/dc/dcmitype/StillImage"/>
    <dc:format>image/svg+xml</dc:format>
    <dc:creator>
     <cc:Agent>
      <dc:title>Matplotlib v3.11.0, https://matplotlib.org/</dc:title>
     </cc:Agent>
    </dc:creator>
   </cc:Work>
  </rdf:RDF>
 </metadata>
 <defs>
  <style type="text/css">*{stroke-linejoin: round; stroke-linecap: butt}</style>
 </defs>
 <g id="figure_1">
  <g id="patch_1">
   <path d="M 0 259.2
L 878.4 259.2
L 878.4 0
L 0 0
z
" style="fill: #ffffff"/>
  </g>
  <g id="axes_1">
   <g id="patch_2">
    <path d="M 30.36274 225.198979
L 284.498198 225.198979
L 284.498198 18.118365
L 30.36274 18.118365
z
" style="fill: #ffffff"/>
   </g>
   <g id="matplotlib.axis_1">
    <g id="xtick_1">
     <g id="line2d_1">
      <path d="M 41.187835 225.198979
L 41.187835 18.118365
" clip-path="url(#pfb3ec0fb84)" style="fill: none; stroke: #b0b0b0; stroke-opacity: 0.18; stroke-width: 0.6; stroke-linecap: square"/>
     </g>
     <g id="line2d_2">
      <defs>
       <path id="mf3ce9f3e72" d="M 0 0
L 0 3.5
" style="stroke: #000000; stroke-width: 0.8"/>
      </defs>
      <g>
       <use xlink:href="#mf3ce9f3e72" x="41.187835" y="225.198979" style="stroke: #000000; stroke-width: 0.8"/>
      </g>
     </g>
     <g id="text_1">
      <!-- 0 -->
      <g transform="translate(38.006585 239.796635) scale(0.1 -0.1)">
       <defs>
        <path id="DejaVuSans-13" d="M 2034 4250
Q 1547 4250 1301 3770
Q 1056 3291 1056 2328
Q 1056 1369 1301 889
Q 1547 409 2034 409
Q 2525 409 2770 889
Q 3016 1369 3016 2328
Q 3016 3291 2770 3770
Q 2525 4250 2034 4250
z
M 2034 4750
Q 2819 4750 3233 4129
Q 3647 3509 3647 2328
Q 3647 1150 3233 529
Q 2819 -91 2034 -91
Q 1250 -91 836 529
Q 422 1150 422 2328
Q 422 3509 836 4129
Q 1250 4750 2034 4750
z
" transform="scale(0.015625)"/>
       </defs>
       <use xlink:href="#DejaVuSans-13"/>
      </g>
     </g>
    </g>
    <g id="xtick_2">
     <g id="line2d_3">
      <path d="M 99.309152 225.198979
L 99.309152 18.118365
" clip-path="url(#pfb3ec0fb84)" style="fill: none; stroke: #b0b0b0; stroke-opacity: 0.18; stroke-width: 0.6; stroke-linecap: square"/>
     </g>
     <g id="line2d_4">
      <g>
       <use xlink:href="#mf3ce9f3e72" x="99.309152" y="225.198979" style="stroke: #000000; stroke-width: 0.8"/>
      </g>
     </g>
     <g id="text_2">
      <!-- 2 -->
      <g transform="translate(96.127902 239.796635) scale(0.1 -0.1)">
       <defs>
        <path id="DejaVuSans-15" d="M 1228 531
L 3431 531
L 3431 0
L 469 0
L 469 531
Q 828 903 1448 1529
Q 2069 2156 2228 2338
Q 2531 2678 2651 2914
Q 2772 3150 2772 3378
Q 2772 3750 2511 3984
Q 2250 4219 1831 4219
Q 1534 4219 1204 4116
Q 875 4013 500 3803
L 500 4441
Q 881 4594 1212 4672
Q 1544 4750 1819 4750
Q 2544 4750 2975 4387
Q 3406 4025 3406 3419
Q 3406 3131 3298 2873
Q 3191 2616 2906 2266
Q 2828 2175 2409 1742
Q 1991 1309 1228 531
z
" transform="scale(0.015625)"/>
       </defs>
       <use xlink:href="#DejaVuSans-15"/>
      </g>
     </g>
    </g>
    <g id="xtick_3">
     <g id="line2d_5">
      <path d="M 157.430469 225.198979
L 157.430469 18.118365
" clip-path="url(#pfb3ec0fb84)" style="fill: none; stroke: #b0b0b0; stroke-opacity: 0.18; stroke-width: 0.6; stroke-linecap: square"/>
     </g>
     <g id="line2d_6">
      <g>
       <use xlink:href="#mf3ce9f3e72" x="157.430469" y="225.198979" style="stroke: #000000; stroke-width: 0.8"/>
      </g>
     </g>
     <g id="text_3">
      <!-- 4 -->
      <g transform="translate(154.249219 239.796635) scale(0.1 -0.1)">
       <defs>
        <path id="DejaVuSans-17" d="M 2419 4116
L 825 1625
L 2419 1625
L 2419 4116
z
M 2253 4666
L 3047 4666
L 3047 1625
L 3713 1625
L 3713 1100
L 3047 1100
L 3047 0
L 2419 0
L 2419 1100
L 313 1100
L 313 1709
L 2253 4666
z
" transform="scale(0.015625)"/>
       </defs>
       <use xlink:href="#DejaVuSans-17"/>
      </g>
     </g>
    </g>
    <g id="xtick_4">
     <g id="line2d_7">
      <path d="M 215.551786 225.198979
L 215.551786 18.118365
" clip-path="url(#pfb3ec0fb84)" style="fill: none; stroke: #b0b0b0; stroke-opacity: 0.18; stroke-width: 0.6; stroke-linecap: square"/>
     </g>
     <g id="line2d_8">
      <g>
       <use xlink:href="#mf3ce9f3e72" x="215.551786" y="225.198979" style="stroke: #000000; stroke-width: 0.8"/>
      </g>
     </g>
     <g id="text_4">
      <!-- 6 -->
      <g transform="translate(212.370536 239.796635) scale(0.1 -0.1)">
       <defs>
        <path id="DejaVuSans-19" d="M 2113 2584
Q 1688 2584 1439 2293
Q 1191 2003 1191 1497
Q 1191 994 1439 701
Q 1688 409 2113 409
Q 2538 409 2786 701
Q 3034 994 3034 1497
Q 3034 2003 2786 2293
Q 2538 2584 2113 2584
z
M 3366 4563
L 3366 3988
Q 3128 4100 2886 4159
Q 2644 4219 2406 4219
Q 1781 4219 1451 3797
Q 1122 3375 1075 2522
Q 1259 2794 1537 2939
Q 1816 3084 2150 3084
Q 2853 3084 3261 2657
Q 3669 2231 3669 1497
Q 3669 778 3244 343
Q 2819 -91 2113 -91
Q 1303 -91 875 529
Q 447 1150 447 2328
Q 447 3434 972 4092
Q 1497 4750 2381 4750
Q 2619 4750 2861 4703
Q 3103 4656 3366 4563
z
" transform="scale(0.015625)"/>
       </defs>
       <use xlink:href="#DejaVuSans-19"/>
      </g>
     </g>
    </g>
    <g id="xtick_5">
     <g id="line2d_9">
      <path d="M 273.673102 225.198979
L 273.673102 18.118365
" clip-path="url(#pfb3ec0fb84)" style="fill: none; stroke: #b0b0b0; stroke-opacity: 0.18; stroke-width: 0.6; stroke-linecap: square"/>
     </g>
     <g id="line2d_10">
      <g>
       <use xlink:href="#mf3ce9f3e72" x="273.673102" y="225.198979" style="stroke: #000000; stroke-width: 0.8"/>
      </g>
     </g>
     <g id="text_5">
      <!-- 8 -->
      <g transform="translate(270.491852 239.796635) scale(0.1 -0.1)">
       <defs>
        <path id="DejaVuSans-1b" d="M 2034 2216
Q 1584 2216 1326 1975
Q 1069 1734 1069 1313
Q 1069 891 1326 650
Q 1584 409 2034 409
Q 2484 409 2743 651
Q 3003 894 3003 1313
Q 3003 1734 2745 1975
Q 2488 2216 2034 2216
z
M 1403 2484
Q 997 2584 770 2862
Q 544 3141 544 3541
Q 544 4100 942 4425
Q 1341 4750 2034 4750
Q 2731 4750 3128 4425
Q 3525 4100 3525 3541
Q 3525 3141 3298 2862
Q 3072 2584 2669 2484
Q 3125 2378 3379 2068
Q 3634 1759 3634 1313
Q 3634 634 3220 271
Q 2806 -91 2034 -91
Q 1263 -91 848 271
Q 434 634 434 1313
Q 434 1759 690 2068
Q 947 2378 1403 2484
z
M 1172 3481
Q 1172 3119 1398 2916
Q 1625 2713 2034 2713
Q 2441 2713 2670 2916
Q 2900 3119 2900 3481
Q 2900 3844 2670 4047
Q 2441 4250 2034 4250
Q 1625 4250 1398 4047
Q 1172 3844 1172 3481
z
" transform="scale(0.015625)"/>
       </defs>
       <use xlink:href="#DejaVuSans-1b"/>
      </g>
     </g>
    </g>
    <g id="text_6">
     <!-- radius -->
     <g transform="translate(141.974219 253.797416) scale(0.1 -0.1)">
      <defs>
       <path id="DejaVuSans-55" d="M 2631 2963
Q 2534 3019 2420 3045
Q 2306 3072 2169 3072
Q 1681 3072 1420 2755
Q 1159 2438 1159 1844
L 1159 0
L 581 0
L 581 3500
L 1159 3500
L 1159 2956
Q 1341 3275 1631 3429
Q 1922 3584 2338 3584
Q 2397 3584 2469 3576
Q 2541 3569 2628 3553
L 2631 2963
z
" transform="scale(0.015625)"/>
       <path id="DejaVuSans-44" d="M 2194 1759
Q 1497 1759 1228 1600
Q 959 1441 959 1056
Q 959 750 1161 570
Q 1363 391 1709 391
Q 2188 391 2477 730
Q 2766 1069 2766 1631
L 2766 1759
L 2194 1759
z
M 3341 1997
L 3341 0
L 2766 0
L 2766 531
Q 2569 213 2275 61
Q 1981 -91 1556 -91
Q 1019 -91 701 211
Q 384 513 384 1019
Q 384 1609 779 1909
Q 1175 2209 1959 2209
L 2766 2209
L 2766 2266
Q 2766 2663 2505 2880
Q 2244 3097 1772 3097
Q 1472 3097 1187 3025
Q 903 2953 641 2809
L 641 3341
Q 956 3463 1253 3523
Q 1550 3584 1831 3584
Q 2591 3584 2966 3190
Q 3341 2797 3341 1997
z
" transform="scale(0.015625)"/>
       <path id="DejaVuSans-47" d="M 2906 2969
L 2906 4863
L 3481 4863
L 3481 0
L 2906 0
L 2906 525
Q 2725 213 2448 61
Q 2172 -91 1784 -91
Q 1150 -91 751 415
Q 353 922 353 1747
Q 353 2572 751 3078
Q 1150 3584 1784 3584
Q 2172 3584 2448 3432
Q 2725 3281 2906 2969
z
M 947 1747
Q 947 1113 1208 752
Q 1469 391 1925 391
Q 2381 391 2643 752
Q 2906 1113 2906 1747
Q 2906 2381 2643 2742
Q 2381 3103 1925 3103
Q 1469 3103 1208 2742
Q 947 2381 947 1747
z
" transform="scale(0.015625)"/>
       <path id="DejaVuSans-4c" d="M 603 3500
L 1178 3500
L 1178 0
L 603 0
L 603 3500
z
M 603 4863
L 1178 4863
L 1178 4134
L 603 4134
L 603 4863
z
" transform="scale(0.015625)"/>
       <path id="DejaVuSans-58" d="M 544 1381
L 544 3500
L 1119 3500
L 1119 1403
Q 1119 906 1312 657
Q 1506 409 1894 409
Q 2359 409 2629 706
Q 2900 1003 2900 1516
L 2900 3500
L 3475 3500
L 3475 0
L 2900 0
L 2900 538
Q 2691 219 2414 64
Q 2138 -91 1772 -91
Q 1169 -91 856 284
Q 544 659 544 1381
z
M 1991 3584
L 1991 3584
z
" transform="scale(0.015625)"/>
       <path id="DejaVuSans-56" d="M 2834 3397
L 2834 2853
Q 2591 2978 2328 3040
Q 2066 3103 1784 3103
Q 1356 3103 1142 2972
Q 928 2841 928 2578
Q 928 2378 1081 2264
Q 1234 2150 1697 2047
L 1894 2003
Q 2506 1872 2764 1633
Q 3022 1394 3022 966
Q 3022 478 2636 193
Q 2250 -91 1575 -91
Q 1294 -91 989 -36
Q 684 19 347 128
L 347 722
Q 666 556 975 473
Q 1284 391 1588 391
Q 1994 391 2212 530
Q 2431 669 2431 922
Q 2431 1156 2273 1281
Q 2116 1406 1581 1522
L 1381 1569
Q 847 1681 609 1914
Q 372 2147 372 2553
Q 372 3047 722 3315
Q 1072 3584 1716 3584
Q 2034 3584 2315 3537
Q 2597 3491 2834 3397
z
" transform="scale(0.015625)"/>
      </defs>
      <use xlink:href="#DejaVuSans-55"/>
      <use xlink:href="#DejaVuSans-44" transform="translate(41.109375 0)"/>
      <use xlink:href="#DejaVuSans-47" transform="translate(102.390625 0)"/>
      <use xlink:href="#DejaVuSans-4c" transform="translate(165.875 0)"/>
      <use xlink:href="#DejaVuSans-58" transform="translate(193.65625 0)"/>
      <use xlink:href="#DejaVuSans-56" transform="translate(257.03125 0)"/>
     </g>
    </g>
   </g>
   <g id="matplotlib.axis_2">
    <g id="ytick_1">
     <g id="line2d_11">
      <path d="M 30.36274 215.786224
L 284.498198 215.786224
" clip-path="url(#pfb3ec0fb84)" style="fill: none; stroke: #b0b0b0; stroke-opacity: 0.18; stroke-width: 0.6; stroke-linecap: square"/>
     </g>
     <g id="line2d_12">
      <defs>
       <path id="m92cf0501d5" d="M 0 0
L -3.5 0
" style="stroke: #000000; stroke-width: 0.8"/>
      </defs>
      <g>
       <use xlink:href="#m92cf0501d5" x="30.36274" y="215.786224" style="stroke: #000000; stroke-width: 0.8"/>
      </g>
     </g>
     <g id="text_7">
      <!-- 0 -->
      <g transform="translate(17.00024 219.585052) scale(0.1 -0.1)">
       <use xlink:href="#DejaVuSans-13"/>
      </g>
     </g>
    </g>
    <g id="ytick_2">
     <g id="line2d_13">
      <path d="M 30.36274 191.517531
L 284.498198 191.517531
" clip-path="url(#pfb3ec0fb84)" style="fill: none; stroke: #b0b0b0; stroke-opacity: 0.18; stroke-width: 0.6; stroke-linecap: square"/>
     </g>
     <g id="line2d_14">
      <g>
       <use xlink:href="#m92cf0501d5" x="30.36274" y="191.517531" style="stroke: #000000; stroke-width: 0.8"/>
      </g>
     </g>
     <g id="text_8">
      <!-- 1 -->
      <g transform="translate(17.00024 195.316359) scale(0.1 -0.1)">
       <defs>
        <path id="DejaVuSans-14" d="M 794 531
L 1825 531
L 1825 4091
L 703 3866
L 703 4441
L 1819 4666
L 2450 4666
L 2450 531
L 3481 531
L 3481 0
L 794 0
L 794 531
z
" transform="scale(0.015625)"/>
       </defs>
       <use xlink:href="#DejaVuSans-14"/>
      </g>
     </g>
    </g>
    <g id="ytick_3">
     <g id="line2d_15">
      <path d="M 30.36274 167.248838
L 284.498198 167.248838
" clip-path="url(#pfb3ec0fb84)" style="fill: none; stroke: #b0b0b0; stroke-opacity: 0.18; stroke-width: 0.6; stroke-linecap: square"/>
     </g>
     <g id="line2d_16">
      <g>
       <use xlink:href="#m92cf0501d5" x="30.36274" y="167.248838" style="stroke: #000000; stroke-width: 0.8"/>
      </g>
     </g>
     <g id="text_9">
      <!-- 2 -->
      <g transform="translate(17.00024 171.047666) scale(0.1 -0.1)">
       <use xlink:href="#DejaVuSans-15"/>
      </g>
     </g>
    </g>
    <g id="ytick_4">
     <g id="line2d_17">
      <path d="M 30.36274 142.980145
L 284.498198 142.980145
" clip-path="url(#pfb3ec0fb84)" style="fill: none; stroke: #b0b0b0; stroke-opacity: 0.18; stroke-width: 0.6; stroke-linecap: square"/>
     </g>
     <g id="line2d_18">
      <g>
       <use xlink:href="#m92cf0501d5" x="30.36274" y="142.980145" style="stroke: #000000; stroke-width: 0.8"/>
      </g>
     </g>
     <g id="text_10">
      <!-- 3 -->
      <g transform="translate(17.00024 146.778973) scale(0.1 -0.1)">
       <defs>
        <path id="DejaVuSans-16" d="M 2597 2516
Q 3050 2419 3304 2112
Q 3559 1806 3559 1356
Q 3559 666 3084 287
Q 2609 -91 1734 -91
Q 1441 -91 1130 -33
Q 819 25 488 141
L 488 750
Q 750 597 1062 519
Q 1375 441 1716 441
Q 2309 441 2620 675
Q 2931 909 2931 1356
Q 2931 1769 2642 2001
Q 2353 2234 1838 2234
L 1294 2234
L 1294 2753
L 1863 2753
Q 2328 2753 2575 2939
Q 2822 3125 2822 3475
Q 2822 3834 2567 4026
Q 2313 4219 1838 4219
Q 1578 4219 1281 4162
Q 984 4106 628 3988
L 628 4550
Q 988 4650 1302 4700
Q 1616 4750 1894 4750
Q 2613 4750 3031 4423
Q 3450 4097 3450 3541
Q 3450 3153 3228 2886
Q 3006 2619 2597 2516
z
" transform="scale(0.015625)"/>
       </defs>
       <use xlink:href="#DejaVuSans-16"/>
      </g>
     </g>
    </g>
    <g id="ytick_5">
     <g id="line2d_19">
      <path d="M 30.36274 118.711452
L 284.498198 118.711452
" clip-path="url(#pfb3ec0fb84)" style="fill: none; stroke: #b0b0b0; stroke-opacity: 0.18; stroke-width: 0.6; stroke-linecap: square"/>
     </g>
     <g id="line2d_20">
      <g>
       <use xlink:href="#m92cf0501d5" x="30.36274" y="118.711452" style="stroke: #000000; stroke-width: 0.8"/>
      </g>
     </g>
     <g id="text_11">
      <!-- 4 -->
      <g transform="translate(17.00024 122.51028) scale(0.1 -0.1)">
       <use xlink:href="#DejaVuSans-17"/>
      </g>
     </g>
    </g>
    <g id="ytick_6">
     <g id="line2d_21">
      <path d="M 30.36274 94.442759
L 284.498198 94.442759
" clip-path="url(#pfb3ec0fb84)" style="fill: none; stroke: #b0b0b0; stroke-opacity: 0.18; stroke-width: 0.6; stroke-linecap: square"/>
     </g>
     <g id="line2d_22">
      <g>
       <use xlink:href="#m92cf0501d5" x="30.36274" y="94.442759" style="stroke: #000000; stroke-width: 0.8"/>
      </g>
     </g>
     <g id="text_12">
      <!-- 5 -->
      <g transform="translate(17.00024 98.241587) scale(0.1 -0.1)">
       <defs>
        <path id="DejaVuSans-18" d="M 691 4666
L 3169 4666
L 3169 4134
L 1269 4134
L 1269 2991
Q 1406 3038 1543 3061
Q 1681 3084 1819 3084
Q 2600 3084 3056 2656
Q 3513 2228 3513 1497
Q 3513 744 3044 326
Q 2575 -91 1722 -91
Q 1428 -91 1123 -41
Q 819 9 494 109
L 494 744
Q 775 591 1075 516
Q 1375 441 1709 441
Q 2250 441 2565 725
Q 2881 1009 2881 1497
Q 2881 1984 2565 2268
Q 2250 2553 1709 2553
Q 1456 2553 1204 2497
Q 953 2441 691 2322
L 691 4666
z
" transform="scale(0.015625)"/>
       </defs>
       <use xlink:href="#DejaVuSans-18"/>
      </g>
     </g>
    </g>
    <g id="ytick_7">
     <g id="line2d_23">
      <path d="M 30.36274 70.174066
L 284.498198 70.174066
" clip-path="url(#pfb3ec0fb84)" style="fill: none; stroke: #b0b0b0; stroke-opacity: 0.18; stroke-width: 0.6; stroke-linecap: square"/>
     </g>
     <g id="line2d_24">
      <g>
       <use xlink:href="#m92cf0501d5" x="30.36274" y="70.174066" style="stroke: #000000; stroke-width: 0.8"/>
      </g>
     </g>
     <g id="text_13">
      <!-- 6 -->
      <g transform="translate(17.00024 73.972894) scale(0.1 -0.1)">
       <use xlink:href="#DejaVuSans-19"/>
      </g>
     </g>
    </g>
    <g id="ytick_8">
     <g id="line2d_25">
      <path d="M 30.36274 45.905373
L 284.498198 45.905373
" clip-path="url(#pfb3ec0fb84)" style="fill: none; stroke: #b0b0b0; stroke-opacity: 0.18; stroke-width: 0.6; stroke-linecap: square"/>
     </g>
     <g id="line2d_26">
      <g>
       <use xlink:href="#m92cf0501d5" x="30.36274" y="45.905373" style="stroke: #000000; stroke-width: 0.8"/>
      </g>
     </g>
     <g id="text_14">
      <!-- 7 -->
      <g transform="translate(17.00024 49.704201) scale(0.1 -0.1)">
       <defs>
        <path id="DejaVuSans-1a" d="M 525 4666
L 3525 4666
L 3525 4397
L 1831 0
L 1172 0
L 2766 4134
L 525 4134
L 525 4666
z
" transform="scale(0.015625)"/>
       </defs>
       <use xlink:href="#DejaVuSans-1a"/>
      </g>
     </g>
    </g>
    <g id="ytick_9">
     <g id="line2d_27">
      <path d="M 30.36274 21.63668
L 284.498198 21.63668
" clip-path="url(#pfb3ec0fb84)" style="fill: none; stroke: #b0b0b0; stroke-opacity: 0.18; stroke-width: 0.6; stroke-linecap: square"/>
     </g>
     <g id="line2d_28">
      <g>
       <use xlink:href="#m92cf0501d5" x="30.36274" y="21.63668" style="stroke: #000000; stroke-width: 0.8"/>
      </g>
     </g>
     <g id="text_15">
      <!-- 8 -->
      <g transform="translate(17.00024 25.435508) scale(0.1 -0.1)">
       <use xlink:href="#DejaVuSans-1b"/>
      </g>
     </g>
    </g>
    <g id="text_16">
     <!-- g(r) -->
     <g transform="translate(10.597896 130.789922) rotate(-90) scale(0.1 -0.1)">
      <defs>
       <path id="DejaVuSans-4a" d="M 2906 1791
Q 2906 2416 2648 2759
Q 2391 3103 1925 3103
Q 1463 3103 1205 2759
Q 947 2416 947 1791
Q 947 1169 1205 825
Q 1463 481 1925 481
Q 2391 481 2648 825
Q 2906 1169 2906 1791
z
M 3481 434
Q 3481 -459 3084 -895
Q 2688 -1331 1869 -1331
Q 1566 -1331 1297 -1286
Q 1028 -1241 775 -1147
L 775 -588
Q 1028 -725 1275 -790
Q 1522 -856 1778 -856
Q 2344 -856 2625 -561
Q 2906 -266 2906 331
L 2906 616
Q 2728 306 2450 153
Q 2172 0 1784 0
Q 1141 0 747 490
Q 353 981 353 1791
Q 353 2603 747 3093
Q 1141 3584 1784 3584
Q 2172 3584 2450 3431
Q 2728 3278 2906 2969
L 2906 3500
L 3481 3500
L 3481 434
z
" transform="scale(0.015625)"/>
       <path id="DejaVuSans-b" d="M 1984 4856
Q 1566 4138 1362 3434
Q 1159 2731 1159 2009
Q 1159 1288 1364 580
Q 1569 -128 1984 -844
L 1484 -844
Q 1016 -109 783 600
Q 550 1309 550 2009
Q 550 2706 781 3412
Q 1013 4119 1484 4856
L 1984 4856
z
" transform="scale(0.015625)"/>
       <path id="DejaVuSans-c" d="M 513 4856
L 1013 4856
Q 1481 4119 1714 3412
Q 1947 2706 1947 2009
Q 1947 1309 1714 600
Q 1481 -109 1013 -844
L 513 -844
Q 928 -128 1133 580
Q 1338 1288 1338 2009
Q 1338 2731 1133 3434
Q 928 4138 513 4856
z
" transform="scale(0.015625)"/>
      </defs>
      <use xlink:href="#DejaVuSans-4a"/>
      <use xlink:href="#DejaVuSans-b" transform="translate(63.484375 0)"/>
      <use xlink:href="#DejaVuSans-55" transform="translate(102.5 0)"/>
      <use xlink:href="#DejaVuSans-c" transform="translate(143.609375 0)"/>
     </g>
    </g>
   </g>
   <g id="line2d_29">
    <path d="M 41.914352 215.786224
L 142.173623 215.759781
L 143.626656 215.606338
L 145.079689 215.261555
L 146.532722 214.036641
L 147.985755 211.246759
L 149.438788 203.819672
L 150.891821 193.020671
L 152.344854 168.818669
L 155.250919 101.662547
L 156.703952 60.237577
L 158.156985 36.306648
L 159.610018 27.53112
L 161.063051 47.96196
L 162.516084 78.483792
L 165.42215 154.109363
L 166.875183 181.047641
L 168.328216 198.553091
L 169.781249 207.811743
L 171.234281 212.67688
L 172.687314 214.850528
L 174.140347 215.420082
L 175.59338 215.711584
L 178.499446 215.786224
L 193.029775 215.692653
L 194.482808 215.545235
L 195.935841 215.009205
L 197.388874 214.294122
L 198.841907 212.487881
L 200.29494 208.190957
L 201.747973 202.668613
L 206.107072 175.283683
L 207.560104 169.431346
L 207.560104 169.431346
" clip-path="url(#pfb3ec0fb84)" style="fill: none; stroke: #2f6f9f; stroke-width: 1.4; stroke-linecap: square"/>
   </g>
   <g id="line2d_30">
    <path d="M 41.914352 215.786224
L 142.173623 215.756475
L 143.626656 215.63846
L 145.079689 215.308401
L 146.532722 214.240152
L 147.985755 211.125589
L 149.438788 204.561829
L 150.891821 191.278524
L 152.344854 170.144542
L 153.797886 138.326693
L 156.703952 61.29855
L 158.156985 36.013462
L 159.610018 29.735282
L 161.063051 45.144716
L 162.516084 77.311363
L 163.969117 117.510778
L 165.42215 153.652902
L 166.875183 181.382651
L 168.328216 198.41963
L 169.781249 208.680129
L 171.234281 213.011732
L 172.687314 214.81544
L 174.140347 215.475384
L 175.59338 215.719048
L 179.952479 215.786224
L 193.029775 215.737976
L 194.482808 215.618392
L 195.935841 215.268211
L 197.388874 214.429516
L 198.841907 212.359039
L 200.29494 208.554475
L 201.747973 202.305106
L 203.201006 193.974897
L 204.654039 183.607912
L 206.107072 175.315907
L 207.560104 169.358277
L 209.013137 169.924163
L 210.46617 175.318265
L 211.919203 184.175425
L 213.372236 193.901499
L 214.825269 202.266913
L 216.278302 208.416986
L 217.731335 212.329644
L 219.184368 214.340319
L 220.637401 215.20735
L 222.090434 215.616267
L 224.996499 215.766269
L 229.355598 215.748142
L 230.808631 215.629661
L 232.261664 215.254405
L 233.714697 214.16656
L 235.16773 211.452152
L 236.620763 205.730244
L 238.073796 194.682161
L 239.526829 177.627842
L 240.979862 153.937628
L 242.432895 127.963376
L 243.885927 104.916665
L 245.33896 92.412121
L 246.791993 94.358676
L 248.245026 109.524692
L 252.604125 182.31482
L 254.057158 198.072344
L 255.510191 207.406357
L 256.963224 212.370379
L 258.416257 214.485393
L 259.86929 215.398535
L 261.322322 215.656144
L 262.775355 215.681186
L 264.228388 215.530767
L 265.681421 215.039105
L 267.134454 213.905727
L 268.587487 211.393887
L 270.04052 206.870745
L 271.493553 200.000341
L 272.946586 190.771348
L 272.946586 190.771348
" clip-path="url(#pfb3ec0fb84)" style="fill: none; stroke: #d88c3d; stroke-width: 1.4; stroke-linecap: square"/>
   </g>
   <g id="line2d_31">
    <path d="M 30.36274 191.517531
L 284.498198 191.517531
" clip-path="url(#pfb3ec0fb84)" style="fill: none; stroke-dasharray: 2.96,1.28; stroke-dashoffset: 0; stroke: #333333; stroke-width: 0.8"/>
   </g>
   <g id="patch_3">
    <path d="M 30.36274 225.198979
L 30.36274 18.118365
" style="fill: none; stroke: #000000; stroke-width: 0.8; stroke-linejoin: miter; stroke-linecap: square"/>
   </g>
   <g id="patch_4">
    <path d="M 30.36274 225.198979
L 284.498198 225.198979
" style="fill: none; stroke: #000000; stroke-width: 0.8; stroke-linejoin: miter; stroke-linecap: square"/>
   </g>
   <g id="text_17">
    <!-- RDF is an estimator -->
    <g transform="translate(98.350156 12.118365) scale(0.12 -0.12)">
     <defs>
      <path id="DejaVuSans-35" d="M 2841 2188
Q 3044 2119 3236 1894
Q 3428 1669 3622 1275
L 4263 0
L 3584 0
L 2988 1197
Q 2756 1666 2539 1819
Q 2322 1972 1947 1972
L 1259 1972
L 1259 0
L 628 0
L 628 4666
L 2053 4666
Q 2853 4666 3247 4331
Q 3641 3997 3641 3322
Q 3641 2881 3436 2590
Q 3231 2300 2841 2188
z
M 1259 4147
L 1259 2491
L 2053 2491
Q 2509 2491 2742 2702
Q 2975 2913 2975 3322
Q 2975 3731 2742 3939
Q 2509 4147 2053 4147
L 1259 4147
z
" transform="scale(0.015625)"/>
      <path id="DejaVuSans-27" d="M 1259 4147
L 1259 519
L 2022 519
Q 2988 519 3436 956
Q 3884 1394 3884 2338
Q 3884 3275 3436 3711
Q 2988 4147 2022 4147
L 1259 4147
z
M 628 4666
L 1925 4666
Q 3281 4666 3915 4102
Q 4550 3538 4550 2338
Q 4550 1131 3912 565
Q 3275 0 1925 0
L 628 0
L 628 4666
z
" transform="scale(0.015625)"/>
      <path id="DejaVuSans-29" d="M 628 4666
L 3309 4666
L 3309 4134
L 1259 4134
L 1259 2759
L 3109 2759
L 3109 2228
L 1259 2228
L 1259 0
L 628 0
L 628 4666
z
" transform="scale(0.015625)"/>
      <path id="DejaVuSans-3" transform="scale(0.015625)"/>
      <path id="DejaVuSans-51" d="M 3513 2113
L 3513 0
L 2938 0
L 2938 2094
Q 2938 2591 2744 2837
Q 2550 3084 2163 3084
Q 1697 3084 1428 2787
Q 1159 2491 1159 1978
L 1159 0
L 581 0
L 581 3500
L 1159 3500
L 1159 2956
Q 1366 3272 1645 3428
Q 1925 3584 2291 3584
Q 2894 3584 3203 3211
Q 3513 2838 3513 2113
z
" transform="scale(0.015625)"/>
      <path id="DejaVuSans-48" d="M 3597 1894
L 3597 1613
L 953 1613
Q 991 1019 1311 708
Q 1631 397 2203 397
Q 2534 397 2845 478
Q 3156 559 3463 722
L 3463 178
Q 3153 47 2828 -22
Q 2503 -91 2169 -91
Q 1331 -91 842 396
Q 353 884 353 1716
Q 353 2575 817 3079
Q 1281 3584 2069 3584
Q 2775 3584 3186 3129
Q 3597 2675 3597 1894
z
M 3022 2063
Q 3016 2534 2758 2815
Q 2500 3097 2075 3097
Q 1594 3097 1305 2825
Q 1016 2553 972 2059
L 3022 2063
z
" transform="scale(0.015625)"/>
      <path id="DejaVuSans-57" d="M 1172 4494
L 1172 3500
L 2356 3500
L 2356 3053
L 1172 3053
L 1172 1153
Q 1172 725 1289 603
Q 1406 481 1766 481
L 2356 481
L 2356 0
L 1766 0
Q 1100 0 847 248
Q 594 497 594 1153
L 594 3053
L 172 3053
L 172 3500
L 594 3500
L 594 4494
L 1172 4494
z
" transform="scale(0.015625)"/>
      <path id="DejaVuSans-50" d="M 3328 2828
Q 3544 3216 3844 3400
Q 4144 3584 4550 3584
Q 5097 3584 5394 3201
Q 5691 2819 5691 2113
L 5691 0
L 5113 0
L 5113 2094
Q 5113 2597 4934 2840
Q 4756 3084 4391 3084
Q 3944 3084 3684 2787
Q 3425 2491 3425 1978
L 3425 0
L 2847 0
L 2847 2094
Q 2847 2600 2669 2842
Q 2491 3084 2119 3084
Q 1678 3084 1418 2786
Q 1159 2488 1159 1978
L 1159 0
L 581 0
L 581 3500
L 1159 3500
L 1159 2956
Q 1356 3278 1631 3431
Q 1906 3584 2284 3584
Q 2666 3584 2933 3390
Q 3200 3197 3328 2828
z
" transform="scale(0.015625)"/>
      <path id="DejaVuSans-52" d="M 1959 3097
Q 1497 3097 1228 2736
Q 959 2375 959 1747
Q 959 1119 1226 758
Q 1494 397 1959 397
Q 2419 397 2687 759
Q 2956 1122 2956 1747
Q 2956 2369 2687 2733
Q 2419 3097 1959 3097
z
M 1959 3584
Q 2709 3584 3137 3096
Q 3566 2609 3566 1747
Q 3566 888 3137 398
Q 2709 -91 1959 -91
Q 1206 -91 779 398
Q 353 888 353 1747
Q 353 2609 779 3096
Q 1206 3584 1959 3584
z
" transform="scale(0.015625)"/>
     </defs>
     <use xlink:href="#DejaVuSans-35"/>
     <use xlink:href="#DejaVuSans-27" transform="translate(69.484375 0)"/>
     <use xlink:href="#DejaVuSans-29" transform="translate(146.484375 0)"/>
     <use xlink:href="#DejaVuSans-3" transform="translate(204 0)"/>
     <use xlink:href="#DejaVuSans-4c" transform="translate(235.78125 0)"/>
     <use xlink:href="#DejaVuSans-56" transform="translate(263.5625 0)"/>
     <use xlink:href="#DejaVuSans-3" transform="translate(315.65625 0)"/>
     <use xlink:href="#DejaVuSans-44" transform="translate(347.4375 0)"/>
     <use xlink:href="#DejaVuSans-51" transform="translate(408.71875 0)"/>
     <use xlink:href="#DejaVuSans-3" transform="translate(472.09375 0)"/>
     <use xlink:href="#DejaVuSans-48" transform="translate(503.875 0)"/>
     <use xlink:href="#DejaVuSans-56" transform="translate(565.40625 0)"/>
     <use xlink:href="#DejaVuSans-57" transform="translate(617.5 0)"/>
     <use xlink:href="#DejaVuSans-4c" transform="translate(656.703125 0)"/>
     <use xlink:href="#DejaVuSans-50" transform="translate(684.484375 0)"/>
     <use xlink:href="#DejaVuSans-44" transform="translate(781.890625 0)"/>
     <use xlink:href="#DejaVuSans-57" transform="translate(843.171875 0)"/>
     <use xlink:href="#DejaVuSans-52" transform="translate(882.375 0)"/>
     <use xlink:href="#DejaVuSans-55" transform="translate(943.5625 0)"/>
    </g>
   </g>
   <g id="legend_1">
    <g id="line2d_32">
     <path d="M 180.113198 28.597115
L 188.113198 28.597115
L 196.113198 28.597115
" style="fill: none; stroke: #2f6f9f; stroke-width: 1.4; stroke-linecap: square"/>
    </g>
    <g id="text_18">
     <!-- small_cell (N=32) -->
     <g transform="translate(202.513198 31.397115) scale(0.08 -0.08)">
      <defs>
       <path id="DejaVuSans-4f" d="M 603 4863
L 1178 4863
L 1178 0
L 603 0
L 603 4863
z
" transform="scale(0.015625)"/>
       <path id="DejaVuSans-42" d="M 3263 -1063
L 3263 -1509
L -63 -1509
L -63 -1063
L 3263 -1063
z
" transform="scale(0.015625)"/>
       <path id="DejaVuSans-46" d="M 3122 3366
L 3122 2828
Q 2878 2963 2633 3030
Q 2388 3097 2138 3097
Q 1578 3097 1268 2742
Q 959 2388 959 1747
Q 959 1106 1268 751
Q 1578 397 2138 397
Q 2388 397 2633 464
Q 2878 531 3122 666
L 3122 134
Q 2881 22 2623 -34
Q 2366 -91 2075 -91
Q 1284 -91 818 406
Q 353 903 353 1747
Q 353 2603 823 3093
Q 1294 3584 2113 3584
Q 2378 3584 2631 3529
Q 2884 3475 3122 3366
z
" transform="scale(0.015625)"/>
       <path id="DejaVuSans-31" d="M 628 4666
L 1478 4666
L 3547 763
L 3547 4666
L 4159 4666
L 4159 0
L 3309 0
L 1241 3903
L 1241 0
L 628 0
L 628 4666
z
" transform="scale(0.015625)"/>
       <path id="DejaVuSans-20" d="M 678 2906
L 4684 2906
L 4684 2381
L 678 2381
L 678 2906
z
M 678 1631
L 4684 1631
L 4684 1100
L 678 1100
L 678 1631
z
" transform="scale(0.015625)"/>
      </defs>
      <use xlink:href="#DejaVuSans-56"/>
      <use xlink:href="#DejaVuSans-50" transform="translate(52.09375 0)"/>
      <use xlink:href="#DejaVuSans-44" transform="translate(149.5 0)"/>
      <use xlink:href="#DejaVuSans-4f" transform="translate(210.78125 0)"/>
      <use xlink:href="#DejaVuSans-4f" transform="translate(238.5625 0)"/>
      <use xlink:href="#DejaVuSans-42" transform="translate(266.34375 0)"/>
      <use xlink:href="#DejaVuSans-46" transform="translate(316.34375 0)"/>
      <use xlink:href="#DejaVuSans-48" transform="translate(371.328125 0)"/>
      <use xlink:href="#DejaVuSans-4f" transform="translate(432.859375 0)"/>
      <use xlink:href="#DejaVuSans-4f" transform="translate(460.640625 0)"/>
      <use xlink:href="#DejaVuSans-3" transform="translate(488.421875 0)"/>
      <use xlink:href="#DejaVuSans-b" transform="translate(520.203125 0)"/>
      <use xlink:href="#DejaVuSans-31" transform="translate(559.21875 0)"/>
      <use xlink:href="#DejaVuSans-20" transform="translate(634.03125 0)"/>
      <use xlink:href="#DejaVuSans-16" transform="translate(717.828125 0)"/>
      <use xlink:href="#DejaVuSans-15" transform="translate(781.453125 0)"/>
      <use xlink:href="#DejaVuSans-c" transform="translate(845.078125 0)"/>
     </g>
    </g>
    <g id="line2d_33">
     <path d="M 180.113198 40.59774
L 188.113198 40.59774
L 196.113198 40.59774
" style="fill: none; stroke: #d88c3d; stroke-width: 1.4; stroke-linecap: square"/>
    </g>
    <g id="text_19">
     <!-- large_cell (N=256) -->
     <g transform="translate(202.513198 43.39774) scale(0.08 -0.08)">
      <use xlink:href="#DejaVuSans-4f"/>
      <use xlink:href="#DejaVuSans-44" transform="translate(27.78125 0)"/>
      <use xlink:href="#DejaVuSans-55" transform="translate(89.0625 0)"/>
      <use xlink:href="#DejaVuSans-4a" transform="translate(128.421875 0)"/>
      <use xlink:href="#DejaVuSans-48" transform="translate(191.90625 0)"/>
      <use xlink:href="#DejaVuSans-42" transform="translate(253.4375 0)"/>
      <use xlink:href="#DejaVuSans-46" transform="translate(303.4375 0)"/>
      <use xlink:href="#DejaVuSans-48" transform="translate(358.421875 0)"/>
      <use xlink:href="#DejaVuSans-4f" transform="translate(419.953125 0)"/>
      <use xlink:href="#DejaVuSans-4f" transform="translate(447.734375 0)"/>
      <use xlink:href="#DejaVuSans-3" transform="translate(475.515625 0)"/>
      <use xlink:href="#DejaVuSans-b" transform="translate(507.296875 0)"/>
      <use xlink:href="#DejaVuSans-31" transform="translate(546.3125 0)"/>
      <use xlink:href="#DejaVuSans-20" transform="translate(621.125 0)"/>
      <use xlink:href="#DejaVuSans-15" transform="translate(704.921875 0)"/>
      <use xlink:href="#DejaVuSans-18" transform="translate(768.546875 0)"/>
      <use xlink:href="#DejaVuSans-19" transform="translate(832.171875 0)"/>
      <use xlink:href="#DejaVuSans-c" transform="translate(895.796875 0)"/>
     </g>
    </g>
   </g>
  </g>
  <g id="axes_2">
   <g id="patch_5">
    <path d="M 324.224459 225.198979
L 578.359916 225.198979
L 578.359916 18.118365
L 324.224459 18.118365
z
" style="fill: #ffffff"/>
   </g>
   <g id="patch_6">
    <path d="M 335.77607 225.198979
L 438.457063 225.198979
L 438.457063 27.986219
L 335.77607 27.986219
z
" clip-path="url(#pcdffa45115)" style="fill: #6a8f4e; stroke: #2d4721; stroke-width: 0.6; stroke-linejoin: miter"/>
   </g>
   <g id="patch_7">
    <path d="M 464.127312 225.198979
L 566.808305 225.198979
L 566.808305 27.989072
L 464.127312 27.989072
z
" clip-path="url(#pcdffa45115)" style="fill: #8c6bb1; stroke: #2d4721; stroke-width: 0.6; stroke-linejoin: miter"/>
   </g>
   <g id="matplotlib.axis_3">
    <g id="xtick_6">
     <g id="line2d_34">
      <path d="M 387.116567 225.198979
L 387.116567 18.118365
" clip-path="url(#pcdffa45115)" style="fill: none; stroke: #b0b0b0; stroke-opacity: 0.18; stroke-width: 0.6; stroke-linecap: square"/>
     </g>
     <g id="line2d_35">
      <g>
       <use xlink:href="#mf3ce9f3e72" x="387.116567" y="225.198979" style="stroke: #000000; stroke-width: 0.8"/>
      </g>
     </g>
     <g id="text_20">
      <!-- small_cell -->
      <g transform="translate(367.579692 239.07851) scale(0.08 -0.08)">
       <use xlink:href="#DejaVuSans-56"/>
       <use xlink:href="#DejaVuSans-50" transform="translate(52.09375 0)"/>
       <use xlink:href="#DejaVuSans-44" transform="translate(149.5 0)"/>
       <use xlink:href="#DejaVuSans-4f" transform="translate(210.78125 0)"/>
       <use xlink:href="#DejaVuSans-4f" transform="translate(238.5625 0)"/>
       <use xlink:href="#DejaVuSans-42" transform="translate(266.34375 0)"/>
       <use xlink:href="#DejaVuSans-46" transform="translate(316.34375 0)"/>
       <use xlink:href="#DejaVuSans-48" transform="translate(371.328125 0)"/>
       <use xlink:href="#DejaVuSans-4f" transform="translate(432.859375 0)"/>
       <use xlink:href="#DejaVuSans-4f" transform="translate(460.640625 0)"/>
      </g>
      <!-- N=32 -->
      <g transform="translate(375.682192 248.680072) scale(0.08 -0.08)">
       <use xlink:href="#DejaVuSans-31"/>
       <use xlink:href="#DejaVuSans-20" transform="translate(74.8125 0)"/>
       <use xlink:href="#DejaVuSans-16" transform="translate(158.609375 0)"/>
       <use xlink:href="#DejaVuSans-15" transform="translate(222.234375 0)"/>
      </g>
     </g>
    </g>
    <g id="xtick_7">
     <g id="line2d_36">
      <path d="M 515.467808 225.198979
L 515.467808 18.118365
" clip-path="url(#pcdffa45115)" style="fill: none; stroke: #b0b0b0; stroke-opacity: 0.18; stroke-width: 0.6; stroke-linecap: square"/>
     </g>
     <g id="line2d_37">
      <g>
       <use xlink:href="#mf3ce9f3e72" x="515.467808" y="225.198979" style="stroke: #000000; stroke-width: 0.8"/>
      </g>
     </g>
     <g id="text_21">
      <!-- large_cell -->
      <g transform="translate(496.447183 239.07851) scale(0.08 -0.08)">
       <use xlink:href="#DejaVuSans-4f"/>
       <use xlink:href="#DejaVuSans-44" transform="translate(27.78125 0)"/>
       <use xlink:href="#DejaVuSans-55" transform="translate(89.0625 0)"/>
       <use xlink:href="#DejaVuSans-4a" transform="translate(128.421875 0)"/>
       <use xlink:href="#DejaVuSans-48" transform="translate(191.90625 0)"/>
       <use xlink:href="#DejaVuSans-42" transform="translate(253.4375 0)"/>
       <use xlink:href="#DejaVuSans-46" transform="translate(303.4375 0)"/>
       <use xlink:href="#DejaVuSans-48" transform="translate(358.421875 0)"/>
       <use xlink:href="#DejaVuSans-4f" transform="translate(419.953125 0)"/>
       <use xlink:href="#DejaVuSans-4f" transform="translate(447.734375 0)"/>
      </g>
      <!-- N=256 -->
      <g transform="translate(501.488433 248.680072) scale(0.08 -0.08)">
       <use xlink:href="#DejaVuSans-31"/>
       <use xlink:href="#DejaVuSans-20" transform="translate(74.8125 0)"/>
       <use xlink:href="#DejaVuSans-15" transform="translate(158.609375 0)"/>
       <use xlink:href="#DejaVuSans-18" transform="translate(222.234375 0)"/>
       <use xlink:href="#DejaVuSans-19" transform="translate(285.859375 0)"/>
      </g>
     </g>
    </g>
   </g>
   <g id="matplotlib.axis_4">
    <g id="ytick_10">
     <g id="line2d_38">
      <path d="M 324.224459 225.198979
L 578.359916 225.198979
" clip-path="url(#pcdffa45115)" style="fill: none; stroke: #b0b0b0; stroke-opacity: 0.18; stroke-width: 0.6; stroke-linecap: square"/>
     </g>
     <g id="line2d_39">
      <g>
       <use xlink:href="#m92cf0501d5" x="324.224459" y="225.198979" style="stroke: #000000; stroke-width: 0.8"/>
      </g>
     </g>
     <g id="text_22">
      <!-- 0 -->
      <g transform="translate(310.861959 228.997807) scale(0.1 -0.1)">
       <use xlink:href="#DejaVuSans-13"/>
      </g>
     </g>
    </g>
    <g id="ytick_11">
     <g id="line2d_40">
      <path d="M 324.224459 192.327393
L 578.359916 192.327393
" clip-path="url(#pcdffa45115)" style="fill: none; stroke: #b0b0b0; stroke-opacity: 0.18; stroke-width: 0.6; stroke-linecap: square"/>
     </g>
     <g id="line2d_41">
      <g>
       <use xlink:href="#m92cf0501d5" x="324.224459" y="192.327393" style="stroke: #000000; stroke-width: 0.8"/>
      </g>
     </g>
     <g id="text_23">
      <!-- 2 -->
      <g transform="translate(310.861959 196.126221) scale(0.1 -0.1)">
       <use xlink:href="#DejaVuSans-15"/>
      </g>
     </g>
    </g>
    <g id="ytick_12">
     <g id="line2d_42">
      <path d="M 324.224459 159.455808
L 578.359916 159.455808
" clip-path="url(#pcdffa45115)" style="fill: none; stroke: #b0b0b0; stroke-opacity: 0.18; stroke-width: 0.6; stroke-linecap: square"/>
     </g>
     <g id="line2d_43">
      <g>
       <use xlink:href="#m92cf0501d5" x="324.224459" y="159.455808" style="stroke: #000000; stroke-width: 0.8"/>
      </g>
     </g>
     <g id="text_24">
      <!-- 4 -->
      <g transform="translate(310.861959 163.254636) scale(0.1 -0.1)">
       <use xlink:href="#DejaVuSans-17"/>
      </g>
     </g>
    </g>
    <g id="ytick_13">
     <g id="line2d_44">
      <path d="M 324.224459 126.584222
L 578.359916 126.584222
" clip-path="url(#pcdffa45115)" style="fill: none; stroke: #b0b0b0; stroke-opacity: 0.18; stroke-width: 0.6; stroke-linecap: square"/>
     </g>
     <g id="line2d_45">
      <g>
       <use xlink:href="#m92cf0501d5" x="324.224459" y="126.584222" style="stroke: #000000; stroke-width: 0.8"/>
      </g>
     </g>
     <g id="text_25">
      <!-- 6 -->
      <g transform="translate(310.861959 130.38305) scale(0.1 -0.1)">
       <use xlink:href="#DejaVuSans-19"/>
      </g>
     </g>
    </g>
    <g id="ytick_14">
     <g id="line2d_46">
      <path d="M 324.224459 93.712637
L 578.359916 93.712637
" clip-path="url(#pcdffa45115)" style="fill: none; stroke: #b0b0b0; stroke-opacity: 0.18; stroke-width: 0.6; stroke-linecap: square"/>
     </g>
     <g id="line2d_47">
      <g>
       <use xlink:href="#m92cf0501d5" x="324.224459" y="93.712637" style="stroke: #000000; stroke-width: 0.8"/>
      </g>
     </g>
     <g id="text_26">
      <!-- 8 -->
      <g transform="translate(310.861959 97.511465) scale(0.1 -0.1)">
       <use xlink:href="#DejaVuSans-1b"/>
      </g>
     </g>
    </g>
    <g id="ytick_15">
     <g id="line2d_48">
      <path d="M 324.224459 60.841051
L 578.359916 60.841051
" clip-path="url(#pcdffa45115)" style="fill: none; stroke: #b0b0b0; stroke-opacity: 0.18; stroke-width: 0.6; stroke-linecap: square"/>
     </g>
     <g id="line2d_49">
      <g>
       <use xlink:href="#m92cf0501d5" x="324.224459" y="60.841051" style="stroke: #000000; stroke-width: 0.8"/>
      </g>
     </g>
     <g id="text_27">
      <!-- 10 -->
      <g transform="translate(304.499459 64.63988) scale(0.1 -0.1)">
       <use xlink:href="#DejaVuSans-14"/>
       <use xlink:href="#DejaVuSans-13" transform="translate(63.625 0)"/>
      </g>
     </g>
    </g>
    <g id="ytick_16">
     <g id="line2d_50">
      <path d="M 324.224459 27.969466
L 578.359916 27.969466
" clip-path="url(#pcdffa45115)" style="fill: none; stroke: #b0b0b0; stroke-opacity: 0.18; stroke-width: 0.6; stroke-linecap: square"/>
     </g>
     <g id="line2d_51">
      <g>
       <use xlink:href="#m92cf0501d5" x="324.224459" y="27.969466" style="stroke: #000000; stroke-width: 0.8"/>
      </g>
     </g>
     <g id="text_28">
      <!-- 12 -->
      <g transform="translate(304.499459 31.768294) scale(0.1 -0.1)">
       <use xlink:href="#DejaVuSans-14"/>
       <use xlink:href="#DejaVuSans-15" transform="translate(63.625 0)"/>
      </g>
     </g>
    </g>
    <g id="text_29">
     <!-- coordination number -->
     <g transform="translate(298.097115 173.971172) rotate(-90) scale(0.1 -0.1)">
      <defs>
       <path id="DejaVuSans-45" d="M 3116 1747
Q 3116 2381 2855 2742
Q 2594 3103 2138 3103
Q 1681 3103 1420 2742
Q 1159 2381 1159 1747
Q 1159 1113 1420 752
Q 1681 391 2138 391
Q 2594 391 2855 752
Q 3116 1113 3116 1747
z
M 1159 2969
Q 1341 3281 1617 3432
Q 1894 3584 2278 3584
Q 2916 3584 3314 3078
Q 3713 2572 3713 1747
Q 3713 922 3314 415
Q 2916 -91 2278 -91
Q 1894 -91 1617 61
Q 1341 213 1159 525
L 1159 0
L 581 0
L 581 4863
L 1159 4863
L 1159 2969
z
" transform="scale(0.015625)"/>
      </defs>
      <use xlink:href="#DejaVuSans-46"/>
      <use xlink:href="#DejaVuSans-52" transform="translate(54.984375 0)"/>
      <use xlink:href="#DejaVuSans-52" transform="translate(116.171875 0)"/>
      <use xlink:href="#DejaVuSans-55" transform="translate(177.359375 0)"/>
      <use xlink:href="#DejaVuSans-47" transform="translate(216.71875 0)"/>
      <use xlink:href="#DejaVuSans-4c" transform="translate(280.203125 0)"/>
      <use xlink:href="#DejaVuSans-51" transform="translate(307.984375 0)"/>
      <use xlink:href="#DejaVuSans-44" transform="translate(371.359375 0)"/>
      <use xlink:href="#DejaVuSans-57" transform="translate(432.640625 0)"/>
      <use xlink:href="#DejaVuSans-4c" transform="translate(471.84375 0)"/>
      <use xlink:href="#DejaVuSans-52" transform="translate(499.625 0)"/>
      <use xlink:href="#DejaVuSans-51" transform="translate(560.8125 0)"/>
      <use xlink:href="#DejaVuSans-3" transform="translate(624.1875 0)"/>
      <use xlink:href="#DejaVuSans-51" transform="translate(655.96875 0)"/>
      <use xlink:href="#DejaVuSans-58" transform="translate(719.34375 0)"/>
      <use xlink:href="#DejaVuSans-50" transform="translate(782.71875 0)"/>
      <use xlink:href="#DejaVuSans-45" transform="translate(880.125 0)"/>
      <use xlink:href="#DejaVuSans-48" transform="translate(943.609375 0)"/>
      <use xlink:href="#DejaVuSans-55" transform="translate(1005.140625 0)"/>
     </g>
    </g>
   </g>
   <g id="LineCollection_1">
    <path d="M 387.116567 27.99309
L 387.116567 27.979347
" clip-path="url(#pcdffa45115)" style="fill: none; stroke: #000000; stroke-width: 1.5"/>
    <path d="M 515.467808 27.990029
L 515.467808 27.988115
" clip-path="url(#pcdffa45115)" style="fill: none; stroke: #000000; stroke-width: 1.5"/>
   </g>
   <g id="line2d_52">
    <defs>
     <path id="me85b6c52d0" d="M 4 0
L -4 -0
" style="stroke: #000000"/>
    </defs>
    <g clip-path="url(#pcdffa45115)">
     <use xlink:href="#me85b6c52d0" x="387.116567" y="27.99309" style="fill: #1f77b4; stroke: #000000"/>
     <use xlink:href="#me85b6c52d0" x="515.467808" y="27.990029" style="fill: #1f77b4; stroke: #000000"/>
    </g>
   </g>
   <g id="line2d_53">
    <g clip-path="url(#pcdffa45115)">
     <use xlink:href="#me85b6c52d0" x="387.116567" y="27.979347" style="fill: #1f77b4; stroke: #000000"/>
     <use xlink:href="#me85b6c52d0" x="515.467808" y="27.988115" style="fill: #1f77b4; stroke: #000000"/>
    </g>
   </g>
   <g id="patch_8">
    <path d="M 324.224459 225.198979
L 324.224459 18.118365
" style="fill: none; stroke: #000000; stroke-width: 0.8; stroke-linejoin: miter; stroke-linecap: square"/>
   </g>
   <g id="patch_9">
    <path d="M 324.224459 225.198979
L 578.359916 225.198979
" style="fill: none; stroke: #000000; stroke-width: 0.8; stroke-linejoin: miter; stroke-linecap: square"/>
   </g>
   <g id="text_30">
    <!-- Coordination needs an error bar -->
    <g transform="translate(355.244375 12.118365) scale(0.12 -0.12)">
     <defs>
      <path id="DejaVuSans-26" d="M 4122 4306
L 4122 3641
Q 3803 3938 3442 4084
Q 3081 4231 2675 4231
Q 1875 4231 1450 3742
Q 1025 3253 1025 2328
Q 1025 1406 1450 917
Q 1875 428 2675 428
Q 3081 428 3442 575
Q 3803 722 4122 1019
L 4122 359
Q 3791 134 3420 21
Q 3050 -91 2638 -91
Q 1578 -91 968 557
Q 359 1206 359 2328
Q 359 3453 968 4101
Q 1578 4750 2638 4750
Q 3056 4750 3426 4639
Q 3797 4528 4122 4306
z
" transform="scale(0.015625)"/>
     </defs>
     <use xlink:href="#DejaVuSans-26"/>
     <use xlink:href="#DejaVuSans-52" transform="translate(69.828125 0)"/>
     <use xlink:href="#DejaVuSans-52" transform="translate(131.015625 0)"/>
     <use xlink:href="#DejaVuSans-55" transform="translate(192.203125 0)"/>
     <use xlink:href="#DejaVuSans-47" transform="translate(231.5625 0)"/>
     <use xlink:href="#DejaVuSans-4c" transform="translate(295.046875 0)"/>
     <use xlink:href="#DejaVuSans-51" transform="translate(322.828125 0)"/>
     <use xlink:href="#DejaVuSans-44" transform="translate(386.203125 0)"/>
     <use xlink:href="#DejaVuSans-57" transform="translate(447.484375 0)"/>
     <use xlink:href="#DejaVuSans-4c" transform="translate(486.6875 0)"/>
     <use xlink:href="#DejaVuSans-52" transform="translate(514.46875 0)"/>
     <use xlink:href="#DejaVuSans-51" transform="translate(575.65625 0)"/>
     <use xlink:href="#DejaVuSans-3" transform="translate(639.03125 0)"/>
     <use xlink:href="#DejaVuSans-51" transform="translate(670.8125 0)"/>
     <use xlink:href="#DejaVuSans-48" transform="translate(734.1875 0)"/>
     <use xlink:href="#DejaVuSans-48" transform="translate(795.71875 0)"/>
     <use xlink:href="#DejaVuSans-47" transform="translate(857.25 0)"/>
     <use xlink:href="#DejaVuSans-56" transform="translate(920.734375 0)"/>
     <use xlink:href="#DejaVuSans-3" transform="translate(972.828125 0)"/>
     <use xlink:href="#DejaVuSans-44" transform="translate(1004.609375 0)"/>
     <use xlink:href="#DejaVuSans-51" transform="translate(1065.890625 0)"/>
     <use xlink:href="#DejaVuSans-3" transform="translate(1129.265625 0)"/>
     <use xlink:href="#DejaVuSans-48" transform="translate(1161.046875 0)"/>
     <use xlink:href="#DejaVuSans-55" transform="translate(1222.578125 0)"/>
     <use xlink:href="#DejaVuSans-55" transform="translate(1261.9375 0)"/>
     <use xlink:href="#DejaVuSans-52" transform="translate(1300.84375 0)"/>
     <use xlink:href="#DejaVuSans-55" transform="translate(1362.03125 0)"/>
     <use xlink:href="#DejaVuSans-3" transform="translate(1403.140625 0)"/>
     <use xlink:href="#DejaVuSans-45" transform="translate(1434.921875 0)"/>
     <use xlink:href="#DejaVuSans-44" transform="translate(1498.40625 0)"/>
     <use xlink:href="#DejaVuSans-55" transform="translate(1559.6875 0)"/>
    </g>
   </g>
  </g>
  <g id="axes_3">
   <g id="patch_10">
    <path d="M 621.264303 225.198979
L 875.39976 225.198979
L 875.39976 18.118365
L 621.264303 18.118365
z
" style="fill: #ffffff"/>
   </g>
   <g id="matplotlib.axis_5">
    <g id="xtick_8">
     <g id="line2d_54">
      <path d="M 632.815914 225.198979
L 632.815914 18.118365
" clip-path="url(#p2d37455991)" style="fill: none; stroke: #b0b0b0; stroke-opacity: 0.18; stroke-width: 0.6; stroke-linecap: square"/>
     </g>
     <g id="line2d_55">
      <g>
       <use xlink:href="#mf3ce9f3e72" x="632.815914" y="225.198979" style="stroke: #000000; stroke-width: 0.8"/>
      </g>
     </g>
     <g id="text_31">
      <!-- 0 -->
      <g transform="translate(629.634664 239.796635) scale(0.1 -0.1)">
       <use xlink:href="#DejaVuSans-13"/>
      </g>
     </g>
    </g>
    <g id="xtick_9">
     <g id="line2d_56">
      <path d="M 684.156411 225.198979
L 684.156411 18.118365
" clip-path="url(#p2d37455991)" style="fill: none; stroke: #b0b0b0; stroke-opacity: 0.18; stroke-width: 0.6; stroke-linecap: square"/>
     </g>
     <g id="line2d_57">
      <g>
       <use xlink:href="#mf3ce9f3e72" x="684.156411" y="225.198979" style="stroke: #000000; stroke-width: 0.8"/>
      </g>
     </g>
     <g id="text_32">
      <!-- 20 -->
      <g transform="translate(677.793911 239.796635) scale(0.1 -0.1)">
       <use xlink:href="#DejaVuSans-15"/>
       <use xlink:href="#DejaVuSans-13" transform="translate(63.625 0)"/>
      </g>
     </g>
    </g>
    <g id="xtick_10">
     <g id="line2d_58">
      <path d="M 735.496907 225.198979
L 735.496907 18.118365
" clip-path="url(#p2d37455991)" style="fill: none; stroke: #b0b0b0; stroke-opacity: 0.18; stroke-width: 0.6; stroke-linecap: square"/>
     </g>
     <g id="line2d_59">
      <g>
       <use xlink:href="#mf3ce9f3e72" x="735.496907" y="225.198979" style="stroke: #000000; stroke-width: 0.8"/>
      </g>
     </g>
     <g id="text_33">
      <!-- 40 -->
      <g transform="translate(729.134407 239.796635) scale(0.1 -0.1)">
       <use xlink:href="#DejaVuSans-17"/>
       <use xlink:href="#DejaVuSans-13" transform="translate(63.625 0)"/>
      </g>
     </g>
    </g>
    <g id="xtick_11">
     <g id="line2d_60">
      <path d="M 786.837404 225.198979
L 786.837404 18.118365
" clip-path="url(#p2d37455991)" style="fill: none; stroke: #b0b0b0; stroke-opacity: 0.18; stroke-width: 0.6; stroke-linecap: square"/>
     </g>
     <g id="line2d_61">
      <g>
       <use xlink:href="#mf3ce9f3e72" x="786.837404" y="225.198979" style="stroke: #000000; stroke-width: 0.8"/>
      </g>
     </g>
     <g id="text_34">
      <!-- 60 -->
      <g transform="translate(780.474904 239.796635) scale(0.1 -0.1)">
       <use xlink:href="#DejaVuSans-19"/>
       <use xlink:href="#DejaVuSans-13" transform="translate(63.625 0)"/>
      </g>
     </g>
    </g>
    <g id="xtick_12">
     <g id="line2d_62">
      <path d="M 838.1779 225.198979
L 838.1779 18.118365
" clip-path="url(#p2d37455991)" style="fill: none; stroke: #b0b0b0; stroke-opacity: 0.18; stroke-width: 0.6; stroke-linecap: square"/>
     </g>
     <g id="line2d_63">
      <g>
       <use xlink:href="#mf3ce9f3e72" x="838.1779" y="225.198979" style="stroke: #000000; stroke-width: 0.8"/>
      </g>
     </g>
     <g id="text_35">
      <!-- 80 -->
      <g transform="translate(831.8154 239.796635) scale(0.1 -0.1)">
       <use xlink:href="#DejaVuSans-1b"/>
       <use xlink:href="#DejaVuSans-13" transform="translate(63.625 0)"/>
      </g>
     </g>
    </g>
    <g id="text_36">
     <!-- lag -->
     <g transform="translate(740.704687 253.797416) scale(0.1 -0.1)">
      <use xlink:href="#DejaVuSans-4f"/>
      <use xlink:href="#DejaVuSans-44" transform="translate(27.78125 0)"/>
      <use xlink:href="#DejaVuSans-4a" transform="translate(89.0625 0)"/>
     </g>
    </g>
   </g>
   <g id="matplotlib.axis_6">
    <g id="ytick_17">
     <g id="line2d_64">
      <path d="M 621.264303 213.799697
L 875.39976 213.799697
" clip-path="url(#p2d37455991)" style="fill: none; stroke: #b0b0b0; stroke-opacity: 0.18; stroke-width: 0.6; stroke-linecap: square"/>
     </g>
     <g id="line2d_65">
      <g>
       <use xlink:href="#m92cf0501d5" x="621.264303" y="213.799697" style="stroke: #000000; stroke-width: 0.8"/>
      </g>
     </g>
     <g id="text_37">
      <!-- 0.0 -->
      <g transform="translate(598.361178 217.598526) scale(0.1 -0.1)">
       <defs>
        <path id="DejaVuSans-11" d="M 684 794
L 1344 794
L 1344 0
L 684 0
L 684 794
z
" transform="scale(0.015625)"/>
       </defs>
       <use xlink:href="#DejaVuSans-13"/>
       <use xlink:href="#DejaVuSans-11" transform="translate(63.625 0)"/>
       <use xlink:href="#DejaVuSans-13" transform="translate(95.40625 0)"/>
      </g>
     </g>
    </g>
    <g id="ytick_18">
     <g id="line2d_66">
      <path d="M 621.264303 176.545982
L 875.39976 176.545982
" clip-path="url(#p2d37455991)" style="fill: none; stroke: #b0b0b0; stroke-opacity: 0.18; stroke-width: 0.6; stroke-linecap: square"/>
     </g>
     <g id="line2d_67">
      <g>
       <use xlink:href="#m92cf0501d5" x="621.264303" y="176.545982" style="stroke: #000000; stroke-width: 0.8"/>
      </g>
     </g>
     <g id="text_38">
      <!-- 0.2 -->
      <g transform="translate(598.361178 180.34481) scale(0.1 -0.1)">
       <use xlink:href="#DejaVuSans-13"/>
       <use xlink:href="#DejaVuSans-11" transform="translate(63.625 0)"/>
       <use xlink:href="#DejaVuSans-15" transform="translate(95.40625 0)"/>
      </g>
     </g>
    </g>
    <g id="ytick_19">
     <g id="line2d_68">
      <path d="M 621.264303 139.292267
L 875.39976 139.292267
" clip-path="url(#p2d37455991)" style="fill: none; stroke: #b0b0b0; stroke-opacity: 0.18; stroke-width: 0.6; stroke-linecap: square"/>
     </g>
     <g id="line2d_69">
      <g>
       <use xlink:href="#m92cf0501d5" x="621.264303" y="139.292267" style="stroke: #000000; stroke-width: 0.8"/>
      </g>
     </g>
     <g id="text_39">
      <!-- 0.4 -->
      <g transform="translate(598.361178 143.091095) scale(0.1 -0.1)">
       <use xlink:href="#DejaVuSans-13"/>
       <use xlink:href="#DejaVuSans-11" transform="translate(63.625 0)"/>
       <use xlink:href="#DejaVuSans-17" transform="translate(95.40625 0)"/>
      </g>
     </g>
    </g>
    <g id="ytick_20">
     <g id="line2d_70">
      <path d="M 621.264303 102.038551
L 875.39976 102.038551
" clip-path="url(#p2d37455991)" style="fill: none; stroke: #b0b0b0; stroke-opacity: 0.18; stroke-width: 0.6; stroke-linecap: square"/>
     </g>
     <g id="line2d_71">
      <g>
       <use xlink:href="#m92cf0501d5" x="621.264303" y="102.038551" style="stroke: #000000; stroke-width: 0.8"/>
      </g>
     </g>
     <g id="text_40">
      <!-- 0.6 -->
      <g transform="translate(598.361178 105.837379) scale(0.1 -0.1)">
       <use xlink:href="#DejaVuSans-13"/>
       <use xlink:href="#DejaVuSans-11" transform="translate(63.625 0)"/>
       <use xlink:href="#DejaVuSans-19" transform="translate(95.40625 0)"/>
      </g>
     </g>
    </g>
    <g id="ytick_21">
     <g id="line2d_72">
      <path d="M 621.264303 64.784836
L 875.39976 64.784836
" clip-path="url(#p2d37455991)" style="fill: none; stroke: #b0b0b0; stroke-opacity: 0.18; stroke-width: 0.6; stroke-linecap: square"/>
     </g>
     <g id="line2d_73">
      <g>
       <use xlink:href="#m92cf0501d5" x="621.264303" y="64.784836" style="stroke: #000000; stroke-width: 0.8"/>
      </g>
     </g>
     <g id="text_41">
      <!-- 0.8 -->
      <g transform="translate(598.361178 68.583664) scale(0.1 -0.1)">
       <use xlink:href="#DejaVuSans-13"/>
       <use xlink:href="#DejaVuSans-11" transform="translate(63.625 0)"/>
       <use xlink:href="#DejaVuSans-1b" transform="translate(95.40625 0)"/>
      </g>
     </g>
    </g>
    <g id="ytick_22">
     <g id="line2d_74">
      <path d="M 621.264303 27.53112
L 875.39976 27.53112
" clip-path="url(#p2d37455991)" style="fill: none; stroke: #b0b0b0; stroke-opacity: 0.18; stroke-width: 0.6; stroke-linecap: square"/>
     </g>
     <g id="line2d_75">
      <g>
       <use xlink:href="#m92cf0501d5" x="621.264303" y="27.53112" style="stroke: #000000; stroke-width: 0.8"/>
      </g>
     </g>
     <g id="text_42">
      <!-- 1.0 -->
      <g transform="translate(598.361178 31.329948) scale(0.1 -0.1)">
       <use xlink:href="#DejaVuSans-14"/>
       <use xlink:href="#DejaVuSans-11" transform="translate(63.625 0)"/>
       <use xlink:href="#DejaVuSans-13" transform="translate(95.40625 0)"/>
      </g>
     </g>
    </g>
    <g id="text_43">
     <!-- normalized VACF -->
     <g transform="translate(591.958834 163.832109) rotate(-90) scale(0.1 -0.1)">
      <defs>
       <path id="DejaVuSans-5d" d="M 353 3500
L 3084 3500
L 3084 2975
L 922 459
L 3084 459
L 3084 0
L 275 0
L 275 525
L 2438 3041
L 353 3041
L 353 3500
z
" transform="scale(0.015625)"/>
       <path id="DejaVuSans-39" d="M 1831 0
L 50 4666
L 709 4666
L 2188 738
L 3669 4666
L 4325 4666
L 2547 0
L 1831 0
z
" transform="scale(0.015625)"/>
       <path id="DejaVuSans-24" d="M 2188 4044
L 1331 1722
L 3047 1722
L 2188 4044
z
M 1831 4666
L 2547 4666
L 4325 0
L 3669 0
L 3244 1197
L 1141 1197
L 716 0
L 50 0
L 1831 4666
z
" transform="scale(0.015625)"/>
      </defs>
      <use xlink:href="#DejaVuSans-51"/>
      <use xlink:href="#DejaVuSans-52" transform="translate(63.375 0)"/>
      <use xlink:href="#DejaVuSans-55" transform="translate(124.5625 0)"/>
      <use xlink:href="#DejaVuSans-50" transform="translate(163.921875 0)"/>
      <use xlink:href="#DejaVuSans-44" transform="translate(261.328125 0)"/>
      <use xlink:href="#DejaVuSans-4f" transform="translate(322.609375 0)"/>
      <use xlink:href="#DejaVuSans-4c" transform="translate(350.390625 0)"/>
      <use xlink:href="#DejaVuSans-5d" transform="translate(378.171875 0)"/>
      <use xlink:href="#DejaVuSans-48" transform="translate(430.65625 0)"/>
      <use xlink:href="#DejaVuSans-47" transform="translate(492.1875 0)"/>
      <use xlink:href="#DejaVuSans-3" transform="translate(555.671875 0)"/>
      <use xlink:href="#DejaVuSans-39" transform="translate(587.453125 0)"/>
      <use xlink:href="#DejaVuSans-24" transform="translate(649.46875 0)"/>
      <use xlink:href="#DejaVuSans-26" transform="translate(716.125 0)"/>
      <use xlink:href="#DejaVuSans-29" transform="translate(785.953125 0)"/>
     </g>
    </g>
   </g>
   <g id="line2d_76">
    <path d="M 621.264303 213.799697
L 875.39976 213.799697
" clip-path="url(#p2d37455991)" style="fill: none; stroke: #333333; stroke-width: 0.8; stroke-linecap: square"/>
   </g>
   <g id="line2d_77">
    <path d="M 632.815914 27.53112
L 635.382939 42.248086
L 637.949964 55.845057
L 640.516989 68.379843
L 643.084013 79.902776
L 645.651038 90.535442
L 648.218063 100.210582
L 650.785088 109.131052
L 653.352113 117.35099
L 655.919138 124.905949
L 658.486162 131.8589
L 661.053187 138.253371
L 663.620212 144.179799
L 666.187237 149.642451
L 668.754262 154.620663
L 671.321287 159.223546
L 673.888311 163.392537
L 676.455336 167.290679
L 679.022361 170.876676
L 681.589386 174.132394
L 684.156411 177.178875
L 686.723435 180.024754
L 689.29046 182.697809
L 691.857485 185.250114
L 694.42451 187.603687
L 696.991535 189.793873
L 699.55856 191.72808
L 702.125584 193.554635
L 704.692609 195.161268
L 707.259634 196.645816
L 709.826659 197.983658
L 712.393684 199.160184
L 714.960709 200.248721
L 717.527733 201.271742
L 720.094758 202.267894
L 722.661783 203.268479
L 725.228808 204.187347
L 727.795833 204.973192
L 730.362857 205.707747
L 732.929882 206.4133
L 735.496907 207.045894
L 738.063932 207.601667
L 740.630957 208.036177
L 743.197982 208.349906
L 745.765006 208.631592
L 748.332031 208.94025
L 750.899056 209.260382
L 753.466081 209.619611
L 756.033106 209.942876
L 758.600131 210.131996
L 761.167155 210.31116
L 763.73418 210.38183
L 766.301205 210.528362
L 768.86823 210.702639
L 771.435255 210.86773
L 774.002279 211.092502
L 776.569304 211.257057
L 779.136329 211.407518
L 781.703354 211.481026
L 784.270379 211.681403
L 786.837404 211.9488
L 789.404428 212.261316
L 791.971453 212.533441
L 794.538478 212.839032
L 797.105503 213.154403
L 799.672528 213.39908
L 802.239553 213.588325
L 804.806577 213.798442
L 807.373602 214.000887
L 809.940627 214.226749
L 812.507652 214.508058
L 815.074677 214.715561
L 817.641701 214.923482
L 820.208726 215.147835
L 822.775751 215.384778
L 825.342776 215.565949
L 827.909801 215.690004
L 830.476826 215.713471
L 833.04385 215.746039
L 835.610875 215.786224
L 838.1779 215.784194
L 840.744925 215.701075
L 843.31195 215.550717
L 845.878975 215.315411
L 848.445999 215.172981
L 851.013024 215.014307
L 853.580049 214.766565
L 856.147074 214.467758
L 858.714099 214.22411
L 861.281123 213.990434
L 863.848148 213.788748
" clip-path="url(#p2d37455991)" style="fill: none; stroke: #2f6f9f; stroke-width: 1.5; stroke-linecap: square"/>
   </g>
   <g id="patch_11">
    <path d="M 621.264303 225.198979
L 621.264303 18.118365
" style="fill: none; stroke: #000000; stroke-width: 0.8; stroke-linejoin: miter; stroke-linecap: square"/>
   </g>
   <g id="patch_12">
    <path d="M 621.264303 225.198979
L 875.39976 225.198979
" style="fill: none; stroke: #000000; stroke-width: 0.8; stroke-linejoin: miter; stroke-linecap: square"/>
   </g>
   <g id="text_44">
    <g id="patch_13">
     <path d="M 628.888366 51.257044
L 679.681179 51.257044
Q 682.061179 51.257044 682.061179 48.877044
L 682.061179 28.472396
Q 682.061179 26.092396 679.681179 26.092396
L 628.888366 26.092396
Q 626.508366 26.092396 626.508366 28.472396
L 626.508366 48.877044
Q 626.508366 51.257044 628.888366 51.257044
z
" style="fill: #ffffff; opacity: 0.9; stroke: #000000; stroke-linejoin: miter"/>
    </g>
    <!-- rho = 0.021 -->
    <g transform="translate(628.888366 35.781898) scale(0.085 -0.085)">
     <defs>
      <path id="DejaVuSans-4b" d="M 3513 2113
L 3513 0
L 2938 0
L 2938 2094
Q 2938 2591 2744 2837
Q 2550 3084 2163 3084
Q 1697 3084 1428 2787
Q 1159 2491 1159 1978
L 1159 0
L 581 0
L 581 4863
L 1159 4863
L 1159 2956
Q 1366 3272 1645 3428
Q 1925 3584 2291 3584
Q 2894 3584 3203 3211
Q 3513 2838 3513 2113
z
" transform="scale(0.015625)"/>
     </defs>
     <use xlink:href="#DejaVuSans-55"/>
     <use xlink:href="#DejaVuSans-4b" transform="translate(39.359375 0)"/>
     <use xlink:href="#DejaVuSans-52" transform="translate(102.734375 0)"/>
     <use xlink:href="#DejaVuSans-3" transform="translate(163.921875 0)"/>
     <use xlink:href="#DejaVuSans-20" transform="translate(195.703125 0)"/>
     <use xlink:href="#DejaVuSans-3" transform="translate(279.5 0)"/>
     <use xlink:href="#DejaVuSans-13" transform="translate(311.28125 0)"/>
     <use xlink:href="#DejaVuSans-11" transform="translate(374.90625 0)"/>
     <use xlink:href="#DejaVuSans-13" transform="translate(406.6875 0)"/>
     <use xlink:href="#DejaVuSans-15" transform="translate(470.3125 0)"/>
     <use xlink:href="#DejaVuSans-14" transform="translate(533.9375 0)"/>
    </g>
    <!-- bin = 0.05 -->
    <g transform="translate(628.888366 45.984222) scale(0.085 -0.085)">
     <use xlink:href="#DejaVuSans-45"/>
     <use xlink:href="#DejaVuSans-4c" transform="translate(63.484375 0)"/>
     <use xlink:href="#DejaVuSans-51" transform="translate(91.265625 0)"/>
     <use xlink:href="#DejaVuSans-3" transform="translate(154.640625 0)"/>
     <use xlink:href="#DejaVuSans-20" transform="translate(186.421875 0)"/>
     <use xlink:href="#DejaVuSans-3" transform="translate(270.21875 0)"/>
     <use xlink:href="#DejaVuSans-13" transform="translate(302 0)"/>
     <use xlink:href="#DejaVuSans-11" transform="translate(365.625 0)"/>
     <use xlink:href="#DejaVuSans-13" transform="translate(397.40625 0)"/>
     <use xlink:href="#DejaVuSans-18" transform="translate(461.03125 0)"/>
    </g>
   </g>
   <g id="text_45">
    <!-- Time correlation is an observable -->
    <g transform="translate(648.394531 12.118365) scale(0.12 -0.12)">
     <defs>
      <path id="DejaVuSans-37" d="M -19 4666
L 3928 4666
L 3928 4134
L 2272 4134
L 2272 0
L 1638 0
L 1638 4134
L -19 4134
L -19 4666
z
" transform="scale(0.015625)"/>
      <path id="DejaVuSans-59" d="M 191 3500
L 800 3500
L 1894 563
L 2988 3500
L 3597 3500
L 2284 0
L 1503 0
L 191 3500
z
" transform="scale(0.015625)"/>
     </defs>
     <use xlink:href="#DejaVuSans-37"/>
     <use xlink:href="#DejaVuSans-4c" transform="translate(58 0)"/>
     <use xlink:href="#DejaVuSans-50" transform="translate(85.78125 0)"/>
     <use xlink:href="#DejaVuSans-48" transform="translate(183.1875 0)"/>
     <use xlink:href="#DejaVuSans-3" transform="translate(244.71875 0)"/>
     <use xlink:href="#DejaVuSans-46" transform="translate(276.5 0)"/>
     <use xlink:href="#DejaVuSans-52" transform="translate(331.484375 0)"/>
     <use xlink:href="#DejaVuSans-55" transform="translate(392.671875 0)"/>
     <use xlink:href="#DejaVuSans-55" transform="translate(432.03125 0)"/>
     <use xlink:href="#DejaVuSans-48" transform="translate(470.9375 0)"/>
     <use xlink:href="#DejaVuSans-4f" transform="translate(532.46875 0)"/>
     <use xlink:href="#DejaVuSans-44" transform="translate(560.25 0)"/>
     <use xlink:href="#DejaVuSans-57" transform="translate(621.53125 0)"/>
     <use xlink:href="#DejaVuSans-4c" transform="translate(660.734375 0)"/>
     <use xlink:href="#DejaVuSans-52" transform="translate(688.515625 0)"/>
     <use xlink:href="#DejaVuSans-51" transform="translate(749.703125 0)"/>
     <use xlink:href="#DejaVuSans-3" transform="translate(813.078125 0)"/>
     <use xlink:href="#DejaVuSans-4c" transform="translate(844.859375 0)"/>
     <use xlink:href="#DejaVuSans-56" transform="translate(872.640625 0)"/>
     <use xlink:href="#DejaVuSans-3" transform="translate(924.734375 0)"/>
     <use xlink:href="#DejaVuSans-44" transform="translate(956.515625 0)"/>
     <use xlink:href="#DejaVuSans-51" transform="translate(1017.796875 0)"/>
     <use xlink:href="#DejaVuSans-3" transform="translate(1081.171875 0)"/>
     <use xlink:href="#DejaVuSans-52" transform="translate(1112.953125 0)"/>
     <use xlink:href="#DejaVuSans-45" transform="translate(1174.140625 0)"/>
     <use xlink:href="#DejaVuSans-56" transform="translate(1237.625 0)"/>
     <use xlink:href="#DejaVuSans-48" transform="translate(1289.71875 0)"/>
     <use xlink:href="#DejaVuSans-55" transform="translate(1351.25 0)"/>
     <use xlink:href="#DejaVuSans-59" transform="translate(1392.359375 0)"/>
     <use xlink:href="#DejaVuSans-44" transform="translate(1451.546875 0)"/>
     <use xlink:href="#DejaVuSans-45" transform="translate(1512.828125 0)"/>
     <use xlink:href="#DejaVuSans-4f" transform="translate(1576.3125 0)"/>
     <use xlink:href="#DejaVuSans-48" transform="translate(1604.09375 0)"/>
    </g>
   </g>
  </g>
 </g>
 <defs>
  <clipPath id="pfb3ec0fb84">
   <rect x="30.36274" y="18.118365" width="254.135458" height="207.080614"/>
  </clipPath>
  <clipPath id="pcdffa45115">
   <rect x="324.224459" y="18.118365" width="254.135457" height="207.080614"/>
  </clipPath>
  <clipPath id="p2d37455991">
   <rect x="621.264303" y="18.118365" width="254.135457" height="207.080614"/>
  </clipPath>
 </defs>
</svg>
