<?xml version="1.0" encoding="utf-8" standalone="no"?>
<!DOCTYPE svg PUBLIC "-//W3C//DTD SVG 1.1//EN"
  "http://www.w3.org/Graphics/SVG/1.1/DTD/svg11.dtd">
<svg xmlns:xlink="http://www.w3.org/1999/xlink" width="878.4pt" height="259.2pt" viewBox="0 0 878.4 259.2" xmlns="http://www.w3.org/2000/svg" version="1.1">
 <metadata>
  <rdf:RDF xmlns:dc="http://purl.org/dc/elements/1.1/" xmlns:cc="http://creativecommons.org/ns#" xmlns:rdf="http://www.w3.org/1999/02/22-rdf-syntax-ns#">
   <cc:Work>
    <dc:type rdf:resource="http://purl.org/dc/dcmitype/StillImage"/>
    <dc:format>image/svg+xml</dc:format>
    <dc:creator>
     <cc:Agent>
      <dc:title>Matplotlib v3.11.0, https://matplotlib.org/</dc:title>
     </cc:Agent>
    </dc:creator>
   </cc:Work>
  </rdf:RDF>
 </metadata>
 <defs>
  <style type="text/css">*{stroke-linejoin: round; stroke-linecap: butt}</style>
 </defs>
 <g id="figure_1">
  <g id="patch_1">
   <path d="M 0 259.2
L 878.4 259.2
L 878.4 0
L 0 0
z
" style="fill: #ffffff"/>
  </g>
  <g id="axes_1">
   <g id="patch_2">
    <path d="M 46.266646 220.393197
L 286.728184 220.393197
L 286.728184 18.118365
L 46.266646 18.118365
z
" style="fill: #ffffff"/>
   </g>
   <g id="patch_3">
    <path d="M 57.196716 220.393197
L 84.929729 220.393197
L 84.929729 182.662207
L 57.196716 182.662207
z
" clip-path="url(#pb1d8b439cc)" style="fill: #2f6f9f"/>
   </g>
   <g id="patch_4">
    <path d="M 138.764402 220.393197
L 166.497415 220.393197
L 166.497415 133.596853
L 138.764402 133.596853
z
" clip-path="url(#pb1d8b439cc)" style="fill: #2f6f9f"/>
   </g>
   <g id="patch_5">
    <path d="M 220.332088 220.393197
L 248.065101 220.393197
L 248.065101 27.7505
L 220.332088 27.7505
z
" clip-path="url(#pb1d8b439cc)" style="fill: #2f6f9f"/>
   </g>
   <g id="patch_6">
    <path d="M 84.929729 220.393197
L 112.662742 220.393197
L 112.662742 220.208497
L 84.929729 220.208497
z
" clip-path="url(#pb1d8b439cc)" style="fill: #d88c3d"/>
   </g>
   <g id="patch_7">
    <path d="M 166.497415 220.393197
L 194.230428 220.393197
L 194.230428 192.195974
L 166.497415 192.195974
z
" clip-path="url(#pb1d8b439cc)" style="fill: #d88c3d"/>
   </g>
   <g id="patch_8">
    <path d="M 248.065101 220.393197
L 275.798114 220.393197
L 275.798114 118.161749
L 248.065101 118.161749
z
" clip-path="url(#pb1d8b439cc)" style="fill: #d88c3d"/>
   </g>
   <g id="matplotlib.axis_1">
    <g id="xtick_1">
     <g id="line2d_1">
      <path d="M 84.929729 220.393197
L 84.929729 18.118365
" clip-path="url(#pb1d8b439cc)" style="fill: none; stroke: #b0b0b0; stroke-opacity: 0.18; stroke-width: 0.6; stroke-linecap: square"/>
     </g>
     <g id="line2d_2">
      <defs>
       <path id="ma4edccae7c" d="M 0 0
L 0 3.5
" style="stroke: #000000; stroke-width: 0.8"/>
      </defs>
      <g>
       <use xlink:href="#ma4edccae7c" x="84.929729" y="220.393197" style="stroke: #000000; stroke-width: 0.8"/>
      </g>
     </g>
     <g id="text_1">
      <!-- in -->
      <g transform="translate(81.283479 234.272729) scale(0.08 -0.08)">
       <defs>
        <path id="DejaVuSans-4c" d="M 603 3500
L 1178 3500
L 1178 0
L 603 0
L 603 3500
z
M 603 4863
L 1178 4863
L 1178 4134
L 603 4134
L 603 4863
z
" transform="scale(0.015625)"/>
        <path id="DejaVuSans-51" d="M 3513 2113
L 3513 0
L 2938 0
L 2938 2094
Q 2938 2591 2744 2837
Q 2550 3084 2163 3084
Q 1697 3084 1428 2787
Q 1159 2491 1159 1978
L 1159 0
L 581 0
L 581 3500
L 1159 3500
L 1159 2956
Q 1366 3272 1645 3428
Q 1925 3584 2291 3584
Q 2894 3584 3203 3211
Q 3513 2838 3513 2113
z
" transform="scale(0.015625)"/>
       </defs>
       <use xlink:href="#DejaVuSans-4c"/>
       <use xlink:href="#DejaVuSans-51" transform="translate(27.78125 0)"/>
      </g>
      <!-- domain -->
      <g transform="translate(69.949104 243.874916) scale(0.08 -0.08)">
       <defs>
        <path id="DejaVuSans-47" d="M 2906 2969
L 2906 4863
L 3481 4863
L 3481 0
L 2906 0
L 2906 525
Q 2725 213 2448 61
Q 2172 -91 1784 -91
Q 1150 -91 751 415
Q 353 922 353 1747
Q 353 2572 751 3078
Q 1150 3584 1784 3584
Q 2172 3584 2448 3432
Q 2725 3281 2906 2969
z
M 947 1747
Q 947 1113 1208 752
Q 1469 391 1925 391
Q 2381 391 2643 752
Q 2906 1113 2906 1747
Q 2906 2381 2643 2742
Q 2381 3103 1925 3103
Q 1469 3103 1208 2742
Q 947 2381 947 1747
z
" transform="scale(0.015625)"/>
        <path id="DejaVuSans-52" d="M 1959 3097
Q 1497 3097 1228 2736
Q 959 2375 959 1747
Q 959 1119 1226 758
Q 1494 397 1959 397
Q 2419 397 2687 759
Q 2956 1122 2956 1747
Q 2956 2369 2687 2733
Q 2419 3097 1959 3097
z
M 1959 3584
Q 2709 3584 3137 3096
Q 3566 2609 3566 1747
Q 3566 888 3137 398
Q 2709 -91 1959 -91
Q 1206 -91 779 398
Q 353 888 353 1747
Q 353 2609 779 3096
Q 1206 3584 1959 3584
z
" transform="scale(0.015625)"/>
        <path id="DejaVuSans-50" d="M 3328 2828
Q 3544 3216 3844 3400
Q 4144 3584 4550 3584
Q 5097 3584 5394 3201
Q 5691 2819 5691 2113
L 5691 0
L 5113 0
L 5113 2094
Q 5113 2597 4934 2840
Q 4756 3084 4391 3084
Q 3944 3084 3684 2787
Q 3425 2491 3425 1978
L 3425 0
L 2847 0
L 2847 2094
Q 2847 2600 2669 2842
Q 2491 3084 2119 3084
Q 1678 3084 1418 2786
Q 1159 2488 1159 1978
L 1159 0
L 581 0
L 581 3500
L 1159 3500
L 1159 2956
Q 1356 3278 1631 3431
Q 1906 3584 2284 3584
Q 2666 3584 2933 3390
Q 3200 3197 3328 2828
z
" transform="scale(0.015625)"/>
        <path id="DejaVuSans-44" d="M 2194 1759
Q 1497 1759 1228 1600
Q 959 1441 959 1056
Q 959 750 1161 570
Q 1363 391 1709 391
Q 2188 391 2477 730
Q 2766 1069 2766 1631
L 2766 1759
L 2194 1759
z
M 3341 1997
L 3341 0
L 2766 0
L 2766 531
Q 2569 213 2275 61
Q 1981 -91 1556 -91
Q 1019 -91 701 211
Q 384 513 384 1019
Q 384 1609 779 1909
Q 1175 2209 1959 2209
L 2766 2209
L 2766 2266
Q 2766 2663 2505 2880
Q 2244 3097 1772 3097
Q 1472 3097 1187 3025
Q 903 2953 641 2809
L 641 3341
Q 956 3463 1253 3523
Q 1550 3584 1831 3584
Q 2591 3584 2966 3190
Q 3341 2797 3341 1997
z
" transform="scale(0.015625)"/>
       </defs>
       <use xlink:href="#DejaVuSans-47"/>
       <use xlink:href="#DejaVuSans-52" transform="translate(63.484375 0)"/>
       <use xlink:href="#DejaVuSans-50" transform="translate(124.671875 0)"/>
       <use xlink:href="#DejaVuSans-44" transform="translate(222.078125 0)"/>
       <use xlink:href="#DejaVuSans-4c" transform="translate(283.359375 0)"/>
       <use xlink:href="#DejaVuSans-51" transform="translate(311.140625 0)"/>
      </g>
      <!-- fcc -->
      <g transform="translate(79.122854 253.477104) scale(0.08 -0.08)">
       <defs>
        <path id="DejaVuSans-49" d="M 2375 4863
L 2375 4384
L 1825 4384
Q 1516 4384 1395 4259
Q 1275 4134 1275 3809
L 1275 3500
L 2222 3500
L 2222 3053
L 1275 3053
L 1275 0
L 697 0
L 697 3053
L 147 3053
L 147 3500
L 697 3500
L 697 3744
Q 697 4328 969 4595
Q 1241 4863 1831 4863
L 2375 4863
z
" transform="scale(0.015625)"/>
        <path id="DejaVuSans-46" d="M 3122 3366
L 3122 2828
Q 2878 2963 2633 3030
Q 2388 3097 2138 3097
Q 1578 3097 1268 2742
Q 959 2388 959 1747
Q 959 1106 1268 751
Q 1578 397 2138 397
Q 2388 397 2633 464
Q 2878 531 3122 666
L 3122 134
Q 2881 22 2623 -34
Q 2366 -91 2075 -91
Q 1284 -91 818 406
Q 353 903 353 1747
Q 353 2603 823 3093
Q 1294 3584 2113 3584
Q 2378 3584 2631 3529
Q 2884 3475 3122 3366
z
" transform="scale(0.015625)"/>
       </defs>
       <use xlink:href="#DejaVuSans-49"/>
       <use xlink:href="#DejaVuSans-46" transform="translate(35.203125 0)"/>
       <use xlink:href="#DejaVuSans-46" transform="translate(90.1875 0)"/>
      </g>
     </g>
    </g>
    <g id="xtick_2">
     <g id="line2d_3">
      <path d="M 166.497415 220.393197
L 166.497415 18.118365
" clip-path="url(#pb1d8b439cc)" style="fill: none; stroke: #b0b0b0; stroke-opacity: 0.18; stroke-width: 0.6; stroke-linecap: square"/>
     </g>
     <g id="line2d_4">
      <g>
       <use xlink:href="#ma4edccae7c" x="166.497415" y="220.393197" style="stroke: #000000; stroke-width: 0.8"/>
      </g>
     </g>
     <g id="text_2">
      <!-- strained -->
      <g transform="translate(150.10304 234.272729) scale(0.08 -0.08)">
       <defs>
        <path id="DejaVuSans-56" d="M 2834 3397
L 2834 2853
Q 2591 2978 2328 3040
Q 2066 3103 1784 3103
Q 1356 3103 1142 2972
Q 928 2841 928 2578
Q 928 2378 1081 2264
Q 1234 2150 1697 2047
L 1894 2003
Q 2506 1872 2764 1633
Q 3022 1394 3022 966
Q 3022 478 2636 193
Q 2250 -91 1575 -91
Q 1294 -91 989 -36
Q 684 19 347 128
L 347 722
Q 666 556 975 473
Q 1284 391 1588 391
Q 1994 391 2212 530
Q 2431 669 2431 922
Q 2431 1156 2273 1281
Q 2116 1406 1581 1522
L 1381 1569
Q 847 1681 609 1914
Q 372 2147 372 2553
Q 372 3047 722 3315
Q 1072 3584 1716 3584
Q 2034 3584 2315 3537
Q 2597 3491 2834 3397
z
" transform="scale(0.015625)"/>
        <path id="DejaVuSans-57" d="M 1172 4494
L 1172 3500
L 2356 3500
L 2356 3053
L 1172 3053
L 1172 1153
Q 1172 725 1289 603
Q 1406 481 1766 481
L 2356 481
L 2356 0
L 1766 0
Q 1100 0 847 248
Q 594 497 594 1153
L 594 3053
L 172 3053
L 172 3500
L 594 3500
L 594 4494
L 1172 4494
z
" transform="scale(0.015625)"/>
        <path id="DejaVuSans-55" d="M 2631 2963
Q 2534 3019 2420 3045
Q 2306 3072 2169 3072
Q 1681 3072 1420 2755
Q 1159 2438 1159 1844
L 1159 0
L 581 0
L 581 3500
L 1159 3500
L 1159 2956
Q 1341 3275 1631 3429
Q 1922 3584 2338 3584
Q 2397 3584 2469 3576
Q 2541 3569 2628 3553
L 2631 2963
z
" transform="scale(0.015625)"/>
        <path id="DejaVuSans-48" d="M 3597 1894
L 3597 1613
L 953 1613
Q 991 1019 1311 708
Q 1631 397 2203 397
Q 2534 397 2845 478
Q 3156 559 3463 722
L 3463 178
Q 3153 47 2828 -22
Q 2503 -91 2169 -91
Q 1331 -91 842 396
Q 353 884 353 1716
Q 353 2575 817 3079
Q 1281 3584 2069 3584
Q 2775 3584 3186 3129
Q 3597 2675 3597 1894
z
M 3022 2063
Q 3016 2534 2758 2815
Q 2500 3097 2075 3097
Q 1594 3097 1305 2825
Q 1016 2553 972 2059
L 3022 2063
z
" transform="scale(0.015625)"/>
       </defs>
       <use xlink:href="#DejaVuSans-56"/>
       <use xlink:href="#DejaVuSans-57" transform="translate(52.09375 0)"/>
       <use xlink:href="#DejaVuSans-55" transform="translate(91.296875 0)"/>
       <use xlink:href="#DejaVuSans-44" transform="translate(132.40625 0)"/>
       <use xlink:href="#DejaVuSans-4c" transform="translate(193.6875 0)"/>
       <use xlink:href="#DejaVuSans-51" transform="translate(221.46875 0)"/>
       <use xlink:href="#DejaVuSans-48" transform="translate(284.84375 0)"/>
       <use xlink:href="#DejaVuSans-47" transform="translate(346.375 0)"/>
      </g>
      <!-- cell -->
      <g transform="translate(159.61429 243.874916) scale(0.08 -0.08)">
       <defs>
        <path id="DejaVuSans-4f" d="M 603 4863
L 1178 4863
L 1178 0
L 603 0
L 603 4863
z
" transform="scale(0.015625)"/>
       </defs>
       <use xlink:href="#DejaVuSans-46"/>
       <use xlink:href="#DejaVuSans-48" transform="translate(54.984375 0)"/>
       <use xlink:href="#DejaVuSans-4f" transform="translate(116.515625 0)"/>
       <use xlink:href="#DejaVuSans-4f" transform="translate(144.296875 0)"/>
      </g>
     </g>
    </g>
    <g id="xtick_3">
     <g id="line2d_5">
      <path d="M 248.065101 220.393197
L 248.065101 18.118365
" clip-path="url(#pb1d8b439cc)" style="fill: none; stroke: #b0b0b0; stroke-opacity: 0.18; stroke-width: 0.6; stroke-linecap: square"/>
     </g>
     <g id="line2d_6">
      <g>
       <use xlink:href="#ma4edccae7c" x="248.065101" y="220.393197" style="stroke: #000000; stroke-width: 0.8"/>
      </g>
     </g>
     <g id="text_3">
      <!-- extrapolative -->
      <g transform="translate(221.585101 234.272729) scale(0.08 -0.08)">
       <defs>
        <path id="DejaVuSans-5b" d="M 3513 3500
L 2247 1797
L 3578 0
L 2900 0
L 1881 1375
L 863 0
L 184 0
L 1544 1831
L 300 3500
L 978 3500
L 1906 2253
L 2834 3500
L 3513 3500
z
" transform="scale(0.015625)"/>
        <path id="DejaVuSans-53" d="M 1159 525
L 1159 -1331
L 581 -1331
L 581 3500
L 1159 3500
L 1159 2969
Q 1341 3281 1617 3432
Q 1894 3584 2278 3584
Q 2916 3584 3314 3078
Q 3713 2572 3713 1747
Q 3713 922 3314 415
Q 2916 -91 2278 -91
Q 1894 -91 1617 61
Q 1341 213 1159 525
z
M 3116 1747
Q 3116 2381 2855 2742
Q 2594 3103 2138 3103
Q 1681 3103 1420 2742
Q 1159 2381 1159 1747
Q 1159 1113 1420 752
Q 1681 391 2138 391
Q 2594 391 2855 752
Q 3116 1113 3116 1747
z
" transform="scale(0.015625)"/>
        <path id="DejaVuSans-59" d="M 191 3500
L 800 3500
L 1894 563
L 2988 3500
L 3597 3500
L 2284 0
L 1503 0
L 191 3500
z
" transform="scale(0.015625)"/>
       </defs>
       <use xlink:href="#DejaVuSans-48"/>
       <use xlink:href="#DejaVuSans-5b" transform="translate(59.78125 0)"/>
       <use xlink:href="#DejaVuSans-57" transform="translate(118.96875 0)"/>
       <use xlink:href="#DejaVuSans-55" transform="translate(158.171875 0)"/>
       <use xlink:href="#DejaVuSans-44" transform="translate(199.28125 0)"/>
       <use xlink:href="#DejaVuSans-53" transform="translate(260.5625 0)"/>
       <use xlink:href="#DejaVuSans-52" transform="translate(324.046875 0)"/>
       <use xlink:href="#DejaVuSans-4f" transform="translate(385.234375 0)"/>
       <use xlink:href="#DejaVuSans-44" transform="translate(413.015625 0)"/>
       <use xlink:href="#DejaVuSans-57" transform="translate(474.296875 0)"/>
       <use xlink:href="#DejaVuSans-4c" transform="translate(513.5 0)"/>
       <use xlink:href="#DejaVuSans-59" transform="translate(541.28125 0)"/>
       <use xlink:href="#DejaVuSans-48" transform="translate(600.46875 0)"/>
      </g>
      <!-- hot -->
      <g transform="translate(241.514476 243.874916) scale(0.08 -0.08)">
       <defs>
        <path id="DejaVuSans-4b" d="M 3513 2113
L 3513 0
L 2938 0
L 2938 2094
Q 2938 2591 2744 2837
Q 2550 3084 2163 3084
Q 1697 3084 1428 2787
Q 1159 2491 1159 1978
L 1159 0
L 581 0
L 581 4863
L 1159 4863
L 1159 2956
Q 1366 3272 1645 3428
Q 1925 3584 2291 3584
Q 2894 3584 3203 3211
Q 3513 2838 3513 2113
z
" transform="scale(0.015625)"/>
       </defs>
       <use xlink:href="#DejaVuSans-4b"/>
       <use xlink:href="#DejaVuSans-52" transform="translate(63.375 0)"/>
       <use xlink:href="#DejaVuSans-57" transform="translate(124.5625 0)"/>
      </g>
     </g>
    </g>
   </g>
   <g id="matplotlib.axis_2">
    <g id="ytick_1">
     <g id="line2d_7">
      <path d="M 46.266646 220.393197
L 286.728184 220.393197
" clip-path="url(#pb1d8b439cc)" style="fill: none; stroke: #b0b0b0; stroke-opacity: 0.18; stroke-width: 0.6; stroke-linecap: square"/>
     </g>
     <g id="line2d_8">
      <defs>
       <path id="m7267ccaf8b" d="M 0 0
L -3.5 0
" style="stroke: #000000; stroke-width: 0.8"/>
      </defs>
      <g>
       <use xlink:href="#m7267ccaf8b" x="46.266646" y="220.393197" style="stroke: #000000; stroke-width: 0.8"/>
      </g>
     </g>
     <g id="text_4">
      <!-- 0.00 -->
      <g transform="translate(17.001021 224.192026) scale(0.1 -0.1)">
       <defs>
        <path id="DejaVuSans-13" d="M 2034 4250
Q 1547 4250 1301 3770
Q 1056 3291 1056 2328
Q 1056 1369 1301 889
Q 1547 409 2034 409
Q 2525 409 2770 889
Q 3016 1369 3016 2328
Q 3016 3291 2770 3770
Q 2525 4250 2034 4250
z
M 2034 4750
Q 2819 4750 3233 4129
Q 3647 3509 3647 2328
Q 3647 1150 3233 529
Q 2819 -91 2034 -91
Q 1250 -91 836 529
Q 422 1150 422 2328
Q 422 3509 836 4129
Q 1250 4750 2034 4750
z
" transform="scale(0.015625)"/>
        <path id="DejaVuSans-11" d="M 684 794
L 1344 794
L 1344 0
L 684 0
L 684 794
z
" transform="scale(0.015625)"/>
       </defs>
       <use xlink:href="#DejaVuSans-13"/>
       <use xlink:href="#DejaVuSans-11" transform="translate(63.625 0)"/>
       <use xlink:href="#DejaVuSans-13" transform="translate(95.40625 0)"/>
       <use xlink:href="#DejaVuSans-13" transform="translate(159.03125 0)"/>
      </g>
     </g>
    </g>
    <g id="ytick_2">
     <g id="line2d_9">
      <path d="M 46.266646 195.210682
L 286.728184 195.210682
" clip-path="url(#pb1d8b439cc)" style="fill: none; stroke: #b0b0b0; stroke-opacity: 0.18; stroke-width: 0.6; stroke-linecap: square"/>
     </g>
     <g id="line2d_10">
      <g>
       <use xlink:href="#m7267ccaf8b" x="46.266646" y="195.210682" style="stroke: #000000; stroke-width: 0.8"/>
      </g>
     </g>
     <g id="text_5">
      <!-- 0.02 -->
      <g transform="translate(17.001021 199.00951) scale(0.1 -0.1)">
       <defs>
        <path id="DejaVuSans-15" d="M 1228 531
L 3431 531
L 3431 0
L 469 0
L 469 531
Q 828 903 1448 1529
Q 2069 2156 2228 2338
Q 2531 2678 2651 2914
Q 2772 3150 2772 3378
Q 2772 3750 2511 3984
Q 2250 4219 1831 4219
Q 1534 4219 1204 4116
Q 875 4013 500 3803
L 500 4441
Q 881 4594 1212 4672
Q 1544 4750 1819 4750
Q 2544 4750 2975 4387
Q 3406 4025 3406 3419
Q 3406 3131 3298 2873
Q 3191 2616 2906 2266
Q 2828 2175 2409 1742
Q 1991 1309 1228 531
z
" transform="scale(0.015625)"/>
       </defs>
       <use xlink:href="#DejaVuSans-13"/>
       <use xlink:href="#DejaVuSans-11" transform="translate(63.625 0)"/>
       <use xlink:href="#DejaVuSans-13" transform="translate(95.40625 0)"/>
       <use xlink:href="#DejaVuSans-15" transform="translate(159.03125 0)"/>
      </g>
     </g>
    </g>
    <g id="ytick_3">
     <g id="line2d_11">
      <path d="M 46.266646 170.028166
L 286.728184 170.028166
" clip-path="url(#pb1d8b439cc)" style="fill: none; stroke: #b0b0b0; stroke-opacity: 0.18; stroke-width: 0.6; stroke-linecap: square"/>
     </g>
     <g id="line2d_12">
      <g>
       <use xlink:href="#m7267ccaf8b" x="46.266646" y="170.028166" style="stroke: #000000; stroke-width: 0.8"/>
      </g>
     </g>
     <g id="text_6">
      <!-- 0.04 -->
      <g transform="translate(17.001021 173.826994) scale(0.1 -0.1)">
       <defs>
        <path id="DejaVuSans-17" d="M 2419 4116
L 825 1625
L 2419 1625
L 2419 4116
z
M 2253 4666
L 3047 4666
L 3047 1625
L 3713 1625
L 3713 1100
L 3047 1100
L 3047 0
L 2419 0
L 2419 1100
L 313 1100
L 313 1709
L 2253 4666
z
" transform="scale(0.015625)"/>
       </defs>
       <use xlink:href="#DejaVuSans-13"/>
       <use xlink:href="#DejaVuSans-11" transform="translate(63.625 0)"/>
       <use xlink:href="#DejaVuSans-13" transform="translate(95.40625 0)"/>
       <use xlink:href="#DejaVuSans-17" transform="translate(159.03125 0)"/>
      </g>
     </g>
    </g>
    <g id="ytick_4">
     <g id="line2d_13">
      <path d="M 46.266646 144.845651
L 286.728184 144.845651
" clip-path="url(#pb1d8b439cc)" style="fill: none; stroke: #b0b0b0; stroke-opacity: 0.18; stroke-width: 0.6; stroke-linecap: square"/>
     </g>
     <g id="line2d_14">
      <g>
       <use xlink:href="#m7267ccaf8b" x="46.266646" y="144.845651" style="stroke: #000000; stroke-width: 0.8"/>
      </g>
     </g>
     <g id="text_7">
      <!-- 0.06 -->
      <g transform="translate(17.001021 148.644479) scale(0.1 -0.1)">
       <defs>
        <path id="DejaVuSans-19" d="M 2113 2584
Q 1688 2584 1439 2293
Q 1191 2003 1191 1497
Q 1191 994 1439 701
Q 1688 409 2113 409
Q 2538 409 2786 701
Q 3034 994 3034 1497
Q 3034 2003 2786 2293
Q 2538 2584 2113 2584
z
M 3366 4563
L 3366 3988
Q 3128 4100 2886 4159
Q 2644 4219 2406 4219
Q 1781 4219 1451 3797
Q 1122 3375 1075 2522
Q 1259 2794 1537 2939
Q 1816 3084 2150 3084
Q 2853 3084 3261 2657
Q 3669 2231 3669 1497
Q 3669 778 3244 343
Q 2819 -91 2113 -91
Q 1303 -91 875 529
Q 447 1150 447 2328
Q 447 3434 972 4092
Q 1497 4750 2381 4750
Q 2619 4750 2861 4703
Q 3103 4656 3366 4563
z
" transform="scale(0.015625)"/>
       </defs>
       <use xlink:href="#DejaVuSans-13"/>
       <use xlink:href="#DejaVuSans-11" transform="translate(63.625 0)"/>
       <use xlink:href="#DejaVuSans-13" transform="translate(95.40625 0)"/>
       <use xlink:href="#DejaVuSans-19" transform="translate(159.03125 0)"/>
      </g>
     </g>
    </g>
    <g id="ytick_5">
     <g id="line2d_15">
      <path d="M 46.266646 119.663135
L 286.728184 119.663135
" clip-path="url(#pb1d8b439cc)" style="fill: none; stroke: #b0b0b0; stroke-opacity: 0.18; stroke-width: 0.6; stroke-linecap: square"/>
     </g>
     <g id="line2d_16">
      <g>
       <use xlink:href="#m7267ccaf8b" x="46.266646" y="119.663135" style="stroke: #000000; stroke-width: 0.8"/>
      </g>
     </g>
     <g id="text_8">
      <!-- 0.08 -->
      <g transform="translate(17.001021 123.461963) scale(0.1 -0.1)">
       <defs>
        <path id="DejaVuSans-1b" d="M 2034 2216
Q 1584 2216 1326 1975
Q 1069 1734 1069 1313
Q 1069 891 1326 650
Q 1584 409 2034 409
Q 2484 409 2743 651
Q 3003 894 3003 1313
Q 3003 1734 2745 1975
Q 2488 2216 2034 2216
z
M 1403 2484
Q 997 2584 770 2862
Q 544 3141 544 3541
Q 544 4100 942 4425
Q 1341 4750 2034 4750
Q 2731 4750 3128 4425
Q 3525 4100 3525 3541
Q 3525 3141 3298 2862
Q 3072 2584 2669 2484
Q 3125 2378 3379 2068
Q 3634 1759 3634 1313
Q 3634 634 3220 271
Q 2806 -91 2034 -91
Q 1263 -91 848 271
Q 434 634 434 1313
Q 434 1759 690 2068
Q 947 2378 1403 2484
z
M 1172 3481
Q 1172 3119 1398 2916
Q 1625 2713 2034 2713
Q 2441 2713 2670 2916
Q 2900 3119 2900 3481
Q 2900 3844 2670 4047
Q 2441 4250 2034 4250
Q 1625 4250 1398 4047
Q 1172 3844 1172 3481
z
" transform="scale(0.015625)"/>
       </defs>
       <use xlink:href="#DejaVuSans-13"/>
       <use xlink:href="#DejaVuSans-11" transform="translate(63.625 0)"/>
       <use xlink:href="#DejaVuSans-13" transform="translate(95.40625 0)"/>
       <use xlink:href="#DejaVuSans-1b" transform="translate(159.03125 0)"/>
      </g>
     </g>
    </g>
    <g id="ytick_6">
     <g id="line2d_17">
      <path d="M 46.266646 94.480619
L 286.728184 94.480619
" clip-path="url(#pb1d8b439cc)" style="fill: none; stroke: #b0b0b0; stroke-opacity: 0.18; stroke-width: 0.6; stroke-linecap: square"/>
     </g>
     <g id="line2d_18">
      <g>
       <use xlink:href="#m7267ccaf8b" x="46.266646" y="94.480619" style="stroke: #000000; stroke-width: 0.8"/>
      </g>
     </g>
     <g id="text_9">
      <!-- 0.10 -->
      <g transform="translate(17.001021 98.279447) scale(0.1 -0.1)">
       <defs>
        <path id="DejaVuSans-14" d="M 794 531
L 1825 531
L 1825 4091
L 703 3866
L 703 4441
L 1819 4666
L 2450 4666
L 2450 531
L 3481 531
L 3481 0
L 794 0
L 794 531
z
" transform="scale(0.015625)"/>
       </defs>
       <use xlink:href="#DejaVuSans-13"/>
       <use xlink:href="#DejaVuSans-11" transform="translate(63.625 0)"/>
       <use xlink:href="#DejaVuSans-14" transform="translate(95.40625 0)"/>
       <use xlink:href="#DejaVuSans-13" transform="translate(159.03125 0)"/>
      </g>
     </g>
    </g>
    <g id="ytick_7">
     <g id="line2d_19">
      <path d="M 46.266646 69.298104
L 286.728184 69.298104
" clip-path="url(#pb1d8b439cc)" style="fill: none; stroke: #b0b0b0; stroke-opacity: 0.18; stroke-width: 0.6; stroke-linecap: square"/>
     </g>
     <g id="line2d_20">
      <g>
       <use xlink:href="#m7267ccaf8b" x="46.266646" y="69.298104" style="stroke: #000000; stroke-width: 0.8"/>
      </g>
     </g>
     <g id="text_10">
      <!-- 0.12 -->
      <g transform="translate(17.001021 73.096932) scale(0.1 -0.1)">
       <use xlink:href="#DejaVuSans-13"/>
       <use xlink:href="#DejaVuSans-11" transform="translate(63.625 0)"/>
       <use xlink:href="#DejaVuSans-14" transform="translate(95.40625 0)"/>
       <use xlink:href="#DejaVuSans-15" transform="translate(159.03125 0)"/>
      </g>
     </g>
    </g>
    <g id="ytick_8">
     <g id="line2d_21">
      <path d="M 46.266646 44.115588
L 286.728184 44.115588
" clip-path="url(#pb1d8b439cc)" style="fill: none; stroke: #b0b0b0; stroke-opacity: 0.18; stroke-width: 0.6; stroke-linecap: square"/>
     </g>
     <g id="line2d_22">
      <g>
       <use xlink:href="#m7267ccaf8b" x="46.266646" y="44.115588" style="stroke: #000000; stroke-width: 0.8"/>
      </g>
     </g>
     <g id="text_11">
      <!-- 0.14 -->
      <g transform="translate(17.001021 47.914416) scale(0.1 -0.1)">
       <use xlink:href="#DejaVuSans-13"/>
       <use xlink:href="#DejaVuSans-11" transform="translate(63.625 0)"/>
       <use xlink:href="#DejaVuSans-14" transform="translate(95.40625 0)"/>
       <use xlink:href="#DejaVuSans-17" transform="translate(159.03125 0)"/>
      </g>
     </g>
    </g>
    <g id="ytick_9">
     <g id="line2d_23">
      <path d="M 46.266646 18.933072
L 286.728184 18.933072
" clip-path="url(#pb1d8b439cc)" style="fill: none; stroke: #b0b0b0; stroke-opacity: 0.18; stroke-width: 0.6; stroke-linecap: square"/>
     </g>
     <g id="line2d_24">
      <g>
       <use xlink:href="#m7267ccaf8b" x="46.266646" y="18.933072" style="stroke: #000000; stroke-width: 0.8"/>
      </g>
     </g>
     <g id="text_12">
      <!-- 0.16 -->
      <g transform="translate(17.001021 22.7319) scale(0.1 -0.1)">
       <use xlink:href="#DejaVuSans-13"/>
       <use xlink:href="#DejaVuSans-11" transform="translate(63.625 0)"/>
       <use xlink:href="#DejaVuSans-14" transform="translate(95.40625 0)"/>
       <use xlink:href="#DejaVuSans-19" transform="translate(159.03125 0)"/>
      </g>
     </g>
    </g>
    <g id="text_13">
     <!-- force error -->
     <g transform="translate(10.598678 145.540156) rotate(-90) scale(0.1 -0.1)">
      <defs>
       <path id="DejaVuSans-3" transform="scale(0.015625)"/>
      </defs>
      <use xlink:href="#DejaVuSans-49"/>
      <use xlink:href="#DejaVuSans-52" transform="translate(35.203125 0)"/>
      <use xlink:href="#DejaVuSans-55" transform="translate(96.390625 0)"/>
      <use xlink:href="#DejaVuSans-46" transform="translate(135.296875 0)"/>
      <use xlink:href="#DejaVuSans-48" transform="translate(190.28125 0)"/>
      <use xlink:href="#DejaVuSans-3" transform="translate(251.8125 0)"/>
      <use xlink:href="#DejaVuSans-48" transform="translate(283.59375 0)"/>
      <use xlink:href="#DejaVuSans-55" transform="translate(345.125 0)"/>
      <use xlink:href="#DejaVuSans-55" transform="translate(384.484375 0)"/>
      <use xlink:href="#DejaVuSans-52" transform="translate(423.390625 0)"/>
      <use xlink:href="#DejaVuSans-55" transform="translate(484.578125 0)"/>
     </g>
    </g>
   </g>
   <g id="patch_9">
    <path d="M 46.266646 220.393197
L 46.266646 18.118365
" style="fill: none; stroke: #000000; stroke-width: 0.8; stroke-linejoin: miter; stroke-linecap: square"/>
   </g>
   <g id="patch_10">
    <path d="M 46.266646 220.393197
L 286.728184 220.393197
" style="fill: none; stroke: #000000; stroke-width: 0.8; stroke-linejoin: miter; stroke-linecap: square"/>
   </g>
   <g id="text_14">
    <!-- Static errors miss deployment risk -->
    <g transform="translate(63.676165 12.118365) scale(0.12 -0.12)">
     <defs>
      <path id="DejaVuSans-36" d="M 3425 4513
L 3425 3897
Q 3066 4069 2747 4153
Q 2428 4238 2131 4238
Q 1616 4238 1336 4038
Q 1056 3838 1056 3469
Q 1056 3159 1242 3001
Q 1428 2844 1947 2747
L 2328 2669
Q 3034 2534 3370 2195
Q 3706 1856 3706 1288
Q 3706 609 3251 259
Q 2797 -91 1919 -91
Q 1588 -91 1214 -16
Q 841 59 441 206
L 441 856
Q 825 641 1194 531
Q 1563 422 1919 422
Q 2459 422 2753 634
Q 3047 847 3047 1241
Q 3047 1584 2836 1778
Q 2625 1972 2144 2069
L 1759 2144
Q 1053 2284 737 2584
Q 422 2884 422 3419
Q 422 4038 858 4394
Q 1294 4750 2059 4750
Q 2388 4750 2728 4690
Q 3069 4631 3425 4513
z
" transform="scale(0.015625)"/>
      <path id="DejaVuSans-5c" d="M 2059 -325
Q 1816 -950 1584 -1140
Q 1353 -1331 966 -1331
L 506 -1331
L 506 -850
L 844 -850
Q 1081 -850 1212 -737
Q 1344 -625 1503 -206
L 1606 56
L 191 3500
L 800 3500
L 1894 763
L 2988 3500
L 3597 3500
L 2059 -325
z
" transform="scale(0.015625)"/>
      <path id="DejaVuSans-4e" d="M 581 4863
L 1159 4863
L 1159 1991
L 2875 3500
L 3609 3500
L 1753 1863
L 3688 0
L 2938 0
L 1159 1709
L 1159 0
L 581 0
L 581 4863
z
" transform="scale(0.015625)"/>
     </defs>
     <use xlink:href="#DejaVuSans-36"/>
     <use xlink:href="#DejaVuSans-57" transform="translate(63.484375 0)"/>
     <use xlink:href="#DejaVuSans-44" transform="translate(102.6875 0)"/>
     <use xlink:href="#DejaVuSans-57" transform="translate(163.96875 0)"/>
     <use xlink:href="#DejaVuSans-4c" transform="translate(203.171875 0)"/>
     <use xlink:href="#DejaVuSans-46" transform="translate(230.953125 0)"/>
     <use xlink:href="#DejaVuSans-3" transform="translate(285.9375 0)"/>
     <use xlink:href="#DejaVuSans-48" transform="translate(317.71875 0)"/>
     <use xlink:href="#DejaVuSans-55" transform="translate(379.25 0)"/>
     <use xlink:href="#DejaVuSans-55" transform="translate(418.609375 0)"/>
     <use xlink:href="#DejaVuSans-52" transform="translate(457.515625 0)"/>
     <use xlink:href="#DejaVuSans-55" transform="translate(518.703125 0)"/>
     <use xlink:href="#DejaVuSans-56" transform="translate(559.8125 0)"/>
     <use xlink:href="#DejaVuSans-3" transform="translate(611.90625 0)"/>
     <use xlink:href="#DejaVuSans-50" transform="translate(643.6875 0)"/>
     <use xlink:href="#DejaVuSans-4c" transform="translate(741.09375 0)"/>
     <use xlink:href="#DejaVuSans-56" transform="translate(768.875 0)"/>
     <use xlink:href="#DejaVuSans-56" transform="translate(820.96875 0)"/>
     <use xlink:href="#DejaVuSans-3" transform="translate(873.0625 0)"/>
     <use xlink:href="#DejaVuSans-47" transform="translate(904.84375 0)"/>
     <use xlink:href="#DejaVuSans-48" transform="translate(968.328125 0)"/>
     <use xlink:href="#DejaVuSans-53" transform="translate(1029.859375 0)"/>
     <use xlink:href="#DejaVuSans-4f" transform="translate(1093.34375 0)"/>
     <use xlink:href="#DejaVuSans-52" transform="translate(1121.125 0)"/>
     <use xlink:href="#DejaVuSans-5c" transform="translate(1182.3125 0)"/>
     <use xlink:href="#DejaVuSans-50" transform="translate(1241.5 0)"/>
     <use xlink:href="#DejaVuSans-48" transform="translate(1338.90625 0)"/>
     <use xlink:href="#DejaVuSans-51" transform="translate(1400.4375 0)"/>
     <use xlink:href="#DejaVuSans-57" transform="translate(1463.8125 0)"/>
     <use xlink:href="#DejaVuSans-3" transform="translate(1503.015625 0)"/>
     <use xlink:href="#DejaVuSans-55" transform="translate(1534.796875 0)"/>
     <use xlink:href="#DejaVuSans-4c" transform="translate(1575.90625 0)"/>
     <use xlink:href="#DejaVuSans-56" transform="translate(1603.6875 0)"/>
     <use xlink:href="#DejaVuSans-4e" transform="translate(1655.78125 0)"/>
    </g>
   </g>
   <g id="legend_1">
    <g id="patch_11">
     <path d="M 53.466646 31.397115
L 69.466646 31.397115
L 69.466646 25.797115
L 53.466646 25.797115
z
" style="fill: #2f6f9f"/>
    </g>
    <g id="text_15">
     <!-- force RMSE -->
     <g transform="translate(75.866646 31.397115) scale(0.08 -0.08)">
      <defs>
       <path id="DejaVuSans-35" d="M 2841 2188
Q 3044 2119 3236 1894
Q 3428 1669 3622 1275
L 4263 0
L 3584 0
L 2988 1197
Q 2756 1666 2539 1819
Q 2322 1972 1947 1972
L 1259 1972
L 1259 0
L 628 0
L 628 4666
L 2053 4666
Q 2853 4666 3247 4331
Q 3641 3997 3641 3322
Q 3641 2881 3436 2590
Q 3231 2300 2841 2188
z
M 1259 4147
L 1259 2491
L 2053 2491
Q 2509 2491 2742 2702
Q 2975 2913 2975 3322
Q 2975 3731 2742 3939
Q 2509 4147 2053 4147
L 1259 4147
z
" transform="scale(0.015625)"/>
       <path id="DejaVuSans-30" d="M 628 4666
L 1569 4666
L 2759 1491
L 3956 4666
L 4897 4666
L 4897 0
L 4281 0
L 4281 4097
L 3078 897
L 2444 897
L 1241 4097
L 1241 0
L 628 0
L 628 4666
z
" transform="scale(0.015625)"/>
       <path id="DejaVuSans-28" d="M 628 4666
L 3578 4666
L 3578 4134
L 1259 4134
L 1259 2753
L 3481 2753
L 3481 2222
L 1259 2222
L 1259 531
L 3634 531
L 3634 0
L 628 0
L 628 4666
z
" transform="scale(0.015625)"/>
      </defs>
      <use xlink:href="#DejaVuSans-49"/>
      <use xlink:href="#DejaVuSans-52" transform="translate(35.203125 0)"/>
      <use xlink:href="#DejaVuSans-55" transform="translate(96.390625 0)"/>
      <use xlink:href="#DejaVuSans-46" transform="translate(135.296875 0)"/>
      <use xlink:href="#DejaVuSans-48" transform="translate(190.28125 0)"/>
      <use xlink:href="#DejaVuSans-3" transform="translate(251.8125 0)"/>
      <use xlink:href="#DejaVuSans-35" transform="translate(283.59375 0)"/>
      <use xlink:href="#DejaVuSans-30" transform="translate(353.078125 0)"/>
      <use xlink:href="#DejaVuSans-36" transform="translate(439.359375 0)"/>
      <use xlink:href="#DejaVuSans-28" transform="translate(502.84375 0)"/>
     </g>
    </g>
    <g id="patch_12">
     <path d="M 53.466646 43.39774
L 69.466646 43.39774
L 69.466646 37.79774
L 53.466646 37.79774
z
" style="fill: #d88c3d"/>
    </g>
    <g id="text_16">
     <!-- force bias norm -->
     <g transform="translate(75.866646 43.39774) scale(0.08 -0.08)">
      <defs>
       <path id="DejaVuSans-45" d="M 3116 1747
Q 3116 2381 2855 2742
Q 2594 3103 2138 3103
Q 1681 3103 1420 2742
Q 1159 2381 1159 1747
Q 1159 1113 1420 752
Q 1681 391 2138 391
Q 2594 391 2855 752
Q 3116 1113 3116 1747
z
M 1159 2969
Q 1341 3281 1617 3432
Q 1894 3584 2278 3584
Q 2916 3584 3314 3078
Q 3713 2572 3713 1747
Q 3713 922 3314 415
Q 2916 -91 2278 -91
Q 1894 -91 1617 61
Q 1341 213 1159 525
L 1159 0
L 581 0
L 581 4863
L 1159 4863
L 1159 2969
z
" transform="scale(0.015625)"/>
      </defs>
      <use xlink:href="#DejaVuSans-49"/>
      <use xlink:href="#DejaVuSans-52" transform="translate(35.203125 0)"/>
      <use xlink:href="#DejaVuSans-55" transform="translate(96.390625 0)"/>
      <use xlink:href="#DejaVuSans-46" transform="translate(135.296875 0)"/>
      <use xlink:href="#DejaVuSans-48" transform="translate(190.28125 0)"/>
      <use xlink:href="#DejaVuSans-3" transform="translate(251.8125 0)"/>
      <use xlink:href="#DejaVuSans-45" transform="translate(283.59375 0)"/>
      <use xlink:href="#DejaVuSans-4c" transform="translate(347.078125 0)"/>
      <use xlink:href="#DejaVuSans-44" transform="translate(374.859375 0)"/>
      <use xlink:href="#DejaVuSans-56" transform="translate(436.140625 0)"/>
      <use xlink:href="#DejaVuSans-3" transform="translate(488.234375 0)"/>
      <use xlink:href="#DejaVuSans-51" transform="translate(520.015625 0)"/>
      <use xlink:href="#DejaVuSans-52" transform="translate(583.390625 0)"/>
      <use xlink:href="#DejaVuSans-55" transform="translate(644.578125 0)"/>
      <use xlink:href="#DejaVuSans-50" transform="translate(683.9375 0)"/>
     </g>
    </g>
   </g>
  </g>
  <g id="axes_2">
   <g id="patch_13">
    <path d="M 329.63257 220.393197
L 570.094108 220.393197
L 570.094108 18.118365
L 329.63257 18.118365
z
" style="fill: #ffffff"/>
   </g>
   <g id="matplotlib.axis_3">
    <g id="xtick_4">
     <g id="line2d_25">
      <path d="M 340.56264 220.393197
L 340.56264 18.118365
" clip-path="url(#p0628bc909c)" style="fill: none; stroke: #b0b0b0; stroke-opacity: 0.18; stroke-width: 0.6; stroke-linecap: square"/>
     </g>
     <g id="line2d_26">
      <g>
       <use xlink:href="#ma4edccae7c" x="340.56264" y="220.393197" style="stroke: #000000; stroke-width: 0.8"/>
      </g>
     </g>
     <g id="text_17">
      <!-- in -->
      <g transform="translate(336.91639 234.272729) scale(0.08 -0.08)">
       <use xlink:href="#DejaVuSans-4c"/>
       <use xlink:href="#DejaVuSans-51" transform="translate(27.78125 0)"/>
      </g>
      <!-- domain -->
      <g transform="translate(325.582015 243.874916) scale(0.08 -0.08)">
       <use xlink:href="#DejaVuSans-47"/>
       <use xlink:href="#DejaVuSans-52" transform="translate(63.484375 0)"/>
       <use xlink:href="#DejaVuSans-50" transform="translate(124.671875 0)"/>
       <use xlink:href="#DejaVuSans-44" transform="translate(222.078125 0)"/>
       <use xlink:href="#DejaVuSans-4c" transform="translate(283.359375 0)"/>
       <use xlink:href="#DejaVuSans-51" transform="translate(311.140625 0)"/>
      </g>
      <!-- fcc -->
      <g transform="translate(334.755765 253.477104) scale(0.08 -0.08)">
       <use xlink:href="#DejaVuSans-49"/>
       <use xlink:href="#DejaVuSans-46" transform="translate(35.203125 0)"/>
       <use xlink:href="#DejaVuSans-46" transform="translate(90.1875 0)"/>
      </g>
     </g>
    </g>
    <g id="xtick_5">
     <g id="line2d_27">
      <path d="M 449.863339 220.393197
L 449.863339 18.118365
" clip-path="url(#p0628bc909c)" style="fill: none; stroke: #b0b0b0; stroke-opacity: 0.18; stroke-width: 0.6; stroke-linecap: square"/>
     </g>
     <g id="line2d_28">
      <g>
       <use xlink:href="#ma4edccae7c" x="449.863339" y="220.393197" style="stroke: #000000; stroke-width: 0.8"/>
      </g>
     </g>
     <g id="text_18">
      <!-- strained -->
      <g transform="translate(433.468964 234.272729) scale(0.08 -0.08)">
       <use xlink:href="#DejaVuSans-56"/>
       <use xlink:href="#DejaVuSans-57" transform="translate(52.09375 0)"/>
       <use xlink:href="#DejaVuSans-55" transform="translate(91.296875 0)"/>
       <use xlink:href="#DejaVuSans-44" transform="translate(132.40625 0)"/>
       <use xlink:href="#DejaVuSans-4c" transform="translate(193.6875 0)"/>
       <use xlink:href="#DejaVuSans-51" transform="translate(221.46875 0)"/>
       <use xlink:href="#DejaVuSans-48" transform="translate(284.84375 0)"/>
       <use xlink:href="#DejaVuSans-47" transform="translate(346.375 0)"/>
      </g>
      <!-- cell -->
      <g transform="translate(442.980214 243.874916) scale(0.08 -0.08)">
       <use xlink:href="#DejaVuSans-46"/>
       <use xlink:href="#DejaVuSans-48" transform="translate(54.984375 0)"/>
       <use xlink:href="#DejaVuSans-4f" transform="translate(116.515625 0)"/>
       <use xlink:href="#DejaVuSans-4f" transform="translate(144.296875 0)"/>
      </g>
     </g>
    </g>
    <g id="xtick_6">
     <g id="line2d_29">
      <path d="M 559.164038 220.393197
L 559.164038 18.118365
" clip-path="url(#p0628bc909c)" style="fill: none; stroke: #b0b0b0; stroke-opacity: 0.18; stroke-width: 0.6; stroke-linecap: square"/>
     </g>
     <g id="line2d_30">
      <g>
       <use xlink:href="#ma4edccae7c" x="559.164038" y="220.393197" style="stroke: #000000; stroke-width: 0.8"/>
      </g>
     </g>
     <g id="text_19">
      <!-- extrapolative -->
      <g transform="translate(532.684038 234.272729) scale(0.08 -0.08)">
       <use xlink:href="#DejaVuSans-48"/>
       <use xlink:href="#DejaVuSans-5b" transform="translate(59.78125 0)"/>
       <use xlink:href="#DejaVuSans-57" transform="translate(118.96875 0)"/>
       <use xlink:href="#DejaVuSans-55" transform="translate(158.171875 0)"/>
       <use xlink:href="#DejaVuSans-44" transform="translate(199.28125 0)"/>
       <use xlink:href="#DejaVuSans-53" transform="translate(260.5625 0)"/>
       <use xlink:href="#DejaVuSans-52" transform="translate(324.046875 0)"/>
       <use xlink:href="#DejaVuSans-4f" transform="translate(385.234375 0)"/>
       <use xlink:href="#DejaVuSans-44" transform="translate(413.015625 0)"/>
       <use xlink:href="#DejaVuSans-57" transform="translate(474.296875 0)"/>
       <use xlink:href="#DejaVuSans-4c" transform="translate(513.5 0)"/>
       <use xlink:href="#DejaVuSans-59" transform="translate(541.28125 0)"/>
       <use xlink:href="#DejaVuSans-48" transform="translate(600.46875 0)"/>
      </g>
      <!-- hot -->
      <g transform="translate(552.613413 243.874916) scale(0.08 -0.08)">
       <use xlink:href="#DejaVuSans-4b"/>
       <use xlink:href="#DejaVuSans-52" transform="translate(63.375 0)"/>
       <use xlink:href="#DejaVuSans-57" transform="translate(124.5625 0)"/>
      </g>
     </g>
    </g>
   </g>
   <g id="matplotlib.axis_4">
    <g id="ytick_10">
     <g id="line2d_31">
      <path d="M 329.63257 211.198887
L 570.094108 211.198887
" clip-path="url(#p0628bc909c)" style="fill: none; stroke: #b0b0b0; stroke-opacity: 0.18; stroke-width: 0.6; stroke-linecap: square"/>
     </g>
     <g id="line2d_32">
      <g>
       <use xlink:href="#m7267ccaf8b" x="329.63257" y="211.198887" style="stroke: #000000; stroke-width: 0.8"/>
      </g>
     </g>
     <g id="text_20">
      <!-- 0.0 -->
      <g transform="translate(306.729445 214.997715) scale(0.1 -0.1)">
       <use xlink:href="#DejaVuSans-13"/>
       <use xlink:href="#DejaVuSans-11" transform="translate(63.625 0)"/>
       <use xlink:href="#DejaVuSans-13" transform="translate(95.40625 0)"/>
      </g>
     </g>
    </g>
    <g id="ytick_11">
     <g id="line2d_33">
      <path d="M 329.63257 174.421645
L 570.094108 174.421645
" clip-path="url(#p0628bc909c)" style="fill: none; stroke: #b0b0b0; stroke-opacity: 0.18; stroke-width: 0.6; stroke-linecap: square"/>
     </g>
     <g id="line2d_34">
      <g>
       <use xlink:href="#m7267ccaf8b" x="329.63257" y="174.421645" style="stroke: #000000; stroke-width: 0.8"/>
      </g>
     </g>
     <g id="text_21">
      <!-- 0.2 -->
      <g transform="translate(306.729445 178.220473) scale(0.1 -0.1)">
       <use xlink:href="#DejaVuSans-13"/>
       <use xlink:href="#DejaVuSans-11" transform="translate(63.625 0)"/>
       <use xlink:href="#DejaVuSans-15" transform="translate(95.40625 0)"/>
      </g>
     </g>
    </g>
    <g id="ytick_12">
     <g id="line2d_35">
      <path d="M 329.63257 137.644402
L 570.094108 137.644402
" clip-path="url(#p0628bc909c)" style="fill: none; stroke: #b0b0b0; stroke-opacity: 0.18; stroke-width: 0.6; stroke-linecap: square"/>
     </g>
     <g id="line2d_36">
      <g>
       <use xlink:href="#m7267ccaf8b" x="329.63257" y="137.644402" style="stroke: #000000; stroke-width: 0.8"/>
      </g>
     </g>
     <g id="text_22">
      <!-- 0.4 -->
      <g transform="translate(306.729445 141.443231) scale(0.1 -0.1)">
       <use xlink:href="#DejaVuSans-13"/>
       <use xlink:href="#DejaVuSans-11" transform="translate(63.625 0)"/>
       <use xlink:href="#DejaVuSans-17" transform="translate(95.40625 0)"/>
      </g>
     </g>
    </g>
    <g id="ytick_13">
     <g id="line2d_37">
      <path d="M 329.63257 100.86716
L 570.094108 100.86716
" clip-path="url(#p0628bc909c)" style="fill: none; stroke: #b0b0b0; stroke-opacity: 0.18; stroke-width: 0.6; stroke-linecap: square"/>
     </g>
     <g id="line2d_38">
      <g>
       <use xlink:href="#m7267ccaf8b" x="329.63257" y="100.86716" style="stroke: #000000; stroke-width: 0.8"/>
      </g>
     </g>
     <g id="text_23">
      <!-- 0.6 -->
      <g transform="translate(306.729445 104.665988) scale(0.1 -0.1)">
       <use xlink:href="#DejaVuSans-13"/>
       <use xlink:href="#DejaVuSans-11" transform="translate(63.625 0)"/>
       <use xlink:href="#DejaVuSans-19" transform="translate(95.40625 0)"/>
      </g>
     </g>
    </g>
    <g id="ytick_14">
     <g id="line2d_39">
      <path d="M 329.63257 64.089918
L 570.094108 64.089918
" clip-path="url(#p0628bc909c)" style="fill: none; stroke: #b0b0b0; stroke-opacity: 0.18; stroke-width: 0.6; stroke-linecap: square"/>
     </g>
     <g id="line2d_40">
      <g>
       <use xlink:href="#m7267ccaf8b" x="329.63257" y="64.089918" style="stroke: #000000; stroke-width: 0.8"/>
      </g>
     </g>
     <g id="text_24">
      <!-- 0.8 -->
      <g transform="translate(306.729445 67.888746) scale(0.1 -0.1)">
       <use xlink:href="#DejaVuSans-13"/>
       <use xlink:href="#DejaVuSans-11" transform="translate(63.625 0)"/>
       <use xlink:href="#DejaVuSans-1b" transform="translate(95.40625 0)"/>
      </g>
     </g>
    </g>
    <g id="ytick_15">
     <g id="line2d_41">
      <path d="M 329.63257 27.312676
L 570.094108 27.312676
" clip-path="url(#p0628bc909c)" style="fill: none; stroke: #b0b0b0; stroke-opacity: 0.18; stroke-width: 0.6; stroke-linecap: square"/>
     </g>
     <g id="line2d_42">
      <g>
       <use xlink:href="#m7267ccaf8b" x="329.63257" y="27.312676" style="stroke: #000000; stroke-width: 0.8"/>
      </g>
     </g>
     <g id="text_25">
      <!-- 1.0 -->
      <g transform="translate(306.729445 31.111504) scale(0.1 -0.1)">
       <use xlink:href="#DejaVuSans-14"/>
       <use xlink:href="#DejaVuSans-11" transform="translate(63.625 0)"/>
       <use xlink:href="#DejaVuSans-13" transform="translate(95.40625 0)"/>
      </g>
     </g>
    </g>
    <g id="text_26">
     <!-- fraction or normalized drift -->
     <g transform="translate(300.327101 186.379219) rotate(-90) scale(0.1 -0.1)">
      <defs>
       <path id="DejaVuSans-5d" d="M 353 3500
L 3084 3500
L 3084 2975
L 922 459
L 3084 459
L 3084 0
L 275 0
L 275 525
L 2438 3041
L 353 3041
L 353 3500
z
" transform="scale(0.015625)"/>
      </defs>
      <use xlink:href="#DejaVuSans-49"/>
      <use xlink:href="#DejaVuSans-55" transform="translate(35.203125 0)"/>
      <use xlink:href="#DejaVuSans-44" transform="translate(76.3125 0)"/>
      <use xlink:href="#DejaVuSans-46" transform="translate(137.59375 0)"/>
      <use xlink:href="#DejaVuSans-57" transform="translate(192.578125 0)"/>
      <use xlink:href="#DejaVuSans-4c" transform="translate(231.78125 0)"/>
      <use xlink:href="#DejaVuSans-52" transform="translate(259.5625 0)"/>
      <use xlink:href="#DejaVuSans-51" transform="translate(320.75 0)"/>
      <use xlink:href="#DejaVuSans-3" transform="translate(384.125 0)"/>
      <use xlink:href="#DejaVuSans-52" transform="translate(415.90625 0)"/>
      <use xlink:href="#DejaVuSans-55" transform="translate(477.09375 0)"/>
      <use xlink:href="#DejaVuSans-3" transform="translate(518.203125 0)"/>
      <use xlink:href="#DejaVuSans-51" transform="translate(549.984375 0)"/>
      <use xlink:href="#DejaVuSans-52" transform="translate(613.359375 0)"/>
      <use xlink:href="#DejaVuSans-55" transform="translate(674.546875 0)"/>
      <use xlink:href="#DejaVuSans-50" transform="translate(713.90625 0)"/>
      <use xlink:href="#DejaVuSans-44" transform="translate(811.3125 0)"/>
      <use xlink:href="#DejaVuSans-4f" transform="translate(872.59375 0)"/>
      <use xlink:href="#DejaVuSans-4c" transform="translate(900.375 0)"/>
      <use xlink:href="#DejaVuSans-5d" transform="translate(928.15625 0)"/>
      <use xlink:href="#DejaVuSans-48" transform="translate(980.640625 0)"/>
      <use xlink:href="#DejaVuSans-47" transform="translate(1042.171875 0)"/>
      <use xlink:href="#DejaVuSans-3" transform="translate(1105.65625 0)"/>
      <use xlink:href="#DejaVuSans-47" transform="translate(1137.4375 0)"/>
      <use xlink:href="#DejaVuSans-55" transform="translate(1200.921875 0)"/>
      <use xlink:href="#DejaVuSans-4c" transform="translate(1242.03125 0)"/>
      <use xlink:href="#DejaVuSans-49" transform="translate(1269.8125 0)"/>
      <use xlink:href="#DejaVuSans-57" transform="translate(1303.265625 0)"/>
     </g>
    </g>
   </g>
   <g id="line2d_43">
    <path d="M 340.56264 210.719449
L 449.863339 208.542983
L 559.164038 207.683063
" clip-path="url(#p0628bc909c)" style="fill: none; stroke: #8c6bb1; stroke-width: 1.5; stroke-linecap: square"/>
    <defs>
     <path id="m23724a6af6" d="M 0 3
C 0.795609 3 1.55874 2.683901 2.12132 2.12132
C 2.683901 1.55874 3 0.795609 3 0
C 3 -0.795609 2.683901 -1.55874 2.12132 -2.12132
C 1.55874 -2.683901 0.795609 -3 0 -3
C -0.795609 -3 -1.55874 -2.683901 -2.12132 -2.12132
C -2.683901 -1.55874 -3 -0.795609 -3 0
C -3 0.795609 -2.683901 1.55874 -2.12132 2.12132
C -1.55874 2.683901 -0.795609 3 0 3
z
" style="stroke: #8c6bb1"/>
    </defs>
    <g clip-path="url(#p0628bc909c)">
     <use xlink:href="#m23724a6af6" x="340.56264" y="210.719449" style="fill: #8c6bb1; stroke: #8c6bb1"/>
     <use xlink:href="#m23724a6af6" x="449.863339" y="208.542983" style="fill: #8c6bb1; stroke: #8c6bb1"/>
     <use xlink:href="#m23724a6af6" x="559.164038" y="207.683063" style="fill: #8c6bb1; stroke: #8c6bb1"/>
    </g>
   </g>
   <g id="line2d_44">
    <path d="M 340.56264 211.187854
L 449.863339 28.327727
L 559.164038 27.312676
" clip-path="url(#p0628bc909c)" style="fill: none; stroke: #6a8f4e; stroke-width: 1.5; stroke-linecap: square"/>
    <defs>
     <path id="mbd2d27dfbb" d="M -3 3
L 3 3
L 3 -3
L -3 -3
z
" style="stroke: #6a8f4e; stroke-linejoin: miter"/>
    </defs>
    <g clip-path="url(#p0628bc909c)">
     <use xlink:href="#mbd2d27dfbb" x="340.56264" y="211.187854" style="fill: #6a8f4e; stroke: #6a8f4e; stroke-linejoin: miter"/>
     <use xlink:href="#mbd2d27dfbb" x="449.863339" y="28.327727" style="fill: #6a8f4e; stroke: #6a8f4e; stroke-linejoin: miter"/>
     <use xlink:href="#mbd2d27dfbb" x="559.164038" y="27.312676" style="fill: #6a8f4e; stroke: #6a8f4e; stroke-linejoin: miter"/>
    </g>
   </g>
   <g id="line2d_45">
    <path d="M 340.56264 211.198887
L 449.863339 183.707898
L 559.164038 32.575499
" clip-path="url(#p0628bc909c)" style="fill: none; stroke: #d88c3d; stroke-width: 1.5; stroke-linecap: square"/>
    <defs>
     <path id="ma2520374ea" d="M 0 -3
L -3 3
L 3 3
z
" style="stroke: #d88c3d; stroke-linejoin: miter"/>
    </defs>
    <g clip-path="url(#p0628bc909c)">
     <use xlink:href="#ma2520374ea" x="340.56264" y="211.198887" style="fill: #d88c3d; stroke: #d88c3d; stroke-linejoin: miter"/>
     <use xlink:href="#ma2520374ea" x="449.863339" y="183.707898" style="fill: #d88c3d; stroke: #d88c3d; stroke-linejoin: miter"/>
     <use xlink:href="#ma2520374ea" x="559.164038" y="32.575499" style="fill: #d88c3d; stroke: #d88c3d; stroke-linejoin: miter"/>
    </g>
   </g>
   <g id="patch_14">
    <path d="M 329.63257 220.393197
L 329.63257 18.118365
" style="fill: none; stroke: #000000; stroke-width: 0.8; stroke-linejoin: miter; stroke-linecap: square"/>
   </g>
   <g id="patch_15">
    <path d="M 329.63257 220.393197
L 570.094108 220.393197
" style="fill: none; stroke: #000000; stroke-width: 0.8; stroke-linejoin: miter; stroke-linecap: square"/>
   </g>
   <g id="text_27">
    <!-- Dynamics expose extrapolation -->
    <g transform="translate(355.076464 12.118365) scale(0.12 -0.12)">
     <defs>
      <path id="DejaVuSans-27" d="M 1259 4147
L 1259 519
L 2022 519
Q 2988 519 3436 956
Q 3884 1394 3884 2338
Q 3884 3275 3436 3711
Q 2988 4147 2022 4147
L 1259 4147
z
M 628 4666
L 1925 4666
Q 3281 4666 3915 4102
Q 4550 3538 4550 2338
Q 4550 1131 3912 565
Q 3275 0 1925 0
L 628 0
L 628 4666
z
" transform="scale(0.015625)"/>
     </defs>
     <use xlink:href="#DejaVuSans-27"/>
     <use xlink:href="#DejaVuSans-5c" transform="translate(77 0)"/>
     <use xlink:href="#DejaVuSans-51" transform="translate(136.1875 0)"/>
     <use xlink:href="#DejaVuSans-44" transform="translate(199.5625 0)"/>
     <use xlink:href="#DejaVuSans-50" transform="translate(260.84375 0)"/>
     <use xlink:href="#DejaVuSans-4c" transform="translate(358.25 0)"/>
     <use xlink:href="#DejaVuSans-46" transform="translate(386.03125 0)"/>
     <use xlink:href="#DejaVuSans-56" transform="translate(441.015625 0)"/>
     <use xlink:href="#DejaVuSans-3" transform="translate(493.109375 0)"/>
     <use xlink:href="#DejaVuSans-48" transform="translate(524.890625 0)"/>
     <use xlink:href="#DejaVuSans-5b" transform="translate(584.671875 0)"/>
     <use xlink:href="#DejaVuSans-53" transform="translate(643.859375 0)"/>
     <use xlink:href="#DejaVuSans-52" transform="translate(707.34375 0)"/>
     <use xlink:href="#DejaVuSans-56" transform="translate(768.53125 0)"/>
     <use xlink:href="#DejaVuSans-48" transform="translate(820.625 0)"/>
     <use xlink:href="#DejaVuSans-3" transform="translate(882.15625 0)"/>
     <use xlink:href="#DejaVuSans-48" transform="translate(913.9375 0)"/>
     <use xlink:href="#DejaVuSans-5b" transform="translate(973.71875 0)"/>
     <use xlink:href="#DejaVuSans-57" transform="translate(1032.90625 0)"/>
     <use xlink:href="#DejaVuSans-55" transform="translate(1072.109375 0)"/>
     <use xlink:href="#DejaVuSans-44" transform="translate(1113.21875 0)"/>
     <use xlink:href="#DejaVuSans-53" transform="translate(1174.5 0)"/>
     <use xlink:href="#DejaVuSans-52" transform="translate(1237.984375 0)"/>
     <use xlink:href="#DejaVuSans-4f" transform="translate(1299.171875 0)"/>
     <use xlink:href="#DejaVuSans-44" transform="translate(1326.953125 0)"/>
     <use xlink:href="#DejaVuSans-57" transform="translate(1388.234375 0)"/>
     <use xlink:href="#DejaVuSans-4c" transform="translate(1427.4375 0)"/>
     <use xlink:href="#DejaVuSans-52" transform="translate(1455.21875 0)"/>
     <use xlink:href="#DejaVuSans-51" transform="translate(1516.40625 0)"/>
    </g>
   </g>
   <g id="legend_2">
    <g id="line2d_46">
     <path d="M 336.65257 28.335146
L 344.45257 28.335146
L 352.25257 28.335146
" style="fill: none; stroke: #8c6bb1; stroke-width: 1.5; stroke-linecap: square"/>
     <g>
      <use xlink:href="#m23724a6af6" x="344.45257" y="28.335146" style="fill: #8c6bb1; stroke: #8c6bb1"/>
     </g>
    </g>
    <g id="text_28">
     <!-- NVE drift -->
     <g transform="translate(358.49257 31.065146) scale(0.078 -0.078)">
      <defs>
       <path id="DejaVuSans-31" d="M 628 4666
L 1478 4666
L 3547 763
L 3547 4666
L 4159 4666
L 4159 0
L 3309 0
L 1241 3903
L 1241 0
L 628 0
L 628 4666
z
" transform="scale(0.015625)"/>
       <path id="DejaVuSans-39" d="M 1831 0
L 50 4666
L 709 4666
L 2188 738
L 3669 4666
L 4325 4666
L 2547 0
L 1831 0
z
" transform="scale(0.015625)"/>
      </defs>
      <use xlink:href="#DejaVuSans-31"/>
      <use xlink:href="#DejaVuSans-39" transform="translate(74.8125 0)"/>
      <use xlink:href="#DejaVuSans-28" transform="translate(143.21875 0)"/>
      <use xlink:href="#DejaVuSans-3" transform="translate(206.40625 0)"/>
      <use xlink:href="#DejaVuSans-47" transform="translate(238.1875 0)"/>
      <use xlink:href="#DejaVuSans-55" transform="translate(301.671875 0)"/>
      <use xlink:href="#DejaVuSans-4c" transform="translate(342.78125 0)"/>
      <use xlink:href="#DejaVuSans-49" transform="translate(370.5625 0)"/>
      <use xlink:href="#DejaVuSans-57" transform="translate(404.015625 0)"/>
     </g>
    </g>
    <g id="line2d_47">
     <path d="M 336.65257 40.035756
L 344.45257 40.035756
L 352.25257 40.035756
" style="fill: none; stroke: #6a8f4e; stroke-width: 1.5; stroke-linecap: square"/>
     <g>
      <use xlink:href="#mbd2d27dfbb" x="344.45257" y="40.035756" style="fill: #6a8f4e; stroke: #6a8f4e; stroke-linejoin: miter"/>
     </g>
    </g>
    <g id="text_29">
     <!-- extrapolation fraction -->
     <g transform="translate(358.49257 42.765756) scale(0.078 -0.078)">
      <use xlink:href="#DejaVuSans-48"/>
      <use xlink:href="#DejaVuSans-5b" transform="translate(59.78125 0)"/>
      <use xlink:href="#DejaVuSans-57" transform="translate(118.96875 0)"/>
      <use xlink:href="#DejaVuSans-55" transform="translate(158.171875 0)"/>
      <use xlink:href="#DejaVuSans-44" transform="translate(199.28125 0)"/>
      <use xlink:href="#DejaVuSans-53" transform="translate(260.5625 0)"/>
      <use xlink:href="#DejaVuSans-52" transform="translate(324.046875 0)"/>
      <use xlink:href="#DejaVuSans-4f" transform="translate(385.234375 0)"/>
      <use xlink:href="#DejaVuSans-44" transform="translate(413.015625 0)"/>
      <use xlink:href="#DejaVuSans-57" transform="translate(474.296875 0)"/>
      <use xlink:href="#DejaVuSans-4c" transform="translate(513.5 0)"/>
      <use xlink:href="#DejaVuSans-52" transform="translate(541.28125 0)"/>
      <use xlink:href="#DejaVuSans-51" transform="translate(602.46875 0)"/>
      <use xlink:href="#DejaVuSans-3" transform="translate(665.84375 0)"/>
      <use xlink:href="#DejaVuSans-49" transform="translate(697.625 0)"/>
      <use xlink:href="#DejaVuSans-55" transform="translate(732.828125 0)"/>
      <use xlink:href="#DejaVuSans-44" transform="translate(773.9375 0)"/>
      <use xlink:href="#DejaVuSans-46" transform="translate(835.21875 0)"/>
      <use xlink:href="#DejaVuSans-57" transform="translate(890.203125 0)"/>
      <use xlink:href="#DejaVuSans-4c" transform="translate(929.40625 0)"/>
      <use xlink:href="#DejaVuSans-52" transform="translate(957.1875 0)"/>
      <use xlink:href="#DejaVuSans-51" transform="translate(1018.375 0)"/>
     </g>
    </g>
    <g id="line2d_48">
     <path d="M 336.65257 51.736365
L 344.45257 51.736365
L 352.25257 51.736365
" style="fill: none; stroke: #d88c3d; stroke-width: 1.5; stroke-linecap: square"/>
     <g>
      <use xlink:href="#ma2520374ea" x="344.45257" y="51.736365" style="fill: #d88c3d; stroke: #d88c3d; stroke-linejoin: miter"/>
     </g>
    </g>
    <g id="text_30">
     <!-- neighbor-list risk -->
     <g transform="translate(358.49257 54.466365) scale(0.078 -0.078)">
      <defs>
       <path id="DejaVuSans-4a" d="M 2906 1791
Q 2906 2416 2648 2759
Q 2391 3103 1925 3103
Q 1463 3103 1205 2759
Q 947 2416 947 1791
Q 947 1169 1205 825
Q 1463 481 1925 481
Q 2391 481 2648 825
Q 2906 1169 2906 1791
z
M 3481 434
Q 3481 -459 3084 -895
Q 2688 -1331 1869 -1331
Q 1566 -1331 1297 -1286
Q 1028 -1241 775 -1147
L 775 -588
Q 1028 -725 1275 -790
Q 1522 -856 1778 -856
Q 2344 -856 2625 -561
Q 2906 -266 2906 331
L 2906 616
Q 2728 306 2450 153
Q 2172 0 1784 0
Q 1141 0 747 490
Q 353 981 353 1791
Q 353 2603 747 3093
Q 1141 3584 1784 3584
Q 2172 3584 2450 3431
Q 2728 3278 2906 2969
L 2906 3500
L 3481 3500
L 3481 434
z
" transform="scale(0.015625)"/>
       <path id="DejaVuSans-10" d="M 313 2009
L 1997 2009
L 1997 1497
L 313 1497
L 313 2009
z
" transform="scale(0.015625)"/>
      </defs>
      <use xlink:href="#DejaVuSans-51"/>
      <use xlink:href="#DejaVuSans-48" transform="translate(63.375 0)"/>
      <use xlink:href="#DejaVuSans-4c" transform="translate(124.90625 0)"/>
      <use xlink:href="#DejaVuSans-4a" transform="translate(152.6875 0)"/>
      <use xlink:href="#DejaVuSans-4b" transform="translate(216.171875 0)"/>
      <use xlink:href="#DejaVuSans-45" transform="translate(279.546875 0)"/>
      <use xlink:href="#DejaVuSans-52" transform="translate(343.03125 0)"/>
      <use xlink:href="#DejaVuSans-55" transform="translate(404.21875 0)"/>
      <use xlink:href="#DejaVuSans-10" transform="translate(438.9375 0)"/>
      <use xlink:href="#DejaVuSans-4f" transform="translate(475.015625 0)"/>
      <use xlink:href="#DejaVuSans-4c" transform="translate(502.796875 0)"/>
      <use xlink:href="#DejaVuSans-56" transform="translate(530.578125 0)"/>
      <use xlink:href="#DejaVuSans-57" transform="translate(582.671875 0)"/>
      <use xlink:href="#DejaVuSans-3" transform="translate(621.875 0)"/>
      <use xlink:href="#DejaVuSans-55" transform="translate(653.65625 0)"/>
      <use xlink:href="#DejaVuSans-4c" transform="translate(694.765625 0)"/>
      <use xlink:href="#DejaVuSans-56" transform="translate(722.546875 0)"/>
      <use xlink:href="#DejaVuSans-4e" transform="translate(774.640625 0)"/>
     </g>
    </g>
   </g>
  </g>
  <g id="axes_3">
   <g id="patch_16">
    <path d="M 634.938222 220.393197
L 875.39976 220.393197
L 875.39976 18.118365
L 634.938222 18.118365
z
" style="fill: #ffffff"/>
   </g>
   <g id="matplotlib.axis_5">
    <g id="xtick_7">
     <g id="line2d_49">
      <path d="M 645.868292 220.393197
L 645.868292 18.118365
" clip-path="url(#p1db197dc89)" style="fill: none; stroke: #b0b0b0; stroke-opacity: 0.18; stroke-width: 0.6; stroke-linecap: square"/>
     </g>
     <g id="line2d_50">
      <g>
       <use xlink:href="#ma4edccae7c" x="645.868292" y="220.393197" style="stroke: #000000; stroke-width: 0.8"/>
      </g>
     </g>
     <g id="text_31">
      <!-- 0 -->
      <g transform="translate(642.687042 234.990854) scale(0.1 -0.1)">
       <use xlink:href="#DejaVuSans-13"/>
      </g>
     </g>
    </g>
    <g id="xtick_8">
     <g id="line2d_51">
      <path d="M 700.518642 220.393197
L 700.518642 18.118365
" clip-path="url(#p1db197dc89)" style="fill: none; stroke: #b0b0b0; stroke-opacity: 0.18; stroke-width: 0.6; stroke-linecap: square"/>
     </g>
     <g id="line2d_52">
      <g>
       <use xlink:href="#ma4edccae7c" x="700.518642" y="220.393197" style="stroke: #000000; stroke-width: 0.8"/>
      </g>
     </g>
     <g id="text_32">
      <!-- 1 -->
      <g transform="translate(697.337392 234.990854) scale(0.1 -0.1)">
       <use xlink:href="#DejaVuSans-14"/>
      </g>
     </g>
    </g>
    <g id="xtick_9">
     <g id="line2d_53">
      <path d="M 755.168991 220.393197
L 755.168991 18.118365
" clip-path="url(#p1db197dc89)" style="fill: none; stroke: #b0b0b0; stroke-opacity: 0.18; stroke-width: 0.6; stroke-linecap: square"/>
     </g>
     <g id="line2d_54">
      <g>
       <use xlink:href="#ma4edccae7c" x="755.168991" y="220.393197" style="stroke: #000000; stroke-width: 0.8"/>
      </g>
     </g>
     <g id="text_33">
      <!-- 2 -->
      <g transform="translate(751.987741 234.990854) scale(0.1 -0.1)">
       <use xlink:href="#DejaVuSans-15"/>
      </g>
     </g>
    </g>
    <g id="xtick_10">
     <g id="line2d_55">
      <path d="M 809.819341 220.393197
L 809.819341 18.118365
" clip-path="url(#p1db197dc89)" style="fill: none; stroke: #b0b0b0; stroke-opacity: 0.18; stroke-width: 0.6; stroke-linecap: square"/>
     </g>
     <g id="line2d_56">
      <g>
       <use xlink:href="#ma4edccae7c" x="809.819341" y="220.393197" style="stroke: #000000; stroke-width: 0.8"/>
      </g>
     </g>
     <g id="text_34">
      <!-- 3 -->
      <g transform="translate(806.638091 234.990854) scale(0.1 -0.1)">
       <defs>
        <path id="DejaVuSans-16" d="M 2597 2516
Q 3050 2419 3304 2112
Q 3559 1806 3559 1356
Q 3559 666 3084 287
Q 2609 -91 1734 -91
Q 1441 -91 1130 -33
Q 819 25 488 141
L 488 750
Q 750 597 1062 519
Q 1375 441 1716 441
Q 2309 441 2620 675
Q 2931 909 2931 1356
Q 2931 1769 2642 2001
Q 2353 2234 1838 2234
L 1294 2234
L 1294 2753
L 1863 2753
Q 2328 2753 2575 2939
Q 2822 3125 2822 3475
Q 2822 3834 2567 4026
Q 2313 4219 1838 4219
Q 1578 4219 1281 4162
Q 984 4106 628 3988
L 628 4550
Q 988 4650 1302 4700
Q 1616 4750 1894 4750
Q 2613 4750 3031 4423
Q 3450 4097 3450 3541
Q 3450 3153 3228 2886
Q 3006 2619 2597 2516
z
" transform="scale(0.015625)"/>
       </defs>
       <use xlink:href="#DejaVuSans-16"/>
      </g>
     </g>
    </g>
    <g id="xtick_11">
     <g id="line2d_57">
      <path d="M 864.46969 220.393197
L 864.46969 18.118365
" clip-path="url(#p1db197dc89)" style="fill: none; stroke: #b0b0b0; stroke-opacity: 0.18; stroke-width: 0.6; stroke-linecap: square"/>
     </g>
     <g id="line2d_58">
      <g>
       <use xlink:href="#ma4edccae7c" x="864.46969" y="220.393197" style="stroke: #000000; stroke-width: 0.8"/>
      </g>
     </g>
     <g id="text_35">
      <!-- 4 -->
      <g transform="translate(861.28844 234.990854) scale(0.1 -0.1)">
       <use xlink:href="#DejaVuSans-17"/>
      </g>
     </g>
    </g>
    <g id="text_36">
     <!-- |force error| / uncertainty -->
     <g transform="translate(691.933054 249.035385) scale(0.1 -0.1)">
      <defs>
       <path id="DejaVuSans-5f" d="M 1344 4891
L 1344 -1509
L 813 -1509
L 813 4891
L 1344 4891
z
" transform="scale(0.015625)"/>
       <path id="DejaVuSans-12" d="M 1625 4666
L 2156 4666
L 531 -594
L 0 -594
L 1625 4666
z
" transform="scale(0.015625)"/>
       <path id="DejaVuSans-58" d="M 544 1381
L 544 3500
L 1119 3500
L 1119 1403
Q 1119 906 1312 657
Q 1506 409 1894 409
Q 2359 409 2629 706
Q 2900 1003 2900 1516
L 2900 3500
L 3475 3500
L 3475 0
L 2900 0
L 2900 538
Q 2691 219 2414 64
Q 2138 -91 1772 -91
Q 1169 -91 856 284
Q 544 659 544 1381
z
M 1991 3584
L 1991 3584
z
" transform="scale(0.015625)"/>
      </defs>
      <use xlink:href="#DejaVuSans-5f"/>
      <use xlink:href="#DejaVuSans-49" transform="translate(33.6875 0)"/>
      <use xlink:href="#DejaVuSans-52" transform="translate(68.890625 0)"/>
      <use xlink:href="#DejaVuSans-55" transform="translate(130.078125 0)"/>
      <use xlink:href="#DejaVuSans-46" transform="translate(168.984375 0)"/>
      <use xlink:href="#DejaVuSans-48" transform="translate(223.96875 0)"/>
      <use xlink:href="#DejaVuSans-3" transform="translate(285.5 0)"/>
      <use xlink:href="#DejaVuSans-48" transform="translate(317.28125 0)"/>
      <use xlink:href="#DejaVuSans-55" transform="translate(378.8125 0)"/>
      <use xlink:href="#DejaVuSans-55" transform="translate(418.171875 0)"/>
      <use xlink:href="#DejaVuSans-52" transform="translate(457.078125 0)"/>
      <use xlink:href="#DejaVuSans-55" transform="translate(518.265625 0)"/>
      <use xlink:href="#DejaVuSans-5f" transform="translate(559.375 0)"/>
      <use xlink:href="#DejaVuSans-3" transform="translate(593.0625 0)"/>
      <use xlink:href="#DejaVuSans-12" transform="translate(624.84375 0)"/>
      <use xlink:href="#DejaVuSans-3" transform="translate(658.53125 0)"/>
      <use xlink:href="#DejaVuSans-58" transform="translate(690.3125 0)"/>
      <use xlink:href="#DejaVuSans-51" transform="translate(753.6875 0)"/>
      <use xlink:href="#DejaVuSans-46" transform="translate(817.0625 0)"/>
      <use xlink:href="#DejaVuSans-48" transform="translate(872.046875 0)"/>
      <use xlink:href="#DejaVuSans-55" transform="translate(933.578125 0)"/>
      <use xlink:href="#DejaVuSans-57" transform="translate(974.6875 0)"/>
      <use xlink:href="#DejaVuSans-44" transform="translate(1013.890625 0)"/>
      <use xlink:href="#DejaVuSans-4c" transform="translate(1075.171875 0)"/>
      <use xlink:href="#DejaVuSans-51" transform="translate(1102.953125 0)"/>
      <use xlink:href="#DejaVuSans-57" transform="translate(1166.328125 0)"/>
      <use xlink:href="#DejaVuSans-5c" transform="translate(1205.53125 0)"/>
     </g>
    </g>
   </g>
   <g id="matplotlib.axis_6">
    <g id="ytick_16">
     <g id="line2d_59">
      <path d="M 634.938222 220.393197
L 875.39976 220.393197
" clip-path="url(#p1db197dc89)" style="fill: none; stroke: #b0b0b0; stroke-opacity: 0.18; stroke-width: 0.6; stroke-linecap: square"/>
     </g>
     <g id="line2d_60">
      <g>
       <use xlink:href="#m7267ccaf8b" x="634.938222" y="220.393197" style="stroke: #000000; stroke-width: 0.8"/>
      </g>
     </g>
     <g id="text_37">
      <!-- 0.00 -->
      <g transform="translate(605.672597 224.192026) scale(0.1 -0.1)">
       <use xlink:href="#DejaVuSans-13"/>
       <use xlink:href="#DejaVuSans-11" transform="translate(63.625 0)"/>
       <use xlink:href="#DejaVuSans-13" transform="translate(95.40625 0)"/>
       <use xlink:href="#DejaVuSans-13" transform="translate(159.03125 0)"/>
      </g>
     </g>
    </g>
    <g id="ytick_17">
     <g id="line2d_61">
      <path d="M 634.938222 196.875777
L 875.39976 196.875777
" clip-path="url(#p1db197dc89)" style="fill: none; stroke: #b0b0b0; stroke-opacity: 0.18; stroke-width: 0.6; stroke-linecap: square"/>
     </g>
     <g id="line2d_62">
      <g>
       <use xlink:href="#m7267ccaf8b" x="634.938222" y="196.875777" style="stroke: #000000; stroke-width: 0.8"/>
      </g>
     </g>
     <g id="text_38">
      <!-- 0.25 -->
      <g transform="translate(605.672597 200.674605) scale(0.1 -0.1)">
       <defs>
        <path id="DejaVuSans-18" d="M 691 4666
L 3169 4666
L 3169 4134
L 1269 4134
L 1269 2991
Q 1406 3038 1543 3061
Q 1681 3084 1819 3084
Q 2600 3084 3056 2656
Q 3513 2228 3513 1497
Q 3513 744 3044 326
Q 2575 -91 1722 -91
Q 1428 -91 1123 -41
Q 819 9 494 109
L 494 744
Q 775 591 1075 516
Q 1375 441 1709 441
Q 2250 441 2565 725
Q 2881 1009 2881 1497
Q 2881 1984 2565 2268
Q 2250 2553 1709 2553
Q 1456 2553 1204 2497
Q 953 2441 691 2322
L 691 4666
z
" transform="scale(0.015625)"/>
       </defs>
       <use xlink:href="#DejaVuSans-13"/>
       <use xlink:href="#DejaVuSans-11" transform="translate(63.625 0)"/>
       <use xlink:href="#DejaVuSans-15" transform="translate(95.40625 0)"/>
       <use xlink:href="#DejaVuSans-18" transform="translate(159.03125 0)"/>
      </g>
     </g>
    </g>
    <g id="ytick_18">
     <g id="line2d_63">
      <path d="M 634.938222 173.358357
L 875.39976 173.358357
" clip-path="url(#p1db197dc89)" style="fill: none; stroke: #b0b0b0; stroke-opacity: 0.18; stroke-width: 0.6; stroke-linecap: square"/>
     </g>
     <g id="line2d_64">
      <g>
       <use xlink:href="#m7267ccaf8b" x="634.938222" y="173.358357" style="stroke: #000000; stroke-width: 0.8"/>
      </g>
     </g>
     <g id="text_39">
      <!-- 0.50 -->
      <g transform="translate(605.672597 177.157185) scale(0.1 -0.1)">
       <use xlink:href="#DejaVuSans-13"/>
       <use xlink:href="#DejaVuSans-11" transform="translate(63.625 0)"/>
       <use xlink:href="#DejaVuSans-18" transform="translate(95.40625 0)"/>
       <use xlink:href="#DejaVuSans-13" transform="translate(159.03125 0)"/>
      </g>
     </g>
    </g>
    <g id="ytick_19">
     <g id="line2d_65">
      <path d="M 634.938222 149.840937
L 875.39976 149.840937
" clip-path="url(#p1db197dc89)" style="fill: none; stroke: #b0b0b0; stroke-opacity: 0.18; stroke-width: 0.6; stroke-linecap: square"/>
     </g>
     <g id="line2d_66">
      <g>
       <use xlink:href="#m7267ccaf8b" x="634.938222" y="149.840937" style="stroke: #000000; stroke-width: 0.8"/>
      </g>
     </g>
     <g id="text_40">
      <!-- 0.75 -->
      <g transform="translate(605.672597 153.639765) scale(0.1 -0.1)">
       <defs>
        <path id="DejaVuSans-1a" d="M 525 4666
L 3525 4666
L 3525 4397
L 1831 0
L 1172 0
L 2766 4134
L 525 4134
L 525 4666
z
" transform="scale(0.015625)"/>
       </defs>
       <use xlink:href="#DejaVuSans-13"/>
       <use xlink:href="#DejaVuSans-11" transform="translate(63.625 0)"/>
       <use xlink:href="#DejaVuSans-1a" transform="translate(95.40625 0)"/>
       <use xlink:href="#DejaVuSans-18" transform="translate(159.03125 0)"/>
      </g>
     </g>
    </g>
    <g id="ytick_20">
     <g id="line2d_67">
      <path d="M 634.938222 126.323517
L 875.39976 126.323517
" clip-path="url(#p1db197dc89)" style="fill: none; stroke: #b0b0b0; stroke-opacity: 0.18; stroke-width: 0.6; stroke-linecap: square"/>
     </g>
     <g id="line2d_68">
      <g>
       <use xlink:href="#m7267ccaf8b" x="634.938222" y="126.323517" style="stroke: #000000; stroke-width: 0.8"/>
      </g>
     </g>
     <g id="text_41">
      <!-- 1.00 -->
      <g transform="translate(605.672597 130.122345) scale(0.1 -0.1)">
       <use xlink:href="#DejaVuSans-14"/>
       <use xlink:href="#DejaVuSans-11" transform="translate(63.625 0)"/>
       <use xlink:href="#DejaVuSans-13" transform="translate(95.40625 0)"/>
       <use xlink:href="#DejaVuSans-13" transform="translate(159.03125 0)"/>
      </g>
     </g>
    </g>
    <g id="ytick_21">
     <g id="line2d_69">
      <path d="M 634.938222 102.806096
L 875.39976 102.806096
" clip-path="url(#p1db197dc89)" style="fill: none; stroke: #b0b0b0; stroke-opacity: 0.18; stroke-width: 0.6; stroke-linecap: square"/>
     </g>
     <g id="line2d_70">
      <g>
       <use xlink:href="#m7267ccaf8b" x="634.938222" y="102.806096" style="stroke: #000000; stroke-width: 0.8"/>
      </g>
     </g>
     <g id="text_42">
      <!-- 1.25 -->
      <g transform="translate(605.672597 106.604924) scale(0.1 -0.1)">
       <use xlink:href="#DejaVuSans-14"/>
       <use xlink:href="#DejaVuSans-11" transform="translate(63.625 0)"/>
       <use xlink:href="#DejaVuSans-15" transform="translate(95.40625 0)"/>
       <use xlink:href="#DejaVuSans-18" transform="translate(159.03125 0)"/>
      </g>
     </g>
    </g>
    <g id="ytick_22">
     <g id="line2d_71">
      <path d="M 634.938222 79.288676
L 875.39976 79.288676
" clip-path="url(#p1db197dc89)" style="fill: none; stroke: #b0b0b0; stroke-opacity: 0.18; stroke-width: 0.6; stroke-linecap: square"/>
     </g>
     <g id="line2d_72">
      <g>
       <use xlink:href="#m7267ccaf8b" x="634.938222" y="79.288676" style="stroke: #000000; stroke-width: 0.8"/>
      </g>
     </g>
     <g id="text_43">
      <!-- 1.50 -->
      <g transform="translate(605.672597 83.087504) scale(0.1 -0.1)">
       <use xlink:href="#DejaVuSans-14"/>
       <use xlink:href="#DejaVuSans-11" transform="translate(63.625 0)"/>
       <use xlink:href="#DejaVuSans-18" transform="translate(95.40625 0)"/>
       <use xlink:href="#DejaVuSans-13" transform="translate(159.03125 0)"/>
      </g>
     </g>
    </g>
    <g id="ytick_23">
     <g id="line2d_73">
      <path d="M 634.938222 55.771256
L 875.39976 55.771256
" clip-path="url(#p1db197dc89)" style="fill: none; stroke: #b0b0b0; stroke-opacity: 0.18; stroke-width: 0.6; stroke-linecap: square"/>
     </g>
     <g id="line2d_74">
      <g>
       <use xlink:href="#m7267ccaf8b" x="634.938222" y="55.771256" style="stroke: #000000; stroke-width: 0.8"/>
      </g>
     </g>
     <g id="text_44">
      <!-- 1.75 -->
      <g transform="translate(605.672597 59.570084) scale(0.1 -0.1)">
       <use xlink:href="#DejaVuSans-14"/>
       <use xlink:href="#DejaVuSans-11" transform="translate(63.625 0)"/>
       <use xlink:href="#DejaVuSans-1a" transform="translate(95.40625 0)"/>
       <use xlink:href="#DejaVuSans-18" transform="translate(159.03125 0)"/>
      </g>
     </g>
    </g>
    <g id="ytick_24">
     <g id="line2d_75">
      <path d="M 634.938222 32.253836
L 875.39976 32.253836
" clip-path="url(#p1db197dc89)" style="fill: none; stroke: #b0b0b0; stroke-opacity: 0.18; stroke-width: 0.6; stroke-linecap: square"/>
     </g>
     <g id="line2d_76">
      <g>
       <use xlink:href="#m7267ccaf8b" x="634.938222" y="32.253836" style="stroke: #000000; stroke-width: 0.8"/>
      </g>
     </g>
     <g id="text_45">
      <!-- 2.00 -->
      <g transform="translate(605.672597 36.052664) scale(0.1 -0.1)">
       <use xlink:href="#DejaVuSans-15"/>
       <use xlink:href="#DejaVuSans-11" transform="translate(63.625 0)"/>
       <use xlink:href="#DejaVuSans-13" transform="translate(95.40625 0)"/>
       <use xlink:href="#DejaVuSans-13" transform="translate(159.03125 0)"/>
      </g>
     </g>
    </g>
    <g id="text_46">
     <!-- density -->
     <g transform="translate(599.270254 137.588594) rotate(-90) scale(0.1 -0.1)">
      <use xlink:href="#DejaVuSans-47"/>
      <use xlink:href="#DejaVuSans-48" transform="translate(63.484375 0)"/>
      <use xlink:href="#DejaVuSans-51" transform="translate(125.015625 0)"/>
      <use xlink:href="#DejaVuSans-56" transform="translate(188.390625 0)"/>
      <use xlink:href="#DejaVuSans-4c" transform="translate(240.484375 0)"/>
      <use xlink:href="#DejaVuSans-57" transform="translate(268.265625 0)"/>
      <use xlink:href="#DejaVuSans-5c" transform="translate(307.46875 0)"/>
     </g>
    </g>
   </g>
   <g id="patch_17">
    <path d="M 645.868292 220.393197
L 645.868292 111.628421
L 652.114047 111.628421
L 652.114047 130.063129
L 658.359801 130.063129
L 658.359801 118.080569
L 664.605555 118.080569
L 664.605555 127.297923
L 670.851309 127.297923
L 670.851309 133.75007
L 677.097063 133.75007
L 677.097063 148.497837
L 683.342818 148.497837
L 683.342818 171.541222
L 689.588572 171.541222
L 689.588572 166.010809
L 695.834326 166.010809
L 695.834326 189.975929
L 702.08008 189.975929
L 702.08008 181.680311
L 708.325835 181.680311
L 708.325835 187.210723
L 714.571589 187.210723
L 714.571589 198.271548
L 720.817343 198.271548
L 720.817343 210.254108
L 727.063097 210.254108
L 727.063097 205.645431
L 733.308851 205.645431
L 733.308851 211.175844
L 739.554606 211.175844
L 739.554606 216.706256
L 745.80036 216.706256
L 745.80036 219.471462
L 752.046114 219.471462
L 752.046114 219.471462
L 758.291868 219.471462
L 758.291868 218.549727
L 764.537623 218.549727
L 764.537623 219.471462
L 770.783377 219.471462
L 770.783377 220.393197
L 777.029131 220.393197
L 777.029131 220.393197
L 783.274885 220.393197
L 783.274885 220.393197
L 789.520639 220.393197
L 789.520639 220.393197
L 795.766394 220.393197
L 795.766394 220.393197
L 802.012148 220.393197
L 802.012148 220.393197
L 808.257902 220.393197
L 808.257902 220.393197
L 814.503656 220.393197
L 814.503656 220.393197
L 820.749411 220.393197
L 820.749411 220.393197
L 826.995165 220.393197
L 826.995165 220.393197
L 833.240919 220.393197
L 833.240919 220.393197
L 839.486673 220.393197
L 839.486673 220.393197
L 845.732427 220.393197
L 845.732427 220.393197
L 851.978182 220.393197
L 851.978182 220.393197
L 858.223936 220.393197
L 858.223936 220.393197
L 864.46969 220.393197
L 864.46969 220.393197
" clip-path="url(#p1db197dc89)" style="fill: none; stroke: #2f6f9f; stroke-width: 1.4; stroke-linejoin: miter"/>
   </g>
   <g id="patch_18">
    <path d="M 645.868292 220.393197
L 645.868292 56.324297
L 652.114047 56.324297
L 652.114047 68.306857
L 658.359801 68.306857
L 658.359801 80.289417
L 664.605555 80.289417
L 664.605555 107.019744
L 670.851309 107.019744
L 670.851309 143.88916
L 677.097063 143.88916
L 677.097063 158.636926
L 683.342818 158.636926
L 683.342818 173.384692
L 689.588572 173.384692
L 689.588572 191.8194
L 695.834326 191.8194
L 695.834326 203.80196
L 702.08008 203.80196
L 702.08008 211.175844
L 708.325835 211.175844
L 708.325835 213.94105
L 714.571589 213.94105
L 714.571589 215.784521
L 720.817343 215.784521
L 720.817343 218.549727
L 727.063097 218.549727
L 727.063097 220.393197
L 733.308851 220.393197
L 733.308851 219.471462
L 739.554606 219.471462
L 739.554606 220.393197
L 745.80036 220.393197
L 745.80036 220.393197
L 752.046114 220.393197
L 752.046114 220.393197
L 758.291868 220.393197
L 758.291868 220.393197
L 764.537623 220.393197
L 764.537623 220.393197
L 770.783377 220.393197
L 770.783377 220.393197
L 777.029131 220.393197
L 777.029131 220.393197
L 783.274885 220.393197
L 783.274885 220.393197
L 789.520639 220.393197
L 789.520639 220.393197
L 795.766394 220.393197
L 795.766394 220.393197
L 802.012148 220.393197
L 802.012148 220.393197
L 808.257902 220.393197
L 808.257902 220.393197
L 814.503656 220.393197
L 814.503656 220.393197
L 820.749411 220.393197
L 820.749411 220.393197
L 826.995165 220.393197
L 826.995165 220.393197
L 833.240919 220.393197
L 833.240919 220.393197
L 839.486673 220.393197
L 839.486673 220.393197
L 845.732427 220.393197
L 845.732427 220.393197
L 851.978182 220.393197
L 851.978182 220.393197
L 858.223936 220.393197
L 858.223936 220.393197
L 864.46969 220.393197
L 864.46969 220.393197
" clip-path="url(#p1db197dc89)" style="fill: none; stroke: #d88c3d; stroke-width: 1.4; stroke-linejoin: miter"/>
   </g>
   <g id="patch_19">
    <path d="M 645.868292 220.393197
L 645.868292 27.7505
L 652.114047 27.7505
L 652.114047 42.498266
L 658.359801 42.498266
L 658.359801 78.445947
L 664.605555 78.445947
L 664.605555 112.550156
L 670.851309 112.550156
L 670.851309 139.280483
L 677.097063 139.280483
L 677.097063 174.306428
L 683.342818 174.306428
L 683.342818 180.758576
L 689.588572 180.758576
L 689.588572 200.115019
L 695.834326 200.115019
L 695.834326 215.784521
L 702.08008 215.784521
L 702.08008 213.019314
L 708.325835 213.019314
L 708.325835 217.627991
L 714.571589 217.627991
L 714.571589 220.393197
L 720.817343 220.393197
L 720.817343 219.471462
L 727.063097 219.471462
L 727.063097 220.393197
L 733.308851 220.393197
L 733.308851 220.393197
L 739.554606 220.393197
L 739.554606 220.393197
L 745.80036 220.393197
L 745.80036 220.393197
L 752.046114 220.393197
L 752.046114 220.393197
L 758.291868 220.393197
L 758.291868 220.393197
L 764.537623 220.393197
L 764.537623 220.393197
L 770.783377 220.393197
L 770.783377 220.393197
L 777.029131 220.393197
L 777.029131 220.393197
L 783.274885 220.393197
L 783.274885 220.393197
L 789.520639 220.393197
L 789.520639 220.393197
L 795.766394 220.393197
L 795.766394 220.393197
L 802.012148 220.393197
L 802.012148 220.393197
L 808.257902 220.393197
L 808.257902 220.393197
L 814.503656 220.393197
L 814.503656 220.393197
L 820.749411 220.393197
L 820.749411 220.393197
L 826.995165 220.393197
L 826.995165 220.393197
L 833.240919 220.393197
L 833.240919 220.393197
L 839.486673 220.393197
L 839.486673 220.393197
L 845.732427 220.393197
L 845.732427 220.393197
L 851.978182 220.393197
L 851.978182 220.393197
L 858.223936 220.393197
L 858.223936 220.393197
L 864.46969 220.393197
L 864.46969 220.393197
" clip-path="url(#p1db197dc89)" style="fill: none; stroke: #8c6bb1; stroke-width: 1.4; stroke-linejoin: miter"/>
   </g>
   <g id="line2d_77">
    <path d="M 755.168991 220.393197
L 755.168991 18.118365
" clip-path="url(#p1db197dc89)" style="fill: none; stroke-dasharray: 3.33,1.44; stroke-dashoffset: 0; stroke: #333333; stroke-width: 0.9"/>
   </g>
   <g id="patch_20">
    <path d="M 634.938222 220.393197
L 634.938222 18.118365
" style="fill: none; stroke: #000000; stroke-width: 0.8; stroke-linejoin: miter; stroke-linecap: square"/>
   </g>
   <g id="patch_21">
    <path d="M 634.938222 220.393197
L 875.39976 220.393197
" style="fill: none; stroke: #000000; stroke-width: 0.8; stroke-linejoin: miter; stroke-linecap: square"/>
   </g>
   <g id="text_47">
    <g id="patch_22">
     <path d="M 642.152069 47.653733
L 757.708319 47.653733
Q 759.948319 47.653733 759.948319 45.413733
L 759.948319 26.209358
Q 759.948319 23.969358 757.708319 23.969358
L 642.152069 23.969358
Q 639.912069 23.969358 639.912069 26.209358
L 639.912069 45.413733
Q 639.912069 47.653733 642.152069 47.653733
z
" style="fill: #ffffff; opacity: 0.9; stroke: #000000; stroke-linejoin: miter"/>
    </g>
    <!-- artifact: mace-mp-0-medium -->
    <g transform="translate(642.152069 33.08889) scale(0.08 -0.08)">
     <defs>
      <path id="DejaVuSans-1d" d="M 750 794
L 1409 794
L 1409 0
L 750 0
L 750 794
z
M 750 3309
L 1409 3309
L 1409 2516
L 750 2516
L 750 3309
z
" transform="scale(0.015625)"/>
     </defs>
     <use xlink:href="#DejaVuSans-44"/>
     <use xlink:href="#DejaVuSans-55" transform="translate(61.28125 0)"/>
     <use xlink:href="#DejaVuSans-57" transform="translate(102.390625 0)"/>
     <use xlink:href="#DejaVuSans-4c" transform="translate(141.59375 0)"/>
     <use xlink:href="#DejaVuSans-49" transform="translate(169.375 0)"/>
     <use xlink:href="#DejaVuSans-44" transform="translate(204.578125 0)"/>
     <use xlink:href="#DejaVuSans-46" transform="translate(265.859375 0)"/>
     <use xlink:href="#DejaVuSans-57" transform="translate(320.84375 0)"/>
     <use xlink:href="#DejaVuSans-1d" transform="translate(360.046875 0)"/>
     <use xlink:href="#DejaVuSans-3" transform="translate(393.734375 0)"/>
     <use xlink:href="#DejaVuSans-50" transform="translate(425.515625 0)"/>
     <use xlink:href="#DejaVuSans-44" transform="translate(522.921875 0)"/>
     <use xlink:href="#DejaVuSans-46" transform="translate(584.203125 0)"/>
     <use xlink:href="#DejaVuSans-48" transform="translate(639.1875 0)"/>
     <use xlink:href="#DejaVuSans-10" transform="translate(700.71875 0)"/>
     <use xlink:href="#DejaVuSans-50" transform="translate(736.796875 0)"/>
     <use xlink:href="#DejaVuSans-53" transform="translate(834.203125 0)"/>
     <use xlink:href="#DejaVuSans-10" transform="translate(897.6875 0)"/>
     <use xlink:href="#DejaVuSans-13" transform="translate(933.765625 0)"/>
     <use xlink:href="#DejaVuSans-10" transform="translate(997.390625 0)"/>
     <use xlink:href="#DejaVuSans-50" transform="translate(1033.46875 0)"/>
     <use xlink:href="#DejaVuSans-48" transform="translate(1130.875 0)"/>
     <use xlink:href="#DejaVuSans-47" transform="translate(1192.40625 0)"/>
     <use xlink:href="#DejaVuSans-4c" transform="translate(1255.890625 0)"/>
     <use xlink:href="#DejaVuSans-58" transform="translate(1283.671875 0)"/>
     <use xlink:href="#DejaVuSans-50" transform="translate(1347.046875 0)"/>
    </g>
    <!-- revision: pinned-placeholder -->
    <g transform="translate(642.152069 42.691077) scale(0.08 -0.08)">
     <use xlink:href="#DejaVuSans-55"/>
     <use xlink:href="#DejaVuSans-48" transform="translate(38.90625 0)"/>
     <use xlink:href="#DejaVuSans-59" transform="translate(100.4375 0)"/>
     <use xlink:href="#DejaVuSans-4c" transform="translate(159.625 0)"/>
     <use xlink:href="#DejaVuSans-56" transform="translate(187.40625 0)"/>
     <use xlink:href="#DejaVuSans-4c" transform="translate(239.5 0)"/>
     <use xlink:href="#DejaVuSans-52" transform="translate(267.28125 0)"/>
     <use xlink:href="#DejaVuSans-51" transform="translate(328.46875 0)"/>
     <use xlink:href="#DejaVuSans-1d" transform="translate(391.84375 0)"/>
     <use xlink:href="#DejaVuSans-3" transform="translate(425.53125 0)"/>
     <use xlink:href="#DejaVuSans-53" transform="translate(457.3125 0)"/>
     <use xlink:href="#DejaVuSans-4c" transform="translate(520.796875 0)"/>
     <use xlink:href="#DejaVuSans-51" transform="translate(548.578125 0)"/>
     <use xlink:href="#DejaVuSans-51" transform="translate(611.953125 0)"/>
     <use xlink:href="#DejaVuSans-48" transform="translate(675.328125 0)"/>
     <use xlink:href="#DejaVuSans-47" transform="translate(736.859375 0)"/>
     <use xlink:href="#DejaVuSans-10" transform="translate(800.34375 0)"/>
     <use xlink:href="#DejaVuSans-53" transform="translate(836.421875 0)"/>
     <use xlink:href="#DejaVuSans-4f" transform="translate(899.90625 0)"/>
     <use xlink:href="#DejaVuSans-44" transform="translate(927.6875 0)"/>
     <use xlink:href="#DejaVuSans-46" transform="translate(988.96875 0)"/>
     <use xlink:href="#DejaVuSans-48" transform="translate(1043.953125 0)"/>
     <use xlink:href="#DejaVuSans-4b" transform="translate(1105.484375 0)"/>
     <use xlink:href="#DejaVuSans-52" transform="translate(1168.859375 0)"/>
     <use xlink:href="#DejaVuSans-4f" transform="translate(1230.046875 0)"/>
     <use xlink:href="#DejaVuSans-47" transform="translate(1257.828125 0)"/>
     <use xlink:href="#DejaVuSans-48" transform="translate(1321.3125 0)"/>
     <use xlink:href="#DejaVuSans-55" transform="translate(1382.84375 0)"/>
    </g>
   </g>
   <g id="text_48">
    <!-- Uncertainty must calibrate errors -->
    <g transform="translate(655.313054 12.118365) scale(0.12 -0.12)">
     <defs>
      <path id="DejaVuSans-38" d="M 556 4666
L 1191 4666
L 1191 1831
Q 1191 1081 1462 751
Q 1734 422 2344 422
Q 2950 422 3222 751
Q 3494 1081 3494 1831
L 3494 4666
L 4128 4666
L 4128 1753
Q 4128 841 3676 375
Q 3225 -91 2344 -91
Q 1459 -91 1007 375
Q 556 841 556 1753
L 556 4666
z
" transform="scale(0.015625)"/>
     </defs>
     <use xlink:href="#DejaVuSans-38"/>
     <use xlink:href="#DejaVuSans-51" transform="translate(73.1875 0)"/>
     <use xlink:href="#DejaVuSans-46" transform="translate(136.5625 0)"/>
     <use xlink:href="#DejaVuSans-48" transform="translate(191.546875 0)"/>
     <use xlink:href="#DejaVuSans-55" transform="translate(253.078125 0)"/>
     <use xlink:href="#DejaVuSans-57" transform="translate(294.1875 0)"/>
     <use xlink:href="#DejaVuSans-44" transform="translate(333.390625 0)"/>
     <use xlink:href="#DejaVuSans-4c" transform="translate(394.671875 0)"/>
     <use xlink:href="#DejaVuSans-51" transform="translate(422.453125 0)"/>
     <use xlink:href="#DejaVuSans-57" transform="translate(485.828125 0)"/>
     <use xlink:href="#DejaVuSans-5c" transform="translate(525.03125 0)"/>
     <use xlink:href="#DejaVuSans-3" transform="translate(584.21875 0)"/>
     <use xlink:href="#DejaVuSans-50" transform="translate(616 0)"/>
     <use xlink:href="#DejaVuSans-58" transform="translate(713.40625 0)"/>
     <use xlink:href="#DejaVuSans-56" transform="translate(776.78125 0)"/>
     <use xlink:href="#DejaVuSans-57" transform="translate(828.875 0)"/>
     <use xlink:href="#DejaVuSans-3" transform="translate(868.078125 0)"/>
     <use xlink:href="#DejaVuSans-46" transform="translate(899.859375 0)"/>
     <use xlink:href="#DejaVuSans-44" transform="translate(954.84375 0)"/>
     <use xlink:href="#DejaVuSans-4f" transform="translate(1016.125 0)"/>
     <use xlink:href="#DejaVuSans-4c" transform="translate(1043.90625 0)"/>
     <use xlink:href="#DejaVuSans-45" transform="translate(1071.6875 0)"/>
     <use xlink:href="#DejaVuSans-55" transform="translate(1135.171875 0)"/>
     <use xlink:href="#DejaVuSans-44" transform="translate(1176.28125 0)"/>
     <use xlink:href="#DejaVuSans-57" transform="translate(1237.5625 0)"/>
     <use xlink:href="#DejaVuSans-48" transform="translate(1276.765625 0)"/>
     <use xlink:href="#DejaVuSans-3" transform="translate(1338.296875 0)"/>
     <use xlink:href="#DejaVuSans-48" transform="translate(1370.078125 0)"/>
     <use xlink:href="#DejaVuSans-55" transform="translate(1431.609375 0)"/>
     <use xlink:href="#DejaVuSans-55" transform="translate(1470.96875 0)"/>
     <use xlink:href="#DejaVuSans-52" transform="translate(1509.875 0)"/>
     <use xlink:href="#DejaVuSans-55" transform="translate(1571.0625 0)"/>
     <use xlink:href="#DejaVuSans-56" transform="translate(1612.171875 0)"/>
    </g>
   </g>
   <g id="legend_3">
    <g id="patch_23">
     <path d="M 782.106197 30.733178
L 797.306197 30.733178
L 797.306197 25.413178
L 782.106197 25.413178
L 782.106197 30.733178
z
" style="fill: none; stroke: #2f6f9f; stroke-width: 1.4; stroke-linejoin: miter"/>
    </g>
    <g id="text_49">
     <!-- in domain fcc -->
     <g transform="translate(803.386197 30.733178) scale(0.076 -0.076)">
      <use xlink:href="#DejaVuSans-4c"/>
      <use xlink:href="#DejaVuSans-51" transform="translate(27.78125 0)"/>
      <use xlink:href="#DejaVuSans-3" transform="translate(91.15625 0)"/>
      <use xlink:href="#DejaVuSans-47" transform="translate(122.9375 0)"/>
      <use xlink:href="#DejaVuSans-52" transform="translate(186.421875 0)"/>
      <use xlink:href="#DejaVuSans-50" transform="translate(247.609375 0)"/>
      <use xlink:href="#DejaVuSans-44" transform="translate(345.015625 0)"/>
      <use xlink:href="#DejaVuSans-4c" transform="translate(406.296875 0)"/>
      <use xlink:href="#DejaVuSans-51" transform="translate(434.078125 0)"/>
      <use xlink:href="#DejaVuSans-3" transform="translate(497.453125 0)"/>
      <use xlink:href="#DejaVuSans-49" transform="translate(529.234375 0)"/>
      <use xlink:href="#DejaVuSans-46" transform="translate(564.4375 0)"/>
      <use xlink:href="#DejaVuSans-46" transform="translate(619.421875 0)"/>
     </g>
    </g>
    <g id="patch_24">
     <path d="M 782.106197 42.133771
L 797.306197 42.133771
L 797.306197 36.813771
L 782.106197 36.813771
L 782.106197 42.133771
z
" style="fill: none; stroke: #d88c3d; stroke-width: 1.4; stroke-linejoin: miter"/>
    </g>
    <g id="text_50">
     <!-- strained cell -->
     <g transform="translate(803.386197 42.133771) scale(0.076 -0.076)">
      <use xlink:href="#DejaVuSans-56"/>
      <use xlink:href="#DejaVuSans-57" transform="translate(52.09375 0)"/>
      <use xlink:href="#DejaVuSans-55" transform="translate(91.296875 0)"/>
      <use xlink:href="#DejaVuSans-44" transform="translate(132.40625 0)"/>
      <use xlink:href="#DejaVuSans-4c" transform="translate(193.6875 0)"/>
      <use xlink:href="#DejaVuSans-51" transform="translate(221.46875 0)"/>
      <use xlink:href="#DejaVuSans-48" transform="translate(284.84375 0)"/>
      <use xlink:href="#DejaVuSans-47" transform="translate(346.375 0)"/>
      <use xlink:href="#DejaVuSans-3" transform="translate(409.859375 0)"/>
      <use xlink:href="#DejaVuSans-46" transform="translate(441.640625 0)"/>
      <use xlink:href="#DejaVuSans-48" transform="translate(496.625 0)"/>
      <use xlink:href="#DejaVuSans-4f" transform="translate(558.15625 0)"/>
      <use xlink:href="#DejaVuSans-4f" transform="translate(585.9375 0)"/>
     </g>
    </g>
    <g id="patch_25">
     <path d="M 782.106197 53.534365
L 797.306197 53.534365
L 797.306197 48.214365
L 782.106197 48.214365
L 782.106197 53.534365
z
" style="fill: none; stroke: #8c6bb1; stroke-width: 1.4; stroke-linejoin: miter"/>
    </g>
    <g id="text_51">
     <!-- extrapolative hot -->
     <g transform="translate(803.386197 53.534365) scale(0.076 -0.076)">
      <use xlink:href="#DejaVuSans-48"/>
      <use xlink:href="#DejaVuSans-5b" transform="translate(59.78125 0)"/>
      <use xlink:href="#DejaVuSans-57" transform="translate(118.96875 0)"/>
      <use xlink:href="#DejaVuSans-55" transform="translate(158.171875 0)"/>
      <use xlink:href="#DejaVuSans-44" transform="translate(199.28125 0)"/>
      <use xlink:href="#DejaVuSans-53" transform="translate(260.5625 0)"/>
      <use xlink:href="#DejaVuSans-52" transform="translate(324.046875 0)"/>
      <use xlink:href="#DejaVuSans-4f" transform="translate(385.234375 0)"/>
      <use xlink:href="#DejaVuSans-44" transform="translate(413.015625 0)"/>
      <use xlink:href="#DejaVuSans-57" transform="translate(474.296875 0)"/>
      <use xlink:href="#DejaVuSans-4c" transform="translate(513.5 0)"/>
      <use xlink:href="#DejaVuSans-59" transform="translate(541.28125 0)"/>
      <use xlink:href="#DejaVuSans-48" transform="translate(600.46875 0)"/>
      <use xlink:href="#DejaVuSans-3" transform="translate(662 0)"/>
      <use xlink:href="#DejaVuSans-4b" transform="translate(693.78125 0)"/>
      <use xlink:href="#DejaVuSans-52" transform="translate(757.15625 0)"/>
      <use xlink:href="#DejaVuSans-57" transform="translate(818.34375 0)"/>
     </g>
    </g>
   </g>
  </g>
 </g>
 <defs>
  <clipPath id="pb1d8b439cc">
   <rect x="46.266646" y="18.118365" width="240.461538" height="202.274833"/>
  </clipPath>
  <clipPath id="p0628bc909c">
   <rect x="329.63257" y="18.118365" width="240.461538" height="202.274833"/>
  </clipPath>
  <clipPath id="p1db197dc89">
   <rect x="634.938222" y="18.118365" width="240.461538" height="202.274833"/>
  </clipPath>
 </defs>
</svg>
