<?xml version="1.0" encoding="utf-8" standalone="no"?>
<!DOCTYPE svg PUBLIC "-//W3C//DTD SVG 1.1//EN"
  "http://www.w3.org/Graphics/SVG/1.1/DTD/svg11.dtd">
<svg xmlns:xlink="http://www.w3.org/1999/xlink" width="878.4pt" height="259.2pt" viewBox="0 0 878.4 259.2" xmlns="http://www.w3.org/2000/svg" version="1.1">
 <metadata>
  <rdf:RDF xmlns:dc="http://purl.org/dc/elements/1.1/" xmlns:cc="http://creativecommons.org/ns#" xmlns:rdf="http://www.w3.org/1999/02/22-rdf-syntax-ns#">
   <cc:Work>
    <dc:type rdf:resource="http://purl.org/dc/dcmitype/StillImage"/>
    <dc:format>image/svg+xml</dc:format>
    <dc:creator>
     <cc:Agent>
      <dc:title>Matplotlib v3.11.0, https://matplotlib.org/</dc:title>
     </cc:Agent>
    </dc:creator>
   </cc:Work>
  </rdf:RDF>
 </metadata>
 <defs>
  <style type="text/css">*{stroke-linejoin: round; stroke-linecap: butt}</style>
 </defs>
 <g id="figure_1">
  <g id="patch_1">
   <path d="M 0 259.2
L 878.4 259.2
L 878.4 0
L 0 0
z
" style="fill: #ffffff"/>
  </g>
  <g id="axes_1">
   <g id="patch_2">
    <path d="M 36.72524 225.198979
L 285.559656 225.198979
L 285.559656 18.118365
L 36.72524 18.118365
z
" style="fill: #ffffff"/>
   </g>
   <g id="matplotlib.axis_1">
    <g id="xtick_1">
     <g id="line2d_1">
      <path d="M 70.657206 225.198979
L 70.657206 18.118365
" clip-path="url(#p4f51555853)" style="fill: none; stroke: #b0b0b0; stroke-opacity: 0.18; stroke-width: 0.6; stroke-linecap: square"/>
     </g>
     <g id="line2d_2">
      <defs>
       <path id="m4ec6ab3908" d="M 0 0
L 0 3.5
" style="stroke: #000000; stroke-width: 0.8"/>
      </defs>
      <g>
       <use xlink:href="#m4ec6ab3908" x="70.657206" y="225.198979" style="stroke: #000000; stroke-width: 0.8"/>
      </g>
     </g>
     <g id="text_1">
      <!-- −2 -->
      <g transform="translate(63.286112 239.796635) scale(0.1 -0.1)">
       <defs>
        <path id="DejaVuSans-c9c" d="M 678 2272
L 4684 2272
L 4684 1741
L 678 1741
L 678 2272
z
" transform="scale(0.015625)"/>
        <path id="DejaVuSans-15" d="M 1228 531
L 3431 531
L 3431 0
L 469 0
L 469 531
Q 828 903 1448 1529
Q 2069 2156 2228 2338
Q 2531 2678 2651 2914
Q 2772 3150 2772 3378
Q 2772 3750 2511 3984
Q 2250 4219 1831 4219
Q 1534 4219 1204 4116
Q 875 4013 500 3803
L 500 4441
Q 881 4594 1212 4672
Q 1544 4750 1819 4750
Q 2544 4750 2975 4387
Q 3406 4025 3406 3419
Q 3406 3131 3298 2873
Q 3191 2616 2906 2266
Q 2828 2175 2409 1742
Q 1991 1309 1228 531
z
" transform="scale(0.015625)"/>
       </defs>
       <use xlink:href="#DejaVuSans-c9c"/>
       <use xlink:href="#DejaVuSans-15" transform="translate(83.796875 0)"/>
      </g>
     </g>
    </g>
    <g id="xtick_2">
     <g id="line2d_3">
      <path d="M 115.899827 225.198979
L 115.899827 18.118365
" clip-path="url(#p4f51555853)" style="fill: none; stroke: #b0b0b0; stroke-opacity: 0.18; stroke-width: 0.6; stroke-linecap: square"/>
     </g>
     <g id="line2d_4">
      <g>
       <use xlink:href="#m4ec6ab3908" x="115.899827" y="225.198979" style="stroke: #000000; stroke-width: 0.8"/>
      </g>
     </g>
     <g id="text_2">
      <!-- −1 -->
      <g transform="translate(108.528733 239.796635) scale(0.1 -0.1)">
       <defs>
        <path id="DejaVuSans-14" d="M 794 531
L 1825 531
L 1825 4091
L 703 3866
L 703 4441
L 1819 4666
L 2450 4666
L 2450 531
L 3481 531
L 3481 0
L 794 0
L 794 531
z
" transform="scale(0.015625)"/>
       </defs>
       <use xlink:href="#DejaVuSans-c9c"/>
       <use xlink:href="#DejaVuSans-14" transform="translate(83.796875 0)"/>
      </g>
     </g>
    </g>
    <g id="xtick_3">
     <g id="line2d_5">
      <path d="M 161.142448 225.198979
L 161.142448 18.118365
" clip-path="url(#p4f51555853)" style="fill: none; stroke: #b0b0b0; stroke-opacity: 0.18; stroke-width: 0.6; stroke-linecap: square"/>
     </g>
     <g id="line2d_6">
      <g>
       <use xlink:href="#m4ec6ab3908" x="161.142448" y="225.198979" style="stroke: #000000; stroke-width: 0.8"/>
      </g>
     </g>
     <g id="text_3">
      <!-- 0 -->
      <g transform="translate(157.961198 239.796635) scale(0.1 -0.1)">
       <defs>
        <path id="DejaVuSans-13" d="M 2034 4250
Q 1547 4250 1301 3770
Q 1056 3291 1056 2328
Q 1056 1369 1301 889
Q 1547 409 2034 409
Q 2525 409 2770 889
Q 3016 1369 3016 2328
Q 3016 3291 2770 3770
Q 2525 4250 2034 4250
z
M 2034 4750
Q 2819 4750 3233 4129
Q 3647 3509 3647 2328
Q 3647 1150 3233 529
Q 2819 -91 2034 -91
Q 1250 -91 836 529
Q 422 1150 422 2328
Q 422 3509 836 4129
Q 1250 4750 2034 4750
z
" transform="scale(0.015625)"/>
       </defs>
       <use xlink:href="#DejaVuSans-13"/>
      </g>
     </g>
    </g>
    <g id="xtick_4">
     <g id="line2d_7">
      <path d="M 206.385069 225.198979
L 206.385069 18.118365
" clip-path="url(#p4f51555853)" style="fill: none; stroke: #b0b0b0; stroke-opacity: 0.18; stroke-width: 0.6; stroke-linecap: square"/>
     </g>
     <g id="line2d_8">
      <g>
       <use xlink:href="#m4ec6ab3908" x="206.385069" y="225.198979" style="stroke: #000000; stroke-width: 0.8"/>
      </g>
     </g>
     <g id="text_4">
      <!-- 1 -->
      <g transform="translate(203.203819 239.796635) scale(0.1 -0.1)">
       <use xlink:href="#DejaVuSans-14"/>
      </g>
     </g>
    </g>
    <g id="xtick_5">
     <g id="line2d_9">
      <path d="M 251.62769 225.198979
L 251.62769 18.118365
" clip-path="url(#p4f51555853)" style="fill: none; stroke: #b0b0b0; stroke-opacity: 0.18; stroke-width: 0.6; stroke-linecap: square"/>
     </g>
     <g id="line2d_10">
      <g>
       <use xlink:href="#m4ec6ab3908" x="251.62769" y="225.198979" style="stroke: #000000; stroke-width: 0.8"/>
      </g>
     </g>
     <g id="text_5">
      <!-- 2 -->
      <g transform="translate(248.44644 239.796635) scale(0.1 -0.1)">
       <use xlink:href="#DejaVuSans-15"/>
      </g>
     </g>
    </g>
    <g id="text_6">
     <!-- collective variable s -->
     <g transform="translate(111.390104 253.797416) scale(0.1 -0.1)">
      <defs>
       <path id="DejaVuSans-46" d="M 3122 3366
L 3122 2828
Q 2878 2963 2633 3030
Q 2388 3097 2138 3097
Q 1578 3097 1268 2742
Q 959 2388 959 1747
Q 959 1106 1268 751
Q 1578 397 2138 397
Q 2388 397 2633 464
Q 2878 531 3122 666
L 3122 134
Q 2881 22 2623 -34
Q 2366 -91 2075 -91
Q 1284 -91 818 406
Q 353 903 353 1747
Q 353 2603 823 3093
Q 1294 3584 2113 3584
Q 2378 3584 2631 3529
Q 2884 3475 3122 3366
z
" transform="scale(0.015625)"/>
       <path id="DejaVuSans-52" d="M 1959 3097
Q 1497 3097 1228 2736
Q 959 2375 959 1747
Q 959 1119 1226 758
Q 1494 397 1959 397
Q 2419 397 2687 759
Q 2956 1122 2956 1747
Q 2956 2369 2687 2733
Q 2419 3097 1959 3097
z
M 1959 3584
Q 2709 3584 3137 3096
Q 3566 2609 3566 1747
Q 3566 888 3137 398
Q 2709 -91 1959 -91
Q 1206 -91 779 398
Q 353 888 353 1747
Q 353 2609 779 3096
Q 1206 3584 1959 3584
z
" transform="scale(0.015625)"/>
       <path id="DejaVuSans-4f" d="M 603 4863
L 1178 4863
L 1178 0
L 603 0
L 603 4863
z
" transform="scale(0.015625)"/>
       <path id="DejaVuSans-48" d="M 3597 1894
L 3597 1613
L 953 1613
Q 991 1019 1311 708
Q 1631 397 2203 397
Q 2534 397 2845 478
Q 3156 559 3463 722
L 3463 178
Q 3153 47 2828 -22
Q 2503 -91 2169 -91
Q 1331 -91 842 396
Q 353 884 353 1716
Q 353 2575 817 3079
Q 1281 3584 2069 3584
Q 2775 3584 3186 3129
Q 3597 2675 3597 1894
z
M 3022 2063
Q 3016 2534 2758 2815
Q 2500 3097 2075 3097
Q 1594 3097 1305 2825
Q 1016 2553 972 2059
L 3022 2063
z
" transform="scale(0.015625)"/>
       <path id="DejaVuSans-57" d="M 1172 4494
L 1172 3500
L 2356 3500
L 2356 3053
L 1172 3053
L 1172 1153
Q 1172 725 1289 603
Q 1406 481 1766 481
L 2356 481
L 2356 0
L 1766 0
Q 1100 0 847 248
Q 594 497 594 1153
L 594 3053
L 172 3053
L 172 3500
L 594 3500
L 594 4494
L 1172 4494
z
" transform="scale(0.015625)"/>
       <path id="DejaVuSans-4c" d="M 603 3500
L 1178 3500
L 1178 0
L 603 0
L 603 3500
z
M 603 4863
L 1178 4863
L 1178 4134
L 603 4134
L 603 4863
z
" transform="scale(0.015625)"/>
       <path id="DejaVuSans-59" d="M 191 3500
L 800 3500
L 1894 563
L 2988 3500
L 3597 3500
L 2284 0
L 1503 0
L 191 3500
z
" transform="scale(0.015625)"/>
       <path id="DejaVuSans-3" transform="scale(0.015625)"/>
       <path id="DejaVuSans-44" d="M 2194 1759
Q 1497 1759 1228 1600
Q 959 1441 959 1056
Q 959 750 1161 570
Q 1363 391 1709 391
Q 2188 391 2477 730
Q 2766 1069 2766 1631
L 2766 1759
L 2194 1759
z
M 3341 1997
L 3341 0
L 2766 0
L 2766 531
Q 2569 213 2275 61
Q 1981 -91 1556 -91
Q 1019 -91 701 211
Q 384 513 384 1019
Q 384 1609 779 1909
Q 1175 2209 1959 2209
L 2766 2209
L 2766 2266
Q 2766 2663 2505 2880
Q 2244 3097 1772 3097
Q 1472 3097 1187 3025
Q 903 2953 641 2809
L 641 3341
Q 956 3463 1253 3523
Q 1550 3584 1831 3584
Q 2591 3584 2966 3190
Q 3341 2797 3341 1997
z
" transform="scale(0.015625)"/>
       <path id="DejaVuSans-55" d="M 2631 2963
Q 2534 3019 2420 3045
Q 2306 3072 2169 3072
Q 1681 3072 1420 2755
Q 1159 2438 1159 1844
L 1159 0
L 581 0
L 581 3500
L 1159 3500
L 1159 2956
Q 1341 3275 1631 3429
Q 1922 3584 2338 3584
Q 2397 3584 2469 3576
Q 2541 3569 2628 3553
L 2631 2963
z
" transform="scale(0.015625)"/>
       <path id="DejaVuSans-45" d="M 3116 1747
Q 3116 2381 2855 2742
Q 2594 3103 2138 3103
Q 1681 3103 1420 2742
Q 1159 2381 1159 1747
Q 1159 1113 1420 752
Q 1681 391 2138 391
Q 2594 391 2855 752
Q 3116 1113 3116 1747
z
M 1159 2969
Q 1341 3281 1617 3432
Q 1894 3584 2278 3584
Q 2916 3584 3314 3078
Q 3713 2572 3713 1747
Q 3713 922 3314 415
Q 2916 -91 2278 -91
Q 1894 -91 1617 61
Q 1341 213 1159 525
L 1159 0
L 581 0
L 581 4863
L 1159 4863
L 1159 2969
z
" transform="scale(0.015625)"/>
       <path id="DejaVuSans-56" d="M 2834 3397
L 2834 2853
Q 2591 2978 2328 3040
Q 2066 3103 1784 3103
Q 1356 3103 1142 2972
Q 928 2841 928 2578
Q 928 2378 1081 2264
Q 1234 2150 1697 2047
L 1894 2003
Q 2506 1872 2764 1633
Q 3022 1394 3022 966
Q 3022 478 2636 193
Q 2250 -91 1575 -91
Q 1294 -91 989 -36
Q 684 19 347 128
L 347 722
Q 666 556 975 473
Q 1284 391 1588 391
Q 1994 391 2212 530
Q 2431 669 2431 922
Q 2431 1156 2273 1281
Q 2116 1406 1581 1522
L 1381 1569
Q 847 1681 609 1914
Q 372 2147 372 2553
Q 372 3047 722 3315
Q 1072 3584 1716 3584
Q 2034 3584 2315 3537
Q 2597 3491 2834 3397
z
" transform="scale(0.015625)"/>
      </defs>
      <use xlink:href="#DejaVuSans-46"/>
      <use xlink:href="#DejaVuSans-52" transform="translate(54.984375 0)"/>
      <use xlink:href="#DejaVuSans-4f" transform="translate(116.171875 0)"/>
      <use xlink:href="#DejaVuSans-4f" transform="translate(143.953125 0)"/>
      <use xlink:href="#DejaVuSans-48" transform="translate(171.734375 0)"/>
      <use xlink:href="#DejaVuSans-46" transform="translate(233.265625 0)"/>
      <use xlink:href="#DejaVuSans-57" transform="translate(288.25 0)"/>
      <use xlink:href="#DejaVuSans-4c" transform="translate(327.453125 0)"/>
      <use xlink:href="#DejaVuSans-59" transform="translate(355.234375 0)"/>
      <use xlink:href="#DejaVuSans-48" transform="translate(414.421875 0)"/>
      <use xlink:href="#DejaVuSans-3" transform="translate(475.953125 0)"/>
      <use xlink:href="#DejaVuSans-59" transform="translate(507.734375 0)"/>
      <use xlink:href="#DejaVuSans-44" transform="translate(566.921875 0)"/>
      <use xlink:href="#DejaVuSans-55" transform="translate(628.203125 0)"/>
      <use xlink:href="#DejaVuSans-4c" transform="translate(669.3125 0)"/>
      <use xlink:href="#DejaVuSans-44" transform="translate(697.09375 0)"/>
      <use xlink:href="#DejaVuSans-45" transform="translate(758.375 0)"/>
      <use xlink:href="#DejaVuSans-4f" transform="translate(821.859375 0)"/>
      <use xlink:href="#DejaVuSans-48" transform="translate(849.640625 0)"/>
      <use xlink:href="#DejaVuSans-3" transform="translate(911.171875 0)"/>
      <use xlink:href="#DejaVuSans-56" transform="translate(942.953125 0)"/>
     </g>
    </g>
   </g>
   <g id="matplotlib.axis_2">
    <g id="ytick_1">
     <g id="line2d_11">
      <path d="M 36.72524 215.786224
L 285.559656 215.786224
" clip-path="url(#p4f51555853)" style="fill: none; stroke: #b0b0b0; stroke-opacity: 0.18; stroke-width: 0.6; stroke-linecap: square"/>
     </g>
     <g id="line2d_12">
      <defs>
       <path id="m6e8c790583" d="M 0 0
L -3.5 0
" style="stroke: #000000; stroke-width: 0.8"/>
      </defs>
      <g>
       <use xlink:href="#m6e8c790583" x="36.72524" y="215.786224" style="stroke: #000000; stroke-width: 0.8"/>
      </g>
     </g>
     <g id="text_7">
      <!-- 0 -->
      <g transform="translate(23.36274 219.585052) scale(0.1 -0.1)">
       <use xlink:href="#DejaVuSans-13"/>
      </g>
     </g>
    </g>
    <g id="ytick_2">
     <g id="line2d_13">
      <path d="M 36.72524 181.635638
L 285.559656 181.635638
" clip-path="url(#p4f51555853)" style="fill: none; stroke: #b0b0b0; stroke-opacity: 0.18; stroke-width: 0.6; stroke-linecap: square"/>
     </g>
     <g id="line2d_14">
      <g>
       <use xlink:href="#m6e8c790583" x="36.72524" y="181.635638" style="stroke: #000000; stroke-width: 0.8"/>
      </g>
     </g>
     <g id="text_8">
      <!-- 5 -->
      <g transform="translate(23.36274 185.434466) scale(0.1 -0.1)">
       <defs>
        <path id="DejaVuSans-18" d="M 691 4666
L 3169 4666
L 3169 4134
L 1269 4134
L 1269 2991
Q 1406 3038 1543 3061
Q 1681 3084 1819 3084
Q 2600 3084 3056 2656
Q 3513 2228 3513 1497
Q 3513 744 3044 326
Q 2575 -91 1722 -91
Q 1428 -91 1123 -41
Q 819 9 494 109
L 494 744
Q 775 591 1075 516
Q 1375 441 1709 441
Q 2250 441 2565 725
Q 2881 1009 2881 1497
Q 2881 1984 2565 2268
Q 2250 2553 1709 2553
Q 1456 2553 1204 2497
Q 953 2441 691 2322
L 691 4666
z
" transform="scale(0.015625)"/>
       </defs>
       <use xlink:href="#DejaVuSans-18"/>
      </g>
     </g>
    </g>
    <g id="ytick_3">
     <g id="line2d_15">
      <path d="M 36.72524 147.485052
L 285.559656 147.485052
" clip-path="url(#p4f51555853)" style="fill: none; stroke: #b0b0b0; stroke-opacity: 0.18; stroke-width: 0.6; stroke-linecap: square"/>
     </g>
     <g id="line2d_16">
      <g>
       <use xlink:href="#m6e8c790583" x="36.72524" y="147.485052" style="stroke: #000000; stroke-width: 0.8"/>
      </g>
     </g>
     <g id="text_9">
      <!-- 10 -->
      <g transform="translate(17.00024 151.28388) scale(0.1 -0.1)">
       <use xlink:href="#DejaVuSans-14"/>
       <use xlink:href="#DejaVuSans-13" transform="translate(63.625 0)"/>
      </g>
     </g>
    </g>
    <g id="ytick_4">
     <g id="line2d_17">
      <path d="M 36.72524 113.334467
L 285.559656 113.334467
" clip-path="url(#p4f51555853)" style="fill: none; stroke: #b0b0b0; stroke-opacity: 0.18; stroke-width: 0.6; stroke-linecap: square"/>
     </g>
     <g id="line2d_18">
      <g>
       <use xlink:href="#m6e8c790583" x="36.72524" y="113.334467" style="stroke: #000000; stroke-width: 0.8"/>
      </g>
     </g>
     <g id="text_10">
      <!-- 15 -->
      <g transform="translate(17.00024 117.133295) scale(0.1 -0.1)">
       <use xlink:href="#DejaVuSans-14"/>
       <use xlink:href="#DejaVuSans-18" transform="translate(63.625 0)"/>
      </g>
     </g>
    </g>
    <g id="ytick_5">
     <g id="line2d_19">
      <path d="M 36.72524 79.183881
L 285.559656 79.183881
" clip-path="url(#p4f51555853)" style="fill: none; stroke: #b0b0b0; stroke-opacity: 0.18; stroke-width: 0.6; stroke-linecap: square"/>
     </g>
     <g id="line2d_20">
      <g>
       <use xlink:href="#m6e8c790583" x="36.72524" y="79.183881" style="stroke: #000000; stroke-width: 0.8"/>
      </g>
     </g>
     <g id="text_11">
      <!-- 20 -->
      <g transform="translate(17.00024 82.982709) scale(0.1 -0.1)">
       <use xlink:href="#DejaVuSans-15"/>
       <use xlink:href="#DejaVuSans-13" transform="translate(63.625 0)"/>
      </g>
     </g>
    </g>
    <g id="ytick_6">
     <g id="line2d_21">
      <path d="M 36.72524 45.033295
L 285.559656 45.033295
" clip-path="url(#p4f51555853)" style="fill: none; stroke: #b0b0b0; stroke-opacity: 0.18; stroke-width: 0.6; stroke-linecap: square"/>
     </g>
     <g id="line2d_22">
      <g>
       <use xlink:href="#m6e8c790583" x="36.72524" y="45.033295" style="stroke: #000000; stroke-width: 0.8"/>
      </g>
     </g>
     <g id="text_12">
      <!-- 25 -->
      <g transform="translate(17.00024 48.832123) scale(0.1 -0.1)">
       <use xlink:href="#DejaVuSans-15"/>
       <use xlink:href="#DejaVuSans-18" transform="translate(63.625 0)"/>
      </g>
     </g>
    </g>
    <g id="text_13">
     <!-- F(s) -->
     <g transform="translate(10.597896 131.040703) rotate(-90) scale(0.1 -0.1)">
      <defs>
       <path id="DejaVuSans-29" d="M 628 4666
L 3309 4666
L 3309 4134
L 1259 4134
L 1259 2759
L 3109 2759
L 3109 2228
L 1259 2228
L 1259 0
L 628 0
L 628 4666
z
" transform="scale(0.015625)"/>
       <path id="DejaVuSans-b" d="M 1984 4856
Q 1566 4138 1362 3434
Q 1159 2731 1159 2009
Q 1159 1288 1364 580
Q 1569 -128 1984 -844
L 1484 -844
Q 1016 -109 783 600
Q 550 1309 550 2009
Q 550 2706 781 3412
Q 1013 4119 1484 4856
L 1984 4856
z
" transform="scale(0.015625)"/>
       <path id="DejaVuSans-c" d="M 513 4856
L 1013 4856
Q 1481 4119 1714 3412
Q 1947 2706 1947 2009
Q 1947 1309 1714 600
Q 1481 -109 1013 -844
L 513 -844
Q 928 -128 1133 580
Q 1338 1288 1338 2009
Q 1338 2731 1133 3434
Q 928 4138 513 4856
z
" transform="scale(0.015625)"/>
      </defs>
      <use xlink:href="#DejaVuSans-29"/>
      <use xlink:href="#DejaVuSans-b" transform="translate(57.515625 0)"/>
      <use xlink:href="#DejaVuSans-56" transform="translate(96.53125 0)"/>
      <use xlink:href="#DejaVuSans-c" transform="translate(148.625 0)"/>
     </g>
    </g>
   </g>
   <g id="line2d_23">
    <path d="M 48.035895 27.53112
L 50.863559 49.011868
L 53.502712 67.438502
L 56.141865 84.379269
L 58.781018 99.910632
L 61.420171 114.107157
L 64.059324 127.041513
L 66.509966 137.983719
L 68.960608 147.953862
L 71.411249 157.005729
L 73.861891 165.191694
L 76.312533 172.562721
L 78.574664 178.686305
L 80.836796 184.195649
L 83.098927 189.127633
L 85.361058 193.518118
L 87.623189 197.401936
L 89.696809 200.545904
L 91.770429 203.317836
L 93.844049 205.742296
L 95.917669 207.843121
L 97.991289 209.643428
L 100.064909 211.165607
L 102.13853 212.431327
L 104.400661 213.544214
L 106.662792 214.403018
L 108.924923 215.032924
L 111.375565 215.485015
L 114.014718 215.736795
L 116.842381 215.774611
L 119.858556 215.594953
L 123.440264 215.148535
L 127.776015 214.365412
L 133.996875 212.988608
L 143.987954 210.77883
L 149.077749 209.892962
L 153.602011 209.330287
L 157.749251 209.032729
L 161.896492 208.9599
L 166.043732 209.115484
L 170.190972 209.491588
L 174.715234 210.130204
L 179.805029 211.082727
L 186.779933 212.63829
L 195.639946 214.589445
L 199.975698 215.312843
L 203.557405 215.686069
L 206.57358 215.785747
L 209.401244 215.656569
L 212.040397 215.304313
L 214.491039 214.745049
L 216.75317 214.003779
L 219.015301 213.021145
L 221.088921 211.886437
L 223.162541 210.506785
L 225.236161 208.860914
L 227.309781 206.926828
L 229.383401 204.681805
L 231.457021 202.102402
L 233.530642 199.164451
L 235.604262 195.843061
L 237.677882 192.112619
L 239.751502 187.946786
L 242.013633 182.873863
L 244.275764 177.214458
L 246.537895 170.93143
L 248.800026 163.986618
L 251.062157 156.340833
L 253.512799 147.220207
L 255.963441 137.177217
L 258.414083 126.157969
L 260.864725 114.107157
L 263.315367 100.968065
L 265.95452 85.534498
L 268.593673 68.696916
L 271.232826 50.378992
L 273.871979 30.502498
L 274.249001 27.53112
L 274.249001 27.53112
" clip-path="url(#p4f51555853)" style="fill: none; stroke: #222222; stroke-width: 1.2; stroke-linecap: square"/>
   </g>
   <g id="line2d_24">
    <path d="M 71.109632 162.13988
M 76.538747 174.377807
L 79.253304 180.63618
L 81.967861 186.985019
L 84.682418 192.238289
L 87.396976 196.317419
L 90.111533 200.747043
L 92.82609 203.82107
L 95.540647 206.933139
L 98.255205 209.070238
L 100.969762 211.460874
L 103.684319 212.453563
L 106.398876 213.815134
L 109.113434 215.112678
L 111.827991 214.967823
L 114.542548 215.786224
L 117.257105 215.334277
L 119.971663 215.100968
L 122.68622 215.021393
L 125.400777 214.43356
L 128.115335 214.095792
L 130.829892 213.1507
L 133.544449 212.628321
L 136.259006 212.331594
L 138.973564 211.505661
L 141.688121 211.294092
L 144.402678 209.940521
L 147.117235 209.801897
L 149.831793 209.489311
L 152.54635 209.272679
L 155.260907 209.056053
L 157.975464 208.345889
L 160.690022 208.728843
L 163.404579 208.691499
L 166.119136 208.146046
L 168.833693 209.347924
L 171.548251 208.585838
L 174.262808 209.666897
L 176.977365 210.645159
L 179.691923 210.650782
L 182.40648 211.815954
L 185.121037 211.579661
L 187.835594 212.327197
L 190.550152 213.339103
L 193.264709 213.62141
L 195.979266 214.770801
L 198.693823 214.316246
L 201.408381 214.699702
L 204.122938 215.421501
L 206.837495 215.018427
L 209.552052 215.655103
L 212.26661 214.478643
L 214.981167 213.920431
L 217.695724 213.507664
L 220.410282 211.550157
L 223.124839 210.30488
L 225.839396 207.562065
L 228.553953 205.360429
L 231.268511 201.665067
L 233.983068 197.570333
L 236.697625 193.926974
L 239.412182 189.989938
L 242.12674 180.63618
L 244.841297 180.63618
L 247.555854 169.643531
" clip-path="url(#p4f51555853)" style="fill: none; stroke: #2f6f9f; stroke-width: 1.4; stroke-linecap: square"/>
   </g>
   <g id="line2d_25">
    <path d="M 84.682418 201.936401
M 90.111533 197.058085
L 92.82609 195.675461
L 95.540647 208.639478
L 98.255205 208.248526
L 100.969762 213.019665
L 103.684319 212.110636
L 106.398876 211.232954
L 109.113434 213.466293
L 111.827991 214.35985
L 114.542548 215.786224
L 117.257105 215.309495
L 119.971663 214.780935
L 122.68622 214.541111
L 125.400777 213.952756
L 128.115335 212.844108
L 130.829892 211.949685
L 133.544449 211.470442
L 136.259006 211.026636
L 138.973564 209.831605
L 141.688121 210.164671
L 144.402678 209.012933
L 147.117235 208.922346
L 149.831793 208.586559
L 152.54635 208.183169
L 155.260907 208.116819
L 157.975464 207.240061
L 160.690022 207.520878
L 163.404579 207.768022
L 166.119136 207.382204
L 168.833693 208.077587
L 171.548251 207.952157
L 174.262808 208.162186
L 176.977365 209.155339
L 179.691923 209.544818
L 182.40648 210.511651
L 185.121037 210.687842
L 187.835594 211.177025
L 190.550152 212.337554
L 193.264709 212.536103
L 195.979266 213.514425
L 198.693823 213.465176
L 201.408381 213.761228
L 204.122938 214.329609
L 206.837495 214.126052
L 209.552052 214.412741
L 212.26661 213.711345
L 214.981167 212.76989
L 217.695724 212.390629
L 220.410282 210.6157
L 223.124839 209.231284
L 225.839396 206.664561
L 228.553953 204.174236
L 231.268511 200.789263
L 233.983068 196.651654
L 236.697625 192.897682
L 239.412182 187.397534
L 242.12674 181.562851
L 244.841297 173.136846
L 247.555854 167.884052
" clip-path="url(#p4f51555853)" style="fill: none; stroke-dasharray: 4.44,1.92; stroke-dashoffset: 0; stroke: #d88c3d; stroke-width: 1.2"/>
   </g>
   <g id="patch_3">
    <path d="M 36.72524 225.198979
L 36.72524 18.118365
" style="fill: none; stroke: #000000; stroke-width: 0.8; stroke-linejoin: miter; stroke-linecap: square"/>
   </g>
   <g id="patch_4">
    <path d="M 36.72524 225.198979
L 285.559656 225.198979
" style="fill: none; stroke: #000000; stroke-width: 0.8; stroke-linejoin: miter; stroke-linecap: square"/>
   </g>
   <g id="text_14">
    <!-- PMF from equilibrium samples -->
    <g transform="translate(70.38026 12.118365) scale(0.12 -0.12)">
     <defs>
      <path id="DejaVuSans-33" d="M 1259 4147
L 1259 2394
L 2053 2394
Q 2494 2394 2734 2622
Q 2975 2850 2975 3272
Q 2975 3691 2734 3919
Q 2494 4147 2053 4147
L 1259 4147
z
M 628 4666
L 2053 4666
Q 2838 4666 3239 4311
Q 3641 3956 3641 3272
Q 3641 2581 3239 2228
Q 2838 1875 2053 1875
L 1259 1875
L 1259 0
L 628 0
L 628 4666
z
" transform="scale(0.015625)"/>
      <path id="DejaVuSans-30" d="M 628 4666
L 1569 4666
L 2759 1491
L 3956 4666
L 4897 4666
L 4897 0
L 4281 0
L 4281 4097
L 3078 897
L 2444 897
L 1241 4097
L 1241 0
L 628 0
L 628 4666
z
" transform="scale(0.015625)"/>
      <path id="DejaVuSans-49" d="M 2375 4863
L 2375 4384
L 1825 4384
Q 1516 4384 1395 4259
Q 1275 4134 1275 3809
L 1275 3500
L 2222 3500
L 2222 3053
L 1275 3053
L 1275 0
L 697 0
L 697 3053
L 147 3053
L 147 3500
L 697 3500
L 697 3744
Q 697 4328 969 4595
Q 1241 4863 1831 4863
L 2375 4863
z
" transform="scale(0.015625)"/>
      <path id="DejaVuSans-50" d="M 3328 2828
Q 3544 3216 3844 3400
Q 4144 3584 4550 3584
Q 5097 3584 5394 3201
Q 5691 2819 5691 2113
L 5691 0
L 5113 0
L 5113 2094
Q 5113 2597 4934 2840
Q 4756 3084 4391 3084
Q 3944 3084 3684 2787
Q 3425 2491 3425 1978
L 3425 0
L 2847 0
L 2847 2094
Q 2847 2600 2669 2842
Q 2491 3084 2119 3084
Q 1678 3084 1418 2786
Q 1159 2488 1159 1978
L 1159 0
L 581 0
L 581 3500
L 1159 3500
L 1159 2956
Q 1356 3278 1631 3431
Q 1906 3584 2284 3584
Q 2666 3584 2933 3390
Q 3200 3197 3328 2828
z
" transform="scale(0.015625)"/>
      <path id="DejaVuSans-54" d="M 947 1747
Q 947 1113 1208 752
Q 1469 391 1925 391
Q 2381 391 2643 752
Q 2906 1113 2906 1747
Q 2906 2381 2643 2742
Q 2381 3103 1925 3103
Q 1469 3103 1208 2742
Q 947 2381 947 1747
z
M 2906 525
Q 2725 213 2448 61
Q 2172 -91 1784 -91
Q 1150 -91 751 415
Q 353 922 353 1747
Q 353 2572 751 3078
Q 1150 3584 1784 3584
Q 2172 3584 2448 3432
Q 2725 3281 2906 2969
L 2906 3500
L 3481 3500
L 3481 -1331
L 2906 -1331
L 2906 525
z
" transform="scale(0.015625)"/>
      <path id="DejaVuSans-58" d="M 544 1381
L 544 3500
L 1119 3500
L 1119 1403
Q 1119 906 1312 657
Q 1506 409 1894 409
Q 2359 409 2629 706
Q 2900 1003 2900 1516
L 2900 3500
L 3475 3500
L 3475 0
L 2900 0
L 2900 538
Q 2691 219 2414 64
Q 2138 -91 1772 -91
Q 1169 -91 856 284
Q 544 659 544 1381
z
M 1991 3584
L 1991 3584
z
" transform="scale(0.015625)"/>
      <path id="DejaVuSans-53" d="M 1159 525
L 1159 -1331
L 581 -1331
L 581 3500
L 1159 3500
L 1159 2969
Q 1341 3281 1617 3432
Q 1894 3584 2278 3584
Q 2916 3584 3314 3078
Q 3713 2572 3713 1747
Q 3713 922 3314 415
Q 2916 -91 2278 -91
Q 1894 -91 1617 61
Q 1341 213 1159 525
z
M 3116 1747
Q 3116 2381 2855 2742
Q 2594 3103 2138 3103
Q 1681 3103 1420 2742
Q 1159 2381 1159 1747
Q 1159 1113 1420 752
Q 1681 391 2138 391
Q 2594 391 2855 752
Q 3116 1113 3116 1747
z
" transform="scale(0.015625)"/>
     </defs>
     <use xlink:href="#DejaVuSans-33"/>
     <use xlink:href="#DejaVuSans-30" transform="translate(60.296875 0)"/>
     <use xlink:href="#DejaVuSans-29" transform="translate(146.578125 0)"/>
     <use xlink:href="#DejaVuSans-3" transform="translate(204.09375 0)"/>
     <use xlink:href="#DejaVuSans-49" transform="translate(235.875 0)"/>
     <use xlink:href="#DejaVuSans-55" transform="translate(271.078125 0)"/>
     <use xlink:href="#DejaVuSans-52" transform="translate(309.984375 0)"/>
     <use xlink:href="#DejaVuSans-50" transform="translate(371.171875 0)"/>
     <use xlink:href="#DejaVuSans-3" transform="translate(468.578125 0)"/>
     <use xlink:href="#DejaVuSans-48" transform="translate(500.359375 0)"/>
     <use xlink:href="#DejaVuSans-54" transform="translate(561.890625 0)"/>
     <use xlink:href="#DejaVuSans-58" transform="translate(625.375 0)"/>
     <use xlink:href="#DejaVuSans-4c" transform="translate(688.75 0)"/>
     <use xlink:href="#DejaVuSans-4f" transform="translate(716.53125 0)"/>
     <use xlink:href="#DejaVuSans-4c" transform="translate(744.3125 0)"/>
     <use xlink:href="#DejaVuSans-45" transform="translate(772.09375 0)"/>
     <use xlink:href="#DejaVuSans-55" transform="translate(835.578125 0)"/>
     <use xlink:href="#DejaVuSans-4c" transform="translate(876.6875 0)"/>
     <use xlink:href="#DejaVuSans-58" transform="translate(904.46875 0)"/>
     <use xlink:href="#DejaVuSans-50" transform="translate(967.84375 0)"/>
     <use xlink:href="#DejaVuSans-3" transform="translate(1065.25 0)"/>
     <use xlink:href="#DejaVuSans-56" transform="translate(1097.03125 0)"/>
     <use xlink:href="#DejaVuSans-44" transform="translate(1149.125 0)"/>
     <use xlink:href="#DejaVuSans-50" transform="translate(1210.40625 0)"/>
     <use xlink:href="#DejaVuSans-53" transform="translate(1307.8125 0)"/>
     <use xlink:href="#DejaVuSans-4f" transform="translate(1371.296875 0)"/>
     <use xlink:href="#DejaVuSans-48" transform="translate(1399.078125 0)"/>
     <use xlink:href="#DejaVuSans-56" transform="translate(1460.609375 0)"/>
    </g>
   </g>
   <g id="legend_1">
    <g id="line2d_26">
     <path d="M 120.230573 28.597115
L 128.230573 28.597115
L 136.230573 28.597115
" style="fill: none; stroke: #222222; stroke-width: 1.2; stroke-linecap: square"/>
    </g>
    <g id="text_15">
     <!-- true F(s) -->
     <g transform="translate(142.630573 31.397115) scale(0.08 -0.08)">
      <use xlink:href="#DejaVuSans-57"/>
      <use xlink:href="#DejaVuSans-55" transform="translate(39.203125 0)"/>
      <use xlink:href="#DejaVuSans-58" transform="translate(80.3125 0)"/>
      <use xlink:href="#DejaVuSans-48" transform="translate(143.6875 0)"/>
      <use xlink:href="#DejaVuSans-3" transform="translate(205.21875 0)"/>
      <use xlink:href="#DejaVuSans-29" transform="translate(237 0)"/>
      <use xlink:href="#DejaVuSans-b" transform="translate(294.515625 0)"/>
      <use xlink:href="#DejaVuSans-56" transform="translate(333.53125 0)"/>
      <use xlink:href="#DejaVuSans-c" transform="translate(385.625 0)"/>
     </g>
    </g>
    <g id="line2d_27">
     <path d="M 120.230573 40.59774
L 128.230573 40.59774
L 136.230573 40.59774
" style="fill: none; stroke: #2f6f9f; stroke-width: 1.4; stroke-linecap: square"/>
    </g>
    <g id="text_16">
     <!-- histogram PMF -->
     <g transform="translate(142.630573 43.39774) scale(0.08 -0.08)">
      <defs>
       <path id="DejaVuSans-4b" d="M 3513 2113
L 3513 0
L 2938 0
L 2938 2094
Q 2938 2591 2744 2837
Q 2550 3084 2163 3084
Q 1697 3084 1428 2787
Q 1159 2491 1159 1978
L 1159 0
L 581 0
L 581 4863
L 1159 4863
L 1159 2956
Q 1366 3272 1645 3428
Q 1925 3584 2291 3584
Q 2894 3584 3203 3211
Q 3513 2838 3513 2113
z
" transform="scale(0.015625)"/>
       <path id="DejaVuSans-4a" d="M 2906 1791
Q 2906 2416 2648 2759
Q 2391 3103 1925 3103
Q 1463 3103 1205 2759
Q 947 2416 947 1791
Q 947 1169 1205 825
Q 1463 481 1925 481
Q 2391 481 2648 825
Q 2906 1169 2906 1791
z
M 3481 434
Q 3481 -459 3084 -895
Q 2688 -1331 1869 -1331
Q 1566 -1331 1297 -1286
Q 1028 -1241 775 -1147
L 775 -588
Q 1028 -725 1275 -790
Q 1522 -856 1778 -856
Q 2344 -856 2625 -561
Q 2906 -266 2906 331
L 2906 616
Q 2728 306 2450 153
Q 2172 0 1784 0
Q 1141 0 747 490
Q 353 981 353 1791
Q 353 2603 747 3093
Q 1141 3584 1784 3584
Q 2172 3584 2450 3431
Q 2728 3278 2906 2969
L 2906 3500
L 3481 3500
L 3481 434
z
" transform="scale(0.015625)"/>
      </defs>
      <use xlink:href="#DejaVuSans-4b"/>
      <use xlink:href="#DejaVuSans-4c" transform="translate(63.375 0)"/>
      <use xlink:href="#DejaVuSans-56" transform="translate(91.15625 0)"/>
      <use xlink:href="#DejaVuSans-57" transform="translate(143.25 0)"/>
      <use xlink:href="#DejaVuSans-52" transform="translate(182.453125 0)"/>
      <use xlink:href="#DejaVuSans-4a" transform="translate(243.640625 0)"/>
      <use xlink:href="#DejaVuSans-55" transform="translate(307.125 0)"/>
      <use xlink:href="#DejaVuSans-44" transform="translate(348.234375 0)"/>
      <use xlink:href="#DejaVuSans-50" transform="translate(409.515625 0)"/>
      <use xlink:href="#DejaVuSans-3" transform="translate(506.921875 0)"/>
      <use xlink:href="#DejaVuSans-33" transform="translate(538.703125 0)"/>
      <use xlink:href="#DejaVuSans-30" transform="translate(599 0)"/>
      <use xlink:href="#DejaVuSans-29" transform="translate(685.28125 0)"/>
     </g>
    </g>
    <g id="line2d_28">
     <path d="M 120.230573 52.598365
L 128.230573 52.598365
L 136.230573 52.598365
" style="fill: none; stroke-dasharray: 4.44,1.92; stroke-dashoffset: 0; stroke: #d88c3d; stroke-width: 1.2"/>
    </g>
    <g id="text_17">
     <!-- reweighted -->
     <g transform="translate(142.630573 55.398365) scale(0.08 -0.08)">
      <defs>
       <path id="DejaVuSans-5a" d="M 269 3500
L 844 3500
L 1563 769
L 2278 3500
L 2956 3500
L 3675 769
L 4391 3500
L 4966 3500
L 4050 0
L 3372 0
L 2619 2869
L 1863 0
L 1184 0
L 269 3500
z
" transform="scale(0.015625)"/>
       <path id="DejaVuSans-47" d="M 2906 2969
L 2906 4863
L 3481 4863
L 3481 0
L 2906 0
L 2906 525
Q 2725 213 2448 61
Q 2172 -91 1784 -91
Q 1150 -91 751 415
Q 353 922 353 1747
Q 353 2572 751 3078
Q 1150 3584 1784 3584
Q 2172 3584 2448 3432
Q 2725 3281 2906 2969
z
M 947 1747
Q 947 1113 1208 752
Q 1469 391 1925 391
Q 2381 391 2643 752
Q 2906 1113 2906 1747
Q 2906 2381 2643 2742
Q 2381 3103 1925 3103
Q 1469 3103 1208 2742
Q 947 2381 947 1747
z
" transform="scale(0.015625)"/>
      </defs>
      <use xlink:href="#DejaVuSans-55"/>
      <use xlink:href="#DejaVuSans-48" transform="translate(38.90625 0)"/>
      <use xlink:href="#DejaVuSans-5a" transform="translate(100.4375 0)"/>
      <use xlink:href="#DejaVuSans-48" transform="translate(182.21875 0)"/>
      <use xlink:href="#DejaVuSans-4c" transform="translate(243.75 0)"/>
      <use xlink:href="#DejaVuSans-4a" transform="translate(271.53125 0)"/>
      <use xlink:href="#DejaVuSans-4b" transform="translate(335.015625 0)"/>
      <use xlink:href="#DejaVuSans-57" transform="translate(398.390625 0)"/>
      <use xlink:href="#DejaVuSans-48" transform="translate(437.59375 0)"/>
      <use xlink:href="#DejaVuSans-47" transform="translate(499.125 0)"/>
     </g>
    </g>
   </g>
  </g>
  <g id="axes_2">
   <g id="patch_5">
    <path d="M 328.464042 225.198979
L 577.298458 225.198979
L 577.298458 18.118365
L 328.464042 18.118365
z
" style="fill: #ffffff"/>
   </g>
   <g id="patch_6">
    <path d="M 339.774697 225.198979
L 404.407013 225.198979
L 404.407013 34.179999
L 339.774697 34.179999
z
" clip-path="url(#pb9fb44d439)" style="fill: #6a8f4e; stroke: #2d4721; stroke-width: 0.6; stroke-linejoin: miter"/>
   </g>
   <g id="patch_7">
    <path d="M 420.565092 225.198979
L 485.197408 225.198979
L 485.197408 35.975532
L 420.565092 35.975532
z
" clip-path="url(#pb9fb44d439)" style="fill: #6a8f4e; stroke: #2d4721; stroke-width: 0.6; stroke-linejoin: miter"/>
   </g>
   <g id="patch_8">
    <path d="M 501.355487 225.198979
L 565.987803 225.198979
L 565.987803 47.777615
L 501.355487 47.777615
z
" clip-path="url(#pb9fb44d439)" style="fill: #6a8f4e; stroke: #2d4721; stroke-width: 0.6; stroke-linejoin: miter"/>
   </g>
   <g id="matplotlib.axis_3">
    <g id="xtick_6">
     <g id="line2d_29">
      <path d="M 372.090855 225.198979
L 372.090855 18.118365
" clip-path="url(#pb9fb44d439)" style="fill: none; stroke: #b0b0b0; stroke-opacity: 0.18; stroke-width: 0.6; stroke-linecap: square"/>
     </g>
     <g id="line2d_30">
      <g>
       <use xlink:href="#m4ec6ab3908" x="372.090855" y="225.198979" style="stroke: #000000; stroke-width: 0.8"/>
      </g>
     </g>
     <g id="text_18">
      <!-- bin 0.06 -->
      <g transform="translate(355.72773 238.277729) scale(0.08 -0.08)">
       <defs>
        <path id="DejaVuSans-51" d="M 3513 2113
L 3513 0
L 2938 0
L 2938 2094
Q 2938 2591 2744 2837
Q 2550 3084 2163 3084
Q 1697 3084 1428 2787
Q 1159 2491 1159 1978
L 1159 0
L 581 0
L 581 3500
L 1159 3500
L 1159 2956
Q 1366 3272 1645 3428
Q 1925 3584 2291 3584
Q 2894 3584 3203 3211
Q 3513 2838 3513 2113
z
" transform="scale(0.015625)"/>
        <path id="DejaVuSans-11" d="M 684 794
L 1344 794
L 1344 0
L 684 0
L 684 794
z
" transform="scale(0.015625)"/>
        <path id="DejaVuSans-19" d="M 2113 2584
Q 1688 2584 1439 2293
Q 1191 2003 1191 1497
Q 1191 994 1439 701
Q 1688 409 2113 409
Q 2538 409 2786 701
Q 3034 994 3034 1497
Q 3034 2003 2786 2293
Q 2538 2584 2113 2584
z
M 3366 4563
L 3366 3988
Q 3128 4100 2886 4159
Q 2644 4219 2406 4219
Q 1781 4219 1451 3797
Q 1122 3375 1075 2522
Q 1259 2794 1537 2939
Q 1816 3084 2150 3084
Q 2853 3084 3261 2657
Q 3669 2231 3669 1497
Q 3669 778 3244 343
Q 2819 -91 2113 -91
Q 1303 -91 875 529
Q 447 1150 447 2328
Q 447 3434 972 4092
Q 1497 4750 2381 4750
Q 2619 4750 2861 4703
Q 3103 4656 3366 4563
z
" transform="scale(0.015625)"/>
       </defs>
       <use xlink:href="#DejaVuSans-45"/>
       <use xlink:href="#DejaVuSans-4c" transform="translate(63.484375 0)"/>
       <use xlink:href="#DejaVuSans-51" transform="translate(91.265625 0)"/>
       <use xlink:href="#DejaVuSans-3" transform="translate(154.640625 0)"/>
       <use xlink:href="#DejaVuSans-13" transform="translate(186.421875 0)"/>
       <use xlink:href="#DejaVuSans-11" transform="translate(250.046875 0)"/>
       <use xlink:href="#DejaVuSans-13" transform="translate(281.828125 0)"/>
       <use xlink:href="#DejaVuSans-19" transform="translate(345.453125 0)"/>
      </g>
     </g>
    </g>
    <g id="xtick_7">
     <g id="line2d_31">
      <path d="M 452.88125 225.198979
L 452.88125 18.118365
" clip-path="url(#pb9fb44d439)" style="fill: none; stroke: #b0b0b0; stroke-opacity: 0.18; stroke-width: 0.6; stroke-linecap: square"/>
     </g>
     <g id="line2d_32">
      <g>
       <use xlink:href="#m4ec6ab3908" x="452.88125" y="225.198979" style="stroke: #000000; stroke-width: 0.8"/>
      </g>
     </g>
     <g id="text_19">
      <!-- bin 0.18 -->
      <g transform="translate(436.518125 238.277729) scale(0.08 -0.08)">
       <defs>
        <path id="DejaVuSans-1b" d="M 2034 2216
Q 1584 2216 1326 1975
Q 1069 1734 1069 1313
Q 1069 891 1326 650
Q 1584 409 2034 409
Q 2484 409 2743 651
Q 3003 894 3003 1313
Q 3003 1734 2745 1975
Q 2488 2216 2034 2216
z
M 1403 2484
Q 997 2584 770 2862
Q 544 3141 544 3541
Q 544 4100 942 4425
Q 1341 4750 2034 4750
Q 2731 4750 3128 4425
Q 3525 4100 3525 3541
Q 3525 3141 3298 2862
Q 3072 2584 2669 2484
Q 3125 2378 3379 2068
Q 3634 1759 3634 1313
Q 3634 634 3220 271
Q 2806 -91 2034 -91
Q 1263 -91 848 271
Q 434 634 434 1313
Q 434 1759 690 2068
Q 947 2378 1403 2484
z
M 1172 3481
Q 1172 3119 1398 2916
Q 1625 2713 2034 2713
Q 2441 2713 2670 2916
Q 2900 3119 2900 3481
Q 2900 3844 2670 4047
Q 2441 4250 2034 4250
Q 1625 4250 1398 4047
Q 1172 3844 1172 3481
z
" transform="scale(0.015625)"/>
       </defs>
       <use xlink:href="#DejaVuSans-45"/>
       <use xlink:href="#DejaVuSans-4c" transform="translate(63.484375 0)"/>
       <use xlink:href="#DejaVuSans-51" transform="translate(91.265625 0)"/>
       <use xlink:href="#DejaVuSans-3" transform="translate(154.640625 0)"/>
       <use xlink:href="#DejaVuSans-13" transform="translate(186.421875 0)"/>
       <use xlink:href="#DejaVuSans-11" transform="translate(250.046875 0)"/>
       <use xlink:href="#DejaVuSans-14" transform="translate(281.828125 0)"/>
       <use xlink:href="#DejaVuSans-1b" transform="translate(345.453125 0)"/>
      </g>
     </g>
    </g>
    <g id="xtick_8">
     <g id="line2d_33">
      <path d="M 533.671645 225.198979
L 533.671645 18.118365
" clip-path="url(#pb9fb44d439)" style="fill: none; stroke: #b0b0b0; stroke-opacity: 0.18; stroke-width: 0.6; stroke-linecap: square"/>
     </g>
     <g id="line2d_34">
      <g>
       <use xlink:href="#m4ec6ab3908" x="533.671645" y="225.198979" style="stroke: #000000; stroke-width: 0.8"/>
      </g>
     </g>
     <g id="text_20">
      <!-- bin 0.35 -->
      <g transform="translate(517.30852 238.277729) scale(0.08 -0.08)">
       <defs>
        <path id="DejaVuSans-16" d="M 2597 2516
Q 3050 2419 3304 2112
Q 3559 1806 3559 1356
Q 3559 666 3084 287
Q 2609 -91 1734 -91
Q 1441 -91 1130 -33
Q 819 25 488 141
L 488 750
Q 750 597 1062 519
Q 1375 441 1716 441
Q 2309 441 2620 675
Q 2931 909 2931 1356
Q 2931 1769 2642 2001
Q 2353 2234 1838 2234
L 1294 2234
L 1294 2753
L 1863 2753
Q 2328 2753 2575 2939
Q 2822 3125 2822 3475
Q 2822 3834 2567 4026
Q 2313 4219 1838 4219
Q 1578 4219 1281 4162
Q 984 4106 628 3988
L 628 4550
Q 988 4650 1302 4700
Q 1616 4750 1894 4750
Q 2613 4750 3031 4423
Q 3450 4097 3450 3541
Q 3450 3153 3228 2886
Q 3006 2619 2597 2516
z
" transform="scale(0.015625)"/>
       </defs>
       <use xlink:href="#DejaVuSans-45"/>
       <use xlink:href="#DejaVuSans-4c" transform="translate(63.484375 0)"/>
       <use xlink:href="#DejaVuSans-51" transform="translate(91.265625 0)"/>
       <use xlink:href="#DejaVuSans-3" transform="translate(154.640625 0)"/>
       <use xlink:href="#DejaVuSans-13" transform="translate(186.421875 0)"/>
       <use xlink:href="#DejaVuSans-11" transform="translate(250.046875 0)"/>
       <use xlink:href="#DejaVuSans-16" transform="translate(281.828125 0)"/>
       <use xlink:href="#DejaVuSans-18" transform="translate(345.453125 0)"/>
      </g>
     </g>
    </g>
   </g>
   <g id="matplotlib.axis_4">
    <g id="ytick_7">
     <g id="line2d_35">
      <path d="M 328.464042 225.198979
L 577.298458 225.198979
" clip-path="url(#pb9fb44d439)" style="fill: none; stroke: #b0b0b0; stroke-opacity: 0.18; stroke-width: 0.6; stroke-linecap: square"/>
     </g>
     <g id="line2d_36">
      <g>
       <use xlink:href="#m6e8c790583" x="328.464042" y="225.198979" style="stroke: #000000; stroke-width: 0.8"/>
      </g>
     </g>
     <g id="text_21">
      <!-- 0.0 -->
      <g transform="translate(305.560917 228.997807) scale(0.1 -0.1)">
       <use xlink:href="#DejaVuSans-13"/>
       <use xlink:href="#DejaVuSans-11" transform="translate(63.625 0)"/>
       <use xlink:href="#DejaVuSans-13" transform="translate(95.40625 0)"/>
      </g>
     </g>
    </g>
    <g id="ytick_8">
     <g id="line2d_37">
      <path d="M 328.464042 186.427835
L 577.298458 186.427835
" clip-path="url(#pb9fb44d439)" style="fill: none; stroke: #b0b0b0; stroke-opacity: 0.18; stroke-width: 0.6; stroke-linecap: square"/>
     </g>
     <g id="line2d_38">
      <g>
       <use xlink:href="#m6e8c790583" x="328.464042" y="186.427835" style="stroke: #000000; stroke-width: 0.8"/>
      </g>
     </g>
     <g id="text_22">
      <!-- 0.2 -->
      <g transform="translate(305.560917 190.226664) scale(0.1 -0.1)">
       <use xlink:href="#DejaVuSans-13"/>
       <use xlink:href="#DejaVuSans-11" transform="translate(63.625 0)"/>
       <use xlink:href="#DejaVuSans-15" transform="translate(95.40625 0)"/>
      </g>
     </g>
    </g>
    <g id="ytick_9">
     <g id="line2d_39">
      <path d="M 328.464042 147.656692
L 577.298458 147.656692
" clip-path="url(#pb9fb44d439)" style="fill: none; stroke: #b0b0b0; stroke-opacity: 0.18; stroke-width: 0.6; stroke-linecap: square"/>
     </g>
     <g id="line2d_40">
      <g>
       <use xlink:href="#m6e8c790583" x="328.464042" y="147.656692" style="stroke: #000000; stroke-width: 0.8"/>
      </g>
     </g>
     <g id="text_23">
      <!-- 0.4 -->
      <g transform="translate(305.560917 151.45552) scale(0.1 -0.1)">
       <defs>
        <path id="DejaVuSans-17" d="M 2419 4116
L 825 1625
L 2419 1625
L 2419 4116
z
M 2253 4666
L 3047 4666
L 3047 1625
L 3713 1625
L 3713 1100
L 3047 1100
L 3047 0
L 2419 0
L 2419 1100
L 313 1100
L 313 1709
L 2253 4666
z
" transform="scale(0.015625)"/>
       </defs>
       <use xlink:href="#DejaVuSans-13"/>
       <use xlink:href="#DejaVuSans-11" transform="translate(63.625 0)"/>
       <use xlink:href="#DejaVuSans-17" transform="translate(95.40625 0)"/>
      </g>
     </g>
    </g>
    <g id="ytick_10">
     <g id="line2d_41">
      <path d="M 328.464042 108.885549
L 577.298458 108.885549
" clip-path="url(#pb9fb44d439)" style="fill: none; stroke: #b0b0b0; stroke-opacity: 0.18; stroke-width: 0.6; stroke-linecap: square"/>
     </g>
     <g id="line2d_42">
      <g>
       <use xlink:href="#m6e8c790583" x="328.464042" y="108.885549" style="stroke: #000000; stroke-width: 0.8"/>
      </g>
     </g>
     <g id="text_24">
      <!-- 0.6 -->
      <g transform="translate(305.560917 112.684377) scale(0.1 -0.1)">
       <use xlink:href="#DejaVuSans-13"/>
       <use xlink:href="#DejaVuSans-11" transform="translate(63.625 0)"/>
       <use xlink:href="#DejaVuSans-19" transform="translate(95.40625 0)"/>
      </g>
     </g>
    </g>
    <g id="ytick_11">
     <g id="line2d_43">
      <path d="M 328.464042 70.114406
L 577.298458 70.114406
" clip-path="url(#pb9fb44d439)" style="fill: none; stroke: #b0b0b0; stroke-opacity: 0.18; stroke-width: 0.6; stroke-linecap: square"/>
     </g>
     <g id="line2d_44">
      <g>
       <use xlink:href="#m6e8c790583" x="328.464042" y="70.114406" style="stroke: #000000; stroke-width: 0.8"/>
      </g>
     </g>
     <g id="text_25">
      <!-- 0.8 -->
      <g transform="translate(305.560917 73.913234) scale(0.1 -0.1)">
       <use xlink:href="#DejaVuSans-13"/>
       <use xlink:href="#DejaVuSans-11" transform="translate(63.625 0)"/>
       <use xlink:href="#DejaVuSans-1b" transform="translate(95.40625 0)"/>
      </g>
     </g>
    </g>
    <g id="ytick_12">
     <g id="line2d_45">
      <path d="M 328.464042 31.343262
L 577.298458 31.343262
" clip-path="url(#pb9fb44d439)" style="fill: none; stroke: #b0b0b0; stroke-opacity: 0.18; stroke-width: 0.6; stroke-linecap: square"/>
     </g>
     <g id="line2d_46">
      <g>
       <use xlink:href="#m6e8c790583" x="328.464042" y="31.343262" style="stroke: #000000; stroke-width: 0.8"/>
      </g>
     </g>
     <g id="text_26">
      <!-- 1.0 -->
      <g transform="translate(305.560917 35.14209) scale(0.1 -0.1)">
       <use xlink:href="#DejaVuSans-14"/>
       <use xlink:href="#DejaVuSans-11" transform="translate(63.625 0)"/>
       <use xlink:href="#DejaVuSans-13" transform="translate(95.40625 0)"/>
      </g>
     </g>
    </g>
    <g id="text_27">
     <!-- barrier height -->
     <g transform="translate(299.158573 155.968047) rotate(-90) scale(0.1 -0.1)">
      <use xlink:href="#DejaVuSans-45"/>
      <use xlink:href="#DejaVuSans-44" transform="translate(63.484375 0)"/>
      <use xlink:href="#DejaVuSans-55" transform="translate(124.765625 0)"/>
      <use xlink:href="#DejaVuSans-55" transform="translate(164.125 0)"/>
      <use xlink:href="#DejaVuSans-4c" transform="translate(205.234375 0)"/>
      <use xlink:href="#DejaVuSans-48" transform="translate(233.015625 0)"/>
      <use xlink:href="#DejaVuSans-55" transform="translate(294.546875 0)"/>
      <use xlink:href="#DejaVuSans-3" transform="translate(335.65625 0)"/>
      <use xlink:href="#DejaVuSans-4b" transform="translate(367.4375 0)"/>
      <use xlink:href="#DejaVuSans-48" transform="translate(430.8125 0)"/>
      <use xlink:href="#DejaVuSans-4c" transform="translate(492.34375 0)"/>
      <use xlink:href="#DejaVuSans-4a" transform="translate(520.125 0)"/>
      <use xlink:href="#DejaVuSans-4b" transform="translate(583.609375 0)"/>
      <use xlink:href="#DejaVuSans-57" transform="translate(646.984375 0)"/>
     </g>
    </g>
   </g>
   <g id="line2d_47">
    <path d="M 328.464042 31.343262
L 577.298458 31.343262
" clip-path="url(#pb9fb44d439)" style="fill: none; stroke: #333333; stroke-width: 0.9; stroke-linecap: square"/>
   </g>
   <g id="LineCollection_1">
    <path d="M 372.090855 40.380652
L 372.090855 27.979347
" clip-path="url(#pb9fb44d439)" style="fill: none; stroke: #000000; stroke-width: 1.5"/>
    <path d="M 452.88125 39.201255
L 452.88125 32.749809
" clip-path="url(#pb9fb44d439)" style="fill: none; stroke: #000000; stroke-width: 1.5"/>
    <path d="M 533.671645 51.147856
L 533.671645 44.407374
" clip-path="url(#pb9fb44d439)" style="fill: none; stroke: #000000; stroke-width: 1.5"/>
   </g>
   <g id="line2d_48">
    <defs>
     <path id="mb55c490d10" d="M 4 0
L -4 -0
" style="stroke: #000000"/>
    </defs>
    <g clip-path="url(#pb9fb44d439)">
     <use xlink:href="#mb55c490d10" x="372.090855" y="40.380652" style="fill: #1f77b4; stroke: #000000"/>
     <use xlink:href="#mb55c490d10" x="452.88125" y="39.201255" style="fill: #1f77b4; stroke: #000000"/>
     <use xlink:href="#mb55c490d10" x="533.671645" y="51.147856" style="fill: #1f77b4; stroke: #000000"/>
    </g>
   </g>
   <g id="line2d_49">
    <g clip-path="url(#pb9fb44d439)">
     <use xlink:href="#mb55c490d10" x="372.090855" y="27.979347" style="fill: #1f77b4; stroke: #000000"/>
     <use xlink:href="#mb55c490d10" x="452.88125" y="32.749809" style="fill: #1f77b4; stroke: #000000"/>
     <use xlink:href="#mb55c490d10" x="533.671645" y="44.407374" style="fill: #1f77b4; stroke: #000000"/>
    </g>
   </g>
   <g id="patch_9">
    <path d="M 328.464042 225.198979
L 328.464042 18.118365
" style="fill: none; stroke: #000000; stroke-width: 0.8; stroke-linejoin: miter; stroke-linecap: square"/>
   </g>
   <g id="patch_10">
    <path d="M 328.464042 225.198979
L 577.298458 225.198979
" style="fill: none; stroke: #000000; stroke-width: 0.8; stroke-linejoin: miter; stroke-linecap: square"/>
   </g>
   <g id="text_28">
    <!-- Binning changes barriers -->
    <g transform="translate(377.928125 12.118365) scale(0.12 -0.12)">
     <defs>
      <path id="DejaVuSans-25" d="M 1259 2228
L 1259 519
L 2272 519
Q 2781 519 3026 730
Q 3272 941 3272 1375
Q 3272 1813 3026 2020
Q 2781 2228 2272 2228
L 1259 2228
z
M 1259 4147
L 1259 2741
L 2194 2741
Q 2656 2741 2882 2914
Q 3109 3088 3109 3444
Q 3109 3797 2882 3972
Q 2656 4147 2194 4147
L 1259 4147
z
M 628 4666
L 2241 4666
Q 2963 4666 3353 4366
Q 3744 4066 3744 3513
Q 3744 3084 3544 2831
Q 3344 2578 2956 2516
Q 3422 2416 3680 2098
Q 3938 1781 3938 1306
Q 3938 681 3513 340
Q 3088 0 2303 0
L 628 0
L 628 4666
z
" transform="scale(0.015625)"/>
     </defs>
     <use xlink:href="#DejaVuSans-25"/>
     <use xlink:href="#DejaVuSans-4c" transform="translate(68.609375 0)"/>
     <use xlink:href="#DejaVuSans-51" transform="translate(96.390625 0)"/>
     <use xlink:href="#DejaVuSans-51" transform="translate(159.765625 0)"/>
     <use xlink:href="#DejaVuSans-4c" transform="translate(223.140625 0)"/>
     <use xlink:href="#DejaVuSans-51" transform="translate(250.921875 0)"/>
     <use xlink:href="#DejaVuSans-4a" transform="translate(314.296875 0)"/>
     <use xlink:href="#DejaVuSans-3" transform="translate(377.78125 0)"/>
     <use xlink:href="#DejaVuSans-46" transform="translate(409.5625 0)"/>
     <use xlink:href="#DejaVuSans-4b" transform="translate(464.546875 0)"/>
     <use xlink:href="#DejaVuSans-44" transform="translate(527.921875 0)"/>
     <use xlink:href="#DejaVuSans-51" transform="translate(589.203125 0)"/>
     <use xlink:href="#DejaVuSans-4a" transform="translate(652.578125 0)"/>
     <use xlink:href="#DejaVuSans-48" transform="translate(716.0625 0)"/>
     <use xlink:href="#DejaVuSans-56" transform="translate(777.59375 0)"/>
     <use xlink:href="#DejaVuSans-3" transform="translate(829.6875 0)"/>
     <use xlink:href="#DejaVuSans-45" transform="translate(861.46875 0)"/>
     <use xlink:href="#DejaVuSans-44" transform="translate(924.953125 0)"/>
     <use xlink:href="#DejaVuSans-55" transform="translate(986.234375 0)"/>
     <use xlink:href="#DejaVuSans-55" transform="translate(1025.59375 0)"/>
     <use xlink:href="#DejaVuSans-4c" transform="translate(1066.703125 0)"/>
     <use xlink:href="#DejaVuSans-48" transform="translate(1094.484375 0)"/>
     <use xlink:href="#DejaVuSans-55" transform="translate(1156.015625 0)"/>
     <use xlink:href="#DejaVuSans-56" transform="translate(1197.125 0)"/>
    </g>
   </g>
  </g>
  <g id="axes_3">
   <g id="patch_11">
    <path d="M 626.565344 225.198979
L 875.39976 225.198979
L 875.39976 18.118365
L 626.565344 18.118365
z
" style="fill: #ffffff"/>
   </g>
   <g id="matplotlib.axis_5">
    <g id="xtick_9">
     <g id="line2d_50">
      <path d="M 637.875999 225.198979
L 637.875999 18.118365
" clip-path="url(#p15bf0d456e)" style="fill: none; stroke: #b0b0b0; stroke-opacity: 0.18; stroke-width: 0.6; stroke-linecap: square"/>
     </g>
     <g id="line2d_51">
      <g>
       <use xlink:href="#m4ec6ab3908" x="637.875999" y="225.198979" style="stroke: #000000; stroke-width: 0.8"/>
      </g>
     </g>
     <g id="text_29">
      <!-- 0.5 -->
      <g transform="translate(629.924437 239.796635) scale(0.1 -0.1)">
       <use xlink:href="#DejaVuSans-13"/>
       <use xlink:href="#DejaVuSans-11" transform="translate(63.625 0)"/>
       <use xlink:href="#DejaVuSans-18" transform="translate(95.40625 0)"/>
      </g>
     </g>
    </g>
    <g id="xtick_10">
     <g id="line2d_52">
      <path d="M 679.767315 225.198979
L 679.767315 18.118365
" clip-path="url(#p15bf0d456e)" style="fill: none; stroke: #b0b0b0; stroke-opacity: 0.18; stroke-width: 0.6; stroke-linecap: square"/>
     </g>
     <g id="line2d_53">
      <g>
       <use xlink:href="#m4ec6ab3908" x="679.767315" y="225.198979" style="stroke: #000000; stroke-width: 0.8"/>
      </g>
     </g>
     <g id="text_30">
      <!-- 1.0 -->
      <g transform="translate(671.815753 239.796635) scale(0.1 -0.1)">
       <use xlink:href="#DejaVuSans-14"/>
       <use xlink:href="#DejaVuSans-11" transform="translate(63.625 0)"/>
       <use xlink:href="#DejaVuSans-13" transform="translate(95.40625 0)"/>
      </g>
     </g>
    </g>
    <g id="xtick_11">
     <g id="line2d_54">
      <path d="M 721.658631 225.198979
L 721.658631 18.118365
" clip-path="url(#p15bf0d456e)" style="fill: none; stroke: #b0b0b0; stroke-opacity: 0.18; stroke-width: 0.6; stroke-linecap: square"/>
     </g>
     <g id="line2d_55">
      <g>
       <use xlink:href="#m4ec6ab3908" x="721.658631" y="225.198979" style="stroke: #000000; stroke-width: 0.8"/>
      </g>
     </g>
     <g id="text_31">
      <!-- 1.5 -->
      <g transform="translate(713.707069 239.796635) scale(0.1 -0.1)">
       <use xlink:href="#DejaVuSans-14"/>
       <use xlink:href="#DejaVuSans-11" transform="translate(63.625 0)"/>
       <use xlink:href="#DejaVuSans-18" transform="translate(95.40625 0)"/>
      </g>
     </g>
    </g>
    <g id="xtick_12">
     <g id="line2d_56">
      <path d="M 763.549947 225.198979
L 763.549947 18.118365
" clip-path="url(#p15bf0d456e)" style="fill: none; stroke: #b0b0b0; stroke-opacity: 0.18; stroke-width: 0.6; stroke-linecap: square"/>
     </g>
     <g id="line2d_57">
      <g>
       <use xlink:href="#m4ec6ab3908" x="763.549947" y="225.198979" style="stroke: #000000; stroke-width: 0.8"/>
      </g>
     </g>
     <g id="text_32">
      <!-- 2.0 -->
      <g transform="translate(755.598384 239.796635) scale(0.1 -0.1)">
       <use xlink:href="#DejaVuSans-15"/>
       <use xlink:href="#DejaVuSans-11" transform="translate(63.625 0)"/>
       <use xlink:href="#DejaVuSans-13" transform="translate(95.40625 0)"/>
      </g>
     </g>
    </g>
    <g id="xtick_13">
     <g id="line2d_58">
      <path d="M 805.441263 225.198979
L 805.441263 18.118365
" clip-path="url(#p15bf0d456e)" style="fill: none; stroke: #b0b0b0; stroke-opacity: 0.18; stroke-width: 0.6; stroke-linecap: square"/>
     </g>
     <g id="line2d_59">
      <g>
       <use xlink:href="#m4ec6ab3908" x="805.441263" y="225.198979" style="stroke: #000000; stroke-width: 0.8"/>
      </g>
     </g>
     <g id="text_33">
      <!-- 2.5 -->
      <g transform="translate(797.4897 239.796635) scale(0.1 -0.1)">
       <use xlink:href="#DejaVuSans-15"/>
       <use xlink:href="#DejaVuSans-11" transform="translate(63.625 0)"/>
       <use xlink:href="#DejaVuSans-18" transform="translate(95.40625 0)"/>
      </g>
     </g>
    </g>
    <g id="xtick_14">
     <g id="line2d_60">
      <path d="M 847.332578 225.198979
L 847.332578 18.118365
" clip-path="url(#p15bf0d456e)" style="fill: none; stroke: #b0b0b0; stroke-opacity: 0.18; stroke-width: 0.6; stroke-linecap: square"/>
     </g>
     <g id="line2d_61">
      <g>
       <use xlink:href="#m4ec6ab3908" x="847.332578" y="225.198979" style="stroke: #000000; stroke-width: 0.8"/>
      </g>
     </g>
     <g id="text_34">
      <!-- 3.0 -->
      <g transform="translate(839.381016 239.796635) scale(0.1 -0.1)">
       <use xlink:href="#DejaVuSans-16"/>
       <use xlink:href="#DejaVuSans-11" transform="translate(63.625 0)"/>
       <use xlink:href="#DejaVuSans-13" transform="translate(95.40625 0)"/>
      </g>
     </g>
    </g>
    <g id="text_35">
     <!-- radius -->
     <g transform="translate(735.526302 253.797416) scale(0.1 -0.1)">
      <use xlink:href="#DejaVuSans-55"/>
      <use xlink:href="#DejaVuSans-44" transform="translate(41.109375 0)"/>
      <use xlink:href="#DejaVuSans-47" transform="translate(102.390625 0)"/>
      <use xlink:href="#DejaVuSans-4c" transform="translate(165.875 0)"/>
      <use xlink:href="#DejaVuSans-58" transform="translate(193.65625 0)"/>
      <use xlink:href="#DejaVuSans-56" transform="translate(257.03125 0)"/>
     </g>
    </g>
   </g>
   <g id="matplotlib.axis_6">
    <g id="ytick_13">
     <g id="line2d_62">
      <path d="M 626.565344 215.786224
L 875.39976 215.786224
" clip-path="url(#p15bf0d456e)" style="fill: none; stroke: #b0b0b0; stroke-opacity: 0.18; stroke-width: 0.6; stroke-linecap: square"/>
     </g>
     <g id="line2d_63">
      <g>
       <use xlink:href="#m6e8c790583" x="626.565344" y="215.786224" style="stroke: #000000; stroke-width: 0.8"/>
      </g>
     </g>
     <g id="text_36">
      <!-- 0.00 -->
      <g transform="translate(597.299719 219.585052) scale(0.1 -0.1)">
       <use xlink:href="#DejaVuSans-13"/>
       <use xlink:href="#DejaVuSans-11" transform="translate(63.625 0)"/>
       <use xlink:href="#DejaVuSans-13" transform="translate(95.40625 0)"/>
       <use xlink:href="#DejaVuSans-13" transform="translate(159.03125 0)"/>
      </g>
     </g>
    </g>
    <g id="ytick_14">
     <g id="line2d_64">
      <path d="M 626.565344 188.184238
L 875.39976 188.184238
" clip-path="url(#p15bf0d456e)" style="fill: none; stroke: #b0b0b0; stroke-opacity: 0.18; stroke-width: 0.6; stroke-linecap: square"/>
     </g>
     <g id="line2d_65">
      <g>
       <use xlink:href="#m6e8c790583" x="626.565344" y="188.184238" style="stroke: #000000; stroke-width: 0.8"/>
      </g>
     </g>
     <g id="text_37">
      <!-- 0.25 -->
      <g transform="translate(597.299719 191.983066) scale(0.1 -0.1)">
       <use xlink:href="#DejaVuSans-13"/>
       <use xlink:href="#DejaVuSans-11" transform="translate(63.625 0)"/>
       <use xlink:href="#DejaVuSans-15" transform="translate(95.40625 0)"/>
       <use xlink:href="#DejaVuSans-18" transform="translate(159.03125 0)"/>
      </g>
     </g>
    </g>
    <g id="ytick_15">
     <g id="line2d_66">
      <path d="M 626.565344 160.582253
L 875.39976 160.582253
" clip-path="url(#p15bf0d456e)" style="fill: none; stroke: #b0b0b0; stroke-opacity: 0.18; stroke-width: 0.6; stroke-linecap: square"/>
     </g>
     <g id="line2d_67">
      <g>
       <use xlink:href="#m6e8c790583" x="626.565344" y="160.582253" style="stroke: #000000; stroke-width: 0.8"/>
      </g>
     </g>
     <g id="text_38">
      <!-- 0.50 -->
      <g transform="translate(597.299719 164.381081) scale(0.1 -0.1)">
       <use xlink:href="#DejaVuSans-13"/>
       <use xlink:href="#DejaVuSans-11" transform="translate(63.625 0)"/>
       <use xlink:href="#DejaVuSans-18" transform="translate(95.40625 0)"/>
       <use xlink:href="#DejaVuSans-13" transform="translate(159.03125 0)"/>
      </g>
     </g>
    </g>
    <g id="ytick_16">
     <g id="line2d_68">
      <path d="M 626.565344 132.980268
L 875.39976 132.980268
" clip-path="url(#p15bf0d456e)" style="fill: none; stroke: #b0b0b0; stroke-opacity: 0.18; stroke-width: 0.6; stroke-linecap: square"/>
     </g>
     <g id="line2d_69">
      <g>
       <use xlink:href="#m6e8c790583" x="626.565344" y="132.980268" style="stroke: #000000; stroke-width: 0.8"/>
      </g>
     </g>
     <g id="text_39">
      <!-- 0.75 -->
      <g transform="translate(597.299719 136.779096) scale(0.1 -0.1)">
       <defs>
        <path id="DejaVuSans-1a" d="M 525 4666
L 3525 4666
L 3525 4397
L 1831 0
L 1172 0
L 2766 4134
L 525 4134
L 525 4666
z
" transform="scale(0.015625)"/>
       </defs>
       <use xlink:href="#DejaVuSans-13"/>
       <use xlink:href="#DejaVuSans-11" transform="translate(63.625 0)"/>
       <use xlink:href="#DejaVuSans-1a" transform="translate(95.40625 0)"/>
       <use xlink:href="#DejaVuSans-18" transform="translate(159.03125 0)"/>
      </g>
     </g>
    </g>
    <g id="ytick_17">
     <g id="line2d_70">
      <path d="M 626.565344 105.378282
L 875.39976 105.378282
" clip-path="url(#p15bf0d456e)" style="fill: none; stroke: #b0b0b0; stroke-opacity: 0.18; stroke-width: 0.6; stroke-linecap: square"/>
     </g>
     <g id="line2d_71">
      <g>
       <use xlink:href="#m6e8c790583" x="626.565344" y="105.378282" style="stroke: #000000; stroke-width: 0.8"/>
      </g>
     </g>
     <g id="text_40">
      <!-- 1.00 -->
      <g transform="translate(597.299719 109.17711) scale(0.1 -0.1)">
       <use xlink:href="#DejaVuSans-14"/>
       <use xlink:href="#DejaVuSans-11" transform="translate(63.625 0)"/>
       <use xlink:href="#DejaVuSans-13" transform="translate(95.40625 0)"/>
       <use xlink:href="#DejaVuSans-13" transform="translate(159.03125 0)"/>
      </g>
     </g>
    </g>
    <g id="ytick_18">
     <g id="line2d_72">
      <path d="M 626.565344 77.776297
L 875.39976 77.776297
" clip-path="url(#p15bf0d456e)" style="fill: none; stroke: #b0b0b0; stroke-opacity: 0.18; stroke-width: 0.6; stroke-linecap: square"/>
     </g>
     <g id="line2d_73">
      <g>
       <use xlink:href="#m6e8c790583" x="626.565344" y="77.776297" style="stroke: #000000; stroke-width: 0.8"/>
      </g>
     </g>
     <g id="text_41">
      <!-- 1.25 -->
      <g transform="translate(597.299719 81.575125) scale(0.1 -0.1)">
       <use xlink:href="#DejaVuSans-14"/>
       <use xlink:href="#DejaVuSans-11" transform="translate(63.625 0)"/>
       <use xlink:href="#DejaVuSans-15" transform="translate(95.40625 0)"/>
       <use xlink:href="#DejaVuSans-18" transform="translate(159.03125 0)"/>
      </g>
     </g>
    </g>
    <g id="ytick_19">
     <g id="line2d_74">
      <path d="M 626.565344 50.174311
L 875.39976 50.174311
" clip-path="url(#p15bf0d456e)" style="fill: none; stroke: #b0b0b0; stroke-opacity: 0.18; stroke-width: 0.6; stroke-linecap: square"/>
     </g>
     <g id="line2d_75">
      <g>
       <use xlink:href="#m6e8c790583" x="626.565344" y="50.174311" style="stroke: #000000; stroke-width: 0.8"/>
      </g>
     </g>
     <g id="text_42">
      <!-- 1.50 -->
      <g transform="translate(597.299719 53.97314) scale(0.1 -0.1)">
       <use xlink:href="#DejaVuSans-14"/>
       <use xlink:href="#DejaVuSans-11" transform="translate(63.625 0)"/>
       <use xlink:href="#DejaVuSans-18" transform="translate(95.40625 0)"/>
       <use xlink:href="#DejaVuSans-13" transform="translate(159.03125 0)"/>
      </g>
     </g>
    </g>
    <g id="ytick_20">
     <g id="line2d_76">
      <path d="M 626.565344 22.572326
L 875.39976 22.572326
" clip-path="url(#p15bf0d456e)" style="fill: none; stroke: #b0b0b0; stroke-opacity: 0.18; stroke-width: 0.6; stroke-linecap: square"/>
     </g>
     <g id="line2d_77">
      <g>
       <use xlink:href="#m6e8c790583" x="626.565344" y="22.572326" style="stroke: #000000; stroke-width: 0.8"/>
      </g>
     </g>
     <g id="text_43">
      <!-- 1.75 -->
      <g transform="translate(597.299719 26.371154) scale(0.1 -0.1)">
       <use xlink:href="#DejaVuSans-14"/>
       <use xlink:href="#DejaVuSans-11" transform="translate(63.625 0)"/>
       <use xlink:href="#DejaVuSans-1a" transform="translate(95.40625 0)"/>
       <use xlink:href="#DejaVuSans-18" transform="translate(159.03125 0)"/>
      </g>
     </g>
    </g>
    <g id="text_44">
     <!-- shifted F(r) -->
     <g transform="translate(590.897375 149.126641) rotate(-90) scale(0.1 -0.1)">
      <use xlink:href="#DejaVuSans-56"/>
      <use xlink:href="#DejaVuSans-4b" transform="translate(52.09375 0)"/>
      <use xlink:href="#DejaVuSans-4c" transform="translate(115.46875 0)"/>
      <use xlink:href="#DejaVuSans-49" transform="translate(143.25 0)"/>
      <use xlink:href="#DejaVuSans-57" transform="translate(176.703125 0)"/>
      <use xlink:href="#DejaVuSans-48" transform="translate(215.90625 0)"/>
      <use xlink:href="#DejaVuSans-47" transform="translate(277.4375 0)"/>
      <use xlink:href="#DejaVuSans-3" transform="translate(340.921875 0)"/>
      <use xlink:href="#DejaVuSans-29" transform="translate(372.703125 0)"/>
      <use xlink:href="#DejaVuSans-b" transform="translate(430.21875 0)"/>
      <use xlink:href="#DejaVuSans-55" transform="translate(469.234375 0)"/>
      <use xlink:href="#DejaVuSans-c" transform="translate(510.34375 0)"/>
     </g>
    </g>
   </g>
   <g id="line2d_78">
    <path d="M 637.875999 27.53112
L 643.55499 27.698615
L 646.394485 27.9524
L 648.287481 28.260798
L 650.180478 28.751463
L 652.073475 29.513943
L 653.966471 30.669961
L 654.91297 31.44347
L 655.859468 32.377515
L 656.805966 33.497454
L 657.752465 34.83046
L 658.698963 36.405018
L 659.645461 38.25024
L 660.59196 40.394975
L 661.538458 42.86675
L 662.484956 45.690554
L 664.377953 52.473808
L 666.27095 60.845915
L 668.163947 70.794305
L 670.056943 82.178037
L 672.896438 101.351361
L 681.414923 162.118125
L 683.30792 173.975989
L 685.200917 184.638259
L 687.093914 193.920938
L 688.98691 201.681577
L 689.933409 204.956446
L 690.879907 207.813105
L 691.826405 210.242801
L 692.772904 212.238368
L 693.719402 213.794122
L 694.6659 214.905774
L 695.612399 215.570366
L 696.558897 215.786224
L 697.505395 215.552933
L 698.451894 214.871337
L 699.398392 213.743548
L 700.34489 212.172984
L 701.291389 210.164431
L 702.237887 207.724112
L 703.184385 204.859793
L 704.130884 201.580902
L 706.023881 193.826297
L 707.916877 184.574887
L 709.809874 173.979002
L 711.702871 162.235557
L 714.542366 143.02653
L 721.167854 96.854638
L 723.060851 85.152535
L 724.953847 74.823685
L 726.846844 66.129391
L 728.739841 59.200498
L 729.686339 56.401243
L 730.632838 54.031342
L 731.579336 52.0721
L 732.525834 50.49989
L 733.472333 49.287568
L 734.418831 48.405836
L 735.365329 47.824478
L 736.311828 47.513425
L 737.258326 47.4436
L 738.204824 47.587544
L 739.151323 47.919847
L 740.097821 48.417386
L 741.990818 49.827587
L 743.883814 51.679887
L 745.776811 53.869153
L 748.616306 57.618927
L 751.455801 61.768215
L 755.241795 67.706304
L 762.813781 80.173359
L 768.492772 89.31826
L 772.278765 94.998526
L 775.11826 98.930525
L 777.957755 102.516847
L 780.79725 105.706393
L 783.636745 108.454865
L 785.529742 110.023447
L 787.422739 111.370019
L 789.315735 112.486728
L 791.208732 113.367134
L 793.101729 114.006211
L 794.994725 114.400337
L 796.887722 114.54729
L 798.780719 114.446242
L 800.673715 114.097763
L 802.566712 113.503816
L 804.459709 112.667763
L 806.352705 111.594371
L 808.245702 110.289815
L 810.138699 108.761689
L 812.031696 107.019
L 814.871191 104.025856
L 817.710686 100.614835
L 820.550181 96.833968
L 824.336174 91.312729
L 828.122167 85.377211
L 834.747656 74.479731
L 841.373144 63.706279
L 845.159138 57.933619
L 848.945131 52.604916
L 851.784626 48.95841
L 854.624121 45.642624
L 857.463616 42.672112
L 860.303111 40.049821
L 863.142606 37.768242
L 864.089105 37.080834
L 864.089105 37.080834
" clip-path="url(#p15bf0d456e)" style="fill: none; stroke: #8c6bb1; stroke-width: 1.5; stroke-linecap: square"/>
   </g>
   <g id="line2d_79">
    <path d="M 637.875999 181.569608
L 646.394485 181.4388
L 650.180478 181.189313
L 653.019973 180.785156
L 654.91297 180.33539
L 656.805966 179.669705
L 658.698963 178.705951
L 660.59196 177.341425
L 662.484956 175.452531
L 663.431455 174.267546
L 664.377953 172.8968
L 665.324452 171.320384
L 666.27095 169.518061
L 667.217448 167.469642
L 669.110445 162.556754
L 671.003442 156.439659
L 672.896438 149.011483
L 674.789435 140.221451
L 676.682432 130.095875
L 678.575428 118.756464
L 681.414923 100.004253
L 687.093914 61.353725
L 688.98691 50.107969
L 690.879907 40.646707
L 691.826405 36.749772
L 692.772904 33.484359
L 693.719402 30.897366
L 694.6659 29.026393
L 695.612399 27.898817
L 696.558897 27.53112
L 697.505395 27.92848
L 698.451894 29.084635
L 699.398392 30.982038
L 700.34489 33.592285
L 701.291389 36.876811
L 702.237887 40.78782
L 704.130884 50.258973
L 706.023881 61.486047
L 708.863376 80.344336
L 713.595867 112.421744
L 715.488864 124.101706
L 717.381861 134.636418
L 719.274857 143.851999
L 721.167854 151.676464
L 723.060851 158.123731
L 724.953847 163.273514
L 725.900346 165.39951
L 726.846844 167.250105
L 727.793343 168.844533
L 728.739841 170.202485
L 729.686339 171.343676
L 730.632838 172.287468
L 731.579336 173.052566
L 732.525834 173.656781
L 733.472333 174.116848
L 735.365329 174.665394
L 737.258326 174.807006
L 739.151323 174.62986
L 741.044319 174.202864
L 742.937316 173.578155
L 745.776811 172.35132
L 748.616306 170.850808
L 751.455801 169.129938
L 755.241795 166.551909
L 759.027788 163.708686
L 763.76028 159.883653
L 776.064758 149.723937
L 779.850752 146.961325
L 782.690247 145.129612
L 785.529742 143.555122
L 788.369237 142.278651
L 791.208732 141.334154
L 793.101729 140.901951
L 794.994725 140.634157
L 796.887722 140.534064
L 798.780719 140.602904
L 800.673715 140.83983
L 802.566712 141.241927
L 804.459709 141.804275
L 807.299204 142.932845
L 810.138699 144.375891
L 812.978194 146.095537
L 815.817689 148.047994
L 819.603682 150.930375
L 825.282672 155.611112
L 833.801158 162.68705
L 838.533649 166.308193
L 842.319643 168.935246
L 846.105636 171.281539
L 849.89163 173.329582
L 853.677623 175.07839
L 857.463616 176.540277
L 861.24961 177.737337
L 864.089105 178.478284
L 864.089105 178.478284
" clip-path="url(#p15bf0d456e)" style="fill: none; stroke: #d88c3d; stroke-opacity: 0.8; stroke-linecap: square"/>
   </g>
   <g id="patch_12">
    <path d="M 626.565344 225.198979
L 626.565344 18.118365
" style="fill: none; stroke: #000000; stroke-width: 0.8; stroke-linejoin: miter; stroke-linecap: square"/>
   </g>
   <g id="patch_13">
    <path d="M 626.565344 225.198979
L 875.39976 225.198979
" style="fill: none; stroke: #000000; stroke-width: 0.8; stroke-linejoin: miter; stroke-linecap: square"/>
   </g>
   <g id="text_45">
    <g id="patch_14">
     <path d="M 634.030377 51.25638
L 679.955611 51.25638
Q 682.335611 51.25638 682.335611 48.87638
L 682.335611 28.472396
Q 682.335611 26.092396 679.955611 26.092396
L 634.030377 26.092396
Q 631.650377 26.092396 631.650377 28.472396
L 631.650377 48.87638
Q 631.650377 51.25638 634.030377 51.25638
z
" style="fill: #ffffff; opacity: 0.9; stroke: #000000; stroke-linejoin: miter"/>
    </g>
    <!-- kT = 1.0 -->
    <g transform="translate(634.030377 35.781898) scale(0.085 -0.085)">
     <defs>
      <path id="DejaVuSans-4e" d="M 581 4863
L 1159 4863
L 1159 1991
L 2875 3500
L 3609 3500
L 1753 1863
L 3688 0
L 2938 0
L 1159 1709
L 1159 0
L 581 0
L 581 4863
z
" transform="scale(0.015625)"/>
      <path id="DejaVuSans-37" d="M -19 4666
L 3928 4666
L 3928 4134
L 2272 4134
L 2272 0
L 1638 0
L 1638 4134
L -19 4134
L -19 4666
z
" transform="scale(0.015625)"/>
      <path id="DejaVuSans-20" d="M 678 2906
L 4684 2906
L 4684 2381
L 678 2381
L 678 2906
z
M 678 1631
L 4684 1631
L 4684 1100
L 678 1100
L 678 1631
z
" transform="scale(0.015625)"/>
     </defs>
     <use xlink:href="#DejaVuSans-4e"/>
     <use xlink:href="#DejaVuSans-37" transform="translate(57.90625 0)"/>
     <use xlink:href="#DejaVuSans-3" transform="translate(118.984375 0)"/>
     <use xlink:href="#DejaVuSans-20" transform="translate(150.765625 0)"/>
     <use xlink:href="#DejaVuSans-3" transform="translate(234.5625 0)"/>
     <use xlink:href="#DejaVuSans-14" transform="translate(266.34375 0)"/>
     <use xlink:href="#DejaVuSans-11" transform="translate(329.96875 0)"/>
     <use xlink:href="#DejaVuSans-13" transform="translate(361.75 0)"/>
    </g>
    <!-- N = 80000 -->
    <g transform="translate(634.030377 45.983558) scale(0.085 -0.085)">
     <defs>
      <path id="DejaVuSans-31" d="M 628 4666
L 1478 4666
L 3547 763
L 3547 4666
L 4159 4666
L 4159 0
L 3309 0
L 1241 3903
L 1241 0
L 628 0
L 628 4666
z
" transform="scale(0.015625)"/>
     </defs>
     <use xlink:href="#DejaVuSans-31"/>
     <use xlink:href="#DejaVuSans-3" transform="translate(74.8125 0)"/>
     <use xlink:href="#DejaVuSans-20" transform="translate(106.59375 0)"/>
     <use xlink:href="#DejaVuSans-3" transform="translate(190.390625 0)"/>
     <use xlink:href="#DejaVuSans-1b" transform="translate(222.171875 0)"/>
     <use xlink:href="#DejaVuSans-13" transform="translate(285.796875 0)"/>
     <use xlink:href="#DejaVuSans-13" transform="translate(349.421875 0)"/>
     <use xlink:href="#DejaVuSans-13" transform="translate(413.046875 0)"/>
     <use xlink:href="#DejaVuSans-13" transform="translate(476.671875 0)"/>
    </g>
   </g>
   <g id="text_46">
    <!-- RDF can become a PMF -->
    <g transform="translate(680.406615 12.118365) scale(0.12 -0.12)">
     <defs>
      <path id="DejaVuSans-35" d="M 2841 2188
Q 3044 2119 3236 1894
Q 3428 1669 3622 1275
L 4263 0
L 3584 0
L 2988 1197
Q 2756 1666 2539 1819
Q 2322 1972 1947 1972
L 1259 1972
L 1259 0
L 628 0
L 628 4666
L 2053 4666
Q 2853 4666 3247 4331
Q 3641 3997 3641 3322
Q 3641 2881 3436 2590
Q 3231 2300 2841 2188
z
M 1259 4147
L 1259 2491
L 2053 2491
Q 2509 2491 2742 2702
Q 2975 2913 2975 3322
Q 2975 3731 2742 3939
Q 2509 4147 2053 4147
L 1259 4147
z
" transform="scale(0.015625)"/>
      <path id="DejaVuSans-27" d="M 1259 4147
L 1259 519
L 2022 519
Q 2988 519 3436 956
Q 3884 1394 3884 2338
Q 3884 3275 3436 3711
Q 2988 4147 2022 4147
L 1259 4147
z
M 628 4666
L 1925 4666
Q 3281 4666 3915 4102
Q 4550 3538 4550 2338
Q 4550 1131 3912 565
Q 3275 0 1925 0
L 628 0
L 628 4666
z
" transform="scale(0.015625)"/>
     </defs>
     <use xlink:href="#DejaVuSans-35"/>
     <use xlink:href="#DejaVuSans-27" transform="translate(69.484375 0)"/>
     <use xlink:href="#DejaVuSans-29" transform="translate(146.484375 0)"/>
     <use xlink:href="#DejaVuSans-3" transform="translate(204 0)"/>
     <use xlink:href="#DejaVuSans-46" transform="translate(235.78125 0)"/>
     <use xlink:href="#DejaVuSans-44" transform="translate(290.765625 0)"/>
     <use xlink:href="#DejaVuSans-51" transform="translate(352.046875 0)"/>
     <use xlink:href="#DejaVuSans-3" transform="translate(415.421875 0)"/>
     <use xlink:href="#DejaVuSans-45" transform="translate(447.203125 0)"/>
     <use xlink:href="#DejaVuSans-48" transform="translate(510.6875 0)"/>
     <use xlink:href="#DejaVuSans-46" transform="translate(572.21875 0)"/>
     <use xlink:href="#DejaVuSans-52" transform="translate(627.203125 0)"/>
     <use xlink:href="#DejaVuSans-50" transform="translate(688.390625 0)"/>
     <use xlink:href="#DejaVuSans-48" transform="translate(785.796875 0)"/>
     <use xlink:href="#DejaVuSans-3" transform="translate(847.328125 0)"/>
     <use xlink:href="#DejaVuSans-44" transform="translate(879.109375 0)"/>
     <use xlink:href="#DejaVuSans-3" transform="translate(940.390625 0)"/>
     <use xlink:href="#DejaVuSans-33" transform="translate(972.171875 0)"/>
     <use xlink:href="#DejaVuSans-30" transform="translate(1032.46875 0)"/>
     <use xlink:href="#DejaVuSans-29" transform="translate(1118.75 0)"/>
    </g>
   </g>
   <g id="legend_2">
    <g id="line2d_80">
     <path d="M 802.95476 201.276479
L 810.95476 201.276479
L 818.95476 201.276479
" style="fill: none; stroke: #8c6bb1; stroke-width: 1.5; stroke-linecap: square"/>
    </g>
    <g id="text_47">
     <!-- -log g(r) -->
     <g transform="translate(825.35476 204.076479) scale(0.08 -0.08)">
      <defs>
       <path id="DejaVuSans-10" d="M 313 2009
L 1997 2009
L 1997 1497
L 313 1497
L 313 2009
z
" transform="scale(0.015625)"/>
      </defs>
      <use xlink:href="#DejaVuSans-10"/>
      <use xlink:href="#DejaVuSans-4f" transform="translate(36.078125 0)"/>
      <use xlink:href="#DejaVuSans-52" transform="translate(63.859375 0)"/>
      <use xlink:href="#DejaVuSans-4a" transform="translate(125.046875 0)"/>
      <use xlink:href="#DejaVuSans-3" transform="translate(188.53125 0)"/>
      <use xlink:href="#DejaVuSans-4a" transform="translate(220.3125 0)"/>
      <use xlink:href="#DejaVuSans-b" transform="translate(283.796875 0)"/>
      <use xlink:href="#DejaVuSans-55" transform="translate(322.8125 0)"/>
      <use xlink:href="#DejaVuSans-c" transform="translate(363.921875 0)"/>
     </g>
    </g>
    <g id="line2d_81">
     <path d="M 802.95476 213.277104
L 810.95476 213.277104
L 818.95476 213.277104
" style="fill: none; stroke: #d88c3d; stroke-opacity: 0.8; stroke-linecap: square"/>
    </g>
    <g id="text_48">
     <!-- scaled g(r) -->
     <g transform="translate(825.35476 216.077104) scale(0.08 -0.08)">
      <use xlink:href="#DejaVuSans-56"/>
      <use xlink:href="#DejaVuSans-46" transform="translate(52.09375 0)"/>
      <use xlink:href="#DejaVuSans-44" transform="translate(107.078125 0)"/>
      <use xlink:href="#DejaVuSans-4f" transform="translate(168.359375 0)"/>
      <use xlink:href="#DejaVuSans-48" transform="translate(196.140625 0)"/>
      <use xlink:href="#DejaVuSans-47" transform="translate(257.671875 0)"/>
      <use xlink:href="#DejaVuSans-3" transform="translate(321.15625 0)"/>
      <use xlink:href="#DejaVuSans-4a" transform="translate(352.9375 0)"/>
      <use xlink:href="#DejaVuSans-b" transform="translate(416.421875 0)"/>
      <use xlink:href="#DejaVuSans-55" transform="translate(455.4375 0)"/>
      <use xlink:href="#DejaVuSans-c" transform="translate(496.546875 0)"/>
     </g>
    </g>
   </g>
  </g>
 </g>
 <defs>
  <clipPath id="p4f51555853">
   <rect x="36.72524" y="18.118365" width="248.834416" height="207.080614"/>
  </clipPath>
  <clipPath id="pb9fb44d439">
   <rect x="328.464042" y="18.118365" width="248.834416" height="207.080614"/>
  </clipPath>
  <clipPath id="p15bf0d456e">
   <rect x="626.565344" y="18.118365" width="248.834416" height="207.080614"/>
  </clipPath>
 </defs>
</svg>
