<?xml version="1.0" encoding="utf-8" standalone="no"?>
<!DOCTYPE svg PUBLIC "-//W3C//DTD SVG 1.1//EN"
  "http://www.w3.org/Graphics/SVG/1.1/DTD/svg11.dtd">
<svg xmlns:xlink="http://www.w3.org/1999/xlink" width="878.4pt" height="259.2pt" viewBox="0 0 878.4 259.2" xmlns="http://www.w3.org/2000/svg" version="1.1">
 <metadata>
  <rdf:RDF xmlns:dc="http://purl.org/dc/elements/1.1/" xmlns:cc="http://creativecommons.org/ns#" xmlns:rdf="http://www.w3.org/1999/02/22-rdf-syntax-ns#">
   <cc:Work>
    <dc:type rdf:resource="http://purl.org/dc/dcmitype/StillImage"/>
    <dc:format>image/svg+xml</dc:format>
    <dc:creator>
     <cc:Agent>
      <dc:title>Matplotlib v3.11.0, https://matplotlib.org/</dc:title>
     </cc:Agent>
    </dc:creator>
   </cc:Work>
  </rdf:RDF>
 </metadata>
 <defs>
  <style type="text/css">*{stroke-linejoin: round; stroke-linecap: butt}</style>
 </defs>
 <g id="figure_1">
  <g id="patch_1">
   <path d="M 0 259.2
L 878.4 259.2
L 878.4 0
L 0 0
z
" style="fill: #ffffff"/>
  </g>
  <g id="axes_1">
   <g id="patch_2">
    <path d="M 36.726021 225.198979
L 288.067989 225.198979
L 288.067989 18.118365
L 36.726021 18.118365
z
" style="fill: #ffffff"/>
   </g>
   <g id="matplotlib.axis_1">
    <g id="xtick_1">
     <g id="line2d_1">
      <path d="M 70.262853 225.198979
L 70.262853 18.118365
" clip-path="url(#p589c8ca849)" style="fill: none; stroke: #b0b0b0; stroke-opacity: 0.18; stroke-width: 0.6; stroke-linecap: square"/>
     </g>
     <g id="line2d_2">
      <defs>
       <path id="m682dca91c4" d="M 0 0
L 0 3.5
" style="stroke: #000000; stroke-width: 0.8"/>
      </defs>
      <g>
       <use xlink:href="#m682dca91c4" x="70.262853" y="225.198979" style="stroke: #000000; stroke-width: 0.8"/>
      </g>
     </g>
     <g id="text_1">
      <!-- −2 -->
      <g transform="translate(62.891759 239.796635) scale(0.1 -0.1)">
       <defs>
        <path id="DejaVuSans-c9c" d="M 678 2272
L 4684 2272
L 4684 1741
L 678 1741
L 678 2272
z
" transform="scale(0.015625)"/>
        <path id="DejaVuSans-15" d="M 1228 531
L 3431 531
L 3431 0
L 469 0
L 469 531
Q 828 903 1448 1529
Q 2069 2156 2228 2338
Q 2531 2678 2651 2914
Q 2772 3150 2772 3378
Q 2772 3750 2511 3984
Q 2250 4219 1831 4219
Q 1534 4219 1204 4116
Q 875 4013 500 3803
L 500 4441
Q 881 4594 1212 4672
Q 1544 4750 1819 4750
Q 2544 4750 2975 4387
Q 3406 4025 3406 3419
Q 3406 3131 3298 2873
Q 3191 2616 2906 2266
Q 2828 2175 2409 1742
Q 1991 1309 1228 531
z
" transform="scale(0.015625)"/>
       </defs>
       <use xlink:href="#DejaVuSans-c9c"/>
       <use xlink:href="#DejaVuSans-15" transform="translate(83.796875 0)"/>
      </g>
     </g>
    </g>
    <g id="xtick_2">
     <g id="line2d_3">
      <path d="M 116.329929 225.198979
L 116.329929 18.118365
" clip-path="url(#p589c8ca849)" style="fill: none; stroke: #b0b0b0; stroke-opacity: 0.18; stroke-width: 0.6; stroke-linecap: square"/>
     </g>
     <g id="line2d_4">
      <g>
       <use xlink:href="#m682dca91c4" x="116.329929" y="225.198979" style="stroke: #000000; stroke-width: 0.8"/>
      </g>
     </g>
     <g id="text_2">
      <!-- −1 -->
      <g transform="translate(108.958835 239.796635) scale(0.1 -0.1)">
       <defs>
        <path id="DejaVuSans-14" d="M 794 531
L 1825 531
L 1825 4091
L 703 3866
L 703 4441
L 1819 4666
L 2450 4666
L 2450 531
L 3481 531
L 3481 0
L 794 0
L 794 531
z
" transform="scale(0.015625)"/>
       </defs>
       <use xlink:href="#DejaVuSans-c9c"/>
       <use xlink:href="#DejaVuSans-14" transform="translate(83.796875 0)"/>
      </g>
     </g>
    </g>
    <g id="xtick_3">
     <g id="line2d_5">
      <path d="M 162.397005 225.198979
L 162.397005 18.118365
" clip-path="url(#p589c8ca849)" style="fill: none; stroke: #b0b0b0; stroke-opacity: 0.18; stroke-width: 0.6; stroke-linecap: square"/>
     </g>
     <g id="line2d_6">
      <g>
       <use xlink:href="#m682dca91c4" x="162.397005" y="225.198979" style="stroke: #000000; stroke-width: 0.8"/>
      </g>
     </g>
     <g id="text_3">
      <!-- 0 -->
      <g transform="translate(159.215755 239.796635) scale(0.1 -0.1)">
       <defs>
        <path id="DejaVuSans-13" d="M 2034 4250
Q 1547 4250 1301 3770
Q 1056 3291 1056 2328
Q 1056 1369 1301 889
Q 1547 409 2034 409
Q 2525 409 2770 889
Q 3016 1369 3016 2328
Q 3016 3291 2770 3770
Q 2525 4250 2034 4250
z
M 2034 4750
Q 2819 4750 3233 4129
Q 3647 3509 3647 2328
Q 3647 1150 3233 529
Q 2819 -91 2034 -91
Q 1250 -91 836 529
Q 422 1150 422 2328
Q 422 3509 836 4129
Q 1250 4750 2034 4750
z
" transform="scale(0.015625)"/>
       </defs>
       <use xlink:href="#DejaVuSans-13"/>
      </g>
     </g>
    </g>
    <g id="xtick_4">
     <g id="line2d_7">
      <path d="M 208.464081 225.198979
L 208.464081 18.118365
" clip-path="url(#p589c8ca849)" style="fill: none; stroke: #b0b0b0; stroke-opacity: 0.18; stroke-width: 0.6; stroke-linecap: square"/>
     </g>
     <g id="line2d_8">
      <g>
       <use xlink:href="#m682dca91c4" x="208.464081" y="225.198979" style="stroke: #000000; stroke-width: 0.8"/>
      </g>
     </g>
     <g id="text_4">
      <!-- 1 -->
      <g transform="translate(205.282831 239.796635) scale(0.1 -0.1)">
       <use xlink:href="#DejaVuSans-14"/>
      </g>
     </g>
    </g>
    <g id="xtick_5">
     <g id="line2d_9">
      <path d="M 254.531158 225.198979
L 254.531158 18.118365
" clip-path="url(#p589c8ca849)" style="fill: none; stroke: #b0b0b0; stroke-opacity: 0.18; stroke-width: 0.6; stroke-linecap: square"/>
     </g>
     <g id="line2d_10">
      <g>
       <use xlink:href="#m682dca91c4" x="254.531158" y="225.198979" style="stroke: #000000; stroke-width: 0.8"/>
      </g>
     </g>
     <g id="text_5">
      <!-- 2 -->
      <g transform="translate(251.349908 239.796635) scale(0.1 -0.1)">
       <use xlink:href="#DejaVuSans-15"/>
      </g>
     </g>
    </g>
    <g id="text_6">
     <!-- collective variable -->
     <g transform="translate(116.838411 253.797416) scale(0.1 -0.1)">
      <defs>
       <path id="DejaVuSans-46" d="M 3122 3366
L 3122 2828
Q 2878 2963 2633 3030
Q 2388 3097 2138 3097
Q 1578 3097 1268 2742
Q 959 2388 959 1747
Q 959 1106 1268 751
Q 1578 397 2138 397
Q 2388 397 2633 464
Q 2878 531 3122 666
L 3122 134
Q 2881 22 2623 -34
Q 2366 -91 2075 -91
Q 1284 -91 818 406
Q 353 903 353 1747
Q 353 2603 823 3093
Q 1294 3584 2113 3584
Q 2378 3584 2631 3529
Q 2884 3475 3122 3366
z
" transform="scale(0.015625)"/>
       <path id="DejaVuSans-52" d="M 1959 3097
Q 1497 3097 1228 2736
Q 959 2375 959 1747
Q 959 1119 1226 758
Q 1494 397 1959 397
Q 2419 397 2687 759
Q 2956 1122 2956 1747
Q 2956 2369 2687 2733
Q 2419 3097 1959 3097
z
M 1959 3584
Q 2709 3584 3137 3096
Q 3566 2609 3566 1747
Q 3566 888 3137 398
Q 2709 -91 1959 -91
Q 1206 -91 779 398
Q 353 888 353 1747
Q 353 2609 779 3096
Q 1206 3584 1959 3584
z
" transform="scale(0.015625)"/>
       <path id="DejaVuSans-4f" d="M 603 4863
L 1178 4863
L 1178 0
L 603 0
L 603 4863
z
" transform="scale(0.015625)"/>
       <path id="DejaVuSans-48" d="M 3597 1894
L 3597 1613
L 953 1613
Q 991 1019 1311 708
Q 1631 397 2203 397
Q 2534 397 2845 478
Q 3156 559 3463 722
L 3463 178
Q 3153 47 2828 -22
Q 2503 -91 2169 -91
Q 1331 -91 842 396
Q 353 884 353 1716
Q 353 2575 817 3079
Q 1281 3584 2069 3584
Q 2775 3584 3186 3129
Q 3597 2675 3597 1894
z
M 3022 2063
Q 3016 2534 2758 2815
Q 2500 3097 2075 3097
Q 1594 3097 1305 2825
Q 1016 2553 972 2059
L 3022 2063
z
" transform="scale(0.015625)"/>
       <path id="DejaVuSans-57" d="M 1172 4494
L 1172 3500
L 2356 3500
L 2356 3053
L 1172 3053
L 1172 1153
Q 1172 725 1289 603
Q 1406 481 1766 481
L 2356 481
L 2356 0
L 1766 0
Q 1100 0 847 248
Q 594 497 594 1153
L 594 3053
L 172 3053
L 172 3500
L 594 3500
L 594 4494
L 1172 4494
z
" transform="scale(0.015625)"/>
       <path id="DejaVuSans-4c" d="M 603 3500
L 1178 3500
L 1178 0
L 603 0
L 603 3500
z
M 603 4863
L 1178 4863
L 1178 4134
L 603 4134
L 603 4863
z
" transform="scale(0.015625)"/>
       <path id="DejaVuSans-59" d="M 191 3500
L 800 3500
L 1894 563
L 2988 3500
L 3597 3500
L 2284 0
L 1503 0
L 191 3500
z
" transform="scale(0.015625)"/>
       <path id="DejaVuSans-3" transform="scale(0.015625)"/>
       <path id="DejaVuSans-44" d="M 2194 1759
Q 1497 1759 1228 1600
Q 959 1441 959 1056
Q 959 750 1161 570
Q 1363 391 1709 391
Q 2188 391 2477 730
Q 2766 1069 2766 1631
L 2766 1759
L 2194 1759
z
M 3341 1997
L 3341 0
L 2766 0
L 2766 531
Q 2569 213 2275 61
Q 1981 -91 1556 -91
Q 1019 -91 701 211
Q 384 513 384 1019
Q 384 1609 779 1909
Q 1175 2209 1959 2209
L 2766 2209
L 2766 2266
Q 2766 2663 2505 2880
Q 2244 3097 1772 3097
Q 1472 3097 1187 3025
Q 903 2953 641 2809
L 641 3341
Q 956 3463 1253 3523
Q 1550 3584 1831 3584
Q 2591 3584 2966 3190
Q 3341 2797 3341 1997
z
" transform="scale(0.015625)"/>
       <path id="DejaVuSans-55" d="M 2631 2963
Q 2534 3019 2420 3045
Q 2306 3072 2169 3072
Q 1681 3072 1420 2755
Q 1159 2438 1159 1844
L 1159 0
L 581 0
L 581 3500
L 1159 3500
L 1159 2956
Q 1341 3275 1631 3429
Q 1922 3584 2338 3584
Q 2397 3584 2469 3576
Q 2541 3569 2628 3553
L 2631 2963
z
" transform="scale(0.015625)"/>
       <path id="DejaVuSans-45" d="M 3116 1747
Q 3116 2381 2855 2742
Q 2594 3103 2138 3103
Q 1681 3103 1420 2742
Q 1159 2381 1159 1747
Q 1159 1113 1420 752
Q 1681 391 2138 391
Q 2594 391 2855 752
Q 3116 1113 3116 1747
z
M 1159 2969
Q 1341 3281 1617 3432
Q 1894 3584 2278 3584
Q 2916 3584 3314 3078
Q 3713 2572 3713 1747
Q 3713 922 3314 415
Q 2916 -91 2278 -91
Q 1894 -91 1617 61
Q 1341 213 1159 525
L 1159 0
L 581 0
L 581 4863
L 1159 4863
L 1159 2969
z
" transform="scale(0.015625)"/>
      </defs>
      <use xlink:href="#DejaVuSans-46"/>
      <use xlink:href="#DejaVuSans-52" transform="translate(54.984375 0)"/>
      <use xlink:href="#DejaVuSans-4f" transform="translate(116.171875 0)"/>
      <use xlink:href="#DejaVuSans-4f" transform="translate(143.953125 0)"/>
      <use xlink:href="#DejaVuSans-48" transform="translate(171.734375 0)"/>
      <use xlink:href="#DejaVuSans-46" transform="translate(233.265625 0)"/>
      <use xlink:href="#DejaVuSans-57" transform="translate(288.25 0)"/>
      <use xlink:href="#DejaVuSans-4c" transform="translate(327.453125 0)"/>
      <use xlink:href="#DejaVuSans-59" transform="translate(355.234375 0)"/>
      <use xlink:href="#DejaVuSans-48" transform="translate(414.421875 0)"/>
      <use xlink:href="#DejaVuSans-3" transform="translate(475.953125 0)"/>
      <use xlink:href="#DejaVuSans-59" transform="translate(507.734375 0)"/>
      <use xlink:href="#DejaVuSans-44" transform="translate(566.921875 0)"/>
      <use xlink:href="#DejaVuSans-55" transform="translate(628.203125 0)"/>
      <use xlink:href="#DejaVuSans-4c" transform="translate(669.3125 0)"/>
      <use xlink:href="#DejaVuSans-44" transform="translate(697.09375 0)"/>
      <use xlink:href="#DejaVuSans-45" transform="translate(758.375 0)"/>
      <use xlink:href="#DejaVuSans-4f" transform="translate(821.859375 0)"/>
      <use xlink:href="#DejaVuSans-48" transform="translate(849.640625 0)"/>
     </g>
    </g>
   </g>
   <g id="matplotlib.axis_2">
    <g id="ytick_1">
     <g id="line2d_11">
      <path d="M 36.726021 215.786224
L 288.067989 215.786224
" clip-path="url(#p589c8ca849)" style="fill: none; stroke: #b0b0b0; stroke-opacity: 0.18; stroke-width: 0.6; stroke-linecap: square"/>
     </g>
     <g id="line2d_12">
      <defs>
       <path id="m025a5f7198" d="M 0 0
L -3.5 0
" style="stroke: #000000; stroke-width: 0.8"/>
      </defs>
      <g>
       <use xlink:href="#m025a5f7198" x="36.726021" y="215.786224" style="stroke: #000000; stroke-width: 0.8"/>
      </g>
     </g>
     <g id="text_7">
      <!-- 0 -->
      <g transform="translate(23.363521 219.585052) scale(0.1 -0.1)">
       <use xlink:href="#DejaVuSans-13"/>
      </g>
     </g>
    </g>
    <g id="ytick_2">
     <g id="line2d_13">
      <path d="M 36.726021 180.302038
L 288.067989 180.302038
" clip-path="url(#p589c8ca849)" style="fill: none; stroke: #b0b0b0; stroke-opacity: 0.18; stroke-width: 0.6; stroke-linecap: square"/>
     </g>
     <g id="line2d_14">
      <g>
       <use xlink:href="#m025a5f7198" x="36.726021" y="180.302038" style="stroke: #000000; stroke-width: 0.8"/>
      </g>
     </g>
     <g id="text_8">
      <!-- 5 -->
      <g transform="translate(23.363521 184.100866) scale(0.1 -0.1)">
       <defs>
        <path id="DejaVuSans-18" d="M 691 4666
L 3169 4666
L 3169 4134
L 1269 4134
L 1269 2991
Q 1406 3038 1543 3061
Q 1681 3084 1819 3084
Q 2600 3084 3056 2656
Q 3513 2228 3513 1497
Q 3513 744 3044 326
Q 2575 -91 1722 -91
Q 1428 -91 1123 -41
Q 819 9 494 109
L 494 744
Q 775 591 1075 516
Q 1375 441 1709 441
Q 2250 441 2565 725
Q 2881 1009 2881 1497
Q 2881 1984 2565 2268
Q 2250 2553 1709 2553
Q 1456 2553 1204 2497
Q 953 2441 691 2322
L 691 4666
z
" transform="scale(0.015625)"/>
       </defs>
       <use xlink:href="#DejaVuSans-18"/>
      </g>
     </g>
    </g>
    <g id="ytick_3">
     <g id="line2d_15">
      <path d="M 36.726021 144.817852
L 288.067989 144.817852
" clip-path="url(#p589c8ca849)" style="fill: none; stroke: #b0b0b0; stroke-opacity: 0.18; stroke-width: 0.6; stroke-linecap: square"/>
     </g>
     <g id="line2d_16">
      <g>
       <use xlink:href="#m025a5f7198" x="36.726021" y="144.817852" style="stroke: #000000; stroke-width: 0.8"/>
      </g>
     </g>
     <g id="text_9">
      <!-- 10 -->
      <g transform="translate(17.001021 148.61668) scale(0.1 -0.1)">
       <use xlink:href="#DejaVuSans-14"/>
       <use xlink:href="#DejaVuSans-13" transform="translate(63.625 0)"/>
      </g>
     </g>
    </g>
    <g id="ytick_4">
     <g id="line2d_17">
      <path d="M 36.726021 109.333666
L 288.067989 109.333666
" clip-path="url(#p589c8ca849)" style="fill: none; stroke: #b0b0b0; stroke-opacity: 0.18; stroke-width: 0.6; stroke-linecap: square"/>
     </g>
     <g id="line2d_18">
      <g>
       <use xlink:href="#m025a5f7198" x="36.726021" y="109.333666" style="stroke: #000000; stroke-width: 0.8"/>
      </g>
     </g>
     <g id="text_10">
      <!-- 15 -->
      <g transform="translate(17.001021 113.132494) scale(0.1 -0.1)">
       <use xlink:href="#DejaVuSans-14"/>
       <use xlink:href="#DejaVuSans-18" transform="translate(63.625 0)"/>
      </g>
     </g>
    </g>
    <g id="ytick_5">
     <g id="line2d_19">
      <path d="M 36.726021 73.849481
L 288.067989 73.849481
" clip-path="url(#p589c8ca849)" style="fill: none; stroke: #b0b0b0; stroke-opacity: 0.18; stroke-width: 0.6; stroke-linecap: square"/>
     </g>
     <g id="line2d_20">
      <g>
       <use xlink:href="#m025a5f7198" x="36.726021" y="73.849481" style="stroke: #000000; stroke-width: 0.8"/>
      </g>
     </g>
     <g id="text_11">
      <!-- 20 -->
      <g transform="translate(17.001021 77.648309) scale(0.1 -0.1)">
       <use xlink:href="#DejaVuSans-15"/>
       <use xlink:href="#DejaVuSans-13" transform="translate(63.625 0)"/>
      </g>
     </g>
    </g>
    <g id="ytick_6">
     <g id="line2d_21">
      <path d="M 36.726021 38.365295
L 288.067989 38.365295
" clip-path="url(#p589c8ca849)" style="fill: none; stroke: #b0b0b0; stroke-opacity: 0.18; stroke-width: 0.6; stroke-linecap: square"/>
     </g>
     <g id="line2d_22">
      <g>
       <use xlink:href="#m025a5f7198" x="36.726021" y="38.365295" style="stroke: #000000; stroke-width: 0.8"/>
      </g>
     </g>
     <g id="text_12">
      <!-- 25 -->
      <g transform="translate(17.001021 42.164123) scale(0.1 -0.1)">
       <use xlink:href="#DejaVuSans-15"/>
       <use xlink:href="#DejaVuSans-18" transform="translate(63.625 0)"/>
      </g>
     </g>
    </g>
    <g id="text_13">
     <!-- shifted F -->
     <g transform="translate(10.598678 143.169609) rotate(-90) scale(0.1 -0.1)">
      <defs>
       <path id="DejaVuSans-56" d="M 2834 3397
L 2834 2853
Q 2591 2978 2328 3040
Q 2066 3103 1784 3103
Q 1356 3103 1142 2972
Q 928 2841 928 2578
Q 928 2378 1081 2264
Q 1234 2150 1697 2047
L 1894 2003
Q 2506 1872 2764 1633
Q 3022 1394 3022 966
Q 3022 478 2636 193
Q 2250 -91 1575 -91
Q 1294 -91 989 -36
Q 684 19 347 128
L 347 722
Q 666 556 975 473
Q 1284 391 1588 391
Q 1994 391 2212 530
Q 2431 669 2431 922
Q 2431 1156 2273 1281
Q 2116 1406 1581 1522
L 1381 1569
Q 847 1681 609 1914
Q 372 2147 372 2553
Q 372 3047 722 3315
Q 1072 3584 1716 3584
Q 2034 3584 2315 3537
Q 2597 3491 2834 3397
z
" transform="scale(0.015625)"/>
       <path id="DejaVuSans-4b" d="M 3513 2113
L 3513 0
L 2938 0
L 2938 2094
Q 2938 2591 2744 2837
Q 2550 3084 2163 3084
Q 1697 3084 1428 2787
Q 1159 2491 1159 1978
L 1159 0
L 581 0
L 581 4863
L 1159 4863
L 1159 2956
Q 1366 3272 1645 3428
Q 1925 3584 2291 3584
Q 2894 3584 3203 3211
Q 3513 2838 3513 2113
z
" transform="scale(0.015625)"/>
       <path id="DejaVuSans-49" d="M 2375 4863
L 2375 4384
L 1825 4384
Q 1516 4384 1395 4259
Q 1275 4134 1275 3809
L 1275 3500
L 2222 3500
L 2222 3053
L 1275 3053
L 1275 0
L 697 0
L 697 3053
L 147 3053
L 147 3500
L 697 3500
L 697 3744
Q 697 4328 969 4595
Q 1241 4863 1831 4863
L 2375 4863
z
" transform="scale(0.015625)"/>
       <path id="DejaVuSans-47" d="M 2906 2969
L 2906 4863
L 3481 4863
L 3481 0
L 2906 0
L 2906 525
Q 2725 213 2448 61
Q 2172 -91 1784 -91
Q 1150 -91 751 415
Q 353 922 353 1747
Q 353 2572 751 3078
Q 1150 3584 1784 3584
Q 2172 3584 2448 3432
Q 2725 3281 2906 2969
z
M 947 1747
Q 947 1113 1208 752
Q 1469 391 1925 391
Q 2381 391 2643 752
Q 2906 1113 2906 1747
Q 2906 2381 2643 2742
Q 2381 3103 1925 3103
Q 1469 3103 1208 2742
Q 947 2381 947 1747
z
" transform="scale(0.015625)"/>
       <path id="DejaVuSans-29" d="M 628 4666
L 3309 4666
L 3309 4134
L 1259 4134
L 1259 2759
L 3109 2759
L 3109 2228
L 1259 2228
L 1259 0
L 628 0
L 628 4666
z
" transform="scale(0.015625)"/>
      </defs>
      <use xlink:href="#DejaVuSans-56"/>
      <use xlink:href="#DejaVuSans-4b" transform="translate(52.09375 0)"/>
      <use xlink:href="#DejaVuSans-4c" transform="translate(115.46875 0)"/>
      <use xlink:href="#DejaVuSans-49" transform="translate(143.25 0)"/>
      <use xlink:href="#DejaVuSans-57" transform="translate(176.703125 0)"/>
      <use xlink:href="#DejaVuSans-48" transform="translate(215.90625 0)"/>
      <use xlink:href="#DejaVuSans-47" transform="translate(277.4375 0)"/>
      <use xlink:href="#DejaVuSans-3" transform="translate(340.921875 0)"/>
      <use xlink:href="#DejaVuSans-29" transform="translate(372.703125 0)"/>
     </g>
    </g>
   </g>
   <g id="line2d_23">
    <path d="M 48.150656 27.53112
L 49.993339 41.642948
L 51.836022 54.988926
L 53.678705 67.595434
L 55.521388 79.488416
L 57.364071 90.69338
L 59.206754 101.235396
L 61.049437 111.139102
L 62.892121 120.428696
L 64.734804 129.127942
L 66.577487 137.260168
L 68.42017 144.848265
L 70.262853 151.914689
L 72.105536 158.48146
L 73.948219 164.57016
L 75.790902 170.201937
L 77.633585 175.397503
L 79.476268 180.177133
L 81.318951 184.560667
L 83.161634 188.567507
L 85.004317 192.216621
L 86.847 195.526541
L 88.689683 198.515361
L 90.532366 201.20074
L 92.375049 203.599903
L 94.217732 205.729635
L 96.060415 207.606289
L 97.903098 209.245778
L 99.745782 210.663583
L 101.588465 211.874747
L 103.431148 212.893875
L 105.273831 213.73514
L 107.116514 214.412276
L 108.959197 214.938582
L 110.80188 215.326921
L 112.644563 215.58972
L 114.487246 215.738969
L 116.329929 215.786224
L 118.172612 215.742602
L 120.015295 215.618788
L 121.857978 215.425027
L 123.700661 215.171131
L 125.543344 214.866473
L 127.386027 214.519993
L 129.22871 214.140193
L 131.071393 213.73514
L 132.914076 213.312464
L 134.756759 212.879359
L 136.599443 212.442585
L 138.442126 212.008462
L 140.284809 211.582879
L 142.127492 211.171286
L 143.970175 210.778695
L 145.812858 210.409687
L 147.655541 210.068403
L 149.498224 209.758549
L 151.340907 209.483396
L 153.18359 209.245778
L 155.026273 209.048094
L 156.868956 208.892304
L 158.711639 208.779935
L 160.554322 208.712078
L 162.397005 208.689386
L 164.239688 208.712078
L 166.082371 208.779935
L 167.925054 208.892304
L 169.767737 209.048094
L 171.61042 209.245778
L 173.453104 209.483396
L 175.295787 209.758549
L 177.13847 210.068403
L 178.981153 210.409687
L 180.823836 210.778695
L 182.666519 211.171286
L 184.509202 211.582879
L 186.351885 212.008462
L 188.194568 212.442585
L 190.037251 212.879359
L 191.879934 213.312464
L 193.722617 213.73514
L 195.5653 214.140193
L 197.407983 214.519993
L 199.250666 214.866473
L 201.093349 215.171131
L 202.936032 215.425027
L 204.778715 215.618788
L 206.621398 215.742602
L 208.464081 215.786224
L 210.306764 215.738969
L 212.149448 215.58972
L 213.992131 215.326921
L 215.834814 214.938582
L 217.677497 214.412276
L 219.52018 213.73514
L 221.362863 212.893875
L 223.205546 211.874747
L 225.048229 210.663583
L 226.890912 209.245778
L 228.733595 207.606289
L 230.576278 205.729635
L 232.418961 203.599903
L 234.261644 201.20074
L 236.104327 198.515361
L 237.94701 195.526541
L 239.789693 192.216621
L 241.632376 188.567507
L 243.475059 184.560667
L 245.317742 180.177133
L 247.160425 175.397503
L 249.003109 170.201937
L 250.845792 164.57016
L 252.688475 158.48146
L 254.531158 151.914689
L 256.373841 144.848265
L 258.216524 137.260168
L 260.059207 129.127942
L 261.90189 120.428696
L 263.744573 111.139102
L 265.587256 101.235396
L 267.429939 90.69338
L 269.272622 79.488416
L 271.115305 67.595434
L 272.957988 54.988926
L 274.800671 41.642948
L 276.643354 27.53112
" clip-path="url(#p589c8ca849)" style="fill: none; stroke: #222222; stroke-width: 1.5; stroke-linecap: square"/>
   </g>
   <g id="line2d_24">
    <path d="M 72.105536 161.685462
L 73.948219 167.732379
L 75.790902 173.143664
L 77.633585 174.670579
L 79.476268 182.236704
L 81.318951 183.490549
L 83.161634 189.376557
L 85.004317 192.67553
L 86.847 195.353732
L 88.689683 198.867411
L 90.532366 201.292844
L 92.375049 203.916845
L 94.217732 205.751382
L 96.060415 207.470676
L 97.903098 209.404458
L 99.745782 210.575546
L 101.588465 211.839669
L 103.431148 212.871486
L 105.273831 213.965624
L 107.116514 214.435543
L 108.959197 214.979483
L 110.80188 215.52226
L 112.644563 215.639195
L 114.487246 215.786224
L 116.329929 215.729201
L 118.172612 215.665868
L 120.015295 215.49733
L 121.857978 215.269372
L 123.700661 215.034127
L 125.543344 214.601619
L 127.386027 214.173156
L 129.22871 213.949234
L 131.071393 213.464638
L 132.914076 213.147249
L 134.756759 212.854147
L 136.599443 212.375072
L 138.442126 211.77831
L 140.284809 211.495318
L 142.127492 210.672512
L 143.970175 210.705041
L 145.812858 210.181453
L 147.655541 209.831882
L 149.498224 209.624003
L 151.340907 208.996986
L 153.18359 208.713227
L 155.026273 208.720186
L 156.868956 208.521001
L 158.711639 208.449132
L 160.554322 208.353464
L 162.397005 208.190501
L 164.239688 208.255861
L 166.082371 208.613857
L 167.925054 208.363625
L 169.767737 208.523618
L 171.61042 208.801554
L 173.453104 209.298847
L 175.295787 209.194701
L 177.13847 209.490381
L 178.981153 209.958018
L 180.823836 210.126612
L 182.666519 210.539935
L 184.509202 210.96564
L 186.351885 211.684033
L 188.194568 211.900547
L 190.037251 212.30313
L 191.879934 212.70893
L 193.722617 213.111256
L 195.5653 213.406798
L 197.407983 213.928537
L 199.250666 214.296095
L 201.093349 214.499307
L 202.936032 214.689497
L 204.778715 214.756762
L 206.621398 214.789539
L 208.464081 215.021298
L 210.306764 215.141616
L 212.149448 214.83236
L 213.992131 214.729308
L 215.834814 214.218072
L 217.677497 213.708142
L 219.52018 213.048225
L 221.362863 212.428178
L 223.205546 211.207483
L 225.048229 209.982154
L 226.890912 208.658183
L 228.733595 206.729288
L 230.576278 204.695624
L 232.418961 202.584409
L 234.261644 200.530806
L 236.104327 198.269453
L 237.94701 195.02951
L 239.789693 192.298866
L 241.632376 188.535557
L 243.475059 184.12713
L 245.317742 180.955928
L 247.160425 174.496961
L 249.003109 173.23777
L 250.845792 159.193839
L 252.688475 165.862683
" clip-path="url(#p589c8ca849)" style="fill: none; stroke: #2f6f9f; stroke-width: 1.35; stroke-linecap: square"/>
   </g>
   <g id="line2d_25">
    <path d="M 70.262853 162.993199
L 72.105536 161.05149
L 73.948219 164.233311
L 75.790902 172.538655
L 77.633585 175.671181
L 79.476268 178.450489
L 81.318951 183.582508
L 83.161634 188.863192
L 85.004317 191.926512
L 86.847 195.195268
L 88.689683 198.010506
L 90.532366 200.47187
L 92.375049 202.812092
L 94.217732 204.918427
L 96.060415 206.962687
L 97.903098 208.634631
L 99.745782 210.249661
L 101.588465 211.254414
L 103.431148 212.153701
L 105.273831 213.51977
L 107.116514 213.374858
L 108.959197 214.523331
L 110.80188 214.729266
L 112.644563 214.722525
L 114.487246 215.232333
L 116.329929 215.061616
L 118.172612 215.107273
L 120.015295 214.832095
L 121.857978 214.869111
L 123.700661 214.398239
L 125.543344 213.909517
L 127.386027 214.112926
L 129.22871 213.242706
L 131.071393 213.163314
L 132.914076 212.347207
L 134.756759 211.714395
L 136.599443 211.448864
L 138.442126 210.625689
L 140.284809 211.051929
L 142.127492 210.51318
L 143.970175 210.839098
L 145.812858 210.156084
L 147.655541 209.555873
L 149.498224 209.894939
L 151.340907 209.569485
L 153.18359 210.373913
L 155.026273 209.732089
L 156.868956 208.047654
L 158.711639 209.621899
L 160.554322 208.884484
L 162.397005 210.059521
L 164.239688 210.5017
L 166.082371 205.211969
L 167.925054 209.925778
L 169.767737 212.73001
L 171.61042 208.810165
L 173.453104 208.645433
L 175.295787 209.08164
L 177.13847 210.178082
L 178.981153 210.121259
L 180.823836 211.297504
L 182.666519 211.388977
L 184.509202 211.189943
L 186.351885 211.515201
L 188.194568 212.715148
L 190.037251 212.742701
L 191.879934 213.459312
L 193.722617 213.721831
L 195.5653 214.018058
L 197.407983 214.4799
L 199.250666 215.108973
L 201.093349 214.831496
L 202.936032 215.263461
L 204.778715 215.434242
L 206.621398 215.391552
L 208.464081 215.527546
L 210.306764 215.691944
L 212.149448 215.786224
L 213.992131 215.427107
L 215.834814 214.611848
L 217.677497 214.293525
L 219.52018 213.383023
L 221.362863 212.268906
L 223.205546 211.509055
L 225.048229 210.507667
L 226.890912 208.934045
L 228.733595 207.385592
L 230.576278 205.306213
L 232.418961 202.956106
L 234.261644 200.898325
L 236.104327 198.153695
L 237.94701 195.47308
L 239.789693 191.836977
L 241.632376 188.215547
L 243.475059 184.012186
L 245.317742 180.874303
L 247.160425 173.784325
L 249.003109 167.933762
L 250.845792 171.050335
" clip-path="url(#p589c8ca849)" style="fill: none; stroke: #d88c3d; stroke-width: 1.35; stroke-linecap: square"/>
   </g>
   <g id="patch_3">
    <path d="M 36.726021 225.198979
L 36.726021 18.118365
" style="fill: none; stroke: #000000; stroke-width: 0.8; stroke-linejoin: miter; stroke-linecap: square"/>
   </g>
   <g id="patch_4">
    <path d="M 36.726021 225.198979
L 288.067989 225.198979
" style="fill: none; stroke: #000000; stroke-width: 0.8; stroke-linejoin: miter; stroke-linecap: square"/>
   </g>
   <g id="text_14">
    <!-- Reconstruction needs connected windows -->
    <g transform="translate(36.343568 12.118365) scale(0.12 -0.12)">
     <defs>
      <path id="DejaVuSans-35" d="M 2841 2188
Q 3044 2119 3236 1894
Q 3428 1669 3622 1275
L 4263 0
L 3584 0
L 2988 1197
Q 2756 1666 2539 1819
Q 2322 1972 1947 1972
L 1259 1972
L 1259 0
L 628 0
L 628 4666
L 2053 4666
Q 2853 4666 3247 4331
Q 3641 3997 3641 3322
Q 3641 2881 3436 2590
Q 3231 2300 2841 2188
z
M 1259 4147
L 1259 2491
L 2053 2491
Q 2509 2491 2742 2702
Q 2975 2913 2975 3322
Q 2975 3731 2742 3939
Q 2509 4147 2053 4147
L 1259 4147
z
" transform="scale(0.015625)"/>
      <path id="DejaVuSans-51" d="M 3513 2113
L 3513 0
L 2938 0
L 2938 2094
Q 2938 2591 2744 2837
Q 2550 3084 2163 3084
Q 1697 3084 1428 2787
Q 1159 2491 1159 1978
L 1159 0
L 581 0
L 581 3500
L 1159 3500
L 1159 2956
Q 1366 3272 1645 3428
Q 1925 3584 2291 3584
Q 2894 3584 3203 3211
Q 3513 2838 3513 2113
z
" transform="scale(0.015625)"/>
      <path id="DejaVuSans-58" d="M 544 1381
L 544 3500
L 1119 3500
L 1119 1403
Q 1119 906 1312 657
Q 1506 409 1894 409
Q 2359 409 2629 706
Q 2900 1003 2900 1516
L 2900 3500
L 3475 3500
L 3475 0
L 2900 0
L 2900 538
Q 2691 219 2414 64
Q 2138 -91 1772 -91
Q 1169 -91 856 284
Q 544 659 544 1381
z
M 1991 3584
L 1991 3584
z
" transform="scale(0.015625)"/>
      <path id="DejaVuSans-5a" d="M 269 3500
L 844 3500
L 1563 769
L 2278 3500
L 2956 3500
L 3675 769
L 4391 3500
L 4966 3500
L 4050 0
L 3372 0
L 2619 2869
L 1863 0
L 1184 0
L 269 3500
z
" transform="scale(0.015625)"/>
     </defs>
     <use xlink:href="#DejaVuSans-35"/>
     <use xlink:href="#DejaVuSans-48" transform="translate(65 0)"/>
     <use xlink:href="#DejaVuSans-46" transform="translate(126.53125 0)"/>
     <use xlink:href="#DejaVuSans-52" transform="translate(181.515625 0)"/>
     <use xlink:href="#DejaVuSans-51" transform="translate(242.703125 0)"/>
     <use xlink:href="#DejaVuSans-56" transform="translate(306.078125 0)"/>
     <use xlink:href="#DejaVuSans-57" transform="translate(358.171875 0)"/>
     <use xlink:href="#DejaVuSans-55" transform="translate(397.375 0)"/>
     <use xlink:href="#DejaVuSans-58" transform="translate(438.484375 0)"/>
     <use xlink:href="#DejaVuSans-46" transform="translate(501.859375 0)"/>
     <use xlink:href="#DejaVuSans-57" transform="translate(556.84375 0)"/>
     <use xlink:href="#DejaVuSans-4c" transform="translate(596.046875 0)"/>
     <use xlink:href="#DejaVuSans-52" transform="translate(623.828125 0)"/>
     <use xlink:href="#DejaVuSans-51" transform="translate(685.015625 0)"/>
     <use xlink:href="#DejaVuSans-3" transform="translate(748.390625 0)"/>
     <use xlink:href="#DejaVuSans-51" transform="translate(780.171875 0)"/>
     <use xlink:href="#DejaVuSans-48" transform="translate(843.546875 0)"/>
     <use xlink:href="#DejaVuSans-48" transform="translate(905.078125 0)"/>
     <use xlink:href="#DejaVuSans-47" transform="translate(966.609375 0)"/>
     <use xlink:href="#DejaVuSans-56" transform="translate(1030.09375 0)"/>
     <use xlink:href="#DejaVuSans-3" transform="translate(1082.1875 0)"/>
     <use xlink:href="#DejaVuSans-46" transform="translate(1113.96875 0)"/>
     <use xlink:href="#DejaVuSans-52" transform="translate(1168.953125 0)"/>
     <use xlink:href="#DejaVuSans-51" transform="translate(1230.140625 0)"/>
     <use xlink:href="#DejaVuSans-51" transform="translate(1293.515625 0)"/>
     <use xlink:href="#DejaVuSans-48" transform="translate(1356.890625 0)"/>
     <use xlink:href="#DejaVuSans-46" transform="translate(1418.421875 0)"/>
     <use xlink:href="#DejaVuSans-57" transform="translate(1473.40625 0)"/>
     <use xlink:href="#DejaVuSans-48" transform="translate(1512.609375 0)"/>
     <use xlink:href="#DejaVuSans-47" transform="translate(1574.140625 0)"/>
     <use xlink:href="#DejaVuSans-3" transform="translate(1637.625 0)"/>
     <use xlink:href="#DejaVuSans-5a" transform="translate(1669.40625 0)"/>
     <use xlink:href="#DejaVuSans-4c" transform="translate(1751.1875 0)"/>
     <use xlink:href="#DejaVuSans-51" transform="translate(1778.96875 0)"/>
     <use xlink:href="#DejaVuSans-47" transform="translate(1842.34375 0)"/>
     <use xlink:href="#DejaVuSans-52" transform="translate(1905.828125 0)"/>
     <use xlink:href="#DejaVuSans-5a" transform="translate(1967.015625 0)"/>
     <use xlink:href="#DejaVuSans-56" transform="translate(2048.796875 0)"/>
    </g>
   </g>
   <g id="legend_1">
    <g id="line2d_26">
     <path d="M 119.40263 28.597115
L 127.40263 28.597115
L 135.40263 28.597115
" style="fill: none; stroke: #222222; stroke-width: 1.5; stroke-linecap: square"/>
    </g>
    <g id="text_15">
     <!-- true PMF -->
     <g transform="translate(141.80263 31.397115) scale(0.08 -0.08)">
      <defs>
       <path id="DejaVuSans-33" d="M 1259 4147
L 1259 2394
L 2053 2394
Q 2494 2394 2734 2622
Q 2975 2850 2975 3272
Q 2975 3691 2734 3919
Q 2494 4147 2053 4147
L 1259 4147
z
M 628 4666
L 2053 4666
Q 2838 4666 3239 4311
Q 3641 3956 3641 3272
Q 3641 2581 3239 2228
Q 2838 1875 2053 1875
L 1259 1875
L 1259 0
L 628 0
L 628 4666
z
" transform="scale(0.015625)"/>
       <path id="DejaVuSans-30" d="M 628 4666
L 1569 4666
L 2759 1491
L 3956 4666
L 4897 4666
L 4897 0
L 4281 0
L 4281 4097
L 3078 897
L 2444 897
L 1241 4097
L 1241 0
L 628 0
L 628 4666
z
" transform="scale(0.015625)"/>
      </defs>
      <use xlink:href="#DejaVuSans-57"/>
      <use xlink:href="#DejaVuSans-55" transform="translate(39.203125 0)"/>
      <use xlink:href="#DejaVuSans-58" transform="translate(80.3125 0)"/>
      <use xlink:href="#DejaVuSans-48" transform="translate(143.6875 0)"/>
      <use xlink:href="#DejaVuSans-3" transform="translate(205.21875 0)"/>
      <use xlink:href="#DejaVuSans-33" transform="translate(237 0)"/>
      <use xlink:href="#DejaVuSans-30" transform="translate(297.296875 0)"/>
      <use xlink:href="#DejaVuSans-29" transform="translate(383.578125 0)"/>
     </g>
    </g>
    <g id="line2d_27">
     <path d="M 119.40263 40.59774
L 127.40263 40.59774
L 135.40263 40.59774
" style="fill: none; stroke: #2f6f9f; stroke-width: 1.35; stroke-linecap: square"/>
    </g>
    <g id="text_16">
     <!-- dense windows -->
     <g transform="translate(141.80263 43.39774) scale(0.08 -0.08)">
      <use xlink:href="#DejaVuSans-47"/>
      <use xlink:href="#DejaVuSans-48" transform="translate(63.484375 0)"/>
      <use xlink:href="#DejaVuSans-51" transform="translate(125.015625 0)"/>
      <use xlink:href="#DejaVuSans-56" transform="translate(188.390625 0)"/>
      <use xlink:href="#DejaVuSans-48" transform="translate(240.484375 0)"/>
      <use xlink:href="#DejaVuSans-3" transform="translate(302.015625 0)"/>
      <use xlink:href="#DejaVuSans-5a" transform="translate(333.796875 0)"/>
      <use xlink:href="#DejaVuSans-4c" transform="translate(415.578125 0)"/>
      <use xlink:href="#DejaVuSans-51" transform="translate(443.359375 0)"/>
      <use xlink:href="#DejaVuSans-47" transform="translate(506.734375 0)"/>
      <use xlink:href="#DejaVuSans-52" transform="translate(570.21875 0)"/>
      <use xlink:href="#DejaVuSans-5a" transform="translate(631.40625 0)"/>
      <use xlink:href="#DejaVuSans-56" transform="translate(713.1875 0)"/>
     </g>
    </g>
    <g id="line2d_28">
     <path d="M 119.40263 52.598365
L 127.40263 52.598365
L 135.40263 52.598365
" style="fill: none; stroke: #d88c3d; stroke-width: 1.35; stroke-linecap: square"/>
    </g>
    <g id="text_17">
     <!-- sparse windows -->
     <g transform="translate(141.80263 55.398365) scale(0.08 -0.08)">
      <defs>
       <path id="DejaVuSans-53" d="M 1159 525
L 1159 -1331
L 581 -1331
L 581 3500
L 1159 3500
L 1159 2969
Q 1341 3281 1617 3432
Q 1894 3584 2278 3584
Q 2916 3584 3314 3078
Q 3713 2572 3713 1747
Q 3713 922 3314 415
Q 2916 -91 2278 -91
Q 1894 -91 1617 61
Q 1341 213 1159 525
z
M 3116 1747
Q 3116 2381 2855 2742
Q 2594 3103 2138 3103
Q 1681 3103 1420 2742
Q 1159 2381 1159 1747
Q 1159 1113 1420 752
Q 1681 391 2138 391
Q 2594 391 2855 752
Q 3116 1113 3116 1747
z
" transform="scale(0.015625)"/>
      </defs>
      <use xlink:href="#DejaVuSans-56"/>
      <use xlink:href="#DejaVuSans-53" transform="translate(52.09375 0)"/>
      <use xlink:href="#DejaVuSans-44" transform="translate(115.578125 0)"/>
      <use xlink:href="#DejaVuSans-55" transform="translate(176.859375 0)"/>
      <use xlink:href="#DejaVuSans-56" transform="translate(217.96875 0)"/>
      <use xlink:href="#DejaVuSans-48" transform="translate(270.0625 0)"/>
      <use xlink:href="#DejaVuSans-3" transform="translate(331.59375 0)"/>
      <use xlink:href="#DejaVuSans-5a" transform="translate(363.375 0)"/>
      <use xlink:href="#DejaVuSans-4c" transform="translate(445.15625 0)"/>
      <use xlink:href="#DejaVuSans-51" transform="translate(472.9375 0)"/>
      <use xlink:href="#DejaVuSans-47" transform="translate(536.3125 0)"/>
      <use xlink:href="#DejaVuSans-52" transform="translate(599.796875 0)"/>
      <use xlink:href="#DejaVuSans-5a" transform="translate(660.984375 0)"/>
      <use xlink:href="#DejaVuSans-56" transform="translate(742.765625 0)"/>
     </g>
    </g>
   </g>
  </g>
  <g id="axes_2">
   <g id="patch_5">
    <path d="M 330.972375 225.198979
L 582.314343 225.198979
L 582.314343 18.118365
L 330.972375 18.118365
z
" style="fill: #ffffff"/>
   </g>
   <g id="patch_6">
    <path d="M 342.39701 225.198979
L 352.981141 225.198979
L 352.981141 115.477316
L 342.39701 115.477316
z
" clip-path="url(#p65740d6852)" style="fill: #2f6f9f; opacity: 0.82"/>
   </g>
   <g id="patch_7">
    <path d="M 373.526806 225.198979
L 384.110936 225.198979
L 384.110936 126.162675
L 373.526806 126.162675
z
" clip-path="url(#p65740d6852)" style="fill: #2f6f9f; opacity: 0.82"/>
   </g>
   <g id="patch_8">
    <path d="M 404.656601 225.198979
L 415.240732 225.198979
L 415.240732 140.016368
L 404.656601 140.016368
z
" clip-path="url(#p65740d6852)" style="fill: #2f6f9f; opacity: 0.82"/>
   </g>
   <g id="patch_9">
    <path d="M 435.786396 225.198979
L 446.370527 225.198979
L 446.370527 151.012349
L 435.786396 151.012349
z
" clip-path="url(#p65740d6852)" style="fill: #2f6f9f; opacity: 0.82"/>
   </g>
   <g id="patch_10">
    <path d="M 466.916192 225.198979
L 477.500322 225.198979
L 477.500322 151.643945
L 466.916192 151.643945
z
" clip-path="url(#p65740d6852)" style="fill: #2f6f9f; opacity: 0.82"/>
   </g>
   <g id="patch_11">
    <path d="M 498.045987 225.198979
L 508.630118 225.198979
L 508.630118 139.136276
L 498.045987 139.136276
z
" clip-path="url(#p65740d6852)" style="fill: #2f6f9f; opacity: 0.82"/>
   </g>
   <g id="patch_12">
    <path d="M 529.175783 225.198979
L 539.759913 225.198979
L 539.759913 127.726134
L 529.175783 127.726134
z
" clip-path="url(#p65740d6852)" style="fill: #2f6f9f; opacity: 0.82"/>
   </g>
   <g id="patch_13">
    <path d="M 560.305578 225.198979
L 570.889708 225.198979
L 570.889708 115.725812
L 560.305578 115.725812
z
" clip-path="url(#p65740d6852)" style="fill: #2f6f9f; opacity: 0.82"/>
   </g>
   <g id="patch_14">
    <path d="M 353.603737 225.198979
L 364.187867 225.198979
L 364.187867 187.945176
L 353.603737 187.945176
z
" clip-path="url(#p65740d6852)" style="fill: #d88c3d; opacity: 0.82"/>
   </g>
   <g id="patch_15">
    <path d="M 384.733532 225.198979
L 395.317662 225.198979
L 395.317662 225.136855
L 384.733532 225.136855
z
" clip-path="url(#p65740d6852)" style="fill: #d88c3d; opacity: 0.82"/>
   </g>
   <g id="patch_16">
    <path d="M 415.863327 225.198979
L 426.447458 225.198979
L 426.447458 187.437829
L 415.863327 187.437829
z
" clip-path="url(#p65740d6852)" style="fill: #d88c3d; opacity: 0.82"/>
   </g>
   <g id="matplotlib.axis_3">
    <g id="xtick_6">
     <g id="line2d_29">
      <path d="M 353.292439 225.198979
L 353.292439 18.118365
" clip-path="url(#p65740d6852)" style="fill: none; stroke: #b0b0b0; stroke-opacity: 0.18; stroke-width: 0.6; stroke-linecap: square"/>
     </g>
     <g id="line2d_30">
      <g>
       <use xlink:href="#m682dca91c4" x="353.292439" y="225.198979" style="stroke: #000000; stroke-width: 0.8"/>
      </g>
     </g>
     <g id="text_18">
      <!-- 0 -->
      <g transform="translate(350.111189 239.796635) scale(0.1 -0.1)">
       <use xlink:href="#DejaVuSans-13"/>
      </g>
     </g>
    </g>
    <g id="xtick_7">
     <g id="line2d_31">
      <path d="M 415.552029 225.198979
L 415.552029 18.118365
" clip-path="url(#p65740d6852)" style="fill: none; stroke: #b0b0b0; stroke-opacity: 0.18; stroke-width: 0.6; stroke-linecap: square"/>
     </g>
     <g id="line2d_32">
      <g>
       <use xlink:href="#m682dca91c4" x="415.552029" y="225.198979" style="stroke: #000000; stroke-width: 0.8"/>
      </g>
     </g>
     <g id="text_19">
      <!-- 2 -->
      <g transform="translate(412.370779 239.796635) scale(0.1 -0.1)">
       <use xlink:href="#DejaVuSans-15"/>
      </g>
     </g>
    </g>
    <g id="xtick_8">
     <g id="line2d_33">
      <path d="M 477.81162 225.198979
L 477.81162 18.118365
" clip-path="url(#p65740d6852)" style="fill: none; stroke: #b0b0b0; stroke-opacity: 0.18; stroke-width: 0.6; stroke-linecap: square"/>
     </g>
     <g id="line2d_34">
      <g>
       <use xlink:href="#m682dca91c4" x="477.81162" y="225.198979" style="stroke: #000000; stroke-width: 0.8"/>
      </g>
     </g>
     <g id="text_20">
      <!-- 4 -->
      <g transform="translate(474.63037 239.796635) scale(0.1 -0.1)">
       <defs>
        <path id="DejaVuSans-17" d="M 2419 4116
L 825 1625
L 2419 1625
L 2419 4116
z
M 2253 4666
L 3047 4666
L 3047 1625
L 3713 1625
L 3713 1100
L 3047 1100
L 3047 0
L 2419 0
L 2419 1100
L 313 1100
L 313 1709
L 2253 4666
z
" transform="scale(0.015625)"/>
       </defs>
       <use xlink:href="#DejaVuSans-17"/>
      </g>
     </g>
    </g>
    <g id="xtick_9">
     <g id="line2d_35">
      <path d="M 540.071211 225.198979
L 540.071211 18.118365
" clip-path="url(#p65740d6852)" style="fill: none; stroke: #b0b0b0; stroke-opacity: 0.18; stroke-width: 0.6; stroke-linecap: square"/>
     </g>
     <g id="line2d_36">
      <g>
       <use xlink:href="#m682dca91c4" x="540.071211" y="225.198979" style="stroke: #000000; stroke-width: 0.8"/>
      </g>
     </g>
     <g id="text_21">
      <!-- 6 -->
      <g transform="translate(536.889961 239.796635) scale(0.1 -0.1)">
       <defs>
        <path id="DejaVuSans-19" d="M 2113 2584
Q 1688 2584 1439 2293
Q 1191 2003 1191 1497
Q 1191 994 1439 701
Q 1688 409 2113 409
Q 2538 409 2786 701
Q 3034 994 3034 1497
Q 3034 2003 2786 2293
Q 2538 2584 2113 2584
z
M 3366 4563
L 3366 3988
Q 3128 4100 2886 4159
Q 2644 4219 2406 4219
Q 1781 4219 1451 3797
Q 1122 3375 1075 2522
Q 1259 2794 1537 2939
Q 1816 3084 2150 3084
Q 2853 3084 3261 2657
Q 3669 2231 3669 1497
Q 3669 778 3244 343
Q 2819 -91 2113 -91
Q 1303 -91 875 529
Q 447 1150 447 2328
Q 447 3434 972 4092
Q 1497 4750 2381 4750
Q 2619 4750 2861 4703
Q 3103 4656 3366 4563
z
" transform="scale(0.015625)"/>
       </defs>
       <use xlink:href="#DejaVuSans-19"/>
      </g>
     </g>
    </g>
    <g id="text_22">
     <!-- window pair -->
     <g transform="translate(426.401953 253.797416) scale(0.1 -0.1)">
      <use xlink:href="#DejaVuSans-5a"/>
      <use xlink:href="#DejaVuSans-4c" transform="translate(81.78125 0)"/>
      <use xlink:href="#DejaVuSans-51" transform="translate(109.5625 0)"/>
      <use xlink:href="#DejaVuSans-47" transform="translate(172.9375 0)"/>
      <use xlink:href="#DejaVuSans-52" transform="translate(236.421875 0)"/>
      <use xlink:href="#DejaVuSans-5a" transform="translate(297.609375 0)"/>
      <use xlink:href="#DejaVuSans-3" transform="translate(379.390625 0)"/>
      <use xlink:href="#DejaVuSans-53" transform="translate(411.171875 0)"/>
      <use xlink:href="#DejaVuSans-44" transform="translate(474.65625 0)"/>
      <use xlink:href="#DejaVuSans-4c" transform="translate(535.9375 0)"/>
      <use xlink:href="#DejaVuSans-55" transform="translate(563.71875 0)"/>
     </g>
    </g>
   </g>
   <g id="matplotlib.axis_4">
    <g id="ytick_7">
     <g id="line2d_37">
      <path d="M 330.972375 225.198979
L 582.314343 225.198979
" clip-path="url(#p65740d6852)" style="fill: none; stroke: #b0b0b0; stroke-opacity: 0.18; stroke-width: 0.6; stroke-linecap: square"/>
     </g>
     <g id="line2d_38">
      <g>
       <use xlink:href="#m025a5f7198" x="330.972375" y="225.198979" style="stroke: #000000; stroke-width: 0.8"/>
      </g>
     </g>
     <g id="text_23">
      <!-- 0.0 -->
      <g transform="translate(308.06925 228.997807) scale(0.1 -0.1)">
       <defs>
        <path id="DejaVuSans-11" d="M 684 794
L 1344 794
L 1344 0
L 684 0
L 684 794
z
" transform="scale(0.015625)"/>
       </defs>
       <use xlink:href="#DejaVuSans-13"/>
       <use xlink:href="#DejaVuSans-11" transform="translate(63.625 0)"/>
       <use xlink:href="#DejaVuSans-13" transform="translate(95.40625 0)"/>
      </g>
     </g>
    </g>
    <g id="ytick_8">
     <g id="line2d_39">
      <path d="M 330.972375 183.782856
L 582.314343 183.782856
" clip-path="url(#p65740d6852)" style="fill: none; stroke: #b0b0b0; stroke-opacity: 0.18; stroke-width: 0.6; stroke-linecap: square"/>
     </g>
     <g id="line2d_40">
      <g>
       <use xlink:href="#m025a5f7198" x="330.972375" y="183.782856" style="stroke: #000000; stroke-width: 0.8"/>
      </g>
     </g>
     <g id="text_24">
      <!-- 0.2 -->
      <g transform="translate(308.06925 187.581684) scale(0.1 -0.1)">
       <use xlink:href="#DejaVuSans-13"/>
       <use xlink:href="#DejaVuSans-11" transform="translate(63.625 0)"/>
       <use xlink:href="#DejaVuSans-15" transform="translate(95.40625 0)"/>
      </g>
     </g>
    </g>
    <g id="ytick_9">
     <g id="line2d_41">
      <path d="M 330.972375 142.366733
L 582.314343 142.366733
" clip-path="url(#p65740d6852)" style="fill: none; stroke: #b0b0b0; stroke-opacity: 0.18; stroke-width: 0.6; stroke-linecap: square"/>
     </g>
     <g id="line2d_42">
      <g>
       <use xlink:href="#m025a5f7198" x="330.972375" y="142.366733" style="stroke: #000000; stroke-width: 0.8"/>
      </g>
     </g>
     <g id="text_25">
      <!-- 0.4 -->
      <g transform="translate(308.06925 146.165561) scale(0.1 -0.1)">
       <use xlink:href="#DejaVuSans-13"/>
       <use xlink:href="#DejaVuSans-11" transform="translate(63.625 0)"/>
       <use xlink:href="#DejaVuSans-17" transform="translate(95.40625 0)"/>
      </g>
     </g>
    </g>
    <g id="ytick_10">
     <g id="line2d_43">
      <path d="M 330.972375 100.95061
L 582.314343 100.95061
" clip-path="url(#p65740d6852)" style="fill: none; stroke: #b0b0b0; stroke-opacity: 0.18; stroke-width: 0.6; stroke-linecap: square"/>
     </g>
     <g id="line2d_44">
      <g>
       <use xlink:href="#m025a5f7198" x="330.972375" y="100.95061" style="stroke: #000000; stroke-width: 0.8"/>
      </g>
     </g>
     <g id="text_26">
      <!-- 0.6 -->
      <g transform="translate(308.06925 104.749439) scale(0.1 -0.1)">
       <use xlink:href="#DejaVuSans-13"/>
       <use xlink:href="#DejaVuSans-11" transform="translate(63.625 0)"/>
       <use xlink:href="#DejaVuSans-19" transform="translate(95.40625 0)"/>
      </g>
     </g>
    </g>
    <g id="ytick_11">
     <g id="line2d_45">
      <path d="M 330.972375 59.534488
L 582.314343 59.534488
" clip-path="url(#p65740d6852)" style="fill: none; stroke: #b0b0b0; stroke-opacity: 0.18; stroke-width: 0.6; stroke-linecap: square"/>
     </g>
     <g id="line2d_46">
      <g>
       <use xlink:href="#m025a5f7198" x="330.972375" y="59.534488" style="stroke: #000000; stroke-width: 0.8"/>
      </g>
     </g>
     <g id="text_27">
      <!-- 0.8 -->
      <g transform="translate(308.06925 63.333316) scale(0.1 -0.1)">
       <defs>
        <path id="DejaVuSans-1b" d="M 2034 2216
Q 1584 2216 1326 1975
Q 1069 1734 1069 1313
Q 1069 891 1326 650
Q 1584 409 2034 409
Q 2484 409 2743 651
Q 3003 894 3003 1313
Q 3003 1734 2745 1975
Q 2488 2216 2034 2216
z
M 1403 2484
Q 997 2584 770 2862
Q 544 3141 544 3541
Q 544 4100 942 4425
Q 1341 4750 2034 4750
Q 2731 4750 3128 4425
Q 3525 4100 3525 3541
Q 3525 3141 3298 2862
Q 3072 2584 2669 2484
Q 3125 2378 3379 2068
Q 3634 1759 3634 1313
Q 3634 634 3220 271
Q 2806 -91 2034 -91
Q 1263 -91 848 271
Q 434 634 434 1313
Q 434 1759 690 2068
Q 947 2378 1403 2484
z
M 1172 3481
Q 1172 3119 1398 2916
Q 1625 2713 2034 2713
Q 2441 2713 2670 2916
Q 2900 3119 2900 3481
Q 2900 3844 2670 4047
Q 2441 4250 2034 4250
Q 1625 4250 1398 4047
Q 1172 3844 1172 3481
z
" transform="scale(0.015625)"/>
       </defs>
       <use xlink:href="#DejaVuSans-13"/>
       <use xlink:href="#DejaVuSans-11" transform="translate(63.625 0)"/>
       <use xlink:href="#DejaVuSans-1b" transform="translate(95.40625 0)"/>
      </g>
     </g>
    </g>
    <g id="ytick_12">
     <g id="line2d_47">
      <path d="M 330.972375 18.118365
L 582.314343 18.118365
" clip-path="url(#p65740d6852)" style="fill: none; stroke: #b0b0b0; stroke-opacity: 0.18; stroke-width: 0.6; stroke-linecap: square"/>
     </g>
     <g id="line2d_48">
      <g>
       <use xlink:href="#m025a5f7198" x="330.972375" y="18.118365" style="stroke: #000000; stroke-width: 0.8"/>
      </g>
     </g>
     <g id="text_28">
      <!-- 1.0 -->
      <g transform="translate(308.06925 21.917193) scale(0.1 -0.1)">
       <use xlink:href="#DejaVuSans-14"/>
       <use xlink:href="#DejaVuSans-11" transform="translate(63.625 0)"/>
       <use xlink:href="#DejaVuSans-13" transform="translate(95.40625 0)"/>
      </g>
     </g>
    </g>
    <g id="text_29">
     <!-- histogram overlap -->
     <g transform="translate(301.666907 167.371953) rotate(-90) scale(0.1 -0.1)">
      <defs>
       <path id="DejaVuSans-4a" d="M 2906 1791
Q 2906 2416 2648 2759
Q 2391 3103 1925 3103
Q 1463 3103 1205 2759
Q 947 2416 947 1791
Q 947 1169 1205 825
Q 1463 481 1925 481
Q 2391 481 2648 825
Q 2906 1169 2906 1791
z
M 3481 434
Q 3481 -459 3084 -895
Q 2688 -1331 1869 -1331
Q 1566 -1331 1297 -1286
Q 1028 -1241 775 -1147
L 775 -588
Q 1028 -725 1275 -790
Q 1522 -856 1778 -856
Q 2344 -856 2625 -561
Q 2906 -266 2906 331
L 2906 616
Q 2728 306 2450 153
Q 2172 0 1784 0
Q 1141 0 747 490
Q 353 981 353 1791
Q 353 2603 747 3093
Q 1141 3584 1784 3584
Q 2172 3584 2450 3431
Q 2728 3278 2906 2969
L 2906 3500
L 3481 3500
L 3481 434
z
" transform="scale(0.015625)"/>
       <path id="DejaVuSans-50" d="M 3328 2828
Q 3544 3216 3844 3400
Q 4144 3584 4550 3584
Q 5097 3584 5394 3201
Q 5691 2819 5691 2113
L 5691 0
L 5113 0
L 5113 2094
Q 5113 2597 4934 2840
Q 4756 3084 4391 3084
Q 3944 3084 3684 2787
Q 3425 2491 3425 1978
L 3425 0
L 2847 0
L 2847 2094
Q 2847 2600 2669 2842
Q 2491 3084 2119 3084
Q 1678 3084 1418 2786
Q 1159 2488 1159 1978
L 1159 0
L 581 0
L 581 3500
L 1159 3500
L 1159 2956
Q 1356 3278 1631 3431
Q 1906 3584 2284 3584
Q 2666 3584 2933 3390
Q 3200 3197 3328 2828
z
" transform="scale(0.015625)"/>
      </defs>
      <use xlink:href="#DejaVuSans-4b"/>
      <use xlink:href="#DejaVuSans-4c" transform="translate(63.375 0)"/>
      <use xlink:href="#DejaVuSans-56" transform="translate(91.15625 0)"/>
      <use xlink:href="#DejaVuSans-57" transform="translate(143.25 0)"/>
      <use xlink:href="#DejaVuSans-52" transform="translate(182.453125 0)"/>
      <use xlink:href="#DejaVuSans-4a" transform="translate(243.640625 0)"/>
      <use xlink:href="#DejaVuSans-55" transform="translate(307.125 0)"/>
      <use xlink:href="#DejaVuSans-44" transform="translate(348.234375 0)"/>
      <use xlink:href="#DejaVuSans-50" transform="translate(409.515625 0)"/>
      <use xlink:href="#DejaVuSans-3" transform="translate(506.921875 0)"/>
      <use xlink:href="#DejaVuSans-52" transform="translate(538.703125 0)"/>
      <use xlink:href="#DejaVuSans-59" transform="translate(599.890625 0)"/>
      <use xlink:href="#DejaVuSans-48" transform="translate(659.078125 0)"/>
      <use xlink:href="#DejaVuSans-55" transform="translate(720.609375 0)"/>
      <use xlink:href="#DejaVuSans-4f" transform="translate(761.71875 0)"/>
      <use xlink:href="#DejaVuSans-44" transform="translate(789.5 0)"/>
      <use xlink:href="#DejaVuSans-53" transform="translate(850.78125 0)"/>
     </g>
    </g>
   </g>
   <g id="patch_17">
    <path d="M 330.972375 225.198979
L 330.972375 18.118365
" style="fill: none; stroke: #000000; stroke-width: 0.8; stroke-linejoin: miter; stroke-linecap: square"/>
   </g>
   <g id="patch_18">
    <path d="M 330.972375 225.198979
L 582.314343 225.198979
" style="fill: none; stroke: #000000; stroke-width: 0.8; stroke-linejoin: miter; stroke-linecap: square"/>
   </g>
   <g id="text_30">
    <!-- Adjacent overlap is the control -->
    <g transform="translate(364.747734 12.118365) scale(0.12 -0.12)">
     <defs>
      <path id="DejaVuSans-24" d="M 2188 4044
L 1331 1722
L 3047 1722
L 2188 4044
z
M 1831 4666
L 2547 4666
L 4325 0
L 3669 0
L 3244 1197
L 1141 1197
L 716 0
L 50 0
L 1831 4666
z
" transform="scale(0.015625)"/>
      <path id="DejaVuSans-4d" d="M 603 3500
L 1178 3500
L 1178 -63
Q 1178 -731 923 -1031
Q 669 -1331 103 -1331
L -116 -1331
L -116 -844
L 38 -844
Q 366 -844 484 -692
Q 603 -541 603 -63
L 603 3500
z
M 603 4863
L 1178 4863
L 1178 4134
L 603 4134
L 603 4863
z
" transform="scale(0.015625)"/>
     </defs>
     <use xlink:href="#DejaVuSans-24"/>
     <use xlink:href="#DejaVuSans-47" transform="translate(66.65625 0)"/>
     <use xlink:href="#DejaVuSans-4d" transform="translate(130.140625 0)"/>
     <use xlink:href="#DejaVuSans-44" transform="translate(157.921875 0)"/>
     <use xlink:href="#DejaVuSans-46" transform="translate(219.203125 0)"/>
     <use xlink:href="#DejaVuSans-48" transform="translate(274.1875 0)"/>
     <use xlink:href="#DejaVuSans-51" transform="translate(335.71875 0)"/>
     <use xlink:href="#DejaVuSans-57" transform="translate(399.09375 0)"/>
     <use xlink:href="#DejaVuSans-3" transform="translate(438.296875 0)"/>
     <use xlink:href="#DejaVuSans-52" transform="translate(470.078125 0)"/>
     <use xlink:href="#DejaVuSans-59" transform="translate(531.265625 0)"/>
     <use xlink:href="#DejaVuSans-48" transform="translate(590.453125 0)"/>
     <use xlink:href="#DejaVuSans-55" transform="translate(651.984375 0)"/>
     <use xlink:href="#DejaVuSans-4f" transform="translate(693.09375 0)"/>
     <use xlink:href="#DejaVuSans-44" transform="translate(720.875 0)"/>
     <use xlink:href="#DejaVuSans-53" transform="translate(782.15625 0)"/>
     <use xlink:href="#DejaVuSans-3" transform="translate(845.640625 0)"/>
     <use xlink:href="#DejaVuSans-4c" transform="translate(877.421875 0)"/>
     <use xlink:href="#DejaVuSans-56" transform="translate(905.203125 0)"/>
     <use xlink:href="#DejaVuSans-3" transform="translate(957.296875 0)"/>
     <use xlink:href="#DejaVuSans-57" transform="translate(989.078125 0)"/>
     <use xlink:href="#DejaVuSans-4b" transform="translate(1028.28125 0)"/>
     <use xlink:href="#DejaVuSans-48" transform="translate(1091.65625 0)"/>
     <use xlink:href="#DejaVuSans-3" transform="translate(1153.1875 0)"/>
     <use xlink:href="#DejaVuSans-46" transform="translate(1184.96875 0)"/>
     <use xlink:href="#DejaVuSans-52" transform="translate(1239.953125 0)"/>
     <use xlink:href="#DejaVuSans-51" transform="translate(1301.140625 0)"/>
     <use xlink:href="#DejaVuSans-57" transform="translate(1364.515625 0)"/>
     <use xlink:href="#DejaVuSans-55" transform="translate(1403.71875 0)"/>
     <use xlink:href="#DejaVuSans-52" transform="translate(1442.625 0)"/>
     <use xlink:href="#DejaVuSans-4f" transform="translate(1503.8125 0)"/>
    </g>
   </g>
   <g id="legend_2">
    <g id="patch_19">
     <path d="M 489.125593 31.397115
L 505.125593 31.397115
L 505.125593 25.797115
L 489.125593 25.797115
z
" style="fill: #2f6f9f; opacity: 0.82"/>
    </g>
    <g id="text_31">
     <!-- dense windows -->
     <g transform="translate(511.525593 31.397115) scale(0.08 -0.08)">
      <use xlink:href="#DejaVuSans-47"/>
      <use xlink:href="#DejaVuSans-48" transform="translate(63.484375 0)"/>
      <use xlink:href="#DejaVuSans-51" transform="translate(125.015625 0)"/>
      <use xlink:href="#DejaVuSans-56" transform="translate(188.390625 0)"/>
      <use xlink:href="#DejaVuSans-48" transform="translate(240.484375 0)"/>
      <use xlink:href="#DejaVuSans-3" transform="translate(302.015625 0)"/>
      <use xlink:href="#DejaVuSans-5a" transform="translate(333.796875 0)"/>
      <use xlink:href="#DejaVuSans-4c" transform="translate(415.578125 0)"/>
      <use xlink:href="#DejaVuSans-51" transform="translate(443.359375 0)"/>
      <use xlink:href="#DejaVuSans-47" transform="translate(506.734375 0)"/>
      <use xlink:href="#DejaVuSans-52" transform="translate(570.21875 0)"/>
      <use xlink:href="#DejaVuSans-5a" transform="translate(631.40625 0)"/>
      <use xlink:href="#DejaVuSans-56" transform="translate(713.1875 0)"/>
     </g>
    </g>
    <g id="patch_20">
     <path d="M 489.125593 43.39774
L 505.125593 43.39774
L 505.125593 37.79774
L 489.125593 37.79774
z
" style="fill: #d88c3d; opacity: 0.82"/>
    </g>
    <g id="text_32">
     <!-- sparse windows -->
     <g transform="translate(511.525593 43.39774) scale(0.08 -0.08)">
      <use xlink:href="#DejaVuSans-56"/>
      <use xlink:href="#DejaVuSans-53" transform="translate(52.09375 0)"/>
      <use xlink:href="#DejaVuSans-44" transform="translate(115.578125 0)"/>
      <use xlink:href="#DejaVuSans-55" transform="translate(176.859375 0)"/>
      <use xlink:href="#DejaVuSans-56" transform="translate(217.96875 0)"/>
      <use xlink:href="#DejaVuSans-48" transform="translate(270.0625 0)"/>
      <use xlink:href="#DejaVuSans-3" transform="translate(331.59375 0)"/>
      <use xlink:href="#DejaVuSans-5a" transform="translate(363.375 0)"/>
      <use xlink:href="#DejaVuSans-4c" transform="translate(445.15625 0)"/>
      <use xlink:href="#DejaVuSans-51" transform="translate(472.9375 0)"/>
      <use xlink:href="#DejaVuSans-47" transform="translate(536.3125 0)"/>
      <use xlink:href="#DejaVuSans-52" transform="translate(599.796875 0)"/>
      <use xlink:href="#DejaVuSans-5a" transform="translate(660.984375 0)"/>
      <use xlink:href="#DejaVuSans-56" transform="translate(742.765625 0)"/>
     </g>
    </g>
   </g>
  </g>
  <g id="axes_3">
   <g id="patch_21">
    <path d="M 624.057792 225.198979
L 875.39976 225.198979
L 875.39976 18.118365
L 624.057792 18.118365
z
" style="fill: #ffffff"/>
   </g>
   <g id="matplotlib.axis_5">
    <g id="xtick_10">
     <g id="line2d_49">
      <path d="M 658.331697 225.198979
L 658.331697 18.118365
" clip-path="url(#p2ba742e721)" style="fill: none; stroke: #b0b0b0; stroke-opacity: 0.18; stroke-width: 0.6; stroke-linecap: square"/>
     </g>
     <g id="line2d_50">
      <g>
       <use xlink:href="#m682dca91c4" x="658.331697" y="225.198979" style="stroke: #000000; stroke-width: 0.8"/>
      </g>
     </g>
     <g id="text_33">
      <!-- −2 -->
      <g transform="translate(650.960603 239.796635) scale(0.1 -0.1)">
       <use xlink:href="#DejaVuSans-c9c"/>
       <use xlink:href="#DejaVuSans-15" transform="translate(83.796875 0)"/>
      </g>
     </g>
    </g>
    <g id="xtick_11">
     <g id="line2d_51">
      <path d="M 704.030236 225.198979
L 704.030236 18.118365
" clip-path="url(#p2ba742e721)" style="fill: none; stroke: #b0b0b0; stroke-opacity: 0.18; stroke-width: 0.6; stroke-linecap: square"/>
     </g>
     <g id="line2d_52">
      <g>
       <use xlink:href="#m682dca91c4" x="704.030236" y="225.198979" style="stroke: #000000; stroke-width: 0.8"/>
      </g>
     </g>
     <g id="text_34">
      <!-- −1 -->
      <g transform="translate(696.659143 239.796635) scale(0.1 -0.1)">
       <use xlink:href="#DejaVuSans-c9c"/>
       <use xlink:href="#DejaVuSans-14" transform="translate(83.796875 0)"/>
      </g>
     </g>
    </g>
    <g id="xtick_12">
     <g id="line2d_53">
      <path d="M 749.728776 225.198979
L 749.728776 18.118365
" clip-path="url(#p2ba742e721)" style="fill: none; stroke: #b0b0b0; stroke-opacity: 0.18; stroke-width: 0.6; stroke-linecap: square"/>
     </g>
     <g id="line2d_54">
      <g>
       <use xlink:href="#m682dca91c4" x="749.728776" y="225.198979" style="stroke: #000000; stroke-width: 0.8"/>
      </g>
     </g>
     <g id="text_35">
      <!-- 0 -->
      <g transform="translate(746.547526 239.796635) scale(0.1 -0.1)">
       <use xlink:href="#DejaVuSans-13"/>
      </g>
     </g>
    </g>
    <g id="xtick_13">
     <g id="line2d_55">
      <path d="M 795.427316 225.198979
L 795.427316 18.118365
" clip-path="url(#p2ba742e721)" style="fill: none; stroke: #b0b0b0; stroke-opacity: 0.18; stroke-width: 0.6; stroke-linecap: square"/>
     </g>
     <g id="line2d_56">
      <g>
       <use xlink:href="#m682dca91c4" x="795.427316" y="225.198979" style="stroke: #000000; stroke-width: 0.8"/>
      </g>
     </g>
     <g id="text_36">
      <!-- 1 -->
      <g transform="translate(792.246066 239.796635) scale(0.1 -0.1)">
       <use xlink:href="#DejaVuSans-14"/>
      </g>
     </g>
    </g>
    <g id="xtick_14">
     <g id="line2d_57">
      <path d="M 841.125855 225.198979
L 841.125855 18.118365
" clip-path="url(#p2ba742e721)" style="fill: none; stroke: #b0b0b0; stroke-opacity: 0.18; stroke-width: 0.6; stroke-linecap: square"/>
     </g>
     <g id="line2d_58">
      <g>
       <use xlink:href="#m682dca91c4" x="841.125855" y="225.198979" style="stroke: #000000; stroke-width: 0.8"/>
      </g>
     </g>
     <g id="text_37">
      <!-- 2 -->
      <g transform="translate(837.944605 239.796635) scale(0.1 -0.1)">
       <use xlink:href="#DejaVuSans-15"/>
      </g>
     </g>
    </g>
    <g id="text_38">
     <!-- umbrella center -->
     <g transform="translate(709.975651 253.797416) scale(0.1 -0.1)">
      <use xlink:href="#DejaVuSans-58"/>
      <use xlink:href="#DejaVuSans-50" transform="translate(63.375 0)"/>
      <use xlink:href="#DejaVuSans-45" transform="translate(160.78125 0)"/>
      <use xlink:href="#DejaVuSans-55" transform="translate(224.265625 0)"/>
      <use xlink:href="#DejaVuSans-48" transform="translate(263.171875 0)"/>
      <use xlink:href="#DejaVuSans-4f" transform="translate(324.703125 0)"/>
      <use xlink:href="#DejaVuSans-4f" transform="translate(352.484375 0)"/>
      <use xlink:href="#DejaVuSans-44" transform="translate(380.265625 0)"/>
      <use xlink:href="#DejaVuSans-3" transform="translate(441.546875 0)"/>
      <use xlink:href="#DejaVuSans-46" transform="translate(473.328125 0)"/>
      <use xlink:href="#DejaVuSans-48" transform="translate(528.3125 0)"/>
      <use xlink:href="#DejaVuSans-51" transform="translate(589.84375 0)"/>
      <use xlink:href="#DejaVuSans-57" transform="translate(653.21875 0)"/>
      <use xlink:href="#DejaVuSans-48" transform="translate(692.421875 0)"/>
      <use xlink:href="#DejaVuSans-55" transform="translate(753.953125 0)"/>
     </g>
    </g>
   </g>
   <g id="matplotlib.axis_6">
    <g id="ytick_13">
     <g id="line2d_59">
      <path d="M 624.057792 196.960713
L 875.39976 196.960713
" clip-path="url(#p2ba742e721)" style="fill: none; stroke: #b0b0b0; stroke-opacity: 0.18; stroke-width: 0.6; stroke-linecap: square"/>
     </g>
     <g id="line2d_60">
      <g>
       <use xlink:href="#m025a5f7198" x="624.057792" y="196.960713" style="stroke: #000000; stroke-width: 0.8"/>
      </g>
     </g>
     <g id="text_39">
      <!-- −2 -->
      <g transform="translate(602.315605 200.759541) scale(0.1 -0.1)">
       <use xlink:href="#DejaVuSans-c9c"/>
       <use xlink:href="#DejaVuSans-15" transform="translate(83.796875 0)"/>
      </g>
     </g>
    </g>
    <g id="ytick_14">
     <g id="line2d_61">
      <path d="M 624.057792 159.309693
L 875.39976 159.309693
" clip-path="url(#p2ba742e721)" style="fill: none; stroke: #b0b0b0; stroke-opacity: 0.18; stroke-width: 0.6; stroke-linecap: square"/>
     </g>
     <g id="line2d_62">
      <g>
       <use xlink:href="#m025a5f7198" x="624.057792" y="159.309693" style="stroke: #000000; stroke-width: 0.8"/>
      </g>
     </g>
     <g id="text_40">
      <!-- −1 -->
      <g transform="translate(602.315605 163.108521) scale(0.1 -0.1)">
       <use xlink:href="#DejaVuSans-c9c"/>
       <use xlink:href="#DejaVuSans-14" transform="translate(83.796875 0)"/>
      </g>
     </g>
    </g>
    <g id="ytick_15">
     <g id="line2d_63">
      <path d="M 624.057792 121.658672
L 875.39976 121.658672
" clip-path="url(#p2ba742e721)" style="fill: none; stroke: #b0b0b0; stroke-opacity: 0.18; stroke-width: 0.6; stroke-linecap: square"/>
     </g>
     <g id="line2d_64">
      <g>
       <use xlink:href="#m025a5f7198" x="624.057792" y="121.658672" style="stroke: #000000; stroke-width: 0.8"/>
      </g>
     </g>
     <g id="text_41">
      <!-- 0 -->
      <g transform="translate(610.695292 125.4575) scale(0.1 -0.1)">
       <use xlink:href="#DejaVuSans-13"/>
      </g>
     </g>
    </g>
    <g id="ytick_16">
     <g id="line2d_65">
      <path d="M 624.057792 84.007651
L 875.39976 84.007651
" clip-path="url(#p2ba742e721)" style="fill: none; stroke: #b0b0b0; stroke-opacity: 0.18; stroke-width: 0.6; stroke-linecap: square"/>
     </g>
     <g id="line2d_66">
      <g>
       <use xlink:href="#m025a5f7198" x="624.057792" y="84.007651" style="stroke: #000000; stroke-width: 0.8"/>
      </g>
     </g>
     <g id="text_42">
      <!-- 1 -->
      <g transform="translate(610.695292 87.806479) scale(0.1 -0.1)">
       <use xlink:href="#DejaVuSans-14"/>
      </g>
     </g>
    </g>
    <g id="ytick_17">
     <g id="line2d_67">
      <path d="M 624.057792 46.356631
L 875.39976 46.356631
" clip-path="url(#p2ba742e721)" style="fill: none; stroke: #b0b0b0; stroke-opacity: 0.18; stroke-width: 0.6; stroke-linecap: square"/>
     </g>
     <g id="line2d_68">
      <g>
       <use xlink:href="#m025a5f7198" x="624.057792" y="46.356631" style="stroke: #000000; stroke-width: 0.8"/>
      </g>
     </g>
     <g id="text_43">
      <!-- 2 -->
      <g transform="translate(610.695292 50.155459) scale(0.1 -0.1)">
       <use xlink:href="#DejaVuSans-15"/>
      </g>
     </g>
    </g>
    <g id="text_44">
     <!-- sample mean +/- std -->
     <g transform="translate(595.913261 174.201641) rotate(-90) scale(0.1 -0.1)">
      <defs>
       <path id="DejaVuSans-e" d="M 2944 4013
L 2944 2272
L 4684 2272
L 4684 1741
L 2944 1741
L 2944 0
L 2419 0
L 2419 1741
L 678 1741
L 678 2272
L 2419 2272
L 2419 4013
L 2944 4013
z
" transform="scale(0.015625)"/>
       <path id="DejaVuSans-12" d="M 1625 4666
L 2156 4666
L 531 -594
L 0 -594
L 1625 4666
z
" transform="scale(0.015625)"/>
       <path id="DejaVuSans-10" d="M 313 2009
L 1997 2009
L 1997 1497
L 313 1497
L 313 2009
z
" transform="scale(0.015625)"/>
      </defs>
      <use xlink:href="#DejaVuSans-56"/>
      <use xlink:href="#DejaVuSans-44" transform="translate(52.09375 0)"/>
      <use xlink:href="#DejaVuSans-50" transform="translate(113.375 0)"/>
      <use xlink:href="#DejaVuSans-53" transform="translate(210.78125 0)"/>
      <use xlink:href="#DejaVuSans-4f" transform="translate(274.265625 0)"/>
      <use xlink:href="#DejaVuSans-48" transform="translate(302.046875 0)"/>
      <use xlink:href="#DejaVuSans-3" transform="translate(363.578125 0)"/>
      <use xlink:href="#DejaVuSans-50" transform="translate(395.359375 0)"/>
      <use xlink:href="#DejaVuSans-48" transform="translate(492.765625 0)"/>
      <use xlink:href="#DejaVuSans-44" transform="translate(554.296875 0)"/>
      <use xlink:href="#DejaVuSans-51" transform="translate(615.578125 0)"/>
      <use xlink:href="#DejaVuSans-3" transform="translate(678.953125 0)"/>
      <use xlink:href="#DejaVuSans-e" transform="translate(710.734375 0)"/>
      <use xlink:href="#DejaVuSans-12" transform="translate(794.53125 0)"/>
      <use xlink:href="#DejaVuSans-10" transform="translate(828.21875 0)"/>
      <use xlink:href="#DejaVuSans-3" transform="translate(864.296875 0)"/>
      <use xlink:href="#DejaVuSans-56" transform="translate(896.078125 0)"/>
      <use xlink:href="#DejaVuSans-57" transform="translate(948.171875 0)"/>
      <use xlink:href="#DejaVuSans-47" transform="translate(987.375 0)"/>
     </g>
    </g>
   </g>
   <g id="LineCollection_1">
    <path d="M 676.611113 178.405566
L 676.611113 165.72104
" clip-path="url(#p2ba742e721)" style="fill: none; stroke: #2f6f9f; stroke-width: 1.1"/>
    <path d="M 694.890528 170.615131
L 694.890528 156.671255
" clip-path="url(#p2ba742e721)" style="fill: none; stroke: #2f6f9f; stroke-width: 1.1"/>
    <path d="M 713.169944 160.984649
L 713.169944 145.13151
" clip-path="url(#p2ba742e721)" style="fill: none; stroke: #2f6f9f; stroke-width: 1.1"/>
    <path d="M 731.44936 148.227472
L 731.44936 130.019872
" clip-path="url(#p2ba742e721)" style="fill: none; stroke: #2f6f9f; stroke-width: 1.1"/>
    <path d="M 749.728776 131.499196
L 749.728776 112.057919
" clip-path="url(#p2ba742e721)" style="fill: none; stroke: #2f6f9f; stroke-width: 1.1"/>
    <path d="M 768.008192 113.350715
L 768.008192 95.084982
" clip-path="url(#p2ba742e721)" style="fill: none; stroke: #2f6f9f; stroke-width: 1.1"/>
    <path d="M 786.287608 98.291745
L 786.287608 82.434448
" clip-path="url(#p2ba742e721)" style="fill: none; stroke: #2f6f9f; stroke-width: 1.1"/>
    <path d="M 804.567024 86.610262
L 804.567024 72.649465
" clip-path="url(#p2ba742e721)" style="fill: none; stroke: #2f6f9f; stroke-width: 1.1"/>
    <path d="M 822.846439 77.551344
L 822.846439 64.80427
" clip-path="url(#p2ba742e721)" style="fill: none; stroke: #2f6f9f; stroke-width: 1.1"/>
   </g>
   <g id="line2d_69">
    <defs>
     <path id="m14710c2525" d="M 2.5 0
L -2.5 -0
" style="stroke: #2f6f9f"/>
    </defs>
    <g clip-path="url(#p2ba742e721)">
     <use xlink:href="#m14710c2525" x="676.611113" y="178.405566" style="fill: #2f6f9f; stroke: #2f6f9f"/>
     <use xlink:href="#m14710c2525" x="694.890528" y="170.615131" style="fill: #2f6f9f; stroke: #2f6f9f"/>
     <use xlink:href="#m14710c2525" x="713.169944" y="160.984649" style="fill: #2f6f9f; stroke: #2f6f9f"/>
     <use xlink:href="#m14710c2525" x="731.44936" y="148.227472" style="fill: #2f6f9f; stroke: #2f6f9f"/>
     <use xlink:href="#m14710c2525" x="749.728776" y="131.499196" style="fill: #2f6f9f; stroke: #2f6f9f"/>
     <use xlink:href="#m14710c2525" x="768.008192" y="113.350715" style="fill: #2f6f9f; stroke: #2f6f9f"/>
     <use xlink:href="#m14710c2525" x="786.287608" y="98.291745" style="fill: #2f6f9f; stroke: #2f6f9f"/>
     <use xlink:href="#m14710c2525" x="804.567024" y="86.610262" style="fill: #2f6f9f; stroke: #2f6f9f"/>
     <use xlink:href="#m14710c2525" x="822.846439" y="77.551344" style="fill: #2f6f9f; stroke: #2f6f9f"/>
    </g>
   </g>
   <g id="line2d_70">
    <g clip-path="url(#p2ba742e721)">
     <use xlink:href="#m14710c2525" x="676.611113" y="165.72104" style="fill: #2f6f9f; stroke: #2f6f9f"/>
     <use xlink:href="#m14710c2525" x="694.890528" y="156.671255" style="fill: #2f6f9f; stroke: #2f6f9f"/>
     <use xlink:href="#m14710c2525" x="713.169944" y="145.13151" style="fill: #2f6f9f; stroke: #2f6f9f"/>
     <use xlink:href="#m14710c2525" x="731.44936" y="130.019872" style="fill: #2f6f9f; stroke: #2f6f9f"/>
     <use xlink:href="#m14710c2525" x="749.728776" y="112.057919" style="fill: #2f6f9f; stroke: #2f6f9f"/>
     <use xlink:href="#m14710c2525" x="768.008192" y="95.084982" style="fill: #2f6f9f; stroke: #2f6f9f"/>
     <use xlink:href="#m14710c2525" x="786.287608" y="82.434448" style="fill: #2f6f9f; stroke: #2f6f9f"/>
     <use xlink:href="#m14710c2525" x="804.567024" y="72.649465" style="fill: #2f6f9f; stroke: #2f6f9f"/>
     <use xlink:href="#m14710c2525" x="822.846439" y="64.80427" style="fill: #2f6f9f; stroke: #2f6f9f"/>
    </g>
   </g>
   <g id="LineCollection_2">
    <path d="M 676.611113 178.36438
L 676.611113 165.694623
" clip-path="url(#p2ba742e721)" style="fill: none; stroke: #d88c3d; stroke-width: 1.1"/>
    <path d="M 713.169944 160.994226
L 713.169944 144.988676
" clip-path="url(#p2ba742e721)" style="fill: none; stroke: #d88c3d; stroke-width: 1.1"/>
    <path d="M 786.287608 98.270779
L 786.287608 82.349473
" clip-path="url(#p2ba742e721)" style="fill: none; stroke: #d88c3d; stroke-width: 1.1"/>
    <path d="M 822.846439 77.645146
L 822.846439 64.897066
" clip-path="url(#p2ba742e721)" style="fill: none; stroke: #d88c3d; stroke-width: 1.1"/>
   </g>
   <g id="line2d_71">
    <defs>
     <path id="mdb7d62cfc6" d="M 2.5 0
L -2.5 -0
" style="stroke: #d88c3d"/>
    </defs>
    <g clip-path="url(#p2ba742e721)">
     <use xlink:href="#mdb7d62cfc6" x="676.611113" y="178.36438" style="fill: #d88c3d; stroke: #d88c3d"/>
     <use xlink:href="#mdb7d62cfc6" x="713.169944" y="160.994226" style="fill: #d88c3d; stroke: #d88c3d"/>
     <use xlink:href="#mdb7d62cfc6" x="786.287608" y="98.270779" style="fill: #d88c3d; stroke: #d88c3d"/>
     <use xlink:href="#mdb7d62cfc6" x="822.846439" y="77.645146" style="fill: #d88c3d; stroke: #d88c3d"/>
    </g>
   </g>
   <g id="line2d_72">
    <g clip-path="url(#p2ba742e721)">
     <use xlink:href="#mdb7d62cfc6" x="676.611113" y="165.694623" style="fill: #d88c3d; stroke: #d88c3d"/>
     <use xlink:href="#mdb7d62cfc6" x="713.169944" y="144.988676" style="fill: #d88c3d; stroke: #d88c3d"/>
     <use xlink:href="#mdb7d62cfc6" x="786.287608" y="82.349473" style="fill: #d88c3d; stroke: #d88c3d"/>
     <use xlink:href="#mdb7d62cfc6" x="822.846439" y="64.897066" style="fill: #d88c3d; stroke: #d88c3d"/>
    </g>
   </g>
   <g id="line2d_73">
    <path d="M 635.482427 215.786224
L 863.975125 27.53112
" clip-path="url(#p2ba742e721)" style="fill: none; stroke-dasharray: 3.33,1.44; stroke-dashoffset: 0; stroke: #333333; stroke-width: 0.9"/>
   </g>
   <g id="line2d_74">
    <path d="M 676.611113 172.063303
L 694.890528 163.643193
L 713.169944 153.058079
L 731.44936 139.123672
L 749.728776 121.778557
L 768.008192 104.217848
L 786.287608 90.363096
L 804.567024 79.629863
L 822.846439 71.177807
" clip-path="url(#p2ba742e721)" style="fill: none; stroke: #2f6f9f; stroke-width: 1.1; stroke-linecap: square"/>
    <defs>
     <path id="mef1f181afa" d="M 0 3
C 0.795609 3 1.55874 2.683901 2.12132 2.12132
C 2.683901 1.55874 3 0.795609 3 0
C 3 -0.795609 2.683901 -1.55874 2.12132 -2.12132
C 1.55874 -2.683901 0.795609 -3 0 -3
C -0.795609 -3 -1.55874 -2.683901 -2.12132 -2.12132
C -2.683901 -1.55874 -3 -0.795609 -3 0
C -3 0.795609 -2.683901 1.55874 -2.12132 2.12132
C -1.55874 2.683901 -0.795609 3 0 3
z
" style="stroke: #2f6f9f"/>
    </defs>
    <g clip-path="url(#p2ba742e721)">
     <use xlink:href="#mef1f181afa" x="676.611113" y="172.063303" style="fill: #2f6f9f; stroke: #2f6f9f"/>
     <use xlink:href="#mef1f181afa" x="694.890528" y="163.643193" style="fill: #2f6f9f; stroke: #2f6f9f"/>
     <use xlink:href="#mef1f181afa" x="713.169944" y="153.058079" style="fill: #2f6f9f; stroke: #2f6f9f"/>
     <use xlink:href="#mef1f181afa" x="731.44936" y="139.123672" style="fill: #2f6f9f; stroke: #2f6f9f"/>
     <use xlink:href="#mef1f181afa" x="749.728776" y="121.778557" style="fill: #2f6f9f; stroke: #2f6f9f"/>
     <use xlink:href="#mef1f181afa" x="768.008192" y="104.217848" style="fill: #2f6f9f; stroke: #2f6f9f"/>
     <use xlink:href="#mef1f181afa" x="786.287608" y="90.363096" style="fill: #2f6f9f; stroke: #2f6f9f"/>
     <use xlink:href="#mef1f181afa" x="804.567024" y="79.629863" style="fill: #2f6f9f; stroke: #2f6f9f"/>
     <use xlink:href="#mef1f181afa" x="822.846439" y="71.177807" style="fill: #2f6f9f; stroke: #2f6f9f"/>
    </g>
   </g>
   <g id="line2d_75">
    <path d="M 676.611113 172.029502
L 713.169944 152.991451
L 786.287608 90.310126
L 822.846439 71.271106
" clip-path="url(#p2ba742e721)" style="fill: none; stroke: #d88c3d; stroke-width: 1.1; stroke-linecap: square"/>
    <defs>
     <path id="m2ef71ab8e7" d="M 0 3
C 0.795609 3 1.55874 2.683901 2.12132 2.12132
C 2.683901 1.55874 3 0.795609 3 0
C 3 -0.795609 2.683901 -1.55874 2.12132 -2.12132
C 1.55874 -2.683901 0.795609 -3 0 -3
C -0.795609 -3 -1.55874 -2.683901 -2.12132 -2.12132
C -2.683901 -1.55874 -3 -0.795609 -3 0
C -3 0.795609 -2.683901 1.55874 -2.12132 2.12132
C -1.55874 2.683901 -0.795609 3 0 3
z
" style="stroke: #d88c3d"/>
    </defs>
    <g clip-path="url(#p2ba742e721)">
     <use xlink:href="#m2ef71ab8e7" x="676.611113" y="172.029502" style="fill: #d88c3d; stroke: #d88c3d"/>
     <use xlink:href="#m2ef71ab8e7" x="713.169944" y="152.991451" style="fill: #d88c3d; stroke: #d88c3d"/>
     <use xlink:href="#m2ef71ab8e7" x="786.287608" y="90.310126" style="fill: #d88c3d; stroke: #d88c3d"/>
     <use xlink:href="#m2ef71ab8e7" x="822.846439" y="71.271106" style="fill: #d88c3d; stroke: #d88c3d"/>
    </g>
   </g>
   <g id="patch_22">
    <path d="M 624.057792 225.198979
L 624.057792 18.118365
" style="fill: none; stroke: #000000; stroke-width: 0.8; stroke-linejoin: miter; stroke-linecap: square"/>
   </g>
   <g id="patch_23">
    <path d="M 624.057792 225.198979
L 875.39976 225.198979
" style="fill: none; stroke: #000000; stroke-width: 0.8; stroke-linejoin: miter; stroke-linecap: square"/>
   </g>
   <g id="text_45">
    <g id="patch_24">
     <path d="M 631.598051 47.114768
L 723.351567 47.114768
Q 725.731567 47.114768 725.731567 44.734768
L 725.731567 24.330783
Q 725.731567 21.950783 723.351567 21.950783
L 631.598051 21.950783
Q 629.218051 21.950783 629.218051 24.330783
L 629.218051 44.734768
Q 629.218051 47.114768 631.598051 47.114768
z
" style="fill: #ffffff; opacity: 0.9; stroke: #000000; stroke-linejoin: miter"/>
    </g>
    <!-- dense RMSE = 0.173 -->
    <g transform="translate(631.598051 31.640285) scale(0.085 -0.085)">
     <defs>
      <path id="DejaVuSans-36" d="M 3425 4513
L 3425 3897
Q 3066 4069 2747 4153
Q 2428 4238 2131 4238
Q 1616 4238 1336 4038
Q 1056 3838 1056 3469
Q 1056 3159 1242 3001
Q 1428 2844 1947 2747
L 2328 2669
Q 3034 2534 3370 2195
Q 3706 1856 3706 1288
Q 3706 609 3251 259
Q 2797 -91 1919 -91
Q 1588 -91 1214 -16
Q 841 59 441 206
L 441 856
Q 825 641 1194 531
Q 1563 422 1919 422
Q 2459 422 2753 634
Q 3047 847 3047 1241
Q 3047 1584 2836 1778
Q 2625 1972 2144 2069
L 1759 2144
Q 1053 2284 737 2584
Q 422 2884 422 3419
Q 422 4038 858 4394
Q 1294 4750 2059 4750
Q 2388 4750 2728 4690
Q 3069 4631 3425 4513
z
" transform="scale(0.015625)"/>
      <path id="DejaVuSans-28" d="M 628 4666
L 3578 4666
L 3578 4134
L 1259 4134
L 1259 2753
L 3481 2753
L 3481 2222
L 1259 2222
L 1259 531
L 3634 531
L 3634 0
L 628 0
L 628 4666
z
" transform="scale(0.015625)"/>
      <path id="DejaVuSans-20" d="M 678 2906
L 4684 2906
L 4684 2381
L 678 2381
L 678 2906
z
M 678 1631
L 4684 1631
L 4684 1100
L 678 1100
L 678 1631
z
" transform="scale(0.015625)"/>
      <path id="DejaVuSans-1a" d="M 525 4666
L 3525 4666
L 3525 4397
L 1831 0
L 1172 0
L 2766 4134
L 525 4134
L 525 4666
z
" transform="scale(0.015625)"/>
      <path id="DejaVuSans-16" d="M 2597 2516
Q 3050 2419 3304 2112
Q 3559 1806 3559 1356
Q 3559 666 3084 287
Q 2609 -91 1734 -91
Q 1441 -91 1130 -33
Q 819 25 488 141
L 488 750
Q 750 597 1062 519
Q 1375 441 1716 441
Q 2309 441 2620 675
Q 2931 909 2931 1356
Q 2931 1769 2642 2001
Q 2353 2234 1838 2234
L 1294 2234
L 1294 2753
L 1863 2753
Q 2328 2753 2575 2939
Q 2822 3125 2822 3475
Q 2822 3834 2567 4026
Q 2313 4219 1838 4219
Q 1578 4219 1281 4162
Q 984 4106 628 3988
L 628 4550
Q 988 4650 1302 4700
Q 1616 4750 1894 4750
Q 2613 4750 3031 4423
Q 3450 4097 3450 3541
Q 3450 3153 3228 2886
Q 3006 2619 2597 2516
z
" transform="scale(0.015625)"/>
     </defs>
     <use xlink:href="#DejaVuSans-47"/>
     <use xlink:href="#DejaVuSans-48" transform="translate(63.484375 0)"/>
     <use xlink:href="#DejaVuSans-51" transform="translate(125.015625 0)"/>
     <use xlink:href="#DejaVuSans-56" transform="translate(188.390625 0)"/>
     <use xlink:href="#DejaVuSans-48" transform="translate(240.484375 0)"/>
     <use xlink:href="#DejaVuSans-3" transform="translate(302.015625 0)"/>
     <use xlink:href="#DejaVuSans-35" transform="translate(333.796875 0)"/>
     <use xlink:href="#DejaVuSans-30" transform="translate(403.28125 0)"/>
     <use xlink:href="#DejaVuSans-36" transform="translate(489.5625 0)"/>
     <use xlink:href="#DejaVuSans-28" transform="translate(553.046875 0)"/>
     <use xlink:href="#DejaVuSans-3" transform="translate(616.234375 0)"/>
     <use xlink:href="#DejaVuSans-20" transform="translate(648.015625 0)"/>
     <use xlink:href="#DejaVuSans-3" transform="translate(731.8125 0)"/>
     <use xlink:href="#DejaVuSans-13" transform="translate(763.59375 0)"/>
     <use xlink:href="#DejaVuSans-11" transform="translate(827.21875 0)"/>
     <use xlink:href="#DejaVuSans-14" transform="translate(859 0)"/>
     <use xlink:href="#DejaVuSans-1a" transform="translate(922.625 0)"/>
     <use xlink:href="#DejaVuSans-16" transform="translate(986.25 0)"/>
    </g>
    <!-- sparse RMSE = 0.223 -->
    <g transform="translate(631.598051 41.841946) scale(0.085 -0.085)">
     <use xlink:href="#DejaVuSans-56"/>
     <use xlink:href="#DejaVuSans-53" transform="translate(52.09375 0)"/>
     <use xlink:href="#DejaVuSans-44" transform="translate(115.578125 0)"/>
     <use xlink:href="#DejaVuSans-55" transform="translate(176.859375 0)"/>
     <use xlink:href="#DejaVuSans-56" transform="translate(217.96875 0)"/>
     <use xlink:href="#DejaVuSans-48" transform="translate(270.0625 0)"/>
     <use xlink:href="#DejaVuSans-3" transform="translate(331.59375 0)"/>
     <use xlink:href="#DejaVuSans-35" transform="translate(363.375 0)"/>
     <use xlink:href="#DejaVuSans-30" transform="translate(432.859375 0)"/>
     <use xlink:href="#DejaVuSans-36" transform="translate(519.140625 0)"/>
     <use xlink:href="#DejaVuSans-28" transform="translate(582.625 0)"/>
     <use xlink:href="#DejaVuSans-3" transform="translate(645.8125 0)"/>
     <use xlink:href="#DejaVuSans-20" transform="translate(677.59375 0)"/>
     <use xlink:href="#DejaVuSans-3" transform="translate(761.390625 0)"/>
     <use xlink:href="#DejaVuSans-13" transform="translate(793.171875 0)"/>
     <use xlink:href="#DejaVuSans-11" transform="translate(856.796875 0)"/>
     <use xlink:href="#DejaVuSans-15" transform="translate(888.578125 0)"/>
     <use xlink:href="#DejaVuSans-15" transform="translate(952.203125 0)"/>
     <use xlink:href="#DejaVuSans-16" transform="translate(1015.828125 0)"/>
    </g>
   </g>
   <g id="text_46">
    <!-- A biased window samples a distribution -->
    <g transform="translate(630.738464 12.118365) scale(0.12 -0.12)">
     <use xlink:href="#DejaVuSans-24"/>
     <use xlink:href="#DejaVuSans-3" transform="translate(68.40625 0)"/>
     <use xlink:href="#DejaVuSans-45" transform="translate(100.1875 0)"/>
     <use xlink:href="#DejaVuSans-4c" transform="translate(163.671875 0)"/>
     <use xlink:href="#DejaVuSans-44" transform="translate(191.453125 0)"/>
     <use xlink:href="#DejaVuSans-56" transform="translate(252.734375 0)"/>
     <use xlink:href="#DejaVuSans-48" transform="translate(304.828125 0)"/>
     <use xlink:href="#DejaVuSans-47" transform="translate(366.359375 0)"/>
     <use xlink:href="#DejaVuSans-3" transform="translate(429.84375 0)"/>
     <use xlink:href="#DejaVuSans-5a" transform="translate(461.625 0)"/>
     <use xlink:href="#DejaVuSans-4c" transform="translate(543.40625 0)"/>
     <use xlink:href="#DejaVuSans-51" transform="translate(571.1875 0)"/>
     <use xlink:href="#DejaVuSans-47" transform="translate(634.5625 0)"/>
     <use xlink:href="#DejaVuSans-52" transform="translate(698.046875 0)"/>
     <use xlink:href="#DejaVuSans-5a" transform="translate(759.234375 0)"/>
     <use xlink:href="#DejaVuSans-3" transform="translate(841.015625 0)"/>
     <use xlink:href="#DejaVuSans-56" transform="translate(872.796875 0)"/>
     <use xlink:href="#DejaVuSans-44" transform="translate(924.890625 0)"/>
     <use xlink:href="#DejaVuSans-50" transform="translate(986.171875 0)"/>
     <use xlink:href="#DejaVuSans-53" transform="translate(1083.578125 0)"/>
     <use xlink:href="#DejaVuSans-4f" transform="translate(1147.0625 0)"/>
     <use xlink:href="#DejaVuSans-48" transform="translate(1174.84375 0)"/>
     <use xlink:href="#DejaVuSans-56" transform="translate(1236.375 0)"/>
     <use xlink:href="#DejaVuSans-3" transform="translate(1288.46875 0)"/>
     <use xlink:href="#DejaVuSans-44" transform="translate(1320.25 0)"/>
     <use xlink:href="#DejaVuSans-3" transform="translate(1381.53125 0)"/>
     <use xlink:href="#DejaVuSans-47" transform="translate(1413.3125 0)"/>
     <use xlink:href="#DejaVuSans-4c" transform="translate(1476.796875 0)"/>
     <use xlink:href="#DejaVuSans-56" transform="translate(1504.578125 0)"/>
     <use xlink:href="#DejaVuSans-57" transform="translate(1556.671875 0)"/>
     <use xlink:href="#DejaVuSans-55" transform="translate(1595.875 0)"/>
     <use xlink:href="#DejaVuSans-4c" transform="translate(1636.984375 0)"/>
     <use xlink:href="#DejaVuSans-45" transform="translate(1664.765625 0)"/>
     <use xlink:href="#DejaVuSans-58" transform="translate(1728.25 0)"/>
     <use xlink:href="#DejaVuSans-57" transform="translate(1791.625 0)"/>
     <use xlink:href="#DejaVuSans-4c" transform="translate(1830.828125 0)"/>
     <use xlink:href="#DejaVuSans-52" transform="translate(1858.609375 0)"/>
     <use xlink:href="#DejaVuSans-51" transform="translate(1919.796875 0)"/>
    </g>
   </g>
   <g id="legend_3">
    <g id="LineCollection_3">
     <path d="M 790.21101 205.276479
L 790.21101 197.276479
" style="fill: none; stroke: #2f6f9f; stroke-width: 1.1"/>
    </g>
    <g id="line2d_76">
     <g>
      <use xlink:href="#m14710c2525" x="790.21101" y="205.276479" style="fill: #2f6f9f; stroke: #2f6f9f"/>
     </g>
    </g>
    <g id="line2d_77">
     <g>
      <use xlink:href="#m14710c2525" x="790.21101" y="197.276479" style="fill: #2f6f9f; stroke: #2f6f9f"/>
     </g>
    </g>
    <g id="line2d_78">
     <path d="M 782.21101 201.276479
L 798.21101 201.276479
" style="fill: none; stroke: #2f6f9f; stroke-width: 1.1; stroke-linecap: square"/>
    </g>
    <g id="line2d_79">
     <g>
      <use xlink:href="#mef1f181afa" x="790.21101" y="201.276479" style="fill: #2f6f9f; stroke: #2f6f9f"/>
     </g>
    </g>
    <g id="text_47">
     <!-- dense windows -->
     <g transform="translate(804.61101 204.076479) scale(0.08 -0.08)">
      <use xlink:href="#DejaVuSans-47"/>
      <use xlink:href="#DejaVuSans-48" transform="translate(63.484375 0)"/>
      <use xlink:href="#DejaVuSans-51" transform="translate(125.015625 0)"/>
      <use xlink:href="#DejaVuSans-56" transform="translate(188.390625 0)"/>
      <use xlink:href="#DejaVuSans-48" transform="translate(240.484375 0)"/>
      <use xlink:href="#DejaVuSans-3" transform="translate(302.015625 0)"/>
      <use xlink:href="#DejaVuSans-5a" transform="translate(333.796875 0)"/>
      <use xlink:href="#DejaVuSans-4c" transform="translate(415.578125 0)"/>
      <use xlink:href="#DejaVuSans-51" transform="translate(443.359375 0)"/>
      <use xlink:href="#DejaVuSans-47" transform="translate(506.734375 0)"/>
      <use xlink:href="#DejaVuSans-52" transform="translate(570.21875 0)"/>
      <use xlink:href="#DejaVuSans-5a" transform="translate(631.40625 0)"/>
      <use xlink:href="#DejaVuSans-56" transform="translate(713.1875 0)"/>
     </g>
    </g>
    <g id="LineCollection_4">
     <path d="M 790.21101 217.277104
L 790.21101 209.277104
" style="fill: none; stroke: #d88c3d; stroke-width: 1.1"/>
    </g>
    <g id="line2d_80">
     <g>
      <use xlink:href="#mdb7d62cfc6" x="790.21101" y="217.277104" style="fill: #d88c3d; stroke: #d88c3d"/>
     </g>
    </g>
    <g id="line2d_81">
     <g>
      <use xlink:href="#mdb7d62cfc6" x="790.21101" y="209.277104" style="fill: #d88c3d; stroke: #d88c3d"/>
     </g>
    </g>
    <g id="line2d_82">
     <path d="M 782.21101 213.277104
L 798.21101 213.277104
" style="fill: none; stroke: #d88c3d; stroke-width: 1.1; stroke-linecap: square"/>
    </g>
    <g id="line2d_83">
     <g>
      <use xlink:href="#m2ef71ab8e7" x="790.21101" y="213.277104" style="fill: #d88c3d; stroke: #d88c3d"/>
     </g>
    </g>
    <g id="text_48">
     <!-- sparse windows -->
     <g transform="translate(804.61101 216.077104) scale(0.08 -0.08)">
      <use xlink:href="#DejaVuSans-56"/>
      <use xlink:href="#DejaVuSans-53" transform="translate(52.09375 0)"/>
      <use xlink:href="#DejaVuSans-44" transform="translate(115.578125 0)"/>
      <use xlink:href="#DejaVuSans-55" transform="translate(176.859375 0)"/>
      <use xlink:href="#DejaVuSans-56" transform="translate(217.96875 0)"/>
      <use xlink:href="#DejaVuSans-48" transform="translate(270.0625 0)"/>
      <use xlink:href="#DejaVuSans-3" transform="translate(331.59375 0)"/>
      <use xlink:href="#DejaVuSans-5a" transform="translate(363.375 0)"/>
      <use xlink:href="#DejaVuSans-4c" transform="translate(445.15625 0)"/>
      <use xlink:href="#DejaVuSans-51" transform="translate(472.9375 0)"/>
      <use xlink:href="#DejaVuSans-47" transform="translate(536.3125 0)"/>
      <use xlink:href="#DejaVuSans-52" transform="translate(599.796875 0)"/>
      <use xlink:href="#DejaVuSans-5a" transform="translate(660.984375 0)"/>
      <use xlink:href="#DejaVuSans-56" transform="translate(742.765625 0)"/>
     </g>
    </g>
   </g>
  </g>
 </g>
 <defs>
  <clipPath id="p589c8ca849">
   <rect x="36.726021" y="18.118365" width="251.341968" height="207.080614"/>
  </clipPath>
  <clipPath id="p65740d6852">
   <rect x="330.972375" y="18.118365" width="251.341968" height="207.080614"/>
  </clipPath>
  <clipPath id="p2ba742e721">
   <rect x="624.057792" y="18.118365" width="251.341968" height="207.080614"/>
  </clipPath>
 </defs>
</svg>
