<?xml version="1.0" encoding="utf-8" standalone="no"?>
<!DOCTYPE svg PUBLIC "-//W3C//DTD SVG 1.1//EN"
  "http://www.w3.org/Graphics/SVG/1.1/DTD/svg11.dtd">
<svg xmlns:xlink="http://www.w3.org/1999/xlink" width="461.21625pt" height="283.134375pt" viewBox="0 0 461.21625 283.134375" xmlns="http://www.w3.org/2000/svg" version="1.1">
 <metadata>
  <rdf:RDF xmlns:dc="http://purl.org/dc/elements/1.1/" xmlns:cc="http://creativecommons.org/ns#" xmlns:rdf="http://www.w3.org/1999/02/22-rdf-syntax-ns#">
   <cc:Work>
    <dc:type rdf:resource="http://purl.org/dc/dcmitype/StillImage"/>
    <dc:date>2026-06-23T12:32:20.988610</dc:date>
    <dc:format>image/svg+xml</dc:format>
    <dc:creator>
     <cc:Agent>
      <dc:title>Matplotlib v3.10.8, https://matplotlib.org/</dc:title>
     </cc:Agent>
    </dc:creator>
   </cc:Work>
  </rdf:RDF>
 </metadata>
 <defs>
  <style type="text/css">*{stroke-linejoin: round; stroke-linecap: butt}</style>
 </defs>
 <g id="figure_1">
  <g id="patch_1">
   <path d="M 0 283.134375 
L 461.21625 283.134375 
L 461.21625 0 
L 0 0 
L 0 283.134375 
z
" style="fill: none"/>
  </g>
  <g id="axes_1">
   <g id="patch_2">
    <path d="M 52.25625 246.078125 
L 454.01625 246.078125 
L 454.01625 24.318125 
L 52.25625 24.318125 
L 52.25625 246.078125 
z
" style="fill: none"/>
   </g>
   <g id="matplotlib.axis_1">
    <g id="xtick_1">
     <g id="line2d_1">
      <path d="M 52.25625 246.078125 
L 52.25625 24.318125 
" clip-path="url(#pe7fa4507f9)" style="fill: none; stroke: #e4ddec; stroke-opacity: 0.55; stroke-width: 0.8; stroke-linecap: square"/>
     </g>
     <g id="line2d_2">
      <defs>
       <path id="m31cd018fec" d="M 0 0 
L 0 3 
" style="stroke: #665a75; stroke-width: 0.8"/>
      </defs>
      <g>
       <use xlink:href="#m31cd018fec" x="52.25625" y="246.078125" style="fill: #665a75; stroke: #665a75; stroke-width: 0.8"/>
      </g>
     </g>
     <g id="text_1">
      <!-- 1980 -->
      <g style="fill: #665a75" transform="translate(39.53125 260.176563) scale(0.1 -0.1)">
       <defs>
        <path id="DejaVuSans-31" d="M 794 531 
L 1825 531 
L 1825 4091 
L 703 3866 
L 703 4441 
L 1819 4666 
L 2450 4666 
L 2450 531 
L 3481 531 
L 3481 0 
L 794 0 
L 794 531 
z
" transform="scale(0.015625)"/>
        <path id="DejaVuSans-39" d="M 703 97 
L 703 672 
Q 941 559 1184 500 
Q 1428 441 1663 441 
Q 2288 441 2617 861 
Q 2947 1281 2994 2138 
Q 2813 1869 2534 1725 
Q 2256 1581 1919 1581 
Q 1219 1581 811 2004 
Q 403 2428 403 3163 
Q 403 3881 828 4315 
Q 1253 4750 1959 4750 
Q 2769 4750 3195 4129 
Q 3622 3509 3622 2328 
Q 3622 1225 3098 567 
Q 2575 -91 1691 -91 
Q 1453 -91 1209 -44 
Q 966 3 703 97 
z
M 1959 2075 
Q 2384 2075 2632 2365 
Q 2881 2656 2881 3163 
Q 2881 3666 2632 3958 
Q 2384 4250 1959 4250 
Q 1534 4250 1286 3958 
Q 1038 3666 1038 3163 
Q 1038 2656 1286 2365 
Q 1534 2075 1959 2075 
z
" transform="scale(0.015625)"/>
        <path id="DejaVuSans-38" d="M 2034 2216 
Q 1584 2216 1326 1975 
Q 1069 1734 1069 1313 
Q 1069 891 1326 650 
Q 1584 409 2034 409 
Q 2484 409 2743 651 
Q 3003 894 3003 1313 
Q 3003 1734 2745 1975 
Q 2488 2216 2034 2216 
z
M 1403 2484 
Q 997 2584 770 2862 
Q 544 3141 544 3541 
Q 544 4100 942 4425 
Q 1341 4750 2034 4750 
Q 2731 4750 3128 4425 
Q 3525 4100 3525 3541 
Q 3525 3141 3298 2862 
Q 3072 2584 2669 2484 
Q 3125 2378 3379 2068 
Q 3634 1759 3634 1313 
Q 3634 634 3220 271 
Q 2806 -91 2034 -91 
Q 1263 -91 848 271 
Q 434 634 434 1313 
Q 434 1759 690 2068 
Q 947 2378 1403 2484 
z
M 1172 3481 
Q 1172 3119 1398 2916 
Q 1625 2713 2034 2713 
Q 2441 2713 2670 2916 
Q 2900 3119 2900 3481 
Q 2900 3844 2670 4047 
Q 2441 4250 2034 4250 
Q 1625 4250 1398 4047 
Q 1172 3844 1172 3481 
z
" transform="scale(0.015625)"/>
        <path id="DejaVuSans-30" d="M 2034 4250 
Q 1547 4250 1301 3770 
Q 1056 3291 1056 2328 
Q 1056 1369 1301 889 
Q 1547 409 2034 409 
Q 2525 409 2770 889 
Q 3016 1369 3016 2328 
Q 3016 3291 2770 3770 
Q 2525 4250 2034 4250 
z
M 2034 4750 
Q 2819 4750 3233 4129 
Q 3647 3509 3647 2328 
Q 3647 1150 3233 529 
Q 2819 -91 2034 -91 
Q 1250 -91 836 529 
Q 422 1150 422 2328 
Q 422 3509 836 4129 
Q 1250 4750 2034 4750 
z
" transform="scale(0.015625)"/>
       </defs>
       <use xlink:href="#DejaVuSans-31"/>
       <use xlink:href="#DejaVuSans-39" transform="translate(63.623047 0)"/>
       <use xlink:href="#DejaVuSans-38" transform="translate(127.246094 0)"/>
       <use xlink:href="#DejaVuSans-30" transform="translate(190.869141 0)"/>
      </g>
     </g>
    </g>
    <g id="xtick_2">
     <g id="line2d_3">
      <path d="M 139.59538 246.078125 
L 139.59538 24.318125 
" clip-path="url(#pe7fa4507f9)" style="fill: none; stroke: #e4ddec; stroke-opacity: 0.55; stroke-width: 0.8; stroke-linecap: square"/>
     </g>
     <g id="line2d_4">
      <g>
       <use xlink:href="#m31cd018fec" x="139.59538" y="246.078125" style="fill: #665a75; stroke: #665a75; stroke-width: 0.8"/>
      </g>
     </g>
     <g id="text_2">
      <!-- 1990 -->
      <g style="fill: #665a75" transform="translate(126.87038 260.176563) scale(0.1 -0.1)">
       <use xlink:href="#DejaVuSans-31"/>
       <use xlink:href="#DejaVuSans-39" transform="translate(63.623047 0)"/>
       <use xlink:href="#DejaVuSans-39" transform="translate(127.246094 0)"/>
       <use xlink:href="#DejaVuSans-30" transform="translate(190.869141 0)"/>
      </g>
     </g>
    </g>
    <g id="xtick_3">
     <g id="line2d_5">
      <path d="M 226.934511 246.078125 
L 226.934511 24.318125 
" clip-path="url(#pe7fa4507f9)" style="fill: none; stroke: #e4ddec; stroke-opacity: 0.55; stroke-width: 0.8; stroke-linecap: square"/>
     </g>
     <g id="line2d_6">
      <g>
       <use xlink:href="#m31cd018fec" x="226.934511" y="246.078125" style="fill: #665a75; stroke: #665a75; stroke-width: 0.8"/>
      </g>
     </g>
     <g id="text_3">
      <!-- 2000 -->
      <g style="fill: #665a75" transform="translate(214.209511 260.176563) scale(0.1 -0.1)">
       <defs>
        <path id="DejaVuSans-32" d="M 1228 531 
L 3431 531 
L 3431 0 
L 469 0 
L 469 531 
Q 828 903 1448 1529 
Q 2069 2156 2228 2338 
Q 2531 2678 2651 2914 
Q 2772 3150 2772 3378 
Q 2772 3750 2511 3984 
Q 2250 4219 1831 4219 
Q 1534 4219 1204 4116 
Q 875 4013 500 3803 
L 500 4441 
Q 881 4594 1212 4672 
Q 1544 4750 1819 4750 
Q 2544 4750 2975 4387 
Q 3406 4025 3406 3419 
Q 3406 3131 3298 2873 
Q 3191 2616 2906 2266 
Q 2828 2175 2409 1742 
Q 1991 1309 1228 531 
z
" transform="scale(0.015625)"/>
       </defs>
       <use xlink:href="#DejaVuSans-32"/>
       <use xlink:href="#DejaVuSans-30" transform="translate(63.623047 0)"/>
       <use xlink:href="#DejaVuSans-30" transform="translate(127.246094 0)"/>
       <use xlink:href="#DejaVuSans-30" transform="translate(190.869141 0)"/>
      </g>
     </g>
    </g>
    <g id="xtick_4">
     <g id="line2d_7">
      <path d="M 314.273641 246.078125 
L 314.273641 24.318125 
" clip-path="url(#pe7fa4507f9)" style="fill: none; stroke: #e4ddec; stroke-opacity: 0.55; stroke-width: 0.8; stroke-linecap: square"/>
     </g>
     <g id="line2d_8">
      <g>
       <use xlink:href="#m31cd018fec" x="314.273641" y="246.078125" style="fill: #665a75; stroke: #665a75; stroke-width: 0.8"/>
      </g>
     </g>
     <g id="text_4">
      <!-- 2010 -->
      <g style="fill: #665a75" transform="translate(301.548641 260.176563) scale(0.1 -0.1)">
       <use xlink:href="#DejaVuSans-32"/>
       <use xlink:href="#DejaVuSans-30" transform="translate(63.623047 0)"/>
       <use xlink:href="#DejaVuSans-31" transform="translate(127.246094 0)"/>
       <use xlink:href="#DejaVuSans-30" transform="translate(190.869141 0)"/>
      </g>
     </g>
    </g>
    <g id="xtick_5">
     <g id="line2d_9">
      <path d="M 401.612772 246.078125 
L 401.612772 24.318125 
" clip-path="url(#pe7fa4507f9)" style="fill: none; stroke: #e4ddec; stroke-opacity: 0.55; stroke-width: 0.8; stroke-linecap: square"/>
     </g>
     <g id="line2d_10">
      <g>
       <use xlink:href="#m31cd018fec" x="401.612772" y="246.078125" style="fill: #665a75; stroke: #665a75; stroke-width: 0.8"/>
      </g>
     </g>
     <g id="text_5">
      <!-- 2020 -->
      <g style="fill: #665a75" transform="translate(388.887772 260.176563) scale(0.1 -0.1)">
       <use xlink:href="#DejaVuSans-32"/>
       <use xlink:href="#DejaVuSans-30" transform="translate(63.623047 0)"/>
       <use xlink:href="#DejaVuSans-32" transform="translate(127.246094 0)"/>
       <use xlink:href="#DejaVuSans-30" transform="translate(190.869141 0)"/>
      </g>
     </g>
    </g>
    <g id="text_6">
     <!-- Year -->
     <g transform="translate(242.54875 273.854688) scale(0.1 -0.1)">
      <defs>
       <path id="DejaVuSans-59" d="M -13 4666 
L 666 4666 
L 1959 2747 
L 3244 4666 
L 3922 4666 
L 2272 2222 
L 2272 0 
L 1638 0 
L 1638 2222 
L -13 4666 
z
" transform="scale(0.015625)"/>
       <path id="DejaVuSans-65" d="M 3597 1894 
L 3597 1613 
L 953 1613 
Q 991 1019 1311 708 
Q 1631 397 2203 397 
Q 2534 397 2845 478 
Q 3156 559 3463 722 
L 3463 178 
Q 3153 47 2828 -22 
Q 2503 -91 2169 -91 
Q 1331 -91 842 396 
Q 353 884 353 1716 
Q 353 2575 817 3079 
Q 1281 3584 2069 3584 
Q 2775 3584 3186 3129 
Q 3597 2675 3597 1894 
z
M 3022 2063 
Q 3016 2534 2758 2815 
Q 2500 3097 2075 3097 
Q 1594 3097 1305 2825 
Q 1016 2553 972 2059 
L 3022 2063 
z
" transform="scale(0.015625)"/>
       <path id="DejaVuSans-61" d="M 2194 1759 
Q 1497 1759 1228 1600 
Q 959 1441 959 1056 
Q 959 750 1161 570 
Q 1363 391 1709 391 
Q 2188 391 2477 730 
Q 2766 1069 2766 1631 
L 2766 1759 
L 2194 1759 
z
M 3341 1997 
L 3341 0 
L 2766 0 
L 2766 531 
Q 2569 213 2275 61 
Q 1981 -91 1556 -91 
Q 1019 -91 701 211 
Q 384 513 384 1019 
Q 384 1609 779 1909 
Q 1175 2209 1959 2209 
L 2766 2209 
L 2766 2266 
Q 2766 2663 2505 2880 
Q 2244 3097 1772 3097 
Q 1472 3097 1187 3025 
Q 903 2953 641 2809 
L 641 3341 
Q 956 3463 1253 3523 
Q 1550 3584 1831 3584 
Q 2591 3584 2966 3190 
Q 3341 2797 3341 1997 
z
" transform="scale(0.015625)"/>
       <path id="DejaVuSans-72" d="M 2631 2963 
Q 2534 3019 2420 3045 
Q 2306 3072 2169 3072 
Q 1681 3072 1420 2755 
Q 1159 2438 1159 1844 
L 1159 0 
L 581 0 
L 581 3500 
L 1159 3500 
L 1159 2956 
Q 1341 3275 1631 3429 
Q 1922 3584 2338 3584 
Q 2397 3584 2469 3576 
Q 2541 3569 2628 3553 
L 2631 2963 
z
" transform="scale(0.015625)"/>
      </defs>
      <use xlink:href="#DejaVuSans-59"/>
      <use xlink:href="#DejaVuSans-65" transform="translate(47.833984 0)"/>
      <use xlink:href="#DejaVuSans-61" transform="translate(109.357422 0)"/>
      <use xlink:href="#DejaVuSans-72" transform="translate(170.636719 0)"/>
     </g>
    </g>
   </g>
   <g id="matplotlib.axis_2">
    <g id="ytick_1">
     <g id="line2d_11">
      <path d="M 52.25625 246.078125 
L 454.01625 246.078125 
" clip-path="url(#pe7fa4507f9)" style="fill: none; stroke: #e4ddec; stroke-opacity: 0.55; stroke-width: 0.8; stroke-linecap: square"/>
     </g>
     <g id="line2d_12">
      <defs>
       <path id="ma15fd0c1a3" d="M 0 0 
L -3 0 
" style="stroke: #665a75; stroke-width: 0.8"/>
      </defs>
      <g>
       <use xlink:href="#ma15fd0c1a3" x="52.25625" y="246.078125" style="fill: #665a75; stroke: #665a75; stroke-width: 0.8"/>
      </g>
     </g>
     <g id="text_7">
      <!-- 0 -->
      <g style="fill: #665a75" transform="translate(39.39375 249.877344) scale(0.1 -0.1)">
       <use xlink:href="#DejaVuSans-30"/>
      </g>
     </g>
    </g>
    <g id="ytick_2">
     <g id="line2d_13">
      <path d="M 52.25625 216.510125 
L 454.01625 216.510125 
" clip-path="url(#pe7fa4507f9)" style="fill: none; stroke: #e4ddec; stroke-opacity: 0.55; stroke-width: 0.8; stroke-linecap: square"/>
     </g>
     <g id="line2d_14">
      <g>
       <use xlink:href="#ma15fd0c1a3" x="52.25625" y="216.510125" style="fill: #665a75; stroke: #665a75; stroke-width: 0.8"/>
      </g>
     </g>
     <g id="text_8">
      <!-- 20k -->
      <g style="fill: #665a75" transform="translate(27.240625 220.309344) scale(0.1 -0.1)">
       <defs>
        <path id="DejaVuSans-6b" d="M 581 4863 
L 1159 4863 
L 1159 1991 
L 2875 3500 
L 3609 3500 
L 1753 1863 
L 3688 0 
L 2938 0 
L 1159 1709 
L 1159 0 
L 581 0 
L 581 4863 
z
" transform="scale(0.015625)"/>
       </defs>
       <use xlink:href="#DejaVuSans-32"/>
       <use xlink:href="#DejaVuSans-30" transform="translate(63.623047 0)"/>
       <use xlink:href="#DejaVuSans-6b" transform="translate(127.246094 0)"/>
      </g>
     </g>
    </g>
    <g id="ytick_3">
     <g id="line2d_15">
      <path d="M 52.25625 186.942125 
L 454.01625 186.942125 
" clip-path="url(#pe7fa4507f9)" style="fill: none; stroke: #e4ddec; stroke-opacity: 0.55; stroke-width: 0.8; stroke-linecap: square"/>
     </g>
     <g id="line2d_16">
      <g>
       <use xlink:href="#ma15fd0c1a3" x="52.25625" y="186.942125" style="fill: #665a75; stroke: #665a75; stroke-width: 0.8"/>
      </g>
     </g>
     <g id="text_9">
      <!-- 40k -->
      <g style="fill: #665a75" transform="translate(27.240625 190.741344) scale(0.1 -0.1)">
       <defs>
        <path id="DejaVuSans-34" d="M 2419 4116 
L 825 1625 
L 2419 1625 
L 2419 4116 
z
M 2253 4666 
L 3047 4666 
L 3047 1625 
L 3713 1625 
L 3713 1100 
L 3047 1100 
L 3047 0 
L 2419 0 
L 2419 1100 
L 313 1100 
L 313 1709 
L 2253 4666 
z
" transform="scale(0.015625)"/>
       </defs>
       <use xlink:href="#DejaVuSans-34"/>
       <use xlink:href="#DejaVuSans-30" transform="translate(63.623047 0)"/>
       <use xlink:href="#DejaVuSans-6b" transform="translate(127.246094 0)"/>
      </g>
     </g>
    </g>
    <g id="ytick_4">
     <g id="line2d_17">
      <path d="M 52.25625 157.374125 
L 454.01625 157.374125 
" clip-path="url(#pe7fa4507f9)" style="fill: none; stroke: #e4ddec; stroke-opacity: 0.55; stroke-width: 0.8; stroke-linecap: square"/>
     </g>
     <g id="line2d_18">
      <g>
       <use xlink:href="#ma15fd0c1a3" x="52.25625" y="157.374125" style="fill: #665a75; stroke: #665a75; stroke-width: 0.8"/>
      </g>
     </g>
     <g id="text_10">
      <!-- 60k -->
      <g style="fill: #665a75" transform="translate(27.240625 161.173344) scale(0.1 -0.1)">
       <defs>
        <path id="DejaVuSans-36" d="M 2113 2584 
Q 1688 2584 1439 2293 
Q 1191 2003 1191 1497 
Q 1191 994 1439 701 
Q 1688 409 2113 409 
Q 2538 409 2786 701 
Q 3034 994 3034 1497 
Q 3034 2003 2786 2293 
Q 2538 2584 2113 2584 
z
M 3366 4563 
L 3366 3988 
Q 3128 4100 2886 4159 
Q 2644 4219 2406 4219 
Q 1781 4219 1451 3797 
Q 1122 3375 1075 2522 
Q 1259 2794 1537 2939 
Q 1816 3084 2150 3084 
Q 2853 3084 3261 2657 
Q 3669 2231 3669 1497 
Q 3669 778 3244 343 
Q 2819 -91 2113 -91 
Q 1303 -91 875 529 
Q 447 1150 447 2328 
Q 447 3434 972 4092 
Q 1497 4750 2381 4750 
Q 2619 4750 2861 4703 
Q 3103 4656 3366 4563 
z
" transform="scale(0.015625)"/>
       </defs>
       <use xlink:href="#DejaVuSans-36"/>
       <use xlink:href="#DejaVuSans-30" transform="translate(63.623047 0)"/>
       <use xlink:href="#DejaVuSans-6b" transform="translate(127.246094 0)"/>
      </g>
     </g>
    </g>
    <g id="ytick_5">
     <g id="line2d_19">
      <path d="M 52.25625 127.806125 
L 454.01625 127.806125 
" clip-path="url(#pe7fa4507f9)" style="fill: none; stroke: #e4ddec; stroke-opacity: 0.55; stroke-width: 0.8; stroke-linecap: square"/>
     </g>
     <g id="line2d_20">
      <g>
       <use xlink:href="#ma15fd0c1a3" x="52.25625" y="127.806125" style="fill: #665a75; stroke: #665a75; stroke-width: 0.8"/>
      </g>
     </g>
     <g id="text_11">
      <!-- 80k -->
      <g style="fill: #665a75" transform="translate(27.240625 131.605344) scale(0.1 -0.1)">
       <use xlink:href="#DejaVuSans-38"/>
       <use xlink:href="#DejaVuSans-30" transform="translate(63.623047 0)"/>
       <use xlink:href="#DejaVuSans-6b" transform="translate(127.246094 0)"/>
      </g>
     </g>
    </g>
    <g id="ytick_6">
     <g id="line2d_21">
      <path d="M 52.25625 98.238125 
L 454.01625 98.238125 
" clip-path="url(#pe7fa4507f9)" style="fill: none; stroke: #e4ddec; stroke-opacity: 0.55; stroke-width: 0.8; stroke-linecap: square"/>
     </g>
     <g id="line2d_22">
      <g>
       <use xlink:href="#ma15fd0c1a3" x="52.25625" y="98.238125" style="fill: #665a75; stroke: #665a75; stroke-width: 0.8"/>
      </g>
     </g>
     <g id="text_12">
      <!-- 100k -->
      <g style="fill: #665a75" transform="translate(20.878125 102.037344) scale(0.1 -0.1)">
       <use xlink:href="#DejaVuSans-31"/>
       <use xlink:href="#DejaVuSans-30" transform="translate(63.623047 0)"/>
       <use xlink:href="#DejaVuSans-30" transform="translate(127.246094 0)"/>
       <use xlink:href="#DejaVuSans-6b" transform="translate(190.869141 0)"/>
      </g>
     </g>
    </g>
    <g id="ytick_7">
     <g id="line2d_23">
      <path d="M 52.25625 68.670125 
L 454.01625 68.670125 
" clip-path="url(#pe7fa4507f9)" style="fill: none; stroke: #e4ddec; stroke-opacity: 0.55; stroke-width: 0.8; stroke-linecap: square"/>
     </g>
     <g id="line2d_24">
      <g>
       <use xlink:href="#ma15fd0c1a3" x="52.25625" y="68.670125" style="fill: #665a75; stroke: #665a75; stroke-width: 0.8"/>
      </g>
     </g>
     <g id="text_13">
      <!-- 120k -->
      <g style="fill: #665a75" transform="translate(20.878125 72.469344) scale(0.1 -0.1)">
       <use xlink:href="#DejaVuSans-31"/>
       <use xlink:href="#DejaVuSans-32" transform="translate(63.623047 0)"/>
       <use xlink:href="#DejaVuSans-30" transform="translate(127.246094 0)"/>
       <use xlink:href="#DejaVuSans-6b" transform="translate(190.869141 0)"/>
      </g>
     </g>
    </g>
    <g id="ytick_8">
     <g id="line2d_25">
      <path d="M 52.25625 39.102125 
L 454.01625 39.102125 
" clip-path="url(#pe7fa4507f9)" style="fill: none; stroke: #e4ddec; stroke-opacity: 0.55; stroke-width: 0.8; stroke-linecap: square"/>
     </g>
     <g id="line2d_26">
      <g>
       <use xlink:href="#ma15fd0c1a3" x="52.25625" y="39.102125" style="fill: #665a75; stroke: #665a75; stroke-width: 0.8"/>
      </g>
     </g>
     <g id="text_14">
      <!-- 140k -->
      <g style="fill: #665a75" transform="translate(20.878125 42.901344) scale(0.1 -0.1)">
       <use xlink:href="#DejaVuSans-31"/>
       <use xlink:href="#DejaVuSans-34" transform="translate(63.623047 0)"/>
       <use xlink:href="#DejaVuSans-30" transform="translate(127.246094 0)"/>
       <use xlink:href="#DejaVuSans-6b" transform="translate(190.869141 0)"/>
      </g>
     </g>
    </g>
    <g id="text_15">
     <!-- MOF structures in the CSD -->
     <g transform="translate(14.798438 201.250469) rotate(-90) scale(0.1 -0.1)">
      <defs>
       <path id="DejaVuSans-4d" d="M 628 4666 
L 1569 4666 
L 2759 1491 
L 3956 4666 
L 4897 4666 
L 4897 0 
L 4281 0 
L 4281 4097 
L 3078 897 
L 2444 897 
L 1241 4097 
L 1241 0 
L 628 0 
L 628 4666 
z
" transform="scale(0.015625)"/>
       <path id="DejaVuSans-4f" d="M 2522 4238 
Q 1834 4238 1429 3725 
Q 1025 3213 1025 2328 
Q 1025 1447 1429 934 
Q 1834 422 2522 422 
Q 3209 422 3611 934 
Q 4013 1447 4013 2328 
Q 4013 3213 3611 3725 
Q 3209 4238 2522 4238 
z
M 2522 4750 
Q 3503 4750 4090 4092 
Q 4678 3434 4678 2328 
Q 4678 1225 4090 567 
Q 3503 -91 2522 -91 
Q 1538 -91 948 565 
Q 359 1222 359 2328 
Q 359 3434 948 4092 
Q 1538 4750 2522 4750 
z
" transform="scale(0.015625)"/>
       <path id="DejaVuSans-46" d="M 628 4666 
L 3309 4666 
L 3309 4134 
L 1259 4134 
L 1259 2759 
L 3109 2759 
L 3109 2228 
L 1259 2228 
L 1259 0 
L 628 0 
L 628 4666 
z
" transform="scale(0.015625)"/>
       <path id="DejaVuSans-20" transform="scale(0.015625)"/>
       <path id="DejaVuSans-73" d="M 2834 3397 
L 2834 2853 
Q 2591 2978 2328 3040 
Q 2066 3103 1784 3103 
Q 1356 3103 1142 2972 
Q 928 2841 928 2578 
Q 928 2378 1081 2264 
Q 1234 2150 1697 2047 
L 1894 2003 
Q 2506 1872 2764 1633 
Q 3022 1394 3022 966 
Q 3022 478 2636 193 
Q 2250 -91 1575 -91 
Q 1294 -91 989 -36 
Q 684 19 347 128 
L 347 722 
Q 666 556 975 473 
Q 1284 391 1588 391 
Q 1994 391 2212 530 
Q 2431 669 2431 922 
Q 2431 1156 2273 1281 
Q 2116 1406 1581 1522 
L 1381 1569 
Q 847 1681 609 1914 
Q 372 2147 372 2553 
Q 372 3047 722 3315 
Q 1072 3584 1716 3584 
Q 2034 3584 2315 3537 
Q 2597 3491 2834 3397 
z
" transform="scale(0.015625)"/>
       <path id="DejaVuSans-74" d="M 1172 4494 
L 1172 3500 
L 2356 3500 
L 2356 3053 
L 1172 3053 
L 1172 1153 
Q 1172 725 1289 603 
Q 1406 481 1766 481 
L 2356 481 
L 2356 0 
L 1766 0 
Q 1100 0 847 248 
Q 594 497 594 1153 
L 594 3053 
L 172 3053 
L 172 3500 
L 594 3500 
L 594 4494 
L 1172 4494 
z
" transform="scale(0.015625)"/>
       <path id="DejaVuSans-75" d="M 544 1381 
L 544 3500 
L 1119 3500 
L 1119 1403 
Q 1119 906 1312 657 
Q 1506 409 1894 409 
Q 2359 409 2629 706 
Q 2900 1003 2900 1516 
L 2900 3500 
L 3475 3500 
L 3475 0 
L 2900 0 
L 2900 538 
Q 2691 219 2414 64 
Q 2138 -91 1772 -91 
Q 1169 -91 856 284 
Q 544 659 544 1381 
z
M 1991 3584 
L 1991 3584 
z
" transform="scale(0.015625)"/>
       <path id="DejaVuSans-63" d="M 3122 3366 
L 3122 2828 
Q 2878 2963 2633 3030 
Q 2388 3097 2138 3097 
Q 1578 3097 1268 2742 
Q 959 2388 959 1747 
Q 959 1106 1268 751 
Q 1578 397 2138 397 
Q 2388 397 2633 464 
Q 2878 531 3122 666 
L 3122 134 
Q 2881 22 2623 -34 
Q 2366 -91 2075 -91 
Q 1284 -91 818 406 
Q 353 903 353 1747 
Q 353 2603 823 3093 
Q 1294 3584 2113 3584 
Q 2378 3584 2631 3529 
Q 2884 3475 3122 3366 
z
" transform="scale(0.015625)"/>
       <path id="DejaVuSans-69" d="M 603 3500 
L 1178 3500 
L 1178 0 
L 603 0 
L 603 3500 
z
M 603 4863 
L 1178 4863 
L 1178 4134 
L 603 4134 
L 603 4863 
z
" transform="scale(0.015625)"/>
       <path id="DejaVuSans-6e" d="M 3513 2113 
L 3513 0 
L 2938 0 
L 2938 2094 
Q 2938 2591 2744 2837 
Q 2550 3084 2163 3084 
Q 1697 3084 1428 2787 
Q 1159 2491 1159 1978 
L 1159 0 
L 581 0 
L 581 3500 
L 1159 3500 
L 1159 2956 
Q 1366 3272 1645 3428 
Q 1925 3584 2291 3584 
Q 2894 3584 3203 3211 
Q 3513 2838 3513 2113 
z
" transform="scale(0.015625)"/>
       <path id="DejaVuSans-68" d="M 3513 2113 
L 3513 0 
L 2938 0 
L 2938 2094 
Q 2938 2591 2744 2837 
Q 2550 3084 2163 3084 
Q 1697 3084 1428 2787 
Q 1159 2491 1159 1978 
L 1159 0 
L 581 0 
L 581 4863 
L 1159 4863 
L 1159 2956 
Q 1366 3272 1645 3428 
Q 1925 3584 2291 3584 
Q 2894 3584 3203 3211 
Q 3513 2838 3513 2113 
z
" transform="scale(0.015625)"/>
       <path id="DejaVuSans-43" d="M 4122 4306 
L 4122 3641 
Q 3803 3938 3442 4084 
Q 3081 4231 2675 4231 
Q 1875 4231 1450 3742 
Q 1025 3253 1025 2328 
Q 1025 1406 1450 917 
Q 1875 428 2675 428 
Q 3081 428 3442 575 
Q 3803 722 4122 1019 
L 4122 359 
Q 3791 134 3420 21 
Q 3050 -91 2638 -91 
Q 1578 -91 968 557 
Q 359 1206 359 2328 
Q 359 3453 968 4101 
Q 1578 4750 2638 4750 
Q 3056 4750 3426 4639 
Q 3797 4528 4122 4306 
z
" transform="scale(0.015625)"/>
       <path id="DejaVuSans-53" d="M 3425 4513 
L 3425 3897 
Q 3066 4069 2747 4153 
Q 2428 4238 2131 4238 
Q 1616 4238 1336 4038 
Q 1056 3838 1056 3469 
Q 1056 3159 1242 3001 
Q 1428 2844 1947 2747 
L 2328 2669 
Q 3034 2534 3370 2195 
Q 3706 1856 3706 1288 
Q 3706 609 3251 259 
Q 2797 -91 1919 -91 
Q 1588 -91 1214 -16 
Q 841 59 441 206 
L 441 856 
Q 825 641 1194 531 
Q 1563 422 1919 422 
Q 2459 422 2753 634 
Q 3047 847 3047 1241 
Q 3047 1584 2836 1778 
Q 2625 1972 2144 2069 
L 1759 2144 
Q 1053 2284 737 2584 
Q 422 2884 422 3419 
Q 422 4038 858 4394 
Q 1294 4750 2059 4750 
Q 2388 4750 2728 4690 
Q 3069 4631 3425 4513 
z
" transform="scale(0.015625)"/>
       <path id="DejaVuSans-44" d="M 1259 4147 
L 1259 519 
L 2022 519 
Q 2988 519 3436 956 
Q 3884 1394 3884 2338 
Q 3884 3275 3436 3711 
Q 2988 4147 2022 4147 
L 1259 4147 
z
M 628 4666 
L 1925 4666 
Q 3281 4666 3915 4102 
Q 4550 3538 4550 2338 
Q 4550 1131 3912 565 
Q 3275 0 1925 0 
L 628 0 
L 628 4666 
z
" transform="scale(0.015625)"/>
      </defs>
      <use xlink:href="#DejaVuSans-4d"/>
      <use xlink:href="#DejaVuSans-4f" transform="translate(86.279297 0)"/>
      <use xlink:href="#DejaVuSans-46" transform="translate(164.990234 0)"/>
      <use xlink:href="#DejaVuSans-20" transform="translate(222.509766 0)"/>
      <use xlink:href="#DejaVuSans-73" transform="translate(254.296875 0)"/>
      <use xlink:href="#DejaVuSans-74" transform="translate(306.396484 0)"/>
      <use xlink:href="#DejaVuSans-72" transform="translate(345.605469 0)"/>
      <use xlink:href="#DejaVuSans-75" transform="translate(386.71875 0)"/>
      <use xlink:href="#DejaVuSans-63" transform="translate(450.097656 0)"/>
      <use xlink:href="#DejaVuSans-74" transform="translate(505.078125 0)"/>
      <use xlink:href="#DejaVuSans-75" transform="translate(544.287109 0)"/>
      <use xlink:href="#DejaVuSans-72" transform="translate(607.666016 0)"/>
      <use xlink:href="#DejaVuSans-65" transform="translate(646.529297 0)"/>
      <use xlink:href="#DejaVuSans-73" transform="translate(708.052734 0)"/>
      <use xlink:href="#DejaVuSans-20" transform="translate(760.152344 0)"/>
      <use xlink:href="#DejaVuSans-69" transform="translate(791.939453 0)"/>
      <use xlink:href="#DejaVuSans-6e" transform="translate(819.722656 0)"/>
      <use xlink:href="#DejaVuSans-20" transform="translate(883.101562 0)"/>
      <use xlink:href="#DejaVuSans-74" transform="translate(914.888672 0)"/>
      <use xlink:href="#DejaVuSans-68" transform="translate(954.097656 0)"/>
      <use xlink:href="#DejaVuSans-65" transform="translate(1017.476562 0)"/>
      <use xlink:href="#DejaVuSans-20" transform="translate(1079 0)"/>
      <use xlink:href="#DejaVuSans-43" transform="translate(1110.787109 0)"/>
      <use xlink:href="#DejaVuSans-53" transform="translate(1180.611328 0)"/>
      <use xlink:href="#DejaVuSans-44" transform="translate(1244.087891 0)"/>
     </g>
    </g>
   </g>
   <g id="patch_3">
    <path d="M 57.583937 246.078125 
L 64.396389 246.078125 
L 64.396389 246.033773 
L 57.583937 246.033773 
z
" clip-path="url(#pe7fa4507f9)" style="fill: #7a53ec; opacity: 0.18"/>
   </g>
   <g id="patch_4">
    <path d="M 66.31785 246.078125 
L 73.130302 246.078125 
L 73.130302 245.973159 
L 66.31785 245.973159 
z
" clip-path="url(#pe7fa4507f9)" style="fill: #7a53ec; opacity: 0.18"/>
   </g>
   <g id="patch_5">
    <path d="M 75.051763 246.078125 
L 81.864215 246.078125 
L 81.864215 245.97168 
L 75.051763 245.97168 
z
" clip-path="url(#pe7fa4507f9)" style="fill: #7a53ec; opacity: 0.18"/>
   </g>
   <g id="patch_6">
    <path d="M 83.785676 246.078125 
L 90.598128 246.078125 
L 90.598128 245.998291 
L 83.785676 245.998291 
z
" clip-path="url(#pe7fa4507f9)" style="fill: #7a53ec; opacity: 0.18"/>
   </g>
   <g id="patch_7">
    <path d="M 92.519589 246.078125 
L 99.332041 246.078125 
L 99.332041 245.918458 
L 92.519589 245.918458 
z
" clip-path="url(#pe7fa4507f9)" style="fill: #7a53ec; opacity: 0.18"/>
   </g>
   <g id="patch_8">
    <path d="M 101.253502 246.078125 
L 108.065954 246.078125 
L 108.065954 245.955418 
L 101.253502 245.955418 
z
" clip-path="url(#pe7fa4507f9)" style="fill: #7a53ec; opacity: 0.18"/>
   </g>
   <g id="patch_9">
    <path d="M 109.987415 246.078125 
L 116.799867 246.078125 
L 116.799867 245.88889 
L 109.987415 245.88889 
z
" clip-path="url(#pe7fa4507f9)" style="fill: #7a53ec; opacity: 0.18"/>
   </g>
   <g id="patch_10">
    <path d="M 118.721328 246.078125 
L 125.53378 246.078125 
L 125.53378 245.902195 
L 118.721328 245.902195 
z
" clip-path="url(#pe7fa4507f9)" style="fill: #7a53ec; opacity: 0.18"/>
   </g>
   <g id="patch_11">
    <path d="M 127.455241 246.078125 
L 134.267693 246.078125 
L 134.267693 245.816448 
L 127.455241 245.816448 
z
" clip-path="url(#pe7fa4507f9)" style="fill: #7a53ec; opacity: 0.18"/>
   </g>
   <g id="patch_12">
    <path d="M 136.189154 246.078125 
L 143.001607 246.078125 
L 143.001607 245.859322 
L 136.189154 245.859322 
z
" clip-path="url(#pe7fa4507f9)" style="fill: #7a53ec; opacity: 0.18"/>
   </g>
   <g id="patch_13">
    <path d="M 144.923067 246.078125 
L 151.73552 246.078125 
L 151.73552 245.761747 
L 144.923067 245.761747 
z
" clip-path="url(#pe7fa4507f9)" style="fill: #7a53ec; opacity: 0.18"/>
   </g>
   <g id="patch_14">
    <path d="M 153.65698 246.078125 
L 160.469433 246.078125 
L 160.469433 245.751399 
L 153.65698 245.751399 
z
" clip-path="url(#pe7fa4507f9)" style="fill: #7a53ec; opacity: 0.18"/>
   </g>
   <g id="patch_15">
    <path d="M 162.390893 246.078125 
L 169.203346 246.078125 
L 169.203346 245.74105 
L 162.390893 245.74105 
z
" clip-path="url(#pe7fa4507f9)" style="fill: #7a53ec; opacity: 0.18"/>
   </g>
   <g id="patch_16">
    <path d="M 171.124807 246.078125 
L 177.937259 246.078125 
L 177.937259 245.70409 
L 171.124807 245.70409 
z
" clip-path="url(#pe7fa4507f9)" style="fill: #7a53ec; opacity: 0.18"/>
   </g>
   <g id="patch_17">
    <path d="M 179.85872 246.078125 
L 186.671172 246.078125 
L 186.671172 245.701133 
L 179.85872 245.701133 
z
" clip-path="url(#pe7fa4507f9)" style="fill: #7a53ec; opacity: 0.18"/>
   </g>
   <g id="patch_18">
    <path d="M 188.592633 246.078125 
L 195.405085 246.078125 
L 195.405085 245.452762 
L 188.592633 245.452762 
z
" clip-path="url(#pe7fa4507f9)" style="fill: #7a53ec; opacity: 0.18"/>
   </g>
   <g id="patch_19">
    <path d="M 197.326546 246.078125 
L 204.138998 246.078125 
L 204.138998 245.455719 
L 197.326546 245.455719 
z
" clip-path="url(#pe7fa4507f9)" style="fill: #7a53ec; opacity: 0.18"/>
   </g>
   <g id="patch_20">
    <path d="M 206.060459 246.078125 
L 212.872911 246.078125 
L 212.872911 245.341882 
L 206.060459 245.341882 
z
" clip-path="url(#pe7fa4507f9)" style="fill: #7a53ec; opacity: 0.18"/>
   </g>
   <g id="patch_21">
    <path d="M 214.794372 246.078125 
L 221.606824 246.078125 
L 221.606824 245.142298 
L 214.794372 245.142298 
z
" clip-path="url(#pe7fa4507f9)" style="fill: #7a53ec; opacity: 0.18"/>
   </g>
   <g id="patch_22">
    <path d="M 223.528285 246.078125 
L 230.340737 246.078125 
L 230.340737 244.957498 
L 223.528285 244.957498 
z
" clip-path="url(#pe7fa4507f9)" style="fill: #7a53ec; opacity: 0.18"/>
   </g>
   <g id="patch_23">
    <path d="M 232.262198 246.078125 
L 239.07465 246.078125 
L 239.07465 244.159162 
L 232.262198 244.159162 
z
" clip-path="url(#pe7fa4507f9)" style="fill: #7a53ec; opacity: 0.18"/>
   </g>
   <g id="patch_24">
    <path d="M 240.996111 246.078125 
L 247.808563 246.078125 
L 247.808563 243.980275 
L 240.996111 243.980275 
z
" clip-path="url(#pe7fa4507f9)" style="fill: #7a53ec; opacity: 0.18"/>
   </g>
   <g id="patch_25">
    <path d="M 249.730024 246.078125 
L 256.542476 246.078125 
L 256.542476 243.535277 
L 249.730024 243.535277 
z
" clip-path="url(#pe7fa4507f9)" style="fill: #7a53ec; opacity: 0.18"/>
   </g>
   <g id="patch_26">
    <path d="M 258.463937 246.078125 
L 265.276389 246.078125 
L 265.276389 242.785728 
L 258.463937 242.785728 
z
" clip-path="url(#pe7fa4507f9)" style="fill: #7a53ec; opacity: 0.18"/>
   </g>
   <g id="patch_27">
    <path d="M 267.19785 246.078125 
L 274.010302 246.078125 
L 274.010302 241.904602 
L 267.19785 241.904602 
z
" clip-path="url(#pe7fa4507f9)" style="fill: #7a53ec; opacity: 0.18"/>
   </g>
   <g id="patch_28">
    <path d="M 275.931763 246.078125 
L 282.744215 246.078125 
L 282.744215 241.394554 
L 275.931763 241.394554 
z
" clip-path="url(#pe7fa4507f9)" style="fill: #7a53ec; opacity: 0.18"/>
   </g>
   <g id="patch_29">
    <path d="M 284.665676 246.078125 
L 291.478128 246.078125 
L 291.478128 240.967296 
L 284.665676 240.967296 
z
" clip-path="url(#pe7fa4507f9)" style="fill: #7a53ec; opacity: 0.18"/>
   </g>
   <g id="patch_30">
    <path d="M 293.399589 246.078125 
L 300.212041 246.078125 
L 300.212041 240.605088 
L 293.399589 240.605088 
z
" clip-path="url(#pe7fa4507f9)" style="fill: #7a53ec; opacity: 0.18"/>
   </g>
   <g id="patch_31">
    <path d="M 302.133502 246.078125 
L 308.945954 246.078125 
L 308.945954 240.336019 
L 302.133502 240.336019 
z
" clip-path="url(#pe7fa4507f9)" style="fill: #7a53ec; opacity: 0.18"/>
   </g>
   <g id="patch_32">
    <path d="M 310.867415 246.078125 
L 317.679867 246.078125 
L 317.679867 238.541242 
L 310.867415 238.541242 
z
" clip-path="url(#pe7fa4507f9)" style="fill: #7a53ec; opacity: 0.18"/>
   </g>
   <g id="patch_33">
    <path d="M 319.601328 246.078125 
L 326.41378 246.078125 
L 326.41378 234.87481 
L 319.601328 234.87481 
z
" clip-path="url(#pe7fa4507f9)" style="fill: #7a53ec; opacity: 0.18"/>
   </g>
   <g id="patch_34">
    <path d="M 328.335241 246.078125 
L 335.147693 246.078125 
L 335.147693 237.521146 
L 328.335241 237.521146 
z
" clip-path="url(#pe7fa4507f9)" style="fill: #7a53ec; opacity: 0.18"/>
   </g>
   <g id="patch_35">
    <path d="M 337.069154 246.078125 
L 343.881607 246.078125 
L 343.881607 232.153075 
L 337.069154 232.153075 
z
" clip-path="url(#pe7fa4507f9)" style="fill: #7a53ec; opacity: 0.18"/>
   </g>
   <g id="patch_36">
    <path d="M 345.803067 246.078125 
L 352.61552 246.078125 
L 352.61552 236.116666 
L 345.803067 236.116666 
z
" clip-path="url(#pe7fa4507f9)" style="fill: #7a53ec; opacity: 0.18"/>
   </g>
   <g id="patch_37">
    <path d="M 354.53698 246.078125 
L 361.349433 246.078125 
L 361.349433 234.079431 
L 354.53698 234.079431 
z
" clip-path="url(#pe7fa4507f9)" style="fill: #7a53ec; opacity: 0.18"/>
   </g>
   <g id="patch_38">
    <path d="M 363.270893 246.078125 
L 370.083346 246.078125 
L 370.083346 235.633229 
L 363.270893 235.633229 
z
" clip-path="url(#pe7fa4507f9)" style="fill: #7a53ec; opacity: 0.18"/>
   </g>
   <g id="patch_39">
    <path d="M 372.004807 246.078125 
L 378.817259 246.078125 
L 378.817259 235.225191 
L 372.004807 235.225191 
z
" clip-path="url(#pe7fa4507f9)" style="fill: #7a53ec; opacity: 0.18"/>
   </g>
   <g id="patch_40">
    <path d="M 380.73872 246.078125 
L 387.551172 246.078125 
L 387.551172 236.088576 
L 380.73872 236.088576 
z
" clip-path="url(#pe7fa4507f9)" style="fill: #7a53ec; opacity: 0.18"/>
   </g>
   <g id="patch_41">
    <path d="M 389.472633 246.078125 
L 396.285085 246.078125 
L 396.285085 234.080909 
L 389.472633 234.080909 
z
" clip-path="url(#pe7fa4507f9)" style="fill: #7a53ec; opacity: 0.18"/>
   </g>
   <g id="patch_42">
    <path d="M 398.206546 246.078125 
L 405.018998 246.078125 
L 405.018998 236.166931 
L 398.206546 236.166931 
z
" clip-path="url(#pe7fa4507f9)" style="fill: #7a53ec; opacity: 0.18"/>
   </g>
   <g id="patch_43">
    <path d="M 406.940459 246.078125 
L 413.752911 246.078125 
L 413.752911 237.317127 
L 406.940459 237.317127 
z
" clip-path="url(#pe7fa4507f9)" style="fill: #7a53ec; opacity: 0.18"/>
   </g>
   <g id="patch_44">
    <path d="M 415.674372 246.078125 
L 422.486824 246.078125 
L 422.486824 237.398439 
L 415.674372 237.398439 
z
" clip-path="url(#pe7fa4507f9)" style="fill: #7a53ec; opacity: 0.18"/>
   </g>
   <g id="patch_45">
    <path d="M 424.408285 246.078125 
L 431.220737 246.078125 
L 431.220737 237.599501 
L 424.408285 237.599501 
z
" clip-path="url(#pe7fa4507f9)" style="fill: #7a53ec; opacity: 0.18"/>
   </g>
   <g id="patch_46">
    <path d="M 433.142198 246.078125 
L 439.95465 246.078125 
L 439.95465 237.182592 
L 433.142198 237.182592 
z
" clip-path="url(#pe7fa4507f9)" style="fill: #7a53ec; opacity: 0.18"/>
   </g>
   <g id="patch_47">
    <path d="M 441.876111 246.078125 
L 448.688563 246.078125 
L 448.688563 237.899616 
L 441.876111 237.899616 
z
" clip-path="url(#pe7fa4507f9)" style="fill: #7a53ec; opacity: 0.18"/>
   </g>
   <g id="FillBetweenPolyCollection_1">
    <defs>
     <path id="m7a503acf16" d="M 60.990163 -37.05625 
L 60.990163 -37.757012 
L 69.724076 -37.861978 
L 78.457989 -37.968423 
L 87.191902 -38.048256 
L 95.925815 -38.207924 
L 104.659728 -38.330631 
L 113.393641 -38.519866 
L 122.127554 -38.695796 
L 130.861467 -38.957472 
L 139.59538 -39.176276 
L 148.329293 -39.492653 
L 157.063207 -39.81938 
L 165.79712 -40.156455 
L 174.531033 -40.53049 
L 183.264946 -40.907482 
L 191.998859 -41.532845 
L 200.732772 -42.155252 
L 209.466685 -42.891495 
L 218.200598 -43.827322 
L 226.934511 -44.947949 
L 235.668424 -46.866912 
L 244.402337 -48.964762 
L 253.13625 -51.50761 
L 261.870163 -54.800007 
L 270.604076 -58.97353 
L 279.337989 -63.657101 
L 288.071902 -68.76793 
L 296.805815 -74.240967 
L 305.539728 -79.983072 
L 314.273641 -87.519956 
L 323.007554 -98.723271 
L 331.741467 -107.28025 
L 340.47538 -121.2053 
L 349.209293 -131.166759 
L 357.943207 -143.165453 
L 366.67712 -153.610349 
L 375.411033 -164.463284 
L 384.144946 -174.452832 
L 392.878859 -186.450048 
L 401.612772 -196.361242 
L 410.346685 -205.12224 
L 419.080598 -213.801927 
L 427.814511 -222.280551 
L 436.548424 -231.176084 
L 445.282337 -239.354592 
L 445.282337 -37.05625 
L 445.282337 -37.05625 
L 436.548424 -37.05625 
L 427.814511 -37.05625 
L 419.080598 -37.05625 
L 410.346685 -37.05625 
L 401.612772 -37.05625 
L 392.878859 -37.05625 
L 384.144946 -37.05625 
L 375.411033 -37.05625 
L 366.67712 -37.05625 
L 357.943207 -37.05625 
L 349.209293 -37.05625 
L 340.47538 -37.05625 
L 331.741467 -37.05625 
L 323.007554 -37.05625 
L 314.273641 -37.05625 
L 305.539728 -37.05625 
L 296.805815 -37.05625 
L 288.071902 -37.05625 
L 279.337989 -37.05625 
L 270.604076 -37.05625 
L 261.870163 -37.05625 
L 253.13625 -37.05625 
L 244.402337 -37.05625 
L 235.668424 -37.05625 
L 226.934511 -37.05625 
L 218.200598 -37.05625 
L 209.466685 -37.05625 
L 200.732772 -37.05625 
L 191.998859 -37.05625 
L 183.264946 -37.05625 
L 174.531033 -37.05625 
L 165.79712 -37.05625 
L 157.063207 -37.05625 
L 148.329293 -37.05625 
L 139.59538 -37.05625 
L 130.861467 -37.05625 
L 122.127554 -37.05625 
L 113.393641 -37.05625 
L 104.659728 -37.05625 
L 95.925815 -37.05625 
L 87.191902 -37.05625 
L 78.457989 -37.05625 
L 69.724076 -37.05625 
L 60.990163 -37.05625 
z
" style="stroke: #7a53ec; stroke-opacity: 0.12"/>
    </defs>
    <g clip-path="url(#pe7fa4507f9)">
     <use xlink:href="#m7a503acf16" x="0" y="283.134375" style="fill: #7a53ec; fill-opacity: 0.12; stroke: #7a53ec; stroke-opacity: 0.12"/>
    </g>
   </g>
   <g id="patch_48">
    <path d="M 52.25625 246.078125 
L 52.25625 24.318125 
" style="fill: none; stroke: #c8bbd8; stroke-width: 0.8; stroke-linejoin: miter; stroke-linecap: square"/>
   </g>
   <g id="patch_49">
    <path d="M 52.25625 246.078125 
L 454.01625 246.078125 
" style="fill: none; stroke: #c8bbd8; stroke-width: 0.8; stroke-linejoin: miter; stroke-linecap: square"/>
   </g>
   <g id="line2d_27">
    <path d="M 60.990163 245.377363 
L 69.724076 245.272397 
L 78.457989 245.165952 
L 87.191902 245.086119 
L 95.925815 244.926451 
L 104.659728 244.803744 
L 113.393641 244.614509 
L 122.127554 244.438579 
L 130.861467 244.176903 
L 139.59538 243.958099 
L 148.329293 243.641722 
L 157.063207 243.314995 
L 165.79712 242.97792 
L 174.531033 242.603885 
L 183.264946 242.226893 
L 191.998859 241.60153 
L 200.732772 240.979123 
L 209.466685 240.24288 
L 218.200598 239.307053 
L 226.934511 238.186426 
L 235.668424 236.267463 
L 244.402337 234.169613 
L 253.13625 231.626765 
L 261.870163 228.334368 
L 270.604076 224.160845 
L 279.337989 219.477274 
L 288.071902 214.366445 
L 296.805815 208.893408 
L 305.539728 203.151303 
L 314.273641 195.614419 
L 323.007554 184.411104 
L 331.741467 175.854125 
L 340.47538 161.929075 
L 349.209293 151.967616 
L 357.943207 139.968922 
L 366.67712 129.524026 
L 375.411033 118.671091 
L 384.144946 108.681543 
L 392.878859 96.684327 
L 401.612772 86.773133 
L 410.346685 78.012135 
L 419.080598 69.332448 
L 427.814511 60.853824 
L 436.548424 51.958291 
L 445.282337 43.779783 
" clip-path="url(#pe7fa4507f9)" style="fill: none; stroke: #5b3a8c; stroke-width: 2.6; stroke-linecap: square"/>
   </g>
   <g id="text_16">
    <g id="patch_50">
     <path d="M 389.538594 97.123162 
L 436.796641 97.123162 
L 436.796641 73.301022 
L 389.538594 73.301022 
z
" style="fill: #ffffff; opacity: 0.9"/>
    </g>
    <!-- 136,836 -->
    <g style="fill: #5b3a8c" transform="translate(391.533594 82.440319) scale(0.095 -0.095)">
     <defs>
      <path id="DejaVuSans-Bold-31" d="M 750 831 
L 1813 831 
L 1813 3847 
L 722 3622 
L 722 4441 
L 1806 4666 
L 2950 4666 
L 2950 831 
L 4013 831 
L 4013 0 
L 750 0 
L 750 831 
z
" transform="scale(0.015625)"/>
      <path id="DejaVuSans-Bold-33" d="M 2981 2516 
Q 3453 2394 3698 2092 
Q 3944 1791 3944 1325 
Q 3944 631 3412 270 
Q 2881 -91 1863 -91 
Q 1503 -91 1142 -33 
Q 781 25 428 141 
L 428 1069 
Q 766 900 1098 814 
Q 1431 728 1753 728 
Q 2231 728 2486 893 
Q 2741 1059 2741 1369 
Q 2741 1688 2480 1852 
Q 2219 2016 1709 2016 
L 1228 2016 
L 1228 2791 
L 1734 2791 
Q 2188 2791 2409 2933 
Q 2631 3075 2631 3366 
Q 2631 3634 2415 3781 
Q 2200 3928 1806 3928 
Q 1516 3928 1219 3862 
Q 922 3797 628 3669 
L 628 4550 
Q 984 4650 1334 4700 
Q 1684 4750 2022 4750 
Q 2931 4750 3382 4451 
Q 3834 4153 3834 3553 
Q 3834 3144 3618 2883 
Q 3403 2622 2981 2516 
z
" transform="scale(0.015625)"/>
      <path id="DejaVuSans-Bold-36" d="M 2316 2303 
Q 2000 2303 1842 2098 
Q 1684 1894 1684 1484 
Q 1684 1075 1842 870 
Q 2000 666 2316 666 
Q 2634 666 2792 870 
Q 2950 1075 2950 1484 
Q 2950 1894 2792 2098 
Q 2634 2303 2316 2303 
z
M 3803 4544 
L 3803 3681 
Q 3506 3822 3243 3889 
Q 2981 3956 2731 3956 
Q 2194 3956 1894 3657 
Q 1594 3359 1544 2772 
Q 1750 2925 1990 3001 
Q 2231 3078 2516 3078 
Q 3231 3078 3670 2659 
Q 4109 2241 4109 1563 
Q 4109 813 3618 361 
Q 3128 -91 2303 -91 
Q 1394 -91 895 523 
Q 397 1138 397 2266 
Q 397 3422 980 4083 
Q 1563 4744 2578 4744 
Q 2900 4744 3203 4694 
Q 3506 4644 3803 4544 
z
" transform="scale(0.015625)"/>
      <path id="DejaVuSans-Bold-2c" d="M 653 1209 
L 1778 1209 
L 1778 256 
L 1006 -909 
L 341 -909 
L 653 256 
L 653 1209 
z
" transform="scale(0.015625)"/>
      <path id="DejaVuSans-Bold-38" d="M 2228 2088 
Q 1891 2088 1709 1903 
Q 1528 1719 1528 1375 
Q 1528 1031 1709 848 
Q 1891 666 2228 666 
Q 2563 666 2741 848 
Q 2919 1031 2919 1375 
Q 2919 1722 2741 1905 
Q 2563 2088 2228 2088 
z
M 1350 2484 
Q 925 2613 709 2878 
Q 494 3144 494 3541 
Q 494 4131 934 4440 
Q 1375 4750 2228 4750 
Q 3075 4750 3515 4442 
Q 3956 4134 3956 3541 
Q 3956 3144 3739 2878 
Q 3522 2613 3097 2484 
Q 3572 2353 3814 2058 
Q 4056 1763 4056 1313 
Q 4056 619 3595 264 
Q 3134 -91 2228 -91 
Q 1319 -91 855 264 
Q 391 619 391 1313 
Q 391 1763 633 2058 
Q 875 2353 1350 2484 
z
M 1631 3419 
Q 1631 3141 1786 2991 
Q 1941 2841 2228 2841 
Q 2509 2841 2662 2991 
Q 2816 3141 2816 3419 
Q 2816 3697 2662 3845 
Q 2509 3994 2228 3994 
Q 1941 3994 1786 3844 
Q 1631 3694 1631 3419 
z
" transform="scale(0.015625)"/>
     </defs>
     <use xlink:href="#DejaVuSans-Bold-31"/>
     <use xlink:href="#DejaVuSans-Bold-33" transform="translate(69.580078 0)"/>
     <use xlink:href="#DejaVuSans-Bold-36" transform="translate(139.160156 0)"/>
     <use xlink:href="#DejaVuSans-Bold-2c" transform="translate(208.740234 0)"/>
     <use xlink:href="#DejaVuSans-Bold-38" transform="translate(246.728516 0)"/>
     <use xlink:href="#DejaVuSans-Bold-33" transform="translate(316.308594 0)"/>
     <use xlink:href="#DejaVuSans-Bold-36" transform="translate(385.888672 0)"/>
    </g>
    <!-- by 2025 -->
    <g style="fill: #5b3a8c" transform="translate(392.062032 93.07824) scale(0.095 -0.095)">
     <defs>
      <path id="DejaVuSans-Bold-62" d="M 2400 722 
Q 2759 722 2948 984 
Q 3138 1247 3138 1747 
Q 3138 2247 2948 2509 
Q 2759 2772 2400 2772 
Q 2041 2772 1848 2508 
Q 1656 2244 1656 1747 
Q 1656 1250 1848 986 
Q 2041 722 2400 722 
z
M 1656 2988 
Q 1888 3294 2169 3439 
Q 2450 3584 2816 3584 
Q 3463 3584 3878 3070 
Q 4294 2556 4294 1747 
Q 4294 938 3878 423 
Q 3463 -91 2816 -91 
Q 2450 -91 2169 54 
Q 1888 200 1656 506 
L 1656 0 
L 538 0 
L 538 4863 
L 1656 4863 
L 1656 2988 
z
" transform="scale(0.015625)"/>
      <path id="DejaVuSans-Bold-79" d="M 78 3500 
L 1197 3500 
L 2138 1125 
L 2938 3500 
L 4056 3500 
L 2584 -331 
Q 2363 -916 2067 -1148 
Q 1772 -1381 1288 -1381 
L 641 -1381 
L 641 -647 
L 991 -647 
Q 1275 -647 1404 -556 
Q 1534 -466 1606 -231 
L 1638 -134 
L 78 3500 
z
" transform="scale(0.015625)"/>
      <path id="DejaVuSans-Bold-20" transform="scale(0.015625)"/>
      <path id="DejaVuSans-Bold-32" d="M 1844 884 
L 3897 884 
L 3897 0 
L 506 0 
L 506 884 
L 2209 2388 
Q 2438 2594 2547 2791 
Q 2656 2988 2656 3200 
Q 2656 3528 2436 3728 
Q 2216 3928 1850 3928 
Q 1569 3928 1234 3808 
Q 900 3688 519 3450 
L 519 4475 
Q 925 4609 1322 4679 
Q 1719 4750 2100 4750 
Q 2938 4750 3402 4381 
Q 3866 4013 3866 3353 
Q 3866 2972 3669 2642 
Q 3472 2313 2841 1759 
L 1844 884 
z
" transform="scale(0.015625)"/>
      <path id="DejaVuSans-Bold-30" d="M 2944 2338 
Q 2944 3213 2780 3570 
Q 2616 3928 2228 3928 
Q 1841 3928 1675 3570 
Q 1509 3213 1509 2338 
Q 1509 1453 1675 1090 
Q 1841 728 2228 728 
Q 2613 728 2778 1090 
Q 2944 1453 2944 2338 
z
M 4147 2328 
Q 4147 1169 3647 539 
Q 3147 -91 2228 -91 
Q 1306 -91 806 539 
Q 306 1169 306 2328 
Q 306 3491 806 4120 
Q 1306 4750 2228 4750 
Q 3147 4750 3647 4120 
Q 4147 3491 4147 2328 
z
" transform="scale(0.015625)"/>
      <path id="DejaVuSans-Bold-35" d="M 678 4666 
L 3669 4666 
L 3669 3781 
L 1638 3781 
L 1638 3059 
Q 1775 3097 1914 3117 
Q 2053 3138 2203 3138 
Q 3056 3138 3531 2711 
Q 4006 2284 4006 1522 
Q 4006 766 3489 337 
Q 2972 -91 2053 -91 
Q 1656 -91 1267 -14 
Q 878 63 494 219 
L 494 1166 
Q 875 947 1217 837 
Q 1559 728 1863 728 
Q 2300 728 2551 942 
Q 2803 1156 2803 1522 
Q 2803 1891 2551 2103 
Q 2300 2316 1863 2316 
Q 1603 2316 1309 2248 
Q 1016 2181 678 2041 
L 678 4666 
z
" transform="scale(0.015625)"/>
     </defs>
     <use xlink:href="#DejaVuSans-Bold-62"/>
     <use xlink:href="#DejaVuSans-Bold-79" transform="translate(71.582031 0)"/>
     <use xlink:href="#DejaVuSans-Bold-20" transform="translate(136.767578 0)"/>
     <use xlink:href="#DejaVuSans-Bold-32" transform="translate(171.582031 0)"/>
     <use xlink:href="#DejaVuSans-Bold-30" transform="translate(241.162109 0)"/>
     <use xlink:href="#DejaVuSans-Bold-32" transform="translate(310.742188 0)"/>
     <use xlink:href="#DejaVuSans-Bold-35" transform="translate(380.322266 0)"/>
    </g>
   </g>
   <g id="text_17">
    <!-- MOFs deposited in the Cambridge Structural Database -->
    <g transform="translate(52.25625 16.318125) scale(0.12 -0.12)">
     <defs>
      <path id="DejaVuSans-Bold-4d" d="M 588 4666 
L 2119 4666 
L 3181 2169 
L 4250 4666 
L 5778 4666 
L 5778 0 
L 4641 0 
L 4641 3413 
L 3566 897 
L 2803 897 
L 1728 3413 
L 1728 0 
L 588 0 
L 588 4666 
z
" transform="scale(0.015625)"/>
      <path id="DejaVuSans-Bold-4f" d="M 2719 3878 
Q 2169 3878 1866 3472 
Q 1563 3066 1563 2328 
Q 1563 1594 1866 1187 
Q 2169 781 2719 781 
Q 3272 781 3575 1187 
Q 3878 1594 3878 2328 
Q 3878 3066 3575 3472 
Q 3272 3878 2719 3878 
z
M 2719 4750 
Q 3844 4750 4481 4106 
Q 5119 3463 5119 2328 
Q 5119 1197 4481 553 
Q 3844 -91 2719 -91 
Q 1597 -91 958 553 
Q 319 1197 319 2328 
Q 319 3463 958 4106 
Q 1597 4750 2719 4750 
z
" transform="scale(0.015625)"/>
      <path id="DejaVuSans-Bold-46" d="M 588 4666 
L 3834 4666 
L 3834 3756 
L 1791 3756 
L 1791 2888 
L 3713 2888 
L 3713 1978 
L 1791 1978 
L 1791 0 
L 588 0 
L 588 4666 
z
" transform="scale(0.015625)"/>
      <path id="DejaVuSans-Bold-73" d="M 3272 3391 
L 3272 2541 
Q 2913 2691 2578 2766 
Q 2244 2841 1947 2841 
Q 1628 2841 1473 2761 
Q 1319 2681 1319 2516 
Q 1319 2381 1436 2309 
Q 1553 2238 1856 2203 
L 2053 2175 
Q 2913 2066 3209 1816 
Q 3506 1566 3506 1031 
Q 3506 472 3093 190 
Q 2681 -91 1863 -91 
Q 1516 -91 1145 -36 
Q 775 19 384 128 
L 384 978 
Q 719 816 1070 734 
Q 1422 653 1784 653 
Q 2113 653 2278 743 
Q 2444 834 2444 1013 
Q 2444 1163 2330 1236 
Q 2216 1309 1875 1350 
L 1678 1375 
Q 931 1469 631 1722 
Q 331 1975 331 2491 
Q 331 3047 712 3315 
Q 1094 3584 1881 3584 
Q 2191 3584 2531 3537 
Q 2872 3491 3272 3391 
z
" transform="scale(0.015625)"/>
      <path id="DejaVuSans-Bold-64" d="M 2919 2988 
L 2919 4863 
L 4044 4863 
L 4044 0 
L 2919 0 
L 2919 506 
Q 2688 197 2409 53 
Q 2131 -91 1766 -91 
Q 1119 -91 703 423 
Q 288 938 288 1747 
Q 288 2556 703 3070 
Q 1119 3584 1766 3584 
Q 2128 3584 2408 3439 
Q 2688 3294 2919 2988 
z
M 2181 722 
Q 2541 722 2730 984 
Q 2919 1247 2919 1747 
Q 2919 2247 2730 2509 
Q 2541 2772 2181 2772 
Q 1825 2772 1636 2509 
Q 1447 2247 1447 1747 
Q 1447 1247 1636 984 
Q 1825 722 2181 722 
z
" transform="scale(0.015625)"/>
      <path id="DejaVuSans-Bold-65" d="M 4031 1759 
L 4031 1441 
L 1416 1441 
Q 1456 1047 1700 850 
Q 1944 653 2381 653 
Q 2734 653 3104 758 
Q 3475 863 3866 1075 
L 3866 213 
Q 3469 63 3072 -14 
Q 2675 -91 2278 -91 
Q 1328 -91 801 392 
Q 275 875 275 1747 
Q 275 2603 792 3093 
Q 1309 3584 2216 3584 
Q 3041 3584 3536 3087 
Q 4031 2591 4031 1759 
z
M 2881 2131 
Q 2881 2450 2695 2645 
Q 2509 2841 2209 2841 
Q 1884 2841 1681 2658 
Q 1478 2475 1428 2131 
L 2881 2131 
z
" transform="scale(0.015625)"/>
      <path id="DejaVuSans-Bold-70" d="M 1656 506 
L 1656 -1331 
L 538 -1331 
L 538 3500 
L 1656 3500 
L 1656 2988 
Q 1888 3294 2169 3439 
Q 2450 3584 2816 3584 
Q 3463 3584 3878 3070 
Q 4294 2556 4294 1747 
Q 4294 938 3878 423 
Q 3463 -91 2816 -91 
Q 2450 -91 2169 54 
Q 1888 200 1656 506 
z
M 2400 2772 
Q 2041 2772 1848 2508 
Q 1656 2244 1656 1747 
Q 1656 1250 1848 986 
Q 2041 722 2400 722 
Q 2759 722 2948 984 
Q 3138 1247 3138 1747 
Q 3138 2247 2948 2509 
Q 2759 2772 2400 2772 
z
" transform="scale(0.015625)"/>
      <path id="DejaVuSans-Bold-6f" d="M 2203 2784 
Q 1831 2784 1636 2517 
Q 1441 2250 1441 1747 
Q 1441 1244 1636 976 
Q 1831 709 2203 709 
Q 2569 709 2762 976 
Q 2956 1244 2956 1747 
Q 2956 2250 2762 2517 
Q 2569 2784 2203 2784 
z
M 2203 3584 
Q 3106 3584 3614 3096 
Q 4122 2609 4122 1747 
Q 4122 884 3614 396 
Q 3106 -91 2203 -91 
Q 1297 -91 786 396 
Q 275 884 275 1747 
Q 275 2609 786 3096 
Q 1297 3584 2203 3584 
z
" transform="scale(0.015625)"/>
      <path id="DejaVuSans-Bold-69" d="M 538 3500 
L 1656 3500 
L 1656 0 
L 538 0 
L 538 3500 
z
M 538 4863 
L 1656 4863 
L 1656 3950 
L 538 3950 
L 538 4863 
z
" transform="scale(0.015625)"/>
      <path id="DejaVuSans-Bold-74" d="M 1759 4494 
L 1759 3500 
L 2913 3500 
L 2913 2700 
L 1759 2700 
L 1759 1216 
Q 1759 972 1856 886 
Q 1953 800 2241 800 
L 2816 800 
L 2816 0 
L 1856 0 
Q 1194 0 917 276 
Q 641 553 641 1216 
L 641 2700 
L 84 2700 
L 84 3500 
L 641 3500 
L 641 4494 
L 1759 4494 
z
" transform="scale(0.015625)"/>
      <path id="DejaVuSans-Bold-6e" d="M 4056 2131 
L 4056 0 
L 2931 0 
L 2931 347 
L 2931 1631 
Q 2931 2084 2911 2256 
Q 2891 2428 2841 2509 
Q 2775 2619 2662 2680 
Q 2550 2741 2406 2741 
Q 2056 2741 1856 2470 
Q 1656 2200 1656 1722 
L 1656 0 
L 538 0 
L 538 3500 
L 1656 3500 
L 1656 2988 
Q 1909 3294 2193 3439 
Q 2478 3584 2822 3584 
Q 3428 3584 3742 3212 
Q 4056 2841 4056 2131 
z
" transform="scale(0.015625)"/>
      <path id="DejaVuSans-Bold-68" d="M 4056 2131 
L 4056 0 
L 2931 0 
L 2931 347 
L 2931 1625 
Q 2931 2084 2911 2256 
Q 2891 2428 2841 2509 
Q 2775 2619 2662 2680 
Q 2550 2741 2406 2741 
Q 2056 2741 1856 2470 
Q 1656 2200 1656 1722 
L 1656 0 
L 538 0 
L 538 4863 
L 1656 4863 
L 1656 2988 
Q 1909 3294 2193 3439 
Q 2478 3584 2822 3584 
Q 3428 3584 3742 3212 
Q 4056 2841 4056 2131 
z
" transform="scale(0.015625)"/>
      <path id="DejaVuSans-Bold-43" d="M 4288 256 
Q 3956 84 3597 -3 
Q 3238 -91 2847 -91 
Q 1681 -91 1000 561 
Q 319 1213 319 2328 
Q 319 3447 1000 4098 
Q 1681 4750 2847 4750 
Q 3238 4750 3597 4662 
Q 3956 4575 4288 4403 
L 4288 3438 
Q 3953 3666 3628 3772 
Q 3303 3878 2944 3878 
Q 2300 3878 1931 3465 
Q 1563 3053 1563 2328 
Q 1563 1606 1931 1193 
Q 2300 781 2944 781 
Q 3303 781 3628 887 
Q 3953 994 4288 1222 
L 4288 256 
z
" transform="scale(0.015625)"/>
      <path id="DejaVuSans-Bold-61" d="M 2106 1575 
Q 1756 1575 1579 1456 
Q 1403 1338 1403 1106 
Q 1403 894 1545 773 
Q 1688 653 1941 653 
Q 2256 653 2472 879 
Q 2688 1106 2688 1447 
L 2688 1575 
L 2106 1575 
z
M 3816 1997 
L 3816 0 
L 2688 0 
L 2688 519 
Q 2463 200 2181 54 
Q 1900 -91 1497 -91 
Q 953 -91 614 226 
Q 275 544 275 1050 
Q 275 1666 698 1953 
Q 1122 2241 2028 2241 
L 2688 2241 
L 2688 2328 
Q 2688 2594 2478 2717 
Q 2269 2841 1825 2841 
Q 1466 2841 1156 2769 
Q 847 2697 581 2553 
L 581 3406 
Q 941 3494 1303 3539 
Q 1666 3584 2028 3584 
Q 2975 3584 3395 3211 
Q 3816 2838 3816 1997 
z
" transform="scale(0.015625)"/>
      <path id="DejaVuSans-Bold-6d" d="M 3781 2919 
Q 3994 3244 4286 3414 
Q 4578 3584 4928 3584 
Q 5531 3584 5847 3212 
Q 6163 2841 6163 2131 
L 6163 0 
L 5038 0 
L 5038 1825 
Q 5041 1866 5042 1909 
Q 5044 1953 5044 2034 
Q 5044 2406 4934 2573 
Q 4825 2741 4581 2741 
Q 4263 2741 4089 2478 
Q 3916 2216 3909 1719 
L 3909 0 
L 2784 0 
L 2784 1825 
Q 2784 2406 2684 2573 
Q 2584 2741 2328 2741 
Q 2006 2741 1831 2477 
Q 1656 2213 1656 1722 
L 1656 0 
L 531 0 
L 531 3500 
L 1656 3500 
L 1656 2988 
Q 1863 3284 2130 3434 
Q 2397 3584 2719 3584 
Q 3081 3584 3359 3409 
Q 3638 3234 3781 2919 
z
" transform="scale(0.015625)"/>
      <path id="DejaVuSans-Bold-72" d="M 3138 2547 
Q 2991 2616 2845 2648 
Q 2700 2681 2553 2681 
Q 2122 2681 1889 2404 
Q 1656 2128 1656 1613 
L 1656 0 
L 538 0 
L 538 3500 
L 1656 3500 
L 1656 2925 
Q 1872 3269 2151 3426 
Q 2431 3584 2822 3584 
Q 2878 3584 2943 3579 
Q 3009 3575 3134 3559 
L 3138 2547 
z
" transform="scale(0.015625)"/>
      <path id="DejaVuSans-Bold-67" d="M 2919 594 
Q 2688 288 2409 144 
Q 2131 0 1766 0 
Q 1125 0 706 504 
Q 288 1009 288 1791 
Q 288 2575 706 3076 
Q 1125 3578 1766 3578 
Q 2131 3578 2409 3434 
Q 2688 3291 2919 2981 
L 2919 3500 
L 4044 3500 
L 4044 353 
Q 4044 -491 3511 -936 
Q 2978 -1381 1966 -1381 
Q 1638 -1381 1331 -1331 
Q 1025 -1281 716 -1178 
L 716 -306 
Q 1009 -475 1290 -558 
Q 1572 -641 1856 -641 
Q 2406 -641 2662 -400 
Q 2919 -159 2919 353 
L 2919 594 
z
M 2181 2772 
Q 1834 2772 1640 2515 
Q 1447 2259 1447 1791 
Q 1447 1309 1634 1061 
Q 1822 813 2181 813 
Q 2531 813 2725 1069 
Q 2919 1325 2919 1791 
Q 2919 2259 2725 2515 
Q 2531 2772 2181 2772 
z
" transform="scale(0.015625)"/>
      <path id="DejaVuSans-Bold-53" d="M 3834 4519 
L 3834 3531 
Q 3450 3703 3084 3790 
Q 2719 3878 2394 3878 
Q 1963 3878 1756 3759 
Q 1550 3641 1550 3391 
Q 1550 3203 1689 3098 
Q 1828 2994 2194 2919 
L 2706 2816 
Q 3484 2659 3812 2340 
Q 4141 2022 4141 1434 
Q 4141 663 3683 286 
Q 3225 -91 2284 -91 
Q 1841 -91 1394 -6 
Q 947 78 500 244 
L 500 1259 
Q 947 1022 1364 901 
Q 1781 781 2169 781 
Q 2563 781 2772 912 
Q 2981 1044 2981 1288 
Q 2981 1506 2839 1625 
Q 2697 1744 2272 1838 
L 1806 1941 
Q 1106 2091 782 2419 
Q 459 2747 459 3303 
Q 459 4000 909 4375 
Q 1359 4750 2203 4750 
Q 2588 4750 2994 4692 
Q 3400 4634 3834 4519 
z
" transform="scale(0.015625)"/>
      <path id="DejaVuSans-Bold-75" d="M 500 1363 
L 500 3500 
L 1625 3500 
L 1625 3150 
Q 1625 2866 1622 2436 
Q 1619 2006 1619 1863 
Q 1619 1441 1641 1255 
Q 1663 1069 1716 984 
Q 1784 875 1895 815 
Q 2006 756 2150 756 
Q 2500 756 2700 1025 
Q 2900 1294 2900 1772 
L 2900 3500 
L 4019 3500 
L 4019 0 
L 2900 0 
L 2900 506 
Q 2647 200 2364 54 
Q 2081 -91 1741 -91 
Q 1134 -91 817 281 
Q 500 653 500 1363 
z
" transform="scale(0.015625)"/>
      <path id="DejaVuSans-Bold-63" d="M 3366 3391 
L 3366 2478 
Q 3138 2634 2908 2709 
Q 2678 2784 2431 2784 
Q 1963 2784 1702 2511 
Q 1441 2238 1441 1747 
Q 1441 1256 1702 982 
Q 1963 709 2431 709 
Q 2694 709 2930 787 
Q 3166 866 3366 1019 
L 3366 103 
Q 3103 6 2833 -42 
Q 2563 -91 2291 -91 
Q 1344 -91 809 395 
Q 275 881 275 1747 
Q 275 2613 809 3098 
Q 1344 3584 2291 3584 
Q 2566 3584 2833 3536 
Q 3100 3488 3366 3391 
z
" transform="scale(0.015625)"/>
      <path id="DejaVuSans-Bold-6c" d="M 538 4863 
L 1656 4863 
L 1656 0 
L 538 0 
L 538 4863 
z
" transform="scale(0.015625)"/>
      <path id="DejaVuSans-Bold-44" d="M 1791 3756 
L 1791 909 
L 2222 909 
Q 2959 909 3348 1275 
Q 3738 1641 3738 2338 
Q 3738 3031 3350 3393 
Q 2963 3756 2222 3756 
L 1791 3756 
z
M 588 4666 
L 1856 4666 
Q 2919 4666 3439 4514 
Q 3959 4363 4331 4000 
Q 4659 3684 4818 3271 
Q 4978 2859 4978 2338 
Q 4978 1809 4818 1395 
Q 4659 981 4331 666 
Q 3956 303 3431 151 
Q 2906 0 1856 0 
L 588 0 
L 588 4666 
z
" transform="scale(0.015625)"/>
     </defs>
     <use xlink:href="#DejaVuSans-Bold-4d"/>
     <use xlink:href="#DejaVuSans-Bold-4f" transform="translate(99.511719 0)"/>
     <use xlink:href="#DejaVuSans-Bold-46" transform="translate(184.521484 0)"/>
     <use xlink:href="#DejaVuSans-Bold-73" transform="translate(252.832031 0)"/>
     <use xlink:href="#DejaVuSans-Bold-20" transform="translate(312.353516 0)"/>
     <use xlink:href="#DejaVuSans-Bold-64" transform="translate(347.167969 0)"/>
     <use xlink:href="#DejaVuSans-Bold-65" transform="translate(418.75 0)"/>
     <use xlink:href="#DejaVuSans-Bold-70" transform="translate(486.572266 0)"/>
     <use xlink:href="#DejaVuSans-Bold-6f" transform="translate(558.154297 0)"/>
     <use xlink:href="#DejaVuSans-Bold-73" transform="translate(626.855469 0)"/>
     <use xlink:href="#DejaVuSans-Bold-69" transform="translate(686.376953 0)"/>
     <use xlink:href="#DejaVuSans-Bold-74" transform="translate(720.654297 0)"/>
     <use xlink:href="#DejaVuSans-Bold-65" transform="translate(768.457031 0)"/>
     <use xlink:href="#DejaVuSans-Bold-64" transform="translate(836.279297 0)"/>
     <use xlink:href="#DejaVuSans-Bold-20" transform="translate(907.861328 0)"/>
     <use xlink:href="#DejaVuSans-Bold-69" transform="translate(942.675781 0)"/>
     <use xlink:href="#DejaVuSans-Bold-6e" transform="translate(976.953125 0)"/>
     <use xlink:href="#DejaVuSans-Bold-20" transform="translate(1048.144531 0)"/>
     <use xlink:href="#DejaVuSans-Bold-74" transform="translate(1082.958984 0)"/>
     <use xlink:href="#DejaVuSans-Bold-68" transform="translate(1130.761719 0)"/>
     <use xlink:href="#DejaVuSans-Bold-65" transform="translate(1201.953125 0)"/>
     <use xlink:href="#DejaVuSans-Bold-20" transform="translate(1269.775391 0)"/>
     <use xlink:href="#DejaVuSans-Bold-43" transform="translate(1304.589844 0)"/>
     <use xlink:href="#DejaVuSans-Bold-61" transform="translate(1377.978516 0)"/>
     <use xlink:href="#DejaVuSans-Bold-6d" transform="translate(1445.458984 0)"/>
     <use xlink:href="#DejaVuSans-Bold-62" transform="translate(1549.658203 0)"/>
     <use xlink:href="#DejaVuSans-Bold-72" transform="translate(1621.240234 0)"/>
     <use xlink:href="#DejaVuSans-Bold-69" transform="translate(1670.556641 0)"/>
     <use xlink:href="#DejaVuSans-Bold-64" transform="translate(1704.833984 0)"/>
     <use xlink:href="#DejaVuSans-Bold-67" transform="translate(1776.416016 0)"/>
     <use xlink:href="#DejaVuSans-Bold-65" transform="translate(1847.998047 0)"/>
     <use xlink:href="#DejaVuSans-Bold-20" transform="translate(1915.820312 0)"/>
     <use xlink:href="#DejaVuSans-Bold-53" transform="translate(1950.634766 0)"/>
     <use xlink:href="#DejaVuSans-Bold-74" transform="translate(2022.65625 0)"/>
     <use xlink:href="#DejaVuSans-Bold-72" transform="translate(2070.458984 0)"/>
     <use xlink:href="#DejaVuSans-Bold-75" transform="translate(2119.775391 0)"/>
     <use xlink:href="#DejaVuSans-Bold-63" transform="translate(2190.966797 0)"/>
     <use xlink:href="#DejaVuSans-Bold-74" transform="translate(2250.244141 0)"/>
     <use xlink:href="#DejaVuSans-Bold-75" transform="translate(2298.046875 0)"/>
     <use xlink:href="#DejaVuSans-Bold-72" transform="translate(2369.238281 0)"/>
     <use xlink:href="#DejaVuSans-Bold-61" transform="translate(2418.554688 0)"/>
     <use xlink:href="#DejaVuSans-Bold-6c" transform="translate(2486.035156 0)"/>
     <use xlink:href="#DejaVuSans-Bold-20" transform="translate(2520.3125 0)"/>
     <use xlink:href="#DejaVuSans-Bold-44" transform="translate(2555.126953 0)"/>
     <use xlink:href="#DejaVuSans-Bold-61" transform="translate(2638.134766 0)"/>
     <use xlink:href="#DejaVuSans-Bold-74" transform="translate(2705.615234 0)"/>
     <use xlink:href="#DejaVuSans-Bold-61" transform="translate(2753.417969 0)"/>
     <use xlink:href="#DejaVuSans-Bold-62" transform="translate(2820.898438 0)"/>
     <use xlink:href="#DejaVuSans-Bold-61" transform="translate(2892.480469 0)"/>
     <use xlink:href="#DejaVuSans-Bold-73" transform="translate(2959.960938 0)"/>
     <use xlink:href="#DejaVuSans-Bold-65" transform="translate(3019.482422 0)"/>
    </g>
   </g>
   <g id="PathCollection_1">
    <defs>
     <path id="m99bff42311" d="M 0 3.391165 
C 0.899347 3.391165 1.761981 3.03385 2.397916 2.397916 
C 3.03385 1.761981 3.391165 0.899347 3.391165 0 
C 3.391165 -0.899347 3.03385 -1.761981 2.397916 -2.397916 
C 1.761981 -3.03385 0.899347 -3.391165 0 -3.391165 
C -0.899347 -3.391165 -1.761981 -3.03385 -2.397916 -2.397916 
C -3.03385 -1.761981 -3.391165 -0.899347 -3.391165 0 
C -3.391165 0.899347 -3.03385 1.761981 -2.397916 2.397916 
C -1.761981 3.03385 -0.899347 3.391165 0 3.391165 
z
" style="stroke: #ffffff; stroke-width: 1.4"/>
    </defs>
    <g clip-path="url(#pe7fa4507f9)">
     <use xlink:href="#m99bff42311" x="445.282337" y="43.779783" style="fill: #5b3a8c; stroke: #ffffff; stroke-width: 1.4"/>
    </g>
   </g>
   <g id="legend_1">
    <g id="line2d_28">
     <path d="M 60.80625 36.761641 
L 70.30625 36.761641 
L 79.80625 36.761641 
" style="fill: none; stroke: #5b3a8c; stroke-width: 2.6; stroke-linecap: square"/>
    </g>
    <g id="text_18">
     <!-- Cumulative total -->
     <g style="fill: #665a75" transform="translate(87.40625 40.086641) scale(0.095 -0.095)">
      <defs>
       <path id="DejaVuSans-6d" d="M 3328 2828 
Q 3544 3216 3844 3400 
Q 4144 3584 4550 3584 
Q 5097 3584 5394 3201 
Q 5691 2819 5691 2113 
L 5691 0 
L 5113 0 
L 5113 2094 
Q 5113 2597 4934 2840 
Q 4756 3084 4391 3084 
Q 3944 3084 3684 2787 
Q 3425 2491 3425 1978 
L 3425 0 
L 2847 0 
L 2847 2094 
Q 2847 2600 2669 2842 
Q 2491 3084 2119 3084 
Q 1678 3084 1418 2786 
Q 1159 2488 1159 1978 
L 1159 0 
L 581 0 
L 581 3500 
L 1159 3500 
L 1159 2956 
Q 1356 3278 1631 3431 
Q 1906 3584 2284 3584 
Q 2666 3584 2933 3390 
Q 3200 3197 3328 2828 
z
" transform="scale(0.015625)"/>
       <path id="DejaVuSans-6c" d="M 603 4863 
L 1178 4863 
L 1178 0 
L 603 0 
L 603 4863 
z
" transform="scale(0.015625)"/>
       <path id="DejaVuSans-76" d="M 191 3500 
L 800 3500 
L 1894 563 
L 2988 3500 
L 3597 3500 
L 2284 0 
L 1503 0 
L 191 3500 
z
" transform="scale(0.015625)"/>
       <path id="DejaVuSans-6f" d="M 1959 3097 
Q 1497 3097 1228 2736 
Q 959 2375 959 1747 
Q 959 1119 1226 758 
Q 1494 397 1959 397 
Q 2419 397 2687 759 
Q 2956 1122 2956 1747 
Q 2956 2369 2687 2733 
Q 2419 3097 1959 3097 
z
M 1959 3584 
Q 2709 3584 3137 3096 
Q 3566 2609 3566 1747 
Q 3566 888 3137 398 
Q 2709 -91 1959 -91 
Q 1206 -91 779 398 
Q 353 888 353 1747 
Q 353 2609 779 3096 
Q 1206 3584 1959 3584 
z
" transform="scale(0.015625)"/>
      </defs>
      <use xlink:href="#DejaVuSans-43"/>
      <use xlink:href="#DejaVuSans-75" transform="translate(69.824219 0)"/>
      <use xlink:href="#DejaVuSans-6d" transform="translate(133.203125 0)"/>
      <use xlink:href="#DejaVuSans-75" transform="translate(230.615234 0)"/>
      <use xlink:href="#DejaVuSans-6c" transform="translate(293.994141 0)"/>
      <use xlink:href="#DejaVuSans-61" transform="translate(321.777344 0)"/>
      <use xlink:href="#DejaVuSans-74" transform="translate(383.056641 0)"/>
      <use xlink:href="#DejaVuSans-69" transform="translate(422.265625 0)"/>
      <use xlink:href="#DejaVuSans-76" transform="translate(450.048828 0)"/>
      <use xlink:href="#DejaVuSans-65" transform="translate(509.228516 0)"/>
      <use xlink:href="#DejaVuSans-20" transform="translate(570.751953 0)"/>
      <use xlink:href="#DejaVuSans-74" transform="translate(602.539062 0)"/>
      <use xlink:href="#DejaVuSans-6f" transform="translate(641.748047 0)"/>
      <use xlink:href="#DejaVuSans-74" transform="translate(702.929688 0)"/>
      <use xlink:href="#DejaVuSans-61" transform="translate(742.138672 0)"/>
      <use xlink:href="#DejaVuSans-6c" transform="translate(803.417969 0)"/>
     </g>
    </g>
    <g id="patch_51">
     <path d="M 60.80625 54.030859 
L 79.80625 54.030859 
L 79.80625 47.380859 
L 60.80625 47.380859 
z
" style="fill: #7a53ec; opacity: 0.18"/>
    </g>
    <g id="text_19">
     <!-- Added that year -->
     <g style="fill: #665a75" transform="translate(87.40625 54.030859) scale(0.095 -0.095)">
      <defs>
       <path id="DejaVuSans-41" d="M 2188 4044 
L 1331 1722 
L 3047 1722 
L 2188 4044 
z
M 1831 4666 
L 2547 4666 
L 4325 0 
L 3669 0 
L 3244 1197 
L 1141 1197 
L 716 0 
L 50 0 
L 1831 4666 
z
" transform="scale(0.015625)"/>
       <path id="DejaVuSans-64" d="M 2906 2969 
L 2906 4863 
L 3481 4863 
L 3481 0 
L 2906 0 
L 2906 525 
Q 2725 213 2448 61 
Q 2172 -91 1784 -91 
Q 1150 -91 751 415 
Q 353 922 353 1747 
Q 353 2572 751 3078 
Q 1150 3584 1784 3584 
Q 2172 3584 2448 3432 
Q 2725 3281 2906 2969 
z
M 947 1747 
Q 947 1113 1208 752 
Q 1469 391 1925 391 
Q 2381 391 2643 752 
Q 2906 1113 2906 1747 
Q 2906 2381 2643 2742 
Q 2381 3103 1925 3103 
Q 1469 3103 1208 2742 
Q 947 2381 947 1747 
z
" transform="scale(0.015625)"/>
       <path id="DejaVuSans-79" d="M 2059 -325 
Q 1816 -950 1584 -1140 
Q 1353 -1331 966 -1331 
L 506 -1331 
L 506 -850 
L 844 -850 
Q 1081 -850 1212 -737 
Q 1344 -625 1503 -206 
L 1606 56 
L 191 3500 
L 800 3500 
L 1894 763 
L 2988 3500 
L 3597 3500 
L 2059 -325 
z
" transform="scale(0.015625)"/>
      </defs>
      <use xlink:href="#DejaVuSans-41"/>
      <use xlink:href="#DejaVuSans-64" transform="translate(66.658203 0)"/>
      <use xlink:href="#DejaVuSans-64" transform="translate(130.134766 0)"/>
      <use xlink:href="#DejaVuSans-65" transform="translate(193.611328 0)"/>
      <use xlink:href="#DejaVuSans-64" transform="translate(255.134766 0)"/>
      <use xlink:href="#DejaVuSans-20" transform="translate(318.611328 0)"/>
      <use xlink:href="#DejaVuSans-74" transform="translate(350.398438 0)"/>
      <use xlink:href="#DejaVuSans-68" transform="translate(389.607422 0)"/>
      <use xlink:href="#DejaVuSans-61" transform="translate(452.986328 0)"/>
      <use xlink:href="#DejaVuSans-74" transform="translate(514.265625 0)"/>
      <use xlink:href="#DejaVuSans-20" transform="translate(553.474609 0)"/>
      <use xlink:href="#DejaVuSans-79" transform="translate(585.261719 0)"/>
      <use xlink:href="#DejaVuSans-65" transform="translate(644.441406 0)"/>
      <use xlink:href="#DejaVuSans-61" transform="translate(705.964844 0)"/>
      <use xlink:href="#DejaVuSans-72" transform="translate(767.244141 0)"/>
     </g>
    </g>
   </g>
  </g>
 </g>
 <defs>
  <clipPath id="pe7fa4507f9">
   <rect x="52.25625" y="24.318125" width="401.76" height="221.76"/>
  </clipPath>
 </defs>
</svg>
