<?xml version="1.0" encoding="UTF-8" standalone="no"?>
<svg
   version="1.1"
   width="602.68048"
   height="537.28125"
   viewBox="0 0 602.68048 537.28125"
   id="svg40"
   sodipodi:docname="Immunoglobulin_basic_unit.svg"
   inkscape:version="1.3.2 (091e20e, 2023-11-25, custom)"
   xmlns:inkscape="http://www.inkscape.org/namespaces/inkscape"
   xmlns:sodipodi="http://sodipodi.sourceforge.net/DTD/sodipodi-0.dtd"
   xmlns="http://www.w3.org/2000/svg"
   xmlns:svg="http://www.w3.org/2000/svg">
  <defs
     id="defs40" />
  <rect
     width="20"
     height="100"
     x="223.43913"
     y="220.96004"
     style="font-size:12px;font-family:Helvetica, Arial, sans-serif;fill:#0000ff;stroke:#000000;stroke-width:1"
     id="rect2" />
  <rect
     width="20"
     height="100"
     x="223.43913"
     y="320.96005"
     style="font-size:12px;font-family:Helvetica, Arial, sans-serif;fill:#000080;stroke:#000000;stroke-width:1"
     id="rect3" />
  <g
     transform="rotate(-45,208.7363,206.32862)"
     id="g9"
     style="font-size:12px;font-family:Helvetica, Arial, sans-serif;stroke-width:1">
    <!-- LEFT: CH1 and VH -->
    <rect
       width="20"
       height="110"
       x="220"
       y="90"
       style="fill:#4169e1;stroke:#000000"
       id="rect4" />
    <path
       d="m 220,90 h 20 V 60 a 5,40 10 0 0 5,-40 h -20 a 5,40 10 0 0 0,5 5,5 0 0 1 0,10 v 5 l 5,5 -10,10 v 30 z"
       style="fill:#add8e6;stroke:#000000"
       id="path4" />
    <!-- LEFT: NH2 bond of Heavy chain -->
    <line
       x1="240"
       y1="20"
       x2="240"
       y2="10"
       style="fill:none;stroke:#000000"
       transform="rotate(45,240,20)"
       id="line4" />
    <!-- LEFT: CL and VL: rotate -45 -->
    <rect
       width="20"
       height="110"
       x="175"
       y="90"
       style="fill:#008000;stroke:#000000"
       id="rect5" />
    <path
       d="M 195,90 H 175 V 60 a 5,40 -10 0 1 -5,-40 h 20 v 5 h -5 v 5 h 5 v 10 a 5.5901699,5.5901699 0 0 0 5,10 z"
       style="fill:#32cd32;stroke:#000000"
       id="path5" />
    <!-- LEFT: NH2 bond of Light chain -->
    <line
       x1="175"
       y1="20"
       x2="175"
       y2="10"
       style="fill:none;stroke:#000000"
       transform="rotate(-45,175,20)"
       id="line5" />
    <line
       x1="180"
       y1="200"
       x2="180"
       y2="210"
       style="fill:none;stroke:#000000"
       transform="rotate(45,180,200)"
       id="line6" />
    <!-- LEFT: SS bond of Fab -->
    <g
       id="SSbond1"
       transform="translate(195,190)">
      <text
         x="5"
         y="0"
         style="fill:#ff0000;stroke:none"
         id="text6">S</text>
      <text
         x="15"
         y="0"
         style="fill:#ff0000;stroke:none"
         id="text7">S</text>
      <line
         x1="0"
         y1="-3"
         x2="5"
         y2="-3"
         style="fill:none;stroke:#ff0000"
         id="line7" />
      <line
         x1="10"
         y1="-3"
         x2="15"
         y2="-3"
         style="fill:none;stroke:#ff0000"
         id="line8" />
      <line
         x1="20"
         y1="-3"
         x2="25"
         y2="-3"
         style="fill:none;stroke:#ff0000"
         id="line9" />
    </g>
  </g>
  <path
     d="m 233.43913,220.96004 v -4 c 15,0 15,-4 0,-4 -15,1 -15,-3 0,-4 15,0 15,-4 0,-4 -10,2 -10,-2 0,-4.5 7.07107,-7.07107 3.07107,-11.07107 -4.24264,-3.74264 -7.07107,7.07107 -11.07107,3.07107 -2.82843,-2.82843 10.6066,-7.07107 3.07107,-14.6066 -2.82843,-2.82843 l -4.24264,-4.24264"
     style="font-size:12px;font-family:Helvetica, Arial, sans-serif;fill:none;stroke:#00008b;stroke-width:2"
     id="path9" />
  <line
     x1="233.43913"
     y1="420.96005"
     x2="233.43913"
     y2="430.96005"
     style="font-size:12px;font-family:Helvetica, Arial, sans-serif;fill:none;stroke:#000000;stroke-width:1"
     id="line10" />
  <rect
     width="20"
     height="100"
     x="273.43915"
     y="220.96004"
     style="font-size:12px;font-family:Helvetica, Arial, sans-serif;fill:#0000ff;stroke:#000000;stroke-width:1"
     id="rect10" />
  <rect
     width="20"
     height="100"
     x="273.43915"
     y="320.96005"
     style="font-size:12px;font-family:Helvetica, Arial, sans-serif;fill:#000080;stroke:#000000;stroke-width:1"
     id="rect11" />
  <g
     transform="rotate(45,304.70283,214.63142)"
     id="g18"
     style="font-size:12px;font-family:Helvetica, Arial, sans-serif;stroke-width:1">
    <!-- RIGHT: CH1 and VH -->
    <rect
       width="20"
       height="110"
       x="270"
       y="90"
       style="fill:#4169e1;stroke:#000000"
       id="rect12" />
    <path
       d="M 290,90 H 270 V 60 a 5,40 -10 0 1 -5,-40 h 20 a 5,40 -10 0 0 0,5 5,5 0 0 0 0,10 v 5 l -5,5 10,10 v 30 z"
       style="fill:#add8e6;stroke:#000000"
       id="path12" />
    <!-- RIGHT: NH2 bond of Heavy chain -->
    <line
       x1="270"
       y1="20"
       x2="270"
       y2="10"
       style="fill:none;stroke:#000000"
       transform="rotate(-45,270,20)"
       id="line12" />
    <!-- RIGHT: CL and VL: rotate -45 -->
    <rect
       width="20"
       height="110"
       x="315"
       y="90"
       style="fill:#008000;stroke:#000000"
       id="rect13" />
    <path
       d="m 315,90 h 20 V 60 a 5,40 10 0 0 5,-40 h -20 v 5 h 5 v 5 h -5 v 10 a 5.5901699,5.5901699 0 0 1 -5,10 z"
       style="fill:#32cd32;stroke:#000000"
       id="path13" />
    <!-- RIGHT: NH2 bond of Light chain -->
    <line
       x1="335"
       y1="20"
       x2="335"
       y2="10"
       style="fill:none;stroke:#000000"
       transform="rotate(45,335,20)"
       id="line13" />
    <line
       x1="330"
       y1="200"
       x2="330"
       y2="210"
       style="fill:none;stroke:#000000"
       transform="rotate(-45,330,200)"
       id="line14" />
    <!-- RIGHT: SS bond of Fab -->
    <g
       transform="translate(290,190)"
       id="g17">
      <text
         x="5"
         y="0"
         style="fill:#ff0000;stroke:none"
         id="text14">S</text>
      <text
         x="15"
         y="0"
         style="fill:#ff0000;stroke:none"
         id="text15">S</text>
      <line
         x1="0"
         y1="-3"
         x2="5"
         y2="-3"
         style="fill:none;stroke:#ff0000"
         id="line15" />
      <line
         x1="10"
         y1="-3"
         x2="15"
         y2="-3"
         style="fill:none;stroke:#ff0000"
         id="line16" />
      <line
         x1="20"
         y1="-3"
         x2="25"
         y2="-3"
         style="fill:none;stroke:#ff0000"
         id="line17" />
    </g>
  </g>
  <path
     d="m 283.43913,220.96004 v -4 c -15,0 -15,-4 0,-4 15,1 15,-3 0,-4 -15,0 -15,-4 0,-4 10,2 10,-2 0,-4.5 -7.07107,-7.07107 -3.07107,-11.07107 4.24264,-3.74264 7.07107,7.07107 11.07107,3.07107 2.82843,-2.82843 -10.6066,-7.07107 -3.07107,-14.6066 2.82843,-2.82843 l 4.24264,-4.24264"
     style="font-size:12px;font-family:Helvetica, Arial, sans-serif;fill:none;stroke:#00008b;stroke-width:2"
     id="path18" />
  <line
     x1="283.43915"
     y1="420.96005"
     x2="283.43915"
     y2="430.96005"
     style="font-size:12px;font-family:Helvetica, Arial, sans-serif;fill:none;stroke:#000000;stroke-width:1"
     id="line18" />
  <g
     transform="translate(243.43913,216.96004)"
     id="g21"
     style="font-size:12px;font-family:Helvetica, Arial, sans-serif;stroke-width:1">
    <text
       x="7"
       y="0"
       style="fill:#ff0000;stroke:none"
       id="text18">S</text>
    <text
       x="17"
       y="0"
       style="fill:#ff0000;stroke:none"
       id="text19">S</text>
    <line
       x1="0"
       y1="-3"
       x2="7"
       y2="-3"
       style="fill:none;stroke:#ff0000"
       id="line19" />
    <line
       x1="13"
       y1="-3"
       x2="17"
       y2="-3"
       style="fill:none;stroke:#ff0000"
       id="line20" />
    <line
       x1="23"
       y1="-3"
       x2="30"
       y2="-3"
       style="fill:none;stroke:#ff0000"
       id="line21" />
  </g>
  <g
     transform="translate(243.43913,208.96004)"
     id="g24"
     style="font-size:12px;font-family:Helvetica, Arial, sans-serif;stroke-width:1">
    <text
       x="7"
       y="0"
       style="fill:#ff0000;stroke:none"
       id="text21">S</text>
    <text
       x="17"
       y="0"
       style="fill:#ff0000;stroke:none"
       id="text22">S</text>
    <line
       x1="0"
       y1="-3"
       x2="7"
       y2="-3"
       style="fill:none;stroke:#ff0000"
       id="line22" />
    <line
       x1="13"
       y1="-3"
       x2="17"
       y2="-3"
       style="fill:none;stroke:#ff0000"
       id="line23" />
    <line
       x1="23"
       y1="-3"
       x2="30"
       y2="-3"
       style="fill:none;stroke:#ff0000"
       id="line24" />
  </g>
  <g
     style="font-size:16px;font-family:Helvetica, Arial, sans-serif;fill:#000000;stroke:none;stroke-width:1"
     id="g31"
     transform="translate(3.4391299,-19.039962)">
    <!-- COOH -->
    <text
       x="276"
       y="462"
       id="text24">COOH</text>
    <text
       x="198"
       y="462"
       id="text25">HOOC</text>
    <text
       x="325"
       y="264"
       id="text26">COOH</text>
    <text
       x="149"
       y="264"
       id="text27">HOOC</text>
    <text
       x="14"
       y="117"
       id="text28">H₂N</text>
    <text
       x="91"
       y="60"
       id="text29">NH₂</text>
    <text
       x="471"
       y="122"
       id="text30">NH₂</text>
    <text
       x="397"
       y="60"
       id="text31">H₂N</text>
  </g>
  <polyline
     points="500 50  510 50  510 235 500 235"
     style="font-size:12px;font-family:Helvetica, Arial, sans-serif;fill:none;stroke:#000000;stroke-width:1"
     id="polyline31"
     transform="translate(3.4391299,-19.039962)" />
  <polyline
     points="500 240 510 240 510 440 500 440"
     style="font-size:12px;font-family:Helvetica, Arial, sans-serif;fill:none;stroke:#000000;stroke-width:1"
     id="polyline32"
     transform="translate(3.4391299,-19.039962)" />
  <circle
     cx="83.439125"
     cy="85.960037"
     r="70"
     style="font-size:12px;font-family:Helvetica, Arial, sans-serif;fill:none;stroke:#ff0000;stroke-width:1;stroke-dasharray:5, 5"
     id="circle34" />
  <g
     id="g44"
     transform="translate(-1.5209101)">
    <circle
       cx="554.96002"
       cy="110.96004"
       r="30"
       style="font-size:12px;font-family:Helvetica, Arial, sans-serif;fill:none;stroke:#000000;stroke-width:3"
       id="circle35" />
    <text
       x="540.96002"
       y="129.96004"
       style="font-size:52px;font-family:Helvetica, Arial, sans-serif;fill:#000000;stroke:none;stroke-width:1"
       id="text35">1</text>
  </g>
  <g
     id="g45"
     transform="translate(-1.5209101)">
    <circle
       cx="554.96002"
       cy="300.96005"
       r="30"
       style="font-size:12px;font-family:Helvetica, Arial, sans-serif;fill:none;stroke:#000000;stroke-width:3"
       id="circle36" />
    <text
       x="540.96002"
       y="319.96005"
       style="font-size:52px;font-family:Helvetica, Arial, sans-serif;fill:#000000;stroke:none;stroke-width:1"
       id="text36">2</text>
  </g>
  <g
     id="g42"
     transform="translate(-1.5209101)">
    <circle
       cx="259.96005"
       cy="50.960041"
       r="23"
       style="font-size:12px;font-family:Helvetica, Arial, sans-serif;fill:none;stroke:#00008b;stroke-width:3"
       id="circle37" />
    <text
       x="247.96004"
       y="66.960037"
       style="font-size:46px;font-family:Helvetica, Arial, sans-serif;fill:#00008b;stroke:none;stroke-width:1"
       id="text37">3</text>
  </g>
  <g
     id="g40"
     transform="translate(-1.5209101,-23.574146)">
    <circle
       cx="259.96005"
       cy="510.96005"
       r="23"
       style="font-size:12px;font-family:Helvetica, Arial, sans-serif;fill:none;stroke:#006400;stroke-width:3"
       id="circle38" />
    <text
       x="246.96004"
       y="526.96002"
       style="font-size:46px;font-family:Helvetica, Arial, sans-serif;fill:#006400;stroke:none;stroke-width:1"
       id="text38">4</text>
  </g>
  <g
     id="g43"
     transform="translate(-1.5209101)">
    <circle
       cx="259.96005"
       cy="122.96004"
       r="23"
       style="font-size:12px;font-family:Helvetica, Arial, sans-serif;fill:none;stroke:#696969;stroke-width:3"
       id="circle40" />
    <text
       x="248.96004"
       y="136.96004"
       style="font-size:42px;font-family:Helvetica, Arial, sans-serif;fill:#696969;stroke:none;stroke-width:1"
       id="text40">6</text>
  </g>
  <g
     id="g61"
     transform="translate(-1.5209101)">
    <g
       id="g55">
      <path
         style="fill:none;fill-rule:evenodd;stroke:#000000;stroke-width:1px;stroke-linecap:butt;stroke-linejoin:miter;stroke-dasharray:3, 3;stroke-dashoffset:0;stroke-opacity:1"
         d="M 237.26236,481.36882 C 45.419129,416.22706 59.814052,233.53611 112.34718,166.48588"
         id="path45"
         sodipodi:nodetypes="cc" />
      <path
         id="rect45"
         style="overflow:visible;fill:#008000;stroke:none;stroke-width:1.65645;stroke-dasharray:2.58809, 2.58809;paint-order:markers fill stroke"
         d="m 100.0112,168.82455 16.89313,-8.85659 -2.62418,18.04122 -5.08433,-7.70853 z"
         sodipodi:nodetypes="ccccc" />
    </g>
  </g>
  <g
     id="g53"
     transform="translate(-1.5209101)">
    <path
       style="fill:none;fill-rule:evenodd;stroke:#000000;stroke-width:1px;stroke-linecap:butt;stroke-linejoin:miter;stroke-dasharray:3, 3;stroke-dashoffset:0;stroke-opacity:1"
       d="m 238.98015,59.08628 c -26.13964,9.725247 -51.03419,27.300009 -74.28529,52.7211"
       id="path48"
       sodipodi:nodetypes="cc" />
    <path
       id="path49"
       style="overflow:visible;fill:#0000ff;stroke:none;stroke-width:1.37058;stroke-dasharray:2.14144, 2.14144;paint-order:markers fill stroke"
       d="m 168.68316,98.757933 -4.33944,15.173857 14.17651,-5.1551 -7.0991,-2.82516 z"
       sodipodi:nodetypes="ccccc" />
  </g>
  <g
     id="g54"
     transform="matrix(-1,0,0,1,521.3353,-2.3245811e-6)">
    <path
       style="fill:none;fill-rule:evenodd;stroke:#000000;stroke-width:1px;stroke-linecap:butt;stroke-linejoin:miter;stroke-dasharray:3, 3;stroke-dashoffset:0;stroke-opacity:1"
       d="m 238.98015,59.08628 c -26.13964,9.725247 -51.03419,27.300009 -74.28529,52.7211"
       id="path53"
       sodipodi:nodetypes="cc" />
    <path
       id="path54"
       style="overflow:visible;fill:#0000ff;stroke:none;stroke-width:1.37058;stroke-dasharray:2.14144, 2.14144;paint-order:markers fill stroke"
       d="m 168.68316,98.757933 -4.33944,15.173857 14.17651,-5.1551 -7.0991,-2.82516 z"
       sodipodi:nodetypes="ccccc" />
  </g>
  <g
     id="g41"
     transform="translate(-9.1254728,-23.574146)">
    <circle
       cx="49.960041"
       cy="180.96004"
       r="23"
       style="font-size:12px;font-family:Helvetica, Arial, sans-serif;fill:none;stroke:#8b0000;stroke-width:3"
       id="circle39" />
    <text
       x="36.960041"
       y="196.96004"
       style="font-size:46px;font-family:Helvetica, Arial, sans-serif;fill:#8b0000;stroke:none;stroke-width:1"
       id="text39">5</text>
  </g>
  <g
     id="g58"
     transform="translate(-1.5209101)">
    <path
       style="fill:none;fill-rule:evenodd;stroke:#000000;stroke-width:1px;stroke-linecap:butt;stroke-linejoin:miter;stroke-dasharray:3, 3;stroke-dashoffset:0;stroke-opacity:1"
       d="m 259.59409,146.86165 c -0.86662,12.145 0.85616,38.59221 -18.09315,47.075"
       id="path57"
       sodipodi:nodetypes="cc" />
    <path
       id="path58"
       style="overflow:visible;fill:#0000ff;stroke:none;stroke-width:1.37058;stroke-dasharray:2.14144, 2.14144;paint-order:markers fill stroke"
       d="m 248.32792,180.19615 -7.6176,13.82204 14.9696,-1.85996 -6.28917,-4.33878 z"
       sodipodi:nodetypes="ccccc" />
  </g>
  <g
     id="g60"
     transform="matrix(-1,0,0,1,519.05424,0.38022582)">
    <path
       style="fill:none;fill-rule:evenodd;stroke:#000000;stroke-width:1px;stroke-linecap:butt;stroke-linejoin:miter;stroke-dasharray:3, 3;stroke-dashoffset:0;stroke-opacity:1"
       d="m 259.59409,146.86165 c -0.86662,12.145 0.85616,38.59221 -18.09315,47.075"
       id="path59"
       sodipodi:nodetypes="cc" />
    <path
       id="path60"
       style="overflow:visible;fill:#0000ff;stroke:none;stroke-width:1.37058;stroke-dasharray:2.14144, 2.14144;paint-order:markers fill stroke"
       d="m 248.32792,180.19615 -7.6176,13.82204 14.9696,-1.85996 -6.28917,-4.33878 z"
       sodipodi:nodetypes="ccccc" />
  </g>
  <g
     id="g63"
     transform="matrix(-1,0,0,1,518.92841,-2.3245811e-6)">
    <g
       id="g62">
      <path
         style="fill:none;fill-rule:evenodd;stroke:#000000;stroke-width:1px;stroke-linecap:butt;stroke-linejoin:miter;stroke-dasharray:3, 3;stroke-dashoffset:0;stroke-opacity:1"
         d="M 237.26236,481.36882 C 45.419129,416.22706 59.814052,233.53611 112.34718,166.48588"
         id="path61"
         sodipodi:nodetypes="cc" />
      <path
         id="path62"
         style="overflow:visible;fill:#008000;stroke:none;stroke-width:1.65645;stroke-dasharray:2.58809, 2.58809;paint-order:markers fill stroke"
         d="m 100.0112,168.82455 16.89313,-8.85659 -2.62418,18.04122 -5.08433,-7.70853 z"
         sodipodi:nodetypes="ccccc" />
    </g>
  </g>
</svg>
