<?xml version="1.0" encoding="utf-8" standalone="no"?>
<!DOCTYPE svg PUBLIC "-//W3C//DTD SVG 1.1//EN"
  "http://www.w3.org/Graphics/SVG/1.1/DTD/svg11.dtd">
<svg xmlns:xlink="http://www.w3.org/1999/xlink" width="496.722578pt" height="225.21697pt" viewBox="0 0 496.722578 225.21697" xmlns="http://www.w3.org/2000/svg" version="1.1">
 <metadata>
  <rdf:RDF xmlns:dc="http://purl.org/dc/elements/1.1/" xmlns:cc="http://creativecommons.org/ns#" xmlns:rdf="http://www.w3.org/1999/02/22-rdf-syntax-ns#">
   <cc:Work>
    <dc:type rdf:resource="http://purl.org/dc/dcmitype/StillImage"/>
    <dc:date>2026-06-20T20:58:25.566798</dc:date>
    <dc:format>image/svg+xml</dc:format>
    <dc:creator>
     <cc:Agent>
      <dc:title>Matplotlib v3.10.8, https://matplotlib.org/</dc:title>
     </cc:Agent>
    </dc:creator>
   </cc:Work>
  </rdf:RDF>
 </metadata>
 <defs>
  <style type="text/css">*{stroke-linejoin: round; stroke-linecap: butt}</style>
 </defs>
 <g id="figure_1">
  <g id="patch_1">
   <path d="M 0 225.21697 
L 496.722578 225.21697 
L 496.722578 0 
L 0 0 
L 0 225.21697 
z
" style="fill: none"/>
  </g>
  <g id="axes_1">
   <g id="patch_2">
    <path d="M 20.802578 218.01697 
L 99.446873 218.01697 
L 99.446873 29.52097 
L 20.802578 29.52097 
z
" style="fill: #ffffff"/>
   </g>
   <g id="FillBetweenPolyCollection_1">
    <defs>
     <path id="m2d788426e3" d="M 20.802578 -7.2 
L 20.802578 -219.870218 
L 21.065603 -215.316941 
L 21.328627 -210.881998 
L 21.591651 -206.563619 
L 21.854676 -202.36004 
L 22.1177 -198.269513 
L 22.380725 -194.2903 
L 22.643749 -190.420676 
L 22.906773 -186.658928 
L 23.169798 -183.003354 
L 23.432822 -179.452265 
L 23.695847 -176.003983 
L 23.958871 -172.656843 
L 24.221895 -169.409192 
L 24.48492 -166.259388 
L 24.747944 -163.205802 
L 25.010969 -160.246816 
L 25.273993 -157.380824 
L 25.537017 -154.606234 
L 25.800042 -151.921463 
L 26.063066 -149.324942 
L 26.326091 -146.815113 
L 26.589115 -144.390431 
L 26.852139 -142.049362 
L 27.115164 -139.790384 
L 27.378188 -137.611989 
L 27.641212 -135.512677 
L 27.904237 -133.490963 
L 28.167261 -131.545375 
L 28.430286 -129.674449 
L 28.69331 -127.876736 
L 28.956334 -126.150798 
L 29.219359 -124.49521 
L 29.482383 -122.908558 
L 29.745408 -121.38944 
L 30.008432 -119.936465 
L 30.271456 -118.548257 
L 30.534481 -117.223449 
L 30.797505 -115.960688 
L 31.06053 -114.75863 
L 31.323554 -113.615948 
L 31.586578 -112.531321 
L 31.849603 -111.503446 
L 32.112627 -110.531026 
L 32.375652 -109.612782 
L 32.638676 -108.747441 
L 32.9017 -107.933747 
L 33.164725 -107.170454 
L 33.427749 -106.456326 
L 33.690774 -105.790143 
L 33.953798 -105.170694 
L 34.216822 -104.59678 
L 34.479847 -104.067216 
L 34.742871 -103.580827 
L 35.005896 -103.136452 
L 35.26892 -102.73294 
L 35.531944 -102.369153 
L 35.794969 -102.043964 
L 36.057993 -101.756259 
L 36.321018 -101.504936 
L 36.584042 -101.288905 
L 36.847066 -101.107087 
L 37.110091 -100.958416 
L 37.373115 -100.841837 
L 37.63614 -100.756309 
L 37.899164 -100.700801 
L 38.162188 -100.674293 
L 38.425213 -100.675781 
L 38.688237 -100.704269 
L 38.951262 -100.758775 
L 39.214286 -100.838328 
L 39.47731 -100.94197 
L 39.740335 -101.068755 
L 40.003359 -101.217747 
L 40.266384 -101.388025 
L 40.529408 -101.578677 
L 40.792432 -101.788805 
L 41.055457 -102.017523 
L 41.318481 -102.263955 
L 41.581506 -102.52724 
L 41.84453 -102.806525 
L 42.107554 -103.100974 
L 42.370579 -103.409758 
L 42.633603 -103.732063 
L 42.896628 -104.067087 
L 43.159652 -104.414039 
L 43.422676 -104.772139 
L 43.685701 -105.140622 
L 43.948725 -105.518732 
L 44.21175 -105.905726 
L 44.474774 -106.300873 
L 44.737798 -106.703455 
L 45.000823 -107.112765 
L 45.263847 -107.528107 
L 45.526872 -107.9488 
L 45.789896 -108.374171 
L 46.05292 -108.803562 
L 46.315945 -109.236326 
L 46.578969 -109.671827 
L 46.841994 -110.109444 
L 47.105018 -110.548564 
L 47.368042 -110.988589 
L 47.631067 -111.428931 
L 47.894091 -111.869016 
L 48.157116 -112.30828 
L 48.42014 -112.746172 
L 48.683164 -113.182153 
L 48.946189 -113.615697 
L 49.209213 -114.046286 
L 49.472238 -114.473419 
L 49.735262 -114.896605 
L 49.998286 -115.315363 
L 50.261311 -115.729226 
L 50.524335 -116.13774 
L 50.78736 -116.540461 
L 51.050384 -116.936958 
L 51.313408 -117.326811 
L 51.576433 -117.709613 
L 51.839457 -118.084968 
L 52.102482 -118.452494 
L 52.365506 -118.811818 
L 52.62853 -119.162582 
L 52.891555 -119.504437 
L 53.154579 -119.837048 
L 53.417604 -120.160093 
L 53.680628 -120.473259 
L 53.943652 -120.776246 
L 54.206677 -121.068768 
L 54.469701 -121.350548 
L 54.732726 -121.621323 
L 54.99575 -121.880842 
L 55.258774 -122.128864 
L 55.521799 -122.365163 
L 55.784823 -122.589522 
L 56.047848 -122.801738 
L 56.310872 -123.001619 
L 56.573896 -123.188985 
L 56.836921 -123.363669 
L 57.099945 -123.525515 
L 57.36297 -123.674378 
L 57.625994 -123.810129 
L 57.889018 -123.932645 
L 58.152043 -124.04182 
L 58.415067 -124.137558 
L 58.678092 -124.219775 
L 58.941116 -124.288399 
L 59.20414 -124.34337 
L 59.467165 -124.38464 
L 59.730189 -124.412174 
L 59.993214 -124.425946 
L 60.256238 -124.425946 
L 60.519262 -124.412174 
L 60.782287 -124.38464 
L 61.045311 -124.34337 
L 61.308336 -124.288399 
L 61.57136 -124.219775 
L 61.834384 -124.137558 
L 62.097409 -124.04182 
L 62.360433 -123.932645 
L 62.623458 -123.810129 
L 62.886482 -123.674378 
L 63.149506 -123.525515 
L 63.412531 -123.363669 
L 63.675555 -123.188985 
L 63.93858 -123.001619 
L 64.201604 -122.801738 
L 64.464628 -122.589522 
L 64.727653 -122.365163 
L 64.990677 -122.128864 
L 65.253702 -121.880842 
L 65.516726 -121.621323 
L 65.77975 -121.350548 
L 66.042775 -121.068768 
L 66.305799 -120.776246 
L 66.568824 -120.473259 
L 66.831848 -120.160093 
L 67.094872 -119.837048 
L 67.357897 -119.504437 
L 67.620921 -119.162582 
L 67.883946 -118.811818 
L 68.14697 -118.452494 
L 68.409994 -118.084968 
L 68.673019 -117.709613 
L 68.936043 -117.326811 
L 69.199068 -116.936958 
L 69.462092 -116.540461 
L 69.725116 -116.13774 
L 69.988141 -115.729226 
L 70.251165 -115.315363 
L 70.51419 -114.896605 
L 70.777214 -114.473419 
L 71.040238 -114.046286 
L 71.303263 -113.615697 
L 71.566287 -113.182153 
L 71.829312 -112.746172 
L 72.092336 -112.30828 
L 72.35536 -111.869016 
L 72.618385 -111.428931 
L 72.881409 -110.988589 
L 73.144434 -110.548564 
L 73.407458 -110.109444 
L 73.670482 -109.671827 
L 73.933507 -109.236326 
L 74.196531 -108.803562 
L 74.459556 -108.374171 
L 74.72258 -107.9488 
L 74.985604 -107.528107 
L 75.248629 -107.112765 
L 75.511653 -106.703455 
L 75.774678 -106.300873 
L 76.037702 -105.905726 
L 76.300726 -105.518732 
L 76.563751 -105.140622 
L 76.826775 -104.772139 
L 77.0898 -104.414039 
L 77.352824 -104.067087 
L 77.615848 -103.732063 
L 77.878873 -103.409758 
L 78.141897 -103.100974 
L 78.404922 -102.806525 
L 78.667946 -102.52724 
L 78.93097 -102.263955 
L 79.193995 -102.017523 
L 79.457019 -101.788805 
L 79.720044 -101.578677 
L 79.983068 -101.388025 
L 80.246092 -101.217747 
L 80.509117 -101.068755 
L 80.772141 -100.94197 
L 81.035165 -100.838328 
L 81.29819 -100.758775 
L 81.561214 -100.704269 
L 81.824239 -100.675781 
L 82.087263 -100.674293 
L 82.350287 -100.700801 
L 82.613312 -100.756309 
L 82.876336 -100.841837 
L 83.139361 -100.958416 
L 83.402385 -101.107087 
L 83.665409 -101.288905 
L 83.928434 -101.504936 
L 84.191458 -101.756259 
L 84.454483 -102.043964 
L 84.717507 -102.369153 
L 84.980531 -102.73294 
L 85.243556 -103.136452 
L 85.50658 -103.580827 
L 85.769605 -104.067216 
L 86.032629 -104.59678 
L 86.295653 -105.170694 
L 86.558678 -105.790143 
L 86.821702 -106.456326 
L 87.084727 -107.170454 
L 87.347751 -107.933747 
L 87.610775 -108.747441 
L 87.8738 -109.612782 
L 88.136824 -110.531026 
L 88.399849 -111.503446 
L 88.662873 -112.531321 
L 88.925897 -113.615948 
L 89.188922 -114.75863 
L 89.451946 -115.960688 
L 89.714971 -117.223449 
L 89.977995 -118.548257 
L 90.241019 -119.936465 
L 90.504044 -121.38944 
L 90.767068 -122.908558 
L 91.030093 -124.49521 
L 91.293117 -126.150798 
L 91.556141 -127.876736 
L 91.819166 -129.674449 
L 92.08219 -131.545375 
L 92.345215 -133.490963 
L 92.608239 -135.512677 
L 92.871263 -137.611989 
L 93.134288 -139.790384 
L 93.397312 -142.049362 
L 93.660337 -144.390431 
L 93.923361 -146.815113 
L 94.186385 -149.324942 
L 94.44941 -151.921463 
L 94.712434 -154.606234 
L 94.975459 -157.380824 
L 95.238483 -160.246816 
L 95.501507 -163.205802 
L 95.764532 -166.259388 
L 96.027556 -169.409192 
L 96.290581 -172.656843 
L 96.553605 -176.003983 
L 96.816629 -179.452265 
L 97.079654 -183.003354 
L 97.342678 -186.658928 
L 97.605703 -190.420676 
L 97.868727 -194.2903 
L 98.131751 -198.269513 
L 98.394776 -202.36004 
L 98.6578 -206.563619 
L 98.920825 -210.881998 
L 99.183849 -215.316941 
L 99.446873 -219.870218 
L 99.446873 -7.2 
L 99.446873 -7.2 
L 99.183849 -7.2 
L 98.920825 -7.2 
L 98.6578 -7.2 
L 98.394776 -7.2 
L 98.131751 -7.2 
L 97.868727 -7.2 
L 97.605703 -7.2 
L 97.342678 -7.2 
L 97.079654 -7.2 
L 96.816629 -7.2 
L 96.553605 -7.2 
L 96.290581 -7.2 
L 96.027556 -7.2 
L 95.764532 -7.2 
L 95.501507 -7.2 
L 95.238483 -7.2 
L 94.975459 -7.2 
L 94.712434 -7.2 
L 94.44941 -7.2 
L 94.186385 -7.2 
L 93.923361 -7.2 
L 93.660337 -7.2 
L 93.397312 -7.2 
L 93.134288 -7.2 
L 92.871263 -7.2 
L 92.608239 -7.2 
L 92.345215 -7.2 
L 92.08219 -7.2 
L 91.819166 -7.2 
L 91.556141 -7.2 
L 91.293117 -7.2 
L 91.030093 -7.2 
L 90.767068 -7.2 
L 90.504044 -7.2 
L 90.241019 -7.2 
L 89.977995 -7.2 
L 89.714971 -7.2 
L 89.451946 -7.2 
L 89.188922 -7.2 
L 88.925897 -7.2 
L 88.662873 -7.2 
L 88.399849 -7.2 
L 88.136824 -7.2 
L 87.8738 -7.2 
L 87.610775 -7.2 
L 87.347751 -7.2 
L 87.084727 -7.2 
L 86.821702 -7.2 
L 86.558678 -7.2 
L 86.295653 -7.2 
L 86.032629 -7.2 
L 85.769605 -7.2 
L 85.50658 -7.2 
L 85.243556 -7.2 
L 84.980531 -7.2 
L 84.717507 -7.2 
L 84.454483 -7.2 
L 84.191458 -7.2 
L 83.928434 -7.2 
L 83.665409 -7.2 
L 83.402385 -7.2 
L 83.139361 -7.2 
L 82.876336 -7.2 
L 82.613312 -7.2 
L 82.350287 -7.2 
L 82.087263 -7.2 
L 81.824239 -7.2 
L 81.561214 -7.2 
L 81.29819 -7.2 
L 81.035165 -7.2 
L 80.772141 -7.2 
L 80.509117 -7.2 
L 80.246092 -7.2 
L 79.983068 -7.2 
L 79.720044 -7.2 
L 79.457019 -7.2 
L 79.193995 -7.2 
L 78.93097 -7.2 
L 78.667946 -7.2 
L 78.404922 -7.2 
L 78.141897 -7.2 
L 77.878873 -7.2 
L 77.615848 -7.2 
L 77.352824 -7.2 
L 77.0898 -7.2 
L 76.826775 -7.2 
L 76.563751 -7.2 
L 76.300726 -7.2 
L 76.037702 -7.2 
L 75.774678 -7.2 
L 75.511653 -7.2 
L 75.248629 -7.2 
L 74.985604 -7.2 
L 74.72258 -7.2 
L 74.459556 -7.2 
L 74.196531 -7.2 
L 73.933507 -7.2 
L 73.670482 -7.2 
L 73.407458 -7.2 
L 73.144434 -7.2 
L 72.881409 -7.2 
L 72.618385 -7.2 
L 72.35536 -7.2 
L 72.092336 -7.2 
L 71.829312 -7.2 
L 71.566287 -7.2 
L 71.303263 -7.2 
L 71.040238 -7.2 
L 70.777214 -7.2 
L 70.51419 -7.2 
L 70.251165 -7.2 
L 69.988141 -7.2 
L 69.725116 -7.2 
L 69.462092 -7.2 
L 69.199068 -7.2 
L 68.936043 -7.2 
L 68.673019 -7.2 
L 68.409994 -7.2 
L 68.14697 -7.2 
L 67.883946 -7.2 
L 67.620921 -7.2 
L 67.357897 -7.2 
L 67.094872 -7.2 
L 66.831848 -7.2 
L 66.568824 -7.2 
L 66.305799 -7.2 
L 66.042775 -7.2 
L 65.77975 -7.2 
L 65.516726 -7.2 
L 65.253702 -7.2 
L 64.990677 -7.2 
L 64.727653 -7.2 
L 64.464628 -7.2 
L 64.201604 -7.2 
L 63.93858 -7.2 
L 63.675555 -7.2 
L 63.412531 -7.2 
L 63.149506 -7.2 
L 62.886482 -7.2 
L 62.623458 -7.2 
L 62.360433 -7.2 
L 62.097409 -7.2 
L 61.834384 -7.2 
L 61.57136 -7.2 
L 61.308336 -7.2 
L 61.045311 -7.2 
L 60.782287 -7.2 
L 60.519262 -7.2 
L 60.256238 -7.2 
L 59.993214 -7.2 
L 59.730189 -7.2 
L 59.467165 -7.2 
L 59.20414 -7.2 
L 58.941116 -7.2 
L 58.678092 -7.2 
L 58.415067 -7.2 
L 58.152043 -7.2 
L 57.889018 -7.2 
L 57.625994 -7.2 
L 57.36297 -7.2 
L 57.099945 -7.2 
L 56.836921 -7.2 
L 56.573896 -7.2 
L 56.310872 -7.2 
L 56.047848 -7.2 
L 55.784823 -7.2 
L 55.521799 -7.2 
L 55.258774 -7.2 
L 54.99575 -7.2 
L 54.732726 -7.2 
L 54.469701 -7.2 
L 54.206677 -7.2 
L 53.943652 -7.2 
L 53.680628 -7.2 
L 53.417604 -7.2 
L 53.154579 -7.2 
L 52.891555 -7.2 
L 52.62853 -7.2 
L 52.365506 -7.2 
L 52.102482 -7.2 
L 51.839457 -7.2 
L 51.576433 -7.2 
L 51.313408 -7.2 
L 51.050384 -7.2 
L 50.78736 -7.2 
L 50.524335 -7.2 
L 50.261311 -7.2 
L 49.998286 -7.2 
L 49.735262 -7.2 
L 49.472238 -7.2 
L 49.209213 -7.2 
L 48.946189 -7.2 
L 48.683164 -7.2 
L 48.42014 -7.2 
L 48.157116 -7.2 
L 47.894091 -7.2 
L 47.631067 -7.2 
L 47.368042 -7.2 
L 47.105018 -7.2 
L 46.841994 -7.2 
L 46.578969 -7.2 
L 46.315945 -7.2 
L 46.05292 -7.2 
L 45.789896 -7.2 
L 45.526872 -7.2 
L 45.263847 -7.2 
L 45.000823 -7.2 
L 44.737798 -7.2 
L 44.474774 -7.2 
L 44.21175 -7.2 
L 43.948725 -7.2 
L 43.685701 -7.2 
L 43.422676 -7.2 
L 43.159652 -7.2 
L 42.896628 -7.2 
L 42.633603 -7.2 
L 42.370579 -7.2 
L 42.107554 -7.2 
L 41.84453 -7.2 
L 41.581506 -7.2 
L 41.318481 -7.2 
L 41.055457 -7.2 
L 40.792432 -7.2 
L 40.529408 -7.2 
L 40.266384 -7.2 
L 40.003359 -7.2 
L 39.740335 -7.2 
L 39.47731 -7.2 
L 39.214286 -7.2 
L 38.951262 -7.2 
L 38.688237 -7.2 
L 38.425213 -7.2 
L 38.162188 -7.2 
L 37.899164 -7.2 
L 37.63614 -7.2 
L 37.373115 -7.2 
L 37.110091 -7.2 
L 36.847066 -7.2 
L 36.584042 -7.2 
L 36.321018 -7.2 
L 36.057993 -7.2 
L 35.794969 -7.2 
L 35.531944 -7.2 
L 35.26892 -7.2 
L 35.005896 -7.2 
L 34.742871 -7.2 
L 34.479847 -7.2 
L 34.216822 -7.2 
L 33.953798 -7.2 
L 33.690774 -7.2 
L 33.427749 -7.2 
L 33.164725 -7.2 
L 32.9017 -7.2 
L 32.638676 -7.2 
L 32.375652 -7.2 
L 32.112627 -7.2 
L 31.849603 -7.2 
L 31.586578 -7.2 
L 31.323554 -7.2 
L 31.06053 -7.2 
L 30.797505 -7.2 
L 30.534481 -7.2 
L 30.271456 -7.2 
L 30.008432 -7.2 
L 29.745408 -7.2 
L 29.482383 -7.2 
L 29.219359 -7.2 
L 28.956334 -7.2 
L 28.69331 -7.2 
L 28.430286 -7.2 
L 28.167261 -7.2 
L 27.904237 -7.2 
L 27.641212 -7.2 
L 27.378188 -7.2 
L 27.115164 -7.2 
L 26.852139 -7.2 
L 26.589115 -7.2 
L 26.326091 -7.2 
L 26.063066 -7.2 
L 25.800042 -7.2 
L 25.537017 -7.2 
L 25.273993 -7.2 
L 25.010969 -7.2 
L 24.747944 -7.2 
L 24.48492 -7.2 
L 24.221895 -7.2 
L 23.958871 -7.2 
L 23.695847 -7.2 
L 23.432822 -7.2 
L 23.169798 -7.2 
L 22.906773 -7.2 
L 22.643749 -7.2 
L 22.380725 -7.2 
L 22.1177 -7.2 
L 21.854676 -7.2 
L 21.591651 -7.2 
L 21.328627 -7.2 
L 21.065603 -7.2 
L 20.802578 -7.2 
z
" style="stroke: #5b7fa5; stroke-opacity: 0.06"/>
    </defs>
    <g clip-path="url(#pb97545880b)">
     <use xlink:href="#m2d788426e3" x="0" y="225.21697" style="fill: #5b7fa5; fill-opacity: 0.06; stroke: #5b7fa5; stroke-opacity: 0.06"/>
    </g>
   </g>
   <g id="matplotlib.axis_1"/>
   <g id="matplotlib.axis_2">
    <g id="text_1">
     <!-- $U(x, \lambda)$ -->
     <g style="fill: #263238" transform="translate(14.715703 140.62147) rotate(-90)">
      <text>
       <tspan x="0" y="-0.640625" style="font-style: oblique; font-size: 10.5px; font-family: 'DejaVu Sans'; fill: #263238">U</tspan>
       <tspan x="11.781738" y="-0.640625" style="font-style: oblique; font-size: 10.5px; font-family: 'DejaVu Sans'; fill: #263238">x</tspan>
       <tspan x="23.378906" y="-0.640625" style="font-style: oblique; font-size: 10.5px; font-family: 'DejaVu Sans'; fill: #263238">λ</tspan>
       <tspan x="7.685303" y="-0.640625" style="font-size: 10.5px; font-family: 'DejaVu Sans'; fill: #263238">(</tspan>
       <tspan x="17.995605" y="-0.640625" style="font-size: 10.5px; font-family: 'DejaVu Sans'; fill: #263238">,</tspan>
       <tspan x="29.592773" y="-0.640625" style="font-size: 10.5px; font-family: 'DejaVu Sans'; fill: #263238">)</tspan>
      </text>
     </g>
    </g>
   </g>
   <g id="line2d_1">
    <path d="M 20.802578 5.346752 
L 22.380725 30.926671 
L 23.958871 52.560127 
L 25.273993 67.836146 
L 26.589115 80.826539 
L 27.904237 91.726007 
L 29.219359 100.72176 
L 30.534481 107.993521 
L 31.586578 112.685649 
L 32.638676 116.469529 
L 33.690774 119.426827 
L 34.742871 121.636143 
L 35.531944 122.847818 
L 36.321018 123.712034 
L 37.110091 124.258554 
L 37.899164 124.51617 
L 38.688237 124.512701 
L 39.47731 124.275 
L 40.266384 123.828945 
L 41.318481 122.953015 
L 42.633603 121.484907 
L 44.21175 119.311245 
L 46.315945 115.980645 
L 51.313408 107.890159 
L 53.154579 105.379922 
L 54.732726 103.595647 
L 56.047848 102.415233 
L 57.36297 101.542592 
L 58.415067 101.079412 
L 59.467165 100.83233 
L 60.519262 100.804797 
L 61.57136 100.997195 
L 62.623458 101.406842 
L 63.675555 102.027985 
L 64.990677 103.088106 
L 66.305799 104.440724 
L 67.883946 106.405152 
L 69.725116 109.07923 
L 72.35536 113.347955 
L 76.037702 119.311245 
L 77.615848 121.484907 
L 78.93097 122.953015 
L 79.983068 123.828945 
L 81.035165 124.378642 
L 81.824239 124.541189 
L 82.613312 124.460661 
L 83.402385 124.109883 
L 84.191458 123.460712 
L 84.980531 122.48403 
L 85.769605 121.149754 
L 86.558678 119.426827 
L 87.610775 116.469529 
L 88.662873 112.685649 
L 89.714971 107.993521 
L 90.767068 102.308412 
L 91.819166 95.542522 
L 93.134288 85.426586 
L 94.44941 73.295507 
L 95.764532 58.957582 
L 97.079654 42.213617 
L 98.394776 22.856931 
L 99.446873 5.346752 
L 99.446873 5.346752 
" clip-path="url(#pb97545880b)" style="fill: none; stroke: #5b7fa5; stroke-width: 2.5; stroke-linecap: square"/>
   </g>
   <g id="text_2">
    <!-- $\lambda=0$ -->
    <g style="fill: #5b7fa5" transform="translate(48.562726 13.928344)">
     <text>
      <tspan x="0" y="-0.15625" style="font-style: oblique; font-size: 9.4px; font-family: 'DejaVu Sans'; fill: #5b7fa5">λ</tspan>
      <tspan x="7.374573" y="-0.15625" style="font-size: 9.4px; font-family: 'DejaVu Sans'; fill: #5b7fa5">=</tspan>
      <tspan x="17.056274" y="-0.15625" style="font-size: 9.4px; font-family: 'DejaVu Sans'; fill: #5b7fa5">0</tspan>
     </text>
    </g>
    <text style="font-weight: 700; font-size: 9.4px; font-family: 'Arial'; fill: #5b7fa5" transform="translate(34.796866 23.52097)">equilibrium</text>
   </g>
   <g id="PathCollection_1">
    <defs>
     <path id="md186dc95f9" d="M 0 4.1833 
C 1.109424 4.1833 2.173559 3.742521 2.95804 2.95804 
C 3.742521 2.173559 4.1833 1.109424 4.1833 0 
C 4.1833 -1.109424 3.742521 -2.173559 2.95804 -2.95804 
C 2.173559 -3.742521 1.109424 -4.1833 0 -4.1833 
C -1.109424 -4.1833 -2.173559 -3.742521 -2.95804 -2.95804 
C -3.742521 -2.173559 -4.1833 -1.109424 -4.1833 0 
C -4.1833 1.109424 -3.742521 2.173559 -2.95804 2.95804 
C -2.173559 3.742521 -1.109424 4.1833 0 4.1833 
z
" style="stroke: #c0503f; stroke-width: 2"/>
    </defs>
    <g clip-path="url(#pb97545880b)">
     <use xlink:href="#md186dc95f9" x="35.851739" y="123.238238" style="fill: #ffffff; stroke: #c0503f; stroke-width: 2"/>
    </g>
   </g>
   <g id="PathCollection_2">
    <defs>
     <path id="m095c317740" d="M -4.1833 4.1833 
L 4.1833 4.1833 
L 4.1833 -4.1833 
L -4.1833 -4.1833 
z
" style="stroke: #7b1fa2; stroke-width: 2"/>
    </defs>
    <g clip-path="url(#pb97545880b)">
     <use xlink:href="#m095c317740" x="41.150376" y="123.112514" style="fill: #ffffff; stroke: #7b1fa2; stroke-width: 2"/>
    </g>
   </g>
   <g id="PathCollection_3">
    <defs>
     <path id="ma1e6dc5f95" d="M -0 5.91608 
L 5.91608 0 
L 0 -5.91608 
L -5.91608 -0 
z
" style="stroke: #1a8a7a; stroke-width: 2"/>
    </defs>
    <g clip-path="url(#pb97545880b)">
     <use xlink:href="#ma1e6dc5f95" x="48.695958" y="112.013668" style="fill: #ffffff; stroke: #1a8a7a; stroke-width: 2"/>
    </g>
   </g>
  </g>
  <g id="axes_2">
   <g id="patch_3">
    <path d="M 118.321504 218.01697 
L 196.9658 218.01697 
L 196.9658 29.52097 
L 118.321504 29.52097 
z
" style="fill: #ffffff"/>
   </g>
   <g id="FillBetweenPolyCollection_2">
    <path d="M 118.321504 218.01697 
L 118.321504 -58.794746 
L 118.584529 -53.812429 
L 118.847553 -48.948447 
L 119.110577 -44.201027 
L 119.373602 -39.568408 
L 119.636626 -35.04884 
L 119.899651 -30.640587 
L 120.162675 -26.341923 
L 120.425699 -22.151135 
L 120.688724 -18.066521 
L 120.951748 -14.086392 
L 121.214773 -10.20907 
L 121.477797 -6.43289 
L 121.740821 -2.756199 
L 122.003846 0.822645 
L 122.26687 4.305271 
L 122.529895 7.693298 
L 122.792919 10.988329 
L 123.055943 14.19196 
L 123.318968 17.305771 
L 123.581992 20.331332 
L 123.845017 23.270201 
L 124.108041 26.123923 
L 124.371065 28.894033 
L 124.63409 31.58205 
L 124.897114 34.189486 
L 125.160139 36.717838 
L 125.423163 39.168592 
L 125.686187 41.543221 
L 125.949212 43.843187 
L 126.212236 46.06994 
L 126.475261 48.224917 
L 126.738285 50.309545 
L 127.001309 52.325238 
L 127.264334 54.273396 
L 127.527358 56.155411 
L 127.790383 57.972659 
L 128.053407 59.726507 
L 128.316431 61.418309 
L 128.579456 63.049406 
L 128.84248 64.621129 
L 129.105505 66.134795 
L 129.368529 67.591711 
L 129.631553 68.993171 
L 129.894578 70.340456 
L 130.157602 71.634836 
L 130.420627 72.87757 
L 130.683651 74.069904 
L 130.946675 75.213071 
L 131.2097 76.308295 
L 131.472724 77.356784 
L 131.735749 78.359738 
L 131.998773 79.318342 
L 132.261797 80.233771 
L 132.524822 81.107186 
L 132.787846 81.939739 
L 133.050871 82.732566 
L 133.313895 83.486795 
L 133.576919 84.20354 
L 133.839944 84.883903 
L 134.102968 85.528974 
L 134.365993 86.139832 
L 134.629017 86.717544 
L 134.892041 87.263162 
L 135.155066 87.777731 
L 135.41809 88.262279 
L 135.681115 88.717827 
L 135.944139 89.145379 
L 136.207163 89.545931 
L 136.470188 89.920466 
L 136.733212 90.269952 
L 136.996237 90.59535 
L 137.259261 90.897606 
L 137.522285 91.177654 
L 137.78531 91.436416 
L 138.048334 91.674804 
L 138.311359 91.893716 
L 138.574383 92.094038 
L 138.837407 92.276646 
L 139.100432 92.442402 
L 139.363456 92.592156 
L 139.626481 92.726748 
L 139.889505 92.847004 
L 140.152529 92.953739 
L 140.415554 93.047755 
L 140.678578 93.129843 
L 140.941603 93.200783 
L 141.204627 93.261341 
L 141.467651 93.312271 
L 141.730676 93.354317 
L 141.9937 93.38821 
L 142.256725 93.414668 
L 142.519749 93.434398 
L 142.782773 93.448096 
L 143.045798 93.456444 
L 143.308822 93.460113 
L 143.571847 93.459762 
L 143.834871 93.456038 
L 144.097895 93.449577 
L 144.36092 93.441 
L 144.623944 93.43092 
L 144.886969 93.419936 
L 145.149993 93.408633 
L 145.413017 93.397589 
L 145.676042 93.387365 
L 145.939066 93.378513 
L 146.202091 93.371571 
L 146.465115 93.367068 
L 146.728139 93.365519 
L 146.991164 93.367426 
L 147.254188 93.373281 
L 147.517213 93.383563 
L 147.780237 93.398739 
L 148.043261 93.419265 
L 148.306286 93.445584 
L 148.56931 93.478128 
L 148.832335 93.517315 
L 149.095359 93.563553 
L 149.358383 93.617238 
L 149.621408 93.678753 
L 149.884432 93.748469 
L 150.147457 93.826745 
L 150.410481 93.91393 
L 150.673505 94.010359 
L 150.93653 94.116354 
L 151.199554 94.232229 
L 151.462579 94.358281 
L 151.725603 94.4948 
L 151.988627 94.64206 
L 152.251652 94.800325 
L 152.514676 94.969846 
L 152.777701 95.150864 
L 153.040725 95.343605 
L 153.303749 95.548286 
L 153.566774 95.765111 
L 153.829798 95.99427 
L 154.092823 96.235944 
L 154.355847 96.4903 
L 154.618871 96.757494 
L 154.881896 97.037671 
L 155.14492 97.330961 
L 155.407945 97.637484 
L 155.670969 97.957349 
L 155.933993 98.290651 
L 156.197018 98.637474 
L 156.460042 98.997891 
L 156.723067 99.37196 
L 156.986091 99.75973 
L 157.249115 100.161236 
L 157.51214 100.576504 
L 157.775164 101.005544 
L 158.038189 101.448357 
L 158.301213 101.90493 
L 158.564237 102.375241 
L 158.827262 102.859252 
L 159.090286 103.356916 
L 159.353311 103.868173 
L 159.616335 104.392951 
L 159.879359 104.931166 
L 160.142384 105.482723 
L 160.405408 106.047513 
L 160.668433 106.625417 
L 160.931457 107.216303 
L 161.194481 107.820027 
L 161.457506 108.436433 
L 161.72053 109.065354 
L 161.983555 109.70661 
L 162.246579 110.36001 
L 162.509603 111.025348 
L 162.772628 111.702411 
L 163.035652 112.39097 
L 163.298677 113.090785 
L 163.561701 113.801606 
L 163.824725 114.523167 
L 164.08775 115.255195 
L 164.350774 115.997401 
L 164.613799 116.749485 
L 164.876823 117.511137 
L 165.139847 118.282032 
L 165.402872 119.061836 
L 165.665896 119.8502 
L 165.928921 120.646766 
L 166.191945 121.451161 
L 166.454969 122.263003 
L 166.717994 123.081897 
L 166.981018 123.907433 
L 167.244043 124.739194 
L 167.507067 125.576749 
L 167.770091 126.419652 
L 168.033116 127.267451 
L 168.29614 128.119676 
L 168.559165 128.975849 
L 168.822189 129.835479 
L 169.085213 130.698062 
L 169.348238 131.563084 
L 169.611262 132.430016 
L 169.874287 133.29832 
L 170.137311 134.167445 
L 170.400335 135.036828 
L 170.66336 135.905893 
L 170.926384 136.774053 
L 171.189408 137.64071 
L 171.452433 138.505251 
L 171.715457 139.367055 
L 171.978482 140.225486 
L 172.241506 141.079898 
L 172.50453 141.92963 
L 172.767555 142.774013 
L 173.030579 143.612362 
L 173.293604 144.443985 
L 173.556628 145.268172 
L 173.819652 146.084206 
L 174.082677 146.891356 
L 174.345701 147.688879 
L 174.608726 148.476019 
L 174.87175 149.252011 
L 175.134774 150.016075 
L 175.397799 150.767421 
L 175.660823 151.505245 
L 175.923848 152.228734 
L 176.186872 152.93706 
L 176.449896 153.629384 
L 176.712921 154.304856 
L 176.975945 154.962614 
L 177.23897 155.601783 
L 177.501994 156.221475 
L 177.765018 156.820793 
L 178.028043 157.398825 
L 178.291067 157.95465 
L 178.554092 158.487332 
L 178.817116 158.995926 
L 179.08014 159.479472 
L 179.343165 159.937 
L 179.606189 160.367527 
L 179.869214 160.77006 
L 180.132238 161.143592 
L 180.395262 161.487104 
L 180.658287 161.799565 
L 180.921311 162.079934 
L 181.184336 162.327157 
L 181.44736 162.540166 
L 181.710384 162.717883 
L 181.973409 162.859218 
L 182.236433 162.963069 
L 182.499458 163.028322 
L 182.762482 163.05385 
L 183.025506 163.038515 
L 183.288531 162.981166 
L 183.551555 162.880643 
L 183.81458 162.735769 
L 184.077604 162.54536 
L 184.340628 162.308217 
L 184.603653 162.023129 
L 184.866677 161.688876 
L 185.129702 161.304222 
L 185.392726 160.867922 
L 185.65575 160.378717 
L 185.918775 159.835338 
L 186.181799 159.236502 
L 186.444824 158.580916 
L 186.707848 157.867274 
L 186.970872 157.094257 
L 187.233897 156.260535 
L 187.496921 155.364767 
L 187.759946 154.405599 
L 188.02297 153.381665 
L 188.285994 152.291587 
L 188.549019 151.133975 
L 188.812043 149.907427 
L 189.075068 148.610529 
L 189.338092 147.241857 
L 189.601116 145.799971 
L 189.864141 144.283422 
L 190.127165 142.690749 
L 190.39019 141.020477 
L 190.653214 139.271121 
L 190.916238 137.441184 
L 191.179263 135.529155 
L 191.442287 133.533513 
L 191.705312 131.452725 
L 191.968336 129.285244 
L 192.23136 127.029513 
L 192.494385 124.683962 
L 192.757409 122.247011 
L 193.020434 119.717065 
L 193.283458 117.092519 
L 193.546482 114.371755 
L 193.809507 111.553144 
L 194.072531 108.635045 
L 194.335556 105.615803 
L 194.59858 102.493754 
L 194.861604 99.26722 
L 195.124629 95.934512 
L 195.387653 92.493928 
L 195.650678 88.943756 
L 195.913702 85.282269 
L 196.176726 81.50773 
L 196.439751 77.61839 
L 196.702775 73.612488 
L 196.9658 69.488251 
L 196.9658 218.01697 
L 196.9658 218.01697 
L 196.702775 218.01697 
L 196.439751 218.01697 
L 196.176726 218.01697 
L 195.913702 218.01697 
L 195.650678 218.01697 
L 195.387653 218.01697 
L 195.124629 218.01697 
L 194.861604 218.01697 
L 194.59858 218.01697 
L 194.335556 218.01697 
L 194.072531 218.01697 
L 193.809507 218.01697 
L 193.546482 218.01697 
L 193.283458 218.01697 
L 193.020434 218.01697 
L 192.757409 218.01697 
L 192.494385 218.01697 
L 192.23136 218.01697 
L 191.968336 218.01697 
L 191.705312 218.01697 
L 191.442287 218.01697 
L 191.179263 218.01697 
L 190.916238 218.01697 
L 190.653214 218.01697 
L 190.39019 218.01697 
L 190.127165 218.01697 
L 189.864141 218.01697 
L 189.601116 218.01697 
L 189.338092 218.01697 
L 189.075068 218.01697 
L 188.812043 218.01697 
L 188.549019 218.01697 
L 188.285994 218.01697 
L 188.02297 218.01697 
L 187.759946 218.01697 
L 187.496921 218.01697 
L 187.233897 218.01697 
L 186.970872 218.01697 
L 186.707848 218.01697 
L 186.444824 218.01697 
L 186.181799 218.01697 
L 185.918775 218.01697 
L 185.65575 218.01697 
L 185.392726 218.01697 
L 185.129702 218.01697 
L 184.866677 218.01697 
L 184.603653 218.01697 
L 184.340628 218.01697 
L 184.077604 218.01697 
L 183.81458 218.01697 
L 183.551555 218.01697 
L 183.288531 218.01697 
L 183.025506 218.01697 
L 182.762482 218.01697 
L 182.499458 218.01697 
L 182.236433 218.01697 
L 181.973409 218.01697 
L 181.710384 218.01697 
L 181.44736 218.01697 
L 181.184336 218.01697 
L 180.921311 218.01697 
L 180.658287 218.01697 
L 180.395262 218.01697 
L 180.132238 218.01697 
L 179.869214 218.01697 
L 179.606189 218.01697 
L 179.343165 218.01697 
L 179.08014 218.01697 
L 178.817116 218.01697 
L 178.554092 218.01697 
L 178.291067 218.01697 
L 178.028043 218.01697 
L 177.765018 218.01697 
L 177.501994 218.01697 
L 177.23897 218.01697 
L 176.975945 218.01697 
L 176.712921 218.01697 
L 176.449896 218.01697 
L 176.186872 218.01697 
L 175.923848 218.01697 
L 175.660823 218.01697 
L 175.397799 218.01697 
L 175.134774 218.01697 
L 174.87175 218.01697 
L 174.608726 218.01697 
L 174.345701 218.01697 
L 174.082677 218.01697 
L 173.819652 218.01697 
L 173.556628 218.01697 
L 173.293604 218.01697 
L 173.030579 218.01697 
L 172.767555 218.01697 
L 172.50453 218.01697 
L 172.241506 218.01697 
L 171.978482 218.01697 
L 171.715457 218.01697 
L 171.452433 218.01697 
L 171.189408 218.01697 
L 170.926384 218.01697 
L 170.66336 218.01697 
L 170.400335 218.01697 
L 170.137311 218.01697 
L 169.874287 218.01697 
L 169.611262 218.01697 
L 169.348238 218.01697 
L 169.085213 218.01697 
L 168.822189 218.01697 
L 168.559165 218.01697 
L 168.29614 218.01697 
L 168.033116 218.01697 
L 167.770091 218.01697 
L 167.507067 218.01697 
L 167.244043 218.01697 
L 166.981018 218.01697 
L 166.717994 218.01697 
L 166.454969 218.01697 
L 166.191945 218.01697 
L 165.928921 218.01697 
L 165.665896 218.01697 
L 165.402872 218.01697 
L 165.139847 218.01697 
L 164.876823 218.01697 
L 164.613799 218.01697 
L 164.350774 218.01697 
L 164.08775 218.01697 
L 163.824725 218.01697 
L 163.561701 218.01697 
L 163.298677 218.01697 
L 163.035652 218.01697 
L 162.772628 218.01697 
L 162.509603 218.01697 
L 162.246579 218.01697 
L 161.983555 218.01697 
L 161.72053 218.01697 
L 161.457506 218.01697 
L 161.194481 218.01697 
L 160.931457 218.01697 
L 160.668433 218.01697 
L 160.405408 218.01697 
L 160.142384 218.01697 
L 159.879359 218.01697 
L 159.616335 218.01697 
L 159.353311 218.01697 
L 159.090286 218.01697 
L 158.827262 218.01697 
L 158.564237 218.01697 
L 158.301213 218.01697 
L 158.038189 218.01697 
L 157.775164 218.01697 
L 157.51214 218.01697 
L 157.249115 218.01697 
L 156.986091 218.01697 
L 156.723067 218.01697 
L 156.460042 218.01697 
L 156.197018 218.01697 
L 155.933993 218.01697 
L 155.670969 218.01697 
L 155.407945 218.01697 
L 155.14492 218.01697 
L 154.881896 218.01697 
L 154.618871 218.01697 
L 154.355847 218.01697 
L 154.092823 218.01697 
L 153.829798 218.01697 
L 153.566774 218.01697 
L 153.303749 218.01697 
L 153.040725 218.01697 
L 152.777701 218.01697 
L 152.514676 218.01697 
L 152.251652 218.01697 
L 151.988627 218.01697 
L 151.725603 218.01697 
L 151.462579 218.01697 
L 151.199554 218.01697 
L 150.93653 218.01697 
L 150.673505 218.01697 
L 150.410481 218.01697 
L 150.147457 218.01697 
L 149.884432 218.01697 
L 149.621408 218.01697 
L 149.358383 218.01697 
L 149.095359 218.01697 
L 148.832335 218.01697 
L 148.56931 218.01697 
L 148.306286 218.01697 
L 148.043261 218.01697 
L 147.780237 218.01697 
L 147.517213 218.01697 
L 147.254188 218.01697 
L 146.991164 218.01697 
L 146.728139 218.01697 
L 146.465115 218.01697 
L 146.202091 218.01697 
L 145.939066 218.01697 
L 145.676042 218.01697 
L 145.413017 218.01697 
L 145.149993 218.01697 
L 144.886969 218.01697 
L 144.623944 218.01697 
L 144.36092 218.01697 
L 144.097895 218.01697 
L 143.834871 218.01697 
L 143.571847 218.01697 
L 143.308822 218.01697 
L 143.045798 218.01697 
L 142.782773 218.01697 
L 142.519749 218.01697 
L 142.256725 218.01697 
L 141.9937 218.01697 
L 141.730676 218.01697 
L 141.467651 218.01697 
L 141.204627 218.01697 
L 140.941603 218.01697 
L 140.678578 218.01697 
L 140.415554 218.01697 
L 140.152529 218.01697 
L 139.889505 218.01697 
L 139.626481 218.01697 
L 139.363456 218.01697 
L 139.100432 218.01697 
L 138.837407 218.01697 
L 138.574383 218.01697 
L 138.311359 218.01697 
L 138.048334 218.01697 
L 137.78531 218.01697 
L 137.522285 218.01697 
L 137.259261 218.01697 
L 136.996237 218.01697 
L 136.733212 218.01697 
L 136.470188 218.01697 
L 136.207163 218.01697 
L 135.944139 218.01697 
L 135.681115 218.01697 
L 135.41809 218.01697 
L 135.155066 218.01697 
L 134.892041 218.01697 
L 134.629017 218.01697 
L 134.365993 218.01697 
L 134.102968 218.01697 
L 133.839944 218.01697 
L 133.576919 218.01697 
L 133.313895 218.01697 
L 133.050871 218.01697 
L 132.787846 218.01697 
L 132.524822 218.01697 
L 132.261797 218.01697 
L 131.998773 218.01697 
L 131.735749 218.01697 
L 131.472724 218.01697 
L 131.2097 218.01697 
L 130.946675 218.01697 
L 130.683651 218.01697 
L 130.420627 218.01697 
L 130.157602 218.01697 
L 129.894578 218.01697 
L 129.631553 218.01697 
L 129.368529 218.01697 
L 129.105505 218.01697 
L 128.84248 218.01697 
L 128.579456 218.01697 
L 128.316431 218.01697 
L 128.053407 218.01697 
L 127.790383 218.01697 
L 127.527358 218.01697 
L 127.264334 218.01697 
L 127.001309 218.01697 
L 126.738285 218.01697 
L 126.475261 218.01697 
L 126.212236 218.01697 
L 125.949212 218.01697 
L 125.686187 218.01697 
L 125.423163 218.01697 
L 125.160139 218.01697 
L 124.897114 218.01697 
L 124.63409 218.01697 
L 124.371065 218.01697 
L 124.108041 218.01697 
L 123.845017 218.01697 
L 123.581992 218.01697 
L 123.318968 218.01697 
L 123.055943 218.01697 
L 122.792919 218.01697 
L 122.529895 218.01697 
L 122.26687 218.01697 
L 122.003846 218.01697 
L 121.740821 218.01697 
L 121.477797 218.01697 
L 121.214773 218.01697 
L 120.951748 218.01697 
L 120.688724 218.01697 
L 120.425699 218.01697 
L 120.162675 218.01697 
L 119.899651 218.01697 
L 119.636626 218.01697 
L 119.373602 218.01697 
L 119.110577 218.01697 
L 118.847553 218.01697 
L 118.584529 218.01697 
L 118.321504 218.01697 
z
" clip-path="url(#pd95de042be)" style="fill: #e8860c; fill-opacity: 0.06; stroke: #e8860c; stroke-opacity: 0.06"/>
   </g>
   <g id="matplotlib.axis_3"/>
   <g id="matplotlib.axis_4"/>
   <g id="line2d_2">
    <path d="M 121.869892 -1 
L 123.318968 17.305771 
L 124.897114 34.189486 
L 126.212236 46.06994 
L 127.527358 56.155411 
L 128.84248 64.621129 
L 130.157602 71.634836 
L 131.472724 77.356784 
L 132.787846 81.939739 
L 133.839944 84.883903 
L 134.892041 87.263162 
L 135.944139 89.145379 
L 136.996237 90.59535 
L 138.048334 91.674804 
L 139.100432 92.442402 
L 140.152529 92.953739 
L 141.467651 93.312271 
L 143.045798 93.456444 
L 145.676042 93.387365 
L 147.780237 93.398739 
L 149.358383 93.617238 
L 150.673505 94.010359 
L 151.988627 94.64206 
L 153.303749 95.548286 
L 154.618871 96.757494 
L 155.933993 98.290651 
L 157.249115 100.161236 
L 158.827262 102.859252 
L 160.405408 106.047513 
L 162.246579 110.36001 
L 164.08775 115.255195 
L 166.454969 122.263003 
L 169.611262 132.430016 
L 174.345701 147.688879 
L 176.186872 152.93706 
L 177.765018 156.820793 
L 179.08014 159.479472 
L 180.132238 161.143592 
L 180.921311 162.079934 
L 181.710384 162.717883 
L 182.499458 163.028322 
L 183.025506 163.038515 
L 183.551555 162.880643 
L 184.077604 162.54536 
L 184.866677 161.688876 
L 185.65575 160.378717 
L 186.444824 158.580916 
L 187.233897 156.260535 
L 188.285994 152.291587 
L 189.338092 147.241857 
L 190.39019 141.020477 
L 191.442287 133.533513 
L 192.757409 122.247011 
L 194.072531 108.635045 
L 195.387653 92.493928 
L 196.702775 73.612488 
L 196.9658 69.488251 
L 196.9658 69.488251 
" clip-path="url(#pd95de042be)" style="fill: none; stroke: #e8860c; stroke-width: 2.5; stroke-linecap: square"/>
   </g>
   <g id="line2d_3">
    <path d="M 133.370665 123.238238 
L 133.370665 83.644629 
" clip-path="url(#pd95de042be)" style="fill: none; stroke-dasharray: 1.5,2.475; stroke-dashoffset: 0; stroke: #c0503f; stroke-opacity: 0.6; stroke-width: 1.5"/>
   </g>
   <g id="line2d_4">
    <path d="M 138.669302 123.112514 
L 138.669302 92.161934 
" clip-path="url(#pd95de042be)" style="fill: none; stroke-dasharray: 1.5,2.475; stroke-dashoffset: 0; stroke: #7b1fa2; stroke-opacity: 0.6; stroke-width: 1.5"/>
   </g>
   <g id="line2d_5">
    <path d="M 146.214885 112.013668 
L 146.214885 93.371292 
" clip-path="url(#pd95de042be)" style="fill: none; stroke-dasharray: 1.5,2.475; stroke-dashoffset: 0; stroke: #1a8a7a; stroke-opacity: 0.6; stroke-width: 1.5"/>
   </g>
   <g id="text_3">
    <!-- $\lambda\to0.5$ -->
    <g style="fill: #e8860c" transform="translate(141.616652 13.928344)">
     <text>
      <tspan x="0" y="-0.15625" style="font-style: oblique; font-size: 9.4px; font-family: 'DejaVu Sans'; fill: #e8860c">λ</tspan>
      <tspan x="7.374573" y="-0.15625" style="font-size: 9.4px; font-family: 'DejaVu Sans'; fill: #e8860c">→</tspan>
      <tspan x="17.056274" y="-0.15625" style="font-size: 9.4px; font-family: 'DejaVu Sans'; fill: #e8860c">0</tspan>
      <tspan x="23.020935" y="-0.15625" style="font-size: 9.4px; font-family: 'DejaVu Sans'; fill: #e8860c">.</tspan>
      <tspan x="26.000977" y="-0.15625" style="font-size: 9.4px; font-family: 'DejaVu Sans'; fill: #e8860c">5</tspan>
     </text>
    </g>
    <text style="font-weight: 700; font-size: 9.4px; font-family: 'Arial'; fill: #e8860c" transform="translate(135.705668 23.52097)">work step</text>
   </g>
   <g id="PathCollection_4">
    <g clip-path="url(#pd95de042be)">
     <use xlink:href="#md186dc95f9" x="133.370665" y="83.644629" style="fill: #ffffff; stroke: #c0503f; stroke-width: 2"/>
    </g>
   </g>
   <g id="PathCollection_5">
    <g clip-path="url(#pd95de042be)">
     <use xlink:href="#m095c317740" x="138.669302" y="92.161934" style="fill: #ffffff; stroke: #7b1fa2; stroke-width: 2"/>
    </g>
   </g>
   <g id="PathCollection_6">
    <g clip-path="url(#pd95de042be)">
     <use xlink:href="#ma1e6dc5f95" x="146.214885" y="93.371292" style="fill: #ffffff; stroke: #1a8a7a; stroke-width: 2"/>
    </g>
   </g>
  </g>
  <g id="axes_3">
   <g id="patch_4">
    <path d="M 215.84043 218.01697 
L 294.484726 218.01697 
L 294.484726 29.52097 
L 215.84043 29.52097 
z
" style="fill: #ffffff"/>
   </g>
   <g id="FillBetweenPolyCollection_3">
    <path d="M 215.84043 218.01697 
L 215.84043 -58.794746 
L 216.103455 -53.812429 
L 216.366479 -48.948447 
L 216.629504 -44.201027 
L 216.892528 -39.568408 
L 217.155552 -35.04884 
L 217.418577 -30.640587 
L 217.681601 -26.341923 
L 217.944626 -22.151135 
L 218.20765 -18.066521 
L 218.470674 -14.086392 
L 218.733699 -10.20907 
L 218.996723 -6.43289 
L 219.259748 -2.756199 
L 219.522772 0.822645 
L 219.785796 4.305271 
L 220.048821 7.693298 
L 220.311845 10.988329 
L 220.57487 14.19196 
L 220.837894 17.305771 
L 221.100918 20.331332 
L 221.363943 23.270201 
L 221.626967 26.123923 
L 221.889992 28.894033 
L 222.153016 31.58205 
L 222.41604 34.189486 
L 222.679065 36.717838 
L 222.942089 39.168592 
L 223.205114 41.543221 
L 223.468138 43.843187 
L 223.731162 46.06994 
L 223.994187 48.224917 
L 224.257211 50.309545 
L 224.520236 52.325238 
L 224.78326 54.273396 
L 225.046284 56.155411 
L 225.309309 57.972659 
L 225.572333 59.726507 
L 225.835358 61.418309 
L 226.098382 63.049406 
L 226.361406 64.621129 
L 226.624431 66.134795 
L 226.887455 67.591711 
L 227.15048 68.993171 
L 227.413504 70.340456 
L 227.676528 71.634836 
L 227.939553 72.87757 
L 228.202577 74.069904 
L 228.465602 75.213071 
L 228.728626 76.308295 
L 228.99165 77.356784 
L 229.254675 78.359738 
L 229.517699 79.318342 
L 229.780724 80.233771 
L 230.043748 81.107186 
L 230.306772 81.939739 
L 230.569797 82.732566 
L 230.832821 83.486795 
L 231.095846 84.20354 
L 231.35887 84.883903 
L 231.621894 85.528974 
L 231.884919 86.139832 
L 232.147943 86.717544 
L 232.410968 87.263162 
L 232.673992 87.777731 
L 232.937016 88.262279 
L 233.200041 88.717827 
L 233.463065 89.145379 
L 233.72609 89.545931 
L 233.989114 89.920466 
L 234.252138 90.269952 
L 234.515163 90.59535 
L 234.778187 90.897606 
L 235.041212 91.177654 
L 235.304236 91.436416 
L 235.56726 91.674804 
L 235.830285 91.893716 
L 236.093309 92.094038 
L 236.356334 92.276646 
L 236.619358 92.442402 
L 236.882382 92.592156 
L 237.145407 92.726748 
L 237.408431 92.847004 
L 237.671456 92.953739 
L 237.93448 93.047755 
L 238.197504 93.129843 
L 238.460529 93.200783 
L 238.723553 93.261341 
L 238.986578 93.312271 
L 239.249602 93.354317 
L 239.512626 93.38821 
L 239.775651 93.414668 
L 240.038675 93.434398 
L 240.3017 93.448096 
L 240.564724 93.456444 
L 240.827748 93.460113 
L 241.090773 93.459762 
L 241.353797 93.456038 
L 241.616822 93.449577 
L 241.879846 93.441 
L 242.14287 93.43092 
L 242.405895 93.419936 
L 242.668919 93.408633 
L 242.931944 93.397589 
L 243.194968 93.387365 
L 243.457992 93.378513 
L 243.721017 93.371571 
L 243.984041 93.367068 
L 244.247066 93.365519 
L 244.51009 93.367426 
L 244.773114 93.373281 
L 245.036139 93.383563 
L 245.299163 93.398739 
L 245.562188 93.419265 
L 245.825212 93.445584 
L 246.088236 93.478128 
L 246.351261 93.517315 
L 246.614285 93.563553 
L 246.87731 93.617238 
L 247.140334 93.678753 
L 247.403358 93.748469 
L 247.666383 93.826745 
L 247.929407 93.91393 
L 248.192432 94.010359 
L 248.455456 94.116354 
L 248.71848 94.232229 
L 248.981505 94.358281 
L 249.244529 94.4948 
L 249.507554 94.64206 
L 249.770578 94.800325 
L 250.033602 94.969846 
L 250.296627 95.150864 
L 250.559651 95.343605 
L 250.822676 95.548286 
L 251.0857 95.765111 
L 251.348724 95.99427 
L 251.611749 96.235944 
L 251.874773 96.4903 
L 252.137798 96.757494 
L 252.400822 97.037671 
L 252.663846 97.330961 
L 252.926871 97.637484 
L 253.189895 97.957349 
L 253.45292 98.290651 
L 253.715944 98.637474 
L 253.978968 98.997891 
L 254.241993 99.37196 
L 254.505017 99.75973 
L 254.768042 100.161236 
L 255.031066 100.576504 
L 255.29409 101.005544 
L 255.557115 101.448357 
L 255.820139 101.90493 
L 256.083164 102.375241 
L 256.346188 102.859252 
L 256.609212 103.356916 
L 256.872237 103.868173 
L 257.135261 104.392951 
L 257.398286 104.931166 
L 257.66131 105.482723 
L 257.924334 106.047513 
L 258.187359 106.625417 
L 258.450383 107.216303 
L 258.713408 107.820027 
L 258.976432 108.436433 
L 259.239456 109.065354 
L 259.502481 109.70661 
L 259.765505 110.36001 
L 260.02853 111.025348 
L 260.291554 111.702411 
L 260.554578 112.39097 
L 260.817603 113.090785 
L 261.080627 113.801606 
L 261.343652 114.523167 
L 261.606676 115.255195 
L 261.8697 115.997401 
L 262.132725 116.749485 
L 262.395749 117.511137 
L 262.658773 118.282032 
L 262.921798 119.061836 
L 263.184822 119.8502 
L 263.447847 120.646766 
L 263.710871 121.451161 
L 263.973895 122.263003 
L 264.23692 123.081897 
L 264.499944 123.907433 
L 264.762969 124.739194 
L 265.025993 125.576749 
L 265.289017 126.419652 
L 265.552042 127.267451 
L 265.815066 128.119676 
L 266.078091 128.975849 
L 266.341115 129.835479 
L 266.604139 130.698062 
L 266.867164 131.563084 
L 267.130188 132.430016 
L 267.393213 133.29832 
L 267.656237 134.167445 
L 267.919261 135.036828 
L 268.182286 135.905893 
L 268.44531 136.774053 
L 268.708335 137.64071 
L 268.971359 138.505251 
L 269.234383 139.367055 
L 269.497408 140.225486 
L 269.760432 141.079898 
L 270.023457 141.92963 
L 270.286481 142.774013 
L 270.549505 143.612362 
L 270.81253 144.443985 
L 271.075554 145.268172 
L 271.338579 146.084206 
L 271.601603 146.891356 
L 271.864627 147.688879 
L 272.127652 148.476019 
L 272.390676 149.252011 
L 272.653701 150.016075 
L 272.916725 150.767421 
L 273.179749 151.505245 
L 273.442774 152.228734 
L 273.705798 152.93706 
L 273.968823 153.629384 
L 274.231847 154.304856 
L 274.494871 154.962614 
L 274.757896 155.601783 
L 275.02092 156.221475 
L 275.283945 156.820793 
L 275.546969 157.398825 
L 275.809993 157.95465 
L 276.073018 158.487332 
L 276.336042 158.995926 
L 276.599067 159.479472 
L 276.862091 159.937 
L 277.125115 160.367527 
L 277.38814 160.77006 
L 277.651164 161.143592 
L 277.914189 161.487104 
L 278.177213 161.799565 
L 278.440237 162.079934 
L 278.703262 162.327157 
L 278.966286 162.540166 
L 279.229311 162.717883 
L 279.492335 162.859218 
L 279.755359 162.963069 
L 280.018384 163.028322 
L 280.281408 163.05385 
L 280.544433 163.038515 
L 280.807457 162.981166 
L 281.070481 162.880643 
L 281.333506 162.735769 
L 281.59653 162.54536 
L 281.859555 162.308217 
L 282.122579 162.023129 
L 282.385603 161.688876 
L 282.648628 161.304222 
L 282.911652 160.867922 
L 283.174677 160.378717 
L 283.437701 159.835338 
L 283.700725 159.236502 
L 283.96375 158.580916 
L 284.226774 157.867274 
L 284.489799 157.094257 
L 284.752823 156.260535 
L 285.015847 155.364767 
L 285.278872 154.405599 
L 285.541896 153.381665 
L 285.804921 152.291587 
L 286.067945 151.133975 
L 286.330969 149.907427 
L 286.593994 148.610529 
L 286.857018 147.241857 
L 287.120043 145.799971 
L 287.383067 144.283422 
L 287.646091 142.690749 
L 287.909116 141.020477 
L 288.17214 139.271121 
L 288.435165 137.441184 
L 288.698189 135.529155 
L 288.961213 133.533513 
L 289.224238 131.452725 
L 289.487262 129.285244 
L 289.750287 127.029513 
L 290.013311 124.683962 
L 290.276335 122.247011 
L 290.53936 119.717065 
L 290.802384 117.092519 
L 291.065409 114.371755 
L 291.328433 111.553144 
L 291.591457 108.635045 
L 291.854482 105.615803 
L 292.117506 102.493754 
L 292.380531 99.26722 
L 292.643555 95.934512 
L 292.906579 92.493928 
L 293.169604 88.943756 
L 293.432628 85.282269 
L 293.695653 81.50773 
L 293.958677 77.61839 
L 294.221701 73.612488 
L 294.484726 69.488251 
L 294.484726 218.01697 
L 294.484726 218.01697 
L 294.221701 218.01697 
L 293.958677 218.01697 
L 293.695653 218.01697 
L 293.432628 218.01697 
L 293.169604 218.01697 
L 292.906579 218.01697 
L 292.643555 218.01697 
L 292.380531 218.01697 
L 292.117506 218.01697 
L 291.854482 218.01697 
L 291.591457 218.01697 
L 291.328433 218.01697 
L 291.065409 218.01697 
L 290.802384 218.01697 
L 290.53936 218.01697 
L 290.276335 218.01697 
L 290.013311 218.01697 
L 289.750287 218.01697 
L 289.487262 218.01697 
L 289.224238 218.01697 
L 288.961213 218.01697 
L 288.698189 218.01697 
L 288.435165 218.01697 
L 288.17214 218.01697 
L 287.909116 218.01697 
L 287.646091 218.01697 
L 287.383067 218.01697 
L 287.120043 218.01697 
L 286.857018 218.01697 
L 286.593994 218.01697 
L 286.330969 218.01697 
L 286.067945 218.01697 
L 285.804921 218.01697 
L 285.541896 218.01697 
L 285.278872 218.01697 
L 285.015847 218.01697 
L 284.752823 218.01697 
L 284.489799 218.01697 
L 284.226774 218.01697 
L 283.96375 218.01697 
L 283.700725 218.01697 
L 283.437701 218.01697 
L 283.174677 218.01697 
L 282.911652 218.01697 
L 282.648628 218.01697 
L 282.385603 218.01697 
L 282.122579 218.01697 
L 281.859555 218.01697 
L 281.59653 218.01697 
L 281.333506 218.01697 
L 281.070481 218.01697 
L 280.807457 218.01697 
L 280.544433 218.01697 
L 280.281408 218.01697 
L 280.018384 218.01697 
L 279.755359 218.01697 
L 279.492335 218.01697 
L 279.229311 218.01697 
L 278.966286 218.01697 
L 278.703262 218.01697 
L 278.440237 218.01697 
L 278.177213 218.01697 
L 277.914189 218.01697 
L 277.651164 218.01697 
L 277.38814 218.01697 
L 277.125115 218.01697 
L 276.862091 218.01697 
L 276.599067 218.01697 
L 276.336042 218.01697 
L 276.073018 218.01697 
L 275.809993 218.01697 
L 275.546969 218.01697 
L 275.283945 218.01697 
L 275.02092 218.01697 
L 274.757896 218.01697 
L 274.494871 218.01697 
L 274.231847 218.01697 
L 273.968823 218.01697 
L 273.705798 218.01697 
L 273.442774 218.01697 
L 273.179749 218.01697 
L 272.916725 218.01697 
L 272.653701 218.01697 
L 272.390676 218.01697 
L 272.127652 218.01697 
L 271.864627 218.01697 
L 271.601603 218.01697 
L 271.338579 218.01697 
L 271.075554 218.01697 
L 270.81253 218.01697 
L 270.549505 218.01697 
L 270.286481 218.01697 
L 270.023457 218.01697 
L 269.760432 218.01697 
L 269.497408 218.01697 
L 269.234383 218.01697 
L 268.971359 218.01697 
L 268.708335 218.01697 
L 268.44531 218.01697 
L 268.182286 218.01697 
L 267.919261 218.01697 
L 267.656237 218.01697 
L 267.393213 218.01697 
L 267.130188 218.01697 
L 266.867164 218.01697 
L 266.604139 218.01697 
L 266.341115 218.01697 
L 266.078091 218.01697 
L 265.815066 218.01697 
L 265.552042 218.01697 
L 265.289017 218.01697 
L 265.025993 218.01697 
L 264.762969 218.01697 
L 264.499944 218.01697 
L 264.23692 218.01697 
L 263.973895 218.01697 
L 263.710871 218.01697 
L 263.447847 218.01697 
L 263.184822 218.01697 
L 262.921798 218.01697 
L 262.658773 218.01697 
L 262.395749 218.01697 
L 262.132725 218.01697 
L 261.8697 218.01697 
L 261.606676 218.01697 
L 261.343652 218.01697 
L 261.080627 218.01697 
L 260.817603 218.01697 
L 260.554578 218.01697 
L 260.291554 218.01697 
L 260.02853 218.01697 
L 259.765505 218.01697 
L 259.502481 218.01697 
L 259.239456 218.01697 
L 258.976432 218.01697 
L 258.713408 218.01697 
L 258.450383 218.01697 
L 258.187359 218.01697 
L 257.924334 218.01697 
L 257.66131 218.01697 
L 257.398286 218.01697 
L 257.135261 218.01697 
L 256.872237 218.01697 
L 256.609212 218.01697 
L 256.346188 218.01697 
L 256.083164 218.01697 
L 255.820139 218.01697 
L 255.557115 218.01697 
L 255.29409 218.01697 
L 255.031066 218.01697 
L 254.768042 218.01697 
L 254.505017 218.01697 
L 254.241993 218.01697 
L 253.978968 218.01697 
L 253.715944 218.01697 
L 253.45292 218.01697 
L 253.189895 218.01697 
L 252.926871 218.01697 
L 252.663846 218.01697 
L 252.400822 218.01697 
L 252.137798 218.01697 
L 251.874773 218.01697 
L 251.611749 218.01697 
L 251.348724 218.01697 
L 251.0857 218.01697 
L 250.822676 218.01697 
L 250.559651 218.01697 
L 250.296627 218.01697 
L 250.033602 218.01697 
L 249.770578 218.01697 
L 249.507554 218.01697 
L 249.244529 218.01697 
L 248.981505 218.01697 
L 248.71848 218.01697 
L 248.455456 218.01697 
L 248.192432 218.01697 
L 247.929407 218.01697 
L 247.666383 218.01697 
L 247.403358 218.01697 
L 247.140334 218.01697 
L 246.87731 218.01697 
L 246.614285 218.01697 
L 246.351261 218.01697 
L 246.088236 218.01697 
L 245.825212 218.01697 
L 245.562188 218.01697 
L 245.299163 218.01697 
L 245.036139 218.01697 
L 244.773114 218.01697 
L 244.51009 218.01697 
L 244.247066 218.01697 
L 243.984041 218.01697 
L 243.721017 218.01697 
L 243.457992 218.01697 
L 243.194968 218.01697 
L 242.931944 218.01697 
L 242.668919 218.01697 
L 242.405895 218.01697 
L 242.14287 218.01697 
L 241.879846 218.01697 
L 241.616822 218.01697 
L 241.353797 218.01697 
L 241.090773 218.01697 
L 240.827748 218.01697 
L 240.564724 218.01697 
L 240.3017 218.01697 
L 240.038675 218.01697 
L 239.775651 218.01697 
L 239.512626 218.01697 
L 239.249602 218.01697 
L 238.986578 218.01697 
L 238.723553 218.01697 
L 238.460529 218.01697 
L 238.197504 218.01697 
L 237.93448 218.01697 
L 237.671456 218.01697 
L 237.408431 218.01697 
L 237.145407 218.01697 
L 236.882382 218.01697 
L 236.619358 218.01697 
L 236.356334 218.01697 
L 236.093309 218.01697 
L 235.830285 218.01697 
L 235.56726 218.01697 
L 235.304236 218.01697 
L 235.041212 218.01697 
L 234.778187 218.01697 
L 234.515163 218.01697 
L 234.252138 218.01697 
L 233.989114 218.01697 
L 233.72609 218.01697 
L 233.463065 218.01697 
L 233.200041 218.01697 
L 232.937016 218.01697 
L 232.673992 218.01697 
L 232.410968 218.01697 
L 232.147943 218.01697 
L 231.884919 218.01697 
L 231.621894 218.01697 
L 231.35887 218.01697 
L 231.095846 218.01697 
L 230.832821 218.01697 
L 230.569797 218.01697 
L 230.306772 218.01697 
L 230.043748 218.01697 
L 229.780724 218.01697 
L 229.517699 218.01697 
L 229.254675 218.01697 
L 228.99165 218.01697 
L 228.728626 218.01697 
L 228.465602 218.01697 
L 228.202577 218.01697 
L 227.939553 218.01697 
L 227.676528 218.01697 
L 227.413504 218.01697 
L 227.15048 218.01697 
L 226.887455 218.01697 
L 226.624431 218.01697 
L 226.361406 218.01697 
L 226.098382 218.01697 
L 225.835358 218.01697 
L 225.572333 218.01697 
L 225.309309 218.01697 
L 225.046284 218.01697 
L 224.78326 218.01697 
L 224.520236 218.01697 
L 224.257211 218.01697 
L 223.994187 218.01697 
L 223.731162 218.01697 
L 223.468138 218.01697 
L 223.205114 218.01697 
L 222.942089 218.01697 
L 222.679065 218.01697 
L 222.41604 218.01697 
L 222.153016 218.01697 
L 221.889992 218.01697 
L 221.626967 218.01697 
L 221.363943 218.01697 
L 221.100918 218.01697 
L 220.837894 218.01697 
L 220.57487 218.01697 
L 220.311845 218.01697 
L 220.048821 218.01697 
L 219.785796 218.01697 
L 219.522772 218.01697 
L 219.259748 218.01697 
L 218.996723 218.01697 
L 218.733699 218.01697 
L 218.470674 218.01697 
L 218.20765 218.01697 
L 217.944626 218.01697 
L 217.681601 218.01697 
L 217.418577 218.01697 
L 217.155552 218.01697 
L 216.892528 218.01697 
L 216.629504 218.01697 
L 216.366479 218.01697 
L 216.103455 218.01697 
L 215.84043 218.01697 
z
" clip-path="url(#p70101ade47)" style="fill: #1a8a7a; fill-opacity: 0.06; stroke: #1a8a7a; stroke-opacity: 0.06"/>
   </g>
   <g id="matplotlib.axis_5"/>
   <g id="matplotlib.axis_6"/>
   <g id="line2d_6">
    <path d="M 219.388818 -1 
L 220.837894 17.305771 
L 222.41604 34.189486 
L 223.731162 46.06994 
L 225.046284 56.155411 
L 226.361406 64.621129 
L 227.676528 71.634836 
L 228.99165 77.356784 
L 230.306772 81.939739 
L 231.35887 84.883903 
L 232.410968 87.263162 
L 233.463065 89.145379 
L 234.515163 90.59535 
L 235.56726 91.674804 
L 236.619358 92.442402 
L 237.671456 92.953739 
L 238.986578 93.312271 
L 240.564724 93.456444 
L 243.194968 93.387365 
L 245.299163 93.398739 
L 246.87731 93.617238 
L 248.192432 94.010359 
L 249.507554 94.64206 
L 250.822676 95.548286 
L 252.137798 96.757494 
L 253.45292 98.290651 
L 254.768042 100.161236 
L 256.346188 102.859252 
L 257.924334 106.047513 
L 259.765505 110.36001 
L 261.606676 115.255195 
L 263.973895 122.263003 
L 267.130188 132.430016 
L 271.864627 147.688879 
L 273.705798 152.93706 
L 275.283945 156.820793 
L 276.599067 159.479472 
L 277.651164 161.143592 
L 278.440237 162.079934 
L 279.229311 162.717883 
L 280.018384 163.028322 
L 280.544433 163.038515 
L 281.070481 162.880643 
L 281.59653 162.54536 
L 282.385603 161.688876 
L 283.174677 160.378717 
L 283.96375 158.580916 
L 284.752823 156.260535 
L 285.804921 152.291587 
L 286.857018 147.241857 
L 287.909116 141.020477 
L 288.961213 133.533513 
L 290.276335 122.247011 
L 291.591457 108.635045 
L 292.906579 92.493928 
L 294.221701 73.612488 
L 294.484726 69.488251 
L 294.484726 69.488251 
" clip-path="url(#p70101ade47)" style="fill: none; stroke: #1a8a7a; stroke-width: 2.5; stroke-linecap: square"/>
   </g>
   <g id="text_4">
    <!-- $\lambda=0.5$ -->
    <g style="fill: #1a8a7a" transform="translate(239.135578 13.928344)">
     <text>
      <tspan x="0" y="-0.15625" style="font-style: oblique; font-size: 9.4px; font-family: 'DejaVu Sans'; fill: #1a8a7a">λ</tspan>
      <tspan x="7.374573" y="-0.15625" style="font-size: 9.4px; font-family: 'DejaVu Sans'; fill: #1a8a7a">=</tspan>
      <tspan x="17.056274" y="-0.15625" style="font-size: 9.4px; font-family: 'DejaVu Sans'; fill: #1a8a7a">0</tspan>
      <tspan x="23.020935" y="-0.15625" style="font-size: 9.4px; font-family: 'DejaVu Sans'; fill: #1a8a7a">.</tspan>
      <tspan x="26.000977" y="-0.15625" style="font-size: 9.4px; font-family: 'DejaVu Sans'; fill: #1a8a7a">5</tspan>
     </text>
    </g>
    <text style="font-weight: 700; font-size: 9.4px; font-family: 'Arial'; fill: #1a8a7a" transform="translate(244.186609 23.52097)">relax</text>
   </g>
   <g id="PathCollection_7">
    <g clip-path="url(#p70101ade47)">
     <use xlink:href="#md186dc95f9" x="277.962072" y="161.54633" style="fill: #ffffff; stroke: #c0503f; stroke-width: 2"/>
    </g>
   </g>
   <g id="PathCollection_8">
    <g clip-path="url(#p70101ade47)">
     <use xlink:href="#m095c317740" x="254.891989" y="100.355212" style="fill: #ffffff; stroke: #7b1fa2; stroke-width: 2"/>
    </g>
   </g>
   <g id="PathCollection_9">
    <g clip-path="url(#p70101ade47)">
     <use xlink:href="#ma1e6dc5f95" x="265.557018" y="127.283533" style="fill: #ffffff; stroke: #1a8a7a; stroke-width: 2"/>
    </g>
   </g>
   <g id="patch_5">
    <path d="M 232.892126 209.702332 
Q 254.427165 209.702332 273.949742 209.702332 
" style="fill: none; stroke: #c0503f; stroke-width: 1.8; stroke-linecap: round"/>
    <path d="M 269.549742 207.502332 
L 273.949742 209.702332 
L 269.549742 211.902332 
" style="fill: none; stroke: #c0503f; stroke-width: 1.8; stroke-linecap: round"/>
   </g>
   <g id="patch_6">
    <path d="M 238.183722 209.702332 
Q 245.53642 209.702332 250.876657 209.702332 
" style="fill: none; stroke: #7b1fa2; stroke-width: 1.8; stroke-linecap: round"/>
    <path d="M 246.476657 207.502332 
L 250.876657 209.702332 
L 246.476657 211.902332 
" style="fill: none; stroke: #7b1fa2; stroke-width: 1.8; stroke-linecap: round"/>
   </g>
   <g id="patch_7">
    <path d="M 245.734449 209.702332 
Q 254.646378 209.702332 261.545845 209.702332 
" style="fill: none; stroke: #1a8a7a; stroke-width: 1.8; stroke-linecap: round"/>
    <path d="M 257.145845 207.502332 
L 261.545845 209.702332 
L 257.145845 211.902332 
" style="fill: none; stroke: #1a8a7a; stroke-width: 1.8; stroke-linecap: round"/>
   </g>
  </g>
  <g id="axes_4">
   <g id="patch_8">
    <path d="M 313.359357 218.01697 
L 392.003652 218.01697 
L 392.003652 29.52097 
L 313.359357 29.52097 
z
" style="fill: #ffffff"/>
   </g>
   <g id="FillBetweenPolyCollection_4">
    <path d="M 313.359357 218.01697 
L 313.359357 -122.936245 
L 313.622381 -117.524887 
L 313.885405 -112.231865 
L 314.14843 -107.055405 
L 314.411454 -101.993746 
L 314.674479 -97.045138 
L 314.937503 -92.207845 
L 315.200527 -87.480141 
L 315.463552 -82.860312 
L 315.726576 -78.346658 
L 315.989601 -73.937489 
L 316.252625 -69.631127 
L 316.515649 -65.425907 
L 316.778674 -61.320176 
L 317.041698 -57.312292 
L 317.304723 -53.400625 
L 317.567747 -49.583559 
L 317.830771 -45.859487 
L 318.093796 -42.226816 
L 318.35682 -38.683965 
L 318.619845 -35.229364 
L 318.882869 -31.861455 
L 319.145893 -28.578692 
L 319.408918 -25.379543 
L 319.671942 -22.262485 
L 319.934967 -19.226009 
L 320.197991 -16.268617 
L 320.461015 -13.388824 
L 320.72404 -10.585155 
L 320.987064 -7.856148 
L 321.250089 -5.200355 
L 321.513113 -2.616338 
L 321.776137 -0.102669 
L 322.039162 2.342063 
L 322.302186 4.719262 
L 322.565211 7.030316 
L 322.828235 9.276605 
L 323.091259 11.459493 
L 323.354284 13.580335 
L 323.617308 15.640472 
L 323.880333 17.641235 
L 324.143357 19.583942 
L 324.406381 21.469898 
L 324.669406 23.300397 
L 324.93243 25.076722 
L 325.195455 26.800143 
L 325.458479 28.471917 
L 325.721503 30.093291 
L 325.984528 31.665499 
L 326.247552 33.189762 
L 326.510577 34.667292 
L 326.773601 36.099286 
L 327.036625 37.48693 
L 327.29965 38.831399 
L 327.562674 40.133854 
L 327.825699 41.395447 
L 328.088723 42.617315 
L 328.351747 43.800584 
L 328.614772 44.946369 
L 328.877796 46.055772 
L 329.140821 47.129883 
L 329.403845 48.169781 
L 329.666869 49.176533 
L 329.929894 50.151191 
L 330.192918 51.0948 
L 330.455943 52.008389 
L 330.718967 52.892976 
L 330.981991 53.749569 
L 331.245016 54.579161 
L 331.50804 55.382736 
L 331.771065 56.161262 
L 332.034089 56.9157 
L 332.297113 57.646996 
L 332.560138 58.356084 
L 332.823162 59.043887 
L 333.086187 59.711315 
L 333.349211 60.359267 
L 333.612235 60.988629 
L 333.87526 61.600277 
L 334.138284 62.195073 
L 334.401309 62.773868 
L 334.664333 63.3375 
L 334.927357 63.886796 
L 335.190382 64.42257 
L 335.453406 64.945627 
L 335.716431 65.456755 
L 335.979455 65.956735 
L 336.242479 66.446333 
L 336.505504 66.926303 
L 336.768528 67.39739 
L 337.031553 67.860322 
L 337.294577 68.315821 
L 337.557601 68.764591 
L 337.820626 69.207329 
L 338.08365 69.644717 
L 338.346675 70.077426 
L 338.609699 70.506115 
L 338.872723 70.931432 
L 339.135748 71.35401 
L 339.398772 71.774474 
L 339.661797 72.193434 
L 339.924821 72.61149 
L 340.187845 73.029228 
L 340.45087 73.447223 
L 340.713894 73.866039 
L 340.976919 74.286227 
L 341.239943 74.708326 
L 341.502967 75.132863 
L 341.765992 75.560354 
L 342.029016 75.991301 
L 342.292041 76.426196 
L 342.555065 76.865518 
L 342.818089 77.309735 
L 343.081114 77.759301 
L 343.344138 78.21466 
L 343.607163 78.676244 
L 343.870187 79.144471 
L 344.133211 79.619749 
L 344.396236 80.102474 
L 344.65926 80.593029 
L 344.922285 81.091785 
L 345.185309 81.599102 
L 345.448333 82.115327 
L 345.711358 82.640795 
L 345.974382 83.175831 
L 346.237407 83.720746 
L 346.500431 84.275839 
L 346.763455 84.841397 
L 347.02648 85.417697 
L 347.289504 86.005002 
L 347.552529 86.603564 
L 347.815553 87.213621 
L 348.078577 87.835403 
L 348.341602 88.469124 
L 348.604626 89.114989 
L 348.867651 89.773188 
L 349.130675 90.443902 
L 349.393699 91.127298 
L 349.656724 91.823533 
L 349.919748 92.532749 
L 350.182773 93.255079 
L 350.445797 93.990643 
L 350.708821 94.739548 
L 350.971846 95.50189 
L 351.23487 96.277754 
L 351.497895 97.06721 
L 351.760919 97.870319 
L 352.023943 98.687129 
L 352.286968 99.517676 
L 352.549992 100.361984 
L 352.813016 101.220064 
L 353.076041 102.091917 
L 353.339065 102.977531 
L 353.60209 103.876881 
L 353.865114 104.789932 
L 354.128138 105.716637 
L 354.391163 106.656934 
L 354.654187 107.610752 
L 354.917212 108.578007 
L 355.180236 109.558604 
L 355.44326 110.552434 
L 355.706285 111.559379 
L 355.969309 112.579305 
L 356.232334 113.612069 
L 356.495358 114.657515 
L 356.758382 115.715476 
L 357.021407 116.785773 
L 357.284431 117.868212 
L 357.547456 118.962591 
L 357.81048 120.068693 
L 358.073504 121.186292 
L 358.336529 122.315148 
L 358.599553 123.455008 
L 358.862578 124.60561 
L 359.125602 125.766678 
L 359.388626 126.937924 
L 359.651651 128.119048 
L 359.914675 129.30974 
L 360.1777 130.509676 
L 360.440724 131.71852 
L 360.703748 132.935924 
L 360.966773 134.16153 
L 361.229797 135.394966 
L 361.492822 136.635848 
L 361.755846 137.883781 
L 362.01887 139.138358 
L 362.281895 140.399159 
L 362.544919 141.665753 
L 362.807944 142.937697 
L 363.070968 144.214536 
L 363.333992 145.495801 
L 363.597017 146.781014 
L 363.860041 148.069684 
L 364.123066 149.361308 
L 364.38609 150.655369 
L 364.649114 151.951342 
L 364.912139 153.248686 
L 365.175163 154.546851 
L 365.438188 155.845274 
L 365.701212 157.143379 
L 365.964236 158.440579 
L 366.227261 159.736276 
L 366.490285 161.029858 
L 366.75331 162.320702 
L 367.016334 163.608173 
L 367.279358 164.891624 
L 367.542383 166.170397 
L 367.805407 167.44382 
L 368.068432 168.71121 
L 368.331456 169.971872 
L 368.59448 171.2251 
L 368.857505 172.470174 
L 369.120529 173.706364 
L 369.383554 174.932927 
L 369.646578 176.149107 
L 369.909602 177.354139 
L 370.172627 178.547243 
L 370.435651 179.727629 
L 370.698676 180.894494 
L 370.9617 182.047022 
L 371.224724 183.184388 
L 371.487749 184.305753 
L 371.750773 185.410265 
L 372.013798 186.497063 
L 372.276822 187.565272 
L 372.539846 188.614004 
L 372.802871 189.642362 
L 373.065895 190.649435 
L 373.32892 191.634299 
L 373.591944 192.596022 
L 373.854968 193.533656 
L 374.117993 194.446242 
L 374.381017 195.33281 
L 374.644042 196.192378 
L 374.907066 197.023951 
L 375.17009 197.826522 
L 375.433115 198.599074 
L 375.696139 199.340576 
L 375.959164 200.049985 
L 376.222188 200.726248 
L 376.485212 201.368297 
L 376.748237 201.975054 
L 377.011261 202.54543 
L 377.274286 203.078321 
L 377.53731 203.572614 
L 377.800334 204.027182 
L 378.063359 204.440887 
L 378.326383 204.812579 
L 378.589408 205.141095 
L 378.852432 205.425262 
L 379.115456 205.663892 
L 379.378481 205.855789 
L 379.641505 205.999742 
L 379.90453 206.094529 
L 380.167554 206.138915 
L 380.430578 206.131655 
L 380.693603 206.07149 
L 380.956627 205.957151 
L 381.219652 205.787356 
L 381.482676 205.56081 
L 381.7457 205.276207 
L 382.008725 204.93223 
L 382.271749 204.527549 
L 382.534774 204.060821 
L 382.797798 203.530693 
L 383.060822 202.935799 
L 383.323847 202.274761 
L 383.586871 201.546189 
L 383.849896 200.748681 
L 384.11292 199.880824 
L 384.375944 198.941192 
L 384.638969 197.928346 
L 384.901993 196.840837 
L 385.165018 195.677204 
L 385.428042 194.435973 
L 385.691066 193.115657 
L 385.954091 191.71476 
L 386.217115 190.231771 
L 386.48014 188.665169 
L 386.743164 187.013421 
L 387.006188 185.27498 
L 387.269213 183.448289 
L 387.532237 181.531779 
L 387.795262 179.523868 
L 388.058286 177.422962 
L 388.32131 175.227456 
L 388.584335 172.935732 
L 388.847359 170.546161 
L 389.110384 168.057102 
L 389.373408 165.4669 
L 389.636432 162.773892 
L 389.899457 159.976398 
L 390.162481 157.07273 
L 390.425506 154.061186 
L 390.68853 150.940054 
L 390.951554 147.707607 
L 391.214579 144.362108 
L 391.477603 140.901809 
L 391.740628 137.324947 
L 392.003652 133.629749 
L 392.003652 218.01697 
L 392.003652 218.01697 
L 391.740628 218.01697 
L 391.477603 218.01697 
L 391.214579 218.01697 
L 390.951554 218.01697 
L 390.68853 218.01697 
L 390.425506 218.01697 
L 390.162481 218.01697 
L 389.899457 218.01697 
L 389.636432 218.01697 
L 389.373408 218.01697 
L 389.110384 218.01697 
L 388.847359 218.01697 
L 388.584335 218.01697 
L 388.32131 218.01697 
L 388.058286 218.01697 
L 387.795262 218.01697 
L 387.532237 218.01697 
L 387.269213 218.01697 
L 387.006188 218.01697 
L 386.743164 218.01697 
L 386.48014 218.01697 
L 386.217115 218.01697 
L 385.954091 218.01697 
L 385.691066 218.01697 
L 385.428042 218.01697 
L 385.165018 218.01697 
L 384.901993 218.01697 
L 384.638969 218.01697 
L 384.375944 218.01697 
L 384.11292 218.01697 
L 383.849896 218.01697 
L 383.586871 218.01697 
L 383.323847 218.01697 
L 383.060822 218.01697 
L 382.797798 218.01697 
L 382.534774 218.01697 
L 382.271749 218.01697 
L 382.008725 218.01697 
L 381.7457 218.01697 
L 381.482676 218.01697 
L 381.219652 218.01697 
L 380.956627 218.01697 
L 380.693603 218.01697 
L 380.430578 218.01697 
L 380.167554 218.01697 
L 379.90453 218.01697 
L 379.641505 218.01697 
L 379.378481 218.01697 
L 379.115456 218.01697 
L 378.852432 218.01697 
L 378.589408 218.01697 
L 378.326383 218.01697 
L 378.063359 218.01697 
L 377.800334 218.01697 
L 377.53731 218.01697 
L 377.274286 218.01697 
L 377.011261 218.01697 
L 376.748237 218.01697 
L 376.485212 218.01697 
L 376.222188 218.01697 
L 375.959164 218.01697 
L 375.696139 218.01697 
L 375.433115 218.01697 
L 375.17009 218.01697 
L 374.907066 218.01697 
L 374.644042 218.01697 
L 374.381017 218.01697 
L 374.117993 218.01697 
L 373.854968 218.01697 
L 373.591944 218.01697 
L 373.32892 218.01697 
L 373.065895 218.01697 
L 372.802871 218.01697 
L 372.539846 218.01697 
L 372.276822 218.01697 
L 372.013798 218.01697 
L 371.750773 218.01697 
L 371.487749 218.01697 
L 371.224724 218.01697 
L 370.9617 218.01697 
L 370.698676 218.01697 
L 370.435651 218.01697 
L 370.172627 218.01697 
L 369.909602 218.01697 
L 369.646578 218.01697 
L 369.383554 218.01697 
L 369.120529 218.01697 
L 368.857505 218.01697 
L 368.59448 218.01697 
L 368.331456 218.01697 
L 368.068432 218.01697 
L 367.805407 218.01697 
L 367.542383 218.01697 
L 367.279358 218.01697 
L 367.016334 218.01697 
L 366.75331 218.01697 
L 366.490285 218.01697 
L 366.227261 218.01697 
L 365.964236 218.01697 
L 365.701212 218.01697 
L 365.438188 218.01697 
L 365.175163 218.01697 
L 364.912139 218.01697 
L 364.649114 218.01697 
L 364.38609 218.01697 
L 364.123066 218.01697 
L 363.860041 218.01697 
L 363.597017 218.01697 
L 363.333992 218.01697 
L 363.070968 218.01697 
L 362.807944 218.01697 
L 362.544919 218.01697 
L 362.281895 218.01697 
L 362.01887 218.01697 
L 361.755846 218.01697 
L 361.492822 218.01697 
L 361.229797 218.01697 
L 360.966773 218.01697 
L 360.703748 218.01697 
L 360.440724 218.01697 
L 360.1777 218.01697 
L 359.914675 218.01697 
L 359.651651 218.01697 
L 359.388626 218.01697 
L 359.125602 218.01697 
L 358.862578 218.01697 
L 358.599553 218.01697 
L 358.336529 218.01697 
L 358.073504 218.01697 
L 357.81048 218.01697 
L 357.547456 218.01697 
L 357.284431 218.01697 
L 357.021407 218.01697 
L 356.758382 218.01697 
L 356.495358 218.01697 
L 356.232334 218.01697 
L 355.969309 218.01697 
L 355.706285 218.01697 
L 355.44326 218.01697 
L 355.180236 218.01697 
L 354.917212 218.01697 
L 354.654187 218.01697 
L 354.391163 218.01697 
L 354.128138 218.01697 
L 353.865114 218.01697 
L 353.60209 218.01697 
L 353.339065 218.01697 
L 353.076041 218.01697 
L 352.813016 218.01697 
L 352.549992 218.01697 
L 352.286968 218.01697 
L 352.023943 218.01697 
L 351.760919 218.01697 
L 351.497895 218.01697 
L 351.23487 218.01697 
L 350.971846 218.01697 
L 350.708821 218.01697 
L 350.445797 218.01697 
L 350.182773 218.01697 
L 349.919748 218.01697 
L 349.656724 218.01697 
L 349.393699 218.01697 
L 349.130675 218.01697 
L 348.867651 218.01697 
L 348.604626 218.01697 
L 348.341602 218.01697 
L 348.078577 218.01697 
L 347.815553 218.01697 
L 347.552529 218.01697 
L 347.289504 218.01697 
L 347.02648 218.01697 
L 346.763455 218.01697 
L 346.500431 218.01697 
L 346.237407 218.01697 
L 345.974382 218.01697 
L 345.711358 218.01697 
L 345.448333 218.01697 
L 345.185309 218.01697 
L 344.922285 218.01697 
L 344.65926 218.01697 
L 344.396236 218.01697 
L 344.133211 218.01697 
L 343.870187 218.01697 
L 343.607163 218.01697 
L 343.344138 218.01697 
L 343.081114 218.01697 
L 342.818089 218.01697 
L 342.555065 218.01697 
L 342.292041 218.01697 
L 342.029016 218.01697 
L 341.765992 218.01697 
L 341.502967 218.01697 
L 341.239943 218.01697 
L 340.976919 218.01697 
L 340.713894 218.01697 
L 340.45087 218.01697 
L 340.187845 218.01697 
L 339.924821 218.01697 
L 339.661797 218.01697 
L 339.398772 218.01697 
L 339.135748 218.01697 
L 338.872723 218.01697 
L 338.609699 218.01697 
L 338.346675 218.01697 
L 338.08365 218.01697 
L 337.820626 218.01697 
L 337.557601 218.01697 
L 337.294577 218.01697 
L 337.031553 218.01697 
L 336.768528 218.01697 
L 336.505504 218.01697 
L 336.242479 218.01697 
L 335.979455 218.01697 
L 335.716431 218.01697 
L 335.453406 218.01697 
L 335.190382 218.01697 
L 334.927357 218.01697 
L 334.664333 218.01697 
L 334.401309 218.01697 
L 334.138284 218.01697 
L 333.87526 218.01697 
L 333.612235 218.01697 
L 333.349211 218.01697 
L 333.086187 218.01697 
L 332.823162 218.01697 
L 332.560138 218.01697 
L 332.297113 218.01697 
L 332.034089 218.01697 
L 331.771065 218.01697 
L 331.50804 218.01697 
L 331.245016 218.01697 
L 330.981991 218.01697 
L 330.718967 218.01697 
L 330.455943 218.01697 
L 330.192918 218.01697 
L 329.929894 218.01697 
L 329.666869 218.01697 
L 329.403845 218.01697 
L 329.140821 218.01697 
L 328.877796 218.01697 
L 328.614772 218.01697 
L 328.351747 218.01697 
L 328.088723 218.01697 
L 327.825699 218.01697 
L 327.562674 218.01697 
L 327.29965 218.01697 
L 327.036625 218.01697 
L 326.773601 218.01697 
L 326.510577 218.01697 
L 326.247552 218.01697 
L 325.984528 218.01697 
L 325.721503 218.01697 
L 325.458479 218.01697 
L 325.195455 218.01697 
L 324.93243 218.01697 
L 324.669406 218.01697 
L 324.406381 218.01697 
L 324.143357 218.01697 
L 323.880333 218.01697 
L 323.617308 218.01697 
L 323.354284 218.01697 
L 323.091259 218.01697 
L 322.828235 218.01697 
L 322.565211 218.01697 
L 322.302186 218.01697 
L 322.039162 218.01697 
L 321.776137 218.01697 
L 321.513113 218.01697 
L 321.250089 218.01697 
L 320.987064 218.01697 
L 320.72404 218.01697 
L 320.461015 218.01697 
L 320.197991 218.01697 
L 319.934967 218.01697 
L 319.671942 218.01697 
L 319.408918 218.01697 
L 319.145893 218.01697 
L 318.882869 218.01697 
L 318.619845 218.01697 
L 318.35682 218.01697 
L 318.093796 218.01697 
L 317.830771 218.01697 
L 317.567747 218.01697 
L 317.304723 218.01697 
L 317.041698 218.01697 
L 316.778674 218.01697 
L 316.515649 218.01697 
L 316.252625 218.01697 
L 315.989601 218.01697 
L 315.726576 218.01697 
L 315.463552 218.01697 
L 315.200527 218.01697 
L 314.937503 218.01697 
L 314.674479 218.01697 
L 314.411454 218.01697 
L 314.14843 218.01697 
L 313.885405 218.01697 
L 313.622381 218.01697 
L 313.359357 218.01697 
z
" clip-path="url(#p8bafa3ce8e)" style="fill: #e8860c; fill-opacity: 0.06; stroke: #e8860c; stroke-opacity: 0.06"/>
   </g>
   <g id="matplotlib.axis_7"/>
   <g id="matplotlib.axis_8"/>
   <g id="line2d_7">
    <path d="M 321.682243 -1 
L 323.091259 11.459493 
L 324.669406 23.300397 
L 325.984528 31.665499 
L 327.29965 38.831399 
L 328.614772 44.946369 
L 329.929894 50.151191 
L 331.245016 54.579161 
L 332.823162 59.043887 
L 334.401309 62.773868 
L 335.979455 65.956735 
L 338.08365 69.644717 
L 344.922285 81.091785 
L 346.763455 84.841397 
L 348.604626 89.114989 
L 350.445797 93.990643 
L 352.286968 99.517676 
L 354.128138 105.716637 
L 356.232334 113.612069 
L 358.599553 123.455008 
L 361.229797 135.394966 
L 364.912139 153.248686 
L 369.646578 176.149107 
L 372.013798 186.497063 
L 373.854968 193.533656 
L 375.17009 197.826522 
L 376.485212 201.368297 
L 377.53731 203.572614 
L 378.326383 204.812579 
L 379.115456 205.663892 
L 379.641505 205.999742 
L 380.167554 206.138915 
L 380.693603 206.07149 
L 381.219652 205.787356 
L 381.7457 205.276207 
L 382.271749 204.527549 
L 383.060822 202.935799 
L 383.849896 200.748681 
L 384.638969 197.928346 
L 385.691066 193.115657 
L 386.743164 187.013421 
L 387.795262 179.523868 
L 388.847359 170.546161 
L 390.162481 157.07273 
L 391.477603 140.901809 
L 392.003652 133.629749 
L 392.003652 133.629749 
" clip-path="url(#p8bafa3ce8e)" style="fill: none; stroke: #e8860c; stroke-width: 2.5; stroke-linecap: square"/>
   </g>
   <g id="line2d_8">
    <path d="M 375.480999 198.736408 
L 375.480999 161.54633 
" clip-path="url(#p8bafa3ce8e)" style="fill: none; stroke-dasharray: 1.5,2.475; stroke-dashoffset: 0; stroke: #c0503f; stroke-opacity: 0.6; stroke-width: 1.5"/>
   </g>
   <g id="line2d_9">
    <path d="M 352.410915 100.355212 
L 352.410915 99.913833 
" clip-path="url(#p8bafa3ce8e)" style="fill: none; stroke-dasharray: 1.5,2.475; stroke-dashoffset: 0; stroke: #7b1fa2; stroke-opacity: 0.6; stroke-width: 1.5"/>
   </g>
   <g id="line2d_10">
    <path d="M 363.075944 144.238734 
L 363.075944 127.283533 
" clip-path="url(#p8bafa3ce8e)" style="fill: none; stroke-dasharray: 1.5,2.475; stroke-dashoffset: 0; stroke: #1a8a7a; stroke-opacity: 0.6; stroke-width: 1.5"/>
   </g>
   <g id="text_5">
    <!-- $\lambda\to1.0$ -->
    <g style="fill: #e8860c" transform="translate(336.654504 13.928344)">
     <text>
      <tspan x="0" y="-0.15625" style="font-style: oblique; font-size: 9.4px; font-family: 'DejaVu Sans'; fill: #e8860c">λ</tspan>
      <tspan x="7.374573" y="-0.15625" style="font-size: 9.4px; font-family: 'DejaVu Sans'; fill: #e8860c">→</tspan>
      <tspan x="17.056274" y="-0.15625" style="font-size: 9.4px; font-family: 'DejaVu Sans'; fill: #e8860c">1</tspan>
      <tspan x="23.020935" y="-0.15625" style="font-size: 9.4px; font-family: 'DejaVu Sans'; fill: #e8860c">.</tspan>
      <tspan x="26.000977" y="-0.15625" style="font-size: 9.4px; font-family: 'DejaVu Sans'; fill: #e8860c">0</tspan>
     </text>
    </g>
    <text style="font-weight: 700; font-size: 9.4px; font-family: 'Arial'; fill: #e8860c" transform="translate(330.74352 23.52097)">work step</text>
   </g>
   <g id="PathCollection_10">
    <g clip-path="url(#p8bafa3ce8e)">
     <use xlink:href="#md186dc95f9" x="375.480999" y="198.736408" style="fill: #ffffff; stroke: #c0503f; stroke-width: 2"/>
    </g>
   </g>
   <g id="PathCollection_11">
    <g clip-path="url(#p8bafa3ce8e)">
     <use xlink:href="#m095c317740" x="352.410915" y="99.913833" style="fill: #ffffff; stroke: #7b1fa2; stroke-width: 2"/>
    </g>
   </g>
   <g id="PathCollection_12">
    <g clip-path="url(#p8bafa3ce8e)">
     <use xlink:href="#ma1e6dc5f95" x="363.075944" y="144.238734" style="fill: #ffffff; stroke: #1a8a7a; stroke-width: 2"/>
    </g>
   </g>
  </g>
  <g id="axes_5">
   <g id="patch_9">
    <path d="M 410.878283 218.01697 
L 489.522578 218.01697 
L 489.522578 29.52097 
L 410.878283 29.52097 
z
" style="fill: #ffffff"/>
   </g>
   <g id="FillBetweenPolyCollection_5">
    <path d="M 410.878283 218.01697 
L 410.878283 -122.936245 
L 411.141307 -117.524887 
L 411.404332 -112.231865 
L 411.667356 -107.055405 
L 411.93038 -101.993746 
L 412.193405 -97.045138 
L 412.456429 -92.207845 
L 412.719454 -87.480141 
L 412.982478 -82.860312 
L 413.245502 -78.346658 
L 413.508527 -73.937489 
L 413.771551 -69.631127 
L 414.034576 -65.425907 
L 414.2976 -61.320176 
L 414.560624 -57.312292 
L 414.823649 -53.400625 
L 415.086673 -49.583559 
L 415.349698 -45.859487 
L 415.612722 -42.226816 
L 415.875746 -38.683965 
L 416.138771 -35.229364 
L 416.401795 -31.861455 
L 416.66482 -28.578692 
L 416.927844 -25.379543 
L 417.190868 -22.262485 
L 417.453893 -19.226009 
L 417.716917 -16.268617 
L 417.979942 -13.388824 
L 418.242966 -10.585155 
L 418.50599 -7.856148 
L 418.769015 -5.200355 
L 419.032039 -2.616338 
L 419.295064 -0.102669 
L 419.558088 2.342063 
L 419.821112 4.719262 
L 420.084137 7.030316 
L 420.347161 9.276605 
L 420.610186 11.459493 
L 420.87321 13.580335 
L 421.136234 15.640472 
L 421.399259 17.641235 
L 421.662283 19.583942 
L 421.925308 21.469898 
L 422.188332 23.300397 
L 422.451356 25.076722 
L 422.714381 26.800143 
L 422.977405 28.471917 
L 423.24043 30.093291 
L 423.503454 31.665499 
L 423.766478 33.189762 
L 424.029503 34.667292 
L 424.292527 36.099286 
L 424.555552 37.48693 
L 424.818576 38.831399 
L 425.0816 40.133854 
L 425.344625 41.395447 
L 425.607649 42.617315 
L 425.870674 43.800584 
L 426.133698 44.946369 
L 426.396722 46.055772 
L 426.659747 47.129883 
L 426.922771 48.169781 
L 427.185796 49.176533 
L 427.44882 50.151191 
L 427.711844 51.0948 
L 427.974869 52.008389 
L 428.237893 52.892976 
L 428.500918 53.749569 
L 428.763942 54.579161 
L 429.026966 55.382736 
L 429.289991 56.161262 
L 429.553015 56.9157 
L 429.81604 57.646996 
L 430.079064 58.356084 
L 430.342088 59.043887 
L 430.605113 59.711315 
L 430.868137 60.359267 
L 431.131162 60.988629 
L 431.394186 61.600277 
L 431.65721 62.195073 
L 431.920235 62.773868 
L 432.183259 63.3375 
L 432.446284 63.886796 
L 432.709308 64.42257 
L 432.972332 64.945627 
L 433.235357 65.456755 
L 433.498381 65.956735 
L 433.761406 66.446333 
L 434.02443 66.926303 
L 434.287454 67.39739 
L 434.550479 67.860322 
L 434.813503 68.315821 
L 435.076528 68.764591 
L 435.339552 69.207329 
L 435.602576 69.644717 
L 435.865601 70.077426 
L 436.128625 70.506115 
L 436.39165 70.931432 
L 436.654674 71.35401 
L 436.917698 71.774474 
L 437.180723 72.193434 
L 437.443747 72.61149 
L 437.706772 73.029228 
L 437.969796 73.447223 
L 438.23282 73.866039 
L 438.495845 74.286227 
L 438.758869 74.708326 
L 439.021894 75.132863 
L 439.284918 75.560354 
L 439.547942 75.991301 
L 439.810967 76.426196 
L 440.073991 76.865518 
L 440.337016 77.309735 
L 440.60004 77.759301 
L 440.863064 78.21466 
L 441.126089 78.676244 
L 441.389113 79.144471 
L 441.652138 79.619749 
L 441.915162 80.102474 
L 442.178186 80.593029 
L 442.441211 81.091785 
L 442.704235 81.599102 
L 442.96726 82.115327 
L 443.230284 82.640795 
L 443.493308 83.175831 
L 443.756333 83.720746 
L 444.019357 84.275839 
L 444.282381 84.841397 
L 444.545406 85.417697 
L 444.80843 86.005002 
L 445.071455 86.603564 
L 445.334479 87.213621 
L 445.597503 87.835403 
L 445.860528 88.469124 
L 446.123552 89.114989 
L 446.386577 89.773188 
L 446.649601 90.443902 
L 446.912625 91.127298 
L 447.17565 91.823533 
L 447.438674 92.532749 
L 447.701699 93.255079 
L 447.964723 93.990643 
L 448.227747 94.739548 
L 448.490772 95.50189 
L 448.753796 96.277754 
L 449.016821 97.06721 
L 449.279845 97.870319 
L 449.542869 98.687129 
L 449.805894 99.517676 
L 450.068918 100.361984 
L 450.331943 101.220064 
L 450.594967 102.091917 
L 450.857991 102.977531 
L 451.121016 103.876881 
L 451.38404 104.789932 
L 451.647065 105.716637 
L 451.910089 106.656934 
L 452.173113 107.610752 
L 452.436138 108.578007 
L 452.699162 109.558604 
L 452.962187 110.552434 
L 453.225211 111.559379 
L 453.488235 112.579305 
L 453.75126 113.612069 
L 454.014284 114.657515 
L 454.277309 115.715476 
L 454.540333 116.785773 
L 454.803357 117.868212 
L 455.066382 118.962591 
L 455.329406 120.068693 
L 455.592431 121.186292 
L 455.855455 122.315148 
L 456.118479 123.455008 
L 456.381504 124.60561 
L 456.644528 125.766678 
L 456.907553 126.937924 
L 457.170577 128.119048 
L 457.433601 129.30974 
L 457.696626 130.509676 
L 457.95965 131.71852 
L 458.222675 132.935924 
L 458.485699 134.16153 
L 458.748723 135.394966 
L 459.011748 136.635848 
L 459.274772 137.883781 
L 459.537797 139.138358 
L 459.800821 140.399159 
L 460.063845 141.665753 
L 460.32687 142.937697 
L 460.589894 144.214536 
L 460.852919 145.495801 
L 461.115943 146.781014 
L 461.378967 148.069684 
L 461.641992 149.361308 
L 461.905016 150.655369 
L 462.168041 151.951342 
L 462.431065 153.248686 
L 462.694089 154.546851 
L 462.957114 155.845274 
L 463.220138 157.143379 
L 463.483163 158.440579 
L 463.746187 159.736276 
L 464.009211 161.029858 
L 464.272236 162.320702 
L 464.53526 163.608173 
L 464.798285 164.891624 
L 465.061309 166.170397 
L 465.324333 167.44382 
L 465.587358 168.71121 
L 465.850382 169.971872 
L 466.113407 171.2251 
L 466.376431 172.470174 
L 466.639455 173.706364 
L 466.90248 174.932927 
L 467.165504 176.149107 
L 467.428529 177.354139 
L 467.691553 178.547243 
L 467.954577 179.727629 
L 468.217602 180.894494 
L 468.480626 182.047022 
L 468.743651 183.184388 
L 469.006675 184.305753 
L 469.269699 185.410265 
L 469.532724 186.497063 
L 469.795748 187.565272 
L 470.058773 188.614004 
L 470.321797 189.642362 
L 470.584821 190.649435 
L 470.847846 191.634299 
L 471.11087 192.596022 
L 471.373895 193.533656 
L 471.636919 194.446242 
L 471.899943 195.33281 
L 472.162968 196.192378 
L 472.425992 197.023951 
L 472.689017 197.826522 
L 472.952041 198.599074 
L 473.215065 199.340576 
L 473.47809 200.049985 
L 473.741114 200.726248 
L 474.004139 201.368297 
L 474.267163 201.975054 
L 474.530187 202.54543 
L 474.793212 203.078321 
L 475.056236 203.572614 
L 475.319261 204.027182 
L 475.582285 204.440887 
L 475.845309 204.812579 
L 476.108334 205.141095 
L 476.371358 205.425262 
L 476.634383 205.663892 
L 476.897407 205.855789 
L 477.160431 205.999742 
L 477.423456 206.094529 
L 477.68648 206.138915 
L 477.949505 206.131655 
L 478.212529 206.07149 
L 478.475553 205.957151 
L 478.738578 205.787356 
L 479.001602 205.56081 
L 479.264627 205.276207 
L 479.527651 204.93223 
L 479.790675 204.527549 
L 480.0537 204.060821 
L 480.316724 203.530693 
L 480.579749 202.935799 
L 480.842773 202.274761 
L 481.105797 201.546189 
L 481.368822 200.748681 
L 481.631846 199.880824 
L 481.894871 198.941192 
L 482.157895 197.928346 
L 482.420919 196.840837 
L 482.683944 195.677204 
L 482.946968 194.435973 
L 483.209993 193.115657 
L 483.473017 191.71476 
L 483.736041 190.231771 
L 483.999066 188.665169 
L 484.26209 187.013421 
L 484.525115 185.27498 
L 484.788139 183.448289 
L 485.051163 181.531779 
L 485.314188 179.523868 
L 485.577212 177.422962 
L 485.840237 175.227456 
L 486.103261 172.935732 
L 486.366285 170.546161 
L 486.62931 168.057102 
L 486.892334 165.4669 
L 487.155359 162.773892 
L 487.418383 159.976398 
L 487.681407 157.07273 
L 487.944432 154.061186 
L 488.207456 150.940054 
L 488.470481 147.707607 
L 488.733505 144.362108 
L 488.996529 140.901809 
L 489.259554 137.324947 
L 489.522578 133.629749 
L 489.522578 218.01697 
L 489.522578 218.01697 
L 489.259554 218.01697 
L 488.996529 218.01697 
L 488.733505 218.01697 
L 488.470481 218.01697 
L 488.207456 218.01697 
L 487.944432 218.01697 
L 487.681407 218.01697 
L 487.418383 218.01697 
L 487.155359 218.01697 
L 486.892334 218.01697 
L 486.62931 218.01697 
L 486.366285 218.01697 
L 486.103261 218.01697 
L 485.840237 218.01697 
L 485.577212 218.01697 
L 485.314188 218.01697 
L 485.051163 218.01697 
L 484.788139 218.01697 
L 484.525115 218.01697 
L 484.26209 218.01697 
L 483.999066 218.01697 
L 483.736041 218.01697 
L 483.473017 218.01697 
L 483.209993 218.01697 
L 482.946968 218.01697 
L 482.683944 218.01697 
L 482.420919 218.01697 
L 482.157895 218.01697 
L 481.894871 218.01697 
L 481.631846 218.01697 
L 481.368822 218.01697 
L 481.105797 218.01697 
L 480.842773 218.01697 
L 480.579749 218.01697 
L 480.316724 218.01697 
L 480.0537 218.01697 
L 479.790675 218.01697 
L 479.527651 218.01697 
L 479.264627 218.01697 
L 479.001602 218.01697 
L 478.738578 218.01697 
L 478.475553 218.01697 
L 478.212529 218.01697 
L 477.949505 218.01697 
L 477.68648 218.01697 
L 477.423456 218.01697 
L 477.160431 218.01697 
L 476.897407 218.01697 
L 476.634383 218.01697 
L 476.371358 218.01697 
L 476.108334 218.01697 
L 475.845309 218.01697 
L 475.582285 218.01697 
L 475.319261 218.01697 
L 475.056236 218.01697 
L 474.793212 218.01697 
L 474.530187 218.01697 
L 474.267163 218.01697 
L 474.004139 218.01697 
L 473.741114 218.01697 
L 473.47809 218.01697 
L 473.215065 218.01697 
L 472.952041 218.01697 
L 472.689017 218.01697 
L 472.425992 218.01697 
L 472.162968 218.01697 
L 471.899943 218.01697 
L 471.636919 218.01697 
L 471.373895 218.01697 
L 471.11087 218.01697 
L 470.847846 218.01697 
L 470.584821 218.01697 
L 470.321797 218.01697 
L 470.058773 218.01697 
L 469.795748 218.01697 
L 469.532724 218.01697 
L 469.269699 218.01697 
L 469.006675 218.01697 
L 468.743651 218.01697 
L 468.480626 218.01697 
L 468.217602 218.01697 
L 467.954577 218.01697 
L 467.691553 218.01697 
L 467.428529 218.01697 
L 467.165504 218.01697 
L 466.90248 218.01697 
L 466.639455 218.01697 
L 466.376431 218.01697 
L 466.113407 218.01697 
L 465.850382 218.01697 
L 465.587358 218.01697 
L 465.324333 218.01697 
L 465.061309 218.01697 
L 464.798285 218.01697 
L 464.53526 218.01697 
L 464.272236 218.01697 
L 464.009211 218.01697 
L 463.746187 218.01697 
L 463.483163 218.01697 
L 463.220138 218.01697 
L 462.957114 218.01697 
L 462.694089 218.01697 
L 462.431065 218.01697 
L 462.168041 218.01697 
L 461.905016 218.01697 
L 461.641992 218.01697 
L 461.378967 218.01697 
L 461.115943 218.01697 
L 460.852919 218.01697 
L 460.589894 218.01697 
L 460.32687 218.01697 
L 460.063845 218.01697 
L 459.800821 218.01697 
L 459.537797 218.01697 
L 459.274772 218.01697 
L 459.011748 218.01697 
L 458.748723 218.01697 
L 458.485699 218.01697 
L 458.222675 218.01697 
L 457.95965 218.01697 
L 457.696626 218.01697 
L 457.433601 218.01697 
L 457.170577 218.01697 
L 456.907553 218.01697 
L 456.644528 218.01697 
L 456.381504 218.01697 
L 456.118479 218.01697 
L 455.855455 218.01697 
L 455.592431 218.01697 
L 455.329406 218.01697 
L 455.066382 218.01697 
L 454.803357 218.01697 
L 454.540333 218.01697 
L 454.277309 218.01697 
L 454.014284 218.01697 
L 453.75126 218.01697 
L 453.488235 218.01697 
L 453.225211 218.01697 
L 452.962187 218.01697 
L 452.699162 218.01697 
L 452.436138 218.01697 
L 452.173113 218.01697 
L 451.910089 218.01697 
L 451.647065 218.01697 
L 451.38404 218.01697 
L 451.121016 218.01697 
L 450.857991 218.01697 
L 450.594967 218.01697 
L 450.331943 218.01697 
L 450.068918 218.01697 
L 449.805894 218.01697 
L 449.542869 218.01697 
L 449.279845 218.01697 
L 449.016821 218.01697 
L 448.753796 218.01697 
L 448.490772 218.01697 
L 448.227747 218.01697 
L 447.964723 218.01697 
L 447.701699 218.01697 
L 447.438674 218.01697 
L 447.17565 218.01697 
L 446.912625 218.01697 
L 446.649601 218.01697 
L 446.386577 218.01697 
L 446.123552 218.01697 
L 445.860528 218.01697 
L 445.597503 218.01697 
L 445.334479 218.01697 
L 445.071455 218.01697 
L 444.80843 218.01697 
L 444.545406 218.01697 
L 444.282381 218.01697 
L 444.019357 218.01697 
L 443.756333 218.01697 
L 443.493308 218.01697 
L 443.230284 218.01697 
L 442.96726 218.01697 
L 442.704235 218.01697 
L 442.441211 218.01697 
L 442.178186 218.01697 
L 441.915162 218.01697 
L 441.652138 218.01697 
L 441.389113 218.01697 
L 441.126089 218.01697 
L 440.863064 218.01697 
L 440.60004 218.01697 
L 440.337016 218.01697 
L 440.073991 218.01697 
L 439.810967 218.01697 
L 439.547942 218.01697 
L 439.284918 218.01697 
L 439.021894 218.01697 
L 438.758869 218.01697 
L 438.495845 218.01697 
L 438.23282 218.01697 
L 437.969796 218.01697 
L 437.706772 218.01697 
L 437.443747 218.01697 
L 437.180723 218.01697 
L 436.917698 218.01697 
L 436.654674 218.01697 
L 436.39165 218.01697 
L 436.128625 218.01697 
L 435.865601 218.01697 
L 435.602576 218.01697 
L 435.339552 218.01697 
L 435.076528 218.01697 
L 434.813503 218.01697 
L 434.550479 218.01697 
L 434.287454 218.01697 
L 434.02443 218.01697 
L 433.761406 218.01697 
L 433.498381 218.01697 
L 433.235357 218.01697 
L 432.972332 218.01697 
L 432.709308 218.01697 
L 432.446284 218.01697 
L 432.183259 218.01697 
L 431.920235 218.01697 
L 431.65721 218.01697 
L 431.394186 218.01697 
L 431.131162 218.01697 
L 430.868137 218.01697 
L 430.605113 218.01697 
L 430.342088 218.01697 
L 430.079064 218.01697 
L 429.81604 218.01697 
L 429.553015 218.01697 
L 429.289991 218.01697 
L 429.026966 218.01697 
L 428.763942 218.01697 
L 428.500918 218.01697 
L 428.237893 218.01697 
L 427.974869 218.01697 
L 427.711844 218.01697 
L 427.44882 218.01697 
L 427.185796 218.01697 
L 426.922771 218.01697 
L 426.659747 218.01697 
L 426.396722 218.01697 
L 426.133698 218.01697 
L 425.870674 218.01697 
L 425.607649 218.01697 
L 425.344625 218.01697 
L 425.0816 218.01697 
L 424.818576 218.01697 
L 424.555552 218.01697 
L 424.292527 218.01697 
L 424.029503 218.01697 
L 423.766478 218.01697 
L 423.503454 218.01697 
L 423.24043 218.01697 
L 422.977405 218.01697 
L 422.714381 218.01697 
L 422.451356 218.01697 
L 422.188332 218.01697 
L 421.925308 218.01697 
L 421.662283 218.01697 
L 421.399259 218.01697 
L 421.136234 218.01697 
L 420.87321 218.01697 
L 420.610186 218.01697 
L 420.347161 218.01697 
L 420.084137 218.01697 
L 419.821112 218.01697 
L 419.558088 218.01697 
L 419.295064 218.01697 
L 419.032039 218.01697 
L 418.769015 218.01697 
L 418.50599 218.01697 
L 418.242966 218.01697 
L 417.979942 218.01697 
L 417.716917 218.01697 
L 417.453893 218.01697 
L 417.190868 218.01697 
L 416.927844 218.01697 
L 416.66482 218.01697 
L 416.401795 218.01697 
L 416.138771 218.01697 
L 415.875746 218.01697 
L 415.612722 218.01697 
L 415.349698 218.01697 
L 415.086673 218.01697 
L 414.823649 218.01697 
L 414.560624 218.01697 
L 414.2976 218.01697 
L 414.034576 218.01697 
L 413.771551 218.01697 
L 413.508527 218.01697 
L 413.245502 218.01697 
L 412.982478 218.01697 
L 412.719454 218.01697 
L 412.456429 218.01697 
L 412.193405 218.01697 
L 411.93038 218.01697 
L 411.667356 218.01697 
L 411.404332 218.01697 
L 411.141307 218.01697 
L 410.878283 218.01697 
z
" clip-path="url(#p54e5e45651)" style="fill: #1a8a7a; fill-opacity: 0.06; stroke: #1a8a7a; stroke-opacity: 0.06"/>
   </g>
   <g id="matplotlib.axis_9"/>
   <g id="matplotlib.axis_10"/>
   <g id="line2d_11">
    <path d="M 419.201169 -1 
L 420.610186 11.459493 
L 422.188332 23.300397 
L 423.503454 31.665499 
L 424.818576 38.831399 
L 426.133698 44.946369 
L 427.44882 50.151191 
L 428.763942 54.579161 
L 430.342088 59.043887 
L 431.920235 62.773868 
L 433.498381 65.956735 
L 435.602576 69.644717 
L 442.441211 81.091785 
L 444.282381 84.841397 
L 446.123552 89.114989 
L 447.964723 93.990643 
L 449.805894 99.517676 
L 451.647065 105.716637 
L 453.75126 113.612069 
L 456.118479 123.455008 
L 458.748723 135.394966 
L 462.431065 153.248686 
L 467.165504 176.149107 
L 469.532724 186.497063 
L 471.373895 193.533656 
L 472.689017 197.826522 
L 474.004139 201.368297 
L 475.056236 203.572614 
L 475.845309 204.812579 
L 476.634383 205.663892 
L 477.160431 205.999742 
L 477.68648 206.138915 
L 478.212529 206.07149 
L 478.738578 205.787356 
L 479.264627 205.276207 
L 479.790675 204.527549 
L 480.579749 202.935799 
L 481.368822 200.748681 
L 482.157895 197.928346 
L 483.209993 193.115657 
L 484.26209 187.013421 
L 485.314188 179.523868 
L 486.366285 170.546161 
L 487.681407 157.07273 
L 488.996529 140.901809 
L 489.522578 133.629749 
L 489.522578 133.629749 
" clip-path="url(#p54e5e45651)" style="fill: none; stroke: #1a8a7a; stroke-width: 2.5; stroke-linecap: square"/>
   </g>
   <g id="text_6">
    <!-- $\lambda=1.0$ -->
    <g style="fill: #1a8a7a" transform="translate(434.17343 13.928344)">
     <text>
      <tspan x="0" y="-0.15625" style="font-style: oblique; font-size: 9.4px; font-family: 'DejaVu Sans'; fill: #1a8a7a">λ</tspan>
      <tspan x="7.374573" y="-0.15625" style="font-size: 9.4px; font-family: 'DejaVu Sans'; fill: #1a8a7a">=</tspan>
      <tspan x="17.056274" y="-0.15625" style="font-size: 9.4px; font-family: 'DejaVu Sans'; fill: #1a8a7a">1</tspan>
      <tspan x="23.020935" y="-0.15625" style="font-size: 9.4px; font-family: 'DejaVu Sans'; fill: #1a8a7a">.</tspan>
      <tspan x="26.000977" y="-0.15625" style="font-size: 9.4px; font-family: 'DejaVu Sans'; fill: #1a8a7a">0</tspan>
     </text>
    </g>
    <text style="font-weight: 700; font-size: 9.4px; font-family: 'Arial'; fill: #1a8a7a" transform="translate(439.224462 23.52097)">relax</text>
   </g>
   <g id="PathCollection_13">
    <g clip-path="url(#p54e5e45651)">
     <use xlink:href="#md186dc95f9" x="480.023069" y="204.11841" style="fill: #ffffff; stroke: #c0503f; stroke-width: 2"/>
    </g>
   </g>
   <g id="PathCollection_14">
    <g clip-path="url(#p54e5e45651)">
     <use xlink:href="#m095c317740" x="478.827598" y="205.7171" style="fill: #ffffff; stroke: #7b1fa2; stroke-width: 2"/>
    </g>
   </g>
   <g id="PathCollection_15">
    <g clip-path="url(#p54e5e45651)">
     <use xlink:href="#ma1e6dc5f95" x="480.68877" y="202.669911" style="fill: #ffffff; stroke: #1a8a7a; stroke-width: 2"/>
    </g>
   </g>
   <g id="patch_10">
    <path d="M 474.999189 209.702332 
Q 476.512731 209.702332 476.013812 209.702332 
" style="fill: none; stroke: #c0503f; stroke-width: 1.8; stroke-linecap: round"/>
    <path d="M 471.613812 207.502332 
L 476.013812 209.702332 
L 471.613812 211.902332 
" style="fill: none; stroke: #c0503f; stroke-width: 1.8; stroke-linecap: round"/>
   </g>
   <g id="patch_11">
    <path d="M 451.929967 209.702332 
Q 464.378987 209.702332 474.815545 209.702332 
" style="fill: none; stroke: #7b1fa2; stroke-width: 1.8; stroke-linecap: round"/>
    <path d="M 470.415545 207.502332 
L 474.815545 209.702332 
L 470.415545 211.902332 
" style="fill: none; stroke: #7b1fa2; stroke-width: 1.8; stroke-linecap: round"/>
   </g>
   <g id="patch_12">
    <path d="M 462.591505 209.702332 
Q 470.639398 209.702332 476.674829 209.702332 
" style="fill: none; stroke: #1a8a7a; stroke-width: 1.8; stroke-linecap: round"/>
    <path d="M 472.274829 207.502332 
L 476.674829 209.702332 
L 472.274829 211.902332 
" style="fill: none; stroke: #1a8a7a; stroke-width: 1.8; stroke-linecap: round"/>
   </g>
  </g>
  <g id="text_7">
   <text style="font-weight: 700; font-size: 17px; font-family: 'Arial'; text-anchor: middle; fill: #e8860c" x="108.884189" y="126.951689" transform="rotate(-0 108.884189 126.951689)">→</text>
  </g>
  <g id="text_8">
   <!-- shift $\lambda$ -->
   <g style="fill: #e8860c" transform="translate(98.044189 149.65297)">
    <text>
     <tspan x="0" y="-0.921875" style="font-size: 8px; font-family: 'Arial'; fill: #e8860c">s</tspan>
     <tspan x="4" y="-0.921875" style="font-size: 8px; font-family: 'Arial'; fill: #e8860c">h</tspan>
     <tspan x="8.449219" y="-0.921875" style="font-size: 8px; font-family: 'Arial'; fill: #e8860c">i</tspan>
     <tspan x="10.226562" y="-0.921875" style="font-size: 8px; font-family: 'Arial'; fill: #e8860c">f</tspan>
     <tspan x="12.449219" y="-0.921875" style="font-size: 8px; font-family: 'Arial'; fill: #e8860c">t</tspan>
     <tspan x="14.671875" y="-0.921875" style="font-size: 8px; font-family: 'Arial'; fill: #e8860c"> </tspan>
     <tspan x="16.894531" y="-0.921875" style="font-style: oblique; font-size: 8px; font-family: 'DejaVu Sans'; fill: #e8860c">λ</tspan>
    </text>
   </g>
   <text style="font-size: 8px; font-family: 'Arial'; fill: #e8860c" transform="translate(97.775439 158.23147)">(work)</text>
  </g>
  <g id="text_9">
   <text style="font-weight: 700; font-size: 17px; font-family: 'Arial'; text-anchor: middle; fill: #1a8a7a" x="206.403115" y="126.951689" transform="rotate(-0 206.403115 126.951689)">→</text>
  </g>
  <g id="text_10">
   <text style="font-size: 8px; font-family: 'Arial'; fill: #1a8a7a" transform="translate(193.961865 149.65297)">MCMC</text>
   <text style="font-size: 8px; font-family: 'Arial'; fill: #1a8a7a" transform="translate(195.06999 158.23147)">(relax)</text>
  </g>
  <g id="text_11">
   <text style="font-weight: 700; font-size: 17px; font-family: 'Arial'; text-anchor: middle; fill: #e8860c" x="303.922041" y="126.951689" transform="rotate(-0 303.922041 126.951689)">→</text>
  </g>
  <g id="text_12">
   <!-- shift $\lambda$ -->
   <g style="fill: #e8860c" transform="translate(293.082041 149.65297)">
    <text>
     <tspan x="0" y="-0.921875" style="font-size: 8px; font-family: 'Arial'; fill: #e8860c">s</tspan>
     <tspan x="4" y="-0.921875" style="font-size: 8px; font-family: 'Arial'; fill: #e8860c">h</tspan>
     <tspan x="8.449219" y="-0.921875" style="font-size: 8px; font-family: 'Arial'; fill: #e8860c">i</tspan>
     <tspan x="10.226562" y="-0.921875" style="font-size: 8px; font-family: 'Arial'; fill: #e8860c">f</tspan>
     <tspan x="12.449219" y="-0.921875" style="font-size: 8px; font-family: 'Arial'; fill: #e8860c">t</tspan>
     <tspan x="14.671875" y="-0.921875" style="font-size: 8px; font-family: 'Arial'; fill: #e8860c"> </tspan>
     <tspan x="16.894531" y="-0.921875" style="font-style: oblique; font-size: 8px; font-family: 'DejaVu Sans'; fill: #e8860c">λ</tspan>
    </text>
   </g>
   <text style="font-size: 8px; font-family: 'Arial'; fill: #e8860c" transform="translate(292.813291 158.23147)">(work)</text>
  </g>
  <g id="text_13">
   <text style="font-weight: 700; font-size: 17px; font-family: 'Arial'; text-anchor: middle; fill: #1a8a7a" x="401.440967" y="126.951689" transform="rotate(-0 401.440967 126.951689)">→</text>
  </g>
  <g id="text_14">
   <text style="font-size: 8px; font-family: 'Arial'; fill: #1a8a7a" transform="translate(388.999717 149.65297)">MCMC</text>
   <text style="font-size: 8px; font-family: 'Arial'; fill: #1a8a7a" transform="translate(390.107842 158.23147)">(relax)</text>
  </g>
 </g>
 <defs>
  <clipPath id="pb97545880b">
   <rect x="20.802578" y="29.52097" width="78.644295" height="188.496"/>
  </clipPath>
  <clipPath id="pd95de042be">
   <rect x="118.321504" y="29.52097" width="78.644295" height="188.496"/>
  </clipPath>
  <clipPath id="p70101ade47">
   <rect x="215.84043" y="29.52097" width="78.644295" height="188.496"/>
  </clipPath>
  <clipPath id="p8bafa3ce8e">
   <rect x="313.359357" y="29.52097" width="78.644295" height="188.496"/>
  </clipPath>
  <clipPath id="p54e5e45651">
   <rect x="410.878283" y="29.52097" width="78.644295" height="188.496"/>
  </clipPath>
 </defs>
</svg>
