<?xml version="1.0" encoding="utf-8" standalone="no"?>
<!DOCTYPE svg PUBLIC "-//W3C//DTD SVG 1.1//EN"
  "http://www.w3.org/Graphics/SVG/1.1/DTD/svg11.dtd">
<svg xmlns:xlink="http://www.w3.org/1999/xlink" width="394.035469pt" height="231.413516pt" viewBox="0 0 394.035469 231.413516" xmlns="http://www.w3.org/2000/svg" version="1.1">
 <metadata>
  <rdf:RDF xmlns:dc="http://purl.org/dc/elements/1.1/" xmlns:cc="http://creativecommons.org/ns#" xmlns:rdf="http://www.w3.org/1999/02/22-rdf-syntax-ns#">
   <cc:Work>
    <dc:type rdf:resource="http://purl.org/dc/dcmitype/StillImage"/>
    <dc:date>2026-06-21T18:21:43.724045</dc:date>
    <dc:format>image/svg+xml</dc:format>
    <dc:creator>
     <cc:Agent>
      <dc:title>Matplotlib v3.10.8, https://matplotlib.org/</dc:title>
     </cc:Agent>
    </dc:creator>
   </cc:Work>
  </rdf:RDF>
 </metadata>
 <defs>
  <style type="text/css">*{stroke-linejoin: round; stroke-linecap: butt}</style>
 </defs>
 <g id="figure_1">
  <g id="patch_1">
   <path d="M 0 231.413516 
L 394.035469 231.413516 
L 394.035469 0 
L 0 0 
L 0 231.413516 
z
" style="fill: none"/>
  </g>
  <g id="axes_1">
   <g id="patch_2">
    <path d="M 44.893672 195.015 
L 382.108672 195.015 
L 382.108672 7.2 
L 44.893672 7.2 
z
" style="fill: #ffffff"/>
   </g>
   <g id="FillBetweenPolyCollection_1">
    <defs>
     <path id="m812b4de7e9" d="M 44.893672 -36.398516 
L 44.893672 -36.45697 
L 45.569453 -36.463886 
L 46.245235 -36.471564 
L 46.921017 -36.480079 
L 47.596798 -36.489514 
L 48.27258 -36.499962 
L 48.948361 -36.51152 
L 49.624143 -36.524295 
L 50.299924 -36.538405 
L 50.975706 -36.553975 
L 51.651488 -36.571142 
L 52.327269 -36.590055 
L 53.003051 -36.610871 
L 53.678832 -36.633766 
L 54.354614 -36.658923 
L 55.030395 -36.686543 
L 55.706177 -36.716843 
L 56.381958 -36.750053 
L 57.05774 -36.786423 
L 57.733522 -36.826219 
L 58.409303 -36.869726 
L 59.085085 -36.91725 
L 59.760866 -36.969118 
L 60.436648 -37.025679 
L 61.112429 -37.087303 
L 61.788211 -37.154388 
L 62.463993 -37.227354 
L 63.139774 -37.306648 
L 63.815556 -37.392745 
L 64.491337 -37.486148 
L 65.167119 -37.58739 
L 65.8429 -37.697033 
L 66.518682 -37.815673 
L 67.194463 -37.943935 
L 67.870245 -38.082479 
L 68.546027 -38.232 
L 69.221808 -38.393226 
L 69.89759 -38.566922 
L 70.573371 -38.753888 
L 71.249153 -38.954963 
L 71.924934 -39.171019 
L 72.600716 -39.402969 
L 73.276498 -39.651763 
L 73.952279 -39.918387 
L 74.628061 -40.203866 
L 75.303842 -40.509261 
L 75.979624 -40.835672 
L 76.655405 -41.184233 
L 77.331187 -41.556114 
L 78.006968 -41.952518 
L 78.68275 -42.374684 
L 79.358532 -42.823879 
L 80.034313 -43.301402 
L 80.710095 -43.808579 
L 81.385876 -44.346761 
L 82.061658 -44.917322 
L 82.737439 -45.521656 
L 83.413221 -46.161175 
L 84.089003 -46.837303 
L 84.764784 -47.551474 
L 85.440566 -48.305131 
L 86.116347 -49.099713 
L 86.792129 -49.936661 
L 87.46791 -50.817405 
L 88.143692 -51.743365 
L 88.819473 -52.715938 
L 89.495255 -53.736502 
L 90.171037 -54.806401 
L 90.846818 -55.926944 
L 91.5226 -57.099396 
L 92.198381 -58.324975 
L 92.874163 -59.604839 
L 93.549944 -60.940084 
L 94.225726 -62.331735 
L 94.901508 -63.780738 
L 95.577289 -65.287955 
L 96.253071 -66.854152 
L 96.928852 -68.479995 
L 97.604634 -70.166042 
L 98.280415 -71.912733 
L 98.956197 -73.720386 
L 99.631978 -75.589187 
L 100.30776 -77.519182 
L 100.983542 -79.510274 
L 101.659323 -81.562212 
L 102.335105 -83.674586 
L 103.010886 -85.84682 
L 103.686668 -88.078168 
L 104.362449 -90.367707 
L 105.038231 -92.714333 
L 105.714013 -95.116753 
L 106.389794 -97.573488 
L 107.065576 -100.082862 
L 107.741357 -102.643006 
L 108.417139 -105.251849 
L 109.09292 -107.907125 
L 109.768702 -110.606364 
L 110.444483 -113.346897 
L 111.120265 -116.125858 
L 111.796047 -118.940182 
L 112.471828 -121.786611 
L 113.14761 -124.661695 
L 113.823391 -127.561799 
L 114.499173 -130.483104 
L 115.174954 -133.421622 
L 115.850736 -136.373191 
L 116.526518 -139.333494 
L 117.202299 -142.298062 
L 117.878081 -145.262286 
L 118.553862 -148.221425 
L 119.229644 -151.170622 
L 119.905425 -154.104912 
L 120.581207 -157.019238 
L 121.256989 -159.908461 
L 121.93277 -162.76738 
L 122.608552 -165.590742 
L 123.284333 -168.37326 
L 123.960115 -171.109628 
L 124.635896 -173.794539 
L 125.311678 -176.4227 
L 125.987459 -178.98885 
L 126.663241 -181.487777 
L 127.339023 -183.914336 
L 128.014804 -186.263466 
L 128.690586 -188.530208 
L 129.366367 -190.709723 
L 130.042149 -192.797305 
L 130.71793 -194.788403 
L 131.393712 -196.678637 
L 132.069494 -198.46381 
L 132.745275 -200.139926 
L 133.421057 -201.703208 
L 134.096838 -203.150105 
L 134.77262 -204.477312 
L 135.448401 -205.681779 
L 136.124183 -206.760725 
L 136.799964 -207.711647 
L 137.475746 -208.532328 
L 138.151528 -209.220851 
L 138.827309 -209.775602 
L 139.503091 -210.195276 
L 140.178872 -210.478886 
L 140.854654 -210.625762 
L 141.530435 -210.635558 
L 142.206217 -210.508251 
L 142.881999 -210.244141 
L 143.55778 -209.843852 
L 144.233562 -209.308326 
L 144.909343 -208.638821 
L 145.585125 -207.836909 
L 146.260906 -206.904464 
L 146.936688 -205.843661 
L 147.612469 -204.656961 
L 148.288251 -203.347107 
L 148.964033 -201.917113 
L 149.639814 -200.370246 
L 150.315596 -198.710022 
L 150.991377 -196.940189 
L 151.667159 -195.064712 
L 152.34294 -193.087759 
L 153.018722 -191.013685 
L 153.694504 -188.847019 
L 154.370285 -186.592445 
L 155.046067 -184.254783 
L 155.721848 -181.838978 
L 156.39763 -179.350076 
L 157.073411 -176.793211 
L 157.749193 -174.173588 
L 158.424974 -171.496461 
L 159.100756 -168.767119 
L 159.776538 -165.990868 
L 160.452319 -163.173017 
L 161.128101 -160.318855 
L 161.803882 -157.433641 
L 162.479664 -154.522586 
L 163.155445 -151.590836 
L 163.831227 -148.643463 
L 164.507009 -145.685444 
L 165.18279 -142.721653 
L 165.858572 -139.756849 
L 166.534353 -136.795659 
L 167.210135 -133.842574 
L 167.885916 -130.901934 
L 168.561698 -127.977921 
L 169.237479 -125.074551 
L 169.913261 -122.195666 
L 170.589043 -119.344928 
L 171.264824 -116.525813 
L 171.940606 -113.741608 
L 172.616387 -110.995405 
L 173.292169 -108.290099 
L 173.96795 -105.628387 
L 174.643732 -103.012767 
L 175.319514 -100.445535 
L 175.995295 -97.928789 
L 176.671077 -95.464427 
L 177.346858 -93.054152 
L 178.02264 -90.699472 
L 178.698421 -88.401706 
L 179.374203 -86.161984 
L 180.049985 -83.981256 
L 180.725766 -81.860291 
L 181.401548 -79.799691 
L 182.077329 -77.799888 
L 182.753111 -75.861155 
L 183.428892 -73.983611 
L 184.104674 -72.167231 
L 184.780455 -70.411848 
L 185.456237 -68.717161 
L 186.132019 -67.082749 
L 186.8078 -65.50807 
L 187.483582 -63.992472 
L 188.159363 -62.535203 
L 188.835145 -61.135414 
L 189.510926 -59.792172 
L 190.186708 -58.504463 
L 190.86249 -57.271199 
L 191.538271 -56.09123 
L 192.214053 -54.963348 
L 192.889834 -53.886293 
L 193.565616 -52.858763 
L 194.241397 -51.879418 
L 194.917179 -50.946884 
L 195.59296 -50.059767 
L 196.268742 -49.21665 
L 196.944524 -48.416103 
L 197.620305 -47.656689 
L 198.296087 -46.936964 
L 198.971868 -46.25549 
L 199.64765 -45.610828 
L 200.323431 -45.001555 
L 200.999213 -44.426255 
L 201.674995 -43.883532 
L 202.350776 -43.372009 
L 203.026558 -42.890332 
L 203.702339 -42.43717 
L 204.378121 -42.011221 
L 205.053902 -41.611213 
L 205.729684 -41.235903 
L 206.405465 -40.884084 
L 207.081247 -40.554579 
L 207.757029 -40.246249 
L 208.43281 -39.957991 
L 209.108592 -39.688737 
L 209.784373 -39.437457 
L 210.460155 -39.20316 
L 211.135936 -38.98489 
L 211.811718 -38.78173 
L 212.4875 -38.5928 
L 213.163281 -38.417258 
L 213.839063 -38.254298 
L 214.514844 -38.10315 
L 215.190626 -37.963081 
L 215.866407 -37.833392 
L 216.542189 -37.713417 
L 217.21797 -37.602525 
L 217.893752 -37.500119 
L 218.569534 -37.405629 
L 219.245315 -37.318519 
L 219.921097 -37.238283 
L 220.596878 -37.164441 
L 221.27266 -37.096543 
L 221.948441 -37.034163 
L 222.624223 -36.976903 
L 223.300005 -36.924386 
L 223.975786 -36.876262 
L 224.651568 -36.8322 
L 225.327349 -36.791892 
L 226.003131 -36.75505 
L 226.678912 -36.721404 
L 227.354694 -36.690703 
L 228.030475 -36.662713 
L 228.706257 -36.637216 
L 229.382039 -36.614011 
L 230.05782 -36.592908 
L 230.733602 -36.573734 
L 231.409383 -36.556326 
L 232.085165 -36.540537 
L 232.760946 -36.526226 
L 233.436728 -36.513267 
L 234.11251 -36.501542 
L 234.788291 -36.490943 
L 235.464073 -36.481368 
L 236.139854 -36.472727 
L 236.815636 -36.464935 
L 237.491417 -36.457914 
L 238.167199 -36.451594 
L 238.84298 -36.445908 
L 239.518762 -36.440799 
L 240.194544 -36.43621 
L 240.870325 -36.432094 
L 241.546107 -36.428403 
L 242.221888 -36.425097 
L 242.89767 -36.422138 
L 243.573451 -36.419492 
L 244.249233 -36.417127 
L 244.925015 -36.415017 
L 245.600796 -36.413134 
L 246.276578 -36.411455 
L 246.952359 -36.409961 
L 247.628141 -36.408631 
L 248.303922 -36.407448 
L 248.979704 -36.406398 
L 249.655486 -36.405466 
L 250.331267 -36.404639 
L 251.007049 -36.403906 
L 251.68283 -36.403257 
L 252.358612 -36.402683 
L 253.034393 -36.402176 
L 253.710175 -36.401728 
L 254.385956 -36.401332 
L 255.061738 -36.400983 
L 255.73752 -36.400676 
L 256.413301 -36.400406 
L 257.089083 -36.400168 
L 257.764864 -36.399959 
L 258.440646 -36.399775 
L 259.116427 -36.399614 
L 259.792209 -36.399473 
L 260.467991 -36.399349 
L 261.143772 -36.39924 
L 261.819554 -36.399146 
L 262.495335 -36.399063 
L 263.171117 -36.398991 
L 263.846898 -36.398928 
L 264.52268 -36.398873 
L 265.198461 -36.398825 
L 265.874243 -36.398783 
L 266.550025 -36.398747 
L 267.225806 -36.398715 
L 267.901588 -36.398688 
L 268.577369 -36.398664 
L 269.253151 -36.398644 
L 269.928932 -36.398626 
L 270.604714 -36.398611 
L 271.280496 -36.398597 
L 271.956277 -36.398586 
L 272.632059 -36.398576 
L 273.30784 -36.398567 
L 273.983622 -36.39856 
L 274.659403 -36.398554 
L 275.335185 -36.398548 
L 276.010966 -36.398543 
L 276.686748 -36.398539 
L 277.36253 -36.398536 
L 278.038311 -36.398533 
L 278.714093 -36.39853 
L 279.389874 -36.398528 
L 280.065656 -36.398526 
L 280.741437 -36.398525 
L 281.417219 -36.398523 
L 282.093001 -36.398522 
L 282.768782 -36.398521 
L 283.444564 -36.39852 
L 284.120345 -36.39852 
L 284.796127 -36.398519 
L 285.471908 -36.398518 
L 286.14769 -36.398518 
L 286.823471 -36.398518 
L 287.499253 -36.398517 
L 288.175035 -36.398517 
L 288.850816 -36.398517 
L 289.526598 -36.398517 
L 290.202379 -36.398516 
L 290.878161 -36.398516 
L 291.553942 -36.398516 
L 292.229724 -36.398516 
L 292.905506 -36.398516 
L 293.581287 -36.398516 
L 294.257069 -36.398516 
L 294.93285 -36.398516 
L 295.608632 -36.398516 
L 296.284413 -36.398516 
L 296.960195 -36.398516 
L 297.635976 -36.398516 
L 298.311758 -36.398516 
L 298.98754 -36.398516 
L 299.663321 -36.398516 
L 300.339103 -36.398516 
L 301.014884 -36.398516 
L 301.690666 -36.398516 
L 302.366447 -36.398516 
L 303.042229 -36.398516 
L 303.718011 -36.398516 
L 304.393792 -36.398516 
L 305.069574 -36.398516 
L 305.745355 -36.398516 
L 306.421137 -36.398516 
L 307.096918 -36.398516 
L 307.7727 -36.398516 
L 308.448481 -36.398516 
L 309.124263 -36.398516 
L 309.800045 -36.398516 
L 310.475826 -36.398516 
L 311.151608 -36.398516 
L 311.827389 -36.398516 
L 312.503171 -36.398516 
L 313.178952 -36.398516 
L 313.854734 -36.398516 
L 314.530516 -36.398516 
L 315.206297 -36.398516 
L 315.882079 -36.398516 
L 316.55786 -36.398516 
L 317.233642 -36.398516 
L 317.909423 -36.398516 
L 318.585205 -36.398516 
L 319.260987 -36.398516 
L 319.936768 -36.398516 
L 320.61255 -36.398516 
L 321.288331 -36.398516 
L 321.964113 -36.398516 
L 322.639894 -36.398516 
L 323.315676 -36.398516 
L 323.991457 -36.398516 
L 324.667239 -36.398516 
L 325.343021 -36.398516 
L 326.018802 -36.398516 
L 326.694584 -36.398516 
L 327.370365 -36.398516 
L 328.046147 -36.398516 
L 328.721928 -36.398516 
L 329.39771 -36.398516 
L 330.073492 -36.398516 
L 330.749273 -36.398516 
L 331.425055 -36.398516 
L 332.100836 -36.398516 
L 332.776618 -36.398516 
L 333.452399 -36.398516 
L 334.128181 -36.398516 
L 334.803962 -36.398516 
L 335.479744 -36.398516 
L 336.155526 -36.398516 
L 336.831307 -36.398516 
L 337.507089 -36.398516 
L 338.18287 -36.398516 
L 338.858652 -36.398516 
L 339.534433 -36.398516 
L 340.210215 -36.398516 
L 340.885997 -36.398516 
L 341.561778 -36.398516 
L 342.23756 -36.398516 
L 342.913341 -36.398516 
L 343.589123 -36.398516 
L 344.264904 -36.398516 
L 344.940686 -36.398516 
L 345.616467 -36.398516 
L 346.292249 -36.398516 
L 346.968031 -36.398516 
L 347.643812 -36.398516 
L 348.319594 -36.398516 
L 348.995375 -36.398516 
L 349.671157 -36.398516 
L 350.346938 -36.398516 
L 351.02272 -36.398516 
L 351.698502 -36.398516 
L 352.374283 -36.398516 
L 353.050065 -36.398516 
L 353.725846 -36.398516 
L 354.401628 -36.398516 
L 355.077409 -36.398516 
L 355.753191 -36.398516 
L 356.428972 -36.398516 
L 357.104754 -36.398516 
L 357.780536 -36.398516 
L 358.456317 -36.398516 
L 359.132099 -36.398516 
L 359.80788 -36.398516 
L 360.483662 -36.398516 
L 361.159443 -36.398516 
L 361.835225 -36.398516 
L 362.511007 -36.398516 
L 363.186788 -36.398516 
L 363.86257 -36.398516 
L 364.538351 -36.398516 
L 365.214133 -36.398516 
L 365.889914 -36.398516 
L 366.565696 -36.398516 
L 367.241477 -36.398516 
L 367.917259 -36.398516 
L 368.593041 -36.398516 
L 369.268822 -36.398516 
L 369.944604 -36.398516 
L 370.620385 -36.398516 
L 371.296167 -36.398516 
L 371.971948 -36.398516 
L 372.64773 -36.398516 
L 373.323512 -36.398516 
L 373.999293 -36.398516 
L 374.675075 -36.398516 
L 375.350856 -36.398516 
L 376.026638 -36.398516 
L 376.702419 -36.398516 
L 377.378201 -36.398516 
L 378.053982 -36.398516 
L 378.729764 -36.398516 
L 379.405546 -36.398516 
L 380.081327 -36.398516 
L 380.757109 -36.398516 
L 381.43289 -36.398516 
L 382.108672 -36.398516 
L 382.108672 -36.398516 
L 382.108672 -36.398516 
L 381.43289 -36.398516 
L 380.757109 -36.398516 
L 380.081327 -36.398516 
L 379.405546 -36.398516 
L 378.729764 -36.398516 
L 378.053982 -36.398516 
L 377.378201 -36.398516 
L 376.702419 -36.398516 
L 376.026638 -36.398516 
L 375.350856 -36.398516 
L 374.675075 -36.398516 
L 373.999293 -36.398516 
L 373.323512 -36.398516 
L 372.64773 -36.398516 
L 371.971948 -36.398516 
L 371.296167 -36.398516 
L 370.620385 -36.398516 
L 369.944604 -36.398516 
L 369.268822 -36.398516 
L 368.593041 -36.398516 
L 367.917259 -36.398516 
L 367.241477 -36.398516 
L 366.565696 -36.398516 
L 365.889914 -36.398516 
L 365.214133 -36.398516 
L 364.538351 -36.398516 
L 363.86257 -36.398516 
L 363.186788 -36.398516 
L 362.511007 -36.398516 
L 361.835225 -36.398516 
L 361.159443 -36.398516 
L 360.483662 -36.398516 
L 359.80788 -36.398516 
L 359.132099 -36.398516 
L 358.456317 -36.398516 
L 357.780536 -36.398516 
L 357.104754 -36.398516 
L 356.428972 -36.398516 
L 355.753191 -36.398516 
L 355.077409 -36.398516 
L 354.401628 -36.398516 
L 353.725846 -36.398516 
L 353.050065 -36.398516 
L 352.374283 -36.398516 
L 351.698502 -36.398516 
L 351.02272 -36.398516 
L 350.346938 -36.398516 
L 349.671157 -36.398516 
L 348.995375 -36.398516 
L 348.319594 -36.398516 
L 347.643812 -36.398516 
L 346.968031 -36.398516 
L 346.292249 -36.398516 
L 345.616467 -36.398516 
L 344.940686 -36.398516 
L 344.264904 -36.398516 
L 343.589123 -36.398516 
L 342.913341 -36.398516 
L 342.23756 -36.398516 
L 341.561778 -36.398516 
L 340.885997 -36.398516 
L 340.210215 -36.398516 
L 339.534433 -36.398516 
L 338.858652 -36.398516 
L 338.18287 -36.398516 
L 337.507089 -36.398516 
L 336.831307 -36.398516 
L 336.155526 -36.398516 
L 335.479744 -36.398516 
L 334.803962 -36.398516 
L 334.128181 -36.398516 
L 333.452399 -36.398516 
L 332.776618 -36.398516 
L 332.100836 -36.398516 
L 331.425055 -36.398516 
L 330.749273 -36.398516 
L 330.073492 -36.398516 
L 329.39771 -36.398516 
L 328.721928 -36.398516 
L 328.046147 -36.398516 
L 327.370365 -36.398516 
L 326.694584 -36.398516 
L 326.018802 -36.398516 
L 325.343021 -36.398516 
L 324.667239 -36.398516 
L 323.991457 -36.398516 
L 323.315676 -36.398516 
L 322.639894 -36.398516 
L 321.964113 -36.398516 
L 321.288331 -36.398516 
L 320.61255 -36.398516 
L 319.936768 -36.398516 
L 319.260987 -36.398516 
L 318.585205 -36.398516 
L 317.909423 -36.398516 
L 317.233642 -36.398516 
L 316.55786 -36.398516 
L 315.882079 -36.398516 
L 315.206297 -36.398516 
L 314.530516 -36.398516 
L 313.854734 -36.398516 
L 313.178952 -36.398516 
L 312.503171 -36.398516 
L 311.827389 -36.398516 
L 311.151608 -36.398516 
L 310.475826 -36.398516 
L 309.800045 -36.398516 
L 309.124263 -36.398516 
L 308.448481 -36.398516 
L 307.7727 -36.398516 
L 307.096918 -36.398516 
L 306.421137 -36.398516 
L 305.745355 -36.398516 
L 305.069574 -36.398516 
L 304.393792 -36.398516 
L 303.718011 -36.398516 
L 303.042229 -36.398516 
L 302.366447 -36.398516 
L 301.690666 -36.398516 
L 301.014884 -36.398516 
L 300.339103 -36.398516 
L 299.663321 -36.398516 
L 298.98754 -36.398516 
L 298.311758 -36.398516 
L 297.635976 -36.398516 
L 296.960195 -36.398516 
L 296.284413 -36.398516 
L 295.608632 -36.398516 
L 294.93285 -36.398516 
L 294.257069 -36.398516 
L 293.581287 -36.398516 
L 292.905506 -36.398516 
L 292.229724 -36.398516 
L 291.553942 -36.398516 
L 290.878161 -36.398516 
L 290.202379 -36.398516 
L 289.526598 -36.398516 
L 288.850816 -36.398516 
L 288.175035 -36.398516 
L 287.499253 -36.398516 
L 286.823471 -36.398516 
L 286.14769 -36.398516 
L 285.471908 -36.398516 
L 284.796127 -36.398516 
L 284.120345 -36.398516 
L 283.444564 -36.398516 
L 282.768782 -36.398516 
L 282.093001 -36.398516 
L 281.417219 -36.398516 
L 280.741437 -36.398516 
L 280.065656 -36.398516 
L 279.389874 -36.398516 
L 278.714093 -36.398516 
L 278.038311 -36.398516 
L 277.36253 -36.398516 
L 276.686748 -36.398516 
L 276.010966 -36.398516 
L 275.335185 -36.398516 
L 274.659403 -36.398516 
L 273.983622 -36.398516 
L 273.30784 -36.398516 
L 272.632059 -36.398516 
L 271.956277 -36.398516 
L 271.280496 -36.398516 
L 270.604714 -36.398516 
L 269.928932 -36.398516 
L 269.253151 -36.398516 
L 268.577369 -36.398516 
L 267.901588 -36.398516 
L 267.225806 -36.398516 
L 266.550025 -36.398516 
L 265.874243 -36.398516 
L 265.198461 -36.398516 
L 264.52268 -36.398516 
L 263.846898 -36.398516 
L 263.171117 -36.398516 
L 262.495335 -36.398516 
L 261.819554 -36.398516 
L 261.143772 -36.398516 
L 260.467991 -36.398516 
L 259.792209 -36.398516 
L 259.116427 -36.398516 
L 258.440646 -36.398516 
L 257.764864 -36.398516 
L 257.089083 -36.398516 
L 256.413301 -36.398516 
L 255.73752 -36.398516 
L 255.061738 -36.398516 
L 254.385956 -36.398516 
L 253.710175 -36.398516 
L 253.034393 -36.398516 
L 252.358612 -36.398516 
L 251.68283 -36.398516 
L 251.007049 -36.398516 
L 250.331267 -36.398516 
L 249.655486 -36.398516 
L 248.979704 -36.398516 
L 248.303922 -36.398516 
L 247.628141 -36.398516 
L 246.952359 -36.398516 
L 246.276578 -36.398516 
L 245.600796 -36.398516 
L 244.925015 -36.398516 
L 244.249233 -36.398516 
L 243.573451 -36.398516 
L 242.89767 -36.398516 
L 242.221888 -36.398516 
L 241.546107 -36.398516 
L 240.870325 -36.398516 
L 240.194544 -36.398516 
L 239.518762 -36.398516 
L 238.84298 -36.398516 
L 238.167199 -36.398516 
L 237.491417 -36.398516 
L 236.815636 -36.398516 
L 236.139854 -36.398516 
L 235.464073 -36.398516 
L 234.788291 -36.398516 
L 234.11251 -36.398516 
L 233.436728 -36.398516 
L 232.760946 -36.398516 
L 232.085165 -36.398516 
L 231.409383 -36.398516 
L 230.733602 -36.398516 
L 230.05782 -36.398516 
L 229.382039 -36.398516 
L 228.706257 -36.398516 
L 228.030475 -36.398516 
L 227.354694 -36.398516 
L 226.678912 -36.398516 
L 226.003131 -36.398516 
L 225.327349 -36.398516 
L 224.651568 -36.398516 
L 223.975786 -36.398516 
L 223.300005 -36.398516 
L 222.624223 -36.398516 
L 221.948441 -36.398516 
L 221.27266 -36.398516 
L 220.596878 -36.398516 
L 219.921097 -36.398516 
L 219.245315 -36.398516 
L 218.569534 -36.398516 
L 217.893752 -36.398516 
L 217.21797 -36.398516 
L 216.542189 -36.398516 
L 215.866407 -36.398516 
L 215.190626 -36.398516 
L 214.514844 -36.398516 
L 213.839063 -36.398516 
L 213.163281 -36.398516 
L 212.4875 -36.398516 
L 211.811718 -36.398516 
L 211.135936 -36.398516 
L 210.460155 -36.398516 
L 209.784373 -36.398516 
L 209.108592 -36.398516 
L 208.43281 -36.398516 
L 207.757029 -36.398516 
L 207.081247 -36.398516 
L 206.405465 -36.398516 
L 205.729684 -36.398516 
L 205.053902 -36.398516 
L 204.378121 -36.398516 
L 203.702339 -36.398516 
L 203.026558 -36.398516 
L 202.350776 -36.398516 
L 201.674995 -36.398516 
L 200.999213 -36.398516 
L 200.323431 -36.398516 
L 199.64765 -36.398516 
L 198.971868 -36.398516 
L 198.296087 -36.398516 
L 197.620305 -36.398516 
L 196.944524 -36.398516 
L 196.268742 -36.398516 
L 195.59296 -36.398516 
L 194.917179 -36.398516 
L 194.241397 -36.398516 
L 193.565616 -36.398516 
L 192.889834 -36.398516 
L 192.214053 -36.398516 
L 191.538271 -36.398516 
L 190.86249 -36.398516 
L 190.186708 -36.398516 
L 189.510926 -36.398516 
L 188.835145 -36.398516 
L 188.159363 -36.398516 
L 187.483582 -36.398516 
L 186.8078 -36.398516 
L 186.132019 -36.398516 
L 185.456237 -36.398516 
L 184.780455 -36.398516 
L 184.104674 -36.398516 
L 183.428892 -36.398516 
L 182.753111 -36.398516 
L 182.077329 -36.398516 
L 181.401548 -36.398516 
L 180.725766 -36.398516 
L 180.049985 -36.398516 
L 179.374203 -36.398516 
L 178.698421 -36.398516 
L 178.02264 -36.398516 
L 177.346858 -36.398516 
L 176.671077 -36.398516 
L 175.995295 -36.398516 
L 175.319514 -36.398516 
L 174.643732 -36.398516 
L 173.96795 -36.398516 
L 173.292169 -36.398516 
L 172.616387 -36.398516 
L 171.940606 -36.398516 
L 171.264824 -36.398516 
L 170.589043 -36.398516 
L 169.913261 -36.398516 
L 169.237479 -36.398516 
L 168.561698 -36.398516 
L 167.885916 -36.398516 
L 167.210135 -36.398516 
L 166.534353 -36.398516 
L 165.858572 -36.398516 
L 165.18279 -36.398516 
L 164.507009 -36.398516 
L 163.831227 -36.398516 
L 163.155445 -36.398516 
L 162.479664 -36.398516 
L 161.803882 -36.398516 
L 161.128101 -36.398516 
L 160.452319 -36.398516 
L 159.776538 -36.398516 
L 159.100756 -36.398516 
L 158.424974 -36.398516 
L 157.749193 -36.398516 
L 157.073411 -36.398516 
L 156.39763 -36.398516 
L 155.721848 -36.398516 
L 155.046067 -36.398516 
L 154.370285 -36.398516 
L 153.694504 -36.398516 
L 153.018722 -36.398516 
L 152.34294 -36.398516 
L 151.667159 -36.398516 
L 150.991377 -36.398516 
L 150.315596 -36.398516 
L 149.639814 -36.398516 
L 148.964033 -36.398516 
L 148.288251 -36.398516 
L 147.612469 -36.398516 
L 146.936688 -36.398516 
L 146.260906 -36.398516 
L 145.585125 -36.398516 
L 144.909343 -36.398516 
L 144.233562 -36.398516 
L 143.55778 -36.398516 
L 142.881999 -36.398516 
L 142.206217 -36.398516 
L 141.530435 -36.398516 
L 140.854654 -36.398516 
L 140.178872 -36.398516 
L 139.503091 -36.398516 
L 138.827309 -36.398516 
L 138.151528 -36.398516 
L 137.475746 -36.398516 
L 136.799964 -36.398516 
L 136.124183 -36.398516 
L 135.448401 -36.398516 
L 134.77262 -36.398516 
L 134.096838 -36.398516 
L 133.421057 -36.398516 
L 132.745275 -36.398516 
L 132.069494 -36.398516 
L 131.393712 -36.398516 
L 130.71793 -36.398516 
L 130.042149 -36.398516 
L 129.366367 -36.398516 
L 128.690586 -36.398516 
L 128.014804 -36.398516 
L 127.339023 -36.398516 
L 126.663241 -36.398516 
L 125.987459 -36.398516 
L 125.311678 -36.398516 
L 124.635896 -36.398516 
L 123.960115 -36.398516 
L 123.284333 -36.398516 
L 122.608552 -36.398516 
L 121.93277 -36.398516 
L 121.256989 -36.398516 
L 120.581207 -36.398516 
L 119.905425 -36.398516 
L 119.229644 -36.398516 
L 118.553862 -36.398516 
L 117.878081 -36.398516 
L 117.202299 -36.398516 
L 116.526518 -36.398516 
L 115.850736 -36.398516 
L 115.174954 -36.398516 
L 114.499173 -36.398516 
L 113.823391 -36.398516 
L 113.14761 -36.398516 
L 112.471828 -36.398516 
L 111.796047 -36.398516 
L 111.120265 -36.398516 
L 110.444483 -36.398516 
L 109.768702 -36.398516 
L 109.09292 -36.398516 
L 108.417139 -36.398516 
L 107.741357 -36.398516 
L 107.065576 -36.398516 
L 106.389794 -36.398516 
L 105.714013 -36.398516 
L 105.038231 -36.398516 
L 104.362449 -36.398516 
L 103.686668 -36.398516 
L 103.010886 -36.398516 
L 102.335105 -36.398516 
L 101.659323 -36.398516 
L 100.983542 -36.398516 
L 100.30776 -36.398516 
L 99.631978 -36.398516 
L 98.956197 -36.398516 
L 98.280415 -36.398516 
L 97.604634 -36.398516 
L 96.928852 -36.398516 
L 96.253071 -36.398516 
L 95.577289 -36.398516 
L 94.901508 -36.398516 
L 94.225726 -36.398516 
L 93.549944 -36.398516 
L 92.874163 -36.398516 
L 92.198381 -36.398516 
L 91.5226 -36.398516 
L 90.846818 -36.398516 
L 90.171037 -36.398516 
L 89.495255 -36.398516 
L 88.819473 -36.398516 
L 88.143692 -36.398516 
L 87.46791 -36.398516 
L 86.792129 -36.398516 
L 86.116347 -36.398516 
L 85.440566 -36.398516 
L 84.764784 -36.398516 
L 84.089003 -36.398516 
L 83.413221 -36.398516 
L 82.737439 -36.398516 
L 82.061658 -36.398516 
L 81.385876 -36.398516 
L 80.710095 -36.398516 
L 80.034313 -36.398516 
L 79.358532 -36.398516 
L 78.68275 -36.398516 
L 78.006968 -36.398516 
L 77.331187 -36.398516 
L 76.655405 -36.398516 
L 75.979624 -36.398516 
L 75.303842 -36.398516 
L 74.628061 -36.398516 
L 73.952279 -36.398516 
L 73.276498 -36.398516 
L 72.600716 -36.398516 
L 71.924934 -36.398516 
L 71.249153 -36.398516 
L 70.573371 -36.398516 
L 69.89759 -36.398516 
L 69.221808 -36.398516 
L 68.546027 -36.398516 
L 67.870245 -36.398516 
L 67.194463 -36.398516 
L 66.518682 -36.398516 
L 65.8429 -36.398516 
L 65.167119 -36.398516 
L 64.491337 -36.398516 
L 63.815556 -36.398516 
L 63.139774 -36.398516 
L 62.463993 -36.398516 
L 61.788211 -36.398516 
L 61.112429 -36.398516 
L 60.436648 -36.398516 
L 59.760866 -36.398516 
L 59.085085 -36.398516 
L 58.409303 -36.398516 
L 57.733522 -36.398516 
L 57.05774 -36.398516 
L 56.381958 -36.398516 
L 55.706177 -36.398516 
L 55.030395 -36.398516 
L 54.354614 -36.398516 
L 53.678832 -36.398516 
L 53.003051 -36.398516 
L 52.327269 -36.398516 
L 51.651488 -36.398516 
L 50.975706 -36.398516 
L 50.299924 -36.398516 
L 49.624143 -36.398516 
L 48.948361 -36.398516 
L 48.27258 -36.398516 
L 47.596798 -36.398516 
L 46.921017 -36.398516 
L 46.245235 -36.398516 
L 45.569453 -36.398516 
L 44.893672 -36.398516 
z
" style="stroke: #7a53ec; stroke-opacity: 0.28"/>
    </defs>
    <g clip-path="url(#pb77ea005c7)">
     <use xlink:href="#m812b4de7e9" x="0" y="231.413516" style="fill: #7a53ec; fill-opacity: 0.28; stroke: #7a53ec; stroke-opacity: 0.28"/>
    </g>
   </g>
   <g id="FillBetweenPolyCollection_2">
    <defs>
     <path id="me7e53de85c" d="M 44.893672 -36.398516 
L 44.893672 -36.398516 
L 45.569453 -36.398516 
L 46.245235 -36.398516 
L 46.921017 -36.398516 
L 47.596798 -36.398516 
L 48.27258 -36.398516 
L 48.948361 -36.398516 
L 49.624143 -36.398516 
L 50.299924 -36.398516 
L 50.975706 -36.398516 
L 51.651488 -36.398516 
L 52.327269 -36.398516 
L 53.003051 -36.398516 
L 53.678832 -36.398516 
L 54.354614 -36.398516 
L 55.030395 -36.398516 
L 55.706177 -36.398516 
L 56.381958 -36.398516 
L 57.05774 -36.398516 
L 57.733522 -36.398516 
L 58.409303 -36.398516 
L 59.085085 -36.398516 
L 59.760866 -36.398516 
L 60.436648 -36.398516 
L 61.112429 -36.398516 
L 61.788211 -36.398516 
L 62.463993 -36.398516 
L 63.139774 -36.398516 
L 63.815556 -36.398516 
L 64.491337 -36.398516 
L 65.167119 -36.398516 
L 65.8429 -36.398516 
L 66.518682 -36.398516 
L 67.194463 -36.398516 
L 67.870245 -36.398516 
L 68.546027 -36.398516 
L 69.221808 -36.398516 
L 69.89759 -36.398516 
L 70.573371 -36.398516 
L 71.249153 -36.398516 
L 71.924934 -36.398516 
L 72.600716 -36.398516 
L 73.276498 -36.398516 
L 73.952279 -36.398516 
L 74.628061 -36.398516 
L 75.303842 -36.398516 
L 75.979624 -36.398516 
L 76.655405 -36.398516 
L 77.331187 -36.398516 
L 78.006968 -36.398516 
L 78.68275 -36.398516 
L 79.358532 -36.398516 
L 80.034313 -36.398516 
L 80.710095 -36.398516 
L 81.385876 -36.398516 
L 82.061658 -36.398516 
L 82.737439 -36.398516 
L 83.413221 -36.398516 
L 84.089003 -36.398516 
L 84.764784 -36.398516 
L 85.440566 -36.398516 
L 86.116347 -36.398516 
L 86.792129 -36.398516 
L 87.46791 -36.398516 
L 88.143692 -36.398516 
L 88.819473 -36.398516 
L 89.495255 -36.398516 
L 90.171037 -36.398516 
L 90.846818 -36.398516 
L 91.5226 -36.398516 
L 92.198381 -36.398516 
L 92.874163 -36.398516 
L 93.549944 -36.398516 
L 94.225726 -36.398516 
L 94.901508 -36.398516 
L 95.577289 -36.398516 
L 96.253071 -36.398516 
L 96.928852 -36.398516 
L 97.604634 -36.398516 
L 98.280415 -36.398516 
L 98.956197 -36.398516 
L 99.631978 -36.398516 
L 100.30776 -36.398516 
L 100.983542 -36.398516 
L 101.659323 -36.398516 
L 102.335105 -36.398516 
L 103.010886 -36.398516 
L 103.686668 -36.398516 
L 104.362449 -36.398516 
L 105.038231 -36.398516 
L 105.714013 -36.398516 
L 106.389794 -36.398516 
L 107.065576 -36.398516 
L 107.741357 -36.398516 
L 108.417139 -36.398517 
L 109.09292 -36.398517 
L 109.768702 -36.398517 
L 110.444483 -36.398517 
L 111.120265 -36.398517 
L 111.796047 -36.398518 
L 112.471828 -36.398518 
L 113.14761 -36.398518 
L 113.823391 -36.398519 
L 114.499173 -36.398519 
L 115.174954 -36.39852 
L 115.850736 -36.39852 
L 116.526518 -36.398521 
L 117.202299 -36.398522 
L 117.878081 -36.398522 
L 118.553862 -36.398523 
L 119.229644 -36.398525 
L 119.905425 -36.398526 
L 120.581207 -36.398527 
L 121.256989 -36.398529 
L 121.93277 -36.398531 
L 122.608552 -36.398533 
L 123.284333 -36.398536 
L 123.960115 -36.398538 
L 124.635896 -36.398542 
L 125.311678 -36.398545 
L 125.987459 -36.398549 
L 126.663241 -36.398554 
L 127.339023 -36.398559 
L 128.014804 -36.398565 
L 128.690586 -36.398572 
L 129.366367 -36.398579 
L 130.042149 -36.398588 
L 130.71793 -36.398598 
L 131.393712 -36.398609 
L 132.069494 -36.398621 
L 132.745275 -36.398635 
L 133.421057 -36.398651 
L 134.096838 -36.398668 
L 134.77262 -36.398688 
L 135.448401 -36.39871 
L 136.124183 -36.398735 
L 136.799964 -36.398764 
L 137.475746 -36.398795 
L 138.151528 -36.398831 
L 138.827309 -36.398871 
L 139.503091 -36.398916 
L 140.178872 -36.398966 
L 140.854654 -36.399022 
L 141.530435 -36.399085 
L 142.206217 -36.399155 
L 142.881999 -36.399233 
L 143.55778 -36.399321 
L 144.233562 -36.399419 
L 144.909343 -36.399528 
L 145.585125 -36.39965 
L 146.260906 -36.399786 
L 146.936688 -36.399937 
L 147.612469 -36.400106 
L 148.288251 -36.400293 
L 148.964033 -36.400502 
L 149.639814 -36.400734 
L 150.315596 -36.400991 
L 150.991377 -36.401277 
L 151.667159 -36.401594 
L 152.34294 -36.401946 
L 153.018722 -36.402336 
L 153.694504 -36.402768 
L 154.370285 -36.403246 
L 155.046067 -36.403775 
L 155.721848 -36.40436 
L 156.39763 -36.405006 
L 157.073411 -36.40572 
L 157.749193 -36.406508 
L 158.424974 -36.407378 
L 159.100756 -36.408337 
L 159.776538 -36.409393 
L 160.452319 -36.410557 
L 161.128101 -36.411838 
L 161.803882 -36.413247 
L 162.479664 -36.414796 
L 163.155445 -36.416498 
L 163.831227 -36.418368 
L 164.507009 -36.42042 
L 165.18279 -36.42267 
L 165.858572 -36.425138 
L 166.534353 -36.427841 
L 167.210135 -36.430801 
L 167.885916 -36.434041 
L 168.561698 -36.437584 
L 169.237479 -36.441457 
L 169.913261 -36.445689 
L 170.589043 -36.450309 
L 171.264824 -36.45535 
L 171.940606 -36.460849 
L 172.616387 -36.466841 
L 173.292169 -36.473369 
L 173.96795 -36.480476 
L 174.643732 -36.488208 
L 175.319514 -36.496617 
L 175.995295 -36.505754 
L 176.671077 -36.515679 
L 177.346858 -36.526453 
L 178.02264 -36.538141 
L 178.698421 -36.550813 
L 179.374203 -36.564545 
L 180.049985 -36.579416 
L 180.725766 -36.595511 
L 181.401548 -36.612922 
L 182.077329 -36.631743 
L 182.753111 -36.652078 
L 183.428892 -36.674035 
L 184.104674 -36.697729 
L 184.780455 -36.723284 
L 185.456237 -36.750829 
L 186.132019 -36.780502 
L 186.8078 -36.812447 
L 187.483582 -36.846818 
L 188.159363 -36.883778 
L 188.835145 -36.923499 
L 189.510926 -36.96616 
L 190.186708 -37.011952 
L 190.86249 -37.061077 
L 191.538271 -37.113744 
L 192.214053 -37.170176 
L 192.889834 -37.230605 
L 193.565616 -37.295276 
L 194.241397 -37.364446 
L 194.917179 -37.438382 
L 195.59296 -37.517365 
L 196.268742 -37.60169 
L 196.944524 -37.691664 
L 197.620305 -37.787606 
L 198.296087 -37.889851 
L 198.971868 -37.998746 
L 199.64765 -38.114655 
L 200.323431 -38.237954 
L 200.999213 -38.369033 
L 201.674995 -38.5083 
L 202.350776 -38.656175 
L 203.026558 -38.813095 
L 203.702339 -38.97951 
L 204.378121 -39.155887 
L 205.053902 -39.342707 
L 205.729684 -39.540466 
L 206.405465 -39.749677 
L 207.081247 -39.970865 
L 207.757029 -40.204572 
L 208.43281 -40.451351 
L 209.108592 -40.711773 
L 209.784373 -40.98642 
L 210.460155 -41.275889 
L 211.135936 -41.580787 
L 211.811718 -41.901737 
L 212.4875 -42.23937 
L 213.163281 -42.59433 
L 213.839063 -42.96727 
L 214.514844 -43.358852 
L 215.190626 -43.769747 
L 215.866407 -44.200633 
L 216.542189 -44.652193 
L 217.21797 -45.125117 
L 217.893752 -45.620096 
L 218.569534 -46.137825 
L 219.245315 -46.679001 
L 219.921097 -47.244317 
L 220.596878 -47.834466 
L 221.27266 -48.450138 
L 221.948441 -49.092015 
L 222.624223 -49.760772 
L 223.300005 -50.457076 
L 223.975786 -51.18158 
L 224.651568 -51.934928 
L 225.327349 -52.717743 
L 226.003131 -53.530633 
L 226.678912 -54.374186 
L 227.354694 -55.248967 
L 228.030475 -56.155516 
L 228.706257 -57.094346 
L 229.382039 -58.065942 
L 230.05782 -59.070754 
L 230.733602 -60.109198 
L 231.409383 -61.181656 
L 232.085165 -62.288465 
L 232.760946 -63.429924 
L 233.436728 -64.606286 
L 234.11251 -65.817754 
L 234.788291 -67.064486 
L 235.464073 -68.346583 
L 236.139854 -69.664094 
L 236.815636 -71.017009 
L 237.491417 -72.40526 
L 238.167199 -73.828715 
L 238.84298 -75.287181 
L 239.518762 -76.780396 
L 240.194544 -78.30803 
L 240.870325 -79.869686 
L 241.546107 -81.464891 
L 242.221888 -83.093102 
L 242.89767 -84.7537 
L 243.573451 -86.445988 
L 244.249233 -88.169195 
L 244.925015 -89.922468 
L 245.600796 -91.704877 
L 246.276578 -93.515412 
L 246.952359 -95.352983 
L 247.628141 -97.216419 
L 248.303922 -99.104468 
L 248.979704 -101.015799 
L 249.655486 -102.949 
L 250.331267 -104.902582 
L 251.007049 -106.874976 
L 251.68283 -108.864537 
L 252.358612 -110.869544 
L 253.034393 -112.888204 
L 253.710175 -114.918649 
L 254.385956 -116.958945 
L 255.061738 -119.007088 
L 255.73752 -121.061011 
L 256.413301 -123.118584 
L 257.089083 -125.177621 
L 257.764864 -127.235878 
L 258.440646 -129.291063 
L 259.116427 -131.340833 
L 259.792209 -133.382805 
L 260.467991 -135.414555 
L 261.143772 -137.433625 
L 261.819554 -139.437526 
L 262.495335 -141.423747 
L 263.171117 -143.389755 
L 263.846898 -145.333002 
L 264.52268 -147.250932 
L 265.198461 -149.140985 
L 265.874243 -151.000601 
L 266.550025 -152.82723 
L 267.225806 -154.618333 
L 267.901588 -156.371392 
L 268.577369 -158.083911 
L 269.253151 -159.753427 
L 269.928932 -161.377514 
L 270.604714 -162.953785 
L 271.280496 -164.479904 
L 271.956277 -165.953589 
L 272.632059 -167.372617 
L 273.30784 -168.734828 
L 273.983622 -170.038136 
L 274.659403 -171.280529 
L 275.335185 -172.460076 
L 276.010966 -173.574934 
L 276.686748 -174.623348 
L 277.36253 -175.603661 
L 278.038311 -176.514314 
L 278.714093 -177.353853 
L 279.389874 -178.120931 
L 280.065656 -178.814314 
L 280.741437 -179.432882 
L 281.417219 -179.975631 
L 282.093001 -180.44168 
L 282.768782 -180.83027 
L 283.444564 -181.140766 
L 284.120345 -181.372661 
L 284.796127 -181.525575 
L 285.471908 -181.599258 
L 286.14769 -181.593589 
L 286.823471 -181.508577 
L 287.499253 -181.344361 
L 288.175035 -181.101211 
L 288.850816 -180.779525 
L 289.526598 -180.379828 
L 290.202379 -179.902772 
L 290.878161 -179.349135 
L 291.553942 -178.719815 
L 292.229724 -178.015833 
L 292.905506 -177.238325 
L 293.581287 -176.388542 
L 294.257069 -175.467846 
L 294.93285 -174.477707 
L 295.608632 -173.419697 
L 296.284413 -172.295488 
L 296.960195 -171.106848 
L 297.635976 -169.855633 
L 298.311758 -168.543785 
L 298.98754 -167.173327 
L 299.663321 -165.746358 
L 300.339103 -164.265045 
L 301.014884 -162.73162 
L 301.690666 -161.148374 
L 302.366447 -159.51765 
L 303.042229 -157.841841 
L 303.718011 -156.123379 
L 304.393792 -154.364732 
L 305.069574 -152.568399 
L 305.745355 -150.736902 
L 306.421137 -148.872781 
L 307.096918 -146.978589 
L 307.7727 -145.056886 
L 308.448481 -143.110231 
L 309.124263 -141.14118 
L 309.800045 -139.152278 
L 310.475826 -137.146056 
L 311.151608 -135.125024 
L 311.827389 -133.091664 
L 312.503171 -131.04843 
L 313.178952 -128.997741 
L 313.854734 -126.941976 
L 314.530516 -124.883467 
L 315.206297 -122.824504 
L 315.882079 -120.767319 
L 316.55786 -118.714093 
L 317.233642 -116.666946 
L 317.909423 -114.627937 
L 318.585205 -112.599058 
L 319.260987 -110.582236 
L 319.936768 -108.579327 
L 320.61255 -106.592115 
L 321.288331 -104.622309 
L 321.964113 -102.671545 
L 322.639894 -100.741379 
L 323.315676 -98.833289 
L 323.991457 -96.948677 
L 324.667239 -95.088862 
L 325.343021 -93.255083 
L 326.018802 -91.448501 
L 326.694584 -89.670194 
L 327.370365 -87.921161 
L 328.046147 -86.202321 
L 328.721928 -84.514514 
L 329.39771 -82.858503 
L 330.073492 -81.23497 
L 330.749273 -79.644526 
L 331.425055 -78.087704 
L 332.100836 -76.564963 
L 332.776618 -75.076694 
L 333.452399 -73.623216 
L 334.128181 -72.204779 
L 334.803962 -70.82157 
L 335.479744 -69.47371 
L 336.155526 -68.161259 
L 336.831307 -66.884218 
L 337.507089 -65.642532 
L 338.18287 -64.436089 
L 338.858652 -63.264727 
L 339.534433 -62.128234 
L 340.210215 -61.026352 
L 340.885997 -59.958775 
L 341.561778 -58.925159 
L 342.23756 -57.925119 
L 342.913341 -56.958233 
L 343.589123 -56.024044 
L 344.264904 -55.122065 
L 344.940686 -54.251779 
L 345.616467 -53.412642 
L 346.292249 -52.604084 
L 346.968031 -51.825517 
L 347.643812 -51.076329 
L 348.319594 -50.355892 
L 348.995375 -49.663564 
L 349.671157 -48.998688 
L 350.346938 -48.360596 
L 351.02272 -47.748613 
L 351.698502 -47.162053 
L 352.374283 -46.600228 
L 353.050065 -46.062445 
L 353.725846 -45.548008 
L 354.401628 -45.056222 
L 355.077409 -44.586393 
L 355.753191 -44.137828 
L 356.428972 -43.70984 
L 357.104754 -43.301745 
L 357.780536 -42.912867 
L 358.456317 -42.542536 
L 359.132099 -42.190091 
L 359.80788 -41.85488 
L 360.483662 -41.536262 
L 361.159443 -41.233606 
L 361.835225 -40.946291 
L 362.511007 -40.673713 
L 363.186788 -40.415275 
L 363.86257 -40.170398 
L 364.538351 -39.938513 
L 365.214133 -39.719069 
L 365.889914 -39.511526 
L 366.565696 -39.31536 
L 367.241477 -39.130062 
L 367.917259 -38.955137 
L 368.593041 -38.790107 
L 369.268822 -38.634507 
L 369.944604 -38.487888 
L 370.620385 -38.349816 
L 371.296167 -38.219872 
L 371.971948 -38.097653 
L 372.64773 -37.982769 
L 373.323512 -37.874845 
L 373.999293 -37.773522 
L 374.675075 -37.678453 
L 375.350856 -37.589306 
L 376.026638 -37.505762 
L 376.702419 -37.427517 
L 377.378201 -37.354279 
L 378.053982 -37.285768 
L 378.729764 -37.221718 
L 379.405546 -37.161875 
L 380.081327 -37.105995 
L 380.757109 -37.053847 
L 381.43289 -37.005211 
L 382.108672 -36.959878 
L 382.108672 -36.398516 
L 382.108672 -36.398516 
L 381.43289 -36.398516 
L 380.757109 -36.398516 
L 380.081327 -36.398516 
L 379.405546 -36.398516 
L 378.729764 -36.398516 
L 378.053982 -36.398516 
L 377.378201 -36.398516 
L 376.702419 -36.398516 
L 376.026638 -36.398516 
L 375.350856 -36.398516 
L 374.675075 -36.398516 
L 373.999293 -36.398516 
L 373.323512 -36.398516 
L 372.64773 -36.398516 
L 371.971948 -36.398516 
L 371.296167 -36.398516 
L 370.620385 -36.398516 
L 369.944604 -36.398516 
L 369.268822 -36.398516 
L 368.593041 -36.398516 
L 367.917259 -36.398516 
L 367.241477 -36.398516 
L 366.565696 -36.398516 
L 365.889914 -36.398516 
L 365.214133 -36.398516 
L 364.538351 -36.398516 
L 363.86257 -36.398516 
L 363.186788 -36.398516 
L 362.511007 -36.398516 
L 361.835225 -36.398516 
L 361.159443 -36.398516 
L 360.483662 -36.398516 
L 359.80788 -36.398516 
L 359.132099 -36.398516 
L 358.456317 -36.398516 
L 357.780536 -36.398516 
L 357.104754 -36.398516 
L 356.428972 -36.398516 
L 355.753191 -36.398516 
L 355.077409 -36.398516 
L 354.401628 -36.398516 
L 353.725846 -36.398516 
L 353.050065 -36.398516 
L 352.374283 -36.398516 
L 351.698502 -36.398516 
L 351.02272 -36.398516 
L 350.346938 -36.398516 
L 349.671157 -36.398516 
L 348.995375 -36.398516 
L 348.319594 -36.398516 
L 347.643812 -36.398516 
L 346.968031 -36.398516 
L 346.292249 -36.398516 
L 345.616467 -36.398516 
L 344.940686 -36.398516 
L 344.264904 -36.398516 
L 343.589123 -36.398516 
L 342.913341 -36.398516 
L 342.23756 -36.398516 
L 341.561778 -36.398516 
L 340.885997 -36.398516 
L 340.210215 -36.398516 
L 339.534433 -36.398516 
L 338.858652 -36.398516 
L 338.18287 -36.398516 
L 337.507089 -36.398516 
L 336.831307 -36.398516 
L 336.155526 -36.398516 
L 335.479744 -36.398516 
L 334.803962 -36.398516 
L 334.128181 -36.398516 
L 333.452399 -36.398516 
L 332.776618 -36.398516 
L 332.100836 -36.398516 
L 331.425055 -36.398516 
L 330.749273 -36.398516 
L 330.073492 -36.398516 
L 329.39771 -36.398516 
L 328.721928 -36.398516 
L 328.046147 -36.398516 
L 327.370365 -36.398516 
L 326.694584 -36.398516 
L 326.018802 -36.398516 
L 325.343021 -36.398516 
L 324.667239 -36.398516 
L 323.991457 -36.398516 
L 323.315676 -36.398516 
L 322.639894 -36.398516 
L 321.964113 -36.398516 
L 321.288331 -36.398516 
L 320.61255 -36.398516 
L 319.936768 -36.398516 
L 319.260987 -36.398516 
L 318.585205 -36.398516 
L 317.909423 -36.398516 
L 317.233642 -36.398516 
L 316.55786 -36.398516 
L 315.882079 -36.398516 
L 315.206297 -36.398516 
L 314.530516 -36.398516 
L 313.854734 -36.398516 
L 313.178952 -36.398516 
L 312.503171 -36.398516 
L 311.827389 -36.398516 
L 311.151608 -36.398516 
L 310.475826 -36.398516 
L 309.800045 -36.398516 
L 309.124263 -36.398516 
L 308.448481 -36.398516 
L 307.7727 -36.398516 
L 307.096918 -36.398516 
L 306.421137 -36.398516 
L 305.745355 -36.398516 
L 305.069574 -36.398516 
L 304.393792 -36.398516 
L 303.718011 -36.398516 
L 303.042229 -36.398516 
L 302.366447 -36.398516 
L 301.690666 -36.398516 
L 301.014884 -36.398516 
L 300.339103 -36.398516 
L 299.663321 -36.398516 
L 298.98754 -36.398516 
L 298.311758 -36.398516 
L 297.635976 -36.398516 
L 296.960195 -36.398516 
L 296.284413 -36.398516 
L 295.608632 -36.398516 
L 294.93285 -36.398516 
L 294.257069 -36.398516 
L 293.581287 -36.398516 
L 292.905506 -36.398516 
L 292.229724 -36.398516 
L 291.553942 -36.398516 
L 290.878161 -36.398516 
L 290.202379 -36.398516 
L 289.526598 -36.398516 
L 288.850816 -36.398516 
L 288.175035 -36.398516 
L 287.499253 -36.398516 
L 286.823471 -36.398516 
L 286.14769 -36.398516 
L 285.471908 -36.398516 
L 284.796127 -36.398516 
L 284.120345 -36.398516 
L 283.444564 -36.398516 
L 282.768782 -36.398516 
L 282.093001 -36.398516 
L 281.417219 -36.398516 
L 280.741437 -36.398516 
L 280.065656 -36.398516 
L 279.389874 -36.398516 
L 278.714093 -36.398516 
L 278.038311 -36.398516 
L 277.36253 -36.398516 
L 276.686748 -36.398516 
L 276.010966 -36.398516 
L 275.335185 -36.398516 
L 274.659403 -36.398516 
L 273.983622 -36.398516 
L 273.30784 -36.398516 
L 272.632059 -36.398516 
L 271.956277 -36.398516 
L 271.280496 -36.398516 
L 270.604714 -36.398516 
L 269.928932 -36.398516 
L 269.253151 -36.398516 
L 268.577369 -36.398516 
L 267.901588 -36.398516 
L 267.225806 -36.398516 
L 266.550025 -36.398516 
L 265.874243 -36.398516 
L 265.198461 -36.398516 
L 264.52268 -36.398516 
L 263.846898 -36.398516 
L 263.171117 -36.398516 
L 262.495335 -36.398516 
L 261.819554 -36.398516 
L 261.143772 -36.398516 
L 260.467991 -36.398516 
L 259.792209 -36.398516 
L 259.116427 -36.398516 
L 258.440646 -36.398516 
L 257.764864 -36.398516 
L 257.089083 -36.398516 
L 256.413301 -36.398516 
L 255.73752 -36.398516 
L 255.061738 -36.398516 
L 254.385956 -36.398516 
L 253.710175 -36.398516 
L 253.034393 -36.398516 
L 252.358612 -36.398516 
L 251.68283 -36.398516 
L 251.007049 -36.398516 
L 250.331267 -36.398516 
L 249.655486 -36.398516 
L 248.979704 -36.398516 
L 248.303922 -36.398516 
L 247.628141 -36.398516 
L 246.952359 -36.398516 
L 246.276578 -36.398516 
L 245.600796 -36.398516 
L 244.925015 -36.398516 
L 244.249233 -36.398516 
L 243.573451 -36.398516 
L 242.89767 -36.398516 
L 242.221888 -36.398516 
L 241.546107 -36.398516 
L 240.870325 -36.398516 
L 240.194544 -36.398516 
L 239.518762 -36.398516 
L 238.84298 -36.398516 
L 238.167199 -36.398516 
L 237.491417 -36.398516 
L 236.815636 -36.398516 
L 236.139854 -36.398516 
L 235.464073 -36.398516 
L 234.788291 -36.398516 
L 234.11251 -36.398516 
L 233.436728 -36.398516 
L 232.760946 -36.398516 
L 232.085165 -36.398516 
L 231.409383 -36.398516 
L 230.733602 -36.398516 
L 230.05782 -36.398516 
L 229.382039 -36.398516 
L 228.706257 -36.398516 
L 228.030475 -36.398516 
L 227.354694 -36.398516 
L 226.678912 -36.398516 
L 226.003131 -36.398516 
L 225.327349 -36.398516 
L 224.651568 -36.398516 
L 223.975786 -36.398516 
L 223.300005 -36.398516 
L 222.624223 -36.398516 
L 221.948441 -36.398516 
L 221.27266 -36.398516 
L 220.596878 -36.398516 
L 219.921097 -36.398516 
L 219.245315 -36.398516 
L 218.569534 -36.398516 
L 217.893752 -36.398516 
L 217.21797 -36.398516 
L 216.542189 -36.398516 
L 215.866407 -36.398516 
L 215.190626 -36.398516 
L 214.514844 -36.398516 
L 213.839063 -36.398516 
L 213.163281 -36.398516 
L 212.4875 -36.398516 
L 211.811718 -36.398516 
L 211.135936 -36.398516 
L 210.460155 -36.398516 
L 209.784373 -36.398516 
L 209.108592 -36.398516 
L 208.43281 -36.398516 
L 207.757029 -36.398516 
L 207.081247 -36.398516 
L 206.405465 -36.398516 
L 205.729684 -36.398516 
L 205.053902 -36.398516 
L 204.378121 -36.398516 
L 203.702339 -36.398516 
L 203.026558 -36.398516 
L 202.350776 -36.398516 
L 201.674995 -36.398516 
L 200.999213 -36.398516 
L 200.323431 -36.398516 
L 199.64765 -36.398516 
L 198.971868 -36.398516 
L 198.296087 -36.398516 
L 197.620305 -36.398516 
L 196.944524 -36.398516 
L 196.268742 -36.398516 
L 195.59296 -36.398516 
L 194.917179 -36.398516 
L 194.241397 -36.398516 
L 193.565616 -36.398516 
L 192.889834 -36.398516 
L 192.214053 -36.398516 
L 191.538271 -36.398516 
L 190.86249 -36.398516 
L 190.186708 -36.398516 
L 189.510926 -36.398516 
L 188.835145 -36.398516 
L 188.159363 -36.398516 
L 187.483582 -36.398516 
L 186.8078 -36.398516 
L 186.132019 -36.398516 
L 185.456237 -36.398516 
L 184.780455 -36.398516 
L 184.104674 -36.398516 
L 183.428892 -36.398516 
L 182.753111 -36.398516 
L 182.077329 -36.398516 
L 181.401548 -36.398516 
L 180.725766 -36.398516 
L 180.049985 -36.398516 
L 179.374203 -36.398516 
L 178.698421 -36.398516 
L 178.02264 -36.398516 
L 177.346858 -36.398516 
L 176.671077 -36.398516 
L 175.995295 -36.398516 
L 175.319514 -36.398516 
L 174.643732 -36.398516 
L 173.96795 -36.398516 
L 173.292169 -36.398516 
L 172.616387 -36.398516 
L 171.940606 -36.398516 
L 171.264824 -36.398516 
L 170.589043 -36.398516 
L 169.913261 -36.398516 
L 169.237479 -36.398516 
L 168.561698 -36.398516 
L 167.885916 -36.398516 
L 167.210135 -36.398516 
L 166.534353 -36.398516 
L 165.858572 -36.398516 
L 165.18279 -36.398516 
L 164.507009 -36.398516 
L 163.831227 -36.398516 
L 163.155445 -36.398516 
L 162.479664 -36.398516 
L 161.803882 -36.398516 
L 161.128101 -36.398516 
L 160.452319 -36.398516 
L 159.776538 -36.398516 
L 159.100756 -36.398516 
L 158.424974 -36.398516 
L 157.749193 -36.398516 
L 157.073411 -36.398516 
L 156.39763 -36.398516 
L 155.721848 -36.398516 
L 155.046067 -36.398516 
L 154.370285 -36.398516 
L 153.694504 -36.398516 
L 153.018722 -36.398516 
L 152.34294 -36.398516 
L 151.667159 -36.398516 
L 150.991377 -36.398516 
L 150.315596 -36.398516 
L 149.639814 -36.398516 
L 148.964033 -36.398516 
L 148.288251 -36.398516 
L 147.612469 -36.398516 
L 146.936688 -36.398516 
L 146.260906 -36.398516 
L 145.585125 -36.398516 
L 144.909343 -36.398516 
L 144.233562 -36.398516 
L 143.55778 -36.398516 
L 142.881999 -36.398516 
L 142.206217 -36.398516 
L 141.530435 -36.398516 
L 140.854654 -36.398516 
L 140.178872 -36.398516 
L 139.503091 -36.398516 
L 138.827309 -36.398516 
L 138.151528 -36.398516 
L 137.475746 -36.398516 
L 136.799964 -36.398516 
L 136.124183 -36.398516 
L 135.448401 -36.398516 
L 134.77262 -36.398516 
L 134.096838 -36.398516 
L 133.421057 -36.398516 
L 132.745275 -36.398516 
L 132.069494 -36.398516 
L 131.393712 -36.398516 
L 130.71793 -36.398516 
L 130.042149 -36.398516 
L 129.366367 -36.398516 
L 128.690586 -36.398516 
L 128.014804 -36.398516 
L 127.339023 -36.398516 
L 126.663241 -36.398516 
L 125.987459 -36.398516 
L 125.311678 -36.398516 
L 124.635896 -36.398516 
L 123.960115 -36.398516 
L 123.284333 -36.398516 
L 122.608552 -36.398516 
L 121.93277 -36.398516 
L 121.256989 -36.398516 
L 120.581207 -36.398516 
L 119.905425 -36.398516 
L 119.229644 -36.398516 
L 118.553862 -36.398516 
L 117.878081 -36.398516 
L 117.202299 -36.398516 
L 116.526518 -36.398516 
L 115.850736 -36.398516 
L 115.174954 -36.398516 
L 114.499173 -36.398516 
L 113.823391 -36.398516 
L 113.14761 -36.398516 
L 112.471828 -36.398516 
L 111.796047 -36.398516 
L 111.120265 -36.398516 
L 110.444483 -36.398516 
L 109.768702 -36.398516 
L 109.09292 -36.398516 
L 108.417139 -36.398516 
L 107.741357 -36.398516 
L 107.065576 -36.398516 
L 106.389794 -36.398516 
L 105.714013 -36.398516 
L 105.038231 -36.398516 
L 104.362449 -36.398516 
L 103.686668 -36.398516 
L 103.010886 -36.398516 
L 102.335105 -36.398516 
L 101.659323 -36.398516 
L 100.983542 -36.398516 
L 100.30776 -36.398516 
L 99.631978 -36.398516 
L 98.956197 -36.398516 
L 98.280415 -36.398516 
L 97.604634 -36.398516 
L 96.928852 -36.398516 
L 96.253071 -36.398516 
L 95.577289 -36.398516 
L 94.901508 -36.398516 
L 94.225726 -36.398516 
L 93.549944 -36.398516 
L 92.874163 -36.398516 
L 92.198381 -36.398516 
L 91.5226 -36.398516 
L 90.846818 -36.398516 
L 90.171037 -36.398516 
L 89.495255 -36.398516 
L 88.819473 -36.398516 
L 88.143692 -36.398516 
L 87.46791 -36.398516 
L 86.792129 -36.398516 
L 86.116347 -36.398516 
L 85.440566 -36.398516 
L 84.764784 -36.398516 
L 84.089003 -36.398516 
L 83.413221 -36.398516 
L 82.737439 -36.398516 
L 82.061658 -36.398516 
L 81.385876 -36.398516 
L 80.710095 -36.398516 
L 80.034313 -36.398516 
L 79.358532 -36.398516 
L 78.68275 -36.398516 
L 78.006968 -36.398516 
L 77.331187 -36.398516 
L 76.655405 -36.398516 
L 75.979624 -36.398516 
L 75.303842 -36.398516 
L 74.628061 -36.398516 
L 73.952279 -36.398516 
L 73.276498 -36.398516 
L 72.600716 -36.398516 
L 71.924934 -36.398516 
L 71.249153 -36.398516 
L 70.573371 -36.398516 
L 69.89759 -36.398516 
L 69.221808 -36.398516 
L 68.546027 -36.398516 
L 67.870245 -36.398516 
L 67.194463 -36.398516 
L 66.518682 -36.398516 
L 65.8429 -36.398516 
L 65.167119 -36.398516 
L 64.491337 -36.398516 
L 63.815556 -36.398516 
L 63.139774 -36.398516 
L 62.463993 -36.398516 
L 61.788211 -36.398516 
L 61.112429 -36.398516 
L 60.436648 -36.398516 
L 59.760866 -36.398516 
L 59.085085 -36.398516 
L 58.409303 -36.398516 
L 57.733522 -36.398516 
L 57.05774 -36.398516 
L 56.381958 -36.398516 
L 55.706177 -36.398516 
L 55.030395 -36.398516 
L 54.354614 -36.398516 
L 53.678832 -36.398516 
L 53.003051 -36.398516 
L 52.327269 -36.398516 
L 51.651488 -36.398516 
L 50.975706 -36.398516 
L 50.299924 -36.398516 
L 49.624143 -36.398516 
L 48.948361 -36.398516 
L 48.27258 -36.398516 
L 47.596798 -36.398516 
L 46.921017 -36.398516 
L 46.245235 -36.398516 
L 45.569453 -36.398516 
L 44.893672 -36.398516 
z
" style="stroke: #c7506b; stroke-opacity: 0.28"/>
    </defs>
    <g clip-path="url(#pb77ea005c7)">
     <use xlink:href="#me7e53de85c" x="0" y="231.413516" style="fill: #c7506b; fill-opacity: 0.28; stroke: #c7506b; stroke-opacity: 0.28"/>
    </g>
   </g>
   <g id="FillBetweenPolyCollection_3">
    <path d="M 169.913261 195.015 
L 169.913261 194.967827 
L 170.589043 194.963207 
L 171.264824 194.958165 
L 171.940606 194.952667 
L 172.616387 194.946674 
L 173.292169 194.940147 
L 173.96795 194.93304 
L 174.643732 194.925307 
L 175.319514 194.916899 
L 175.995295 194.907761 
L 176.671077 194.897836 
L 177.346858 194.887063 
L 178.02264 194.875375 
L 178.698421 194.862702 
L 179.374203 194.84897 
L 180.049985 194.834099 
L 180.725766 194.818004 
L 181.401548 194.800594 
L 182.077329 194.781773 
L 182.753111 194.761438 
L 183.428892 194.739481 
L 184.104674 194.715786 
L 184.780455 194.690231 
L 185.456237 194.662686 
L 186.132019 194.633014 
L 186.8078 194.601069 
L 187.483582 194.566697 
L 188.159363 194.529737 
L 188.835145 194.490017 
L 189.510926 194.447356 
L 190.186708 194.401563 
L 190.86249 194.352439 
L 191.538271 194.299772 
L 192.214053 194.24334 
L 192.889834 194.182911 
L 193.565616 194.118239 
L 194.241397 194.04907 
L 194.917179 193.975134 
L 195.59296 193.89615 
L 196.268742 193.811825 
L 196.944524 193.721852 
L 197.620305 193.62591 
L 198.296087 193.523665 
L 198.971868 193.414769 
L 199.64765 193.298861 
L 200.323431 193.175562 
L 200.999213 193.044482 
L 201.674995 192.905216 
L 202.350776 192.75734 
L 203.026558 192.600421 
L 203.702339 192.434006 
L 204.378121 192.257629 
L 205.053902 192.070809 
L 205.729684 191.873049 
L 206.405465 191.663838 
L 207.081247 191.44265 
L 207.757029 191.208944 
L 208.43281 191.455525 
L 209.108592 191.724779 
L 209.784373 191.976059 
L 210.460155 192.210356 
L 211.135936 192.428626 
L 211.811718 192.631786 
L 212.4875 192.820716 
L 213.163281 192.996258 
L 213.839063 193.159218 
L 214.514844 193.310365 
L 215.190626 193.450434 
L 215.866407 193.580124 
L 216.542189 193.700099 
L 217.21797 193.81099 
L 217.893752 193.913397 
L 218.569534 194.007887 
L 219.245315 194.094996 
L 219.921097 194.175232 
L 220.596878 194.249074 
L 221.27266 194.316973 
L 221.948441 194.379352 
L 222.624223 194.436613 
L 223.300005 194.48913 
L 223.975786 194.537254 
L 224.651568 194.581316 
L 225.327349 194.621624 
L 226.003131 194.658466 
L 226.678912 194.692112 
L 227.354694 194.722813 
L 228.030475 194.750803 
L 228.706257 194.776299 
L 229.382039 194.799505 
L 230.05782 194.820608 
L 230.733602 194.839782 
L 231.409383 194.857189 
L 232.085165 194.872979 
L 232.760946 194.887289 
L 233.436728 194.900248 
L 234.11251 194.911973 
L 234.788291 194.922573 
L 235.464073 194.932147 
L 236.139854 194.940789 
L 236.815636 194.948581 
L 237.491417 194.955602 
L 238.167199 194.961922 
L 238.84298 194.967607 
L 238.84298 195.015 
L 238.84298 195.015 
L 238.167199 195.015 
L 237.491417 195.015 
L 236.815636 195.015 
L 236.139854 195.015 
L 235.464073 195.015 
L 234.788291 195.015 
L 234.11251 195.015 
L 233.436728 195.015 
L 232.760946 195.015 
L 232.085165 195.015 
L 231.409383 195.015 
L 230.733602 195.015 
L 230.05782 195.015 
L 229.382039 195.015 
L 228.706257 195.015 
L 228.030475 195.015 
L 227.354694 195.015 
L 226.678912 195.015 
L 226.003131 195.015 
L 225.327349 195.015 
L 224.651568 195.015 
L 223.975786 195.015 
L 223.300005 195.015 
L 222.624223 195.015 
L 221.948441 195.015 
L 221.27266 195.015 
L 220.596878 195.015 
L 219.921097 195.015 
L 219.245315 195.015 
L 218.569534 195.015 
L 217.893752 195.015 
L 217.21797 195.015 
L 216.542189 195.015 
L 215.866407 195.015 
L 215.190626 195.015 
L 214.514844 195.015 
L 213.839063 195.015 
L 213.163281 195.015 
L 212.4875 195.015 
L 211.811718 195.015 
L 211.135936 195.015 
L 210.460155 195.015 
L 209.784373 195.015 
L 209.108592 195.015 
L 208.43281 195.015 
L 207.757029 195.015 
L 207.081247 195.015 
L 206.405465 195.015 
L 205.729684 195.015 
L 205.053902 195.015 
L 204.378121 195.015 
L 203.702339 195.015 
L 203.026558 195.015 
L 202.350776 195.015 
L 201.674995 195.015 
L 200.999213 195.015 
L 200.323431 195.015 
L 199.64765 195.015 
L 198.971868 195.015 
L 198.296087 195.015 
L 197.620305 195.015 
L 196.944524 195.015 
L 196.268742 195.015 
L 195.59296 195.015 
L 194.917179 195.015 
L 194.241397 195.015 
L 193.565616 195.015 
L 192.889834 195.015 
L 192.214053 195.015 
L 191.538271 195.015 
L 190.86249 195.015 
L 190.186708 195.015 
L 189.510926 195.015 
L 188.835145 195.015 
L 188.159363 195.015 
L 187.483582 195.015 
L 186.8078 195.015 
L 186.132019 195.015 
L 185.456237 195.015 
L 184.780455 195.015 
L 184.104674 195.015 
L 183.428892 195.015 
L 182.753111 195.015 
L 182.077329 195.015 
L 181.401548 195.015 
L 180.725766 195.015 
L 180.049985 195.015 
L 179.374203 195.015 
L 178.698421 195.015 
L 178.02264 195.015 
L 177.346858 195.015 
L 176.671077 195.015 
L 175.995295 195.015 
L 175.319514 195.015 
L 174.643732 195.015 
L 173.96795 195.015 
L 173.292169 195.015 
L 172.616387 195.015 
L 171.940606 195.015 
L 171.264824 195.015 
L 170.589043 195.015 
L 169.913261 195.015 
z
" clip-path="url(#pb77ea005c7)" style="fill: url(#hcae47935a2); fill-opacity: 0.58"/>
   </g>
   <g id="matplotlib.axis_1">
    <g id="xtick_1">
     <g id="line2d_1">
      <defs>
       <path id="me0fdcf8763" d="M 0 0 
L 0 3 
" style="stroke: #665a75; stroke-width: 0.8"/>
      </defs>
      <g>
       <use xlink:href="#me0fdcf8763" x="44.893672" y="195.015" style="fill: #665a75; stroke: #665a75; stroke-width: 0.8"/>
      </g>
     </g>
     <g id="text_1">
      <text style="font-size: 8.5px; font-family: 'Arial'; text-anchor: middle; fill: #665a75" x="44.893672" y="207.599141" transform="rotate(-0 44.893672 207.599141)">−4</text>
     </g>
    </g>
    <g id="xtick_2">
     <g id="line2d_2">
      <g>
       <use xlink:href="#me0fdcf8763" x="93.067243" y="195.015" style="fill: #665a75; stroke: #665a75; stroke-width: 0.8"/>
      </g>
     </g>
     <g id="text_2">
      <text style="font-size: 8.5px; font-family: 'Arial'; text-anchor: middle; fill: #665a75" x="93.067243" y="207.599141" transform="rotate(-0 93.067243 207.599141)">−2</text>
     </g>
    </g>
    <g id="xtick_3">
     <g id="line2d_3">
      <g>
       <use xlink:href="#me0fdcf8763" x="141.240815" y="195.015" style="fill: #665a75; stroke: #665a75; stroke-width: 0.8"/>
      </g>
     </g>
     <g id="text_3">
      <text style="font-size: 8.5px; font-family: 'Arial'; text-anchor: middle; fill: #665a75" x="141.240815" y="207.599141" transform="rotate(-0 141.240815 207.599141)">0</text>
     </g>
    </g>
    <g id="xtick_4">
     <g id="line2d_4">
      <g>
       <use xlink:href="#me0fdcf8763" x="189.414386" y="195.015" style="fill: #665a75; stroke: #665a75; stroke-width: 0.8"/>
      </g>
     </g>
     <g id="text_4">
      <text style="font-size: 8.5px; font-family: 'Arial'; text-anchor: middle; fill: #665a75" x="189.414386" y="207.599141" transform="rotate(-0 189.414386 207.599141)">2</text>
     </g>
    </g>
    <g id="xtick_5">
     <g id="line2d_5">
      <g>
       <use xlink:href="#me0fdcf8763" x="237.587958" y="195.015" style="fill: #665a75; stroke: #665a75; stroke-width: 0.8"/>
      </g>
     </g>
     <g id="text_5">
      <text style="font-size: 8.5px; font-family: 'Arial'; text-anchor: middle; fill: #665a75" x="237.587958" y="207.599141" transform="rotate(-0 237.587958 207.599141)">4</text>
     </g>
    </g>
    <g id="xtick_6">
     <g id="line2d_6">
      <g>
       <use xlink:href="#me0fdcf8763" x="285.761529" y="195.015" style="fill: #665a75; stroke: #665a75; stroke-width: 0.8"/>
      </g>
     </g>
     <g id="text_6">
      <text style="font-size: 8.5px; font-family: 'Arial'; text-anchor: middle; fill: #665a75" x="285.761529" y="207.599141" transform="rotate(-0 285.761529 207.599141)">6</text>
     </g>
    </g>
    <g id="xtick_7">
     <g id="line2d_7">
      <g>
       <use xlink:href="#me0fdcf8763" x="333.9351" y="195.015" style="fill: #665a75; stroke: #665a75; stroke-width: 0.8"/>
      </g>
     </g>
     <g id="text_7">
      <text style="font-size: 8.5px; font-family: 'Arial'; text-anchor: middle; fill: #665a75" x="333.9351" y="207.599141" transform="rotate(-0 333.9351 207.599141)">8</text>
     </g>
    </g>
    <g id="xtick_8">
     <g id="line2d_8">
      <g>
       <use xlink:href="#me0fdcf8763" x="382.108672" y="195.015" style="fill: #665a75; stroke: #665a75; stroke-width: 0.8"/>
      </g>
     </g>
     <g id="text_8">
      <text style="font-size: 8.5px; font-family: 'Arial'; text-anchor: middle; fill: #665a75" x="382.108672" y="207.599141" transform="rotate(-0 382.108672 207.599141)">10</text>
     </g>
    </g>
    <g id="text_9">
     <!-- Configuration space $\mathbf{x}$ -->
     <g style="fill: #231533" transform="translate(157.036172 221.683516)">
      <text>
       <tspan x="0" y="-0.265625" style="font-size: 11.5px; font-family: 'Arial'; fill: #231533">C</tspan>
       <tspan x="8.304932" y="-0.265625" style="font-size: 11.5px; font-family: 'Arial'; fill: #231533">o</tspan>
       <tspan x="14.700684" y="-0.265625" style="font-size: 11.5px; font-family: 'Arial'; fill: #231533">n</tspan>
       <tspan x="21.096436" y="-0.265625" style="font-size: 11.5px; font-family: 'Arial'; fill: #231533">f</tspan>
       <tspan x="24.291504" y="-0.265625" style="font-size: 11.5px; font-family: 'Arial'; fill: #231533">i</tspan>
       <tspan x="26.846436" y="-0.265625" style="font-size: 11.5px; font-family: 'Arial'; fill: #231533">g</tspan>
       <tspan x="33.242188" y="-0.265625" style="font-size: 11.5px; font-family: 'Arial'; fill: #231533">u</tspan>
       <tspan x="39.637939" y="-0.265625" style="font-size: 11.5px; font-family: 'Arial'; fill: #231533">r</tspan>
       <tspan x="43.467529" y="-0.265625" style="font-size: 11.5px; font-family: 'Arial'; fill: #231533">a</tspan>
       <tspan x="49.863281" y="-0.265625" style="font-size: 11.5px; font-family: 'Arial'; fill: #231533">t</tspan>
       <tspan x="53.05835" y="-0.265625" style="font-size: 11.5px; font-family: 'Arial'; fill: #231533">i</tspan>
       <tspan x="55.613281" y="-0.265625" style="font-size: 11.5px; font-family: 'Arial'; fill: #231533">o</tspan>
       <tspan x="62.009033" y="-0.265625" style="font-size: 11.5px; font-family: 'Arial'; fill: #231533">n</tspan>
       <tspan x="68.404785" y="-0.265625" style="font-size: 11.5px; font-family: 'Arial'; fill: #231533"> </tspan>
       <tspan x="71.599854" y="-0.265625" style="font-size: 11.5px; font-family: 'Arial'; fill: #231533">s</tspan>
       <tspan x="77.349854" y="-0.265625" style="font-size: 11.5px; font-family: 'Arial'; fill: #231533">p</tspan>
       <tspan x="83.745605" y="-0.265625" style="font-size: 11.5px; font-family: 'Arial'; fill: #231533">a</tspan>
       <tspan x="90.141357" y="-0.265625" style="font-size: 11.5px; font-family: 'Arial'; fill: #231533">c</tspan>
       <tspan x="95.891357" y="-0.265625" style="font-size: 11.5px; font-family: 'Arial'; fill: #231533">e</tspan>
       <tspan x="102.287109" y="-0.265625" style="font-size: 11.5px; font-family: 'Arial'; fill: #231533"> </tspan>
       <tspan x="105.482178" y="-0.265625" style="font-weight: 700; font-size: 11.5px; font-family: 'DejaVu Sans'; fill: #231533">x</tspan>
      </text>
     </g>
    </g>
   </g>
   <g id="matplotlib.axis_2">
    <g id="ytick_1">
     <g id="line2d_9">
      <defs>
       <path id="m06003ec296" d="M 0 0 
L -3 0 
" style="stroke: #665a75; stroke-width: 0.8"/>
      </defs>
      <g>
       <use xlink:href="#m06003ec296" x="44.893672" y="195.015" style="fill: #665a75; stroke: #665a75; stroke-width: 0.8"/>
      </g>
     </g>
     <g id="text_10">
      <text style="font-size: 8.5px; font-family: 'Arial'; text-anchor: end; fill: #665a75" x="38.393672" y="198.05707" transform="rotate(-0 38.393672 198.05707)">0.00</text>
     </g>
    </g>
    <g id="ytick_2">
     <g id="line2d_10">
      <g>
       <use xlink:href="#m06003ec296" x="44.893672" y="173.176047" style="fill: #665a75; stroke: #665a75; stroke-width: 0.8"/>
      </g>
     </g>
     <g id="text_11">
      <text style="font-size: 8.5px; font-family: 'Arial'; text-anchor: end; fill: #665a75" x="38.393672" y="176.218117" transform="rotate(-0 38.393672 176.218117)">0.05</text>
     </g>
    </g>
    <g id="ytick_3">
     <g id="line2d_11">
      <g>
       <use xlink:href="#m06003ec296" x="44.893672" y="151.337093" style="fill: #665a75; stroke: #665a75; stroke-width: 0.8"/>
      </g>
     </g>
     <g id="text_12">
      <text style="font-size: 8.5px; font-family: 'Arial'; text-anchor: end; fill: #665a75" x="38.393672" y="154.379163" transform="rotate(-0 38.393672 154.379163)">0.10</text>
     </g>
    </g>
    <g id="ytick_4">
     <g id="line2d_12">
      <g>
       <use xlink:href="#m06003ec296" x="44.893672" y="129.49814" style="fill: #665a75; stroke: #665a75; stroke-width: 0.8"/>
      </g>
     </g>
     <g id="text_13">
      <text style="font-size: 8.5px; font-family: 'Arial'; text-anchor: end; fill: #665a75" x="38.393672" y="132.54021" transform="rotate(-0 38.393672 132.54021)">0.15</text>
     </g>
    </g>
    <g id="ytick_5">
     <g id="line2d_13">
      <g>
       <use xlink:href="#m06003ec296" x="44.893672" y="107.659186" style="fill: #665a75; stroke: #665a75; stroke-width: 0.8"/>
      </g>
     </g>
     <g id="text_14">
      <text style="font-size: 8.5px; font-family: 'Arial'; text-anchor: end; fill: #665a75" x="38.393672" y="110.701256" transform="rotate(-0 38.393672 110.701256)">0.20</text>
     </g>
    </g>
    <g id="ytick_6">
     <g id="line2d_14">
      <g>
       <use xlink:href="#m06003ec296" x="44.893672" y="85.820233" style="fill: #665a75; stroke: #665a75; stroke-width: 0.8"/>
      </g>
     </g>
     <g id="text_15">
      <text style="font-size: 8.5px; font-family: 'Arial'; text-anchor: end; fill: #665a75" x="38.393672" y="88.862303" transform="rotate(-0 38.393672 88.862303)">0.25</text>
     </g>
    </g>
    <g id="ytick_7">
     <g id="line2d_15">
      <g>
       <use xlink:href="#m06003ec296" x="44.893672" y="63.981279" style="fill: #665a75; stroke: #665a75; stroke-width: 0.8"/>
      </g>
     </g>
     <g id="text_16">
      <text style="font-size: 8.5px; font-family: 'Arial'; text-anchor: end; fill: #665a75" x="38.393672" y="67.023349" transform="rotate(-0 38.393672 67.023349)">0.30</text>
     </g>
    </g>
    <g id="ytick_8">
     <g id="line2d_16">
      <g>
       <use xlink:href="#m06003ec296" x="44.893672" y="42.142326" style="fill: #665a75; stroke: #665a75; stroke-width: 0.8"/>
      </g>
     </g>
     <g id="text_17">
      <text style="font-size: 8.5px; font-family: 'Arial'; text-anchor: end; fill: #665a75" x="38.393672" y="45.184396" transform="rotate(-0 38.393672 45.184396)">0.35</text>
     </g>
    </g>
    <g id="ytick_9">
     <g id="line2d_17">
      <g>
       <use xlink:href="#m06003ec296" x="44.893672" y="20.303372" style="fill: #665a75; stroke: #665a75; stroke-width: 0.8"/>
      </g>
     </g>
     <g id="text_18">
      <text style="font-size: 8.5px; font-family: 'Arial'; text-anchor: end; fill: #665a75" x="38.393672" y="23.345442" transform="rotate(-0 38.393672 23.345442)">0.40</text>
     </g>
    </g>
    <g id="text_19">
     <text style="font-size: 11.5px; font-family: 'Arial'; text-anchor: middle; fill: #231533" x="15.431484" y="101.1075" transform="rotate(-90 15.431484 101.1075)">Probability density</text>
    </g>
   </g>
   <g id="line2d_18">
    <path d="M 44.893672 194.956546 
L 54.354614 194.754593 
L 59.760866 194.444397 
L 63.815556 194.020771 
L 67.194463 193.469581 
L 69.89759 192.846594 
L 72.600716 192.010547 
L 75.303842 190.904254 
L 77.331187 189.857402 
L 79.358532 188.589636 
L 81.385876 187.066755 
L 83.413221 185.252341 
L 85.440566 183.108385 
L 87.46791 180.59611 
L 89.495255 177.677013 
L 91.5226 174.314119 
L 93.549944 170.473432 
L 95.577289 166.125561 
L 97.604634 161.247474 
L 99.631978 155.824329 
L 101.659323 149.851303 
L 104.362449 141.045808 
L 107.065576 131.330653 
L 109.768702 120.807152 
L 113.14761 106.75182 
L 125.311678 54.990816 
L 128.014804 45.15005 
L 130.042149 38.616211 
L 132.069494 32.949706 
L 133.421057 29.710308 
L 134.77262 26.936204 
L 136.124183 24.652791 
L 137.475746 22.881187 
L 138.827309 21.637914 
L 139.503091 21.218239 
L 140.178872 20.93463 
L 140.854654 20.787754 
L 141.530435 20.777958 
L 142.206217 20.905265 
L 142.881999 21.169374 
L 143.55778 21.569664 
L 144.909343 22.774695 
L 146.260906 24.509052 
L 147.612469 26.756555 
L 148.964033 29.496403 
L 150.315596 32.703493 
L 151.667159 36.348804 
L 153.694504 42.566496 
L 155.721848 49.574538 
L 158.424974 59.917055 
L 161.803882 73.979874 
L 173.292169 123.123417 
L 175.995295 133.484727 
L 178.698421 143.011809 
L 181.401548 151.613825 
L 183.428892 157.429904 
L 185.456237 162.696354 
L 187.483582 167.421044 
L 189.510926 171.621343 
L 191.538271 175.322286 
L 193.565616 178.554752 
L 195.59296 181.353749 
L 197.620305 183.756827 
L 199.64765 185.802687 
L 201.674995 187.529984 
L 203.702339 188.976346 
L 205.729684 190.177612 
L 207.757029 191.167267 
L 210.460155 192.210356 
L 213.163281 192.996258 
L 216.542189 193.700099 
L 219.921097 194.175232 
L 224.651568 194.581316 
L 230.733602 194.839782 
L 240.194544 194.977305 
L 264.52268 195.014643 
L 382.108672 195.015 
L 382.108672 195.015 
" clip-path="url(#pb77ea005c7)" style="fill: none; stroke: #7a53ec; stroke-width: 2.4; stroke-linecap: square"/>
   </g>
   <g id="line2d_19">
    <path d="M 44.893672 195.015 
L 175.995295 194.907761 
L 185.456237 194.662686 
L 191.538271 194.299772 
L 196.268742 193.811825 
L 200.323431 193.175562 
L 203.702339 192.434006 
L 207.081247 191.44265 
L 209.784373 190.427096 
L 212.4875 189.174145 
L 215.190626 187.643769 
L 217.893752 185.79342 
L 219.921097 184.169199 
L 221.948441 182.321501 
L 223.975786 180.231935 
L 226.003131 177.882883 
L 228.030475 175.258 
L 230.05782 172.342762 
L 232.085165 169.125051 
L 234.788291 164.34903 
L 237.491417 159.008256 
L 240.194544 153.105485 
L 242.89767 146.659816 
L 245.600796 139.708639 
L 248.979704 130.397717 
L 253.034393 118.525312 
L 265.198461 82.272531 
L 267.901588 75.042124 
L 270.604714 68.459731 
L 272.632059 64.040899 
L 274.659403 60.132987 
L 276.686748 56.790167 
L 278.038311 54.899202 
L 279.389874 53.292584 
L 280.741437 51.980634 
L 282.093001 50.971835 
L 283.444564 50.27275 
L 284.796127 49.88794 
L 286.14769 49.819927 
L 287.499253 50.069154 
L 288.850816 50.633991 
L 290.202379 51.510743 
L 291.553942 52.6937 
L 292.905506 54.175191 
L 294.257069 55.94567 
L 295.608632 57.993819 
L 297.635976 61.557883 
L 299.663321 65.667157 
L 301.690666 70.265142 
L 304.393792 77.048784 
L 307.096918 84.434926 
L 311.151608 96.288492 
L 323.315676 132.580226 
L 326.694584 141.743322 
L 329.39771 148.555013 
L 332.100836 154.848552 
L 334.803962 160.591946 
L 337.507089 165.770984 
L 340.210215 170.387164 
L 342.913341 174.455283 
L 344.940686 177.161737 
L 346.968031 179.587999 
L 348.995375 181.749952 
L 351.02272 183.664903 
L 353.725846 185.865508 
L 356.428972 187.703676 
L 359.132099 189.223424 
L 361.835225 190.467224 
L 364.538351 191.475002 
L 367.917259 192.458378 
L 371.296167 193.193643 
L 375.350856 193.82421 
L 380.081327 194.307521 
L 382.108672 194.453637 
L 382.108672 194.453637 
" clip-path="url(#pb77ea005c7)" style="fill: none; stroke: #c7506b; stroke-width: 2.4; stroke-linecap: square"/>
   </g>
   <g id="patch_3">
    <path d="M 44.893672 195.015 
L 44.893672 7.2 
" style="fill: none; stroke: #c8bbd8; stroke-width: 0.8; stroke-linejoin: miter; stroke-linecap: square"/>
   </g>
   <g id="patch_4">
    <path d="M 44.893672 195.015 
L 382.108672 195.015 
" style="fill: none; stroke: #c8bbd8; stroke-width: 0.8; stroke-linejoin: miter; stroke-linecap: square"/>
   </g>
   <g id="text_20">
    <g id="patch_5">
     <path d="M 122.546329 52.906116 
L 151.978329 52.906116 
L 151.978329 40.114116 
L 122.546329 40.114116 
z
" style="fill: #ffffff; opacity: 0.9"/>
    </g>
    <!-- $p_A(\mathbf{x})$ -->
    <g style="fill: #7a53ec" transform="translate(123.898329 49.370116)">
     <text>
      <tspan x="0" y="-0.40625" style="font-style: oblique; font-size: 10.4px; font-family: 'DejaVu Sans'; fill: #7a53ec">p</tspan>
      <tspan x="6.585693" y="1.234375" style="font-style: oblique; font-size: 7.28px; font-family: 'DejaVu Sans'; fill: #7a53ec">A</tspan>
      <tspan x="11.827277" y="-0.40625" style="font-size: 10.4px; font-family: 'DejaVu Sans'; fill: #7a53ec">(</tspan>
      <tspan x="22.567023" y="-0.40625" style="font-size: 10.4px; font-family: 'DejaVu Sans'; fill: #7a53ec">)</tspan>
      <tspan x="15.874945" y="-0.40625" style="font-weight: 700; font-size: 10.4px; font-family: 'DejaVu Sans'; fill: #7a53ec">x</tspan>
     </text>
    </g>
   </g>
   <g id="text_21">
    <g id="patch_6">
     <path d="M 268.753118 76.928965 
L 298.185118 76.928965 
L 298.185118 64.136965 
L 268.753118 64.136965 
z
" style="fill: #ffffff; opacity: 0.9"/>
    </g>
    <!-- $p_B(\mathbf{x})$ -->
    <g style="fill: #c7506b" transform="translate(270.105118 73.392965)">
     <text>
      <tspan x="0" y="-0.40625" style="font-style: oblique; font-size: 10.4px; font-family: 'DejaVu Sans'; fill: #c7506b">p</tspan>
      <tspan x="6.585693" y="1.234375" style="font-style: oblique; font-size: 7.28px; font-family: 'DejaVu Sans'; fill: #c7506b">B</tspan>
      <tspan x="11.841461" y="-0.40625" style="font-size: 10.4px; font-family: 'DejaVu Sans'; fill: #c7506b">(</tspan>
      <tspan x="22.581207" y="-0.40625" style="font-size: 10.4px; font-family: 'DejaVu Sans'; fill: #c7506b">)</tspan>
      <tspan x="15.88913" y="-0.40625" style="font-weight: 700; font-size: 10.4px; font-family: 'DejaVu Sans'; fill: #c7506b">x</tspan>
     </text>
    </g>
   </g>
   <g id="patch_7">
    <path d="M 247.291702 166.809509 
Q 231.452406 181.662818 212.806005 189.842647 
" style="fill: none; stroke: #b7791f; stroke-width: 1.4; stroke-linecap: round"/>
    <path d="M 218.165795 190.112182 
L 212.806005 189.842647 
L 216.237507 185.716536 
z
" style="fill: #b7791f; stroke: #b7791f; stroke-width: 1.4; stroke-linecap: round"/>
   </g>
   <g id="text_22">
    <g id="patch_8">
     <path d="M 222.554225 164.028154 
L 289.332413 164.028154 
L 289.332413 151.749404 
L 222.554225 151.749404 
z
" style="fill: #ffffff; opacity: 0.92"/>
    </g>
    <text style="font-weight: 600; font-size: 9.4px; font-family: 'Arial'; text-anchor: start; fill: #b7791f" x="224.340225" y="160.263748" transform="rotate(-0 224.340225 160.263748)">overlap signal</text>
   </g>
  </g>
 </g>
 <defs>
  <clipPath id="pb77ea005c7">
   <rect x="44.893672" y="7.2" width="337.215" height="187.815"/>
  </clipPath>
 </defs>
 <defs>
  <pattern id="hcae47935a2" patternUnits="userSpaceOnUse" x="0" y="0" width="72" height="72">
   <rect x="0" y="0" width="73" height="73" fill="#b7791f"/>
   <path d="M -36 36 
L 36 -36 
M -32 40 
L 40 -32 
M -28 44 
L 44 -28 
M -24 48 
L 48 -24 
M -20 52 
L 52 -20 
M -16 56 
L 56 -16 
M -12 60 
L 60 -12 
M -8 64 
L 64 -8 
M -4 68 
L 68 -4 
M 0 72 
L 72 0 
M 4 76 
L 76 4 
M 8 80 
L 80 8 
M 12 84 
L 84 12 
M 16 88 
L 88 16 
M 20 92 
L 92 20 
M 24 96 
L 96 24 
M 28 100 
L 100 28 
M 32 104 
L 104 32 
M 36 108 
L 108 36 
" style="fill: #b7791f; stroke: #b7791f; stroke-width: 1.0; stroke-linecap: butt; stroke-linejoin: miter; stroke-opacity: 0.58"/>
  </pattern>
 </defs>
</svg>
