<?xml version="1.0" encoding="utf-8" standalone="no"?>
<!DOCTYPE svg PUBLIC "-//W3C//DTD SVG 1.1//EN"
  "http://www.w3.org/Graphics/SVG/1.1/DTD/svg11.dtd">
<svg xmlns:xlink="http://www.w3.org/1999/xlink" width="394.061797pt" height="232.130625pt" viewBox="0 0 394.061797 232.130625" xmlns="http://www.w3.org/2000/svg" version="1.1">
 <metadata>
  <rdf:RDF xmlns:dc="http://purl.org/dc/elements/1.1/" xmlns:cc="http://creativecommons.org/ns#" xmlns:rdf="http://www.w3.org/1999/02/22-rdf-syntax-ns#">
   <cc:Work>
    <dc:type rdf:resource="http://purl.org/dc/dcmitype/StillImage"/>
    <dc:date>2026-06-20T20:58:26.753748</dc:date>
    <dc:format>image/svg+xml</dc:format>
    <dc:creator>
     <cc:Agent>
      <dc:title>Matplotlib v3.10.8, https://matplotlib.org/</dc:title>
     </cc:Agent>
    </dc:creator>
   </cc:Work>
  </rdf:RDF>
 </metadata>
 <defs>
  <style type="text/css">*{stroke-linejoin: round; stroke-linecap: butt}</style>
 </defs>
 <g id="figure_1">
  <g id="patch_1">
   <path d="M 0 232.130625 
L 394.061797 232.130625 
L 394.061797 0 
L 0 0 
L 0 232.130625 
z
" style="fill: none"/>
  </g>
  <g id="axes_1">
   <g id="patch_2">
    <path d="M 44.893672 196.14 
L 386.861797 196.14 
L 386.861797 7.2 
L 44.893672 7.2 
z
" style="fill: #ffffff"/>
   </g>
   <g id="FillBetweenPolyCollection_1">
    <defs>
     <path id="m52d53441a2" d="M 51.469982 -35.990625 
L 51.469982 -35.991275 
L 52.128931 -35.991332 
L 52.78788 -35.991393 
L 53.446829 -35.991459 
L 54.105778 -35.991531 
L 54.764727 -35.991609 
L 55.423675 -35.991693 
L 56.082624 -35.991784 
L 56.741573 -35.991882 
L 57.400522 -35.991988 
L 58.059471 -35.992103 
L 58.71842 -35.992227 
L 59.377369 -35.992361 
L 60.036318 -35.992505 
L 60.695267 -35.992662 
L 61.354216 -35.99283 
L 62.013164 -35.993012 
L 62.672113 -35.993208 
L 63.331062 -35.993419 
L 63.990011 -35.993646 
L 64.64896 -35.993892 
L 65.307909 -35.994156 
L 65.966858 -35.994441 
L 66.625807 -35.994747 
L 67.284756 -35.995077 
L 67.943705 -35.995431 
L 68.602654 -35.995813 
L 69.261602 -35.996223 
L 69.920551 -35.996664 
L 70.5795 -35.997138 
L 71.238449 -35.997647 
L 71.897398 -35.998194 
L 72.556347 -35.998781 
L 73.215296 -35.999412 
L 73.874245 -36.000088 
L 74.533194 -36.000814 
L 75.192143 -36.001592 
L 75.851092 -36.002426 
L 76.51004 -36.00332 
L 77.168989 -36.004278 
L 77.827938 -36.005305 
L 78.486887 -36.006404 
L 79.145836 -36.007581 
L 79.804785 -36.00884 
L 80.463734 -36.010188 
L 81.122683 -36.011629 
L 81.781632 -36.01317 
L 82.440581 -36.014818 
L 83.09953 -36.016579 
L 83.758478 -36.01846 
L 84.417427 -36.020469 
L 85.076376 -36.022614 
L 85.735325 -36.024904 
L 86.394274 -36.027347 
L 87.053223 -36.029954 
L 87.712172 -36.032734 
L 88.371121 -36.035698 
L 89.03007 -36.038858 
L 89.689019 -36.042224 
L 90.347968 -36.04581 
L 91.006916 -36.049628 
L 91.665865 -36.053693 
L 92.324814 -36.05802 
L 92.983763 -36.062623 
L 93.642712 -36.067519 
L 94.301661 -36.072725 
L 94.96061 -36.078259 
L 95.619559 -36.08414 
L 96.278508 -36.090388 
L 96.937457 -36.097024 
L 97.596405 -36.104069 
L 98.255354 -36.111548 
L 98.914303 -36.119483 
L 99.573252 -36.127901 
L 100.232201 -36.136828 
L 100.89115 -36.146292 
L 101.550099 -36.156322 
L 102.209048 -36.166949 
L 102.867997 -36.178206 
L 103.526946 -36.190126 
L 104.185895 -36.202744 
L 104.844843 -36.216097 
L 105.503792 -36.230224 
L 106.162741 -36.245165 
L 106.82169 -36.260963 
L 107.480639 -36.277661 
L 108.139588 -36.295305 
L 108.798537 -36.313943 
L 109.457486 -36.333626 
L 110.116435 -36.354406 
L 110.775384 -36.376338 
L 111.434333 -36.399477 
L 112.093281 -36.423884 
L 112.75223 -36.449619 
L 113.411179 -36.476748 
L 114.070128 -36.505336 
L 114.729077 -36.535454 
L 115.388026 -36.567174 
L 116.046975 -36.60057 
L 116.705924 -36.63572 
L 117.364873 -36.672706 
L 118.023822 -36.711611 
L 118.682771 -36.752523 
L 119.341719 -36.795532 
L 120.000668 -36.840731 
L 120.659617 -36.888219 
L 121.318566 -36.938095 
L 121.977515 -36.990463 
L 122.636464 -37.045431 
L 123.295413 -37.103112 
L 123.954362 -37.163619 
L 124.613311 -37.227072 
L 125.27226 -37.293595 
L 125.931209 -37.363313 
L 126.590157 -37.436359 
L 127.249106 -37.512867 
L 127.908055 -37.592977 
L 128.567004 -37.676832 
L 129.225953 -37.764581 
L 129.884902 -37.856377 
L 130.543851 -37.952375 
L 131.2028 -38.052737 
L 131.861749 -38.157629 
L 132.520698 -38.267221 
L 133.179646 -38.381689 
L 133.838595 -38.501213 
L 134.497544 -38.625976 
L 135.156493 -38.756167 
L 135.815442 -38.891981 
L 136.474391 -39.033616 
L 137.13334 -39.181275 
L 137.792289 -39.335167 
L 138.451238 -39.495503 
L 139.110187 -39.662501 
L 139.769136 -39.836384 
L 140.428084 -40.017378 
L 141.087033 -40.205714 
L 141.745982 -40.401629 
L 142.404931 -40.605362 
L 143.06388 -40.817159 
L 143.722829 -41.037269 
L 144.381778 -41.265946 
L 145.040727 -41.503447 
L 145.699676 -41.750034 
L 146.358625 -42.005972 
L 147.017574 -42.271533 
L 147.676522 -42.546988 
L 148.335471 -42.832615 
L 148.99442 -43.128695 
L 149.653369 -43.43551 
L 150.312318 -43.753348 
L 150.971267 -44.082498 
L 151.630216 -44.423252 
L 152.289165 -44.775905 
L 152.948114 -45.140754 
L 153.607063 -45.518098 
L 154.266012 -45.908236 
L 154.92496 -46.311472 
L 155.583909 -46.728107 
L 156.242858 -47.158446 
L 156.901807 -47.602793 
L 157.560756 -48.061454 
L 158.219705 -48.534731 
L 158.878654 -49.02293 
L 159.537603 -49.526353 
L 160.196552 -50.045303 
L 160.855501 -50.580079 
L 161.51445 -51.13098 
L 162.173398 -51.698303 
L 162.832347 -52.282338 
L 163.491296 -52.883378 
L 164.150245 -53.501707 
L 164.809194 -54.137606 
L 165.468143 -54.791354 
L 166.127092 -55.463222 
L 166.786041 -56.153475 
L 167.44499 -56.862375 
L 168.103939 -57.590174 
L 168.762887 -58.337118 
L 169.421836 -59.103445 
L 170.080785 -59.889387 
L 170.739734 -60.695162 
L 171.398683 -61.520985 
L 172.057632 -62.367055 
L 172.716581 -63.233566 
L 173.37553 -64.120696 
L 174.034479 -65.028615 
L 174.693428 -65.957479 
L 175.352377 -66.907432 
L 176.011325 -67.878604 
L 176.670274 -68.871111 
L 177.329223 -69.885056 
L 177.988172 -70.920525 
L 178.647121 -71.977589 
L 179.30607 -73.056304 
L 179.965019 -74.156708 
L 180.623968 -75.278822 
L 181.282917 -76.42265 
L 181.941866 -77.588175 
L 182.600815 -78.775365 
L 183.259763 -79.984167 
L 183.918712 -81.214506 
L 184.577661 -82.466289 
L 185.23661 -83.739404 
L 185.895559 -85.033713 
L 186.554508 -86.34906 
L 187.213457 -87.685265 
L 187.872406 -89.042128 
L 188.531355 -90.419423 
L 189.190304 -91.816903 
L 189.849253 -93.234297 
L 190.508201 -94.67131 
L 191.16715 -96.127623 
L 191.826099 -97.602892 
L 192.485048 -99.09675 
L 193.143997 -100.608804 
L 193.802946 -102.138637 
L 194.461895 -103.685807 
L 195.120844 -105.249845 
L 195.779793 -106.83026 
L 196.438742 -108.426533 
L 197.097691 -110.038123 
L 197.756639 -111.664459 
L 198.415588 -113.304951 
L 199.074537 -114.958978 
L 199.733486 -116.6259 
L 200.392435 -118.305049 
L 201.051384 -119.995732 
L 201.710333 -121.697234 
L 202.369282 -123.408817 
L 203.028231 -125.129716 
L 203.68718 -126.859147 
L 204.346128 -128.5963 
L 205.005077 -130.340346 
L 205.664026 -132.090433 
L 206.322975 -133.845687 
L 206.981924 -135.605214 
L 207.640873 -137.368103 
L 208.299822 -139.13342 
L 208.958771 -140.900214 
L 209.61772 -142.667517 
L 210.276669 -144.434344 
L 210.935618 -146.199693 
L 211.594566 -147.962547 
L 212.253515 -149.721876 
L 212.912464 -151.476636 
L 213.571413 -153.225769 
L 214.230362 -154.968208 
L 214.889311 -156.702874 
L 215.54826 -158.428679 
L 216.207209 -160.144527 
L 216.866158 -161.849315 
L 217.525107 -163.541934 
L 218.184056 -165.22127 
L 218.843004 -166.886205 
L 219.501953 -168.535619 
L 220.160902 -170.168391 
L 220.819851 -171.7834 
L 221.4788 -173.379526 
L 222.137749 -174.955651 
L 222.796698 -176.510662 
L 223.455647 -178.04345 
L 224.114596 -179.552914 
L 224.773545 -181.03796 
L 225.432494 -182.497502 
L 226.091442 -183.930465 
L 226.750391 -185.335787 
L 227.40934 -186.712418 
L 228.068289 -188.059322 
L 228.727238 -189.375478 
L 229.386187 -190.659883 
L 230.045136 -191.911552 
L 230.704085 -193.12952 
L 231.363034 -194.312841 
L 232.021983 -195.460591 
L 232.680932 -196.571871 
L 233.33988 -197.645805 
L 233.998829 -198.681541 
L 234.657778 -199.678255 
L 235.316727 -200.635152 
L 235.975676 -201.551462 
L 236.634625 -202.426448 
L 237.293574 -203.259401 
L 237.952523 -204.049646 
L 238.611472 -204.79654 
L 239.270421 -205.499471 
L 239.929369 -206.157865 
L 240.588318 -206.77118 
L 241.247267 -207.338911 
L 241.906216 -207.860589 
L 242.565165 -208.335784 
L 243.224114 -208.7641 
L 243.883063 -209.145183 
L 244.542012 -209.478715 
L 245.200961 -209.764418 
L 245.85991 -210.002055 
L 246.518859 -210.191426 
L 247.177807 -210.332375 
L 247.836756 -210.424782 
L 248.495705 -210.468571 
L 249.154654 -210.463705 
L 249.813603 -210.410188 
L 250.472552 -210.308065 
L 251.131501 -210.157421 
L 251.79045 -209.958383 
L 252.449399 -209.711116 
L 253.108348 -209.415826 
L 253.767297 -209.072761 
L 254.426245 -208.682205 
L 255.085194 -208.244483 
L 255.744143 -207.759959 
L 256.403092 -207.229034 
L 257.062041 -206.652148 
L 257.72099 -206.029776 
L 258.379939 -205.36243 
L 259.038888 -204.650659 
L 259.697837 -203.895045 
L 260.356786 -203.096206 
L 261.015735 -202.254791 
L 261.674683 -201.371483 
L 262.333632 -200.446995 
L 262.992581 -199.482073 
L 263.65153 -198.477489 
L 264.310479 -197.434047 
L 264.969428 -196.352575 
L 265.628377 -195.23393 
L 266.287326 -194.078993 
L 266.946275 -192.888668 
L 267.605224 -191.663884 
L 268.264173 -190.40559 
L 268.923121 -189.114755 
L 269.58207 -187.792368 
L 270.241019 -186.439437 
L 270.899968 -185.056985 
L 271.558917 -183.64605 
L 272.217866 -182.207685 
L 272.876815 -180.742956 
L 273.535764 -179.25294 
L 274.194713 -177.738723 
L 274.853662 -176.201402 
L 275.51261 -174.64208 
L 276.171559 -173.061865 
L 276.830508 -171.461873 
L 277.489457 -169.843222 
L 278.148406 -168.207032 
L 278.807355 -166.554424 
L 279.466304 -164.886519 
L 280.125253 -163.204437 
L 280.784202 -161.509295 
L 281.443151 -159.802207 
L 282.1021 -158.084279 
L 282.761048 -156.356614 
L 283.419997 -154.620307 
L 284.078946 -152.876444 
L 284.737895 -151.1261 
L 285.396844 -149.370343 
L 286.055793 -147.610225 
L 286.714742 -145.84679 
L 287.373691 -144.081064 
L 288.03264 -142.314063 
L 288.691589 -140.546783 
L 289.350538 -138.780207 
L 290.009486 -137.015301 
L 290.668435 -135.25301 
L 291.327384 -133.494265 
L 291.986333 -131.739974 
L 292.645282 -129.991026 
L 293.304231 -128.248291 
L 293.96318 -126.512616 
L 294.622129 -124.784828 
L 295.281078 -123.06573 
L 295.940027 -121.356103 
L 296.598976 -119.656706 
L 297.257924 -117.968274 
L 297.916873 -116.291516 
L 298.575822 -114.62712 
L 299.234771 -112.975749 
L 299.89372 -111.33804 
L 300.552669 -109.714606 
L 301.211618 -108.106036 
L 301.870567 -106.512891 
L 302.529516 -104.935711 
L 303.188465 -103.375008 
L 303.847414 -101.831269 
L 304.506362 -100.304957 
L 305.165311 -98.79651 
L 305.82426 -97.306339 
L 306.483209 -95.834832 
L 307.142158 -94.382353 
L 307.801107 -92.949239 
L 308.460056 -91.535805 
L 309.119005 -90.142341 
L 309.777954 -88.769113 
L 310.436903 -87.416365 
L 311.095851 -86.084316 
L 311.7548 -84.773163 
L 312.413749 -83.483081 
L 313.072698 -82.214222 
L 313.731647 -80.966719 
L 314.390596 -79.740681 
L 315.049545 -78.536196 
L 315.708494 -77.353336 
L 316.367443 -76.192148 
L 317.026392 -75.052662 
L 317.685341 -73.934891 
L 318.344289 -72.838827 
L 319.003238 -71.764446 
L 319.662187 -70.711705 
L 320.321136 -69.680547 
L 320.980085 -68.670898 
L 321.639034 -67.682666 
L 322.297983 -66.715748 
L 322.956932 -65.770024 
L 323.615881 -64.84536 
L 324.27483 -63.941612 
L 324.933779 -63.05862 
L 325.592727 -62.196212 
L 326.251676 -61.354207 
L 326.910625 -60.53241 
L 327.569574 -59.730618 
L 328.228523 -58.948618 
L 328.887472 -58.186186 
L 329.546421 -57.44309 
L 330.20537 -56.719091 
L 330.864319 -56.013941 
L 331.523268 -55.327386 
L 332.182217 -54.659164 
L 332.841165 -54.009007 
L 333.500114 -53.376644 
L 334.159063 -52.761796 
L 334.818012 -52.16418 
L 335.476961 -51.58351 
L 336.13591 -51.019496 
L 336.794859 -50.471843 
L 337.453808 -49.940256 
L 338.112757 -49.424436 
L 338.771706 -48.924082 
L 339.430655 -48.438892 
L 340.089603 -47.968562 
L 340.748552 -47.512789 
L 341.407501 -47.071267 
L 342.06645 -46.643693 
L 342.725399 -46.229762 
L 343.384348 -45.829171 
L 344.043297 -45.441615 
L 344.702246 -45.066795 
L 345.361195 -44.704409 
L 346.020144 -44.354159 
L 346.679092 -44.015749 
L 347.338041 -43.688885 
L 347.99699 -43.373274 
L 348.655939 -43.068629 
L 349.314888 -42.774663 
L 349.973837 -42.491092 
L 350.632786 -42.217638 
L 351.291735 -41.954024 
L 351.950684 -41.699977 
L 352.609633 -41.455228 
L 353.268582 -41.219513 
L 353.92753 -40.99257 
L 354.586479 -40.774143 
L 355.245428 -40.563978 
L 355.904377 -40.361828 
L 356.563326 -40.167448 
L 357.222275 -39.980599 
L 357.881224 -39.801046 
L 358.540173 -39.628558 
L 359.199122 -39.46291 
L 359.858071 -39.30388 
L 360.51702 -39.151252 
L 361.175968 -39.004814 
L 361.834917 -38.864359 
L 362.493866 -38.729685 
L 363.152815 -38.600595 
L 363.811764 -38.476895 
L 364.470713 -38.358397 
L 365.129662 -38.244918 
L 365.788611 -38.13628 
L 366.44756 -38.032307 
L 367.106509 -37.932831 
L 367.765458 -37.837686 
L 368.424406 -37.746713 
L 369.083355 -37.659755 
L 369.742304 -37.57666 
L 370.401253 -37.497282 
L 371.060202 -37.421477 
L 371.719151 -37.349108 
L 372.3781 -37.280039 
L 373.037049 -37.21414 
L 373.695998 -37.151286 
L 374.354947 -37.091353 
L 375.013896 -37.034224 
L 375.672844 -36.979785 
L 376.331793 -36.927923 
L 376.990742 -36.878533 
L 377.649691 -36.831512 
L 378.30864 -36.786758 
L 378.967589 -36.744176 
L 379.626538 -36.703672 
L 380.285487 -36.665158 
L 380.285487 -35.990625 
L 380.285487 -35.990625 
L 379.626538 -35.990625 
L 378.967589 -35.990625 
L 378.30864 -35.990625 
L 377.649691 -35.990625 
L 376.990742 -35.990625 
L 376.331793 -35.990625 
L 375.672844 -35.990625 
L 375.013896 -35.990625 
L 374.354947 -35.990625 
L 373.695998 -35.990625 
L 373.037049 -35.990625 
L 372.3781 -35.990625 
L 371.719151 -35.990625 
L 371.060202 -35.990625 
L 370.401253 -35.990625 
L 369.742304 -35.990625 
L 369.083355 -35.990625 
L 368.424406 -35.990625 
L 367.765458 -35.990625 
L 367.106509 -35.990625 
L 366.44756 -35.990625 
L 365.788611 -35.990625 
L 365.129662 -35.990625 
L 364.470713 -35.990625 
L 363.811764 -35.990625 
L 363.152815 -35.990625 
L 362.493866 -35.990625 
L 361.834917 -35.990625 
L 361.175968 -35.990625 
L 360.51702 -35.990625 
L 359.858071 -35.990625 
L 359.199122 -35.990625 
L 358.540173 -35.990625 
L 357.881224 -35.990625 
L 357.222275 -35.990625 
L 356.563326 -35.990625 
L 355.904377 -35.990625 
L 355.245428 -35.990625 
L 354.586479 -35.990625 
L 353.92753 -35.990625 
L 353.268582 -35.990625 
L 352.609633 -35.990625 
L 351.950684 -35.990625 
L 351.291735 -35.990625 
L 350.632786 -35.990625 
L 349.973837 -35.990625 
L 349.314888 -35.990625 
L 348.655939 -35.990625 
L 347.99699 -35.990625 
L 347.338041 -35.990625 
L 346.679092 -35.990625 
L 346.020144 -35.990625 
L 345.361195 -35.990625 
L 344.702246 -35.990625 
L 344.043297 -35.990625 
L 343.384348 -35.990625 
L 342.725399 -35.990625 
L 342.06645 -35.990625 
L 341.407501 -35.990625 
L 340.748552 -35.990625 
L 340.089603 -35.990625 
L 339.430655 -35.990625 
L 338.771706 -35.990625 
L 338.112757 -35.990625 
L 337.453808 -35.990625 
L 336.794859 -35.990625 
L 336.13591 -35.990625 
L 335.476961 -35.990625 
L 334.818012 -35.990625 
L 334.159063 -35.990625 
L 333.500114 -35.990625 
L 332.841165 -35.990625 
L 332.182217 -35.990625 
L 331.523268 -35.990625 
L 330.864319 -35.990625 
L 330.20537 -35.990625 
L 329.546421 -35.990625 
L 328.887472 -35.990625 
L 328.228523 -35.990625 
L 327.569574 -35.990625 
L 326.910625 -35.990625 
L 326.251676 -35.990625 
L 325.592727 -35.990625 
L 324.933779 -35.990625 
L 324.27483 -35.990625 
L 323.615881 -35.990625 
L 322.956932 -35.990625 
L 322.297983 -35.990625 
L 321.639034 -35.990625 
L 320.980085 -35.990625 
L 320.321136 -35.990625 
L 319.662187 -35.990625 
L 319.003238 -35.990625 
L 318.344289 -35.990625 
L 317.685341 -35.990625 
L 317.026392 -35.990625 
L 316.367443 -35.990625 
L 315.708494 -35.990625 
L 315.049545 -35.990625 
L 314.390596 -35.990625 
L 313.731647 -35.990625 
L 313.072698 -35.990625 
L 312.413749 -35.990625 
L 311.7548 -35.990625 
L 311.095851 -35.990625 
L 310.436903 -35.990625 
L 309.777954 -35.990625 
L 309.119005 -35.990625 
L 308.460056 -35.990625 
L 307.801107 -35.990625 
L 307.142158 -35.990625 
L 306.483209 -35.990625 
L 305.82426 -35.990625 
L 305.165311 -35.990625 
L 304.506362 -35.990625 
L 303.847414 -35.990625 
L 303.188465 -35.990625 
L 302.529516 -35.990625 
L 301.870567 -35.990625 
L 301.211618 -35.990625 
L 300.552669 -35.990625 
L 299.89372 -35.990625 
L 299.234771 -35.990625 
L 298.575822 -35.990625 
L 297.916873 -35.990625 
L 297.257924 -35.990625 
L 296.598976 -35.990625 
L 295.940027 -35.990625 
L 295.281078 -35.990625 
L 294.622129 -35.990625 
L 293.96318 -35.990625 
L 293.304231 -35.990625 
L 292.645282 -35.990625 
L 291.986333 -35.990625 
L 291.327384 -35.990625 
L 290.668435 -35.990625 
L 290.009486 -35.990625 
L 289.350538 -35.990625 
L 288.691589 -35.990625 
L 288.03264 -35.990625 
L 287.373691 -35.990625 
L 286.714742 -35.990625 
L 286.055793 -35.990625 
L 285.396844 -35.990625 
L 284.737895 -35.990625 
L 284.078946 -35.990625 
L 283.419997 -35.990625 
L 282.761048 -35.990625 
L 282.1021 -35.990625 
L 281.443151 -35.990625 
L 280.784202 -35.990625 
L 280.125253 -35.990625 
L 279.466304 -35.990625 
L 278.807355 -35.990625 
L 278.148406 -35.990625 
L 277.489457 -35.990625 
L 276.830508 -35.990625 
L 276.171559 -35.990625 
L 275.51261 -35.990625 
L 274.853662 -35.990625 
L 274.194713 -35.990625 
L 273.535764 -35.990625 
L 272.876815 -35.990625 
L 272.217866 -35.990625 
L 271.558917 -35.990625 
L 270.899968 -35.990625 
L 270.241019 -35.990625 
L 269.58207 -35.990625 
L 268.923121 -35.990625 
L 268.264173 -35.990625 
L 267.605224 -35.990625 
L 266.946275 -35.990625 
L 266.287326 -35.990625 
L 265.628377 -35.990625 
L 264.969428 -35.990625 
L 264.310479 -35.990625 
L 263.65153 -35.990625 
L 262.992581 -35.990625 
L 262.333632 -35.990625 
L 261.674683 -35.990625 
L 261.015735 -35.990625 
L 260.356786 -35.990625 
L 259.697837 -35.990625 
L 259.038888 -35.990625 
L 258.379939 -35.990625 
L 257.72099 -35.990625 
L 257.062041 -35.990625 
L 256.403092 -35.990625 
L 255.744143 -35.990625 
L 255.085194 -35.990625 
L 254.426245 -35.990625 
L 253.767297 -35.990625 
L 253.108348 -35.990625 
L 252.449399 -35.990625 
L 251.79045 -35.990625 
L 251.131501 -35.990625 
L 250.472552 -35.990625 
L 249.813603 -35.990625 
L 249.154654 -35.990625 
L 248.495705 -35.990625 
L 247.836756 -35.990625 
L 247.177807 -35.990625 
L 246.518859 -35.990625 
L 245.85991 -35.990625 
L 245.200961 -35.990625 
L 244.542012 -35.990625 
L 243.883063 -35.990625 
L 243.224114 -35.990625 
L 242.565165 -35.990625 
L 241.906216 -35.990625 
L 241.247267 -35.990625 
L 240.588318 -35.990625 
L 239.929369 -35.990625 
L 239.270421 -35.990625 
L 238.611472 -35.990625 
L 237.952523 -35.990625 
L 237.293574 -35.990625 
L 236.634625 -35.990625 
L 235.975676 -35.990625 
L 235.316727 -35.990625 
L 234.657778 -35.990625 
L 233.998829 -35.990625 
L 233.33988 -35.990625 
L 232.680932 -35.990625 
L 232.021983 -35.990625 
L 231.363034 -35.990625 
L 230.704085 -35.990625 
L 230.045136 -35.990625 
L 229.386187 -35.990625 
L 228.727238 -35.990625 
L 228.068289 -35.990625 
L 227.40934 -35.990625 
L 226.750391 -35.990625 
L 226.091442 -35.990625 
L 225.432494 -35.990625 
L 224.773545 -35.990625 
L 224.114596 -35.990625 
L 223.455647 -35.990625 
L 222.796698 -35.990625 
L 222.137749 -35.990625 
L 221.4788 -35.990625 
L 220.819851 -35.990625 
L 220.160902 -35.990625 
L 219.501953 -35.990625 
L 218.843004 -35.990625 
L 218.184056 -35.990625 
L 217.525107 -35.990625 
L 216.866158 -35.990625 
L 216.207209 -35.990625 
L 215.54826 -35.990625 
L 214.889311 -35.990625 
L 214.230362 -35.990625 
L 213.571413 -35.990625 
L 212.912464 -35.990625 
L 212.253515 -35.990625 
L 211.594566 -35.990625 
L 210.935618 -35.990625 
L 210.276669 -35.990625 
L 209.61772 -35.990625 
L 208.958771 -35.990625 
L 208.299822 -35.990625 
L 207.640873 -35.990625 
L 206.981924 -35.990625 
L 206.322975 -35.990625 
L 205.664026 -35.990625 
L 205.005077 -35.990625 
L 204.346128 -35.990625 
L 203.68718 -35.990625 
L 203.028231 -35.990625 
L 202.369282 -35.990625 
L 201.710333 -35.990625 
L 201.051384 -35.990625 
L 200.392435 -35.990625 
L 199.733486 -35.990625 
L 199.074537 -35.990625 
L 198.415588 -35.990625 
L 197.756639 -35.990625 
L 197.097691 -35.990625 
L 196.438742 -35.990625 
L 195.779793 -35.990625 
L 195.120844 -35.990625 
L 194.461895 -35.990625 
L 193.802946 -35.990625 
L 193.143997 -35.990625 
L 192.485048 -35.990625 
L 191.826099 -35.990625 
L 191.16715 -35.990625 
L 190.508201 -35.990625 
L 189.849253 -35.990625 
L 189.190304 -35.990625 
L 188.531355 -35.990625 
L 187.872406 -35.990625 
L 187.213457 -35.990625 
L 186.554508 -35.990625 
L 185.895559 -35.990625 
L 185.23661 -35.990625 
L 184.577661 -35.990625 
L 183.918712 -35.990625 
L 183.259763 -35.990625 
L 182.600815 -35.990625 
L 181.941866 -35.990625 
L 181.282917 -35.990625 
L 180.623968 -35.990625 
L 179.965019 -35.990625 
L 179.30607 -35.990625 
L 178.647121 -35.990625 
L 177.988172 -35.990625 
L 177.329223 -35.990625 
L 176.670274 -35.990625 
L 176.011325 -35.990625 
L 175.352377 -35.990625 
L 174.693428 -35.990625 
L 174.034479 -35.990625 
L 173.37553 -35.990625 
L 172.716581 -35.990625 
L 172.057632 -35.990625 
L 171.398683 -35.990625 
L 170.739734 -35.990625 
L 170.080785 -35.990625 
L 169.421836 -35.990625 
L 168.762887 -35.990625 
L 168.103939 -35.990625 
L 167.44499 -35.990625 
L 166.786041 -35.990625 
L 166.127092 -35.990625 
L 165.468143 -35.990625 
L 164.809194 -35.990625 
L 164.150245 -35.990625 
L 163.491296 -35.990625 
L 162.832347 -35.990625 
L 162.173398 -35.990625 
L 161.51445 -35.990625 
L 160.855501 -35.990625 
L 160.196552 -35.990625 
L 159.537603 -35.990625 
L 158.878654 -35.990625 
L 158.219705 -35.990625 
L 157.560756 -35.990625 
L 156.901807 -35.990625 
L 156.242858 -35.990625 
L 155.583909 -35.990625 
L 154.92496 -35.990625 
L 154.266012 -35.990625 
L 153.607063 -35.990625 
L 152.948114 -35.990625 
L 152.289165 -35.990625 
L 151.630216 -35.990625 
L 150.971267 -35.990625 
L 150.312318 -35.990625 
L 149.653369 -35.990625 
L 148.99442 -35.990625 
L 148.335471 -35.990625 
L 147.676522 -35.990625 
L 147.017574 -35.990625 
L 146.358625 -35.990625 
L 145.699676 -35.990625 
L 145.040727 -35.990625 
L 144.381778 -35.990625 
L 143.722829 -35.990625 
L 143.06388 -35.990625 
L 142.404931 -35.990625 
L 141.745982 -35.990625 
L 141.087033 -35.990625 
L 140.428084 -35.990625 
L 139.769136 -35.990625 
L 139.110187 -35.990625 
L 138.451238 -35.990625 
L 137.792289 -35.990625 
L 137.13334 -35.990625 
L 136.474391 -35.990625 
L 135.815442 -35.990625 
L 135.156493 -35.990625 
L 134.497544 -35.990625 
L 133.838595 -35.990625 
L 133.179646 -35.990625 
L 132.520698 -35.990625 
L 131.861749 -35.990625 
L 131.2028 -35.990625 
L 130.543851 -35.990625 
L 129.884902 -35.990625 
L 129.225953 -35.990625 
L 128.567004 -35.990625 
L 127.908055 -35.990625 
L 127.249106 -35.990625 
L 126.590157 -35.990625 
L 125.931209 -35.990625 
L 125.27226 -35.990625 
L 124.613311 -35.990625 
L 123.954362 -35.990625 
L 123.295413 -35.990625 
L 122.636464 -35.990625 
L 121.977515 -35.990625 
L 121.318566 -35.990625 
L 120.659617 -35.990625 
L 120.000668 -35.990625 
L 119.341719 -35.990625 
L 118.682771 -35.990625 
L 118.023822 -35.990625 
L 117.364873 -35.990625 
L 116.705924 -35.990625 
L 116.046975 -35.990625 
L 115.388026 -35.990625 
L 114.729077 -35.990625 
L 114.070128 -35.990625 
L 113.411179 -35.990625 
L 112.75223 -35.990625 
L 112.093281 -35.990625 
L 111.434333 -35.990625 
L 110.775384 -35.990625 
L 110.116435 -35.990625 
L 109.457486 -35.990625 
L 108.798537 -35.990625 
L 108.139588 -35.990625 
L 107.480639 -35.990625 
L 106.82169 -35.990625 
L 106.162741 -35.990625 
L 105.503792 -35.990625 
L 104.844843 -35.990625 
L 104.185895 -35.990625 
L 103.526946 -35.990625 
L 102.867997 -35.990625 
L 102.209048 -35.990625 
L 101.550099 -35.990625 
L 100.89115 -35.990625 
L 100.232201 -35.990625 
L 99.573252 -35.990625 
L 98.914303 -35.990625 
L 98.255354 -35.990625 
L 97.596405 -35.990625 
L 96.937457 -35.990625 
L 96.278508 -35.990625 
L 95.619559 -35.990625 
L 94.96061 -35.990625 
L 94.301661 -35.990625 
L 93.642712 -35.990625 
L 92.983763 -35.990625 
L 92.324814 -35.990625 
L 91.665865 -35.990625 
L 91.006916 -35.990625 
L 90.347968 -35.990625 
L 89.689019 -35.990625 
L 89.03007 -35.990625 
L 88.371121 -35.990625 
L 87.712172 -35.990625 
L 87.053223 -35.990625 
L 86.394274 -35.990625 
L 85.735325 -35.990625 
L 85.076376 -35.990625 
L 84.417427 -35.990625 
L 83.758478 -35.990625 
L 83.09953 -35.990625 
L 82.440581 -35.990625 
L 81.781632 -35.990625 
L 81.122683 -35.990625 
L 80.463734 -35.990625 
L 79.804785 -35.990625 
L 79.145836 -35.990625 
L 78.486887 -35.990625 
L 77.827938 -35.990625 
L 77.168989 -35.990625 
L 76.51004 -35.990625 
L 75.851092 -35.990625 
L 75.192143 -35.990625 
L 74.533194 -35.990625 
L 73.874245 -35.990625 
L 73.215296 -35.990625 
L 72.556347 -35.990625 
L 71.897398 -35.990625 
L 71.238449 -35.990625 
L 70.5795 -35.990625 
L 69.920551 -35.990625 
L 69.261602 -35.990625 
L 68.602654 -35.990625 
L 67.943705 -35.990625 
L 67.284756 -35.990625 
L 66.625807 -35.990625 
L 65.966858 -35.990625 
L 65.307909 -35.990625 
L 64.64896 -35.990625 
L 63.990011 -35.990625 
L 63.331062 -35.990625 
L 62.672113 -35.990625 
L 62.013164 -35.990625 
L 61.354216 -35.990625 
L 60.695267 -35.990625 
L 60.036318 -35.990625 
L 59.377369 -35.990625 
L 58.71842 -35.990625 
L 58.059471 -35.990625 
L 57.400522 -35.990625 
L 56.741573 -35.990625 
L 56.082624 -35.990625 
L 55.423675 -35.990625 
L 54.764727 -35.990625 
L 54.105778 -35.990625 
L 53.446829 -35.990625 
L 52.78788 -35.990625 
L 52.128931 -35.990625 
L 51.469982 -35.990625 
z
" style="stroke: #5b7fa5; stroke-opacity: 0.15"/>
    </defs>
    <g clip-path="url(#p3c5dbe4fd1)">
     <use xlink:href="#m52d53441a2" x="0" y="232.130625" style="fill: #5b7fa5; fill-opacity: 0.15; stroke: #5b7fa5; stroke-opacity: 0.15"/>
    </g>
   </g>
   <g id="FillBetweenPolyCollection_2">
    <defs>
     <path id="m1c5166eb90" d="M 51.469982 -35.990625 
L 51.469982 -36.665158 
L 52.128931 -36.703672 
L 52.78788 -36.744176 
L 53.446829 -36.786758 
L 54.105778 -36.831512 
L 54.764727 -36.878533 
L 55.423675 -36.927923 
L 56.082624 -36.979785 
L 56.741573 -37.034224 
L 57.400522 -37.091353 
L 58.059471 -37.151286 
L 58.71842 -37.21414 
L 59.377369 -37.280039 
L 60.036318 -37.349108 
L 60.695267 -37.421477 
L 61.354216 -37.497282 
L 62.013164 -37.57666 
L 62.672113 -37.659755 
L 63.331062 -37.746713 
L 63.990011 -37.837686 
L 64.64896 -37.932831 
L 65.307909 -38.032307 
L 65.966858 -38.13628 
L 66.625807 -38.244918 
L 67.284756 -38.358397 
L 67.943705 -38.476895 
L 68.602654 -38.600595 
L 69.261602 -38.729685 
L 69.920551 -38.864359 
L 70.5795 -39.004814 
L 71.238449 -39.151252 
L 71.897398 -39.30388 
L 72.556347 -39.46291 
L 73.215296 -39.628558 
L 73.874245 -39.801046 
L 74.533194 -39.980599 
L 75.192143 -40.167448 
L 75.851092 -40.361828 
L 76.51004 -40.563978 
L 77.168989 -40.774143 
L 77.827938 -40.99257 
L 78.486887 -41.219513 
L 79.145836 -41.455228 
L 79.804785 -41.699977 
L 80.463734 -41.954024 
L 81.122683 -42.217638 
L 81.781632 -42.491092 
L 82.440581 -42.774663 
L 83.09953 -43.068629 
L 83.758478 -43.373274 
L 84.417427 -43.688885 
L 85.076376 -44.015749 
L 85.735325 -44.354159 
L 86.394274 -44.704409 
L 87.053223 -45.066795 
L 87.712172 -45.441615 
L 88.371121 -45.829171 
L 89.03007 -46.229762 
L 89.689019 -46.643693 
L 90.347968 -47.071267 
L 91.006916 -47.512789 
L 91.665865 -47.968562 
L 92.324814 -48.438892 
L 92.983763 -48.924082 
L 93.642712 -49.424436 
L 94.301661 -49.940256 
L 94.96061 -50.471843 
L 95.619559 -51.019496 
L 96.278508 -51.58351 
L 96.937457 -52.16418 
L 97.596405 -52.761796 
L 98.255354 -53.376644 
L 98.914303 -54.009007 
L 99.573252 -54.659164 
L 100.232201 -55.327386 
L 100.89115 -56.013941 
L 101.550099 -56.719091 
L 102.209048 -57.44309 
L 102.867997 -58.186186 
L 103.526946 -58.948618 
L 104.185895 -59.730618 
L 104.844843 -60.53241 
L 105.503792 -61.354207 
L 106.162741 -62.196212 
L 106.82169 -63.05862 
L 107.480639 -63.941612 
L 108.139588 -64.84536 
L 108.798537 -65.770024 
L 109.457486 -66.715748 
L 110.116435 -67.682666 
L 110.775384 -68.670898 
L 111.434333 -69.680547 
L 112.093281 -70.711705 
L 112.75223 -71.764446 
L 113.411179 -72.838827 
L 114.070128 -73.934891 
L 114.729077 -75.052662 
L 115.388026 -76.192148 
L 116.046975 -77.353336 
L 116.705924 -78.536196 
L 117.364873 -79.740681 
L 118.023822 -80.966719 
L 118.682771 -82.214222 
L 119.341719 -83.483081 
L 120.000668 -84.773163 
L 120.659617 -86.084316 
L 121.318566 -87.416365 
L 121.977515 -88.769113 
L 122.636464 -90.142341 
L 123.295413 -91.535805 
L 123.954362 -92.949239 
L 124.613311 -94.382353 
L 125.27226 -95.834832 
L 125.931209 -97.306339 
L 126.590157 -98.79651 
L 127.249106 -100.304957 
L 127.908055 -101.831269 
L 128.567004 -103.375008 
L 129.225953 -104.935711 
L 129.884902 -106.512891 
L 130.543851 -108.106036 
L 131.2028 -109.714606 
L 131.861749 -111.33804 
L 132.520698 -112.975749 
L 133.179646 -114.62712 
L 133.838595 -116.291516 
L 134.497544 -117.968274 
L 135.156493 -119.656706 
L 135.815442 -121.356103 
L 136.474391 -123.06573 
L 137.13334 -124.784828 
L 137.792289 -126.512616 
L 138.451238 -128.248291 
L 139.110187 -129.991026 
L 139.769136 -131.739974 
L 140.428084 -133.494265 
L 141.087033 -135.25301 
L 141.745982 -137.015301 
L 142.404931 -138.780207 
L 143.06388 -140.546783 
L 143.722829 -142.314063 
L 144.381778 -144.081064 
L 145.040727 -145.84679 
L 145.699676 -147.610225 
L 146.358625 -149.370343 
L 147.017574 -151.1261 
L 147.676522 -152.876444 
L 148.335471 -154.620307 
L 148.99442 -156.356614 
L 149.653369 -158.084279 
L 150.312318 -159.802207 
L 150.971267 -161.509295 
L 151.630216 -163.204437 
L 152.289165 -164.886519 
L 152.948114 -166.554424 
L 153.607063 -168.207032 
L 154.266012 -169.843222 
L 154.92496 -171.461873 
L 155.583909 -173.061865 
L 156.242858 -174.64208 
L 156.901807 -176.201402 
L 157.560756 -177.738723 
L 158.219705 -179.25294 
L 158.878654 -180.742956 
L 159.537603 -182.207685 
L 160.196552 -183.64605 
L 160.855501 -185.056985 
L 161.51445 -186.439437 
L 162.173398 -187.792368 
L 162.832347 -189.114755 
L 163.491296 -190.40559 
L 164.150245 -191.663884 
L 164.809194 -192.888668 
L 165.468143 -194.078993 
L 166.127092 -195.23393 
L 166.786041 -196.352575 
L 167.44499 -197.434047 
L 168.103939 -198.477489 
L 168.762887 -199.482073 
L 169.421836 -200.446995 
L 170.080785 -201.371483 
L 170.739734 -202.254791 
L 171.398683 -203.096206 
L 172.057632 -203.895045 
L 172.716581 -204.650659 
L 173.37553 -205.36243 
L 174.034479 -206.029776 
L 174.693428 -206.652148 
L 175.352377 -207.229034 
L 176.011325 -207.759959 
L 176.670274 -208.244483 
L 177.329223 -208.682205 
L 177.988172 -209.072761 
L 178.647121 -209.415826 
L 179.30607 -209.711116 
L 179.965019 -209.958383 
L 180.623968 -210.157421 
L 181.282917 -210.308065 
L 181.941866 -210.410188 
L 182.600815 -210.463705 
L 183.259763 -210.468571 
L 183.918712 -210.424782 
L 184.577661 -210.332375 
L 185.23661 -210.191426 
L 185.895559 -210.002055 
L 186.554508 -209.764418 
L 187.213457 -209.478715 
L 187.872406 -209.145183 
L 188.531355 -208.7641 
L 189.190304 -208.335784 
L 189.849253 -207.860589 
L 190.508201 -207.338911 
L 191.16715 -206.77118 
L 191.826099 -206.157865 
L 192.485048 -205.499471 
L 193.143997 -204.79654 
L 193.802946 -204.049646 
L 194.461895 -203.259401 
L 195.120844 -202.426448 
L 195.779793 -201.551462 
L 196.438742 -200.635152 
L 197.097691 -199.678255 
L 197.756639 -198.681541 
L 198.415588 -197.645805 
L 199.074537 -196.571871 
L 199.733486 -195.460591 
L 200.392435 -194.312841 
L 201.051384 -193.12952 
L 201.710333 -191.911552 
L 202.369282 -190.659883 
L 203.028231 -189.375478 
L 203.68718 -188.059322 
L 204.346128 -186.712418 
L 205.005077 -185.335787 
L 205.664026 -183.930465 
L 206.322975 -182.497502 
L 206.981924 -181.03796 
L 207.640873 -179.552914 
L 208.299822 -178.04345 
L 208.958771 -176.510662 
L 209.61772 -174.955651 
L 210.276669 -173.379526 
L 210.935618 -171.7834 
L 211.594566 -170.168391 
L 212.253515 -168.535619 
L 212.912464 -166.886205 
L 213.571413 -165.22127 
L 214.230362 -163.541934 
L 214.889311 -161.849315 
L 215.54826 -160.144527 
L 216.207209 -158.428679 
L 216.866158 -156.702874 
L 217.525107 -154.968208 
L 218.184056 -153.225769 
L 218.843004 -151.476636 
L 219.501953 -149.721876 
L 220.160902 -147.962547 
L 220.819851 -146.199693 
L 221.4788 -144.434344 
L 222.137749 -142.667517 
L 222.796698 -140.900214 
L 223.455647 -139.13342 
L 224.114596 -137.368103 
L 224.773545 -135.605214 
L 225.432494 -133.845687 
L 226.091442 -132.090433 
L 226.750391 -130.340346 
L 227.40934 -128.5963 
L 228.068289 -126.859147 
L 228.727238 -125.129716 
L 229.386187 -123.408817 
L 230.045136 -121.697234 
L 230.704085 -119.995732 
L 231.363034 -118.305049 
L 232.021983 -116.6259 
L 232.680932 -114.958978 
L 233.33988 -113.304951 
L 233.998829 -111.664459 
L 234.657778 -110.038123 
L 235.316727 -108.426533 
L 235.975676 -106.83026 
L 236.634625 -105.249845 
L 237.293574 -103.685807 
L 237.952523 -102.138637 
L 238.611472 -100.608804 
L 239.270421 -99.09675 
L 239.929369 -97.602892 
L 240.588318 -96.127623 
L 241.247267 -94.67131 
L 241.906216 -93.234297 
L 242.565165 -91.816903 
L 243.224114 -90.419423 
L 243.883063 -89.042128 
L 244.542012 -87.685265 
L 245.200961 -86.34906 
L 245.85991 -85.033713 
L 246.518859 -83.739404 
L 247.177807 -82.466289 
L 247.836756 -81.214506 
L 248.495705 -79.984167 
L 249.154654 -78.775365 
L 249.813603 -77.588175 
L 250.472552 -76.42265 
L 251.131501 -75.278822 
L 251.79045 -74.156708 
L 252.449399 -73.056304 
L 253.108348 -71.977589 
L 253.767297 -70.920525 
L 254.426245 -69.885056 
L 255.085194 -68.871111 
L 255.744143 -67.878604 
L 256.403092 -66.907432 
L 257.062041 -65.957479 
L 257.72099 -65.028615 
L 258.379939 -64.120696 
L 259.038888 -63.233566 
L 259.697837 -62.367055 
L 260.356786 -61.520985 
L 261.015735 -60.695162 
L 261.674683 -59.889387 
L 262.333632 -59.103445 
L 262.992581 -58.337118 
L 263.65153 -57.590174 
L 264.310479 -56.862375 
L 264.969428 -56.153475 
L 265.628377 -55.463222 
L 266.287326 -54.791354 
L 266.946275 -54.137606 
L 267.605224 -53.501707 
L 268.264173 -52.883378 
L 268.923121 -52.282338 
L 269.58207 -51.698303 
L 270.241019 -51.13098 
L 270.899968 -50.580079 
L 271.558917 -50.045303 
L 272.217866 -49.526353 
L 272.876815 -49.02293 
L 273.535764 -48.534731 
L 274.194713 -48.061454 
L 274.853662 -47.602793 
L 275.51261 -47.158446 
L 276.171559 -46.728107 
L 276.830508 -46.311472 
L 277.489457 -45.908236 
L 278.148406 -45.518098 
L 278.807355 -45.140754 
L 279.466304 -44.775905 
L 280.125253 -44.423252 
L 280.784202 -44.082498 
L 281.443151 -43.753348 
L 282.1021 -43.43551 
L 282.761048 -43.128695 
L 283.419997 -42.832615 
L 284.078946 -42.546988 
L 284.737895 -42.271533 
L 285.396844 -42.005972 
L 286.055793 -41.750034 
L 286.714742 -41.503447 
L 287.373691 -41.265946 
L 288.03264 -41.037269 
L 288.691589 -40.817159 
L 289.350538 -40.605362 
L 290.009486 -40.401629 
L 290.668435 -40.205714 
L 291.327384 -40.017378 
L 291.986333 -39.836384 
L 292.645282 -39.662501 
L 293.304231 -39.495503 
L 293.96318 -39.335167 
L 294.622129 -39.181275 
L 295.281078 -39.033616 
L 295.940027 -38.891981 
L 296.598976 -38.756167 
L 297.257924 -38.625976 
L 297.916873 -38.501213 
L 298.575822 -38.381689 
L 299.234771 -38.267221 
L 299.89372 -38.157629 
L 300.552669 -38.052737 
L 301.211618 -37.952375 
L 301.870567 -37.856377 
L 302.529516 -37.764581 
L 303.188465 -37.676832 
L 303.847414 -37.592977 
L 304.506362 -37.512867 
L 305.165311 -37.436359 
L 305.82426 -37.363313 
L 306.483209 -37.293595 
L 307.142158 -37.227072 
L 307.801107 -37.163619 
L 308.460056 -37.103112 
L 309.119005 -37.045431 
L 309.777954 -36.990463 
L 310.436903 -36.938095 
L 311.095851 -36.888219 
L 311.7548 -36.840731 
L 312.413749 -36.795532 
L 313.072698 -36.752523 
L 313.731647 -36.711611 
L 314.390596 -36.672706 
L 315.049545 -36.63572 
L 315.708494 -36.60057 
L 316.367443 -36.567174 
L 317.026392 -36.535454 
L 317.685341 -36.505336 
L 318.344289 -36.476748 
L 319.003238 -36.449619 
L 319.662187 -36.423884 
L 320.321136 -36.399477 
L 320.980085 -36.376338 
L 321.639034 -36.354406 
L 322.297983 -36.333626 
L 322.956932 -36.313943 
L 323.615881 -36.295305 
L 324.27483 -36.277661 
L 324.933779 -36.260963 
L 325.592727 -36.245165 
L 326.251676 -36.230224 
L 326.910625 -36.216097 
L 327.569574 -36.202744 
L 328.228523 -36.190126 
L 328.887472 -36.178206 
L 329.546421 -36.166949 
L 330.20537 -36.156322 
L 330.864319 -36.146292 
L 331.523268 -36.136828 
L 332.182217 -36.127901 
L 332.841165 -36.119483 
L 333.500114 -36.111548 
L 334.159063 -36.104069 
L 334.818012 -36.097024 
L 335.476961 -36.090388 
L 336.13591 -36.08414 
L 336.794859 -36.078259 
L 337.453808 -36.072725 
L 338.112757 -36.067519 
L 338.771706 -36.062623 
L 339.430655 -36.05802 
L 340.089603 -36.053693 
L 340.748552 -36.049628 
L 341.407501 -36.04581 
L 342.06645 -36.042224 
L 342.725399 -36.038858 
L 343.384348 -36.035698 
L 344.043297 -36.032734 
L 344.702246 -36.029954 
L 345.361195 -36.027347 
L 346.020144 -36.024904 
L 346.679092 -36.022614 
L 347.338041 -36.020469 
L 347.99699 -36.01846 
L 348.655939 -36.016579 
L 349.314888 -36.014818 
L 349.973837 -36.01317 
L 350.632786 -36.011629 
L 351.291735 -36.010188 
L 351.950684 -36.00884 
L 352.609633 -36.007581 
L 353.268582 -36.006404 
L 353.92753 -36.005305 
L 354.586479 -36.004278 
L 355.245428 -36.00332 
L 355.904377 -36.002426 
L 356.563326 -36.001592 
L 357.222275 -36.000814 
L 357.881224 -36.000088 
L 358.540173 -35.999412 
L 359.199122 -35.998781 
L 359.858071 -35.998194 
L 360.51702 -35.997647 
L 361.175968 -35.997138 
L 361.834917 -35.996664 
L 362.493866 -35.996223 
L 363.152815 -35.995813 
L 363.811764 -35.995431 
L 364.470713 -35.995077 
L 365.129662 -35.994747 
L 365.788611 -35.994441 
L 366.44756 -35.994156 
L 367.106509 -35.993892 
L 367.765458 -35.993646 
L 368.424406 -35.993419 
L 369.083355 -35.993208 
L 369.742304 -35.993012 
L 370.401253 -35.99283 
L 371.060202 -35.992662 
L 371.719151 -35.992505 
L 372.3781 -35.992361 
L 373.037049 -35.992227 
L 373.695998 -35.992103 
L 374.354947 -35.991988 
L 375.013896 -35.991882 
L 375.672844 -35.991784 
L 376.331793 -35.991693 
L 376.990742 -35.991609 
L 377.649691 -35.991531 
L 378.30864 -35.991459 
L 378.967589 -35.991393 
L 379.626538 -35.991332 
L 380.285487 -35.991275 
L 380.285487 -35.990625 
L 380.285487 -35.990625 
L 379.626538 -35.990625 
L 378.967589 -35.990625 
L 378.30864 -35.990625 
L 377.649691 -35.990625 
L 376.990742 -35.990625 
L 376.331793 -35.990625 
L 375.672844 -35.990625 
L 375.013896 -35.990625 
L 374.354947 -35.990625 
L 373.695998 -35.990625 
L 373.037049 -35.990625 
L 372.3781 -35.990625 
L 371.719151 -35.990625 
L 371.060202 -35.990625 
L 370.401253 -35.990625 
L 369.742304 -35.990625 
L 369.083355 -35.990625 
L 368.424406 -35.990625 
L 367.765458 -35.990625 
L 367.106509 -35.990625 
L 366.44756 -35.990625 
L 365.788611 -35.990625 
L 365.129662 -35.990625 
L 364.470713 -35.990625 
L 363.811764 -35.990625 
L 363.152815 -35.990625 
L 362.493866 -35.990625 
L 361.834917 -35.990625 
L 361.175968 -35.990625 
L 360.51702 -35.990625 
L 359.858071 -35.990625 
L 359.199122 -35.990625 
L 358.540173 -35.990625 
L 357.881224 -35.990625 
L 357.222275 -35.990625 
L 356.563326 -35.990625 
L 355.904377 -35.990625 
L 355.245428 -35.990625 
L 354.586479 -35.990625 
L 353.92753 -35.990625 
L 353.268582 -35.990625 
L 352.609633 -35.990625 
L 351.950684 -35.990625 
L 351.291735 -35.990625 
L 350.632786 -35.990625 
L 349.973837 -35.990625 
L 349.314888 -35.990625 
L 348.655939 -35.990625 
L 347.99699 -35.990625 
L 347.338041 -35.990625 
L 346.679092 -35.990625 
L 346.020144 -35.990625 
L 345.361195 -35.990625 
L 344.702246 -35.990625 
L 344.043297 -35.990625 
L 343.384348 -35.990625 
L 342.725399 -35.990625 
L 342.06645 -35.990625 
L 341.407501 -35.990625 
L 340.748552 -35.990625 
L 340.089603 -35.990625 
L 339.430655 -35.990625 
L 338.771706 -35.990625 
L 338.112757 -35.990625 
L 337.453808 -35.990625 
L 336.794859 -35.990625 
L 336.13591 -35.990625 
L 335.476961 -35.990625 
L 334.818012 -35.990625 
L 334.159063 -35.990625 
L 333.500114 -35.990625 
L 332.841165 -35.990625 
L 332.182217 -35.990625 
L 331.523268 -35.990625 
L 330.864319 -35.990625 
L 330.20537 -35.990625 
L 329.546421 -35.990625 
L 328.887472 -35.990625 
L 328.228523 -35.990625 
L 327.569574 -35.990625 
L 326.910625 -35.990625 
L 326.251676 -35.990625 
L 325.592727 -35.990625 
L 324.933779 -35.990625 
L 324.27483 -35.990625 
L 323.615881 -35.990625 
L 322.956932 -35.990625 
L 322.297983 -35.990625 
L 321.639034 -35.990625 
L 320.980085 -35.990625 
L 320.321136 -35.990625 
L 319.662187 -35.990625 
L 319.003238 -35.990625 
L 318.344289 -35.990625 
L 317.685341 -35.990625 
L 317.026392 -35.990625 
L 316.367443 -35.990625 
L 315.708494 -35.990625 
L 315.049545 -35.990625 
L 314.390596 -35.990625 
L 313.731647 -35.990625 
L 313.072698 -35.990625 
L 312.413749 -35.990625 
L 311.7548 -35.990625 
L 311.095851 -35.990625 
L 310.436903 -35.990625 
L 309.777954 -35.990625 
L 309.119005 -35.990625 
L 308.460056 -35.990625 
L 307.801107 -35.990625 
L 307.142158 -35.990625 
L 306.483209 -35.990625 
L 305.82426 -35.990625 
L 305.165311 -35.990625 
L 304.506362 -35.990625 
L 303.847414 -35.990625 
L 303.188465 -35.990625 
L 302.529516 -35.990625 
L 301.870567 -35.990625 
L 301.211618 -35.990625 
L 300.552669 -35.990625 
L 299.89372 -35.990625 
L 299.234771 -35.990625 
L 298.575822 -35.990625 
L 297.916873 -35.990625 
L 297.257924 -35.990625 
L 296.598976 -35.990625 
L 295.940027 -35.990625 
L 295.281078 -35.990625 
L 294.622129 -35.990625 
L 293.96318 -35.990625 
L 293.304231 -35.990625 
L 292.645282 -35.990625 
L 291.986333 -35.990625 
L 291.327384 -35.990625 
L 290.668435 -35.990625 
L 290.009486 -35.990625 
L 289.350538 -35.990625 
L 288.691589 -35.990625 
L 288.03264 -35.990625 
L 287.373691 -35.990625 
L 286.714742 -35.990625 
L 286.055793 -35.990625 
L 285.396844 -35.990625 
L 284.737895 -35.990625 
L 284.078946 -35.990625 
L 283.419997 -35.990625 
L 282.761048 -35.990625 
L 282.1021 -35.990625 
L 281.443151 -35.990625 
L 280.784202 -35.990625 
L 280.125253 -35.990625 
L 279.466304 -35.990625 
L 278.807355 -35.990625 
L 278.148406 -35.990625 
L 277.489457 -35.990625 
L 276.830508 -35.990625 
L 276.171559 -35.990625 
L 275.51261 -35.990625 
L 274.853662 -35.990625 
L 274.194713 -35.990625 
L 273.535764 -35.990625 
L 272.876815 -35.990625 
L 272.217866 -35.990625 
L 271.558917 -35.990625 
L 270.899968 -35.990625 
L 270.241019 -35.990625 
L 269.58207 -35.990625 
L 268.923121 -35.990625 
L 268.264173 -35.990625 
L 267.605224 -35.990625 
L 266.946275 -35.990625 
L 266.287326 -35.990625 
L 265.628377 -35.990625 
L 264.969428 -35.990625 
L 264.310479 -35.990625 
L 263.65153 -35.990625 
L 262.992581 -35.990625 
L 262.333632 -35.990625 
L 261.674683 -35.990625 
L 261.015735 -35.990625 
L 260.356786 -35.990625 
L 259.697837 -35.990625 
L 259.038888 -35.990625 
L 258.379939 -35.990625 
L 257.72099 -35.990625 
L 257.062041 -35.990625 
L 256.403092 -35.990625 
L 255.744143 -35.990625 
L 255.085194 -35.990625 
L 254.426245 -35.990625 
L 253.767297 -35.990625 
L 253.108348 -35.990625 
L 252.449399 -35.990625 
L 251.79045 -35.990625 
L 251.131501 -35.990625 
L 250.472552 -35.990625 
L 249.813603 -35.990625 
L 249.154654 -35.990625 
L 248.495705 -35.990625 
L 247.836756 -35.990625 
L 247.177807 -35.990625 
L 246.518859 -35.990625 
L 245.85991 -35.990625 
L 245.200961 -35.990625 
L 244.542012 -35.990625 
L 243.883063 -35.990625 
L 243.224114 -35.990625 
L 242.565165 -35.990625 
L 241.906216 -35.990625 
L 241.247267 -35.990625 
L 240.588318 -35.990625 
L 239.929369 -35.990625 
L 239.270421 -35.990625 
L 238.611472 -35.990625 
L 237.952523 -35.990625 
L 237.293574 -35.990625 
L 236.634625 -35.990625 
L 235.975676 -35.990625 
L 235.316727 -35.990625 
L 234.657778 -35.990625 
L 233.998829 -35.990625 
L 233.33988 -35.990625 
L 232.680932 -35.990625 
L 232.021983 -35.990625 
L 231.363034 -35.990625 
L 230.704085 -35.990625 
L 230.045136 -35.990625 
L 229.386187 -35.990625 
L 228.727238 -35.990625 
L 228.068289 -35.990625 
L 227.40934 -35.990625 
L 226.750391 -35.990625 
L 226.091442 -35.990625 
L 225.432494 -35.990625 
L 224.773545 -35.990625 
L 224.114596 -35.990625 
L 223.455647 -35.990625 
L 222.796698 -35.990625 
L 222.137749 -35.990625 
L 221.4788 -35.990625 
L 220.819851 -35.990625 
L 220.160902 -35.990625 
L 219.501953 -35.990625 
L 218.843004 -35.990625 
L 218.184056 -35.990625 
L 217.525107 -35.990625 
L 216.866158 -35.990625 
L 216.207209 -35.990625 
L 215.54826 -35.990625 
L 214.889311 -35.990625 
L 214.230362 -35.990625 
L 213.571413 -35.990625 
L 212.912464 -35.990625 
L 212.253515 -35.990625 
L 211.594566 -35.990625 
L 210.935618 -35.990625 
L 210.276669 -35.990625 
L 209.61772 -35.990625 
L 208.958771 -35.990625 
L 208.299822 -35.990625 
L 207.640873 -35.990625 
L 206.981924 -35.990625 
L 206.322975 -35.990625 
L 205.664026 -35.990625 
L 205.005077 -35.990625 
L 204.346128 -35.990625 
L 203.68718 -35.990625 
L 203.028231 -35.990625 
L 202.369282 -35.990625 
L 201.710333 -35.990625 
L 201.051384 -35.990625 
L 200.392435 -35.990625 
L 199.733486 -35.990625 
L 199.074537 -35.990625 
L 198.415588 -35.990625 
L 197.756639 -35.990625 
L 197.097691 -35.990625 
L 196.438742 -35.990625 
L 195.779793 -35.990625 
L 195.120844 -35.990625 
L 194.461895 -35.990625 
L 193.802946 -35.990625 
L 193.143997 -35.990625 
L 192.485048 -35.990625 
L 191.826099 -35.990625 
L 191.16715 -35.990625 
L 190.508201 -35.990625 
L 189.849253 -35.990625 
L 189.190304 -35.990625 
L 188.531355 -35.990625 
L 187.872406 -35.990625 
L 187.213457 -35.990625 
L 186.554508 -35.990625 
L 185.895559 -35.990625 
L 185.23661 -35.990625 
L 184.577661 -35.990625 
L 183.918712 -35.990625 
L 183.259763 -35.990625 
L 182.600815 -35.990625 
L 181.941866 -35.990625 
L 181.282917 -35.990625 
L 180.623968 -35.990625 
L 179.965019 -35.990625 
L 179.30607 -35.990625 
L 178.647121 -35.990625 
L 177.988172 -35.990625 
L 177.329223 -35.990625 
L 176.670274 -35.990625 
L 176.011325 -35.990625 
L 175.352377 -35.990625 
L 174.693428 -35.990625 
L 174.034479 -35.990625 
L 173.37553 -35.990625 
L 172.716581 -35.990625 
L 172.057632 -35.990625 
L 171.398683 -35.990625 
L 170.739734 -35.990625 
L 170.080785 -35.990625 
L 169.421836 -35.990625 
L 168.762887 -35.990625 
L 168.103939 -35.990625 
L 167.44499 -35.990625 
L 166.786041 -35.990625 
L 166.127092 -35.990625 
L 165.468143 -35.990625 
L 164.809194 -35.990625 
L 164.150245 -35.990625 
L 163.491296 -35.990625 
L 162.832347 -35.990625 
L 162.173398 -35.990625 
L 161.51445 -35.990625 
L 160.855501 -35.990625 
L 160.196552 -35.990625 
L 159.537603 -35.990625 
L 158.878654 -35.990625 
L 158.219705 -35.990625 
L 157.560756 -35.990625 
L 156.901807 -35.990625 
L 156.242858 -35.990625 
L 155.583909 -35.990625 
L 154.92496 -35.990625 
L 154.266012 -35.990625 
L 153.607063 -35.990625 
L 152.948114 -35.990625 
L 152.289165 -35.990625 
L 151.630216 -35.990625 
L 150.971267 -35.990625 
L 150.312318 -35.990625 
L 149.653369 -35.990625 
L 148.99442 -35.990625 
L 148.335471 -35.990625 
L 147.676522 -35.990625 
L 147.017574 -35.990625 
L 146.358625 -35.990625 
L 145.699676 -35.990625 
L 145.040727 -35.990625 
L 144.381778 -35.990625 
L 143.722829 -35.990625 
L 143.06388 -35.990625 
L 142.404931 -35.990625 
L 141.745982 -35.990625 
L 141.087033 -35.990625 
L 140.428084 -35.990625 
L 139.769136 -35.990625 
L 139.110187 -35.990625 
L 138.451238 -35.990625 
L 137.792289 -35.990625 
L 137.13334 -35.990625 
L 136.474391 -35.990625 
L 135.815442 -35.990625 
L 135.156493 -35.990625 
L 134.497544 -35.990625 
L 133.838595 -35.990625 
L 133.179646 -35.990625 
L 132.520698 -35.990625 
L 131.861749 -35.990625 
L 131.2028 -35.990625 
L 130.543851 -35.990625 
L 129.884902 -35.990625 
L 129.225953 -35.990625 
L 128.567004 -35.990625 
L 127.908055 -35.990625 
L 127.249106 -35.990625 
L 126.590157 -35.990625 
L 125.931209 -35.990625 
L 125.27226 -35.990625 
L 124.613311 -35.990625 
L 123.954362 -35.990625 
L 123.295413 -35.990625 
L 122.636464 -35.990625 
L 121.977515 -35.990625 
L 121.318566 -35.990625 
L 120.659617 -35.990625 
L 120.000668 -35.990625 
L 119.341719 -35.990625 
L 118.682771 -35.990625 
L 118.023822 -35.990625 
L 117.364873 -35.990625 
L 116.705924 -35.990625 
L 116.046975 -35.990625 
L 115.388026 -35.990625 
L 114.729077 -35.990625 
L 114.070128 -35.990625 
L 113.411179 -35.990625 
L 112.75223 -35.990625 
L 112.093281 -35.990625 
L 111.434333 -35.990625 
L 110.775384 -35.990625 
L 110.116435 -35.990625 
L 109.457486 -35.990625 
L 108.798537 -35.990625 
L 108.139588 -35.990625 
L 107.480639 -35.990625 
L 106.82169 -35.990625 
L 106.162741 -35.990625 
L 105.503792 -35.990625 
L 104.844843 -35.990625 
L 104.185895 -35.990625 
L 103.526946 -35.990625 
L 102.867997 -35.990625 
L 102.209048 -35.990625 
L 101.550099 -35.990625 
L 100.89115 -35.990625 
L 100.232201 -35.990625 
L 99.573252 -35.990625 
L 98.914303 -35.990625 
L 98.255354 -35.990625 
L 97.596405 -35.990625 
L 96.937457 -35.990625 
L 96.278508 -35.990625 
L 95.619559 -35.990625 
L 94.96061 -35.990625 
L 94.301661 -35.990625 
L 93.642712 -35.990625 
L 92.983763 -35.990625 
L 92.324814 -35.990625 
L 91.665865 -35.990625 
L 91.006916 -35.990625 
L 90.347968 -35.990625 
L 89.689019 -35.990625 
L 89.03007 -35.990625 
L 88.371121 -35.990625 
L 87.712172 -35.990625 
L 87.053223 -35.990625 
L 86.394274 -35.990625 
L 85.735325 -35.990625 
L 85.076376 -35.990625 
L 84.417427 -35.990625 
L 83.758478 -35.990625 
L 83.09953 -35.990625 
L 82.440581 -35.990625 
L 81.781632 -35.990625 
L 81.122683 -35.990625 
L 80.463734 -35.990625 
L 79.804785 -35.990625 
L 79.145836 -35.990625 
L 78.486887 -35.990625 
L 77.827938 -35.990625 
L 77.168989 -35.990625 
L 76.51004 -35.990625 
L 75.851092 -35.990625 
L 75.192143 -35.990625 
L 74.533194 -35.990625 
L 73.874245 -35.990625 
L 73.215296 -35.990625 
L 72.556347 -35.990625 
L 71.897398 -35.990625 
L 71.238449 -35.990625 
L 70.5795 -35.990625 
L 69.920551 -35.990625 
L 69.261602 -35.990625 
L 68.602654 -35.990625 
L 67.943705 -35.990625 
L 67.284756 -35.990625 
L 66.625807 -35.990625 
L 65.966858 -35.990625 
L 65.307909 -35.990625 
L 64.64896 -35.990625 
L 63.990011 -35.990625 
L 63.331062 -35.990625 
L 62.672113 -35.990625 
L 62.013164 -35.990625 
L 61.354216 -35.990625 
L 60.695267 -35.990625 
L 60.036318 -35.990625 
L 59.377369 -35.990625 
L 58.71842 -35.990625 
L 58.059471 -35.990625 
L 57.400522 -35.990625 
L 56.741573 -35.990625 
L 56.082624 -35.990625 
L 55.423675 -35.990625 
L 54.764727 -35.990625 
L 54.105778 -35.990625 
L 53.446829 -35.990625 
L 52.78788 -35.990625 
L 52.128931 -35.990625 
L 51.469982 -35.990625 
z
" style="stroke: #c0503f; stroke-opacity: 0.15"/>
    </defs>
    <g clip-path="url(#p3c5dbe4fd1)">
     <use xlink:href="#m1c5166eb90" x="0" y="232.130625" style="fill: #c0503f; fill-opacity: 0.15; stroke: #c0503f; stroke-opacity: 0.15"/>
    </g>
   </g>
   <g id="matplotlib.axis_1">
    <g id="xtick_1">
     <g id="line2d_1">
      <defs>
       <path id="m9b57804d33" d="M 0 0 
L 0 3 
" style="stroke: #6f7f86; stroke-width: 0.8"/>
      </defs>
      <g>
       <use xlink:href="#m9b57804d33" x="51.469982" y="196.14" style="fill: #6f7f86; stroke: #6f7f86; stroke-width: 0.8"/>
      </g>
     </g>
     <g id="text_1">
      <text style="font-size: 8.5px; font-family: 'Arial'; text-anchor: middle; fill: #6f7f86" x="51.469982" y="208.724141" transform="rotate(-0 51.469982 208.724141)">−2</text>
     </g>
    </g>
    <g id="xtick_2">
     <g id="line2d_2">
      <g>
       <use xlink:href="#m9b57804d33" x="117.233083" y="196.14" style="fill: #6f7f86; stroke: #6f7f86; stroke-width: 0.8"/>
      </g>
     </g>
     <g id="text_2">
      <text style="font-size: 8.5px; font-family: 'Arial'; text-anchor: middle; fill: #6f7f86" x="117.233083" y="208.724141" transform="rotate(-0 117.233083 208.724141)">0</text>
     </g>
    </g>
    <g id="xtick_3">
     <g id="line2d_3">
      <g>
       <use xlink:href="#m9b57804d33" x="182.996184" y="196.14" style="fill: #6f7f86; stroke: #6f7f86; stroke-width: 0.8"/>
      </g>
     </g>
     <g id="text_3">
      <text style="font-size: 8.5px; font-family: 'Arial'; text-anchor: middle; fill: #6f7f86" x="182.996184" y="208.724141" transform="rotate(-0 182.996184 208.724141)">2</text>
     </g>
    </g>
    <g id="xtick_4">
     <g id="line2d_4">
      <g>
       <use xlink:href="#m9b57804d33" x="248.759285" y="196.14" style="fill: #6f7f86; stroke: #6f7f86; stroke-width: 0.8"/>
      </g>
     </g>
     <g id="text_4">
      <text style="font-size: 8.5px; font-family: 'Arial'; text-anchor: middle; fill: #6f7f86" x="248.759285" y="208.724141" transform="rotate(-0 248.759285 208.724141)">4</text>
     </g>
    </g>
    <g id="xtick_5">
     <g id="line2d_5">
      <g>
       <use xlink:href="#m9b57804d33" x="314.522386" y="196.14" style="fill: #6f7f86; stroke: #6f7f86; stroke-width: 0.8"/>
      </g>
     </g>
     <g id="text_5">
      <text style="font-size: 8.5px; font-family: 'Arial'; text-anchor: middle; fill: #6f7f86" x="314.522386" y="208.724141" transform="rotate(-0 314.522386 208.724141)">6</text>
     </g>
    </g>
    <g id="xtick_6">
     <g id="line2d_6">
      <g>
       <use xlink:href="#m9b57804d33" x="380.285487" y="196.14" style="fill: #6f7f86; stroke: #6f7f86; stroke-width: 0.8"/>
      </g>
     </g>
     <g id="text_6">
      <text style="font-size: 8.5px; font-family: 'Arial'; text-anchor: middle; fill: #6f7f86" x="380.285487" y="208.724141" transform="rotate(-0 380.285487 208.724141)">8</text>
     </g>
    </g>
    <g id="text_7">
     <!-- Work $W$ -->
     <g style="fill: #263238" transform="translate(195.177734 222.645)">
      <text>
       <tspan x="0" y="-0.25" style="font-size: 11.5px; font-family: 'Arial'; fill: #263238">W</tspan>
       <tspan x="10.854248" y="-0.25" style="font-size: 11.5px; font-family: 'Arial'; fill: #263238">o</tspan>
       <tspan x="17.25" y="-0.25" style="font-size: 11.5px; font-family: 'Arial'; fill: #263238">r</tspan>
       <tspan x="21.07959" y="-0.25" style="font-size: 11.5px; font-family: 'Arial'; fill: #263238">k</tspan>
       <tspan x="26.82959" y="-0.25" style="font-size: 11.5px; font-family: 'Arial'; fill: #263238"> </tspan>
       <tspan x="30.024658" y="-0.25" style="font-style: oblique; font-size: 11.5px; font-family: 'DejaVu Sans'; fill: #263238">W</tspan>
      </text>
     </g>
    </g>
   </g>
   <g id="matplotlib.axis_2">
    <g id="ytick_1">
     <g id="line2d_7">
      <defs>
       <path id="mec2ccdaadd" d="M 0 0 
L -3 0 
" style="stroke: #6f7f86; stroke-width: 0.8"/>
      </defs>
      <g>
       <use xlink:href="#mec2ccdaadd" x="44.893672" y="196.14" style="fill: #6f7f86; stroke: #6f7f86; stroke-width: 0.8"/>
      </g>
     </g>
     <g id="text_8">
      <text style="font-size: 8.5px; font-family: 'Arial'; text-anchor: end; fill: #6f7f86" x="38.393672" y="199.18207" transform="rotate(-0 38.393672 199.18207)">0.00</text>
     </g>
    </g>
    <g id="ytick_2">
     <g id="line2d_8">
      <g>
       <use xlink:href="#mec2ccdaadd" x="44.893672" y="169.898333" style="fill: #6f7f86; stroke: #6f7f86; stroke-width: 0.8"/>
      </g>
     </g>
     <g id="text_9">
      <text style="font-size: 8.5px; font-family: 'Arial'; text-anchor: end; fill: #6f7f86" x="38.393672" y="172.940404" transform="rotate(-0 38.393672 172.940404)">0.05</text>
     </g>
    </g>
    <g id="ytick_3">
     <g id="line2d_9">
      <g>
       <use xlink:href="#mec2ccdaadd" x="44.893672" y="143.656667" style="fill: #6f7f86; stroke: #6f7f86; stroke-width: 0.8"/>
      </g>
     </g>
     <g id="text_10">
      <text style="font-size: 8.5px; font-family: 'Arial'; text-anchor: end; fill: #6f7f86" x="38.393672" y="146.698737" transform="rotate(-0 38.393672 146.698737)">0.10</text>
     </g>
    </g>
    <g id="ytick_4">
     <g id="line2d_10">
      <g>
       <use xlink:href="#mec2ccdaadd" x="44.893672" y="117.415" style="fill: #6f7f86; stroke: #6f7f86; stroke-width: 0.8"/>
      </g>
     </g>
     <g id="text_11">
      <text style="font-size: 8.5px; font-family: 'Arial'; text-anchor: end; fill: #6f7f86" x="38.393672" y="120.45707" transform="rotate(-0 38.393672 120.45707)">0.15</text>
     </g>
    </g>
    <g id="ytick_5">
     <g id="line2d_11">
      <g>
       <use xlink:href="#mec2ccdaadd" x="44.893672" y="91.173333" style="fill: #6f7f86; stroke: #6f7f86; stroke-width: 0.8"/>
      </g>
     </g>
     <g id="text_12">
      <text style="font-size: 8.5px; font-family: 'Arial'; text-anchor: end; fill: #6f7f86" x="38.393672" y="94.215404" transform="rotate(-0 38.393672 94.215404)">0.20</text>
     </g>
    </g>
    <g id="ytick_6">
     <g id="line2d_12">
      <g>
       <use xlink:href="#mec2ccdaadd" x="44.893672" y="64.931667" style="fill: #6f7f86; stroke: #6f7f86; stroke-width: 0.8"/>
      </g>
     </g>
     <g id="text_13">
      <text style="font-size: 8.5px; font-family: 'Arial'; text-anchor: end; fill: #6f7f86" x="38.393672" y="67.973737" transform="rotate(-0 38.393672 67.973737)">0.25</text>
     </g>
    </g>
    <g id="ytick_7">
     <g id="line2d_13">
      <g>
       <use xlink:href="#mec2ccdaadd" x="44.893672" y="38.69" style="fill: #6f7f86; stroke: #6f7f86; stroke-width: 0.8"/>
      </g>
     </g>
     <g id="text_14">
      <text style="font-size: 8.5px; font-family: 'Arial'; text-anchor: end; fill: #6f7f86" x="38.393672" y="41.73207" transform="rotate(-0 38.393672 41.73207)">0.30</text>
     </g>
    </g>
    <g id="ytick_8">
     <g id="line2d_14">
      <g>
       <use xlink:href="#mec2ccdaadd" x="44.893672" y="12.448333" style="fill: #6f7f86; stroke: #6f7f86; stroke-width: 0.8"/>
      </g>
     </g>
     <g id="text_15">
      <text style="font-size: 8.5px; font-family: 'Arial'; text-anchor: end; fill: #6f7f86" x="38.393672" y="15.490404" transform="rotate(-0 38.393672 15.490404)">0.35</text>
     </g>
    </g>
    <g id="text_16">
     <text style="font-size: 11.5px; font-family: 'Arial'; text-anchor: middle; fill: #263238" x="15.431484" y="101.67" transform="rotate(-90 15.431484 101.67)">Density</text>
    </g>
   </g>
   <g id="line2d_15">
    <path d="M 51.469982 196.13935 
L 97.596405 196.026556 
L 110.116435 195.776219 
L 118.023822 195.419014 
L 124.613311 194.903553 
L 129.884902 194.274248 
L 134.497544 193.504649 
L 138.451238 192.635122 
L 142.404931 191.525263 
L 145.699676 190.380591 
L 148.99442 189.00193 
L 152.289165 187.35472 
L 154.92496 185.819153 
L 157.560756 184.069171 
L 160.196552 182.085322 
L 162.832347 179.848287 
L 165.468143 177.339271 
L 168.103939 174.540451 
L 170.739734 171.435463 
L 173.37553 168.009929 
L 176.011325 164.252021 
L 178.647121 160.153036 
L 181.282917 155.707975 
L 184.577661 149.664336 
L 187.872406 143.088497 
L 191.16715 136.003002 
L 195.120844 126.88078 
L 199.074537 117.171647 
L 204.346128 103.534325 
L 220.160902 61.962234 
L 223.455647 54.087175 
L 226.750391 46.794838 
L 229.386187 41.470742 
L 232.021983 36.670034 
L 233.998829 33.449084 
L 235.975676 30.579163 
L 237.952523 28.080979 
L 239.929369 25.97276 
L 241.906216 24.270036 
L 243.224114 23.366525 
L 244.542012 22.65191 
L 245.85991 22.12857 
L 247.177807 21.79825 
L 248.495705 21.662054 
L 249.813603 21.720437 
L 251.131501 21.973204 
L 252.449399 22.419509 
L 253.767297 23.057864 
L 255.085194 23.886142 
L 256.403092 24.901591 
L 258.379939 26.768195 
L 260.356786 29.034419 
L 262.333632 31.68363 
L 264.310479 34.696578 
L 266.287326 38.051632 
L 268.923121 43.01587 
L 271.558917 48.484575 
L 274.853662 55.929223 
L 278.148406 63.923593 
L 282.761048 75.774011 
L 291.986333 100.390651 
L 297.916873 115.839109 
L 302.529516 127.194914 
L 306.483209 136.295793 
L 309.777954 143.361512 
L 313.072698 149.916403 
L 316.367443 155.938477 
L 319.662187 161.41892 
L 322.297983 165.414877 
L 324.933779 169.072005 
L 327.569574 172.400007 
L 330.20537 175.411534 
L 332.841165 178.121618 
L 335.476961 180.547115 
L 338.112757 182.706189 
L 340.748552 184.617836 
L 343.384348 186.301454 
L 346.679092 188.114876 
L 349.973837 189.639533 
L 353.268582 190.911112 
L 356.563326 191.963177 
L 360.51702 192.979373 
L 364.470713 193.772228 
L 369.083355 194.47087 
L 374.354947 195.039272 
L 380.285487 195.465467 
L 380.285487 195.465467 
" clip-path="url(#p3c5dbe4fd1)" style="fill: none; stroke: #5b7fa5; stroke-width: 2.5; stroke-linecap: square"/>
   </g>
   <g id="line2d_16">
    <path d="M 51.469982 195.465467 
L 58.059471 194.979339 
L 63.331062 194.383912 
L 67.943705 193.65373 
L 71.897398 192.826745 
L 75.851092 191.768797 
L 79.145836 190.675397 
L 82.440581 189.355962 
L 85.735325 187.776466 
L 89.03007 185.900863 
L 91.665865 184.162063 
L 94.301661 182.190369 
L 96.937457 179.966445 
L 99.573252 177.471461 
L 102.209048 174.687535 
L 104.844843 171.598215 
L 107.480639 168.189013 
L 110.116435 164.447959 
L 112.75223 160.366179 
L 115.388026 155.938477 
L 118.682771 149.916403 
L 121.977515 143.361512 
L 125.27226 136.295793 
L 129.225953 127.194914 
L 133.179646 117.503505 
L 137.792289 105.618009 
L 146.358625 82.760282 
L 152.289165 67.244106 
L 156.242858 57.488545 
L 159.537603 49.92294 
L 162.173398 44.338257 
L 164.809194 39.241957 
L 167.44499 34.696578 
L 169.421836 31.68363 
L 171.398683 29.034419 
L 173.37553 26.768195 
L 175.352377 24.901591 
L 177.329223 23.44842 
L 178.647121 22.714799 
L 179.965019 22.172242 
L 181.282917 21.82256 
L 182.600815 21.66692 
L 183.918712 21.705843 
L 185.23661 21.939199 
L 186.554508 22.366207 
L 187.872406 22.985442 
L 189.190304 23.794841 
L 190.508201 24.791714 
L 192.485048 26.631154 
L 194.461895 28.871224 
L 196.438742 31.495473 
L 198.415588 34.48482 
L 200.392435 37.817784 
L 203.028231 42.755147 
L 205.664026 48.20016 
L 208.958771 55.619963 
L 212.253515 63.595006 
L 216.866158 75.427751 
L 225.432494 98.284938 
L 231.363034 113.825576 
L 235.975676 125.300365 
L 239.929369 134.527733 
L 243.224114 141.711202 
L 246.518859 148.391221 
L 249.813603 154.54245 
L 253.108348 160.153036 
L 255.744143 164.252021 
L 258.379939 168.009929 
L 261.015735 171.435463 
L 263.65153 174.540451 
L 266.287326 177.339271 
L 268.923121 179.848287 
L 271.558917 182.085322 
L 274.194713 184.069171 
L 276.830508 185.819153 
L 280.125253 187.707373 
L 283.419997 189.29801 
L 286.714742 190.627178 
L 290.009486 191.728996 
L 293.96318 192.795458 
L 297.916873 193.629412 
L 302.529516 194.366044 
L 307.801107 194.967006 
L 313.731647 195.419014 
L 321.639034 195.776219 
L 332.182217 196.002724 
L 349.314888 196.115807 
L 380.285487 196.13935 
L 380.285487 196.13935 
" clip-path="url(#p3c5dbe4fd1)" style="fill: none; stroke: #c0503f; stroke-width: 2.5; stroke-linecap: square"/>
   </g>
   <g id="patch_3">
    <path d="M 44.893672 196.14 
L 44.893672 7.2 
" style="fill: none; stroke: #b6c2c8; stroke-width: 0.8; stroke-linejoin: miter; stroke-linecap: square"/>
   </g>
   <g id="patch_4">
    <path d="M 44.893672 196.14 
L 386.861797 196.14 
" style="fill: none; stroke: #b6c2c8; stroke-width: 0.8; stroke-linejoin: miter; stroke-linecap: square"/>
   </g>
   <g id="line2d_17">
    <path d="M 215.877734 196.14 
L 215.877734 7.2 
" clip-path="url(#p3c5dbe4fd1)" style="fill: none; stroke-dasharray: 1.5,2.475; stroke-dashoffset: 0; stroke: #263238; stroke-width: 1.5"/>
   </g>
   <g id="line2d_18">
    <defs>
     <path id="mf6981dfc14" d="M 0 4 
C 1.060812 4 2.078319 3.578535 2.828427 2.828427 
C 3.578535 2.078319 4 1.060812 4 0 
C 4 -1.060812 3.578535 -2.078319 2.828427 -2.828427 
C 2.078319 -3.578535 1.060812 -4 0 -4 
C -1.060812 -4 -2.078319 -3.578535 -2.828427 -2.828427 
C -3.578535 -2.078319 -4 -1.060812 -4 0 
C -4 1.060812 -3.578535 2.078319 -2.828427 2.828427 
C -2.078319 3.578535 -1.060812 4 0 4 
z
" style="stroke: #263238"/>
    </defs>
    <g clip-path="url(#p3c5dbe4fd1)">
     <use xlink:href="#mf6981dfc14" x="215.877734" y="72.842709" style="fill: #263238; stroke: #263238"/>
    </g>
   </g>
   <g id="text_17">
    <g id="patch_5">
     <path d="M 265.402138 52.794 
L 297.229138 52.794 
L 297.229138 40.331 
L 265.402138 40.331 
z
" style="fill: #ffffff; opacity: 0.9"/>
    </g>
    <!-- $P_F(W)$ -->
    <g style="fill: #5b7fa5" transform="translate(266.844138 49.319359)">
     <text>
      <tspan x="0" y="-0.40625" style="font-style: oblique; font-size: 10.3px; font-family: 'DejaVu Sans'; fill: #5b7fa5">P</tspan>
      <tspan x="14.580396" y="-0.40625" style="font-style: oblique; font-size: 10.3px; font-family: 'DejaVu Sans'; fill: #5b7fa5">W</tspan>
      <tspan x="6.18103" y="1.234375" style="font-style: oblique; font-size: 7.21px; font-family: 'DejaVu Sans'; fill: #5b7fa5">F</tspan>
      <tspan x="10.581494" y="-0.40625" style="font-size: 10.3px; font-family: 'DejaVu Sans'; fill: #5b7fa5">(</tspan>
      <tspan x="24.715283" y="-0.40625" style="font-size: 10.3px; font-family: 'DejaVu Sans'; fill: #5b7fa5">)</tspan>
     </text>
    </g>
   </g>
   <g id="text_18">
    <g id="patch_6">
     <path d="M 137.164091 52.794 
L 178.467091 52.794 
L 178.467091 40.331 
L 137.164091 40.331 
z
" style="fill: #ffffff; opacity: 0.9"/>
    </g>
    <!-- $P_R(-W)$ -->
    <g style="fill: #c0503f" transform="translate(138.606091 49.319359)">
     <text>
      <tspan x="0" y="-0.40625" style="font-style: oblique; font-size: 10.3px; font-family: 'DejaVu Sans'; fill: #c0503f">P</tspan>
      <tspan x="24.027112" y="-0.40625" style="font-style: oblique; font-size: 10.3px; font-family: 'DejaVu Sans'; fill: #c0503f">W</tspan>
      <tspan x="6.18103" y="1.234375" style="font-style: oblique; font-size: 7.21px; font-family: 'DejaVu Sans'; fill: #c0503f">R</tspan>
      <tspan x="11.439832" y="-0.40625" style="font-size: 10.3px; font-family: 'DejaVu Sans'; fill: #c0503f">(</tspan>
      <tspan x="15.438733" y="-0.40625" style="font-size: 10.3px; font-family: 'DejaVu Sans'; fill: #c0503f">−</tspan>
      <tspan x="34.162" y="-0.40625" style="font-size: 10.3px; font-family: 'DejaVu Sans'; fill: #c0503f">)</tspan>
     </text>
    </g>
   </g>
   <g id="patch_7">
    <path d="M 247.133995 38.567493 
Q 233.191345 53.856825 220.303384 67.989598 
" style="fill: none; stroke: #263238; stroke-width: 1.4; stroke-linecap: round"/>
    <path d="M 225.311061 66.060044 
L 220.303384 67.989598 
L 221.764347 62.825724 
z
" style="fill: #263238; stroke: #263238; stroke-width: 1.4; stroke-linecap: round"/>
   </g>
   <g id="text_19">
    <g id="patch_8">
     <path d="M 236.437189 35.608625 
L 274.837189 35.608625 
L 274.837189 22.877375 
L 236.437189 22.877375 
z
" style="fill: #ffffff; opacity: 0.92"/>
    </g>
    <!-- $W=\Delta F$ -->
    <g style="fill: #263238" transform="translate(238.237189 31.835187)">
     <text>
      <tspan x="0" y="-0.703125" style="font-style: oblique; font-size: 10px; font-family: 'DejaVu Sans'; fill: #263238">W</tspan>
      <tspan x="29.003906" y="-0.703125" style="font-style: oblique; font-size: 10px; font-family: 'DejaVu Sans'; fill: #263238">F</tspan>
      <tspan x="11.835938" y="-0.703125" style="font-size: 10px; font-family: 'DejaVu Sans'; fill: #263238">=</tspan>
      <tspan x="22.163086" y="-0.703125" style="font-size: 10px; font-family: 'DejaVu Sans'; fill: #263238">Δ</tspan>
     </text>
    </g>
   </g>
  </g>
 </g>
 <defs>
  <clipPath id="p3c5dbe4fd1">
   <rect x="44.893672" y="7.2" width="341.968125" height="188.94"/>
  </clipPath>
 </defs>
</svg>
