<?xml version="1.0" encoding="utf-8" standalone="no"?>
<!DOCTYPE svg PUBLIC "-//W3C//DTD SVG 1.1//EN"
  "http://www.w3.org/Graphics/SVG/1.1/DTD/svg11.dtd">
<svg xmlns:xlink="http://www.w3.org/1999/xlink" width="493.964354pt" height="226.802625pt" viewBox="0 0 493.964354 226.802625" xmlns="http://www.w3.org/2000/svg" version="1.1">
 <metadata>
  <rdf:RDF xmlns:dc="http://purl.org/dc/elements/1.1/" xmlns:cc="http://creativecommons.org/ns#" xmlns:rdf="http://www.w3.org/1999/02/22-rdf-syntax-ns#">
   <cc:Work>
    <dc:type rdf:resource="http://purl.org/dc/dcmitype/StillImage"/>
    <dc:date>2026-06-20T20:58:25.437597</dc:date>
    <dc:format>image/svg+xml</dc:format>
    <dc:creator>
     <cc:Agent>
      <dc:title>Matplotlib v3.10.8, https://matplotlib.org/</dc:title>
     </cc:Agent>
    </dc:creator>
   </cc:Work>
  </rdf:RDF>
 </metadata>
 <defs>
  <style type="text/css">*{stroke-linejoin: round; stroke-linecap: butt}</style>
 </defs>
 <g id="figure_1">
  <g id="patch_1">
   <path d="M 0 226.802625 
L 493.964354 226.802625 
L 493.964354 -0 
L 0 -0 
L 0 226.802625 
z
" style="fill: none"/>
  </g>
  <g id="axes_1">
   <g id="patch_2">
    <path d="M 20.802578 190.812 
L 166.348871 190.812 
L 166.348871 58.5645 
L 20.802578 58.5645 
z
" style="fill: #ffffff"/>
   </g>
   <g id="FillBetweenPolyCollection_1">
    <path d="M 23.601545 161.422356 
L 23.601545 -117.7655 
L 24.0696 -108.44493 
L 24.537655 -99.352418 
L 25.005709 -90.484621 
L 25.473764 -81.838218 
L 25.941819 -73.409909 
L 26.409874 -65.196421 
L 26.877928 -57.194499 
L 27.345983 -49.400912 
L 27.814038 -41.812454 
L 28.282092 -34.425938 
L 28.750147 -27.238202 
L 29.218202 -20.246106 
L 29.686257 -13.446531 
L 30.154311 -6.836383 
L 30.622366 -0.41259 
L 31.090421 5.827898 
L 31.558475 11.888109 
L 32.02653 17.771047 
L 32.494585 23.479694 
L 32.96264 29.01701 
L 33.430694 34.385931 
L 33.898749 39.589373 
L 34.366804 44.630226 
L 34.834858 49.511359 
L 35.302913 54.23562 
L 35.770968 58.805831 
L 36.239023 63.224795 
L 36.707077 67.49529 
L 37.175132 71.620073 
L 37.643187 75.601876 
L 38.111241 79.44341 
L 38.579296 83.147365 
L 39.047351 86.716406 
L 39.515406 90.153176 
L 39.98346 93.460295 
L 40.451515 96.640363 
L 40.91957 99.695953 
L 41.387624 102.629619 
L 41.855679 105.443891 
L 42.323734 108.141277 
L 42.791789 110.724262 
L 43.259843 113.195308 
L 43.727898 115.556855 
L 44.195953 117.81132 
L 44.664007 119.961098 
L 45.132062 122.008562 
L 45.600117 123.95606 
L 46.068171 125.80592 
L 46.536226 127.560446 
L 47.004281 129.221919 
L 47.472336 130.792599 
L 47.94039 132.274722 
L 48.408445 133.670502 
L 48.8765 134.982131 
L 49.344554 136.211777 
L 49.812609 137.361587 
L 50.280664 138.433684 
L 50.748719 139.430168 
L 51.216773 140.35312 
L 51.684828 141.204593 
L 52.152883 141.986622 
L 52.620937 142.701217 
L 53.088992 143.350367 
L 53.557047 143.936035 
L 54.025102 144.460167 
L 54.493156 144.924681 
L 54.961211 145.331475 
L 55.429266 145.682425 
L 55.89732 145.979383 
L 56.365375 146.224179 
L 56.83343 146.418619 
L 57.301485 146.56449 
L 57.769539 146.663553 
L 58.237594 146.717547 
L 58.705649 146.728189 
L 59.173703 146.697175 
L 59.641758 146.626175 
L 60.109813 146.516839 
L 60.577868 146.370793 
L 61.045922 146.189641 
L 61.513977 145.974965 
L 61.982032 145.728323 
L 62.450086 145.451252 
L 62.918141 145.145266 
L 63.386196 144.811855 
L 63.854251 144.452487 
L 64.322305 144.068609 
L 64.79036 143.661644 
L 65.258415 143.232993 
L 65.726469 142.784033 
L 66.194524 142.31612 
L 66.662579 141.830587 
L 67.130634 141.328744 
L 67.598688 140.81188 
L 68.066743 140.281258 
L 68.534798 139.738122 
L 69.002852 139.183691 
L 69.470907 138.619164 
L 69.938962 138.045714 
L 70.407017 137.464493 
L 70.875071 136.876633 
L 71.343126 136.283238 
L 71.811181 135.685394 
L 72.279235 135.084162 
L 72.74729 134.480583 
L 73.215345 133.875671 
L 73.6834 133.270422 
L 74.151454 132.665807 
L 74.619509 132.062774 
L 75.087564 131.46225 
L 75.555618 130.865138 
L 76.023673 130.27232 
L 76.491728 129.684654 
L 76.959783 129.102976 
L 77.427837 128.528098 
L 77.895892 127.960813 
L 78.363947 127.401888 
L 78.832001 126.852068 
L 79.300056 126.312077 
L 79.768111 125.782614 
L 80.236166 125.264358 
L 80.70422 124.757964 
L 81.172275 124.264063 
L 81.64033 123.783267 
L 82.108384 123.316162 
L 82.576439 122.863314 
L 83.044494 122.425264 
L 83.512548 122.002532 
L 83.980603 121.595615 
L 84.448658 121.204988 
L 84.916713 120.831102 
L 85.384767 120.474386 
L 85.852822 120.135248 
L 86.320877 119.814071 
L 86.788931 119.511217 
L 87.256986 119.227025 
L 87.725041 118.96181 
L 88.193096 118.715867 
L 88.66115 118.489466 
L 89.129205 118.282857 
L 89.59726 118.096265 
L 90.065314 117.929893 
L 90.533369 117.783922 
L 91.001424 117.658511 
L 91.469479 117.553794 
L 91.937533 117.469886 
L 92.405588 117.406875 
L 92.873643 117.36483 
L 93.341697 117.343796 
L 93.809752 117.343796 
L 94.277807 117.36483 
L 94.745862 117.406875 
L 95.213916 117.469886 
L 95.681971 117.553794 
L 96.150026 117.658511 
L 96.61808 117.783922 
L 97.086135 117.929893 
L 97.55419 118.096265 
L 98.022245 118.282857 
L 98.490299 118.489466 
L 98.958354 118.715867 
L 99.426409 118.96181 
L 99.894463 119.227025 
L 100.362518 119.511217 
L 100.830573 119.814071 
L 101.298628 120.135248 
L 101.766682 120.474386 
L 102.234737 120.831102 
L 102.702792 121.204988 
L 103.170846 121.595615 
L 103.638901 122.002532 
L 104.106956 122.425264 
L 104.575011 122.863314 
L 105.043065 123.316162 
L 105.51112 123.783267 
L 105.979175 124.264063 
L 106.447229 124.757964 
L 106.915284 125.264358 
L 107.383339 125.782614 
L 107.851394 126.312077 
L 108.319448 126.852068 
L 108.787503 127.401888 
L 109.255558 127.960813 
L 109.723612 128.528098 
L 110.191667 129.102976 
L 110.659722 129.684654 
L 111.127777 130.27232 
L 111.595831 130.865138 
L 112.063886 131.46225 
L 112.531941 132.062774 
L 112.999995 132.665807 
L 113.46805 133.270422 
L 113.936105 133.875671 
L 114.40416 134.480583 
L 114.872214 135.084162 
L 115.340269 135.685394 
L 115.808324 136.283238 
L 116.276378 136.876633 
L 116.744433 137.464493 
L 117.212488 138.045714 
L 117.680542 138.619164 
L 118.148597 139.183691 
L 118.616652 139.738122 
L 119.084707 140.281258 
L 119.552761 140.81188 
L 120.020816 141.328744 
L 120.488871 141.830587 
L 120.956925 142.31612 
L 121.42498 142.784033 
L 121.893035 143.232993 
L 122.36109 143.661644 
L 122.829144 144.068609 
L 123.297199 144.452487 
L 123.765254 144.811855 
L 124.233308 145.145266 
L 124.701363 145.451252 
L 125.169418 145.728323 
L 125.637473 145.974965 
L 126.105527 146.189641 
L 126.573582 146.370793 
L 127.041637 146.516839 
L 127.509691 146.626175 
L 127.977746 146.697175 
L 128.445801 146.728189 
L 128.913856 146.717547 
L 129.38191 146.663553 
L 129.849965 146.56449 
L 130.31802 146.418619 
L 130.786074 146.224179 
L 131.254129 145.979383 
L 131.722184 145.682425 
L 132.190239 145.331475 
L 132.658293 144.924681 
L 133.126348 144.460167 
L 133.594403 143.936035 
L 134.062457 143.350367 
L 134.530512 142.701217 
L 134.998567 141.986622 
L 135.466622 141.204593 
L 135.934676 140.35312 
L 136.402731 139.430168 
L 136.870786 138.433684 
L 137.33884 137.361587 
L 137.806895 136.211777 
L 138.27495 134.982131 
L 138.743005 133.670502 
L 139.211059 132.274722 
L 139.679114 130.792599 
L 140.147169 129.221919 
L 140.615223 127.560446 
L 141.083278 125.80592 
L 141.551333 123.95606 
L 142.019388 122.008562 
L 142.487442 119.961098 
L 142.955497 117.81132 
L 143.423552 115.556855 
L 143.891606 113.195308 
L 144.359661 110.724262 
L 144.827716 108.141277 
L 145.295771 105.443891 
L 145.763825 102.629619 
L 146.23188 99.695953 
L 146.699935 96.640363 
L 147.167989 93.460295 
L 147.636044 90.153176 
L 148.104099 86.716406 
L 148.572154 83.147365 
L 149.040208 79.44341 
L 149.508263 75.601876 
L 149.976318 71.620073 
L 150.444372 67.49529 
L 150.912427 63.224795 
L 151.380482 58.805831 
L 151.848536 54.23562 
L 152.316591 49.511359 
L 152.784646 44.630226 
L 153.252701 39.589373 
L 153.720755 34.385931 
L 154.18881 29.01701 
L 154.656865 23.479694 
L 155.124919 17.771047 
L 155.592974 11.888109 
L 156.061029 5.827898 
L 156.529084 -0.41259 
L 156.997138 -6.836383 
L 157.465193 -13.446531 
L 157.933248 -20.246106 
L 158.401302 -27.238202 
L 158.869357 -34.425938 
L 159.337412 -41.812454 
L 159.805467 -49.400912 
L 160.273521 -57.194499 
L 160.741576 -65.196421 
L 161.209631 -73.409909 
L 161.677685 -81.838218 
L 162.14574 -90.484621 
L 162.613795 -99.352418 
L 163.08185 -108.44493 
L 163.549904 -117.7655 
L 163.549904 161.422356 
L 163.549904 161.422356 
L 163.08185 161.422356 
L 162.613795 161.422356 
L 162.14574 161.422356 
L 161.677685 161.422356 
L 161.209631 161.422356 
L 160.741576 161.422356 
L 160.273521 161.422356 
L 159.805467 161.422356 
L 159.337412 161.422356 
L 158.869357 161.422356 
L 158.401302 161.422356 
L 157.933248 161.422356 
L 157.465193 161.422356 
L 156.997138 161.422356 
L 156.529084 161.422356 
L 156.061029 161.422356 
L 155.592974 161.422356 
L 155.124919 161.422356 
L 154.656865 161.422356 
L 154.18881 161.422356 
L 153.720755 161.422356 
L 153.252701 161.422356 
L 152.784646 161.422356 
L 152.316591 161.422356 
L 151.848536 161.422356 
L 151.380482 161.422356 
L 150.912427 161.422356 
L 150.444372 161.422356 
L 149.976318 161.422356 
L 149.508263 161.422356 
L 149.040208 161.422356 
L 148.572154 161.422356 
L 148.104099 161.422356 
L 147.636044 161.422356 
L 147.167989 161.422356 
L 146.699935 161.422356 
L 146.23188 161.422356 
L 145.763825 161.422356 
L 145.295771 161.422356 
L 144.827716 161.422356 
L 144.359661 161.422356 
L 143.891606 161.422356 
L 143.423552 161.422356 
L 142.955497 161.422356 
L 142.487442 161.422356 
L 142.019388 161.422356 
L 141.551333 161.422356 
L 141.083278 161.422356 
L 140.615223 161.422356 
L 140.147169 161.422356 
L 139.679114 161.422356 
L 139.211059 161.422356 
L 138.743005 161.422356 
L 138.27495 161.422356 
L 137.806895 161.422356 
L 137.33884 161.422356 
L 136.870786 161.422356 
L 136.402731 161.422356 
L 135.934676 161.422356 
L 135.466622 161.422356 
L 134.998567 161.422356 
L 134.530512 161.422356 
L 134.062457 161.422356 
L 133.594403 161.422356 
L 133.126348 161.422356 
L 132.658293 161.422356 
L 132.190239 161.422356 
L 131.722184 161.422356 
L 131.254129 161.422356 
L 130.786074 161.422356 
L 130.31802 161.422356 
L 129.849965 161.422356 
L 129.38191 161.422356 
L 128.913856 161.422356 
L 128.445801 161.422356 
L 127.977746 161.422356 
L 127.509691 161.422356 
L 127.041637 161.422356 
L 126.573582 161.422356 
L 126.105527 161.422356 
L 125.637473 161.422356 
L 125.169418 161.422356 
L 124.701363 161.422356 
L 124.233308 161.422356 
L 123.765254 161.422356 
L 123.297199 161.422356 
L 122.829144 161.422356 
L 122.36109 161.422356 
L 121.893035 161.422356 
L 121.42498 161.422356 
L 120.956925 161.422356 
L 120.488871 161.422356 
L 120.020816 161.422356 
L 119.552761 161.422356 
L 119.084707 161.422356 
L 118.616652 161.422356 
L 118.148597 161.422356 
L 117.680542 161.422356 
L 117.212488 161.422356 
L 116.744433 161.422356 
L 116.276378 161.422356 
L 115.808324 161.422356 
L 115.340269 161.422356 
L 114.872214 161.422356 
L 114.40416 161.422356 
L 113.936105 161.422356 
L 113.46805 161.422356 
L 112.999995 161.422356 
L 112.531941 161.422356 
L 112.063886 161.422356 
L 111.595831 161.422356 
L 111.127777 161.422356 
L 110.659722 161.422356 
L 110.191667 161.422356 
L 109.723612 161.422356 
L 109.255558 161.422356 
L 108.787503 161.422356 
L 108.319448 161.422356 
L 107.851394 161.422356 
L 107.383339 161.422356 
L 106.915284 161.422356 
L 106.447229 161.422356 
L 105.979175 161.422356 
L 105.51112 161.422356 
L 105.043065 161.422356 
L 104.575011 161.422356 
L 104.106956 161.422356 
L 103.638901 161.422356 
L 103.170846 161.422356 
L 102.702792 161.422356 
L 102.234737 161.422356 
L 101.766682 161.422356 
L 101.298628 161.422356 
L 100.830573 161.422356 
L 100.362518 161.422356 
L 99.894463 161.422356 
L 99.426409 161.422356 
L 98.958354 161.422356 
L 98.490299 161.422356 
L 98.022245 161.422356 
L 97.55419 161.422356 
L 97.086135 161.422356 
L 96.61808 161.422356 
L 96.150026 161.422356 
L 95.681971 161.422356 
L 95.213916 161.422356 
L 94.745862 161.422356 
L 94.277807 161.422356 
L 93.809752 161.422356 
L 93.341697 161.422356 
L 92.873643 161.422356 
L 92.405588 161.422356 
L 91.937533 161.422356 
L 91.469479 161.422356 
L 91.001424 161.422356 
L 90.533369 161.422356 
L 90.065314 161.422356 
L 89.59726 161.422356 
L 89.129205 161.422356 
L 88.66115 161.422356 
L 88.193096 161.422356 
L 87.725041 161.422356 
L 87.256986 161.422356 
L 86.788931 161.422356 
L 86.320877 161.422356 
L 85.852822 161.422356 
L 85.384767 161.422356 
L 84.916713 161.422356 
L 84.448658 161.422356 
L 83.980603 161.422356 
L 83.512548 161.422356 
L 83.044494 161.422356 
L 82.576439 161.422356 
L 82.108384 161.422356 
L 81.64033 161.422356 
L 81.172275 161.422356 
L 80.70422 161.422356 
L 80.236166 161.422356 
L 79.768111 161.422356 
L 79.300056 161.422356 
L 78.832001 161.422356 
L 78.363947 161.422356 
L 77.895892 161.422356 
L 77.427837 161.422356 
L 76.959783 161.422356 
L 76.491728 161.422356 
L 76.023673 161.422356 
L 75.555618 161.422356 
L 75.087564 161.422356 
L 74.619509 161.422356 
L 74.151454 161.422356 
L 73.6834 161.422356 
L 73.215345 161.422356 
L 72.74729 161.422356 
L 72.279235 161.422356 
L 71.811181 161.422356 
L 71.343126 161.422356 
L 70.875071 161.422356 
L 70.407017 161.422356 
L 69.938962 161.422356 
L 69.470907 161.422356 
L 69.002852 161.422356 
L 68.534798 161.422356 
L 68.066743 161.422356 
L 67.598688 161.422356 
L 67.130634 161.422356 
L 66.662579 161.422356 
L 66.194524 161.422356 
L 65.726469 161.422356 
L 65.258415 161.422356 
L 64.79036 161.422356 
L 64.322305 161.422356 
L 63.854251 161.422356 
L 63.386196 161.422356 
L 62.918141 161.422356 
L 62.450086 161.422356 
L 61.982032 161.422356 
L 61.513977 161.422356 
L 61.045922 161.422356 
L 60.577868 161.422356 
L 60.109813 161.422356 
L 59.641758 161.422356 
L 59.173703 161.422356 
L 58.705649 161.422356 
L 58.237594 161.422356 
L 57.769539 161.422356 
L 57.301485 161.422356 
L 56.83343 161.422356 
L 56.365375 161.422356 
L 55.89732 161.422356 
L 55.429266 161.422356 
L 54.961211 161.422356 
L 54.493156 161.422356 
L 54.025102 161.422356 
L 53.557047 161.422356 
L 53.088992 161.422356 
L 52.620937 161.422356 
L 52.152883 161.422356 
L 51.684828 161.422356 
L 51.216773 161.422356 
L 50.748719 161.422356 
L 50.280664 161.422356 
L 49.812609 161.422356 
L 49.344554 161.422356 
L 48.8765 161.422356 
L 48.408445 161.422356 
L 47.94039 161.422356 
L 47.472336 161.422356 
L 47.004281 161.422356 
L 46.536226 161.422356 
L 46.068171 161.422356 
L 45.600117 161.422356 
L 45.132062 161.422356 
L 44.664007 161.422356 
L 44.195953 161.422356 
L 43.727898 161.422356 
L 43.259843 161.422356 
L 42.791789 161.422356 
L 42.323734 161.422356 
L 41.855679 161.422356 
L 41.387624 161.422356 
L 40.91957 161.422356 
L 40.451515 161.422356 
L 39.98346 161.422356 
L 39.515406 161.422356 
L 39.047351 161.422356 
L 38.579296 161.422356 
L 38.111241 161.422356 
L 37.643187 161.422356 
L 37.175132 161.422356 
L 36.707077 161.422356 
L 36.239023 161.422356 
L 35.770968 161.422356 
L 35.302913 161.422356 
L 34.834858 161.422356 
L 34.366804 161.422356 
L 33.898749 161.422356 
L 33.430694 161.422356 
L 32.96264 161.422356 
L 32.494585 161.422356 
L 32.02653 161.422356 
L 31.558475 161.422356 
L 31.090421 161.422356 
L 30.622366 161.422356 
L 30.154311 161.422356 
L 29.686257 161.422356 
L 29.218202 161.422356 
L 28.750147 161.422356 
L 28.282092 161.422356 
L 27.814038 161.422356 
L 27.345983 161.422356 
L 26.877928 161.422356 
L 26.409874 161.422356 
L 25.941819 161.422356 
L 25.473764 161.422356 
L 25.005709 161.422356 
L 24.537655 161.422356 
L 24.0696 161.422356 
L 23.601545 161.422356 
z
" clip-path="url(#pa63ba41a54)" style="fill: #5b7fa5; fill-opacity: 0.08; stroke: #5b7fa5; stroke-opacity: 0.08"/>
   </g>
   <g id="matplotlib.axis_1">
    <g id="xtick_1">
     <g id="line2d_1">
      <defs>
       <path id="m3303910962" d="M 0 0 
L 0 3 
" style="stroke: #6f7f86; stroke-width: 0.8"/>
      </defs>
      <g>
       <use xlink:href="#m3303910962" x="23.601545" y="190.812" style="fill: #6f7f86; stroke: #6f7f86; stroke-width: 0.8"/>
      </g>
     </g>
     <g id="text_1">
      <text style="font-size: 8.5px; font-family: 'Arial'; text-anchor: middle; fill: #6f7f86" x="23.601545" y="203.396141" transform="rotate(-0 23.601545 203.396141)">−2</text>
     </g>
    </g>
    <g id="xtick_2">
     <g id="line2d_2">
      <g>
       <use xlink:href="#m3303910962" x="58.588635" y="190.812" style="fill: #6f7f86; stroke: #6f7f86; stroke-width: 0.8"/>
      </g>
     </g>
     <g id="text_2">
      <text style="font-size: 8.5px; font-family: 'Arial'; text-anchor: middle; fill: #6f7f86" x="58.588635" y="203.396141" transform="rotate(-0 58.588635 203.396141)">−1</text>
     </g>
    </g>
    <g id="xtick_3">
     <g id="line2d_3">
      <g>
       <use xlink:href="#m3303910962" x="93.575725" y="190.812" style="fill: #6f7f86; stroke: #6f7f86; stroke-width: 0.8"/>
      </g>
     </g>
     <g id="text_3">
      <text style="font-size: 8.5px; font-family: 'Arial'; text-anchor: middle; fill: #6f7f86" x="93.575725" y="203.396141" transform="rotate(-0 93.575725 203.396141)">0</text>
     </g>
    </g>
    <g id="xtick_4">
     <g id="line2d_4">
      <g>
       <use xlink:href="#m3303910962" x="128.562815" y="190.812" style="fill: #6f7f86; stroke: #6f7f86; stroke-width: 0.8"/>
      </g>
     </g>
     <g id="text_4">
      <text style="font-size: 8.5px; font-family: 'Arial'; text-anchor: middle; fill: #6f7f86" x="128.562815" y="203.396141" transform="rotate(-0 128.562815 203.396141)">1</text>
     </g>
    </g>
    <g id="xtick_5">
     <g id="line2d_5">
      <g>
       <use xlink:href="#m3303910962" x="163.549904" y="190.812" style="fill: #6f7f86; stroke: #6f7f86; stroke-width: 0.8"/>
      </g>
     </g>
     <g id="text_5">
      <text style="font-size: 8.5px; font-family: 'Arial'; text-anchor: middle; fill: #6f7f86" x="163.549904" y="203.396141" transform="rotate(-0 163.549904 203.396141)">2</text>
     </g>
    </g>
    <g id="text_6">
     <!-- $x$ -->
     <g style="fill: #263238" transform="translate(90.125725 217.317)">
      <text>
       <tspan x="0" y="-0.4375" style="font-style: oblique; font-size: 11.5px; font-family: 'DejaVu Sans'; fill: #263238">x</tspan>
      </text>
     </g>
    </g>
   </g>
   <g id="matplotlib.axis_2">
    <g id="text_7">
     <!-- $U(x, \lambda)$ -->
     <g style="fill: #263238" transform="translate(14.715703 141.54075) rotate(-90)">
      <text>
       <tspan x="0" y="-0.640625" style="font-style: oblique; font-size: 10.5px; font-family: 'DejaVu Sans'; fill: #263238">U</tspan>
       <tspan x="11.781738" y="-0.640625" style="font-style: oblique; font-size: 10.5px; font-family: 'DejaVu Sans'; fill: #263238">x</tspan>
       <tspan x="23.378906" y="-0.640625" style="font-style: oblique; font-size: 10.5px; font-family: 'DejaVu Sans'; fill: #263238">λ</tspan>
       <tspan x="7.685303" y="-0.640625" style="font-size: 10.5px; font-family: 'DejaVu Sans'; fill: #263238">(</tspan>
       <tspan x="17.995605" y="-0.640625" style="font-size: 10.5px; font-family: 'DejaVu Sans'; fill: #263238">,</tspan>
       <tspan x="29.592773" y="-0.640625" style="font-size: 10.5px; font-family: 'DejaVu Sans'; fill: #263238">)</tspan>
      </text>
     </g>
    </g>
   </g>
   <g id="line2d_6">
    <path d="M 30.579566 -1 
L 32.02653 17.771047 
L 33.898749 39.589373 
L 35.770968 58.805831 
L 37.643187 75.601876 
L 39.515406 90.153176 
L 41.387624 102.629619 
L 42.791789 110.724262 
L 44.195953 117.81132 
L 45.600117 123.95606 
L 47.004281 129.221919 
L 48.408445 133.670502 
L 49.812609 137.361587 
L 51.216773 140.35312 
L 52.620937 142.701217 
L 54.025102 144.460167 
L 54.961211 145.331475 
L 55.89732 145.979383 
L 56.83343 146.418619 
L 57.769539 146.663553 
L 58.705649 146.728189 
L 59.641758 146.626175 
L 61.045922 146.189641 
L 62.450086 145.451252 
L 63.854251 144.452487 
L 65.726469 142.784033 
L 67.598688 140.81188 
L 70.407017 137.464493 
L 80.236166 125.264358 
L 82.576439 122.863314 
L 84.448658 121.204988 
L 86.320877 119.814071 
L 88.193096 118.715867 
L 90.065314 117.929893 
L 91.469479 117.553794 
L 92.873643 117.36483 
L 94.277807 117.36483 
L 95.681971 117.553794 
L 97.086135 117.929893 
L 98.490299 118.489466 
L 100.362518 119.511217 
L 102.234737 120.831102 
L 104.106956 122.425264 
L 106.447229 124.757964 
L 108.787503 127.401888 
L 112.063886 131.46225 
L 118.616652 139.738122 
L 120.956925 142.31612 
L 122.829144 144.068609 
L 124.233308 145.145266 
L 125.637473 145.974965 
L 127.041637 146.516839 
L 127.977746 146.697175 
L 128.913856 146.717547 
L 129.849965 146.56449 
L 130.786074 146.224179 
L 131.722184 145.682425 
L 132.658293 144.924681 
L 133.594403 143.936035 
L 134.530512 142.701217 
L 135.466622 141.204593 
L 136.870786 138.433684 
L 138.27495 134.982131 
L 139.679114 130.792599 
L 141.083278 125.80592 
L 142.487442 119.961098 
L 143.891606 113.195308 
L 145.295771 105.443891 
L 146.699935 96.640363 
L 148.104099 86.716406 
L 149.976318 71.620073 
L 151.848536 54.23562 
L 153.720755 34.385931 
L 155.592974 11.888109 
L 156.571884 -1 
L 156.571884 -1 
" clip-path="url(#pa63ba41a54)" style="fill: none; stroke: #5b7fa5; stroke-width: 2.5; stroke-linecap: square"/>
   </g>
   <g id="patch_3">
    <path d="M 20.802578 190.812 
L 20.802578 58.5645 
" style="fill: none; stroke: #b6c2c8; stroke-width: 0.8; stroke-linejoin: miter; stroke-linecap: square"/>
   </g>
   <g id="patch_4">
    <path d="M 20.802578 190.812 
L 166.348871 190.812 
" style="fill: none; stroke: #b6c2c8; stroke-width: 0.8; stroke-linejoin: miter; stroke-linecap: square"/>
   </g>
   <g id="text_8">
    <!-- $\lambda = 0$ (state A) -->
    <g style="fill: #5b7fa5" transform="translate(62.571725 52.5645)">
     <text>
      <tspan x="0" y="-0.15625" style="font-style: oblique; font-size: 9.2px; font-family: 'DejaVu Sans'; fill: #5b7fa5">λ</tspan>
      <tspan x="7.276245" y="-0.15625" style="font-size: 9.2px; font-family: 'DejaVu Sans'; fill: #5b7fa5">=</tspan>
      <tspan x="16.828857" y="-0.15625" style="font-size: 9.2px; font-family: 'DejaVu Sans'; fill: #5b7fa5">0</tspan>
      <tspan x="22.713989" y="-0.15625" style="font-weight: 700; font-size: 9.2px; font-family: 'Arial'; fill: #5b7fa5"> </tspan>
      <tspan x="25.283936" y="-0.15625" style="font-weight: 700; font-size: 9.2px; font-family: 'Arial'; fill: #5b7fa5">(</tspan>
      <tspan x="28.364258" y="-0.15625" style="font-weight: 700; font-size: 9.2px; font-family: 'Arial'; fill: #5b7fa5">s</tspan>
      <tspan x="33.508667" y="-0.15625" style="font-weight: 700; font-size: 9.2px; font-family: 'Arial'; fill: #5b7fa5">t</tspan>
      <tspan x="36.588989" y="-0.15625" style="font-weight: 700; font-size: 9.2px; font-family: 'Arial'; fill: #5b7fa5">a</tspan>
      <tspan x="41.733398" y="-0.15625" style="font-weight: 700; font-size: 9.2px; font-family: 'Arial'; fill: #5b7fa5">t</tspan>
      <tspan x="44.813721" y="-0.15625" style="font-weight: 700; font-size: 9.2px; font-family: 'Arial'; fill: #5b7fa5">e</tspan>
      <tspan x="49.95813" y="-0.15625" style="font-weight: 700; font-size: 9.2px; font-family: 'Arial'; fill: #5b7fa5"> </tspan>
      <tspan x="52.528076" y="-0.15625" style="font-weight: 700; font-size: 9.2px; font-family: 'Arial'; fill: #5b7fa5">A</tspan>
      <tspan x="59.20813" y="-0.15625" style="font-weight: 700; font-size: 9.2px; font-family: 'Arial'; fill: #5b7fa5">)</tspan>
     </text>
    </g>
   </g>
   <g id="line2d_7">
    <defs>
     <path id="me0332034b5" d="M 0 5 
C 1.326016 5 2.597899 4.473168 3.535534 3.535534 
C 4.473168 2.597899 5 1.326016 5 0 
C 5 -1.326016 4.473168 -2.597899 3.535534 -3.535534 
C 2.597899 -4.473168 1.326016 -5 0 -5 
C -1.326016 -5 -2.597899 -4.473168 -3.535534 -3.535534 
C -4.473168 -2.597899 -5 -1.326016 -5 0 
C -5 1.326016 -4.473168 2.597899 -3.535534 3.535534 
C -2.597899 4.473168 -1.326016 5 0 5 
z
" style="stroke: #5b7fa5"/>
    </defs>
    <g clip-path="url(#pa63ba41a54)">
     <use xlink:href="#me0332034b5" x="58.705649" y="142.319939" style="fill: #5b7fa5; stroke: #5b7fa5"/>
    </g>
   </g>
  </g>
  <g id="axes_2">
   <g id="patch_5">
    <path d="M 181.010319 190.812 
L 326.556613 190.812 
L 326.556613 58.5645 
L 181.010319 58.5645 
z
" style="fill: #ffffff"/>
   </g>
   <g id="FillBetweenPolyCollection_2">
    <path d="M 183.809287 184.41028 
L 183.809287 -161.848 
L 184.277341 -152.232564 
L 184.745396 -142.845186 
L 185.213451 -133.682523 
L 185.681505 -124.741253 
L 186.14956 -116.018078 
L 186.617615 -107.509724 
L 187.08567 -99.212935 
L 187.553724 -91.124483 
L 188.021779 -83.241158 
L 188.489834 -75.559776 
L 188.957888 -68.077174 
L 189.425943 -60.790211 
L 189.893998 -53.69577 
L 190.362053 -46.790756 
L 190.830107 -40.072097 
L 191.298162 -33.536743 
L 191.766217 -27.181665 
L 192.234271 -21.003861 
L 192.702326 -15.000348 
L 193.170381 -9.168166 
L 193.638436 -3.504378 
L 194.10649 1.99393 
L 194.574545 7.329649 
L 195.0426 12.505648 
L 195.510654 17.524775 
L 195.978709 22.389853 
L 196.446764 27.103683 
L 196.914819 31.669045 
L 197.382873 36.088693 
L 197.850928 40.365362 
L 198.318983 44.501763 
L 198.787037 48.500584 
L 199.255092 52.364491 
L 199.723147 56.096127 
L 200.191202 59.698113 
L 200.659256 63.173047 
L 201.127311 66.523503 
L 201.595366 69.752035 
L 202.06342 72.861174 
L 202.531475 75.853426 
L 202.99953 78.731277 
L 203.467585 81.497189 
L 203.935639 84.153602 
L 204.403694 86.702934 
L 204.871749 89.147578 
L 205.339803 91.489908 
L 205.807858 93.732273 
L 206.275913 95.876999 
L 206.743968 97.92639 
L 207.212022 99.88273 
L 207.680077 101.748276 
L 208.148132 103.525265 
L 208.616186 105.215912 
L 209.084241 106.822407 
L 209.552296 108.346919 
L 210.020351 109.791595 
L 210.488405 111.158558 
L 210.95646 112.449909 
L 211.424515 113.667727 
L 211.892569 114.814066 
L 212.360624 115.890962 
L 212.828679 116.900423 
L 213.296734 117.844438 
L 213.764788 118.724974 
L 214.232843 119.543971 
L 214.700898 120.303351 
L 215.168952 121.005012 
L 215.637007 121.650828 
L 216.105062 122.242652 
L 216.573116 122.782314 
L 217.041171 123.271621 
L 217.509226 123.712358 
L 217.977281 124.106287 
L 218.445335 124.455147 
L 218.91339 124.760656 
L 219.381445 125.024508 
L 219.849499 125.248374 
L 220.317554 125.433904 
L 220.785609 125.582724 
L 221.253664 125.696439 
L 221.721718 125.776629 
L 222.189773 125.824853 
L 222.657828 125.842649 
L 223.125882 125.831528 
L 223.593937 125.792983 
L 224.061992 125.728482 
L 224.530047 125.63947 
L 224.998101 125.527372 
L 225.466156 125.393586 
L 225.934211 125.239493 
L 226.402265 125.066446 
L 226.87032 124.875779 
L 227.338375 124.668803 
L 227.80643 124.446804 
L 228.274484 124.211049 
L 228.742539 123.962779 
L 229.210594 123.703215 
L 229.678648 123.433553 
L 230.146703 123.15497 
L 230.614758 122.868616 
L 231.082813 122.575621 
L 231.550867 122.277092 
L 232.018922 121.974115 
L 232.486977 121.667749 
L 232.955031 121.359036 
L 233.423086 121.048991 
L 233.891141 120.738608 
L 234.359196 120.428858 
L 234.82725 120.120692 
L 235.295305 119.815034 
L 235.76336 119.512788 
L 236.231414 119.214837 
L 236.699469 118.922037 
L 237.167524 118.635225 
L 237.635579 118.355214 
L 238.103633 118.082795 
L 238.571688 117.818736 
L 239.039743 117.563782 
L 239.507797 117.318657 
L 239.975852 117.084061 
L 240.443907 116.860671 
L 240.911962 116.649142 
L 241.380016 116.450108 
L 241.848071 116.264178 
L 242.316126 116.09194 
L 242.78418 115.933957 
L 243.252235 115.790774 
L 243.72029 115.662908 
L 244.188345 115.550858 
L 244.656399 115.455096 
L 245.124454 115.376077 
L 245.592509 115.314228 
L 246.060563 115.269956 
L 246.528618 115.243645 
L 246.996673 115.235657 
L 247.464728 115.246331 
L 247.932782 115.275982 
L 248.400837 115.324905 
L 248.868892 115.393371 
L 249.336946 115.481628 
L 249.805001 115.589902 
L 250.273056 115.718396 
L 250.741111 115.867292 
L 251.209165 116.036747 
L 251.67722 116.226896 
L 252.145275 116.437854 
L 252.613329 116.669709 
L 253.081384 116.922531 
L 253.549439 117.196363 
L 254.017493 117.49123 
L 254.485548 117.807129 
L 254.953603 118.14404 
L 255.421658 118.501917 
L 255.889712 118.880692 
L 256.357767 119.280275 
L 256.825822 119.700553 
L 257.293876 120.14139 
L 257.761931 120.602628 
L 258.229986 121.084086 
L 258.698041 121.585562 
L 259.166095 122.106828 
L 259.63415 122.647638 
L 260.102205 123.207719 
L 260.570259 123.786777 
L 261.038314 124.384498 
L 261.506369 125.000541 
L 261.974424 125.634545 
L 262.442478 126.286127 
L 262.910533 126.954879 
L 263.378588 127.640373 
L 263.846642 128.342156 
L 264.314697 129.059754 
L 264.782752 129.79267 
L 265.250807 130.540385 
L 265.718861 131.302356 
L 266.186916 132.078018 
L 266.654971 132.866785 
L 267.123025 133.668045 
L 267.59108 134.481168 
L 268.059135 135.305497 
L 268.52719 136.140354 
L 268.995244 136.98504 
L 269.463299 137.838832 
L 269.931354 138.700983 
L 270.399408 139.570726 
L 270.867463 140.447271 
L 271.335518 141.329803 
L 271.803573 142.217487 
L 272.271627 143.109465 
L 272.739682 144.004856 
L 273.207737 144.902755 
L 273.675791 145.802236 
L 274.143846 146.702352 
L 274.611901 147.60213 
L 275.079956 148.500576 
L 275.54801 149.396673 
L 276.016065 150.289383 
L 276.48412 151.177644 
L 276.952174 152.060371 
L 277.420229 152.936458 
L 277.888284 153.804774 
L 278.356339 154.664168 
L 278.824393 155.513465 
L 279.292448 156.351467 
L 279.760503 157.176955 
L 280.228557 157.988686 
L 280.696612 158.785395 
L 281.164667 159.565794 
L 281.632722 160.328573 
L 282.100776 161.072399 
L 282.568831 161.795917 
L 283.036886 162.497748 
L 283.50494 163.176492 
L 283.972995 163.830726 
L 284.44105 164.459003 
L 284.909105 165.059856 
L 285.377159 165.631793 
L 285.845214 166.173301 
L 286.313269 166.682843 
L 286.781323 167.158861 
L 287.249378 167.599773 
L 287.717433 168.003976 
L 288.185487 168.369842 
L 288.653542 168.695723 
L 289.121597 168.979947 
L 289.589652 169.220819 
L 290.057706 169.416622 
L 290.525761 169.565618 
L 290.993816 169.666043 
L 291.46187 169.716114 
L 291.929925 169.714022 
L 292.39798 169.657938 
L 292.866035 169.54601 
L 293.334089 169.376362 
L 293.802144 169.147097 
L 294.270199 168.856295 
L 294.738253 168.502012 
L 295.206308 168.082283 
L 295.674363 167.59512 
L 296.142418 167.038513 
L 296.610472 166.410427 
L 297.078527 165.708809 
L 297.546582 164.931578 
L 298.014636 164.076635 
L 298.482691 163.141855 
L 298.950746 162.125092 
L 299.418801 161.024178 
L 299.886855 159.836921 
L 300.35491 158.561108 
L 300.822965 157.194501 
L 301.291019 155.734841 
L 301.759074 154.179848 
L 302.227129 152.527216 
L 302.695184 150.774619 
L 303.163238 148.919706 
L 303.631293 146.960107 
L 304.099348 144.893426 
L 304.567402 142.717247 
L 305.035457 140.429128 
L 305.503512 138.026608 
L 305.971567 135.507202 
L 306.439621 132.868403 
L 306.907676 130.107679 
L 307.375731 127.222478 
L 307.843785 124.210224 
L 308.31184 121.068321 
L 308.779895 117.794146 
L 309.24795 114.385058 
L 309.716004 110.838389 
L 310.184059 107.151452 
L 310.652114 103.321536 
L 311.120168 99.345907 
L 311.588223 95.22181 
L 312.056278 90.946464 
L 312.524333 86.51707 
L 312.992387 81.930803 
L 313.460442 77.184816 
L 313.928497 72.276241 
L 314.396551 67.202186 
L 314.864606 61.959736 
L 315.332661 56.545955 
L 315.800716 50.957883 
L 316.26877 45.192538 
L 316.736825 39.246916 
L 317.20488 33.117989 
L 317.672934 26.802708 
L 318.140989 20.298 
L 318.609044 13.600769 
L 319.077099 6.7079 
L 319.545153 -0.38375 
L 320.013208 -7.677342 
L 320.481263 -15.176062 
L 320.949317 -22.883118 
L 321.417372 -30.801741 
L 321.885427 -38.935183 
L 322.353481 -47.28672 
L 322.821536 -55.859651 
L 323.289591 -64.657296 
L 323.757646 -73.683 
L 323.757646 184.41028 
L 323.757646 184.41028 
L 323.289591 184.41028 
L 322.821536 184.41028 
L 322.353481 184.41028 
L 321.885427 184.41028 
L 321.417372 184.41028 
L 320.949317 184.41028 
L 320.481263 184.41028 
L 320.013208 184.41028 
L 319.545153 184.41028 
L 319.077099 184.41028 
L 318.609044 184.41028 
L 318.140989 184.41028 
L 317.672934 184.41028 
L 317.20488 184.41028 
L 316.736825 184.41028 
L 316.26877 184.41028 
L 315.800716 184.41028 
L 315.332661 184.41028 
L 314.864606 184.41028 
L 314.396551 184.41028 
L 313.928497 184.41028 
L 313.460442 184.41028 
L 312.992387 184.41028 
L 312.524333 184.41028 
L 312.056278 184.41028 
L 311.588223 184.41028 
L 311.120168 184.41028 
L 310.652114 184.41028 
L 310.184059 184.41028 
L 309.716004 184.41028 
L 309.24795 184.41028 
L 308.779895 184.41028 
L 308.31184 184.41028 
L 307.843785 184.41028 
L 307.375731 184.41028 
L 306.907676 184.41028 
L 306.439621 184.41028 
L 305.971567 184.41028 
L 305.503512 184.41028 
L 305.035457 184.41028 
L 304.567402 184.41028 
L 304.099348 184.41028 
L 303.631293 184.41028 
L 303.163238 184.41028 
L 302.695184 184.41028 
L 302.227129 184.41028 
L 301.759074 184.41028 
L 301.291019 184.41028 
L 300.822965 184.41028 
L 300.35491 184.41028 
L 299.886855 184.41028 
L 299.418801 184.41028 
L 298.950746 184.41028 
L 298.482691 184.41028 
L 298.014636 184.41028 
L 297.546582 184.41028 
L 297.078527 184.41028 
L 296.610472 184.41028 
L 296.142418 184.41028 
L 295.674363 184.41028 
L 295.206308 184.41028 
L 294.738253 184.41028 
L 294.270199 184.41028 
L 293.802144 184.41028 
L 293.334089 184.41028 
L 292.866035 184.41028 
L 292.39798 184.41028 
L 291.929925 184.41028 
L 291.46187 184.41028 
L 290.993816 184.41028 
L 290.525761 184.41028 
L 290.057706 184.41028 
L 289.589652 184.41028 
L 289.121597 184.41028 
L 288.653542 184.41028 
L 288.185487 184.41028 
L 287.717433 184.41028 
L 287.249378 184.41028 
L 286.781323 184.41028 
L 286.313269 184.41028 
L 285.845214 184.41028 
L 285.377159 184.41028 
L 284.909105 184.41028 
L 284.44105 184.41028 
L 283.972995 184.41028 
L 283.50494 184.41028 
L 283.036886 184.41028 
L 282.568831 184.41028 
L 282.100776 184.41028 
L 281.632722 184.41028 
L 281.164667 184.41028 
L 280.696612 184.41028 
L 280.228557 184.41028 
L 279.760503 184.41028 
L 279.292448 184.41028 
L 278.824393 184.41028 
L 278.356339 184.41028 
L 277.888284 184.41028 
L 277.420229 184.41028 
L 276.952174 184.41028 
L 276.48412 184.41028 
L 276.016065 184.41028 
L 275.54801 184.41028 
L 275.079956 184.41028 
L 274.611901 184.41028 
L 274.143846 184.41028 
L 273.675791 184.41028 
L 273.207737 184.41028 
L 272.739682 184.41028 
L 272.271627 184.41028 
L 271.803573 184.41028 
L 271.335518 184.41028 
L 270.867463 184.41028 
L 270.399408 184.41028 
L 269.931354 184.41028 
L 269.463299 184.41028 
L 268.995244 184.41028 
L 268.52719 184.41028 
L 268.059135 184.41028 
L 267.59108 184.41028 
L 267.123025 184.41028 
L 266.654971 184.41028 
L 266.186916 184.41028 
L 265.718861 184.41028 
L 265.250807 184.41028 
L 264.782752 184.41028 
L 264.314697 184.41028 
L 263.846642 184.41028 
L 263.378588 184.41028 
L 262.910533 184.41028 
L 262.442478 184.41028 
L 261.974424 184.41028 
L 261.506369 184.41028 
L 261.038314 184.41028 
L 260.570259 184.41028 
L 260.102205 184.41028 
L 259.63415 184.41028 
L 259.166095 184.41028 
L 258.698041 184.41028 
L 258.229986 184.41028 
L 257.761931 184.41028 
L 257.293876 184.41028 
L 256.825822 184.41028 
L 256.357767 184.41028 
L 255.889712 184.41028 
L 255.421658 184.41028 
L 254.953603 184.41028 
L 254.485548 184.41028 
L 254.017493 184.41028 
L 253.549439 184.41028 
L 253.081384 184.41028 
L 252.613329 184.41028 
L 252.145275 184.41028 
L 251.67722 184.41028 
L 251.209165 184.41028 
L 250.741111 184.41028 
L 250.273056 184.41028 
L 249.805001 184.41028 
L 249.336946 184.41028 
L 248.868892 184.41028 
L 248.400837 184.41028 
L 247.932782 184.41028 
L 247.464728 184.41028 
L 246.996673 184.41028 
L 246.528618 184.41028 
L 246.060563 184.41028 
L 245.592509 184.41028 
L 245.124454 184.41028 
L 244.656399 184.41028 
L 244.188345 184.41028 
L 243.72029 184.41028 
L 243.252235 184.41028 
L 242.78418 184.41028 
L 242.316126 184.41028 
L 241.848071 184.41028 
L 241.380016 184.41028 
L 240.911962 184.41028 
L 240.443907 184.41028 
L 239.975852 184.41028 
L 239.507797 184.41028 
L 239.039743 184.41028 
L 238.571688 184.41028 
L 238.103633 184.41028 
L 237.635579 184.41028 
L 237.167524 184.41028 
L 236.699469 184.41028 
L 236.231414 184.41028 
L 235.76336 184.41028 
L 235.295305 184.41028 
L 234.82725 184.41028 
L 234.359196 184.41028 
L 233.891141 184.41028 
L 233.423086 184.41028 
L 232.955031 184.41028 
L 232.486977 184.41028 
L 232.018922 184.41028 
L 231.550867 184.41028 
L 231.082813 184.41028 
L 230.614758 184.41028 
L 230.146703 184.41028 
L 229.678648 184.41028 
L 229.210594 184.41028 
L 228.742539 184.41028 
L 228.274484 184.41028 
L 227.80643 184.41028 
L 227.338375 184.41028 
L 226.87032 184.41028 
L 226.402265 184.41028 
L 225.934211 184.41028 
L 225.466156 184.41028 
L 224.998101 184.41028 
L 224.530047 184.41028 
L 224.061992 184.41028 
L 223.593937 184.41028 
L 223.125882 184.41028 
L 222.657828 184.41028 
L 222.189773 184.41028 
L 221.721718 184.41028 
L 221.253664 184.41028 
L 220.785609 184.41028 
L 220.317554 184.41028 
L 219.849499 184.41028 
L 219.381445 184.41028 
L 218.91339 184.41028 
L 218.445335 184.41028 
L 217.977281 184.41028 
L 217.509226 184.41028 
L 217.041171 184.41028 
L 216.573116 184.41028 
L 216.105062 184.41028 
L 215.637007 184.41028 
L 215.168952 184.41028 
L 214.700898 184.41028 
L 214.232843 184.41028 
L 213.764788 184.41028 
L 213.296734 184.41028 
L 212.828679 184.41028 
L 212.360624 184.41028 
L 211.892569 184.41028 
L 211.424515 184.41028 
L 210.95646 184.41028 
L 210.488405 184.41028 
L 210.020351 184.41028 
L 209.552296 184.41028 
L 209.084241 184.41028 
L 208.616186 184.41028 
L 208.148132 184.41028 
L 207.680077 184.41028 
L 207.212022 184.41028 
L 206.743968 184.41028 
L 206.275913 184.41028 
L 205.807858 184.41028 
L 205.339803 184.41028 
L 204.871749 184.41028 
L 204.403694 184.41028 
L 203.935639 184.41028 
L 203.467585 184.41028 
L 202.99953 184.41028 
L 202.531475 184.41028 
L 202.06342 184.41028 
L 201.595366 184.41028 
L 201.127311 184.41028 
L 200.659256 184.41028 
L 200.191202 184.41028 
L 199.723147 184.41028 
L 199.255092 184.41028 
L 198.787037 184.41028 
L 198.318983 184.41028 
L 197.850928 184.41028 
L 197.382873 184.41028 
L 196.914819 184.41028 
L 196.446764 184.41028 
L 195.978709 184.41028 
L 195.510654 184.41028 
L 195.0426 184.41028 
L 194.574545 184.41028 
L 194.10649 184.41028 
L 193.638436 184.41028 
L 193.170381 184.41028 
L 192.702326 184.41028 
L 192.234271 184.41028 
L 191.766217 184.41028 
L 191.298162 184.41028 
L 190.830107 184.41028 
L 190.362053 184.41028 
L 189.893998 184.41028 
L 189.425943 184.41028 
L 188.957888 184.41028 
L 188.489834 184.41028 
L 188.021779 184.41028 
L 187.553724 184.41028 
L 187.08567 184.41028 
L 186.617615 184.41028 
L 186.14956 184.41028 
L 185.681505 184.41028 
L 185.213451 184.41028 
L 184.745396 184.41028 
L 184.277341 184.41028 
L 183.809287 184.41028 
z
" clip-path="url(#p6f16a4bc3f)" style="fill: #b0bec5; fill-opacity: 0.08; stroke: #b0bec5; stroke-opacity: 0.08"/>
   </g>
   <g id="matplotlib.axis_3">
    <g id="xtick_6">
     <g id="line2d_8">
      <g>
       <use xlink:href="#m3303910962" x="183.809287" y="190.812" style="fill: #6f7f86; stroke: #6f7f86; stroke-width: 0.8"/>
      </g>
     </g>
     <g id="text_9">
      <text style="font-size: 8.5px; font-family: 'Arial'; text-anchor: middle; fill: #6f7f86" x="183.809287" y="203.396141" transform="rotate(-0 183.809287 203.396141)">−2</text>
     </g>
    </g>
    <g id="xtick_7">
     <g id="line2d_9">
      <g>
       <use xlink:href="#m3303910962" x="218.796376" y="190.812" style="fill: #6f7f86; stroke: #6f7f86; stroke-width: 0.8"/>
      </g>
     </g>
     <g id="text_10">
      <text style="font-size: 8.5px; font-family: 'Arial'; text-anchor: middle; fill: #6f7f86" x="218.796376" y="203.396141" transform="rotate(-0 218.796376 203.396141)">−1</text>
     </g>
    </g>
    <g id="xtick_8">
     <g id="line2d_10">
      <g>
       <use xlink:href="#m3303910962" x="253.783466" y="190.812" style="fill: #6f7f86; stroke: #6f7f86; stroke-width: 0.8"/>
      </g>
     </g>
     <g id="text_11">
      <text style="font-size: 8.5px; font-family: 'Arial'; text-anchor: middle; fill: #6f7f86" x="253.783466" y="203.396141" transform="rotate(-0 253.783466 203.396141)">0</text>
     </g>
    </g>
    <g id="xtick_9">
     <g id="line2d_11">
      <g>
       <use xlink:href="#m3303910962" x="288.770556" y="190.812" style="fill: #6f7f86; stroke: #6f7f86; stroke-width: 0.8"/>
      </g>
     </g>
     <g id="text_12">
      <text style="font-size: 8.5px; font-family: 'Arial'; text-anchor: middle; fill: #6f7f86" x="288.770556" y="203.396141" transform="rotate(-0 288.770556 203.396141)">1</text>
     </g>
    </g>
    <g id="xtick_10">
     <g id="line2d_12">
      <g>
       <use xlink:href="#m3303910962" x="323.757646" y="190.812" style="fill: #6f7f86; stroke: #6f7f86; stroke-width: 0.8"/>
      </g>
     </g>
     <g id="text_13">
      <text style="font-size: 8.5px; font-family: 'Arial'; text-anchor: middle; fill: #6f7f86" x="323.757646" y="203.396141" transform="rotate(-0 323.757646 203.396141)">2</text>
     </g>
    </g>
    <g id="text_14">
     <!-- $x$ -->
     <g style="fill: #263238" transform="translate(250.333466 217.317)">
      <text>
       <tspan x="0" y="-0.4375" style="font-style: oblique; font-size: 11.5px; font-family: 'DejaVu Sans'; fill: #263238">x</tspan>
      </text>
     </g>
    </g>
   </g>
   <g id="matplotlib.axis_4"/>
   <g id="line2d_13">
    <path d="M 193.851626 -1 
L 195.510654 17.524775 
L 197.382873 36.088693 
L 199.255092 52.364491 
L 201.127311 66.523503 
L 202.99953 78.731277 
L 204.871749 89.147578 
L 206.275913 95.876999 
L 207.680077 101.748276 
L 209.084241 106.822407 
L 210.488405 111.158558 
L 211.892569 114.814066 
L 213.296734 117.844438 
L 214.700898 120.303351 
L 216.105062 122.242652 
L 217.509226 123.712358 
L 218.91339 124.760656 
L 220.317554 125.433904 
L 221.721718 125.776629 
L 223.125882 125.831528 
L 224.530047 125.63947 
L 225.934211 125.239493 
L 227.80643 124.446804 
L 230.146703 123.15497 
L 233.891141 120.738608 
L 238.103633 118.082795 
L 240.443907 116.860671 
L 242.316126 116.09194 
L 244.188345 115.550858 
L 246.060563 115.269956 
L 247.932782 115.275982 
L 249.336946 115.481628 
L 250.741111 115.867292 
L 252.145275 116.437854 
L 253.549439 117.196363 
L 255.421658 118.501917 
L 257.293876 120.14139 
L 259.166095 122.106828 
L 261.038314 124.384498 
L 263.378588 127.640373 
L 265.718861 131.302356 
L 268.52719 136.140354 
L 272.271627 143.109465 
L 279.292448 156.351467 
L 281.632722 160.328573 
L 283.50494 163.176492 
L 285.377159 165.631793 
L 286.781323 167.158861 
L 288.185487 168.369842 
L 289.589652 169.220819 
L 290.525761 169.565618 
L 291.46187 169.716114 
L 292.39798 169.657938 
L 293.334089 169.376362 
L 294.270199 168.856295 
L 295.206308 168.082283 
L 296.142418 167.038513 
L 297.078527 165.708809 
L 298.014636 164.076635 
L 299.418801 161.024178 
L 300.822965 157.194501 
L 302.227129 152.527216 
L 303.631293 146.960107 
L 305.035457 140.429128 
L 306.439621 132.868403 
L 307.843785 124.210224 
L 309.24795 114.385058 
L 310.652114 103.321536 
L 312.524333 86.51707 
L 314.396551 67.202186 
L 316.26877 45.192538 
L 318.140989 20.298 
L 319.5847 -1 
L 319.5847 -1 
" clip-path="url(#p6f16a4bc3f)" style="fill: none; stroke: #b0bec5; stroke-width: 2.5; stroke-linecap: square"/>
   </g>
   <g id="patch_6">
    <path d="M 181.010319 190.812 
L 181.010319 58.5645 
" style="fill: none; stroke: #b6c2c8; stroke-width: 0.8; stroke-linejoin: miter; stroke-linecap: square"/>
   </g>
   <g id="patch_7">
    <path d="M 181.010319 190.812 
L 326.556613 190.812 
" style="fill: none; stroke: #b6c2c8; stroke-width: 0.8; stroke-linejoin: miter; stroke-linecap: square"/>
   </g>
   <g id="text_15">
    <!-- $\lambda = 0.5$ -->
    <g style="fill: #b0bec5" transform="translate(238.097466 52.5645)">
     <text>
      <tspan x="0" y="-0.15625" style="font-style: oblique; font-size: 9.2px; font-family: 'DejaVu Sans'; fill: #b0bec5">λ</tspan>
      <tspan x="7.276245" y="-0.15625" style="font-size: 9.2px; font-family: 'DejaVu Sans'; fill: #b0bec5">=</tspan>
      <tspan x="16.828857" y="-0.15625" style="font-size: 9.2px; font-family: 'DejaVu Sans'; fill: #b0bec5">0</tspan>
      <tspan x="22.713989" y="-0.15625" style="font-size: 9.2px; font-family: 'DejaVu Sans'; fill: #b0bec5">.</tspan>
      <tspan x="25.654297" y="-0.15625" style="font-size: 9.2px; font-family: 'DejaVu Sans'; fill: #b0bec5">5</tspan>
     </text>
    </g>
   </g>
   <g id="line2d_14">
    <defs>
     <path id="mff9dad3e6c" d="M 0 5 
C 1.326016 5 2.597899 4.473168 3.535534 3.535534 
C 4.473168 2.597899 5 1.326016 5 0 
C 5 -1.326016 4.473168 -2.597899 3.535534 -3.535534 
C 2.597899 -4.473168 1.326016 -5 0 -5 
C -1.326016 -5 -2.597899 -4.473168 -3.535534 -3.535534 
C -4.473168 -2.597899 -5 -1.326016 -5 0 
C -5 1.326016 -4.473168 2.597899 -3.535534 3.535534 
C -2.597899 4.473168 -1.326016 5 0 5 
z
" style="stroke: #263238; stroke-opacity: 0.6"/>
    </defs>
    <g clip-path="url(#p6f16a4bc3f)">
     <use xlink:href="#mff9dad3e6c" x="257.282175" y="115.73314" style="fill: #263238; fill-opacity: 0.6; stroke: #263238; stroke-opacity: 0.6"/>
    </g>
   </g>
  </g>
  <g id="axes_3">
   <g id="patch_8">
    <path d="M 341.218061 190.812 
L 486.764354 190.812 
L 486.764354 58.5645 
L 341.218061 58.5645 
z
" style="fill: #ffffff"/>
   </g>
   <g id="FillBetweenPolyCollection_3">
    <path d="M 344.017028 209.056389 
L 344.017028 -205.9305 
L 344.485083 -196.020198 
L 344.953137 -186.337953 
L 345.421192 -176.880424 
L 345.889247 -167.644288 
L 346.357302 -158.626247 
L 346.825356 -149.823026 
L 347.293411 -141.231372 
L 347.761466 -132.848053 
L 348.22952 -124.669862 
L 348.697575 -116.693614 
L 349.16563 -108.916145 
L 349.633685 -101.334316 
L 350.101739 -93.945009 
L 350.569794 -86.745129 
L 351.037849 -79.731604 
L 351.505903 -72.901383 
L 351.973958 -66.25144 
L 352.442013 -59.778769 
L 352.910067 -53.48039 
L 353.378122 -47.353341 
L 353.846177 -41.394687 
L 354.314232 -35.601513 
L 354.782286 -29.970928 
L 355.250341 -24.500062 
L 355.718396 -19.186069 
L 356.18645 -14.026125 
L 356.654505 -9.017429 
L 357.12256 -4.157201 
L 357.590615 0.557313 
L 358.058669 5.128849 
L 358.526724 9.560116 
L 358.994779 13.853804 
L 359.462833 18.012577 
L 359.930888 22.039079 
L 360.398943 25.935931 
L 360.866998 29.705731 
L 361.335052 33.351053 
L 361.803107 36.874452 
L 362.271162 40.278456 
L 362.739216 43.565575 
L 363.207271 46.738292 
L 363.675326 49.79907 
L 364.143381 52.75035 
L 364.611435 55.594547 
L 365.07949 58.334058 
L 365.547545 60.971254 
L 366.015599 63.508485 
L 366.483654 65.948077 
L 366.951709 68.292335 
L 367.419764 70.543541 
L 367.887818 72.703953 
L 368.355873 74.775809 
L 368.823928 76.761321 
L 369.291982 78.662683 
L 369.760037 80.482061 
L 370.228092 82.221604 
L 370.696147 83.883433 
L 371.164201 85.46965 
L 371.632256 86.982334 
L 372.100311 88.42354 
L 372.568365 89.795301 
L 373.03642 91.099629 
L 373.504475 92.33851 
L 373.97253 93.513912 
L 374.440584 94.627775 
L 374.908639 95.682022 
L 375.376694 96.678549 
L 375.844748 97.619231 
L 376.312803 98.505921 
L 376.780858 99.340449 
L 377.248913 100.124623 
L 377.716967 100.860226 
L 378.185022 101.549021 
L 378.653077 102.192748 
L 379.121131 102.793123 
L 379.589186 103.35184 
L 380.057241 103.870573 
L 380.525296 104.350969 
L 380.99335 104.794655 
L 381.461405 105.203236 
L 381.92946 105.578293 
L 382.397514 105.921384 
L 382.865569 106.234045 
L 383.333624 106.517791 
L 383.801679 106.774112 
L 384.269733 107.004477 
L 384.737788 107.210332 
L 385.205843 107.393099 
L 385.673897 107.55418 
L 386.141952 107.694952 
L 386.610007 107.816772 
L 387.078061 107.920972 
L 387.546116 108.008861 
L 388.014171 108.081729 
L 388.482226 108.14084 
L 388.95028 108.187436 
L 389.418335 108.222738 
L 389.88639 108.247943 
L 390.354444 108.264225 
L 390.822499 108.272738 
L 391.290554 108.274609 
L 391.758609 108.270947 
L 392.226663 108.262835 
L 392.694718 108.251336 
L 393.162773 108.237489 
L 393.630827 108.22231 
L 394.098882 108.206793 
L 394.566937 108.19191 
L 395.034992 108.17861 
L 395.503046 108.167818 
L 395.971101 108.160439 
L 396.439156 108.157353 
L 396.90721 108.15942 
L 397.375265 108.167474 
L 397.84332 108.182329 
L 398.311375 108.204777 
L 398.779429 108.235584 
L 399.247484 108.275496 
L 399.715539 108.325237 
L 400.183593 108.385507 
L 400.651648 108.456984 
L 401.119703 108.540321 
L 401.587758 108.636153 
L 402.055812 108.74509 
L 402.523867 108.867717 
L 402.991922 109.004601 
L 403.459976 109.156284 
L 403.928031 109.323284 
L 404.396086 109.5061 
L 404.864141 109.705205 
L 405.332195 109.921052 
L 405.80025 110.154069 
L 406.268305 110.404663 
L 406.736359 110.673219 
L 407.204414 110.960097 
L 407.672469 111.265637 
L 408.140524 111.590154 
L 408.608578 111.933944 
L 409.076633 112.297276 
L 409.544688 112.680399 
L 410.012742 113.083539 
L 410.480797 113.5069 
L 410.948852 113.950662 
L 411.416907 114.414983 
L 411.884961 114.899998 
L 412.353016 115.405822 
L 412.821071 115.932544 
L 413.289125 116.480231 
L 413.75718 117.04893 
L 414.225235 117.638663 
L 414.69329 118.249429 
L 415.161344 118.881206 
L 415.629399 119.533949 
L 416.097454 120.20759 
L 416.565508 120.902039 
L 417.033563 121.617183 
L 417.501618 122.352886 
L 417.969673 123.108991 
L 418.437727 123.885315 
L 418.905782 124.681657 
L 419.373837 125.49779 
L 419.841891 126.333466 
L 420.309946 127.188413 
L 420.778001 128.062338 
L 421.246056 128.954924 
L 421.71411 129.865834 
L 422.182165 130.794704 
L 422.65022 131.741152 
L 423.118274 132.70477 
L 423.586329 133.68513 
L 424.054384 134.681779 
L 424.522438 135.694244 
L 424.990493 136.722026 
L 425.458548 137.764607 
L 425.926603 138.821444 
L 426.394657 139.891973 
L 426.862712 140.975606 
L 427.330767 142.071733 
L 427.798821 143.179721 
L 428.266876 144.298916 
L 428.734931 145.42864 
L 429.202986 146.568192 
L 429.67104 147.71685 
L 430.139095 148.873868 
L 430.60715 150.038477 
L 431.075204 151.209888 
L 431.543259 152.387286 
L 432.011314 153.569837 
L 432.479369 154.756681 
L 432.947423 155.946938 
L 433.415478 157.139703 
L 433.883533 158.334051 
L 434.351587 159.529032 
L 434.819642 160.723676 
L 435.287697 161.916989 
L 435.755752 163.107952 
L 436.223806 164.295529 
L 436.691861 165.478656 
L 437.159916 166.656249 
L 437.62797 167.827202 
L 438.096025 168.990385 
L 438.56408 170.144645 
L 439.032135 171.288808 
L 439.500189 172.421676 
L 439.968244 173.54203 
L 440.436299 174.648627 
L 440.904353 175.740202 
L 441.372408 176.815468 
L 441.840463 177.873113 
L 442.308518 178.911805 
L 442.776572 179.930189 
L 443.244627 180.926887 
L 443.712682 181.900497 
L 444.180736 182.849597 
L 444.648791 183.772741 
L 445.116846 184.66846 
L 445.584901 185.535263 
L 446.052955 186.371637 
L 446.52101 187.176046 
L 446.989065 187.94693 
L 447.457119 188.682708 
L 447.925174 189.381777 
L 448.393229 190.042509 
L 448.861284 190.663256 
L 449.329338 191.242346 
L 449.797393 191.778084 
L 450.265448 192.268754 
L 450.733502 192.712616 
L 451.201557 193.107908 
L 451.669612 193.452844 
L 452.137667 193.745619 
L 452.605721 193.984402 
L 453.073776 194.16734 
L 453.541831 194.292558 
L 454.009885 194.358159 
L 454.47794 194.362223 
L 454.945995 194.302806 
L 455.41405 194.177943 
L 455.882104 193.985647 
L 456.350159 193.723906 
L 456.818214 193.390687 
L 457.286268 192.983934 
L 457.754323 192.50157 
L 458.222378 191.941493 
L 458.690432 191.301579 
L 459.158487 190.579683 
L 459.626542 189.773635 
L 460.094597 188.881244 
L 460.562651 187.900297 
L 461.030706 186.828556 
L 461.498761 185.663763 
L 461.966815 184.403636 
L 462.43487 183.04587 
L 462.902925 181.588139 
L 463.37098 180.028093 
L 463.839034 178.36336 
L 464.307089 176.591545 
L 464.775144 174.710232 
L 465.243198 172.716979 
L 465.711253 170.609326 
L 466.179308 168.384786 
L 466.647363 166.040852 
L 467.115417 163.574995 
L 467.583472 160.98466 
L 468.051527 158.267273 
L 468.519581 155.420236 
L 468.987636 152.440927 
L 469.455691 149.326705 
L 469.923746 146.074902 
L 470.3918 142.682832 
L 470.859855 139.147782 
L 471.32791 135.467019 
L 471.795964 131.637788 
L 472.264019 127.657309 
L 472.732074 123.522781 
L 473.200129 119.231379 
L 473.668183 114.780259 
L 474.136238 110.16655 
L 474.604293 105.387361 
L 475.072347 100.439778 
L 475.540402 95.320863 
L 476.008457 90.027657 
L 476.476512 84.557179 
L 476.944566 78.906423 
L 477.412621 73.072362 
L 477.880676 67.051947 
L 478.34873 60.842105 
L 478.816785 54.439741 
L 479.28484 47.841737 
L 479.752895 41.044954 
L 480.220949 34.046228 
L 480.689004 26.842374 
L 481.157059 19.430185 
L 481.625113 11.806428 
L 482.093168 3.967853 
L 482.561223 -4.088819 
L 483.029278 -12.366883 
L 483.497332 -20.869663 
L 483.965387 -29.6005 
L 483.965387 209.056389 
L 483.965387 209.056389 
L 483.497332 209.056389 
L 483.029278 209.056389 
L 482.561223 209.056389 
L 482.093168 209.056389 
L 481.625113 209.056389 
L 481.157059 209.056389 
L 480.689004 209.056389 
L 480.220949 209.056389 
L 479.752895 209.056389 
L 479.28484 209.056389 
L 478.816785 209.056389 
L 478.34873 209.056389 
L 477.880676 209.056389 
L 477.412621 209.056389 
L 476.944566 209.056389 
L 476.476512 209.056389 
L 476.008457 209.056389 
L 475.540402 209.056389 
L 475.072347 209.056389 
L 474.604293 209.056389 
L 474.136238 209.056389 
L 473.668183 209.056389 
L 473.200129 209.056389 
L 472.732074 209.056389 
L 472.264019 209.056389 
L 471.795964 209.056389 
L 471.32791 209.056389 
L 470.859855 209.056389 
L 470.3918 209.056389 
L 469.923746 209.056389 
L 469.455691 209.056389 
L 468.987636 209.056389 
L 468.519581 209.056389 
L 468.051527 209.056389 
L 467.583472 209.056389 
L 467.115417 209.056389 
L 466.647363 209.056389 
L 466.179308 209.056389 
L 465.711253 209.056389 
L 465.243198 209.056389 
L 464.775144 209.056389 
L 464.307089 209.056389 
L 463.839034 209.056389 
L 463.37098 209.056389 
L 462.902925 209.056389 
L 462.43487 209.056389 
L 461.966815 209.056389 
L 461.498761 209.056389 
L 461.030706 209.056389 
L 460.562651 209.056389 
L 460.094597 209.056389 
L 459.626542 209.056389 
L 459.158487 209.056389 
L 458.690432 209.056389 
L 458.222378 209.056389 
L 457.754323 209.056389 
L 457.286268 209.056389 
L 456.818214 209.056389 
L 456.350159 209.056389 
L 455.882104 209.056389 
L 455.41405 209.056389 
L 454.945995 209.056389 
L 454.47794 209.056389 
L 454.009885 209.056389 
L 453.541831 209.056389 
L 453.073776 209.056389 
L 452.605721 209.056389 
L 452.137667 209.056389 
L 451.669612 209.056389 
L 451.201557 209.056389 
L 450.733502 209.056389 
L 450.265448 209.056389 
L 449.797393 209.056389 
L 449.329338 209.056389 
L 448.861284 209.056389 
L 448.393229 209.056389 
L 447.925174 209.056389 
L 447.457119 209.056389 
L 446.989065 209.056389 
L 446.52101 209.056389 
L 446.052955 209.056389 
L 445.584901 209.056389 
L 445.116846 209.056389 
L 444.648791 209.056389 
L 444.180736 209.056389 
L 443.712682 209.056389 
L 443.244627 209.056389 
L 442.776572 209.056389 
L 442.308518 209.056389 
L 441.840463 209.056389 
L 441.372408 209.056389 
L 440.904353 209.056389 
L 440.436299 209.056389 
L 439.968244 209.056389 
L 439.500189 209.056389 
L 439.032135 209.056389 
L 438.56408 209.056389 
L 438.096025 209.056389 
L 437.62797 209.056389 
L 437.159916 209.056389 
L 436.691861 209.056389 
L 436.223806 209.056389 
L 435.755752 209.056389 
L 435.287697 209.056389 
L 434.819642 209.056389 
L 434.351587 209.056389 
L 433.883533 209.056389 
L 433.415478 209.056389 
L 432.947423 209.056389 
L 432.479369 209.056389 
L 432.011314 209.056389 
L 431.543259 209.056389 
L 431.075204 209.056389 
L 430.60715 209.056389 
L 430.139095 209.056389 
L 429.67104 209.056389 
L 429.202986 209.056389 
L 428.734931 209.056389 
L 428.266876 209.056389 
L 427.798821 209.056389 
L 427.330767 209.056389 
L 426.862712 209.056389 
L 426.394657 209.056389 
L 425.926603 209.056389 
L 425.458548 209.056389 
L 424.990493 209.056389 
L 424.522438 209.056389 
L 424.054384 209.056389 
L 423.586329 209.056389 
L 423.118274 209.056389 
L 422.65022 209.056389 
L 422.182165 209.056389 
L 421.71411 209.056389 
L 421.246056 209.056389 
L 420.778001 209.056389 
L 420.309946 209.056389 
L 419.841891 209.056389 
L 419.373837 209.056389 
L 418.905782 209.056389 
L 418.437727 209.056389 
L 417.969673 209.056389 
L 417.501618 209.056389 
L 417.033563 209.056389 
L 416.565508 209.056389 
L 416.097454 209.056389 
L 415.629399 209.056389 
L 415.161344 209.056389 
L 414.69329 209.056389 
L 414.225235 209.056389 
L 413.75718 209.056389 
L 413.289125 209.056389 
L 412.821071 209.056389 
L 412.353016 209.056389 
L 411.884961 209.056389 
L 411.416907 209.056389 
L 410.948852 209.056389 
L 410.480797 209.056389 
L 410.012742 209.056389 
L 409.544688 209.056389 
L 409.076633 209.056389 
L 408.608578 209.056389 
L 408.140524 209.056389 
L 407.672469 209.056389 
L 407.204414 209.056389 
L 406.736359 209.056389 
L 406.268305 209.056389 
L 405.80025 209.056389 
L 405.332195 209.056389 
L 404.864141 209.056389 
L 404.396086 209.056389 
L 403.928031 209.056389 
L 403.459976 209.056389 
L 402.991922 209.056389 
L 402.523867 209.056389 
L 402.055812 209.056389 
L 401.587758 209.056389 
L 401.119703 209.056389 
L 400.651648 209.056389 
L 400.183593 209.056389 
L 399.715539 209.056389 
L 399.247484 209.056389 
L 398.779429 209.056389 
L 398.311375 209.056389 
L 397.84332 209.056389 
L 397.375265 209.056389 
L 396.90721 209.056389 
L 396.439156 209.056389 
L 395.971101 209.056389 
L 395.503046 209.056389 
L 395.034992 209.056389 
L 394.566937 209.056389 
L 394.098882 209.056389 
L 393.630827 209.056389 
L 393.162773 209.056389 
L 392.694718 209.056389 
L 392.226663 209.056389 
L 391.758609 209.056389 
L 391.290554 209.056389 
L 390.822499 209.056389 
L 390.354444 209.056389 
L 389.88639 209.056389 
L 389.418335 209.056389 
L 388.95028 209.056389 
L 388.482226 209.056389 
L 388.014171 209.056389 
L 387.546116 209.056389 
L 387.078061 209.056389 
L 386.610007 209.056389 
L 386.141952 209.056389 
L 385.673897 209.056389 
L 385.205843 209.056389 
L 384.737788 209.056389 
L 384.269733 209.056389 
L 383.801679 209.056389 
L 383.333624 209.056389 
L 382.865569 209.056389 
L 382.397514 209.056389 
L 381.92946 209.056389 
L 381.461405 209.056389 
L 380.99335 209.056389 
L 380.525296 209.056389 
L 380.057241 209.056389 
L 379.589186 209.056389 
L 379.121131 209.056389 
L 378.653077 209.056389 
L 378.185022 209.056389 
L 377.716967 209.056389 
L 377.248913 209.056389 
L 376.780858 209.056389 
L 376.312803 209.056389 
L 375.844748 209.056389 
L 375.376694 209.056389 
L 374.908639 209.056389 
L 374.440584 209.056389 
L 373.97253 209.056389 
L 373.504475 209.056389 
L 373.03642 209.056389 
L 372.568365 209.056389 
L 372.100311 209.056389 
L 371.632256 209.056389 
L 371.164201 209.056389 
L 370.696147 209.056389 
L 370.228092 209.056389 
L 369.760037 209.056389 
L 369.291982 209.056389 
L 368.823928 209.056389 
L 368.355873 209.056389 
L 367.887818 209.056389 
L 367.419764 209.056389 
L 366.951709 209.056389 
L 366.483654 209.056389 
L 366.015599 209.056389 
L 365.547545 209.056389 
L 365.07949 209.056389 
L 364.611435 209.056389 
L 364.143381 209.056389 
L 363.675326 209.056389 
L 363.207271 209.056389 
L 362.739216 209.056389 
L 362.271162 209.056389 
L 361.803107 209.056389 
L 361.335052 209.056389 
L 360.866998 209.056389 
L 360.398943 209.056389 
L 359.930888 209.056389 
L 359.462833 209.056389 
L 358.994779 209.056389 
L 358.526724 209.056389 
L 358.058669 209.056389 
L 357.590615 209.056389 
L 357.12256 209.056389 
L 356.654505 209.056389 
L 356.18645 209.056389 
L 355.718396 209.056389 
L 355.250341 209.056389 
L 354.782286 209.056389 
L 354.314232 209.056389 
L 353.846177 209.056389 
L 353.378122 209.056389 
L 352.910067 209.056389 
L 352.442013 209.056389 
L 351.973958 209.056389 
L 351.505903 209.056389 
L 351.037849 209.056389 
L 350.569794 209.056389 
L 350.101739 209.056389 
L 349.633685 209.056389 
L 349.16563 209.056389 
L 348.697575 209.056389 
L 348.22952 209.056389 
L 347.761466 209.056389 
L 347.293411 209.056389 
L 346.825356 209.056389 
L 346.357302 209.056389 
L 345.889247 209.056389 
L 345.421192 209.056389 
L 344.953137 209.056389 
L 344.485083 209.056389 
L 344.017028 209.056389 
z
" clip-path="url(#pf3ee55fa96)" style="fill: #c0503f; fill-opacity: 0.08; stroke: #c0503f; stroke-opacity: 0.08"/>
   </g>
   <g id="matplotlib.axis_5">
    <g id="xtick_11">
     <g id="line2d_15">
      <g>
       <use xlink:href="#m3303910962" x="344.017028" y="190.812" style="fill: #6f7f86; stroke: #6f7f86; stroke-width: 0.8"/>
      </g>
     </g>
     <g id="text_16">
      <text style="font-size: 8.5px; font-family: 'Arial'; text-anchor: middle; fill: #6f7f86" x="344.017028" y="203.396141" transform="rotate(-0 344.017028 203.396141)">−2</text>
     </g>
    </g>
    <g id="xtick_12">
     <g id="line2d_16">
      <g>
       <use xlink:href="#m3303910962" x="379.004118" y="190.812" style="fill: #6f7f86; stroke: #6f7f86; stroke-width: 0.8"/>
      </g>
     </g>
     <g id="text_17">
      <text style="font-size: 8.5px; font-family: 'Arial'; text-anchor: middle; fill: #6f7f86" x="379.004118" y="203.396141" transform="rotate(-0 379.004118 203.396141)">−1</text>
     </g>
    </g>
    <g id="xtick_13">
     <g id="line2d_17">
      <g>
       <use xlink:href="#m3303910962" x="413.991207" y="190.812" style="fill: #6f7f86; stroke: #6f7f86; stroke-width: 0.8"/>
      </g>
     </g>
     <g id="text_18">
      <text style="font-size: 8.5px; font-family: 'Arial'; text-anchor: middle; fill: #6f7f86" x="413.991207" y="203.396141" transform="rotate(-0 413.991207 203.396141)">0</text>
     </g>
    </g>
    <g id="xtick_14">
     <g id="line2d_18">
      <g>
       <use xlink:href="#m3303910962" x="448.978297" y="190.812" style="fill: #6f7f86; stroke: #6f7f86; stroke-width: 0.8"/>
      </g>
     </g>
     <g id="text_19">
      <text style="font-size: 8.5px; font-family: 'Arial'; text-anchor: middle; fill: #6f7f86" x="448.978297" y="203.396141" transform="rotate(-0 448.978297 203.396141)">1</text>
     </g>
    </g>
    <g id="xtick_15">
     <g id="line2d_19">
      <g>
       <use xlink:href="#m3303910962" x="483.965387" y="190.812" style="fill: #6f7f86; stroke: #6f7f86; stroke-width: 0.8"/>
      </g>
     </g>
     <g id="text_20">
      <text style="font-size: 8.5px; font-family: 'Arial'; text-anchor: middle; fill: #6f7f86" x="483.965387" y="203.396141" transform="rotate(-0 483.965387 203.396141)">2</text>
     </g>
    </g>
    <g id="text_21">
     <!-- $x$ -->
     <g style="fill: #263238" transform="translate(410.541207 217.317)">
      <text>
       <tspan x="0" y="-0.4375" style="font-style: oblique; font-size: 11.5px; font-family: 'DejaVu Sans'; fill: #263238">x</tspan>
      </text>
     </g>
    </g>
   </g>
   <g id="matplotlib.axis_6"/>
   <g id="line2d_20">
    <path d="M 357.436005 -1 
L 358.994779 13.853804 
L 360.866998 29.705731 
L 362.739216 43.565575 
L 364.611435 55.594547 
L 366.483654 65.948077 
L 368.355873 74.775809 
L 369.760037 80.482061 
L 371.164201 85.46965 
L 372.568365 89.795301 
L 373.97253 93.513912 
L 375.376694 96.678549 
L 376.780858 99.340449 
L 378.185022 101.549021 
L 379.589186 103.35184 
L 380.99335 104.794655 
L 382.397514 105.921384 
L 383.801679 106.774112 
L 385.205843 107.393099 
L 387.078061 107.920972 
L 388.95028 108.187436 
L 391.290554 108.274609 
L 399.247484 108.275496 
L 401.119703 108.540321 
L 402.991922 109.004601 
L 404.864141 109.705205 
L 406.736359 110.673219 
L 408.608578 111.933944 
L 410.480797 113.5069 
L 412.353016 115.405822 
L 414.225235 117.638663 
L 416.097454 120.20759 
L 417.969673 123.108991 
L 420.309946 127.188413 
L 422.65022 131.741152 
L 425.458548 137.764607 
L 428.734931 145.42864 
L 432.947423 155.946938 
L 439.968244 173.54203 
L 442.776572 179.930189 
L 445.116846 184.66846 
L 446.989065 187.94693 
L 448.393229 190.042509 
L 449.797393 191.778084 
L 451.201557 193.107908 
L 452.137667 193.745619 
L 453.073776 194.16734 
L 454.009885 194.358159 
L 454.945995 194.302806 
L 455.882104 193.985647 
L 456.818214 193.390687 
L 457.754323 192.50157 
L 458.690432 191.301579 
L 459.626542 189.773635 
L 460.562651 187.900297 
L 461.498761 185.663763 
L 462.902925 181.588139 
L 464.307089 176.591545 
L 465.711253 170.609326 
L 467.115417 163.574995 
L 468.519581 155.420236 
L 469.923746 146.074902 
L 471.32791 135.467019 
L 472.732074 123.522781 
L 474.604293 105.387361 
L 476.476512 84.557179 
L 478.34873 60.842105 
L 480.220949 34.046228 
L 482.093168 3.967853 
L 482.381777 -1 
L 482.381777 -1 
" clip-path="url(#pf3ee55fa96)" style="fill: none; stroke: #c0503f; stroke-width: 2.5; stroke-linecap: square"/>
   </g>
   <g id="patch_9">
    <path d="M 341.218061 190.812 
L 341.218061 58.5645 
" style="fill: none; stroke: #b6c2c8; stroke-width: 0.8; stroke-linejoin: miter; stroke-linecap: square"/>
   </g>
   <g id="patch_10">
    <path d="M 341.218061 190.812 
L 486.764354 190.812 
" style="fill: none; stroke: #b6c2c8; stroke-width: 0.8; stroke-linejoin: miter; stroke-linecap: square"/>
   </g>
   <g id="text_22">
    <!-- $\lambda = 1$ (state B) -->
    <g style="fill: #c0503f" transform="translate(382.987207 52.5645)">
     <text>
      <tspan x="0" y="-0.15625" style="font-style: oblique; font-size: 9.2px; font-family: 'DejaVu Sans'; fill: #c0503f">λ</tspan>
      <tspan x="7.276245" y="-0.15625" style="font-size: 9.2px; font-family: 'DejaVu Sans'; fill: #c0503f">=</tspan>
      <tspan x="16.828857" y="-0.15625" style="font-size: 9.2px; font-family: 'DejaVu Sans'; fill: #c0503f">1</tspan>
      <tspan x="22.713989" y="-0.15625" style="font-weight: 700; font-size: 9.2px; font-family: 'Arial'; fill: #c0503f"> </tspan>
      <tspan x="25.283936" y="-0.15625" style="font-weight: 700; font-size: 9.2px; font-family: 'Arial'; fill: #c0503f">(</tspan>
      <tspan x="28.364258" y="-0.15625" style="font-weight: 700; font-size: 9.2px; font-family: 'Arial'; fill: #c0503f">s</tspan>
      <tspan x="33.508667" y="-0.15625" style="font-weight: 700; font-size: 9.2px; font-family: 'Arial'; fill: #c0503f">t</tspan>
      <tspan x="36.588989" y="-0.15625" style="font-weight: 700; font-size: 9.2px; font-family: 'Arial'; fill: #c0503f">a</tspan>
      <tspan x="41.733398" y="-0.15625" style="font-weight: 700; font-size: 9.2px; font-family: 'Arial'; fill: #c0503f">t</tspan>
      <tspan x="44.813721" y="-0.15625" style="font-weight: 700; font-size: 9.2px; font-family: 'Arial'; fill: #c0503f">e</tspan>
      <tspan x="49.95813" y="-0.15625" style="font-weight: 700; font-size: 9.2px; font-family: 'Arial'; fill: #c0503f"> </tspan>
      <tspan x="52.528076" y="-0.15625" style="font-weight: 700; font-size: 9.2px; font-family: 'Arial'; fill: #c0503f">B</tspan>
      <tspan x="59.20813" y="-0.15625" style="font-weight: 700; font-size: 9.2px; font-family: 'Arial'; fill: #c0503f">)</tspan>
     </text>
    </g>
   </g>
   <g id="line2d_21">
    <defs>
     <path id="m7d55c39d83" d="M 0 5 
C 1.326016 5 2.597899 4.473168 3.535534 3.535534 
C 4.473168 2.597899 5 1.326016 5 0 
C 5 -1.326016 4.473168 -2.597899 3.535534 -3.535534 
C 2.597899 -4.473168 1.326016 -5 0 -5 
C -1.326016 -5 -2.597899 -4.473168 -3.535534 -3.535534 
C -4.473168 -2.597899 -5 -1.326016 -5 0 
C -5 1.326016 -4.473168 2.597899 -3.535534 3.535534 
C -2.597899 4.473168 -1.326016 5 0 5 
z
" style="stroke: #c0503f"/>
    </defs>
    <g clip-path="url(#pf3ee55fa96)">
     <use xlink:href="#m7d55c39d83" x="454.47794" y="189.953973" style="fill: #c0503f; stroke: #c0503f"/>
    </g>
   </g>
  </g>
  <g id="text_23">
   <text style="font-weight: 700; font-size: 22px; font-family: 'Arial'; text-anchor: middle; fill: #263238" x="178.757578" y="127.094812" transform="rotate(-0 178.757578 127.094812)">→</text>
  </g>
  <g id="text_24">
   <text style="font-weight: 700; font-size: 22px; font-family: 'Arial'; text-anchor: middle; fill: #263238" x="345.077578" y="127.094812" transform="rotate(-0 345.077578 127.094812)">→</text>
  </g>
  <g id="text_25">
   <text style="font-weight: 700; font-size: 10.5px; font-family: 'Arial'; text-anchor: middle; fill: #263238" x="246.797578" y="14.715703" transform="rotate(-0 246.797578 14.715703)">Protocol: tilting the double-well potential</text>
  </g>
 </g>
 <defs>
  <clipPath id="pa63ba41a54">
   <rect x="20.802578" y="58.5645" width="145.546293" height="132.2475"/>
  </clipPath>
  <clipPath id="p6f16a4bc3f">
   <rect x="181.010319" y="58.5645" width="145.546293" height="132.2475"/>
  </clipPath>
  <clipPath id="pf3ee55fa96">
   <rect x="341.218061" y="58.5645" width="145.546293" height="132.2475"/>
  </clipPath>
 </defs>
</svg>
