<?xml version="1.0" encoding="utf-8" standalone="no"?>
<!DOCTYPE svg PUBLIC "-//W3C//DTD SVG 1.1//EN"
  "http://www.w3.org/Graphics/SVG/1.1/DTD/svg11.dtd">
<svg xmlns:xlink="http://www.w3.org/1999/xlink" width="622.62pt" height="213.984pt" viewBox="0 0 622.62 213.984" xmlns="http://www.w3.org/2000/svg" version="1.1">
 <metadata>
  <rdf:RDF xmlns:dc="http://purl.org/dc/elements/1.1/" xmlns:cc="http://creativecommons.org/ns#" xmlns:rdf="http://www.w3.org/1999/02/22-rdf-syntax-ns#">
   <cc:Work>
    <dc:type rdf:resource="http://purl.org/dc/dcmitype/StillImage"/>
    <dc:date>2026-08-08T18:36:20.305417</dc:date>
    <dc:format>image/svg+xml</dc:format>
    <dc:creator>
     <cc:Agent>
      <dc:title>Matplotlib v3.10.8, https://matplotlib.org/</dc:title>
     </cc:Agent>
    </dc:creator>
   </cc:Work>
  </rdf:RDF>
 </metadata>
 <defs>
  <style type="text/css">*{stroke-linejoin: round; stroke-linecap: butt}</style>
 </defs>
 <g id="figure_1">
  <g id="patch_1">
   <path d="M 0 213.984 
L 622.62 213.984 
L 622.62 0 
L 0 0 
L 0 213.984 
z
" style="fill: none"/>
  </g>
  <g id="axes_1">
   <g id="patch_2">
    <path d="M 33.18092 165.270528 
L 165.084053 165.270528 
Q 175.742892 165.270528 175.742892 152.497152 
L 175.742892 62.285184 
Q 175.742892 49.511808 165.084053 49.511808 
L 33.18092 49.511808 
Q 22.522081 49.511808 22.522081 62.285184 
L 22.522081 152.497152 
Q 22.522081 165.270528 33.18092 165.270528 
z
" clip-path="url(#p0b69cc40e4)" style="fill: #f2edff; stroke: #7a53ec; stroke-width: 1.8; stroke-linejoin: miter"/>
   </g>
   <g id="text_1">
    <text style="font-weight: 600; font-size: 12px; font-family: 'Arial'; text-anchor: start; fill: #231533" x="10.863976" y="19.781055" transform="rotate(-0 10.863976 19.781055)">Scalar channel</text>
   </g>
   <g id="text_2">
    <text style="font-size: 9.3px; font-family: 'Arial'; text-anchor: start; fill: #665a75" x="10.863976" y="35.811006" transform="rotate(-0 10.863976 35.811006)">unchanged by rotation</text>
   </g>
   <g id="text_3">
    <!-- $\mathbf{s}_i$ -->
    <g style="fill: #7a53ec" transform="translate(92.077486 95.431999)">
     <text>
      <tspan x="0" y="-0.484375" style="font-weight: 700; font-size: 17px; font-family: 'DejaVu Sans'; fill: #7a53ec">s</tspan>
      <tspan x="10.281348" y="2.304688" style="font-style: oblique; font-size: 11.9px; font-family: 'DejaVu Sans'; fill: #7a53ec">i</tspan>
     </text>
    </g>
   </g>
   <g id="text_4">
    <text style="font-size: 9.2px; font-family: 'Arial'; text-anchor: middle; fill: #665a75" x="99.132486" y="129.274837" transform="rotate(-0 99.132486 129.274837)">charge · energy · atom type</text>
   </g>
   <g id="text_5">
    <!-- $\mathbf{s}_i\mapsto\mathbf{s}_i$ -->
    <g style="fill: #231533" transform="translate(84.682486 187.02278)">
     <text>
      <tspan x="0" y="-0.40625" style="font-weight: 700; font-size: 10px; font-family: 'DejaVu Sans'; fill: #231533">s</tspan>
      <tspan x="20.541504" y="-0.40625" style="font-weight: 700; font-size: 10px; font-family: 'DejaVu Sans'; fill: #231533">s</tspan>
      <tspan x="6.047852" y="1.234375" style="font-style: oblique; font-size: 7px; font-family: 'DejaVu Sans'; fill: #231533">i</tspan>
      <tspan x="26.589355" y="1.234375" style="font-style: oblique; font-size: 7px; font-family: 'DejaVu Sans'; fill: #231533">i</tspan>
      <tspan x="10.214355" y="-0.40625" style="font-size: 10px; font-family: 'DejaVu Sans'; fill: #231533">↦</tspan>
     </text>
    </g>
   </g>
  </g>
  <g id="axes_2">
   <g id="patch_3">
    <path d="M 354.828826 91.41921 
C 352.146427 82.587328 347.819658 74.602931 342.178014 68.07405 
C 336.536369 61.54517 329.726786 56.641852 322.267831 53.737496 
" clip-path="url(#p9a31272b6d)" style="fill: none; stroke: #b7791f; stroke-width: 1.8; stroke-linejoin: miter"/>
   </g>
   <g id="text_6">
    <text style="font-weight: 600; font-size: 12px; font-family: 'Arial'; text-anchor: start; fill: #231533" x="223.374578" y="19.781055" transform="rotate(-0 223.374578 19.781055)">Vector channel</text>
   </g>
   <g id="text_7">
    <text style="font-size: 9.3px; font-family: 'Arial'; text-anchor: start; fill: #665a75" x="223.374578" y="35.811006" transform="rotate(-0 223.374578 35.811006)">rotates with the geometry</text>
   </g>
   <g id="text_8">
    <text style="font-weight: 700; font-size: 10px; font-family: 'Arial'; text-anchor: start; fill: #b7791f" x="354.944622" y="121.362048" transform="rotate(-0 354.944622 121.362048)">Q</text>
   </g>
   <g id="text_9">
    <!-- $\mathbf{v}_i\mapsto\mathbf{Q}\mathbf{v}_i$ -->
    <g style="fill: #231533" transform="translate(290.394556 179.073795)">
     <text>
      <tspan x="0" y="-0.578125" style="font-weight: 700; font-size: 10px; font-family: 'DejaVu Sans'; fill: #231533">v</tspan>
      <tspan x="21.10791" y="-0.578125" style="font-weight: 700; font-size: 10px; font-family: 'DejaVu Sans'; fill: #231533">Q</tspan>
      <tspan x="29.608887" y="-0.578125" style="font-weight: 700; font-size: 10px; font-family: 'DejaVu Sans'; fill: #231533">v</tspan>
      <tspan x="6.614258" y="1.0625" style="font-style: oblique; font-size: 7px; font-family: 'DejaVu Sans'; fill: #231533">i</tspan>
      <tspan x="36.223145" y="1.0625" style="font-style: oblique; font-size: 7px; font-family: 'DejaVu Sans'; fill: #231533">i</tspan>
      <tspan x="10.780762" y="-0.578125" style="font-size: 10px; font-family: 'DejaVu Sans'; fill: #231533">↦</tspan>
     </text>
    </g>
   </g>
   <g id="patch_4">
    <path d="M 313.531879 105.660206 
Q 339.900759 80.380183 363.848468 57.421352 
" clip-path="url(#p9a31272b6d)" style="fill: none; stroke: #5f6ed8; stroke-width: 3; stroke-linecap: round"/>
    <path d="M 357.014059 59.540515 
L 363.848468 57.421352 
L 361.443152 64.160377 
z
" clip-path="url(#p9a31272b6d)" style="fill: #5f6ed8; stroke: #5f6ed8; stroke-width: 3; stroke-linecap: round"/>
   </g>
   <g id="patch_5">
    <path d="M 306.313669 128.547072 
C 309.847116 128.547072 313.236317 126.864718 315.734841 123.870528 
C 318.233365 120.876338 319.637218 116.814776 319.637218 112.580352 
C 319.637218 108.345928 318.233365 104.284366 315.734841 101.290176 
C 313.236317 98.295986 309.847116 96.613632 306.313669 96.613632 
C 302.780223 96.613632 299.391021 98.295986 296.892498 101.290176 
C 294.393974 104.284366 292.99012 108.345928 292.99012 112.580352 
C 292.99012 116.814776 294.393974 120.876338 296.892498 123.870528 
C 299.391021 126.864718 302.780223 128.547072 306.313669 128.547072 
z
" clip-path="url(#p9a31272b6d)" style="fill: #eef0ff; stroke: #5f6ed8; stroke-width: 2; stroke-linejoin: miter"/>
   </g>
  </g>
  <g id="axes_3">
   <g id="patch_6">
    <path d="M 444.434458 98.773835 
L 508.554036 98.773835 
Q 512.828675 98.773835 512.828675 93.295059 
L 512.828675 52.595576 
Q 512.828675 47.1168 508.554036 47.1168 
L 444.434458 47.1168 
Q 440.159819 47.1168 440.159819 52.595576 
L 440.159819 93.295059 
Q 440.159819 98.773835 444.434458 98.773835 
z
" clip-path="url(#p6bf31d4f30)" style="fill: #e4f4f2; stroke: #16877f; stroke-width: 1.6; stroke-linejoin: miter"/>
   </g>
   <g id="patch_7">
    <path d="M 444.434458 165.301835 
L 508.554036 165.301835 
Q 512.828675 165.301835 512.828675 159.823059 
L 512.828675 119.123576 
Q 512.828675 113.6448 508.554036 113.6448 
L 444.434458 113.6448 
Q 440.159819 113.6448 440.159819 119.123576 
L 440.159819 159.823059 
Q 440.159819 165.301835 444.434458 165.301835 
z
" clip-path="url(#p6bf31d4f30)" style="fill: #fff4dc; stroke: #b7791f; stroke-width: 1.6; stroke-linejoin: miter"/>
   </g>
   <g id="patch_8">
    <path d="M 540.919157 133.994541 
L 605.038735 133.994541 
Q 609.313373 133.994541 609.313373 128.515765 
L 609.313373 87.816282 
Q 609.313373 82.337506 605.038735 82.337506 
L 540.919157 82.337506 
Q 536.644518 82.337506 536.644518 87.816282 
L 536.644518 128.515765 
Q 536.644518 133.994541 540.919157 133.994541 
z
" clip-path="url(#p6bf31d4f30)" style="fill: #eef0ff; stroke: #5f6ed8; stroke-width: 1.6; stroke-linejoin: miter"/>
   </g>
   <g id="text_10">
    <text style="font-weight: 600; font-size: 12px; font-family: 'Arial'; text-anchor: start; fill: #231533" x="435.885181" y="19.781055" transform="rotate(-0 435.885181 19.781055)">Safe interactions</text>
   </g>
   <g id="text_11">
    <text style="font-size: 9.3px; font-family: 'Arial'; text-anchor: start; fill: #665a75" x="435.885181" y="35.811006" transform="rotate(-0 435.885181 35.811006)">invariants gate equivariant vectors</text>
   </g>
   <g id="text_12">
    <!-- $\|\mathbf{v}_i\|$ -->
    <g style="fill: #16877f" transform="translate(467.233247 75.542318)">
     <text>
      <tspan x="0" y="-0.359375" style="font-size: 9.8px; font-family: 'DejaVu Sans'; fill: #16877f">‖</tspan>
      <tspan x="13.495935" y="-0.359375" style="font-size: 9.8px; font-family: 'DejaVu Sans'; fill: #16877f">‖</tspan>
      <tspan x="4.875" y="-0.359375" style="font-weight: 700; font-size: 9.8px; font-family: 'DejaVu Sans'; fill: #16877f">v</tspan>
      <tspan x="11.326294" y="1.28125" style="font-style: oblique; font-size: 6.86px; font-family: 'DejaVu Sans'; fill: #16877f">i</tspan>
     </text>
    </g>
   </g>
   <g id="text_13">
    <!-- $\mathbf{v}_i\cdot\mathbf{v}_j$ -->
    <g style="fill: #b7791f" transform="translate(464.342247 140.90963)">
     <text>
      <tspan x="0" y="-0.53125" style="font-weight: 700; font-size: 9.8px; font-family: 'DejaVu Sans'; fill: #b7791f">v</tspan>
      <tspan x="15.51925" y="-0.53125" style="font-weight: 700; font-size: 9.8px; font-family: 'DejaVu Sans'; fill: #b7791f">v</tspan>
      <tspan x="6.451294" y="1.109375" style="font-style: oblique; font-size: 6.86px; font-family: 'DejaVu Sans'; fill: #b7791f">i</tspan>
      <tspan x="21.970544" y="1.109375" style="font-style: oblique; font-size: 6.86px; font-family: 'DejaVu Sans'; fill: #b7791f">j</tspan>
      <tspan x="10.520471" y="-0.53125" style="font-size: 9.8px; font-family: 'DejaVu Sans'; fill: #b7791f">⋅</tspan>
     </text>
    </g>
   </g>
   <g id="text_14">
    <!-- $g(\mathbf{s})\mathbf{v}_i$ -->
    <g style="fill: #5f6ed8" transform="translate(558.768946 110.861024)">
     <text>
      <tspan x="0" y="-0.40625" style="font-style: oblique; font-size: 9.8px; font-family: 'DejaVu Sans'; fill: #5f6ed8">g</tspan>
      <tspan x="6.188965" y="-0.40625" style="font-size: 9.8px; font-family: 'DejaVu Sans'; fill: #5f6ed8">(</tspan>
      <tspan x="15.796143" y="-0.40625" style="font-size: 9.8px; font-family: 'DejaVu Sans'; fill: #5f6ed8">)</tspan>
      <tspan x="9.992798" y="-0.40625" style="font-weight: 700; font-size: 9.8px; font-family: 'DejaVu Sans'; fill: #5f6ed8">s</tspan>
      <tspan x="19.599976" y="-0.40625" style="font-weight: 700; font-size: 9.8px; font-family: 'DejaVu Sans'; fill: #5f6ed8">v</tspan>
      <tspan x="26.05127" y="1.234375" style="font-style: oblique; font-size: 6.86px; font-family: 'DejaVu Sans'; fill: #5f6ed8">i</tspan>
     </text>
    </g>
   </g>
   <g id="text_15">
    <text style="font-size: 9.1px; font-family: 'Arial'; text-anchor: middle; fill: #c7506b" x="520.767289" y="193.482845" transform="rotate(-0 520.767289 193.482845)">no componentwise ReLU on vectors</text>
   </g>
   <g id="patch_9">
    <path d="M 511.607349 73.728 
Q 525.041928 86.250918 537.24976 97.630335 
" clip-path="url(#p6bf31d4f30)" style="fill: none; stroke: #665a75; stroke-width: 1.5; stroke-linecap: round"/>
    <path d="M 535.062599 91.763792 
L 537.24976 97.630335 
L 531.244229 95.860137 
z
" clip-path="url(#p6bf31d4f30)" style="fill: #665a75; stroke: #665a75; stroke-width: 1.5; stroke-linecap: round"/>
   </g>
   <g id="patch_10">
    <path d="M 511.607349 140.256 
Q 525.041928 128.515765 537.213697 117.879075 
" clip-path="url(#p6bf31d4f30)" style="fill: none; stroke: #665a75; stroke-width: 1.5; stroke-linecap: round"/>
    <path d="M 531.154455 119.455648 
L 537.213697 117.879075 
L 534.839409 123.672413 
z
" clip-path="url(#p6bf31d4f30)" style="fill: #665a75; stroke: #665a75; stroke-width: 1.5; stroke-linecap: round"/>
   </g>
  </g>
 </g>
 <defs>
  <clipPath id="p0b69cc40e4">
   <rect x="7.2" y="7.2" width="183.198795" height="199.584"/>
  </clipPath>
  <clipPath id="p9a31272b6d">
   <rect x="219.710602" y="7.2" width="183.198795" height="199.584"/>
  </clipPath>
  <clipPath id="p6bf31d4f30">
   <rect x="432.221205" y="7.2" width="183.198795" height="199.584"/>
  </clipPath>
 </defs>
</svg>
